M48
; DRILL file {KiCad 8.0.5} date 2024-11-24T13:51:44-0600
; FORMAT={-:-/ absolute / metric / decimal}
; #@! TF.CreationDate,2024-11-24T13:51:44-06:00
; #@! TF.GenerationSoftware,Kicad,Pcbnew,8.0.5
; #@! TF.FileFunction,Plated,1,2,PTH
FMAT,2
METRIC
; #@! TA.AperFunction,Plated,PTH,ViaDrill
T1C0.300
; #@! TA.AperFunction,Plated,PTH,ComponentDrill
T2C1.300
%
G90
G05
T1
X76.0Y-142.0
X84.5Y-131.5
X84.5Y-138.963
X87.0Y-142.0
X90.5Y-123.5
X105.5Y-128.5
X110.0Y-128.5
T2
X48.92Y-99.5
X49.305Y-134.965
X49.305Y-140.045
X49.305Y-147.965
X49.305Y-153.045
X49.5Y-121.42
X49.5Y-126.5
X54.0Y-99.5
X61.42Y-99.5
X66.5Y-99.5
X74.5Y-99.5
X79.58Y-99.5
X88.455Y-99.305
X93.535Y-99.305
X101.955Y-99.305
X107.035Y-99.305
X133.5Y-110.5
X133.5Y-115.58
X133.5Y-123.5
X133.5Y-128.58
X133.5Y-149.5
X133.5Y-154.58
X133.695Y-135.955
X133.695Y-141.035
X133.695Y-162.955
X133.695Y-168.035
M30
