%TF.GenerationSoftware,KiCad,Pcbnew,8.0.5*%
%TF.CreationDate,2024-11-24T13:51:33-06:00*%
%TF.ProjectId,Buck_V2,4275636b-5f56-4322-9e6b-696361645f70,rev?*%
%TF.SameCoordinates,Original*%
%TF.FileFunction,Copper,L1,Top*%
%TF.FilePolarity,Positive*%
%FSLAX46Y46*%
G04 Gerber Fmt 4.6, Leading zero omitted, Abs format (unit mm)*
G04 Created by KiCad (PCBNEW 8.0.5) date 2024-11-24 13:51:33*
%MOMM*%
%LPD*%
G01*
G04 APERTURE LIST*
G04 Aperture macros list*
%AMRoundRect*
0 Rectangle with rounded corners*
0 $1 Rounding radius*
0 $2 $3 $4 $5 $6 $7 $8 $9 X,Y pos of 4 corners*
0 Add a 4 corners polygon primitive as box body*
4,1,4,$2,$3,$4,$5,$6,$7,$8,$9,$2,$3,0*
0 Add four circle primitives for the rounded corners*
1,1,$1+$1,$2,$3*
1,1,$1+$1,$4,$5*
1,1,$1+$1,$6,$7*
1,1,$1+$1,$8,$9*
0 Add four rect primitives between the rounded corners*
20,1,$1+$1,$2,$3,$4,$5,0*
20,1,$1+$1,$4,$5,$6,$7,0*
20,1,$1+$1,$6,$7,$8,$9,0*
20,1,$1+$1,$8,$9,$2,$3,0*%
G04 Aperture macros list end*
%TA.AperFunction,SMDPad,CuDef*%
%ADD10RoundRect,0.250000X-0.475000X0.337500X-0.475000X-0.337500X0.475000X-0.337500X0.475000X0.337500X0*%
%TD*%
%TA.AperFunction,SMDPad,CuDef*%
%ADD11R,1.727200X1.625600*%
%TD*%
%TA.AperFunction,SMDPad,CuDef*%
%ADD12RoundRect,0.250000X0.350000X0.450000X-0.350000X0.450000X-0.350000X-0.450000X0.350000X-0.450000X0*%
%TD*%
%TA.AperFunction,SMDPad,CuDef*%
%ADD13RoundRect,0.250000X0.475000X-0.337500X0.475000X0.337500X-0.475000X0.337500X-0.475000X-0.337500X0*%
%TD*%
%TA.AperFunction,ComponentPad*%
%ADD14R,2.600000X2.600000*%
%TD*%
%TA.AperFunction,ComponentPad*%
%ADD15C,2.600000*%
%TD*%
%TA.AperFunction,SMDPad,CuDef*%
%ADD16RoundRect,0.250000X-0.337500X-0.475000X0.337500X-0.475000X0.337500X0.475000X-0.337500X0.475000X0*%
%TD*%
%TA.AperFunction,SMDPad,CuDef*%
%ADD17R,1.981200X0.558800*%
%TD*%
%TA.AperFunction,SMDPad,CuDef*%
%ADD18R,3.810000X4.240000*%
%TD*%
%TA.AperFunction,SMDPad,CuDef*%
%ADD19RoundRect,0.250000X-0.650000X0.412500X-0.650000X-0.412500X0.650000X-0.412500X0.650000X0.412500X0*%
%TD*%
%TA.AperFunction,SMDPad,CuDef*%
%ADD20RoundRect,0.250000X-0.350000X-0.450000X0.350000X-0.450000X0.350000X0.450000X-0.350000X0.450000X0*%
%TD*%
%TA.AperFunction,SMDPad,CuDef*%
%ADD21R,2.489200X3.429000*%
%TD*%
%TA.AperFunction,ViaPad*%
%ADD22C,0.600000*%
%TD*%
%TA.AperFunction,Conductor*%
%ADD23C,0.508000*%
%TD*%
%TA.AperFunction,Conductor*%
%ADD24C,1.524000*%
%TD*%
%TA.AperFunction,Conductor*%
%ADD25C,2.540000*%
%TD*%
G04 APERTURE END LIST*
D10*
%TO.P,C6,1*%
%TO.N,+5V*%
X110000000Y-124500000D03*
%TO.P,C6,2*%
%TO.N,GND*%
X110000000Y-126575000D03*
%TD*%
D11*
%TO.P,D1,1,K*%
%TO.N,Net-(D1-K)*%
X84000000Y-126500000D03*
%TO.P,D1,2,A*%
%TO.N,GND*%
X88267200Y-126500000D03*
%TD*%
D12*
%TO.P,R2,1*%
%TO.N,+5V*%
X99000000Y-135000000D03*
%TO.P,R2,2*%
%TO.N,Net-(U1-VSENSE)*%
X97000000Y-135000000D03*
%TD*%
D13*
%TO.P,C3,1*%
%TO.N,Net-(C3-Pad1)*%
X92000000Y-128037500D03*
%TO.P,C3,2*%
%TO.N,GND*%
X92000000Y-125962500D03*
%TD*%
D14*
%TO.P,J7,1,Pin_1*%
%TO.N,+12V*%
X61420000Y-99500000D03*
D15*
%TO.P,J7,2,Pin_2*%
%TO.N,GND*%
X66500000Y-99500000D03*
%TD*%
D14*
%TO.P,J8,1,Pin_1*%
%TO.N,+12V*%
X74500000Y-99500000D03*
D15*
%TO.P,J8,2,Pin_2*%
%TO.N,GND*%
X79580000Y-99500000D03*
%TD*%
D10*
%TO.P,C2,1*%
%TO.N,Net-(U1-COMP)*%
X87500000Y-136925000D03*
%TO.P,C2,2*%
%TO.N,GND*%
X87500000Y-139000000D03*
%TD*%
D16*
%TO.P,C5,1*%
%TO.N,Net-(U1-BOOT)*%
X78962500Y-127000000D03*
%TO.P,C5,2*%
%TO.N,Net-(D1-K)*%
X81037500Y-127000000D03*
%TD*%
D10*
%TO.P,C7,1*%
%TO.N,+5V*%
X105520200Y-124462500D03*
%TO.P,C7,2*%
%TO.N,GND*%
X105520200Y-126537500D03*
%TD*%
D14*
%TO.P,J14,1,Pin_1*%
%TO.N,GND*%
X101955000Y-99305000D03*
D15*
%TO.P,J14,2,Pin_2*%
%TO.N,Net-(J14-Pin_2)*%
X107035000Y-99305000D03*
%TD*%
D14*
%TO.P,J1,1,Pin_1*%
%TO.N,+5V*%
X133695000Y-162955000D03*
D15*
%TO.P,J1,2,Pin_2*%
%TO.N,GND*%
X133695000Y-168035000D03*
%TD*%
D17*
%TO.P,U1,1,BOOT*%
%TO.N,Net-(U1-BOOT)*%
X77536200Y-130095000D03*
%TO.P,U1,2,VIN*%
%TO.N,+12V*%
X77536200Y-131365000D03*
%TO.P,U1,3,EN*%
%TO.N,unconnected-(U1-EN-Pad3)*%
X77536200Y-132635000D03*
%TO.P,U1,4,SS*%
%TO.N,Net-(U1-SS)*%
X77536200Y-133905000D03*
%TO.P,U1,5,VSENSE*%
%TO.N,Net-(U1-VSENSE)*%
X82463800Y-133905000D03*
%TO.P,U1,6,COMP*%
%TO.N,Net-(U1-COMP)*%
X82463800Y-132635000D03*
%TO.P,U1,7,GND*%
%TO.N,GND*%
X82463800Y-131365000D03*
%TO.P,U1,8,PH*%
%TO.N,Net-(D1-K)*%
X82463800Y-130095000D03*
%TD*%
D14*
%TO.P,J6,1,Pin_1*%
%TO.N,+12V*%
X48920000Y-99500000D03*
D15*
%TO.P,J6,2,Pin_2*%
%TO.N,GND*%
X54000000Y-99500000D03*
%TD*%
D14*
%TO.P,J9,1,Pin_1*%
%TO.N,+12V*%
X88455000Y-99305000D03*
D15*
%TO.P,J9,2,Pin_2*%
%TO.N,GND*%
X93535000Y-99305000D03*
%TD*%
D14*
%TO.P,J2,1,Pin_1*%
%TO.N,+12V*%
X49305000Y-140045000D03*
D15*
%TO.P,J2,2,Pin_2*%
%TO.N,GND*%
X49305000Y-134965000D03*
%TD*%
D14*
%TO.P,J4,1,Pin_1*%
%TO.N,+5V*%
X49305000Y-153045000D03*
D15*
%TO.P,J4,2,Pin_2*%
%TO.N,GND*%
X49305000Y-147965000D03*
%TD*%
D18*
%TO.P,F1,1*%
%TO.N,Net-(J14-Pin_2)*%
X107500000Y-108500000D03*
%TO.P,F1,2*%
%TO.N,+12V*%
X107500000Y-114870000D03*
%TD*%
D19*
%TO.P,C4,1*%
%TO.N,Net-(U1-SS)*%
X76250000Y-136750000D03*
%TO.P,C4,2*%
%TO.N,GND*%
X76250000Y-139875000D03*
%TD*%
D14*
%TO.P,J12,1,Pin_1*%
%TO.N,+5V*%
X133695000Y-135955000D03*
D15*
%TO.P,J12,2,Pin_2*%
%TO.N,GND*%
X133695000Y-141035000D03*
%TD*%
D14*
%TO.P,J13,1,Pin_1*%
%TO.N,+5V*%
X133500000Y-149500000D03*
D15*
%TO.P,J13,2,Pin_2*%
%TO.N,GND*%
X133500000Y-154580000D03*
%TD*%
D14*
%TO.P,J3,1,Pin_1*%
%TO.N,+12V*%
X49500000Y-126500000D03*
D15*
%TO.P,J3,2,Pin_2*%
%TO.N,GND*%
X49500000Y-121420000D03*
%TD*%
D14*
%TO.P,J10,1,Pin_1*%
%TO.N,+5V*%
X133500000Y-110500000D03*
D15*
%TO.P,J10,2,Pin_2*%
%TO.N,GND*%
X133500000Y-115580000D03*
%TD*%
D20*
%TO.P,R3,1*%
%TO.N,Net-(U1-VSENSE)*%
X83500000Y-136500000D03*
%TO.P,R3,2*%
%TO.N,GND*%
X85500000Y-136500000D03*
%TD*%
D14*
%TO.P,J11,1,Pin_1*%
%TO.N,+5V*%
X133500000Y-123500000D03*
D15*
%TO.P,J11,2,Pin_2*%
%TO.N,GND*%
X133500000Y-128580000D03*
%TD*%
D16*
%TO.P,C1,1*%
%TO.N,+12V*%
X82462500Y-142000000D03*
%TO.P,C1,2*%
%TO.N,GND*%
X84537500Y-142000000D03*
%TD*%
D21*
%TO.P,L1,1,1*%
%TO.N,Net-(D1-K)*%
X81282200Y-120500000D03*
%TO.P,L1,2,2*%
%TO.N,+5V*%
X86717800Y-120500000D03*
%TD*%
D20*
%TO.P,R1,1*%
%TO.N,Net-(U1-COMP)*%
X90000000Y-132000000D03*
%TO.P,R1,2*%
%TO.N,Net-(C3-Pad1)*%
X92000000Y-132000000D03*
%TD*%
D22*
%TO.N,GND*%
X76000000Y-142000000D03*
X110000000Y-128500000D03*
X105500000Y-128500000D03*
X87000000Y-142000000D03*
X84500000Y-138962500D03*
X90500000Y-123500000D03*
X84500000Y-131500000D03*
%TD*%
D23*
%TO.N,GND*%
X92000000Y-125962500D02*
X92000000Y-125000000D01*
X84365000Y-131365000D02*
X84500000Y-131500000D01*
X85500000Y-137962500D02*
X84500000Y-138962500D01*
X85500000Y-136500000D02*
X85500000Y-137962500D01*
X88267200Y-126500000D02*
X88267200Y-125732800D01*
X76250000Y-141750000D02*
X76000000Y-142000000D01*
X76250000Y-139875000D02*
X76250000Y-141750000D01*
X92000000Y-125000000D02*
X90500000Y-123500000D01*
X88267200Y-125732800D02*
X90500000Y-123500000D01*
X82463800Y-131365000D02*
X84365000Y-131365000D01*
X84537500Y-142000000D02*
X87000000Y-142000000D01*
X84462500Y-139000000D02*
X84500000Y-138962500D01*
D24*
X105520200Y-126537500D02*
X105520200Y-128479800D01*
D23*
X84537500Y-139000000D02*
X84500000Y-138962500D01*
X87500000Y-139000000D02*
X84537500Y-139000000D01*
D24*
X110000000Y-126575000D02*
X110000000Y-128500000D01*
X105520200Y-128479800D02*
X105500000Y-128500000D01*
D23*
%TO.N,Net-(U1-COMP)*%
X87500000Y-136337500D02*
X83797500Y-132635000D01*
X87500000Y-134500000D02*
X90000000Y-132000000D01*
X83797500Y-132635000D02*
X82463800Y-132635000D01*
X87500000Y-136925000D02*
X87500000Y-136337500D01*
X87500000Y-136925000D02*
X87500000Y-134500000D01*
%TO.N,Net-(C3-Pad1)*%
X92000000Y-132000000D02*
X92000000Y-128037500D01*
%TO.N,Net-(U1-SS)*%
X77536200Y-133905000D02*
X77536200Y-135463800D01*
X77536200Y-135463800D02*
X76250000Y-136750000D01*
%TO.N,Net-(D1-K)*%
X81037500Y-127000000D02*
X81037500Y-128668700D01*
X81037500Y-128668700D02*
X82463800Y-130095000D01*
X81037500Y-127000000D02*
X81037500Y-120744700D01*
X81537500Y-126500000D02*
X81037500Y-127000000D01*
X84000000Y-126500000D02*
X81537500Y-126500000D01*
X81037500Y-120744700D02*
X81282200Y-120500000D01*
%TO.N,Net-(U1-BOOT)*%
X77536200Y-128426300D02*
X78962500Y-127000000D01*
X77536200Y-130095000D02*
X77536200Y-128426300D01*
D24*
%TO.N,+5V*%
X105520200Y-124462500D02*
X105520200Y-120520200D01*
X126000000Y-123500000D02*
X126000000Y-120500000D01*
X126000000Y-149500000D02*
X133500000Y-149500000D01*
X99000000Y-135000000D02*
X99000000Y-120500000D01*
X126000000Y-136000000D02*
X126000000Y-123500000D01*
X126000000Y-120500000D02*
X126000000Y-110500000D01*
X86717800Y-120500000D02*
X99000000Y-120500000D01*
X110000000Y-120500000D02*
X126000000Y-120500000D01*
X110000000Y-124500000D02*
X110000000Y-120500000D01*
X99000000Y-120500000D02*
X105500000Y-120500000D01*
X49305000Y-153045000D02*
X125045000Y-153045000D01*
X125045000Y-153045000D02*
X126000000Y-154000000D01*
X105520200Y-120520200D02*
X105500000Y-120500000D01*
X133695000Y-162955000D02*
X128455000Y-162955000D01*
X126000000Y-123500000D02*
X133500000Y-123500000D01*
X105500000Y-120500000D02*
X110000000Y-120500000D01*
X126000000Y-154000000D02*
X126000000Y-150500000D01*
X126000000Y-136000000D02*
X126045000Y-135955000D01*
X128455000Y-162955000D02*
X126000000Y-160500000D01*
X126000000Y-110500000D02*
X133500000Y-110500000D01*
X126000000Y-150500000D02*
X126000000Y-149500000D01*
X126000000Y-160500000D02*
X126000000Y-154000000D01*
X126045000Y-135955000D02*
X133695000Y-135955000D01*
X126000000Y-150500000D02*
X126000000Y-136000000D01*
D23*
%TO.N,Net-(U1-VSENSE)*%
X82095000Y-133905000D02*
X82463800Y-133905000D01*
X83500000Y-134941200D02*
X82463800Y-133905000D01*
X81000000Y-145000000D02*
X79000000Y-143000000D01*
X79000000Y-143000000D02*
X79000000Y-137000000D01*
X79000000Y-137000000D02*
X82095000Y-133905000D01*
X83500000Y-136500000D02*
X83500000Y-134941200D01*
X90500000Y-145000000D02*
X81000000Y-145000000D01*
X97000000Y-138500000D02*
X90500000Y-145000000D01*
X97000000Y-135000000D02*
X97000000Y-138500000D01*
D25*
%TO.N,Net-(J14-Pin_2)*%
X107035000Y-108035000D02*
X107500000Y-108500000D01*
X107035000Y-99305000D02*
X107035000Y-108035000D01*
%TD*%
%TA.AperFunction,Conductor*%
%TO.N,+12V*%
G36*
X135943039Y-97019685D02*
G01*
X135988794Y-97072489D01*
X136000000Y-97124000D01*
X136000000Y-172126000D01*
X135980315Y-172193039D01*
X135927511Y-172238794D01*
X135876000Y-172250000D01*
X46624000Y-172250000D01*
X46556961Y-172230315D01*
X46511206Y-172177511D01*
X46500000Y-172126000D01*
X46500000Y-168034995D01*
X131889451Y-168034995D01*
X131889451Y-168035004D01*
X131909616Y-168304101D01*
X131969664Y-168567188D01*
X131969666Y-168567195D01*
X132068257Y-168818398D01*
X132203185Y-169052102D01*
X132339080Y-169222509D01*
X132371442Y-169263089D01*
X132558183Y-169436358D01*
X132569259Y-169446635D01*
X132792226Y-169598651D01*
X133035359Y-169715738D01*
X133293228Y-169795280D01*
X133293229Y-169795280D01*
X133293232Y-169795281D01*
X133560063Y-169835499D01*
X133560068Y-169835499D01*
X133560071Y-169835500D01*
X133560072Y-169835500D01*
X133829928Y-169835500D01*
X133829929Y-169835500D01*
X133829936Y-169835499D01*
X134096767Y-169795281D01*
X134096768Y-169795280D01*
X134096772Y-169795280D01*
X134354641Y-169715738D01*
X134597775Y-169598651D01*
X134820741Y-169446635D01*
X135018561Y-169263085D01*
X135186815Y-169052102D01*
X135321743Y-168818398D01*
X135420334Y-168567195D01*
X135480383Y-168304103D01*
X135500549Y-168035000D01*
X135480383Y-167765897D01*
X135420334Y-167502805D01*
X135321743Y-167251602D01*
X135186815Y-167017898D01*
X135018561Y-166806915D01*
X135018560Y-166806914D01*
X135018557Y-166806910D01*
X134820741Y-166623365D01*
X134597775Y-166471349D01*
X134597769Y-166471346D01*
X134597768Y-166471345D01*
X134597767Y-166471344D01*
X134354643Y-166354263D01*
X134354645Y-166354263D01*
X134096773Y-166274720D01*
X134096767Y-166274718D01*
X133829936Y-166234500D01*
X133829929Y-166234500D01*
X133560071Y-166234500D01*
X133560063Y-166234500D01*
X133293232Y-166274718D01*
X133293226Y-166274720D01*
X133035358Y-166354262D01*
X132792230Y-166471346D01*
X132569258Y-166623365D01*
X132371442Y-166806910D01*
X132203185Y-167017898D01*
X132068258Y-167251599D01*
X132068256Y-167251603D01*
X131969666Y-167502804D01*
X131969664Y-167502811D01*
X131909616Y-167765898D01*
X131889451Y-168034995D01*
X46500000Y-168034995D01*
X46500000Y-151697135D01*
X47504500Y-151697135D01*
X47504500Y-154392870D01*
X47504501Y-154392876D01*
X47510908Y-154452483D01*
X47561202Y-154587328D01*
X47561206Y-154587335D01*
X47647452Y-154702544D01*
X47647455Y-154702547D01*
X47762664Y-154788793D01*
X47762671Y-154788797D01*
X47897517Y-154839091D01*
X47897516Y-154839091D01*
X47904444Y-154839835D01*
X47957127Y-154845500D01*
X50652872Y-154845499D01*
X50712483Y-154839091D01*
X50847331Y-154788796D01*
X50962546Y-154702546D01*
X51048796Y-154587331D01*
X51099091Y-154452483D01*
X51102772Y-154418242D01*
X51129509Y-154353694D01*
X51186901Y-154313846D01*
X51226061Y-154307500D01*
X124470694Y-154307500D01*
X124537733Y-154327185D01*
X124558375Y-154343819D01*
X124701181Y-154486625D01*
X124734666Y-154547948D01*
X124737500Y-154574306D01*
X124737500Y-160599360D01*
X124768587Y-160795637D01*
X124829993Y-160984629D01*
X124829994Y-160984632D01*
X124916547Y-161154500D01*
X124920213Y-161161694D01*
X125037019Y-161322464D01*
X125127219Y-161412664D01*
X125181866Y-161467311D01*
X125181876Y-161467320D01*
X127492018Y-163777463D01*
X127492019Y-163777464D01*
X127632536Y-163917981D01*
X127793306Y-164034787D01*
X127970368Y-164125005D01*
X128113879Y-164171634D01*
X128159362Y-164186413D01*
X128355634Y-164217500D01*
X128355639Y-164217500D01*
X128554360Y-164217500D01*
X131773939Y-164217500D01*
X131840978Y-164237185D01*
X131886733Y-164289989D01*
X131897229Y-164328248D01*
X131900908Y-164362483D01*
X131951202Y-164497328D01*
X131951206Y-164497335D01*
X132037452Y-164612544D01*
X132037455Y-164612547D01*
X132152664Y-164698793D01*
X132152671Y-164698797D01*
X132287517Y-164749091D01*
X132287516Y-164749091D01*
X132294444Y-164749835D01*
X132347127Y-164755500D01*
X135042872Y-164755499D01*
X135102483Y-164749091D01*
X135237331Y-164698796D01*
X135352546Y-164612546D01*
X135438796Y-164497331D01*
X135489091Y-164362483D01*
X135495500Y-164302873D01*
X135495499Y-161607128D01*
X135489091Y-161547517D01*
X135438796Y-161412669D01*
X135438795Y-161412668D01*
X135438793Y-161412664D01*
X135352547Y-161297455D01*
X135352544Y-161297452D01*
X135237335Y-161211206D01*
X135237328Y-161211202D01*
X135102482Y-161160908D01*
X135102483Y-161160908D01*
X135042883Y-161154501D01*
X135042881Y-161154500D01*
X135042873Y-161154500D01*
X135042864Y-161154500D01*
X132347129Y-161154500D01*
X132347123Y-161154501D01*
X132287516Y-161160908D01*
X132152671Y-161211202D01*
X132152664Y-161211206D01*
X132037455Y-161297452D01*
X132037452Y-161297455D01*
X131951206Y-161412664D01*
X131951202Y-161412671D01*
X131900910Y-161547513D01*
X131900909Y-161547517D01*
X131897227Y-161581757D01*
X131870491Y-161646306D01*
X131813099Y-161686154D01*
X131773939Y-161692500D01*
X129029307Y-161692500D01*
X128962268Y-161672815D01*
X128941626Y-161656181D01*
X127298819Y-160013374D01*
X127265334Y-159952051D01*
X127262500Y-159925693D01*
X127262500Y-154579995D01*
X131694451Y-154579995D01*
X131694451Y-154580004D01*
X131714616Y-154849101D01*
X131774664Y-155112188D01*
X131774666Y-155112195D01*
X131873257Y-155363398D01*
X132008185Y-155597102D01*
X132144080Y-155767509D01*
X132176442Y-155808089D01*
X132363183Y-155981358D01*
X132374259Y-155991635D01*
X132597226Y-156143651D01*
X132840359Y-156260738D01*
X133098228Y-156340280D01*
X133098229Y-156340280D01*
X133098232Y-156340281D01*
X133365063Y-156380499D01*
X133365068Y-156380499D01*
X133365071Y-156380500D01*
X133365072Y-156380500D01*
X133634928Y-156380500D01*
X133634929Y-156380500D01*
X133634936Y-156380499D01*
X133901767Y-156340281D01*
X133901768Y-156340280D01*
X133901772Y-156340280D01*
X134159641Y-156260738D01*
X134402775Y-156143651D01*
X134625741Y-155991635D01*
X134823561Y-155808085D01*
X134991815Y-155597102D01*
X135126743Y-155363398D01*
X135225334Y-155112195D01*
X135285383Y-154849103D01*
X135296366Y-154702544D01*
X135305549Y-154580004D01*
X135305549Y-154579995D01*
X135285383Y-154310898D01*
X135285383Y-154310897D01*
X135225334Y-154047805D01*
X135126743Y-153796602D01*
X134991815Y-153562898D01*
X134823561Y-153351915D01*
X134823560Y-153351914D01*
X134823557Y-153351910D01*
X134625741Y-153168365D01*
X134402775Y-153016349D01*
X134402769Y-153016346D01*
X134402768Y-153016345D01*
X134402767Y-153016344D01*
X134159643Y-152899263D01*
X134159645Y-152899263D01*
X133901773Y-152819720D01*
X133901767Y-152819718D01*
X133634936Y-152779500D01*
X133634929Y-152779500D01*
X133365071Y-152779500D01*
X133365063Y-152779500D01*
X133098232Y-152819718D01*
X133098226Y-152819720D01*
X132840358Y-152899262D01*
X132597230Y-153016346D01*
X132374258Y-153168365D01*
X132176442Y-153351910D01*
X132008185Y-153562898D01*
X131873258Y-153796599D01*
X131873256Y-153796603D01*
X131774666Y-154047804D01*
X131774664Y-154047811D01*
X131714616Y-154310898D01*
X131694451Y-154579995D01*
X127262500Y-154579995D01*
X127262500Y-150886500D01*
X127282185Y-150819461D01*
X127334989Y-150773706D01*
X127386500Y-150762500D01*
X131578939Y-150762500D01*
X131645978Y-150782185D01*
X131691733Y-150834989D01*
X131702229Y-150873248D01*
X131705908Y-150907483D01*
X131756202Y-151042328D01*
X131756206Y-151042335D01*
X131842452Y-151157544D01*
X131842455Y-151157547D01*
X131957664Y-151243793D01*
X131957671Y-151243797D01*
X132092517Y-151294091D01*
X132092516Y-151294091D01*
X132099444Y-151294835D01*
X132152127Y-151300500D01*
X134847872Y-151300499D01*
X134907483Y-151294091D01*
X135042331Y-151243796D01*
X135157546Y-151157546D01*
X135243796Y-151042331D01*
X135294091Y-150907483D01*
X135300500Y-150847873D01*
X135300499Y-148152128D01*
X135294091Y-148092517D01*
X135246530Y-147965000D01*
X135243797Y-147957671D01*
X135243793Y-147957664D01*
X135157547Y-147842455D01*
X135157544Y-147842452D01*
X135042335Y-147756206D01*
X135042328Y-147756202D01*
X134907482Y-147705908D01*
X134907483Y-147705908D01*
X134847883Y-147699501D01*
X134847881Y-147699500D01*
X134847873Y-147699500D01*
X134847864Y-147699500D01*
X132152129Y-147699500D01*
X132152123Y-147699501D01*
X132092516Y-147705908D01*
X131957671Y-147756202D01*
X131957664Y-147756206D01*
X131842455Y-147842452D01*
X131842452Y-147842455D01*
X131756206Y-147957664D01*
X131756202Y-147957671D01*
X131705910Y-148092513D01*
X131705909Y-148092517D01*
X131702227Y-148126757D01*
X131675491Y-148191306D01*
X131618099Y-148231154D01*
X131578939Y-148237500D01*
X127386500Y-148237500D01*
X127319461Y-148217815D01*
X127273706Y-148165011D01*
X127262500Y-148113500D01*
X127262500Y-141034995D01*
X131889451Y-141034995D01*
X131889451Y-141035004D01*
X131909616Y-141304101D01*
X131969664Y-141567188D01*
X131969666Y-141567195D01*
X132068256Y-141818396D01*
X132068258Y-141818400D01*
X132096770Y-141867784D01*
X132203185Y-142052102D01*
X132247276Y-142107390D01*
X132371442Y-142263089D01*
X132558183Y-142436358D01*
X132569259Y-142446635D01*
X132792226Y-142598651D01*
X133035359Y-142715738D01*
X133293228Y-142795280D01*
X133293229Y-142795280D01*
X133293232Y-142795281D01*
X133560063Y-142835499D01*
X133560068Y-142835499D01*
X133560071Y-142835500D01*
X133560072Y-142835500D01*
X133829928Y-142835500D01*
X133829929Y-142835500D01*
X133829936Y-142835499D01*
X134096767Y-142795281D01*
X134096768Y-142795280D01*
X134096772Y-142795280D01*
X134354641Y-142715738D01*
X134597775Y-142598651D01*
X134820741Y-142446635D01*
X135018561Y-142263085D01*
X135186815Y-142052102D01*
X135321743Y-141818398D01*
X135420334Y-141567195D01*
X135480383Y-141304103D01*
X135493202Y-141133043D01*
X135500549Y-141035004D01*
X135500549Y-141034995D01*
X135481815Y-140785001D01*
X135480383Y-140765897D01*
X135420334Y-140502805D01*
X135321743Y-140251602D01*
X135186815Y-140017898D01*
X135018561Y-139806915D01*
X135018560Y-139806914D01*
X135018557Y-139806910D01*
X134820741Y-139623365D01*
X134766020Y-139586057D01*
X134597775Y-139471349D01*
X134597769Y-139471346D01*
X134597768Y-139471345D01*
X134597767Y-139471344D01*
X134354643Y-139354263D01*
X134354645Y-139354263D01*
X134096773Y-139274720D01*
X134096767Y-139274718D01*
X133829936Y-139234500D01*
X133829929Y-139234500D01*
X133560071Y-139234500D01*
X133560063Y-139234500D01*
X133293232Y-139274718D01*
X133293226Y-139274720D01*
X133035358Y-139354262D01*
X132792230Y-139471346D01*
X132569258Y-139623365D01*
X132371442Y-139806910D01*
X132203185Y-140017898D01*
X132068258Y-140251599D01*
X132068256Y-140251603D01*
X131969666Y-140502804D01*
X131969664Y-140502811D01*
X131909616Y-140765898D01*
X131889451Y-141034995D01*
X127262500Y-141034995D01*
X127262500Y-137341500D01*
X127282185Y-137274461D01*
X127334989Y-137228706D01*
X127386500Y-137217500D01*
X131773939Y-137217500D01*
X131840978Y-137237185D01*
X131886733Y-137289989D01*
X131897229Y-137328248D01*
X131900908Y-137362483D01*
X131951202Y-137497328D01*
X131951206Y-137497335D01*
X132037452Y-137612544D01*
X132037455Y-137612547D01*
X132152664Y-137698793D01*
X132152671Y-137698797D01*
X132287517Y-137749091D01*
X132287516Y-137749091D01*
X132294444Y-137749835D01*
X132347127Y-137755500D01*
X135042872Y-137755499D01*
X135102483Y-137749091D01*
X135237331Y-137698796D01*
X135352546Y-137612546D01*
X135438796Y-137497331D01*
X135489091Y-137362483D01*
X135495500Y-137302873D01*
X135495499Y-134607128D01*
X135489091Y-134547517D01*
X135487013Y-134541946D01*
X135438797Y-134412671D01*
X135438793Y-134412664D01*
X135352547Y-134297455D01*
X135352544Y-134297452D01*
X135237335Y-134211206D01*
X135237328Y-134211202D01*
X135102482Y-134160908D01*
X135102483Y-134160908D01*
X135042883Y-134154501D01*
X135042881Y-134154500D01*
X135042873Y-134154500D01*
X135042864Y-134154500D01*
X132347129Y-134154500D01*
X132347123Y-134154501D01*
X132287516Y-134160908D01*
X132152671Y-134211202D01*
X132152664Y-134211206D01*
X132037455Y-134297452D01*
X132037452Y-134297455D01*
X131951206Y-134412664D01*
X131951202Y-134412671D01*
X131902986Y-134541947D01*
X131900909Y-134547517D01*
X131897227Y-134581757D01*
X131870491Y-134646306D01*
X131813099Y-134686154D01*
X131773939Y-134692500D01*
X127386500Y-134692500D01*
X127319461Y-134672815D01*
X127273706Y-134620011D01*
X127262500Y-134568500D01*
X127262500Y-128579995D01*
X131694451Y-128579995D01*
X131694451Y-128580004D01*
X131714616Y-128849101D01*
X131774664Y-129112188D01*
X131774666Y-129112195D01*
X131856816Y-129321509D01*
X131873257Y-129363398D01*
X132008185Y-129597102D01*
X132078837Y-129685696D01*
X132176442Y-129808089D01*
X132363183Y-129981358D01*
X132374259Y-129991635D01*
X132597226Y-130143651D01*
X132840359Y-130260738D01*
X133098228Y-130340280D01*
X133098229Y-130340280D01*
X133098232Y-130340281D01*
X133365063Y-130380499D01*
X133365068Y-130380499D01*
X133365071Y-130380500D01*
X133365072Y-130380500D01*
X133634928Y-130380500D01*
X133634929Y-130380500D01*
X133634936Y-130380499D01*
X133901767Y-130340281D01*
X133901768Y-130340280D01*
X133901772Y-130340280D01*
X134159641Y-130260738D01*
X134402775Y-130143651D01*
X134625741Y-129991635D01*
X134823561Y-129808085D01*
X134991815Y-129597102D01*
X135126743Y-129363398D01*
X135225334Y-129112195D01*
X135285383Y-128849103D01*
X135304471Y-128594388D01*
X135305549Y-128580004D01*
X135305549Y-128579995D01*
X135285383Y-128310898D01*
X135282896Y-128300000D01*
X135225334Y-128047805D01*
X135126743Y-127796602D01*
X134991815Y-127562898D01*
X134823561Y-127351915D01*
X134823560Y-127351914D01*
X134823557Y-127351910D01*
X134625741Y-127168365D01*
X134402775Y-127016349D01*
X134402769Y-127016346D01*
X134402768Y-127016345D01*
X134402767Y-127016344D01*
X134159643Y-126899263D01*
X134159645Y-126899263D01*
X133901773Y-126819720D01*
X133901767Y-126819718D01*
X133634936Y-126779500D01*
X133634929Y-126779500D01*
X133365071Y-126779500D01*
X133365063Y-126779500D01*
X133098232Y-126819718D01*
X133098226Y-126819720D01*
X132840358Y-126899262D01*
X132597230Y-127016346D01*
X132374258Y-127168365D01*
X132176442Y-127351910D01*
X132008185Y-127562898D01*
X131873258Y-127796599D01*
X131873256Y-127796603D01*
X131774666Y-128047804D01*
X131774664Y-128047811D01*
X131714616Y-128310898D01*
X131694451Y-128579995D01*
X127262500Y-128579995D01*
X127262500Y-124886500D01*
X127282185Y-124819461D01*
X127334989Y-124773706D01*
X127386500Y-124762500D01*
X131578939Y-124762500D01*
X131645978Y-124782185D01*
X131691733Y-124834989D01*
X131702229Y-124873248D01*
X131705908Y-124907483D01*
X131756202Y-125042328D01*
X131756206Y-125042335D01*
X131842452Y-125157544D01*
X131842455Y-125157547D01*
X131957664Y-125243793D01*
X131957671Y-125243797D01*
X132092517Y-125294091D01*
X132092516Y-125294091D01*
X132099444Y-125294835D01*
X132152127Y-125300500D01*
X134847872Y-125300499D01*
X134907483Y-125294091D01*
X135042331Y-125243796D01*
X135157546Y-125157546D01*
X135243796Y-125042331D01*
X135294091Y-124907483D01*
X135300500Y-124847873D01*
X135300499Y-122152128D01*
X135294091Y-122092517D01*
X135243796Y-121957669D01*
X135243795Y-121957668D01*
X135243793Y-121957664D01*
X135157547Y-121842455D01*
X135157544Y-121842452D01*
X135042335Y-121756206D01*
X135042328Y-121756202D01*
X134907482Y-121705908D01*
X134907483Y-121705908D01*
X134847883Y-121699501D01*
X134847881Y-121699500D01*
X134847873Y-121699500D01*
X134847864Y-121699500D01*
X132152129Y-121699500D01*
X132152123Y-121699501D01*
X132092516Y-121705908D01*
X131957671Y-121756202D01*
X131957664Y-121756206D01*
X131842455Y-121842452D01*
X131842452Y-121842455D01*
X131756206Y-121957664D01*
X131756202Y-121957671D01*
X131705910Y-122092513D01*
X131705909Y-122092517D01*
X131702227Y-122126757D01*
X131675491Y-122191306D01*
X131618099Y-122231154D01*
X131578939Y-122237500D01*
X127386500Y-122237500D01*
X127319461Y-122217815D01*
X127273706Y-122165011D01*
X127262500Y-122113500D01*
X127262500Y-115579995D01*
X131694451Y-115579995D01*
X131694451Y-115580004D01*
X131714616Y-115849101D01*
X131774664Y-116112188D01*
X131774666Y-116112195D01*
X131873257Y-116363398D01*
X132008185Y-116597102D01*
X132144080Y-116767509D01*
X132176442Y-116808089D01*
X132363183Y-116981358D01*
X132374259Y-116991635D01*
X132597226Y-117143651D01*
X132840359Y-117260738D01*
X133098228Y-117340280D01*
X133098229Y-117340280D01*
X133098232Y-117340281D01*
X133365063Y-117380499D01*
X133365068Y-117380499D01*
X133365071Y-117380500D01*
X133365072Y-117380500D01*
X133634928Y-117380500D01*
X133634929Y-117380500D01*
X133634936Y-117380499D01*
X133901767Y-117340281D01*
X133901768Y-117340280D01*
X133901772Y-117340280D01*
X134159641Y-117260738D01*
X134402775Y-117143651D01*
X134625741Y-116991635D01*
X134823561Y-116808085D01*
X134991815Y-116597102D01*
X135126743Y-116363398D01*
X135225334Y-116112195D01*
X135285383Y-115849103D01*
X135305549Y-115580000D01*
X135285383Y-115310897D01*
X135225334Y-115047805D01*
X135126743Y-114796602D01*
X134991815Y-114562898D01*
X134823561Y-114351915D01*
X134823560Y-114351914D01*
X134823557Y-114351910D01*
X134625741Y-114168365D01*
X134402775Y-114016349D01*
X134402769Y-114016346D01*
X134402768Y-114016345D01*
X134402767Y-114016344D01*
X134159643Y-113899263D01*
X134159645Y-113899263D01*
X133901773Y-113819720D01*
X133901767Y-113819718D01*
X133634936Y-113779500D01*
X133634929Y-113779500D01*
X133365071Y-113779500D01*
X133365063Y-113779500D01*
X133098232Y-113819718D01*
X133098226Y-113819720D01*
X132840358Y-113899262D01*
X132597230Y-114016346D01*
X132374258Y-114168365D01*
X132176442Y-114351910D01*
X132008185Y-114562898D01*
X131873258Y-114796599D01*
X131873256Y-114796603D01*
X131774666Y-115047804D01*
X131774664Y-115047811D01*
X131714616Y-115310898D01*
X131694451Y-115579995D01*
X127262500Y-115579995D01*
X127262500Y-111886500D01*
X127282185Y-111819461D01*
X127334989Y-111773706D01*
X127386500Y-111762500D01*
X131578939Y-111762500D01*
X131645978Y-111782185D01*
X131691733Y-111834989D01*
X131702229Y-111873248D01*
X131705908Y-111907483D01*
X131756202Y-112042328D01*
X131756206Y-112042335D01*
X131842452Y-112157544D01*
X131842455Y-112157547D01*
X131957664Y-112243793D01*
X131957671Y-112243797D01*
X132092517Y-112294091D01*
X132092516Y-112294091D01*
X132099444Y-112294835D01*
X132152127Y-112300500D01*
X134847872Y-112300499D01*
X134907483Y-112294091D01*
X135042331Y-112243796D01*
X135157546Y-112157546D01*
X135243796Y-112042331D01*
X135294091Y-111907483D01*
X135300500Y-111847873D01*
X135300499Y-109152128D01*
X135294091Y-109092517D01*
X135243796Y-108957669D01*
X135243795Y-108957668D01*
X135243793Y-108957664D01*
X135157547Y-108842455D01*
X135157544Y-108842452D01*
X135042335Y-108756206D01*
X135042328Y-108756202D01*
X134907482Y-108705908D01*
X134907483Y-108705908D01*
X134847883Y-108699501D01*
X134847881Y-108699500D01*
X134847873Y-108699500D01*
X134847864Y-108699500D01*
X132152129Y-108699500D01*
X132152123Y-108699501D01*
X132092516Y-108705908D01*
X131957671Y-108756202D01*
X131957664Y-108756206D01*
X131842455Y-108842452D01*
X131842452Y-108842455D01*
X131756206Y-108957664D01*
X131756202Y-108957671D01*
X131705910Y-109092513D01*
X131705909Y-109092517D01*
X131702227Y-109126757D01*
X131675491Y-109191306D01*
X131618099Y-109231154D01*
X131578939Y-109237500D01*
X126099361Y-109237500D01*
X125900639Y-109237500D01*
X125835214Y-109247862D01*
X125704362Y-109268587D01*
X125515370Y-109329993D01*
X125515367Y-109329994D01*
X125338305Y-109420213D01*
X125177533Y-109537021D01*
X125037021Y-109677533D01*
X124920213Y-109838305D01*
X124829994Y-110015367D01*
X124829993Y-110015370D01*
X124768587Y-110204362D01*
X124737500Y-110400639D01*
X124737500Y-119113500D01*
X124717815Y-119180539D01*
X124665011Y-119226294D01*
X124613500Y-119237500D01*
X88586899Y-119237500D01*
X88519860Y-119217815D01*
X88474105Y-119165011D01*
X88462899Y-119113500D01*
X88462899Y-118737629D01*
X88462898Y-118737623D01*
X88462897Y-118737616D01*
X88456491Y-118678017D01*
X88406196Y-118543169D01*
X88406195Y-118543168D01*
X88406193Y-118543164D01*
X88319947Y-118427955D01*
X88319944Y-118427952D01*
X88204735Y-118341706D01*
X88204728Y-118341702D01*
X88069882Y-118291408D01*
X88069883Y-118291408D01*
X88010283Y-118285001D01*
X88010281Y-118285000D01*
X88010273Y-118285000D01*
X88010264Y-118285000D01*
X85425329Y-118285000D01*
X85425323Y-118285001D01*
X85365716Y-118291408D01*
X85230871Y-118341702D01*
X85230864Y-118341706D01*
X85115655Y-118427952D01*
X85115652Y-118427955D01*
X85029406Y-118543164D01*
X85029402Y-118543171D01*
X84979108Y-118678017D01*
X84972701Y-118737616D01*
X84972701Y-118737623D01*
X84972700Y-118737635D01*
X84972700Y-122262370D01*
X84972701Y-122262376D01*
X84979108Y-122321983D01*
X85029402Y-122456828D01*
X85029406Y-122456835D01*
X85115652Y-122572044D01*
X85115655Y-122572047D01*
X85230864Y-122658293D01*
X85230871Y-122658297D01*
X85365717Y-122708591D01*
X85365716Y-122708591D01*
X85372644Y-122709335D01*
X85425327Y-122715000D01*
X88010272Y-122714999D01*
X88069883Y-122708591D01*
X88204731Y-122658296D01*
X88319946Y-122572046D01*
X88406196Y-122456831D01*
X88456491Y-122321983D01*
X88462900Y-122262373D01*
X88462900Y-121886500D01*
X88482585Y-121819461D01*
X88535389Y-121773706D01*
X88586900Y-121762500D01*
X97613500Y-121762500D01*
X97680539Y-121782185D01*
X97726294Y-121834989D01*
X97737500Y-121886500D01*
X97737500Y-133716054D01*
X97717815Y-133783093D01*
X97665011Y-133828848D01*
X97595853Y-133838792D01*
X97574498Y-133833760D01*
X97502797Y-133810001D01*
X97502795Y-133810000D01*
X97400010Y-133799500D01*
X96599998Y-133799500D01*
X96599980Y-133799501D01*
X96497203Y-133810000D01*
X96497200Y-133810001D01*
X96330668Y-133865185D01*
X96330663Y-133865187D01*
X96181342Y-133957289D01*
X96057289Y-134081342D01*
X95965187Y-134230663D01*
X95965185Y-134230668D01*
X95948865Y-134279920D01*
X95910001Y-134397203D01*
X95910001Y-134397204D01*
X95910000Y-134397204D01*
X95899500Y-134499983D01*
X95899500Y-135500001D01*
X95899501Y-135500019D01*
X95910000Y-135602796D01*
X95910001Y-135602799D01*
X95958248Y-135748396D01*
X95965186Y-135769334D01*
X96057288Y-135918656D01*
X96181344Y-136042712D01*
X96186591Y-136045948D01*
X96233318Y-136097892D01*
X96245500Y-136151490D01*
X96245500Y-138136113D01*
X96225815Y-138203152D01*
X96209181Y-138223794D01*
X90223794Y-144209181D01*
X90162471Y-144242666D01*
X90136113Y-144245500D01*
X81363886Y-144245500D01*
X81296847Y-144225815D01*
X81276205Y-144209181D01*
X79790819Y-142723794D01*
X79757334Y-142662471D01*
X79754500Y-142636113D01*
X79754500Y-142524986D01*
X81375001Y-142524986D01*
X81385494Y-142627697D01*
X81440641Y-142794119D01*
X81440643Y-142794124D01*
X81532684Y-142943345D01*
X81656654Y-143067315D01*
X81805875Y-143159356D01*
X81805880Y-143159358D01*
X81972302Y-143214505D01*
X81972309Y-143214506D01*
X82075019Y-143224999D01*
X82212499Y-143224999D01*
X82212500Y-143224998D01*
X82212500Y-142250000D01*
X81375001Y-142250000D01*
X81375001Y-142524986D01*
X79754500Y-142524986D01*
X79754500Y-141475013D01*
X81375000Y-141475013D01*
X81375000Y-141750000D01*
X82212500Y-141750000D01*
X82212500Y-140775000D01*
X82712500Y-140775000D01*
X82712500Y-143224999D01*
X82849972Y-143224999D01*
X82849986Y-143224998D01*
X82952697Y-143214505D01*
X83119119Y-143159358D01*
X83119124Y-143159356D01*
X83268345Y-143067315D01*
X83392318Y-142943342D01*
X83394165Y-142940348D01*
X83395969Y-142938724D01*
X83396798Y-142937677D01*
X83396976Y-142937818D01*
X83446110Y-142893621D01*
X83515073Y-142882396D01*
X83579156Y-142910236D01*
X83605243Y-142940341D01*
X83607288Y-142943656D01*
X83731344Y-143067712D01*
X83880666Y-143159814D01*
X84047203Y-143214999D01*
X84149991Y-143225500D01*
X84925008Y-143225499D01*
X84925016Y-143225498D01*
X84925019Y-143225498D01*
X84981302Y-143219748D01*
X85027797Y-143214999D01*
X85194334Y-143159814D01*
X85343656Y-143067712D01*
X85467712Y-142943656D01*
X85548052Y-142813402D01*
X85600000Y-142766679D01*
X85653591Y-142754500D01*
X86711460Y-142754500D01*
X86752415Y-142761459D01*
X86820737Y-142785366D01*
X86820743Y-142785367D01*
X86820745Y-142785368D01*
X86820746Y-142785368D01*
X86820750Y-142785369D01*
X86999996Y-142805565D01*
X87000000Y-142805565D01*
X87000004Y-142805565D01*
X87179249Y-142785369D01*
X87179252Y-142785368D01*
X87179255Y-142785368D01*
X87349522Y-142725789D01*
X87502262Y-142629816D01*
X87629816Y-142502262D01*
X87725789Y-142349522D01*
X87785368Y-142179255D01*
X87805565Y-142000000D01*
X87787379Y-141838596D01*
X87785369Y-141820750D01*
X87785368Y-141820745D01*
X87725788Y-141650476D01*
X87629815Y-141497737D01*
X87502262Y-141370184D01*
X87349523Y-141274211D01*
X87179254Y-141214631D01*
X87179249Y-141214630D01*
X87000004Y-141194435D01*
X86999996Y-141194435D01*
X86820750Y-141214630D01*
X86820737Y-141214633D01*
X86752415Y-141238541D01*
X86711460Y-141245500D01*
X85653591Y-141245500D01*
X85586552Y-141225815D01*
X85548052Y-141186597D01*
X85467712Y-141056344D01*
X85343656Y-140932288D01*
X85194334Y-140840186D01*
X85027797Y-140785001D01*
X85027795Y-140785000D01*
X84925010Y-140774500D01*
X84149998Y-140774500D01*
X84149980Y-140774501D01*
X84047203Y-140785000D01*
X84047200Y-140785001D01*
X83880668Y-140840185D01*
X83880663Y-140840187D01*
X83731342Y-140932289D01*
X83607288Y-141056343D01*
X83607283Y-141056349D01*
X83605241Y-141059661D01*
X83603247Y-141061453D01*
X83602807Y-141062011D01*
X83602711Y-141061935D01*
X83553291Y-141106383D01*
X83484328Y-141117602D01*
X83420247Y-141089755D01*
X83394168Y-141059656D01*
X83392319Y-141056659D01*
X83392316Y-141056655D01*
X83268345Y-140932684D01*
X83119124Y-140840643D01*
X83119119Y-140840641D01*
X82952697Y-140785494D01*
X82952690Y-140785493D01*
X82849986Y-140775000D01*
X82712500Y-140775000D01*
X82212500Y-140775000D01*
X82075027Y-140775000D01*
X82075012Y-140775001D01*
X81972302Y-140785494D01*
X81805880Y-140840641D01*
X81805875Y-140840643D01*
X81656654Y-140932684D01*
X81532684Y-141056654D01*
X81440643Y-141205875D01*
X81440641Y-141205880D01*
X81385494Y-141372302D01*
X81385493Y-141372309D01*
X81375000Y-141475013D01*
X79754500Y-141475013D01*
X79754500Y-137363887D01*
X79774185Y-137296848D01*
X79790819Y-137276206D01*
X82191719Y-134875306D01*
X82253042Y-134841821D01*
X82322734Y-134846805D01*
X82367081Y-134875306D01*
X82709181Y-135217406D01*
X82742666Y-135278729D01*
X82745500Y-135305087D01*
X82745500Y-135348509D01*
X82725815Y-135415548D01*
X82686600Y-135454046D01*
X82681343Y-135457288D01*
X82557289Y-135581342D01*
X82465187Y-135730663D01*
X82465185Y-135730668D01*
X82452372Y-135769336D01*
X82410001Y-135897203D01*
X82410001Y-135897204D01*
X82410000Y-135897204D01*
X82399500Y-135999983D01*
X82399500Y-137000001D01*
X82399501Y-137000019D01*
X82410000Y-137102796D01*
X82410001Y-137102799D01*
X82465185Y-137269331D01*
X82465187Y-137269336D01*
X82477926Y-137289989D01*
X82557288Y-137418656D01*
X82681344Y-137542712D01*
X82830666Y-137634814D01*
X82997203Y-137689999D01*
X83099991Y-137700500D01*
X83900008Y-137700499D01*
X83900016Y-137700498D01*
X83900019Y-137700498D01*
X83956302Y-137694748D01*
X84002797Y-137689999D01*
X84169334Y-137634814D01*
X84318656Y-137542712D01*
X84412319Y-137449049D01*
X84473642Y-137415564D01*
X84543334Y-137420548D01*
X84587681Y-137449049D01*
X84679372Y-137540740D01*
X84712857Y-137602063D01*
X84707873Y-137671755D01*
X84679372Y-137716102D01*
X84181357Y-138214116D01*
X84155869Y-138232205D01*
X84156373Y-138233007D01*
X83997737Y-138332684D01*
X83870184Y-138460237D01*
X83774211Y-138612976D01*
X83714631Y-138783245D01*
X83714630Y-138783250D01*
X83694435Y-138962496D01*
X83694435Y-138962503D01*
X83714631Y-139141752D01*
X83727474Y-139178456D01*
X83732049Y-139195218D01*
X83736993Y-139220073D01*
X83736994Y-139220077D01*
X83768153Y-139295301D01*
X83770634Y-139301800D01*
X83774209Y-139312017D01*
X83777229Y-139318288D01*
X83776974Y-139318410D01*
X83780754Y-139325726D01*
X83792575Y-139354263D01*
X83793870Y-139357388D01*
X83793873Y-139357395D01*
X83876440Y-139480966D01*
X83981531Y-139586057D01*
X83981534Y-139586059D01*
X84105111Y-139668630D01*
X84136767Y-139681742D01*
X84144081Y-139685522D01*
X84144204Y-139685268D01*
X84150474Y-139688287D01*
X84150475Y-139688287D01*
X84150478Y-139688289D01*
X84160701Y-139691865D01*
X84167182Y-139694339D01*
X84242421Y-139725505D01*
X84267291Y-139730451D01*
X84284034Y-139735021D01*
X84320745Y-139747868D01*
X84320749Y-139747868D01*
X84320751Y-139747869D01*
X84499996Y-139768065D01*
X84500000Y-139768065D01*
X84500003Y-139768065D01*
X84580398Y-139759006D01*
X84613472Y-139755279D01*
X84627354Y-139754500D01*
X86331411Y-139754500D01*
X86398450Y-139774185D01*
X86428678Y-139801590D01*
X86432287Y-139806154D01*
X86432288Y-139806156D01*
X86556344Y-139930212D01*
X86705666Y-140022314D01*
X86872203Y-140077499D01*
X86974991Y-140088000D01*
X88025008Y-140087999D01*
X88025016Y-140087998D01*
X88025019Y-140087998D01*
X88081302Y-140082248D01*
X88127797Y-140077499D01*
X88294334Y-140022314D01*
X88443656Y-139930212D01*
X88567712Y-139806156D01*
X88659814Y-139656834D01*
X88714999Y-139490297D01*
X88725500Y-139387509D01*
X88725499Y-138612492D01*
X88714999Y-138509703D01*
X88659814Y-138343166D01*
X88567712Y-138193844D01*
X88443656Y-138069788D01*
X88440819Y-138068038D01*
X88439283Y-138066330D01*
X88437989Y-138065307D01*
X88438163Y-138065085D01*
X88394096Y-138016094D01*
X88382872Y-137947132D01*
X88410713Y-137883049D01*
X88440817Y-137856962D01*
X88443656Y-137855212D01*
X88567712Y-137731156D01*
X88659814Y-137581834D01*
X88714999Y-137415297D01*
X88725500Y-137312509D01*
X88725499Y-136537492D01*
X88723613Y-136519034D01*
X88714999Y-136434703D01*
X88714998Y-136434700D01*
X88695757Y-136376634D01*
X88659814Y-136268166D01*
X88567712Y-136118844D01*
X88443656Y-135994788D01*
X88313402Y-135914447D01*
X88266679Y-135862500D01*
X88254500Y-135808909D01*
X88254500Y-134863885D01*
X88274185Y-134796846D01*
X88290814Y-134776209D01*
X89830205Y-133236817D01*
X89891528Y-133203333D01*
X89917886Y-133200499D01*
X90400002Y-133200499D01*
X90400008Y-133200499D01*
X90502797Y-133189999D01*
X90669334Y-133134814D01*
X90818656Y-133042712D01*
X90912319Y-132949049D01*
X90973642Y-132915564D01*
X91043334Y-132920548D01*
X91087681Y-132949049D01*
X91181344Y-133042712D01*
X91330666Y-133134814D01*
X91497203Y-133189999D01*
X91599991Y-133200500D01*
X92400008Y-133200499D01*
X92400016Y-133200498D01*
X92400019Y-133200498D01*
X92456302Y-133194748D01*
X92502797Y-133189999D01*
X92669334Y-133134814D01*
X92818656Y-133042712D01*
X92942712Y-132918656D01*
X93034814Y-132769334D01*
X93089999Y-132602797D01*
X93100500Y-132500009D01*
X93100499Y-131499992D01*
X93089999Y-131397203D01*
X93034814Y-131230666D01*
X92942712Y-131081344D01*
X92818656Y-130957288D01*
X92813400Y-130954046D01*
X92766677Y-130902097D01*
X92754500Y-130848509D01*
X92754500Y-129153590D01*
X92774185Y-129086551D01*
X92813402Y-129048052D01*
X92943656Y-128967712D01*
X93067712Y-128843656D01*
X93159814Y-128694334D01*
X93214999Y-128527797D01*
X93225500Y-128425009D01*
X93225499Y-127649992D01*
X93214999Y-127547203D01*
X93159814Y-127380666D01*
X93067712Y-127231344D01*
X92943656Y-127107288D01*
X92940819Y-127105538D01*
X92939283Y-127103830D01*
X92937989Y-127102807D01*
X92938163Y-127102585D01*
X92894096Y-127053594D01*
X92882872Y-126984632D01*
X92910713Y-126920549D01*
X92940817Y-126894462D01*
X92943656Y-126892712D01*
X93067712Y-126768656D01*
X93159814Y-126619334D01*
X93214999Y-126452797D01*
X93225500Y-126350009D01*
X93225499Y-125574992D01*
X93223220Y-125552686D01*
X93214999Y-125472203D01*
X93214998Y-125472200D01*
X93205940Y-125444864D01*
X93159814Y-125305666D01*
X93067712Y-125156344D01*
X92943656Y-125032288D01*
X92798196Y-124942568D01*
X92751473Y-124890621D01*
X92741677Y-124861221D01*
X92729596Y-124800489D01*
X92725505Y-124779920D01*
X92668629Y-124642610D01*
X92639731Y-124599361D01*
X92586060Y-124519035D01*
X92586054Y-124519028D01*
X92476647Y-124409621D01*
X92476624Y-124409600D01*
X91248385Y-123181360D01*
X91230298Y-123155868D01*
X91229494Y-123156374D01*
X91129815Y-122997737D01*
X91002262Y-122870184D01*
X90849523Y-122774211D01*
X90679254Y-122714631D01*
X90679249Y-122714630D01*
X90500004Y-122694435D01*
X90499996Y-122694435D01*
X90320750Y-122714630D01*
X90320745Y-122714631D01*
X90150476Y-122774211D01*
X89997737Y-122870184D01*
X89870184Y-122997737D01*
X89770507Y-123156373D01*
X89769705Y-123155869D01*
X89751616Y-123181357D01*
X87782592Y-125150381D01*
X87721269Y-125183866D01*
X87694911Y-125186700D01*
X87355730Y-125186700D01*
X87355723Y-125186701D01*
X87296116Y-125193108D01*
X87184118Y-125234882D01*
X87140785Y-125242700D01*
X85126415Y-125242700D01*
X85083082Y-125234882D01*
X84971082Y-125193108D01*
X84971083Y-125193108D01*
X84911483Y-125186701D01*
X84911481Y-125186700D01*
X84911473Y-125186700D01*
X84911464Y-125186700D01*
X83088529Y-125186700D01*
X83088523Y-125186701D01*
X83028916Y-125193108D01*
X82894071Y-125243402D01*
X82894064Y-125243406D01*
X82778855Y-125329652D01*
X82778852Y-125329655D01*
X82692606Y-125444864D01*
X82692602Y-125444871D01*
X82642308Y-125579716D01*
X82636391Y-125634756D01*
X82609653Y-125699307D01*
X82552260Y-125739155D01*
X82513102Y-125745500D01*
X81916000Y-125745500D01*
X81848961Y-125725815D01*
X81803206Y-125673011D01*
X81792000Y-125621500D01*
X81792000Y-122838999D01*
X81811685Y-122771960D01*
X81864489Y-122726205D01*
X81916000Y-122714999D01*
X82574671Y-122714999D01*
X82574672Y-122714999D01*
X82634283Y-122708591D01*
X82769131Y-122658296D01*
X82884346Y-122572046D01*
X82970596Y-122456831D01*
X83020891Y-122321983D01*
X83027300Y-122262373D01*
X83027299Y-118737628D01*
X83020891Y-118678017D01*
X82970596Y-118543169D01*
X82970595Y-118543168D01*
X82970593Y-118543164D01*
X82884347Y-118427955D01*
X82884344Y-118427952D01*
X82769135Y-118341706D01*
X82769128Y-118341702D01*
X82634282Y-118291408D01*
X82634283Y-118291408D01*
X82574683Y-118285001D01*
X82574681Y-118285000D01*
X82574673Y-118285000D01*
X82574664Y-118285000D01*
X79989729Y-118285000D01*
X79989723Y-118285001D01*
X79930116Y-118291408D01*
X79795271Y-118341702D01*
X79795264Y-118341706D01*
X79680055Y-118427952D01*
X79680052Y-118427955D01*
X79593806Y-118543164D01*
X79593802Y-118543171D01*
X79543508Y-118678017D01*
X79537101Y-118737616D01*
X79537101Y-118737623D01*
X79537100Y-118737635D01*
X79537100Y-122262370D01*
X79537101Y-122262376D01*
X79543508Y-122321983D01*
X79593802Y-122456828D01*
X79593806Y-122456835D01*
X79680052Y-122572044D01*
X79680055Y-122572047D01*
X79795264Y-122658293D01*
X79795271Y-122658297D01*
X79840218Y-122675061D01*
X79930117Y-122708591D01*
X79989727Y-122715000D01*
X80159000Y-122714999D01*
X80226039Y-122734683D01*
X80271794Y-122787487D01*
X80283000Y-122838999D01*
X80283000Y-125831410D01*
X80263315Y-125898449D01*
X80235916Y-125928672D01*
X80231345Y-125932286D01*
X80107285Y-126056346D01*
X80105537Y-126059182D01*
X80103829Y-126060717D01*
X80102807Y-126062011D01*
X80102585Y-126061836D01*
X80053589Y-126105905D01*
X79984626Y-126117126D01*
X79920544Y-126089282D01*
X79894463Y-126059182D01*
X79892714Y-126056346D01*
X79768657Y-125932289D01*
X79768656Y-125932288D01*
X79619334Y-125840186D01*
X79452797Y-125785001D01*
X79452795Y-125785000D01*
X79350010Y-125774500D01*
X78574998Y-125774500D01*
X78574980Y-125774501D01*
X78472203Y-125785000D01*
X78472200Y-125785001D01*
X78305668Y-125840185D01*
X78305663Y-125840187D01*
X78156342Y-125932289D01*
X78032289Y-126056342D01*
X77940187Y-126205663D01*
X77940185Y-126205668D01*
X77915766Y-126279360D01*
X77885001Y-126372203D01*
X77885001Y-126372204D01*
X77885000Y-126372204D01*
X77874500Y-126474983D01*
X77874500Y-126969612D01*
X77854815Y-127036651D01*
X77838181Y-127057293D01*
X76950143Y-127945330D01*
X76950142Y-127945331D01*
X76867572Y-128068907D01*
X76867566Y-128068918D01*
X76810696Y-128206216D01*
X76810693Y-128206226D01*
X76781699Y-128351985D01*
X76781699Y-128506725D01*
X76781700Y-128506746D01*
X76781700Y-129191100D01*
X76762015Y-129258139D01*
X76709211Y-129303894D01*
X76657701Y-129315100D01*
X76497730Y-129315100D01*
X76497723Y-129315101D01*
X76438116Y-129321508D01*
X76303271Y-129371802D01*
X76303264Y-129371806D01*
X76188055Y-129458052D01*
X76188052Y-129458055D01*
X76101806Y-129573264D01*
X76101802Y-129573271D01*
X76065723Y-129670006D01*
X76051509Y-129708117D01*
X76045100Y-129767727D01*
X76045100Y-129767732D01*
X76045100Y-129767735D01*
X76045100Y-130422270D01*
X76045101Y-130422276D01*
X76051508Y-130481883D01*
X76101802Y-130616728D01*
X76101804Y-130616731D01*
X76115244Y-130634685D01*
X76131279Y-130656104D01*
X76155697Y-130721568D01*
X76140846Y-130789841D01*
X76131280Y-130804726D01*
X76102249Y-130843506D01*
X76102245Y-130843513D01*
X76052003Y-130978220D01*
X76052001Y-130978227D01*
X76045600Y-131037755D01*
X76045600Y-131115000D01*
X79026800Y-131115000D01*
X79026800Y-131037772D01*
X79026799Y-131037755D01*
X79020398Y-130978227D01*
X79020396Y-130978220D01*
X78970154Y-130843513D01*
X78970150Y-130843506D01*
X78941120Y-130804727D01*
X78916702Y-130739263D01*
X78931553Y-130670990D01*
X78941114Y-130656113D01*
X78970596Y-130616731D01*
X78972921Y-130610499D01*
X78981852Y-130586550D01*
X79020891Y-130481883D01*
X79027300Y-130422273D01*
X79027299Y-129767728D01*
X79020891Y-129708117D01*
X78970596Y-129573269D01*
X78970595Y-129573268D01*
X78970593Y-129573264D01*
X78884347Y-129458055D01*
X78884344Y-129458052D01*
X78769135Y-129371806D01*
X78769128Y-129371802D01*
X78634282Y-129321508D01*
X78634283Y-129321508D01*
X78574683Y-129315101D01*
X78574681Y-129315100D01*
X78574673Y-129315100D01*
X78574665Y-129315100D01*
X78414700Y-129315100D01*
X78347661Y-129295415D01*
X78301906Y-129242611D01*
X78290700Y-129191100D01*
X78290700Y-128790185D01*
X78310385Y-128723146D01*
X78327015Y-128702508D01*
X78767705Y-128261817D01*
X78829028Y-128228333D01*
X78855386Y-128225499D01*
X79350002Y-128225499D01*
X79350008Y-128225499D01*
X79452797Y-128214999D01*
X79619334Y-128159814D01*
X79768656Y-128067712D01*
X79892712Y-127943656D01*
X79894461Y-127940819D01*
X79896169Y-127939283D01*
X79897193Y-127937989D01*
X79897414Y-127938163D01*
X79946406Y-127894096D01*
X80015368Y-127882872D01*
X80079451Y-127910713D01*
X80105537Y-127940817D01*
X80107288Y-127943656D01*
X80231344Y-128067712D01*
X80231346Y-128067713D01*
X80235910Y-128071322D01*
X80276287Y-128128344D01*
X80283000Y-128168589D01*
X80283000Y-128589252D01*
X80282999Y-128589278D01*
X80282999Y-128594388D01*
X80282999Y-128743012D01*
X80282999Y-128743014D01*
X80282998Y-128743014D01*
X80311993Y-128888773D01*
X80311996Y-128888783D01*
X80368866Y-129026081D01*
X80368872Y-129026092D01*
X80451442Y-129149668D01*
X80451443Y-129149669D01*
X80940147Y-129638372D01*
X80973632Y-129699695D01*
X80975755Y-129739304D01*
X80972700Y-129767727D01*
X80972700Y-129767728D01*
X80972700Y-129767732D01*
X80972700Y-130422270D01*
X80972701Y-130422276D01*
X80979108Y-130481883D01*
X81029402Y-130616728D01*
X81029403Y-130616730D01*
X81058568Y-130655690D01*
X81082984Y-130721155D01*
X81068132Y-130789428D01*
X81058568Y-130804310D01*
X81029403Y-130843269D01*
X81029402Y-130843271D01*
X80986877Y-130957289D01*
X80979109Y-130978117D01*
X80972700Y-131037727D01*
X80972700Y-131037734D01*
X80972700Y-131037735D01*
X80972700Y-131692270D01*
X80972701Y-131692276D01*
X80979108Y-131751883D01*
X81029402Y-131886728D01*
X81029403Y-131886730D01*
X81058568Y-131925690D01*
X81082984Y-131991155D01*
X81068132Y-132059428D01*
X81058568Y-132074310D01*
X81029403Y-132113269D01*
X81029402Y-132113271D01*
X80987436Y-132225790D01*
X80979109Y-132248117D01*
X80972700Y-132307727D01*
X80972700Y-132307734D01*
X80972700Y-132307735D01*
X80972700Y-132962270D01*
X80972701Y-132962276D01*
X80979108Y-133021883D01*
X81029402Y-133156728D01*
X81029403Y-133156730D01*
X81058568Y-133195690D01*
X81082984Y-133261155D01*
X81068132Y-133329428D01*
X81058568Y-133344310D01*
X81029403Y-133383269D01*
X81029402Y-133383271D01*
X80979108Y-133518117D01*
X80975319Y-133553365D01*
X80972701Y-133577723D01*
X80972700Y-133577735D01*
X80972700Y-133908912D01*
X80953015Y-133975951D01*
X80936381Y-133996593D01*
X78413943Y-136519030D01*
X78413942Y-136519031D01*
X78331372Y-136642607D01*
X78331366Y-136642618D01*
X78309715Y-136694891D01*
X78280469Y-136765499D01*
X78275513Y-136777464D01*
X78274724Y-136779366D01*
X78274494Y-136779923D01*
X78245499Y-136925685D01*
X78245499Y-137080425D01*
X78245500Y-137080446D01*
X78245500Y-142920552D01*
X78245499Y-142920578D01*
X78245499Y-142925688D01*
X78245499Y-143074312D01*
X78245499Y-143074314D01*
X78245498Y-143074314D01*
X78274493Y-143220073D01*
X78274496Y-143220083D01*
X78331366Y-143357381D01*
X78331372Y-143357392D01*
X78413942Y-143480968D01*
X78413943Y-143480969D01*
X80409600Y-145476624D01*
X80409621Y-145476647D01*
X80519028Y-145586054D01*
X80519035Y-145586060D01*
X80642608Y-145668628D01*
X80642609Y-145668628D01*
X80642610Y-145668629D01*
X80779920Y-145725505D01*
X80779922Y-145725505D01*
X80779924Y-145725506D01*
X80804104Y-145730315D01*
X80804110Y-145730316D01*
X80925686Y-145754501D01*
X80925688Y-145754501D01*
X81080426Y-145754501D01*
X81080446Y-145754500D01*
X90419554Y-145754500D01*
X90419574Y-145754501D01*
X90425688Y-145754501D01*
X90574314Y-145754501D01*
X90695894Y-145730315D01*
X90695894Y-145730316D01*
X90695900Y-145730313D01*
X90720080Y-145725505D01*
X90755942Y-145710649D01*
X90776944Y-145701951D01*
X90776947Y-145701949D01*
X90776955Y-145701946D01*
X90857389Y-145668630D01*
X90980966Y-145586059D01*
X97480963Y-139086060D01*
X97480966Y-139086059D01*
X97586059Y-138980966D01*
X97668629Y-138857390D01*
X97725505Y-138720080D01*
X97740915Y-138642610D01*
X97754501Y-138574312D01*
X97754501Y-138425688D01*
X97754501Y-138420578D01*
X97754500Y-138420552D01*
X97754500Y-136151490D01*
X97774185Y-136084451D01*
X97813408Y-136045948D01*
X97818656Y-136042712D01*
X97912319Y-135949049D01*
X97973642Y-135915564D01*
X98043334Y-135920548D01*
X98087681Y-135949049D01*
X98181344Y-136042712D01*
X98330666Y-136134814D01*
X98497203Y-136189999D01*
X98599991Y-136200500D01*
X98599997Y-136200499D01*
X98600311Y-136200532D01*
X98626021Y-136205957D01*
X98704364Y-136231413D01*
X98900639Y-136262500D01*
X98900640Y-136262500D01*
X99099360Y-136262500D01*
X99099361Y-136262500D01*
X99295636Y-136231413D01*
X99373982Y-136205956D01*
X99399695Y-136200531D01*
X99400008Y-136200499D01*
X99502797Y-136189999D01*
X99669334Y-136134814D01*
X99818656Y-136042712D01*
X99942712Y-135918656D01*
X100034814Y-135769334D01*
X100056620Y-135703524D01*
X100074006Y-135669650D01*
X100079787Y-135661694D01*
X100170005Y-135484632D01*
X100231413Y-135295636D01*
X100262500Y-135099361D01*
X100262500Y-121886500D01*
X100282185Y-121819461D01*
X100334989Y-121773706D01*
X100386500Y-121762500D01*
X104133700Y-121762500D01*
X104200739Y-121782185D01*
X104246494Y-121834989D01*
X104257700Y-121886500D01*
X104257700Y-124561860D01*
X104288786Y-124758134D01*
X104289926Y-124762882D01*
X104289476Y-124762989D01*
X104294700Y-124795974D01*
X104294700Y-124849999D01*
X104294701Y-124850019D01*
X104305200Y-124952796D01*
X104305201Y-124952799D01*
X104360385Y-125119331D01*
X104360387Y-125119336D01*
X104382504Y-125155194D01*
X104437154Y-125243796D01*
X104452489Y-125268657D01*
X104576546Y-125392714D01*
X104579382Y-125394463D01*
X104580917Y-125396170D01*
X104582211Y-125397193D01*
X104582036Y-125397414D01*
X104626105Y-125446411D01*
X104637326Y-125515374D01*
X104609482Y-125579456D01*
X104579382Y-125605537D01*
X104576546Y-125607285D01*
X104452489Y-125731342D01*
X104360387Y-125880663D01*
X104360386Y-125880666D01*
X104305201Y-126047203D01*
X104305201Y-126047204D01*
X104305200Y-126047204D01*
X104294700Y-126149983D01*
X104294700Y-126204025D01*
X104289475Y-126237013D01*
X104289925Y-126237121D01*
X104288787Y-126241860D01*
X104257700Y-126438139D01*
X104257700Y-128263343D01*
X104256173Y-128282742D01*
X104237500Y-128400634D01*
X104237500Y-128599360D01*
X104268587Y-128795637D01*
X104329993Y-128984629D01*
X104329994Y-128984632D01*
X104414084Y-129149666D01*
X104420213Y-129161694D01*
X104537019Y-129322463D01*
X104677537Y-129462981D01*
X104838306Y-129579787D01*
X104925149Y-129624035D01*
X105015367Y-129670005D01*
X105015370Y-129670006D01*
X105063660Y-129685696D01*
X105204364Y-129731413D01*
X105400639Y-129762500D01*
X105400640Y-129762500D01*
X105599360Y-129762500D01*
X105599361Y-129762500D01*
X105795636Y-129731413D01*
X105984632Y-129670005D01*
X106161694Y-129579787D01*
X106322463Y-129462981D01*
X106335588Y-129449855D01*
X106335596Y-129449849D01*
X106342664Y-129442781D01*
X106483181Y-129302264D01*
X106599987Y-129141494D01*
X106690205Y-128964432D01*
X106751613Y-128775436D01*
X106782700Y-128579161D01*
X106782700Y-126438139D01*
X106751613Y-126241864D01*
X106751612Y-126241860D01*
X106750475Y-126237121D01*
X106750924Y-126237013D01*
X106745699Y-126204022D01*
X106745699Y-126149998D01*
X106745698Y-126149981D01*
X106735199Y-126047203D01*
X106735198Y-126047200D01*
X106697120Y-125932289D01*
X106680014Y-125880666D01*
X106587912Y-125731344D01*
X106463856Y-125607288D01*
X106461019Y-125605538D01*
X106459483Y-125603830D01*
X106458189Y-125602807D01*
X106458363Y-125602585D01*
X106414296Y-125553594D01*
X106403072Y-125484632D01*
X106430913Y-125420549D01*
X106461017Y-125394462D01*
X106463856Y-125392712D01*
X106587912Y-125268656D01*
X106680014Y-125119334D01*
X106735199Y-124952797D01*
X106745700Y-124850009D01*
X106745699Y-124795976D01*
X106750927Y-124762980D01*
X106750476Y-124762872D01*
X106751610Y-124758144D01*
X106751613Y-124758136D01*
X106782700Y-124561861D01*
X106782700Y-121886500D01*
X106802385Y-121819461D01*
X106855189Y-121773706D01*
X106906700Y-121762500D01*
X108613500Y-121762500D01*
X108680539Y-121782185D01*
X108726294Y-121834989D01*
X108737500Y-121886500D01*
X108737500Y-124599360D01*
X108768586Y-124795634D01*
X108769726Y-124800382D01*
X108769276Y-124800489D01*
X108774500Y-124833474D01*
X108774500Y-124887499D01*
X108774501Y-124887519D01*
X108785000Y-124990296D01*
X108785001Y-124990299D01*
X108837976Y-125150165D01*
X108840186Y-125156834D01*
X108928799Y-125300500D01*
X108932289Y-125306157D01*
X109056346Y-125430214D01*
X109059182Y-125431963D01*
X109060717Y-125433670D01*
X109062011Y-125434693D01*
X109061836Y-125434914D01*
X109105905Y-125483911D01*
X109117126Y-125552874D01*
X109089282Y-125616956D01*
X109059182Y-125643037D01*
X109056346Y-125644785D01*
X108932289Y-125768842D01*
X108840187Y-125918163D01*
X108840185Y-125918168D01*
X108835507Y-125932286D01*
X108785001Y-126084703D01*
X108785001Y-126084704D01*
X108785000Y-126084704D01*
X108774500Y-126187483D01*
X108774500Y-126241525D01*
X108769275Y-126274513D01*
X108769725Y-126274621D01*
X108768587Y-126279360D01*
X108737500Y-126475639D01*
X108737500Y-128599360D01*
X108768587Y-128795637D01*
X108829993Y-128984629D01*
X108829994Y-128984632D01*
X108914084Y-129149666D01*
X108920213Y-129161694D01*
X109037019Y-129322464D01*
X109177536Y-129462981D01*
X109338306Y-129579787D01*
X109425149Y-129624035D01*
X109515367Y-129670005D01*
X109515370Y-129670006D01*
X109563660Y-129685696D01*
X109704364Y-129731413D01*
X109900639Y-129762500D01*
X109900640Y-129762500D01*
X110099360Y-129762500D01*
X110099361Y-129762500D01*
X110295636Y-129731413D01*
X110484632Y-129670005D01*
X110661694Y-129579787D01*
X110822464Y-129462981D01*
X110962981Y-129322464D01*
X111079787Y-129161694D01*
X111170005Y-128984632D01*
X111231413Y-128795636D01*
X111262500Y-128599361D01*
X111262500Y-126475639D01*
X111231413Y-126279364D01*
X111231412Y-126279360D01*
X111230275Y-126274621D01*
X111230724Y-126274513D01*
X111225499Y-126241522D01*
X111225499Y-126187498D01*
X111225498Y-126187481D01*
X111214999Y-126084703D01*
X111214998Y-126084700D01*
X111185311Y-125995112D01*
X111159814Y-125918166D01*
X111067712Y-125768844D01*
X110943656Y-125644788D01*
X110940819Y-125643038D01*
X110939283Y-125641330D01*
X110937989Y-125640307D01*
X110938163Y-125640085D01*
X110894096Y-125591094D01*
X110882872Y-125522132D01*
X110910713Y-125458049D01*
X110940817Y-125431962D01*
X110943656Y-125430212D01*
X111067712Y-125306156D01*
X111159814Y-125156834D01*
X111214999Y-124990297D01*
X111225500Y-124887509D01*
X111225499Y-124833476D01*
X111230727Y-124800480D01*
X111230276Y-124800372D01*
X111231410Y-124795644D01*
X111231413Y-124795636D01*
X111262500Y-124599361D01*
X111262500Y-121886500D01*
X111282185Y-121819461D01*
X111334989Y-121773706D01*
X111386500Y-121762500D01*
X124613500Y-121762500D01*
X124680539Y-121782185D01*
X124726294Y-121834989D01*
X124737500Y-121886500D01*
X124737500Y-151658500D01*
X124717815Y-151725539D01*
X124665011Y-151771294D01*
X124613500Y-151782500D01*
X51226061Y-151782500D01*
X51159022Y-151762815D01*
X51113267Y-151710011D01*
X51102771Y-151671752D01*
X51099091Y-151637516D01*
X51048797Y-151502671D01*
X51048793Y-151502664D01*
X50962547Y-151387455D01*
X50962544Y-151387452D01*
X50847335Y-151301206D01*
X50847328Y-151301202D01*
X50712482Y-151250908D01*
X50712483Y-151250908D01*
X50652883Y-151244501D01*
X50652881Y-151244500D01*
X50652873Y-151244500D01*
X50652864Y-151244500D01*
X47957129Y-151244500D01*
X47957123Y-151244501D01*
X47897516Y-151250908D01*
X47762671Y-151301202D01*
X47762664Y-151301206D01*
X47647455Y-151387452D01*
X47647452Y-151387455D01*
X47561206Y-151502664D01*
X47561202Y-151502671D01*
X47510908Y-151637517D01*
X47504501Y-151697116D01*
X47504500Y-151697135D01*
X46500000Y-151697135D01*
X46500000Y-147964995D01*
X47499451Y-147964995D01*
X47499451Y-147965004D01*
X47519616Y-148234101D01*
X47520392Y-148237500D01*
X47579666Y-148497195D01*
X47678257Y-148748398D01*
X47813185Y-148982102D01*
X47949080Y-149152509D01*
X47981442Y-149193089D01*
X48168183Y-149366358D01*
X48179259Y-149376635D01*
X48402226Y-149528651D01*
X48645359Y-149645738D01*
X48903228Y-149725280D01*
X48903229Y-149725280D01*
X48903232Y-149725281D01*
X49170063Y-149765499D01*
X49170068Y-149765499D01*
X49170071Y-149765500D01*
X49170072Y-149765500D01*
X49439928Y-149765500D01*
X49439929Y-149765500D01*
X49439936Y-149765499D01*
X49706767Y-149725281D01*
X49706768Y-149725280D01*
X49706772Y-149725280D01*
X49964641Y-149645738D01*
X50207775Y-149528651D01*
X50430741Y-149376635D01*
X50628561Y-149193085D01*
X50796815Y-148982102D01*
X50931743Y-148748398D01*
X51030334Y-148497195D01*
X51090383Y-148234103D01*
X51100993Y-148092516D01*
X51110549Y-147965004D01*
X51110549Y-147964995D01*
X51090383Y-147695898D01*
X51030335Y-147432811D01*
X51030334Y-147432805D01*
X50931743Y-147181602D01*
X50796815Y-146947898D01*
X50628561Y-146736915D01*
X50628560Y-146736914D01*
X50628557Y-146736910D01*
X50430741Y-146553365D01*
X50207775Y-146401349D01*
X50207769Y-146401346D01*
X50207768Y-146401345D01*
X50207767Y-146401344D01*
X49964643Y-146284263D01*
X49964645Y-146284263D01*
X49706773Y-146204720D01*
X49706767Y-146204718D01*
X49439936Y-146164500D01*
X49439929Y-146164500D01*
X49170071Y-146164500D01*
X49170063Y-146164500D01*
X48903232Y-146204718D01*
X48903226Y-146204720D01*
X48645358Y-146284262D01*
X48402230Y-146401346D01*
X48179258Y-146553365D01*
X47981442Y-146736910D01*
X47813185Y-146947898D01*
X47678258Y-147181599D01*
X47678256Y-147181603D01*
X47579666Y-147432804D01*
X47579664Y-147432811D01*
X47519616Y-147695898D01*
X47499451Y-147964995D01*
X46500000Y-147964995D01*
X46500000Y-138697155D01*
X47505000Y-138697155D01*
X47505000Y-139795000D01*
X48704999Y-139795000D01*
X48679979Y-139855402D01*
X48655000Y-139980981D01*
X48655000Y-140109019D01*
X48679979Y-140234598D01*
X48704999Y-140295000D01*
X47505000Y-140295000D01*
X47505000Y-141392844D01*
X47511401Y-141452372D01*
X47511403Y-141452379D01*
X47561645Y-141587086D01*
X47561649Y-141587093D01*
X47647809Y-141702187D01*
X47647812Y-141702190D01*
X47762906Y-141788350D01*
X47762913Y-141788354D01*
X47897620Y-141838596D01*
X47897627Y-141838598D01*
X47957155Y-141844999D01*
X47957172Y-141845000D01*
X49055000Y-141845000D01*
X49055000Y-140645001D01*
X49115402Y-140670021D01*
X49240981Y-140695000D01*
X49369019Y-140695000D01*
X49494598Y-140670021D01*
X49555000Y-140645001D01*
X49555000Y-141845000D01*
X50652828Y-141845000D01*
X50652844Y-141844999D01*
X50712372Y-141838598D01*
X50712379Y-141838596D01*
X50847086Y-141788354D01*
X50847093Y-141788350D01*
X50962187Y-141702190D01*
X50962190Y-141702187D01*
X51048350Y-141587093D01*
X51048354Y-141587086D01*
X51098596Y-141452379D01*
X51098598Y-141452372D01*
X51104999Y-141392844D01*
X51105000Y-141392827D01*
X51105000Y-140295000D01*
X49905001Y-140295000D01*
X49930021Y-140234598D01*
X49955000Y-140109019D01*
X49955000Y-139980981D01*
X49930021Y-139855402D01*
X49905001Y-139795000D01*
X51105000Y-139795000D01*
X51105000Y-139412483D01*
X74849500Y-139412483D01*
X74849500Y-140337501D01*
X74849501Y-140337519D01*
X74860000Y-140440296D01*
X74860001Y-140440299D01*
X74880714Y-140502805D01*
X74915186Y-140606834D01*
X75007288Y-140756156D01*
X75131344Y-140880212D01*
X75280666Y-140972314D01*
X75410505Y-141015338D01*
X75467949Y-141055109D01*
X75494772Y-141119625D01*
X75495500Y-141133043D01*
X75495500Y-141321060D01*
X75475815Y-141388099D01*
X75459181Y-141408741D01*
X75370184Y-141497737D01*
X75274211Y-141650476D01*
X75214631Y-141820745D01*
X75214630Y-141820750D01*
X75194435Y-141999996D01*
X75194435Y-142000003D01*
X75214630Y-142179249D01*
X75214631Y-142179254D01*
X75274211Y-142349523D01*
X75335231Y-142446635D01*
X75370184Y-142502262D01*
X75497738Y-142629816D01*
X75507760Y-142636113D01*
X75634478Y-142715736D01*
X75650478Y-142725789D01*
X75752417Y-142761459D01*
X75820745Y-142785368D01*
X75820750Y-142785369D01*
X75999996Y-142805565D01*
X76000000Y-142805565D01*
X76000004Y-142805565D01*
X76179249Y-142785369D01*
X76179252Y-142785368D01*
X76179255Y-142785368D01*
X76349522Y-142725789D01*
X76502262Y-142629816D01*
X76629816Y-142502262D01*
X76725789Y-142349522D01*
X76725789Y-142349521D01*
X76729495Y-142343624D01*
X76730301Y-142344130D01*
X76748382Y-142318642D01*
X76836059Y-142230966D01*
X76918629Y-142107390D01*
X76975505Y-141970080D01*
X77004500Y-141824312D01*
X77004500Y-141133043D01*
X77024185Y-141066005D01*
X77076989Y-141020250D01*
X77089496Y-141015338D01*
X77089499Y-141015337D01*
X77219334Y-140972314D01*
X77368656Y-140880212D01*
X77492712Y-140756156D01*
X77584814Y-140606834D01*
X77639999Y-140440297D01*
X77650500Y-140337509D01*
X77650499Y-139412492D01*
X77639999Y-139309703D01*
X77584814Y-139143166D01*
X77492712Y-138993844D01*
X77368656Y-138869788D01*
X77219334Y-138777686D01*
X77052797Y-138722501D01*
X77052795Y-138722500D01*
X76950010Y-138712000D01*
X75549998Y-138712000D01*
X75549981Y-138712001D01*
X75447203Y-138722500D01*
X75447200Y-138722501D01*
X75280668Y-138777685D01*
X75280663Y-138777687D01*
X75131342Y-138869789D01*
X75007289Y-138993842D01*
X74915187Y-139143163D01*
X74915185Y-139143168D01*
X74887349Y-139227170D01*
X74860001Y-139309703D01*
X74860001Y-139309704D01*
X74860000Y-139309704D01*
X74849500Y-139412483D01*
X51105000Y-139412483D01*
X51105000Y-138697172D01*
X51104999Y-138697155D01*
X51098598Y-138637627D01*
X51098596Y-138637620D01*
X51048354Y-138502913D01*
X51048350Y-138502906D01*
X50962190Y-138387812D01*
X50962187Y-138387809D01*
X50847093Y-138301649D01*
X50847086Y-138301645D01*
X50712379Y-138251403D01*
X50712372Y-138251401D01*
X50652844Y-138245000D01*
X49555000Y-138245000D01*
X49555000Y-139444998D01*
X49494598Y-139419979D01*
X49369019Y-139395000D01*
X49240981Y-139395000D01*
X49115402Y-139419979D01*
X49055000Y-139444998D01*
X49055000Y-138245000D01*
X47957155Y-138245000D01*
X47897627Y-138251401D01*
X47897620Y-138251403D01*
X47762913Y-138301645D01*
X47762906Y-138301649D01*
X47647812Y-138387809D01*
X47647809Y-138387812D01*
X47561649Y-138502906D01*
X47561645Y-138502913D01*
X47511403Y-138637620D01*
X47511401Y-138637627D01*
X47505000Y-138697155D01*
X46500000Y-138697155D01*
X46500000Y-134964995D01*
X47499451Y-134964995D01*
X47499451Y-134965004D01*
X47519616Y-135234101D01*
X47579664Y-135497188D01*
X47579666Y-135497195D01*
X47678256Y-135748396D01*
X47678258Y-135748400D01*
X47690344Y-135769334D01*
X47813185Y-135982102D01*
X47893077Y-136082283D01*
X47981442Y-136193089D01*
X48168183Y-136366358D01*
X48179259Y-136376635D01*
X48402226Y-136528651D01*
X48402229Y-136528652D01*
X48402230Y-136528653D01*
X48420584Y-136537492D01*
X48645359Y-136645738D01*
X48903228Y-136725280D01*
X48903229Y-136725280D01*
X48903232Y-136725281D01*
X49170063Y-136765499D01*
X49170068Y-136765499D01*
X49170071Y-136765500D01*
X49170072Y-136765500D01*
X49439928Y-136765500D01*
X49439929Y-136765500D01*
X49439936Y-136765499D01*
X49706767Y-136725281D01*
X49706768Y-136725280D01*
X49706772Y-136725280D01*
X49964641Y-136645738D01*
X50189404Y-136537498D01*
X50207767Y-136528655D01*
X50207767Y-136528654D01*
X50207775Y-136528651D01*
X50430741Y-136376635D01*
X50526824Y-136287483D01*
X74849500Y-136287483D01*
X74849500Y-137212501D01*
X74849501Y-137212519D01*
X74860000Y-137315296D01*
X74860001Y-137315299D01*
X74915185Y-137481831D01*
X74915187Y-137481836D01*
X74924747Y-137497335D01*
X75007288Y-137631156D01*
X75131344Y-137755212D01*
X75280666Y-137847314D01*
X75447203Y-137902499D01*
X75549991Y-137913000D01*
X76950008Y-137912999D01*
X77052797Y-137902499D01*
X77219334Y-137847314D01*
X77368656Y-137755212D01*
X77492712Y-137631156D01*
X77584814Y-137481834D01*
X77639999Y-137315297D01*
X77650500Y-137212509D01*
X77650499Y-136467885D01*
X77670183Y-136400847D01*
X77686814Y-136380209D01*
X78017163Y-136049860D01*
X78017166Y-136049859D01*
X78122259Y-135944766D01*
X78204829Y-135821190D01*
X78261705Y-135683880D01*
X78290700Y-135538112D01*
X78290700Y-134808899D01*
X78310385Y-134741860D01*
X78363189Y-134696105D01*
X78414700Y-134684899D01*
X78574671Y-134684899D01*
X78574672Y-134684899D01*
X78634283Y-134678491D01*
X78769131Y-134628196D01*
X78884346Y-134541946D01*
X78970596Y-134426731D01*
X79020891Y-134291883D01*
X79027300Y-134232273D01*
X79027299Y-133577728D01*
X79020891Y-133518117D01*
X78970596Y-133383269D01*
X78941429Y-133344307D01*
X78917013Y-133278848D01*
X78931864Y-133210575D01*
X78941421Y-133195702D01*
X78970596Y-133156731D01*
X79020891Y-133021883D01*
X79027300Y-132962273D01*
X79027299Y-132307728D01*
X79020891Y-132248117D01*
X79012563Y-132225789D01*
X78970597Y-132113271D01*
X78970596Y-132113269D01*
X78941119Y-132073893D01*
X78916702Y-132008429D01*
X78931553Y-131940156D01*
X78941121Y-131925269D01*
X78970151Y-131886491D01*
X79020397Y-131751776D01*
X79020398Y-131751772D01*
X79026799Y-131692244D01*
X79026800Y-131692227D01*
X79026800Y-131615000D01*
X76045600Y-131615000D01*
X76045600Y-131692244D01*
X76052001Y-131751772D01*
X76052003Y-131751779D01*
X76102245Y-131886486D01*
X76102246Y-131886488D01*
X76131280Y-131925273D01*
X76155696Y-131990738D01*
X76140844Y-132059011D01*
X76131280Y-132073892D01*
X76101805Y-132113265D01*
X76101802Y-132113271D01*
X76059836Y-132225790D01*
X76051509Y-132248117D01*
X76045100Y-132307727D01*
X76045100Y-132307734D01*
X76045100Y-132307735D01*
X76045100Y-132962270D01*
X76045101Y-132962276D01*
X76051508Y-133021883D01*
X76101802Y-133156728D01*
X76101803Y-133156730D01*
X76130968Y-133195690D01*
X76155384Y-133261155D01*
X76140532Y-133329428D01*
X76130968Y-133344310D01*
X76101803Y-133383269D01*
X76101802Y-133383271D01*
X76051510Y-133518113D01*
X76051509Y-133518117D01*
X76045100Y-133577727D01*
X76045100Y-133577734D01*
X76045100Y-133577735D01*
X76045100Y-134232270D01*
X76045101Y-134232276D01*
X76051508Y-134291883D01*
X76101802Y-134426728D01*
X76101806Y-134426735D01*
X76188052Y-134541944D01*
X76188055Y-134541947D01*
X76303264Y-134628193D01*
X76303271Y-134628197D01*
X76348218Y-134644961D01*
X76438117Y-134678491D01*
X76497727Y-134684900D01*
X76657700Y-134684899D01*
X76724739Y-134704583D01*
X76770494Y-134757387D01*
X76781700Y-134808899D01*
X76781700Y-135099913D01*
X76762015Y-135166952D01*
X76745381Y-135187594D01*
X76382293Y-135550681D01*
X76320970Y-135584166D01*
X76294612Y-135587000D01*
X75549998Y-135587000D01*
X75549980Y-135587001D01*
X75447203Y-135597500D01*
X75447200Y-135597501D01*
X75280668Y-135652685D01*
X75280663Y-135652687D01*
X75131342Y-135744789D01*
X75007289Y-135868842D01*
X74915187Y-136018163D01*
X74915185Y-136018168D01*
X74901302Y-136060065D01*
X74860001Y-136184703D01*
X74860001Y-136184704D01*
X74860000Y-136184704D01*
X74849500Y-136287483D01*
X50526824Y-136287483D01*
X50628561Y-136193085D01*
X50796815Y-135982102D01*
X50931743Y-135748398D01*
X51030334Y-135497195D01*
X51090383Y-135234103D01*
X51106306Y-135021625D01*
X51110549Y-134965004D01*
X51110549Y-134964995D01*
X51090383Y-134695898D01*
X51090383Y-134695897D01*
X51030334Y-134432805D01*
X50931743Y-134181602D01*
X50796815Y-133947898D01*
X50628561Y-133736915D01*
X50628560Y-133736914D01*
X50628557Y-133736910D01*
X50430741Y-133553365D01*
X50379036Y-133518113D01*
X50207775Y-133401349D01*
X50207769Y-133401346D01*
X50207768Y-133401345D01*
X50207767Y-133401344D01*
X49964643Y-133284263D01*
X49964645Y-133284263D01*
X49706773Y-133204720D01*
X49706767Y-133204718D01*
X49439936Y-133164500D01*
X49439929Y-133164500D01*
X49170071Y-133164500D01*
X49170063Y-133164500D01*
X48903232Y-133204718D01*
X48903226Y-133204720D01*
X48645358Y-133284262D01*
X48402230Y-133401346D01*
X48179258Y-133553365D01*
X47981442Y-133736910D01*
X47813185Y-133947898D01*
X47678258Y-134181599D01*
X47678256Y-134181603D01*
X47579666Y-134432804D01*
X47579664Y-134432811D01*
X47519616Y-134695898D01*
X47499451Y-134964995D01*
X46500000Y-134964995D01*
X46500000Y-125152155D01*
X47700000Y-125152155D01*
X47700000Y-126250000D01*
X48899999Y-126250000D01*
X48874979Y-126310402D01*
X48850000Y-126435981D01*
X48850000Y-126564019D01*
X48874979Y-126689598D01*
X48899999Y-126750000D01*
X47700000Y-126750000D01*
X47700000Y-127847844D01*
X47706401Y-127907372D01*
X47706403Y-127907379D01*
X47756645Y-128042086D01*
X47756649Y-128042093D01*
X47842809Y-128157187D01*
X47842812Y-128157190D01*
X47957906Y-128243350D01*
X47957913Y-128243354D01*
X48092620Y-128293596D01*
X48092627Y-128293598D01*
X48152155Y-128299999D01*
X48152172Y-128300000D01*
X49250000Y-128300000D01*
X49250000Y-127100001D01*
X49310402Y-127125021D01*
X49435981Y-127150000D01*
X49564019Y-127150000D01*
X49689598Y-127125021D01*
X49750000Y-127100001D01*
X49750000Y-128300000D01*
X50847828Y-128300000D01*
X50847844Y-128299999D01*
X50907372Y-128293598D01*
X50907379Y-128293596D01*
X51042086Y-128243354D01*
X51042093Y-128243350D01*
X51157187Y-128157190D01*
X51157190Y-128157187D01*
X51243350Y-128042093D01*
X51243354Y-128042086D01*
X51293596Y-127907379D01*
X51293598Y-127907372D01*
X51299999Y-127847844D01*
X51300000Y-127847827D01*
X51300000Y-126750000D01*
X50100001Y-126750000D01*
X50125021Y-126689598D01*
X50150000Y-126564019D01*
X50150000Y-126435981D01*
X50125021Y-126310402D01*
X50100001Y-126250000D01*
X51300000Y-126250000D01*
X51300000Y-125152172D01*
X51299999Y-125152155D01*
X51293598Y-125092627D01*
X51293596Y-125092620D01*
X51243354Y-124957913D01*
X51243350Y-124957906D01*
X51157190Y-124842812D01*
X51157187Y-124842809D01*
X51042093Y-124756649D01*
X51042086Y-124756645D01*
X50907379Y-124706403D01*
X50907372Y-124706401D01*
X50847844Y-124700000D01*
X49750000Y-124700000D01*
X49750000Y-125899998D01*
X49689598Y-125874979D01*
X49564019Y-125850000D01*
X49435981Y-125850000D01*
X49310402Y-125874979D01*
X49250000Y-125899998D01*
X49250000Y-124700000D01*
X48152155Y-124700000D01*
X48092627Y-124706401D01*
X48092620Y-124706403D01*
X47957913Y-124756645D01*
X47957906Y-124756649D01*
X47842812Y-124842809D01*
X47842809Y-124842812D01*
X47756649Y-124957906D01*
X47756645Y-124957913D01*
X47706403Y-125092620D01*
X47706401Y-125092627D01*
X47700000Y-125152155D01*
X46500000Y-125152155D01*
X46500000Y-121419995D01*
X47694451Y-121419995D01*
X47694451Y-121420004D01*
X47714616Y-121689101D01*
X47774664Y-121952188D01*
X47774666Y-121952195D01*
X47873256Y-122203396D01*
X47873258Y-122203400D01*
X47889282Y-122231154D01*
X48008185Y-122437102D01*
X48144080Y-122607509D01*
X48176442Y-122648089D01*
X48363183Y-122821358D01*
X48374259Y-122831635D01*
X48597226Y-122983651D01*
X48840359Y-123100738D01*
X49098228Y-123180280D01*
X49098229Y-123180280D01*
X49098232Y-123180281D01*
X49365063Y-123220499D01*
X49365068Y-123220499D01*
X49365071Y-123220500D01*
X49365072Y-123220500D01*
X49634928Y-123220500D01*
X49634929Y-123220500D01*
X49634936Y-123220499D01*
X49901767Y-123180281D01*
X49901768Y-123180280D01*
X49901772Y-123180280D01*
X50159641Y-123100738D01*
X50402775Y-122983651D01*
X50625741Y-122831635D01*
X50812556Y-122658296D01*
X50823557Y-122648089D01*
X50823557Y-122648087D01*
X50823561Y-122648085D01*
X50991815Y-122437102D01*
X51126743Y-122203398D01*
X51225334Y-121952195D01*
X51285383Y-121689103D01*
X51305549Y-121420000D01*
X51285383Y-121150897D01*
X51225334Y-120887805D01*
X51126743Y-120636602D01*
X50991815Y-120402898D01*
X50823561Y-120191915D01*
X50823560Y-120191914D01*
X50823557Y-120191910D01*
X50625741Y-120008365D01*
X50402775Y-119856349D01*
X50402769Y-119856346D01*
X50402768Y-119856345D01*
X50402767Y-119856344D01*
X50159643Y-119739263D01*
X50159645Y-119739263D01*
X49901773Y-119659720D01*
X49901767Y-119659718D01*
X49634936Y-119619500D01*
X49634929Y-119619500D01*
X49365071Y-119619500D01*
X49365063Y-119619500D01*
X49098232Y-119659718D01*
X49098226Y-119659720D01*
X48840358Y-119739262D01*
X48597230Y-119856346D01*
X48374258Y-120008365D01*
X48176442Y-120191910D01*
X48008185Y-120402898D01*
X47873258Y-120636599D01*
X47873256Y-120636603D01*
X47774666Y-120887804D01*
X47774664Y-120887811D01*
X47714616Y-121150898D01*
X47694451Y-121419995D01*
X46500000Y-121419995D01*
X46500000Y-117037844D01*
X105095000Y-117037844D01*
X105101401Y-117097372D01*
X105101403Y-117097379D01*
X105151645Y-117232086D01*
X105151649Y-117232093D01*
X105237809Y-117347187D01*
X105237812Y-117347190D01*
X105352906Y-117433350D01*
X105352913Y-117433354D01*
X105487620Y-117483596D01*
X105487627Y-117483598D01*
X105547155Y-117489999D01*
X105547172Y-117490000D01*
X107250000Y-117490000D01*
X107750000Y-117490000D01*
X109452828Y-117490000D01*
X109452844Y-117489999D01*
X109512372Y-117483598D01*
X109512379Y-117483596D01*
X109647086Y-117433354D01*
X109647093Y-117433350D01*
X109762187Y-117347190D01*
X109762190Y-117347187D01*
X109848350Y-117232093D01*
X109848354Y-117232086D01*
X109898596Y-117097379D01*
X109898598Y-117097372D01*
X109904999Y-117037844D01*
X109905000Y-117037827D01*
X109905000Y-115120000D01*
X107750000Y-115120000D01*
X107750000Y-117490000D01*
X107250000Y-117490000D01*
X107250000Y-115120000D01*
X105095000Y-115120000D01*
X105095000Y-117037844D01*
X46500000Y-117037844D01*
X46500000Y-112702155D01*
X105095000Y-112702155D01*
X105095000Y-114620000D01*
X107250000Y-114620000D01*
X107750000Y-114620000D01*
X109905000Y-114620000D01*
X109905000Y-112702172D01*
X109904999Y-112702155D01*
X109898598Y-112642627D01*
X109898596Y-112642620D01*
X109848354Y-112507913D01*
X109848350Y-112507906D01*
X109762190Y-112392812D01*
X109762187Y-112392809D01*
X109647093Y-112306649D01*
X109647086Y-112306645D01*
X109512379Y-112256403D01*
X109512372Y-112256401D01*
X109452844Y-112250000D01*
X107750000Y-112250000D01*
X107750000Y-114620000D01*
X107250000Y-114620000D01*
X107250000Y-112250000D01*
X105547155Y-112250000D01*
X105487627Y-112256401D01*
X105487620Y-112256403D01*
X105352913Y-112306645D01*
X105352906Y-112306649D01*
X105237812Y-112392809D01*
X105237809Y-112392812D01*
X105151649Y-112507906D01*
X105151645Y-112507913D01*
X105101403Y-112642620D01*
X105101401Y-112642627D01*
X105095000Y-112702155D01*
X46500000Y-112702155D01*
X46500000Y-106332135D01*
X105094500Y-106332135D01*
X105094500Y-110667870D01*
X105094501Y-110667876D01*
X105100908Y-110727483D01*
X105151202Y-110862328D01*
X105151206Y-110862335D01*
X105237452Y-110977544D01*
X105237455Y-110977547D01*
X105352664Y-111063793D01*
X105352671Y-111063797D01*
X105487517Y-111114091D01*
X105487516Y-111114091D01*
X105494444Y-111114835D01*
X105547127Y-111120500D01*
X109452872Y-111120499D01*
X109512483Y-111114091D01*
X109647331Y-111063796D01*
X109762546Y-110977546D01*
X109848796Y-110862331D01*
X109899091Y-110727483D01*
X109905500Y-110667873D01*
X109905499Y-106332128D01*
X109899091Y-106272517D01*
X109848796Y-106137669D01*
X109848795Y-106137668D01*
X109848793Y-106137664D01*
X109762547Y-106022455D01*
X109762544Y-106022452D01*
X109647335Y-105936206D01*
X109647328Y-105936202D01*
X109512482Y-105885908D01*
X109512483Y-105885908D01*
X109452883Y-105879501D01*
X109452881Y-105879500D01*
X109452873Y-105879500D01*
X109452865Y-105879500D01*
X108929500Y-105879500D01*
X108862461Y-105859815D01*
X108816706Y-105807011D01*
X108805500Y-105755500D01*
X108805500Y-99653280D01*
X108808609Y-99625688D01*
X108811530Y-99612890D01*
X108820383Y-99574103D01*
X108825936Y-99500000D01*
X108840549Y-99305004D01*
X108840549Y-99304995D01*
X108823744Y-99080747D01*
X108820383Y-99035897D01*
X108760334Y-98772805D01*
X108661743Y-98521602D01*
X108526815Y-98287898D01*
X108358561Y-98076915D01*
X108358560Y-98076914D01*
X108358557Y-98076910D01*
X108160741Y-97893365D01*
X107937775Y-97741349D01*
X107937769Y-97741346D01*
X107937768Y-97741345D01*
X107937767Y-97741344D01*
X107694643Y-97624263D01*
X107694645Y-97624263D01*
X107436773Y-97544720D01*
X107436767Y-97544718D01*
X107169936Y-97504500D01*
X107169929Y-97504500D01*
X106900071Y-97504500D01*
X106900063Y-97504500D01*
X106633232Y-97544718D01*
X106633226Y-97544720D01*
X106375358Y-97624262D01*
X106132230Y-97741346D01*
X105909258Y-97893365D01*
X105711442Y-98076910D01*
X105543185Y-98287898D01*
X105408258Y-98521599D01*
X105408256Y-98521603D01*
X105309666Y-98772804D01*
X105309664Y-98772811D01*
X105249616Y-99035898D01*
X105229451Y-99304995D01*
X105229451Y-99305004D01*
X105249615Y-99574093D01*
X105249616Y-99574098D01*
X105261391Y-99625688D01*
X105264500Y-99653280D01*
X105264500Y-105945054D01*
X105244815Y-106012093D01*
X105239766Y-106019365D01*
X105151206Y-106137664D01*
X105151202Y-106137671D01*
X105100908Y-106272517D01*
X105094501Y-106332116D01*
X105094501Y-106332123D01*
X105094500Y-106332135D01*
X46500000Y-106332135D01*
X46500000Y-98152155D01*
X47120000Y-98152155D01*
X47120000Y-99250000D01*
X48319999Y-99250000D01*
X48294979Y-99310402D01*
X48270000Y-99435981D01*
X48270000Y-99564019D01*
X48294979Y-99689598D01*
X48319999Y-99750000D01*
X47120000Y-99750000D01*
X47120000Y-100847844D01*
X47126401Y-100907372D01*
X47126403Y-100907379D01*
X47176645Y-101042086D01*
X47176649Y-101042093D01*
X47262809Y-101157187D01*
X47262812Y-101157190D01*
X47377906Y-101243350D01*
X47377913Y-101243354D01*
X47512620Y-101293596D01*
X47512627Y-101293598D01*
X47572155Y-101299999D01*
X47572172Y-101300000D01*
X48670000Y-101300000D01*
X48670000Y-100100001D01*
X48730402Y-100125021D01*
X48855981Y-100150000D01*
X48984019Y-100150000D01*
X49109598Y-100125021D01*
X49170000Y-100100001D01*
X49170000Y-101300000D01*
X50267828Y-101300000D01*
X50267844Y-101299999D01*
X50327372Y-101293598D01*
X50327379Y-101293596D01*
X50462086Y-101243354D01*
X50462093Y-101243350D01*
X50577187Y-101157190D01*
X50577190Y-101157187D01*
X50663350Y-101042093D01*
X50663354Y-101042086D01*
X50713596Y-100907379D01*
X50713598Y-100907372D01*
X50719999Y-100847844D01*
X50720000Y-100847827D01*
X50720000Y-99750000D01*
X49520001Y-99750000D01*
X49545021Y-99689598D01*
X49570000Y-99564019D01*
X49570000Y-99499995D01*
X52194451Y-99499995D01*
X52194451Y-99500004D01*
X52214616Y-99769101D01*
X52274664Y-100032188D01*
X52274666Y-100032195D01*
X52320901Y-100150000D01*
X52373257Y-100283398D01*
X52508185Y-100517102D01*
X52616459Y-100652873D01*
X52676442Y-100728089D01*
X52863183Y-100901358D01*
X52874259Y-100911635D01*
X53097226Y-101063651D01*
X53097229Y-101063652D01*
X53097230Y-101063653D01*
X53100609Y-101065280D01*
X53340359Y-101180738D01*
X53598228Y-101260280D01*
X53598229Y-101260280D01*
X53598232Y-101260281D01*
X53865063Y-101300499D01*
X53865068Y-101300499D01*
X53865071Y-101300500D01*
X53865072Y-101300500D01*
X54134928Y-101300500D01*
X54134929Y-101300500D01*
X54134936Y-101300499D01*
X54401767Y-101260281D01*
X54401768Y-101260280D01*
X54401772Y-101260280D01*
X54659641Y-101180738D01*
X54851765Y-101088216D01*
X54902767Y-101063655D01*
X54902767Y-101063654D01*
X54902775Y-101063651D01*
X55125741Y-100911635D01*
X55323561Y-100728085D01*
X55491815Y-100517102D01*
X55626743Y-100283398D01*
X55725334Y-100032195D01*
X55785383Y-99769103D01*
X55794063Y-99653280D01*
X55805549Y-99500004D01*
X55805549Y-99499995D01*
X55788744Y-99275747D01*
X55785383Y-99230897D01*
X55725334Y-98967805D01*
X55626743Y-98716602D01*
X55491815Y-98482898D01*
X55323561Y-98271915D01*
X55323560Y-98271914D01*
X55323557Y-98271910D01*
X55194491Y-98152155D01*
X59620000Y-98152155D01*
X59620000Y-99250000D01*
X60819999Y-99250000D01*
X60794979Y-99310402D01*
X60770000Y-99435981D01*
X60770000Y-99564019D01*
X60794979Y-99689598D01*
X60819999Y-99750000D01*
X59620000Y-99750000D01*
X59620000Y-100847844D01*
X59626401Y-100907372D01*
X59626403Y-100907379D01*
X59676645Y-101042086D01*
X59676649Y-101042093D01*
X59762809Y-101157187D01*
X59762812Y-101157190D01*
X59877906Y-101243350D01*
X59877913Y-101243354D01*
X60012620Y-101293596D01*
X60012627Y-101293598D01*
X60072155Y-101299999D01*
X60072172Y-101300000D01*
X61170000Y-101300000D01*
X61170000Y-100100001D01*
X61230402Y-100125021D01*
X61355981Y-100150000D01*
X61484019Y-100150000D01*
X61609598Y-100125021D01*
X61670000Y-100100001D01*
X61670000Y-101300000D01*
X62767828Y-101300000D01*
X62767844Y-101299999D01*
X62827372Y-101293598D01*
X62827379Y-101293596D01*
X62962086Y-101243354D01*
X62962093Y-101243350D01*
X63077187Y-101157190D01*
X63077190Y-101157187D01*
X63163350Y-101042093D01*
X63163354Y-101042086D01*
X63213596Y-100907379D01*
X63213598Y-100907372D01*
X63219999Y-100847844D01*
X63220000Y-100847827D01*
X63220000Y-99750000D01*
X62020001Y-99750000D01*
X62045021Y-99689598D01*
X62070000Y-99564019D01*
X62070000Y-99499995D01*
X64694451Y-99499995D01*
X64694451Y-99500004D01*
X64714616Y-99769101D01*
X64774664Y-100032188D01*
X64774666Y-100032195D01*
X64820901Y-100150000D01*
X64873257Y-100283398D01*
X65008185Y-100517102D01*
X65116459Y-100652873D01*
X65176442Y-100728089D01*
X65363183Y-100901358D01*
X65374259Y-100911635D01*
X65597226Y-101063651D01*
X65597229Y-101063652D01*
X65597230Y-101063653D01*
X65600609Y-101065280D01*
X65840359Y-101180738D01*
X66098228Y-101260280D01*
X66098229Y-101260280D01*
X66098232Y-101260281D01*
X66365063Y-101300499D01*
X66365068Y-101300499D01*
X66365071Y-101300500D01*
X66365072Y-101300500D01*
X66634928Y-101300500D01*
X66634929Y-101300500D01*
X66634936Y-101300499D01*
X66901767Y-101260281D01*
X66901768Y-101260280D01*
X66901772Y-101260280D01*
X67159641Y-101180738D01*
X67351765Y-101088216D01*
X67402767Y-101063655D01*
X67402767Y-101063654D01*
X67402775Y-101063651D01*
X67625741Y-100911635D01*
X67823561Y-100728085D01*
X67991815Y-100517102D01*
X68126743Y-100283398D01*
X68225334Y-100032195D01*
X68285383Y-99769103D01*
X68294063Y-99653280D01*
X68305549Y-99500004D01*
X68305549Y-99499995D01*
X68288744Y-99275747D01*
X68285383Y-99230897D01*
X68225334Y-98967805D01*
X68126743Y-98716602D01*
X67991815Y-98482898D01*
X67823561Y-98271915D01*
X67823560Y-98271914D01*
X67823557Y-98271910D01*
X67694491Y-98152155D01*
X72700000Y-98152155D01*
X72700000Y-99250000D01*
X73899999Y-99250000D01*
X73874979Y-99310402D01*
X73850000Y-99435981D01*
X73850000Y-99564019D01*
X73874979Y-99689598D01*
X73899999Y-99750000D01*
X72700000Y-99750000D01*
X72700000Y-100847844D01*
X72706401Y-100907372D01*
X72706403Y-100907379D01*
X72756645Y-101042086D01*
X72756649Y-101042093D01*
X72842809Y-101157187D01*
X72842812Y-101157190D01*
X72957906Y-101243350D01*
X72957913Y-101243354D01*
X73092620Y-101293596D01*
X73092627Y-101293598D01*
X73152155Y-101299999D01*
X73152172Y-101300000D01*
X74250000Y-101300000D01*
X74250000Y-100100001D01*
X74310402Y-100125021D01*
X74435981Y-100150000D01*
X74564019Y-100150000D01*
X74689598Y-100125021D01*
X74750000Y-100100001D01*
X74750000Y-101300000D01*
X75847828Y-101300000D01*
X75847844Y-101299999D01*
X75907372Y-101293598D01*
X75907379Y-101293596D01*
X76042086Y-101243354D01*
X76042093Y-101243350D01*
X76157187Y-101157190D01*
X76157190Y-101157187D01*
X76243350Y-101042093D01*
X76243354Y-101042086D01*
X76293596Y-100907379D01*
X76293598Y-100907372D01*
X76299999Y-100847844D01*
X76300000Y-100847827D01*
X76300000Y-99750000D01*
X75100001Y-99750000D01*
X75125021Y-99689598D01*
X75150000Y-99564019D01*
X75150000Y-99499995D01*
X77774451Y-99499995D01*
X77774451Y-99500004D01*
X77794616Y-99769101D01*
X77854664Y-100032188D01*
X77854666Y-100032195D01*
X77900901Y-100150000D01*
X77953257Y-100283398D01*
X78088185Y-100517102D01*
X78196459Y-100652873D01*
X78256442Y-100728089D01*
X78443183Y-100901358D01*
X78454259Y-100911635D01*
X78677226Y-101063651D01*
X78677229Y-101063652D01*
X78677230Y-101063653D01*
X78680609Y-101065280D01*
X78920359Y-101180738D01*
X79178228Y-101260280D01*
X79178229Y-101260280D01*
X79178232Y-101260281D01*
X79445063Y-101300499D01*
X79445068Y-101300499D01*
X79445071Y-101300500D01*
X79445072Y-101300500D01*
X79714928Y-101300500D01*
X79714929Y-101300500D01*
X79714936Y-101300499D01*
X79981767Y-101260281D01*
X79981768Y-101260280D01*
X79981772Y-101260280D01*
X80239641Y-101180738D01*
X80431765Y-101088216D01*
X80482767Y-101063655D01*
X80482767Y-101063654D01*
X80482775Y-101063651D01*
X80705741Y-100911635D01*
X80903561Y-100728085D01*
X81071815Y-100517102D01*
X81206743Y-100283398D01*
X81305334Y-100032195D01*
X81365383Y-99769103D01*
X81374063Y-99653280D01*
X81385549Y-99500004D01*
X81385549Y-99499995D01*
X81368744Y-99275747D01*
X81365383Y-99230897D01*
X81305334Y-98967805D01*
X81206743Y-98716602D01*
X81071815Y-98482898D01*
X80903561Y-98271915D01*
X80903560Y-98271914D01*
X80903557Y-98271910D01*
X80705741Y-98088365D01*
X80688940Y-98076910D01*
X80513292Y-97957155D01*
X86655000Y-97957155D01*
X86655000Y-99055000D01*
X87854999Y-99055000D01*
X87829979Y-99115402D01*
X87805000Y-99240981D01*
X87805000Y-99369019D01*
X87829979Y-99494598D01*
X87854999Y-99555000D01*
X86655000Y-99555000D01*
X86655000Y-100652844D01*
X86661401Y-100712372D01*
X86661403Y-100712379D01*
X86711645Y-100847086D01*
X86711649Y-100847093D01*
X86797809Y-100962187D01*
X86797812Y-100962190D01*
X86912906Y-101048350D01*
X86912913Y-101048354D01*
X87047620Y-101098596D01*
X87047627Y-101098598D01*
X87107155Y-101104999D01*
X87107172Y-101105000D01*
X88205000Y-101105000D01*
X88205000Y-99905001D01*
X88265402Y-99930021D01*
X88390981Y-99955000D01*
X88519019Y-99955000D01*
X88644598Y-99930021D01*
X88705000Y-99905001D01*
X88705000Y-101105000D01*
X89802828Y-101105000D01*
X89802844Y-101104999D01*
X89862372Y-101098598D01*
X89862379Y-101098596D01*
X89997086Y-101048354D01*
X89997093Y-101048350D01*
X90112187Y-100962190D01*
X90112190Y-100962187D01*
X90198350Y-100847093D01*
X90198354Y-100847086D01*
X90248596Y-100712379D01*
X90248598Y-100712372D01*
X90254999Y-100652844D01*
X90255000Y-100652827D01*
X90255000Y-99555000D01*
X89055001Y-99555000D01*
X89080021Y-99494598D01*
X89105000Y-99369019D01*
X89105000Y-99304995D01*
X91729451Y-99304995D01*
X91729451Y-99305004D01*
X91749616Y-99574101D01*
X91809664Y-99837188D01*
X91809666Y-99837195D01*
X91855901Y-99955000D01*
X91908257Y-100088398D01*
X92043185Y-100322102D01*
X92179080Y-100492509D01*
X92211442Y-100533089D01*
X92398183Y-100706358D01*
X92409259Y-100716635D01*
X92632226Y-100868651D01*
X92875359Y-100985738D01*
X93133228Y-101065280D01*
X93133229Y-101065280D01*
X93133232Y-101065281D01*
X93400063Y-101105499D01*
X93400068Y-101105499D01*
X93400071Y-101105500D01*
X93400072Y-101105500D01*
X93669928Y-101105500D01*
X93669929Y-101105500D01*
X93669936Y-101105499D01*
X93936767Y-101065281D01*
X93936768Y-101065280D01*
X93936772Y-101065280D01*
X94194641Y-100985738D01*
X94437775Y-100868651D01*
X94660741Y-100716635D01*
X94858561Y-100533085D01*
X95026815Y-100322102D01*
X95161743Y-100088398D01*
X95260334Y-99837195D01*
X95320383Y-99574103D01*
X95340549Y-99305000D01*
X95336427Y-99250000D01*
X95323744Y-99080747D01*
X95320383Y-99035897D01*
X95260334Y-98772805D01*
X95161743Y-98521602D01*
X95026815Y-98287898D01*
X94858561Y-98076915D01*
X94858560Y-98076914D01*
X94858557Y-98076910D01*
X94729469Y-97957135D01*
X100154500Y-97957135D01*
X100154500Y-100652870D01*
X100154501Y-100652876D01*
X100160908Y-100712483D01*
X100211202Y-100847328D01*
X100211206Y-100847335D01*
X100297452Y-100962544D01*
X100297455Y-100962547D01*
X100412664Y-101048793D01*
X100412671Y-101048797D01*
X100547517Y-101099091D01*
X100547516Y-101099091D01*
X100554444Y-101099835D01*
X100607127Y-101105500D01*
X103302872Y-101105499D01*
X103362483Y-101099091D01*
X103497331Y-101048796D01*
X103612546Y-100962546D01*
X103698796Y-100847331D01*
X103749091Y-100712483D01*
X103755500Y-100652873D01*
X103755499Y-97957128D01*
X103749091Y-97897517D01*
X103747542Y-97893365D01*
X103698797Y-97762671D01*
X103698793Y-97762664D01*
X103612547Y-97647455D01*
X103612544Y-97647452D01*
X103497335Y-97561206D01*
X103497328Y-97561202D01*
X103362482Y-97510908D01*
X103362483Y-97510908D01*
X103302883Y-97504501D01*
X103302881Y-97504500D01*
X103302873Y-97504500D01*
X103302864Y-97504500D01*
X100607129Y-97504500D01*
X100607123Y-97504501D01*
X100547516Y-97510908D01*
X100412671Y-97561202D01*
X100412664Y-97561206D01*
X100297455Y-97647452D01*
X100297452Y-97647455D01*
X100211206Y-97762664D01*
X100211202Y-97762671D01*
X100160908Y-97897517D01*
X100154501Y-97957116D01*
X100154501Y-97957123D01*
X100154500Y-97957135D01*
X94729469Y-97957135D01*
X94660741Y-97893365D01*
X94437775Y-97741349D01*
X94437769Y-97741346D01*
X94437768Y-97741345D01*
X94437767Y-97741344D01*
X94194643Y-97624263D01*
X94194645Y-97624263D01*
X93936773Y-97544720D01*
X93936767Y-97544718D01*
X93669936Y-97504500D01*
X93669929Y-97504500D01*
X93400071Y-97504500D01*
X93400063Y-97504500D01*
X93133232Y-97544718D01*
X93133226Y-97544720D01*
X92875358Y-97624262D01*
X92632230Y-97741346D01*
X92409258Y-97893365D01*
X92211442Y-98076910D01*
X92043185Y-98287898D01*
X91908258Y-98521599D01*
X91908256Y-98521603D01*
X91809666Y-98772804D01*
X91809664Y-98772811D01*
X91749616Y-99035898D01*
X91729451Y-99304995D01*
X89105000Y-99304995D01*
X89105000Y-99240981D01*
X89080021Y-99115402D01*
X89055001Y-99055000D01*
X90255000Y-99055000D01*
X90255000Y-97957172D01*
X90254999Y-97957155D01*
X90248598Y-97897627D01*
X90248596Y-97897620D01*
X90198354Y-97762913D01*
X90198350Y-97762906D01*
X90112190Y-97647812D01*
X90112187Y-97647809D01*
X89997093Y-97561649D01*
X89997086Y-97561645D01*
X89862379Y-97511403D01*
X89862372Y-97511401D01*
X89802844Y-97505000D01*
X88705000Y-97505000D01*
X88705000Y-98704998D01*
X88644598Y-98679979D01*
X88519019Y-98655000D01*
X88390981Y-98655000D01*
X88265402Y-98679979D01*
X88205000Y-98704998D01*
X88205000Y-97505000D01*
X87107155Y-97505000D01*
X87047627Y-97511401D01*
X87047620Y-97511403D01*
X86912913Y-97561645D01*
X86912906Y-97561649D01*
X86797812Y-97647809D01*
X86797809Y-97647812D01*
X86711649Y-97762906D01*
X86711645Y-97762913D01*
X86661403Y-97897620D01*
X86661401Y-97897627D01*
X86655000Y-97957155D01*
X80513292Y-97957155D01*
X80482775Y-97936349D01*
X80482769Y-97936346D01*
X80482768Y-97936345D01*
X80482767Y-97936344D01*
X80239643Y-97819263D01*
X80239645Y-97819263D01*
X79981773Y-97739720D01*
X79981767Y-97739718D01*
X79714936Y-97699500D01*
X79714929Y-97699500D01*
X79445071Y-97699500D01*
X79445063Y-97699500D01*
X79178232Y-97739718D01*
X79178226Y-97739720D01*
X78920358Y-97819262D01*
X78677230Y-97936346D01*
X78454258Y-98088365D01*
X78256442Y-98271910D01*
X78088185Y-98482898D01*
X77953258Y-98716599D01*
X77953256Y-98716603D01*
X77854666Y-98967804D01*
X77854664Y-98967811D01*
X77794616Y-99230898D01*
X77774451Y-99499995D01*
X75150000Y-99499995D01*
X75150000Y-99435981D01*
X75125021Y-99310402D01*
X75100001Y-99250000D01*
X76300000Y-99250000D01*
X76300000Y-98152172D01*
X76299999Y-98152155D01*
X76293598Y-98092627D01*
X76293596Y-98092620D01*
X76243354Y-97957913D01*
X76243350Y-97957906D01*
X76157190Y-97842812D01*
X76157187Y-97842809D01*
X76042093Y-97756649D01*
X76042086Y-97756645D01*
X75907379Y-97706403D01*
X75907372Y-97706401D01*
X75847844Y-97700000D01*
X74750000Y-97700000D01*
X74750000Y-98899998D01*
X74689598Y-98874979D01*
X74564019Y-98850000D01*
X74435981Y-98850000D01*
X74310402Y-98874979D01*
X74250000Y-98899998D01*
X74250000Y-97700000D01*
X73152155Y-97700000D01*
X73092627Y-97706401D01*
X73092620Y-97706403D01*
X72957913Y-97756645D01*
X72957906Y-97756649D01*
X72842812Y-97842809D01*
X72842809Y-97842812D01*
X72756649Y-97957906D01*
X72756645Y-97957913D01*
X72706403Y-98092620D01*
X72706401Y-98092627D01*
X72700000Y-98152155D01*
X67694491Y-98152155D01*
X67625741Y-98088365D01*
X67608940Y-98076910D01*
X67402775Y-97936349D01*
X67402769Y-97936346D01*
X67402768Y-97936345D01*
X67402767Y-97936344D01*
X67159643Y-97819263D01*
X67159645Y-97819263D01*
X66901773Y-97739720D01*
X66901767Y-97739718D01*
X66634936Y-97699500D01*
X66634929Y-97699500D01*
X66365071Y-97699500D01*
X66365063Y-97699500D01*
X66098232Y-97739718D01*
X66098226Y-97739720D01*
X65840358Y-97819262D01*
X65597230Y-97936346D01*
X65374258Y-98088365D01*
X65176442Y-98271910D01*
X65008185Y-98482898D01*
X64873258Y-98716599D01*
X64873256Y-98716603D01*
X64774666Y-98967804D01*
X64774664Y-98967811D01*
X64714616Y-99230898D01*
X64694451Y-99499995D01*
X62070000Y-99499995D01*
X62070000Y-99435981D01*
X62045021Y-99310402D01*
X62020001Y-99250000D01*
X63220000Y-99250000D01*
X63220000Y-98152172D01*
X63219999Y-98152155D01*
X63213598Y-98092627D01*
X63213596Y-98092620D01*
X63163354Y-97957913D01*
X63163350Y-97957906D01*
X63077190Y-97842812D01*
X63077187Y-97842809D01*
X62962093Y-97756649D01*
X62962086Y-97756645D01*
X62827379Y-97706403D01*
X62827372Y-97706401D01*
X62767844Y-97700000D01*
X61670000Y-97700000D01*
X61670000Y-98899998D01*
X61609598Y-98874979D01*
X61484019Y-98850000D01*
X61355981Y-98850000D01*
X61230402Y-98874979D01*
X61170000Y-98899998D01*
X61170000Y-97700000D01*
X60072155Y-97700000D01*
X60012627Y-97706401D01*
X60012620Y-97706403D01*
X59877913Y-97756645D01*
X59877906Y-97756649D01*
X59762812Y-97842809D01*
X59762809Y-97842812D01*
X59676649Y-97957906D01*
X59676645Y-97957913D01*
X59626403Y-98092620D01*
X59626401Y-98092627D01*
X59620000Y-98152155D01*
X55194491Y-98152155D01*
X55125741Y-98088365D01*
X55108940Y-98076910D01*
X54902775Y-97936349D01*
X54902769Y-97936346D01*
X54902768Y-97936345D01*
X54902767Y-97936344D01*
X54659643Y-97819263D01*
X54659645Y-97819263D01*
X54401773Y-97739720D01*
X54401767Y-97739718D01*
X54134936Y-97699500D01*
X54134929Y-97699500D01*
X53865071Y-97699500D01*
X53865063Y-97699500D01*
X53598232Y-97739718D01*
X53598226Y-97739720D01*
X53340358Y-97819262D01*
X53097230Y-97936346D01*
X52874258Y-98088365D01*
X52676442Y-98271910D01*
X52508185Y-98482898D01*
X52373258Y-98716599D01*
X52373256Y-98716603D01*
X52274666Y-98967804D01*
X52274664Y-98967811D01*
X52214616Y-99230898D01*
X52194451Y-99499995D01*
X49570000Y-99499995D01*
X49570000Y-99435981D01*
X49545021Y-99310402D01*
X49520001Y-99250000D01*
X50720000Y-99250000D01*
X50720000Y-98152172D01*
X50719999Y-98152155D01*
X50713598Y-98092627D01*
X50713596Y-98092620D01*
X50663354Y-97957913D01*
X50663350Y-97957906D01*
X50577190Y-97842812D01*
X50577187Y-97842809D01*
X50462093Y-97756649D01*
X50462086Y-97756645D01*
X50327379Y-97706403D01*
X50327372Y-97706401D01*
X50267844Y-97700000D01*
X49170000Y-97700000D01*
X49170000Y-98899998D01*
X49109598Y-98874979D01*
X48984019Y-98850000D01*
X48855981Y-98850000D01*
X48730402Y-98874979D01*
X48670000Y-98899998D01*
X48670000Y-97700000D01*
X47572155Y-97700000D01*
X47512627Y-97706401D01*
X47512620Y-97706403D01*
X47377913Y-97756645D01*
X47377906Y-97756649D01*
X47262812Y-97842809D01*
X47262809Y-97842812D01*
X47176649Y-97957906D01*
X47176645Y-97957913D01*
X47126403Y-98092620D01*
X47126401Y-98092627D01*
X47120000Y-98152155D01*
X46500000Y-98152155D01*
X46500000Y-97124000D01*
X46519685Y-97056961D01*
X46572489Y-97011206D01*
X46624000Y-97000000D01*
X135876000Y-97000000D01*
X135943039Y-97019685D01*
G37*
%TD.AperFunction*%
%TD*%
M02*
