%TF.GenerationSoftware,KiCad,Pcbnew,8.0.4*%
%TF.CreationDate,2024-10-22T18:55:11-05:00*%
%TF.ProjectId,PCB_split,5043425f-7370-46c6-9974-2e6b69636164,rev?*%
%TF.SameCoordinates,Original*%
%TF.FileFunction,Legend,Top*%
%TF.FilePolarity,Positive*%
%FSLAX46Y46*%
G04 Gerber Fmt 4.6, Leading zero omitted, Abs format (unit mm)*
G04 Created by KiCad (PCBNEW 8.0.4) date 2024-10-22 18:55:11*
%MOMM*%
%LPD*%
G01*
G04 APERTURE LIST*
%ADD10C,0.100000*%
%ADD11C,0.150000*%
%ADD12C,0.120000*%
%ADD13C,0.152400*%
%ADD14C,0.250000*%
%ADD15C,0.200000*%
G04 APERTURE END LIST*
D10*
X125129027Y-129047419D02*
X125700455Y-129047419D01*
X125414741Y-130047419D02*
X125414741Y-129047419D01*
X126414741Y-129999800D02*
X126319503Y-130047419D01*
X126319503Y-130047419D02*
X126129027Y-130047419D01*
X126129027Y-130047419D02*
X126033789Y-129999800D01*
X126033789Y-129999800D02*
X125986170Y-129904561D01*
X125986170Y-129904561D02*
X125986170Y-129523609D01*
X125986170Y-129523609D02*
X126033789Y-129428371D01*
X126033789Y-129428371D02*
X126129027Y-129380752D01*
X126129027Y-129380752D02*
X126319503Y-129380752D01*
X126319503Y-129380752D02*
X126414741Y-129428371D01*
X126414741Y-129428371D02*
X126462360Y-129523609D01*
X126462360Y-129523609D02*
X126462360Y-129618847D01*
X126462360Y-129618847D02*
X125986170Y-129714085D01*
X127319503Y-130047419D02*
X127319503Y-129523609D01*
X127319503Y-129523609D02*
X127271884Y-129428371D01*
X127271884Y-129428371D02*
X127176646Y-129380752D01*
X127176646Y-129380752D02*
X126986170Y-129380752D01*
X126986170Y-129380752D02*
X126890932Y-129428371D01*
X127319503Y-129999800D02*
X127224265Y-130047419D01*
X127224265Y-130047419D02*
X126986170Y-130047419D01*
X126986170Y-130047419D02*
X126890932Y-129999800D01*
X126890932Y-129999800D02*
X126843313Y-129904561D01*
X126843313Y-129904561D02*
X126843313Y-129809323D01*
X126843313Y-129809323D02*
X126890932Y-129714085D01*
X126890932Y-129714085D02*
X126986170Y-129666466D01*
X126986170Y-129666466D02*
X127224265Y-129666466D01*
X127224265Y-129666466D02*
X127319503Y-129618847D01*
X127795694Y-130047419D02*
X127795694Y-129380752D01*
X127795694Y-129475990D02*
X127843313Y-129428371D01*
X127843313Y-129428371D02*
X127938551Y-129380752D01*
X127938551Y-129380752D02*
X128081408Y-129380752D01*
X128081408Y-129380752D02*
X128176646Y-129428371D01*
X128176646Y-129428371D02*
X128224265Y-129523609D01*
X128224265Y-129523609D02*
X128224265Y-130047419D01*
X128224265Y-129523609D02*
X128271884Y-129428371D01*
X128271884Y-129428371D02*
X128367122Y-129380752D01*
X128367122Y-129380752D02*
X128509979Y-129380752D01*
X128509979Y-129380752D02*
X128605218Y-129428371D01*
X128605218Y-129428371D02*
X128652837Y-129523609D01*
X128652837Y-129523609D02*
X128652837Y-130047419D01*
X129652836Y-130047419D02*
X129081408Y-130047419D01*
X129367122Y-130047419D02*
X129367122Y-129047419D01*
X129367122Y-129047419D02*
X129271884Y-129190276D01*
X129271884Y-129190276D02*
X129176646Y-129285514D01*
X129176646Y-129285514D02*
X129081408Y-129333133D01*
X129986170Y-129047419D02*
X130605217Y-129047419D01*
X130605217Y-129047419D02*
X130271884Y-129428371D01*
X130271884Y-129428371D02*
X130414741Y-129428371D01*
X130414741Y-129428371D02*
X130509979Y-129475990D01*
X130509979Y-129475990D02*
X130557598Y-129523609D01*
X130557598Y-129523609D02*
X130605217Y-129618847D01*
X130605217Y-129618847D02*
X130605217Y-129856942D01*
X130605217Y-129856942D02*
X130557598Y-129952180D01*
X130557598Y-129952180D02*
X130509979Y-129999800D01*
X130509979Y-129999800D02*
X130414741Y-130047419D01*
X130414741Y-130047419D02*
X130129027Y-130047419D01*
X130129027Y-130047419D02*
X130033789Y-129999800D01*
X130033789Y-129999800D02*
X129986170Y-129952180D01*
X131081408Y-129999800D02*
X131081408Y-130047419D01*
X131081408Y-130047419D02*
X131033789Y-130142657D01*
X131033789Y-130142657D02*
X130986170Y-130190276D01*
X131509979Y-130047419D02*
X131509979Y-129047419D01*
X131509979Y-129047419D02*
X131890931Y-129047419D01*
X131890931Y-129047419D02*
X131986169Y-129095038D01*
X131986169Y-129095038D02*
X132033788Y-129142657D01*
X132033788Y-129142657D02*
X132081407Y-129237895D01*
X132081407Y-129237895D02*
X132081407Y-129380752D01*
X132081407Y-129380752D02*
X132033788Y-129475990D01*
X132033788Y-129475990D02*
X131986169Y-129523609D01*
X131986169Y-129523609D02*
X131890931Y-129571228D01*
X131890931Y-129571228D02*
X131509979Y-129571228D01*
X132652836Y-130047419D02*
X132557598Y-129999800D01*
X132557598Y-129999800D02*
X132509979Y-129952180D01*
X132509979Y-129952180D02*
X132462360Y-129856942D01*
X132462360Y-129856942D02*
X132462360Y-129571228D01*
X132462360Y-129571228D02*
X132509979Y-129475990D01*
X132509979Y-129475990D02*
X132557598Y-129428371D01*
X132557598Y-129428371D02*
X132652836Y-129380752D01*
X132652836Y-129380752D02*
X132795693Y-129380752D01*
X132795693Y-129380752D02*
X132890931Y-129428371D01*
X132890931Y-129428371D02*
X132938550Y-129475990D01*
X132938550Y-129475990D02*
X132986169Y-129571228D01*
X132986169Y-129571228D02*
X132986169Y-129856942D01*
X132986169Y-129856942D02*
X132938550Y-129952180D01*
X132938550Y-129952180D02*
X132890931Y-129999800D01*
X132890931Y-129999800D02*
X132795693Y-130047419D01*
X132795693Y-130047419D02*
X132652836Y-130047419D01*
X133319503Y-129380752D02*
X133509979Y-130047419D01*
X133509979Y-130047419D02*
X133700455Y-129571228D01*
X133700455Y-129571228D02*
X133890931Y-130047419D01*
X133890931Y-130047419D02*
X134081407Y-129380752D01*
X134843312Y-129999800D02*
X134748074Y-130047419D01*
X134748074Y-130047419D02*
X134557598Y-130047419D01*
X134557598Y-130047419D02*
X134462360Y-129999800D01*
X134462360Y-129999800D02*
X134414741Y-129904561D01*
X134414741Y-129904561D02*
X134414741Y-129523609D01*
X134414741Y-129523609D02*
X134462360Y-129428371D01*
X134462360Y-129428371D02*
X134557598Y-129380752D01*
X134557598Y-129380752D02*
X134748074Y-129380752D01*
X134748074Y-129380752D02*
X134843312Y-129428371D01*
X134843312Y-129428371D02*
X134890931Y-129523609D01*
X134890931Y-129523609D02*
X134890931Y-129618847D01*
X134890931Y-129618847D02*
X134414741Y-129714085D01*
X135319503Y-130047419D02*
X135319503Y-129380752D01*
X135319503Y-129571228D02*
X135367122Y-129475990D01*
X135367122Y-129475990D02*
X135414741Y-129428371D01*
X135414741Y-129428371D02*
X135509979Y-129380752D01*
X135509979Y-129380752D02*
X135605217Y-129380752D01*
X136271884Y-129523609D02*
X136414741Y-129571228D01*
X136414741Y-129571228D02*
X136462360Y-129618847D01*
X136462360Y-129618847D02*
X136509979Y-129714085D01*
X136509979Y-129714085D02*
X136509979Y-129856942D01*
X136509979Y-129856942D02*
X136462360Y-129952180D01*
X136462360Y-129952180D02*
X136414741Y-129999800D01*
X136414741Y-129999800D02*
X136319503Y-130047419D01*
X136319503Y-130047419D02*
X135938551Y-130047419D01*
X135938551Y-130047419D02*
X135938551Y-129047419D01*
X135938551Y-129047419D02*
X136271884Y-129047419D01*
X136271884Y-129047419D02*
X136367122Y-129095038D01*
X136367122Y-129095038D02*
X136414741Y-129142657D01*
X136414741Y-129142657D02*
X136462360Y-129237895D01*
X136462360Y-129237895D02*
X136462360Y-129333133D01*
X136462360Y-129333133D02*
X136414741Y-129428371D01*
X136414741Y-129428371D02*
X136367122Y-129475990D01*
X136367122Y-129475990D02*
X136271884Y-129523609D01*
X136271884Y-129523609D02*
X135938551Y-129523609D01*
X137081408Y-130047419D02*
X136986170Y-129999800D01*
X136986170Y-129999800D02*
X136938551Y-129952180D01*
X136938551Y-129952180D02*
X136890932Y-129856942D01*
X136890932Y-129856942D02*
X136890932Y-129571228D01*
X136890932Y-129571228D02*
X136938551Y-129475990D01*
X136938551Y-129475990D02*
X136986170Y-129428371D01*
X136986170Y-129428371D02*
X137081408Y-129380752D01*
X137081408Y-129380752D02*
X137224265Y-129380752D01*
X137224265Y-129380752D02*
X137319503Y-129428371D01*
X137319503Y-129428371D02*
X137367122Y-129475990D01*
X137367122Y-129475990D02*
X137414741Y-129571228D01*
X137414741Y-129571228D02*
X137414741Y-129856942D01*
X137414741Y-129856942D02*
X137367122Y-129952180D01*
X137367122Y-129952180D02*
X137319503Y-129999800D01*
X137319503Y-129999800D02*
X137224265Y-130047419D01*
X137224265Y-130047419D02*
X137081408Y-130047419D01*
X138271884Y-130047419D02*
X138271884Y-129523609D01*
X138271884Y-129523609D02*
X138224265Y-129428371D01*
X138224265Y-129428371D02*
X138129027Y-129380752D01*
X138129027Y-129380752D02*
X137938551Y-129380752D01*
X137938551Y-129380752D02*
X137843313Y-129428371D01*
X138271884Y-129999800D02*
X138176646Y-130047419D01*
X138176646Y-130047419D02*
X137938551Y-130047419D01*
X137938551Y-130047419D02*
X137843313Y-129999800D01*
X137843313Y-129999800D02*
X137795694Y-129904561D01*
X137795694Y-129904561D02*
X137795694Y-129809323D01*
X137795694Y-129809323D02*
X137843313Y-129714085D01*
X137843313Y-129714085D02*
X137938551Y-129666466D01*
X137938551Y-129666466D02*
X138176646Y-129666466D01*
X138176646Y-129666466D02*
X138271884Y-129618847D01*
X138748075Y-130047419D02*
X138748075Y-129380752D01*
X138748075Y-129571228D02*
X138795694Y-129475990D01*
X138795694Y-129475990D02*
X138843313Y-129428371D01*
X138843313Y-129428371D02*
X138938551Y-129380752D01*
X138938551Y-129380752D02*
X139033789Y-129380752D01*
X139795694Y-130047419D02*
X139795694Y-129047419D01*
X139795694Y-129999800D02*
X139700456Y-130047419D01*
X139700456Y-130047419D02*
X139509980Y-130047419D01*
X139509980Y-130047419D02*
X139414742Y-129999800D01*
X139414742Y-129999800D02*
X139367123Y-129952180D01*
X139367123Y-129952180D02*
X139319504Y-129856942D01*
X139319504Y-129856942D02*
X139319504Y-129571228D01*
X139319504Y-129571228D02*
X139367123Y-129475990D01*
X139367123Y-129475990D02*
X139414742Y-129428371D01*
X139414742Y-129428371D02*
X139509980Y-129380752D01*
X139509980Y-129380752D02*
X139700456Y-129380752D01*
X139700456Y-129380752D02*
X139795694Y-129428371D01*
X140176647Y-129380752D02*
X140414742Y-130047419D01*
X140414742Y-130047419D02*
X140652837Y-129380752D01*
X141557599Y-130047419D02*
X140986171Y-130047419D01*
X141271885Y-130047419D02*
X141271885Y-129047419D01*
X141271885Y-129047419D02*
X141176647Y-129190276D01*
X141176647Y-129190276D02*
X141081409Y-129285514D01*
X141081409Y-129285514D02*
X140986171Y-129333133D01*
X141986171Y-129952180D02*
X142033790Y-129999800D01*
X142033790Y-129999800D02*
X141986171Y-130047419D01*
X141986171Y-130047419D02*
X141938552Y-129999800D01*
X141938552Y-129999800D02*
X141986171Y-129952180D01*
X141986171Y-129952180D02*
X141986171Y-130047419D01*
X142652837Y-129047419D02*
X142748075Y-129047419D01*
X142748075Y-129047419D02*
X142843313Y-129095038D01*
X142843313Y-129095038D02*
X142890932Y-129142657D01*
X142890932Y-129142657D02*
X142938551Y-129237895D01*
X142938551Y-129237895D02*
X142986170Y-129428371D01*
X142986170Y-129428371D02*
X142986170Y-129666466D01*
X142986170Y-129666466D02*
X142938551Y-129856942D01*
X142938551Y-129856942D02*
X142890932Y-129952180D01*
X142890932Y-129952180D02*
X142843313Y-129999800D01*
X142843313Y-129999800D02*
X142748075Y-130047419D01*
X142748075Y-130047419D02*
X142652837Y-130047419D01*
X142652837Y-130047419D02*
X142557599Y-129999800D01*
X142557599Y-129999800D02*
X142509980Y-129952180D01*
X142509980Y-129952180D02*
X142462361Y-129856942D01*
X142462361Y-129856942D02*
X142414742Y-129666466D01*
X142414742Y-129666466D02*
X142414742Y-129428371D01*
X142414742Y-129428371D02*
X142462361Y-129237895D01*
X142462361Y-129237895D02*
X142509980Y-129142657D01*
X142509980Y-129142657D02*
X142557599Y-129095038D01*
X142557599Y-129095038D02*
X142652837Y-129047419D01*
X143462361Y-129999800D02*
X143462361Y-130047419D01*
X143462361Y-130047419D02*
X143414742Y-130142657D01*
X143414742Y-130142657D02*
X143367123Y-130190276D01*
X144414741Y-130047419D02*
X143843313Y-130047419D01*
X144129027Y-130047419D02*
X144129027Y-129047419D01*
X144129027Y-129047419D02*
X144033789Y-129190276D01*
X144033789Y-129190276D02*
X143938551Y-129285514D01*
X143938551Y-129285514D02*
X143843313Y-129333133D01*
X145033789Y-129047419D02*
X145129027Y-129047419D01*
X145129027Y-129047419D02*
X145224265Y-129095038D01*
X145224265Y-129095038D02*
X145271884Y-129142657D01*
X145271884Y-129142657D02*
X145319503Y-129237895D01*
X145319503Y-129237895D02*
X145367122Y-129428371D01*
X145367122Y-129428371D02*
X145367122Y-129666466D01*
X145367122Y-129666466D02*
X145319503Y-129856942D01*
X145319503Y-129856942D02*
X145271884Y-129952180D01*
X145271884Y-129952180D02*
X145224265Y-129999800D01*
X145224265Y-129999800D02*
X145129027Y-130047419D01*
X145129027Y-130047419D02*
X145033789Y-130047419D01*
X145033789Y-130047419D02*
X144938551Y-129999800D01*
X144938551Y-129999800D02*
X144890932Y-129952180D01*
X144890932Y-129952180D02*
X144843313Y-129856942D01*
X144843313Y-129856942D02*
X144795694Y-129666466D01*
X144795694Y-129666466D02*
X144795694Y-129428371D01*
X144795694Y-129428371D02*
X144843313Y-129237895D01*
X144843313Y-129237895D02*
X144890932Y-129142657D01*
X144890932Y-129142657D02*
X144938551Y-129095038D01*
X144938551Y-129095038D02*
X145033789Y-129047419D01*
X145795694Y-129666466D02*
X146557599Y-129666466D01*
X146986170Y-129142657D02*
X147033789Y-129095038D01*
X147033789Y-129095038D02*
X147129027Y-129047419D01*
X147129027Y-129047419D02*
X147367122Y-129047419D01*
X147367122Y-129047419D02*
X147462360Y-129095038D01*
X147462360Y-129095038D02*
X147509979Y-129142657D01*
X147509979Y-129142657D02*
X147557598Y-129237895D01*
X147557598Y-129237895D02*
X147557598Y-129333133D01*
X147557598Y-129333133D02*
X147509979Y-129475990D01*
X147509979Y-129475990D02*
X146938551Y-130047419D01*
X146938551Y-130047419D02*
X147557598Y-130047419D01*
X147938551Y-129142657D02*
X147986170Y-129095038D01*
X147986170Y-129095038D02*
X148081408Y-129047419D01*
X148081408Y-129047419D02*
X148319503Y-129047419D01*
X148319503Y-129047419D02*
X148414741Y-129095038D01*
X148414741Y-129095038D02*
X148462360Y-129142657D01*
X148462360Y-129142657D02*
X148509979Y-129237895D01*
X148509979Y-129237895D02*
X148509979Y-129333133D01*
X148509979Y-129333133D02*
X148462360Y-129475990D01*
X148462360Y-129475990D02*
X147890932Y-130047419D01*
X147890932Y-130047419D02*
X148509979Y-130047419D01*
X148938551Y-129666466D02*
X149700456Y-129666466D01*
X150129027Y-129142657D02*
X150176646Y-129095038D01*
X150176646Y-129095038D02*
X150271884Y-129047419D01*
X150271884Y-129047419D02*
X150509979Y-129047419D01*
X150509979Y-129047419D02*
X150605217Y-129095038D01*
X150605217Y-129095038D02*
X150652836Y-129142657D01*
X150652836Y-129142657D02*
X150700455Y-129237895D01*
X150700455Y-129237895D02*
X150700455Y-129333133D01*
X150700455Y-129333133D02*
X150652836Y-129475990D01*
X150652836Y-129475990D02*
X150081408Y-130047419D01*
X150081408Y-130047419D02*
X150700455Y-130047419D01*
X151319503Y-129047419D02*
X151414741Y-129047419D01*
X151414741Y-129047419D02*
X151509979Y-129095038D01*
X151509979Y-129095038D02*
X151557598Y-129142657D01*
X151557598Y-129142657D02*
X151605217Y-129237895D01*
X151605217Y-129237895D02*
X151652836Y-129428371D01*
X151652836Y-129428371D02*
X151652836Y-129666466D01*
X151652836Y-129666466D02*
X151605217Y-129856942D01*
X151605217Y-129856942D02*
X151557598Y-129952180D01*
X151557598Y-129952180D02*
X151509979Y-129999800D01*
X151509979Y-129999800D02*
X151414741Y-130047419D01*
X151414741Y-130047419D02*
X151319503Y-130047419D01*
X151319503Y-130047419D02*
X151224265Y-129999800D01*
X151224265Y-129999800D02*
X151176646Y-129952180D01*
X151176646Y-129952180D02*
X151129027Y-129856942D01*
X151129027Y-129856942D02*
X151081408Y-129666466D01*
X151081408Y-129666466D02*
X151081408Y-129428371D01*
X151081408Y-129428371D02*
X151129027Y-129237895D01*
X151129027Y-129237895D02*
X151176646Y-129142657D01*
X151176646Y-129142657D02*
X151224265Y-129095038D01*
X151224265Y-129095038D02*
X151319503Y-129047419D01*
X152033789Y-129142657D02*
X152081408Y-129095038D01*
X152081408Y-129095038D02*
X152176646Y-129047419D01*
X152176646Y-129047419D02*
X152414741Y-129047419D01*
X152414741Y-129047419D02*
X152509979Y-129095038D01*
X152509979Y-129095038D02*
X152557598Y-129142657D01*
X152557598Y-129142657D02*
X152605217Y-129237895D01*
X152605217Y-129237895D02*
X152605217Y-129333133D01*
X152605217Y-129333133D02*
X152557598Y-129475990D01*
X152557598Y-129475990D02*
X151986170Y-130047419D01*
X151986170Y-130047419D02*
X152605217Y-130047419D01*
X153462360Y-129380752D02*
X153462360Y-130047419D01*
X153224265Y-128999800D02*
X152986170Y-129714085D01*
X152986170Y-129714085D02*
X153605217Y-129714085D01*
D11*
X96310333Y-102946580D02*
X96262714Y-102994200D01*
X96262714Y-102994200D02*
X96119857Y-103041819D01*
X96119857Y-103041819D02*
X96024619Y-103041819D01*
X96024619Y-103041819D02*
X95881762Y-102994200D01*
X95881762Y-102994200D02*
X95786524Y-102898961D01*
X95786524Y-102898961D02*
X95738905Y-102803723D01*
X95738905Y-102803723D02*
X95691286Y-102613247D01*
X95691286Y-102613247D02*
X95691286Y-102470390D01*
X95691286Y-102470390D02*
X95738905Y-102279914D01*
X95738905Y-102279914D02*
X95786524Y-102184676D01*
X95786524Y-102184676D02*
X95881762Y-102089438D01*
X95881762Y-102089438D02*
X96024619Y-102041819D01*
X96024619Y-102041819D02*
X96119857Y-102041819D01*
X96119857Y-102041819D02*
X96262714Y-102089438D01*
X96262714Y-102089438D02*
X96310333Y-102137057D01*
X97215095Y-102041819D02*
X96738905Y-102041819D01*
X96738905Y-102041819D02*
X96691286Y-102518009D01*
X96691286Y-102518009D02*
X96738905Y-102470390D01*
X96738905Y-102470390D02*
X96834143Y-102422771D01*
X96834143Y-102422771D02*
X97072238Y-102422771D01*
X97072238Y-102422771D02*
X97167476Y-102470390D01*
X97167476Y-102470390D02*
X97215095Y-102518009D01*
X97215095Y-102518009D02*
X97262714Y-102613247D01*
X97262714Y-102613247D02*
X97262714Y-102851342D01*
X97262714Y-102851342D02*
X97215095Y-102946580D01*
X97215095Y-102946580D02*
X97167476Y-102994200D01*
X97167476Y-102994200D02*
X97072238Y-103041819D01*
X97072238Y-103041819D02*
X96834143Y-103041819D01*
X96834143Y-103041819D02*
X96738905Y-102994200D01*
X96738905Y-102994200D02*
X96691286Y-102946580D01*
X162981666Y-112081819D02*
X162981666Y-112796104D01*
X162981666Y-112796104D02*
X162934047Y-112938961D01*
X162934047Y-112938961D02*
X162838809Y-113034200D01*
X162838809Y-113034200D02*
X162695952Y-113081819D01*
X162695952Y-113081819D02*
X162600714Y-113081819D01*
X163457857Y-113081819D02*
X163457857Y-112081819D01*
X163457857Y-112081819D02*
X163838809Y-112081819D01*
X163838809Y-112081819D02*
X163934047Y-112129438D01*
X163934047Y-112129438D02*
X163981666Y-112177057D01*
X163981666Y-112177057D02*
X164029285Y-112272295D01*
X164029285Y-112272295D02*
X164029285Y-112415152D01*
X164029285Y-112415152D02*
X163981666Y-112510390D01*
X163981666Y-112510390D02*
X163934047Y-112558009D01*
X163934047Y-112558009D02*
X163838809Y-112605628D01*
X163838809Y-112605628D02*
X163457857Y-112605628D01*
X164410238Y-112177057D02*
X164457857Y-112129438D01*
X164457857Y-112129438D02*
X164553095Y-112081819D01*
X164553095Y-112081819D02*
X164791190Y-112081819D01*
X164791190Y-112081819D02*
X164886428Y-112129438D01*
X164886428Y-112129438D02*
X164934047Y-112177057D01*
X164934047Y-112177057D02*
X164981666Y-112272295D01*
X164981666Y-112272295D02*
X164981666Y-112367533D01*
X164981666Y-112367533D02*
X164934047Y-112510390D01*
X164934047Y-112510390D02*
X164362619Y-113081819D01*
X164362619Y-113081819D02*
X164981666Y-113081819D01*
X96310333Y-110439580D02*
X96262714Y-110487200D01*
X96262714Y-110487200D02*
X96119857Y-110534819D01*
X96119857Y-110534819D02*
X96024619Y-110534819D01*
X96024619Y-110534819D02*
X95881762Y-110487200D01*
X95881762Y-110487200D02*
X95786524Y-110391961D01*
X95786524Y-110391961D02*
X95738905Y-110296723D01*
X95738905Y-110296723D02*
X95691286Y-110106247D01*
X95691286Y-110106247D02*
X95691286Y-109963390D01*
X95691286Y-109963390D02*
X95738905Y-109772914D01*
X95738905Y-109772914D02*
X95786524Y-109677676D01*
X95786524Y-109677676D02*
X95881762Y-109582438D01*
X95881762Y-109582438D02*
X96024619Y-109534819D01*
X96024619Y-109534819D02*
X96119857Y-109534819D01*
X96119857Y-109534819D02*
X96262714Y-109582438D01*
X96262714Y-109582438D02*
X96310333Y-109630057D01*
X97167476Y-109534819D02*
X96977000Y-109534819D01*
X96977000Y-109534819D02*
X96881762Y-109582438D01*
X96881762Y-109582438D02*
X96834143Y-109630057D01*
X96834143Y-109630057D02*
X96738905Y-109772914D01*
X96738905Y-109772914D02*
X96691286Y-109963390D01*
X96691286Y-109963390D02*
X96691286Y-110344342D01*
X96691286Y-110344342D02*
X96738905Y-110439580D01*
X96738905Y-110439580D02*
X96786524Y-110487200D01*
X96786524Y-110487200D02*
X96881762Y-110534819D01*
X96881762Y-110534819D02*
X97072238Y-110534819D01*
X97072238Y-110534819D02*
X97167476Y-110487200D01*
X97167476Y-110487200D02*
X97215095Y-110439580D01*
X97215095Y-110439580D02*
X97262714Y-110344342D01*
X97262714Y-110344342D02*
X97262714Y-110106247D01*
X97262714Y-110106247D02*
X97215095Y-110011009D01*
X97215095Y-110011009D02*
X97167476Y-109963390D01*
X97167476Y-109963390D02*
X97072238Y-109915771D01*
X97072238Y-109915771D02*
X96881762Y-109915771D01*
X96881762Y-109915771D02*
X96786524Y-109963390D01*
X96786524Y-109963390D02*
X96738905Y-110011009D01*
X96738905Y-110011009D02*
X96691286Y-110106247D01*
X96331833Y-116916580D02*
X96284214Y-116964200D01*
X96284214Y-116964200D02*
X96141357Y-117011819D01*
X96141357Y-117011819D02*
X96046119Y-117011819D01*
X96046119Y-117011819D02*
X95903262Y-116964200D01*
X95903262Y-116964200D02*
X95808024Y-116868961D01*
X95808024Y-116868961D02*
X95760405Y-116773723D01*
X95760405Y-116773723D02*
X95712786Y-116583247D01*
X95712786Y-116583247D02*
X95712786Y-116440390D01*
X95712786Y-116440390D02*
X95760405Y-116249914D01*
X95760405Y-116249914D02*
X95808024Y-116154676D01*
X95808024Y-116154676D02*
X95903262Y-116059438D01*
X95903262Y-116059438D02*
X96046119Y-116011819D01*
X96046119Y-116011819D02*
X96141357Y-116011819D01*
X96141357Y-116011819D02*
X96284214Y-116059438D01*
X96284214Y-116059438D02*
X96331833Y-116107057D01*
X96665167Y-116011819D02*
X97331833Y-116011819D01*
X97331833Y-116011819D02*
X96903262Y-117011819D01*
X96437333Y-95072580D02*
X96389714Y-95120200D01*
X96389714Y-95120200D02*
X96246857Y-95167819D01*
X96246857Y-95167819D02*
X96151619Y-95167819D01*
X96151619Y-95167819D02*
X96008762Y-95120200D01*
X96008762Y-95120200D02*
X95913524Y-95024961D01*
X95913524Y-95024961D02*
X95865905Y-94929723D01*
X95865905Y-94929723D02*
X95818286Y-94739247D01*
X95818286Y-94739247D02*
X95818286Y-94596390D01*
X95818286Y-94596390D02*
X95865905Y-94405914D01*
X95865905Y-94405914D02*
X95913524Y-94310676D01*
X95913524Y-94310676D02*
X96008762Y-94215438D01*
X96008762Y-94215438D02*
X96151619Y-94167819D01*
X96151619Y-94167819D02*
X96246857Y-94167819D01*
X96246857Y-94167819D02*
X96389714Y-94215438D01*
X96389714Y-94215438D02*
X96437333Y-94263057D01*
X97294476Y-94501152D02*
X97294476Y-95167819D01*
X97056381Y-94120200D02*
X96818286Y-94834485D01*
X96818286Y-94834485D02*
X97437333Y-94834485D01*
X153011333Y-79322819D02*
X152678000Y-78846628D01*
X152439905Y-79322819D02*
X152439905Y-78322819D01*
X152439905Y-78322819D02*
X152820857Y-78322819D01*
X152820857Y-78322819D02*
X152916095Y-78370438D01*
X152916095Y-78370438D02*
X152963714Y-78418057D01*
X152963714Y-78418057D02*
X153011333Y-78513295D01*
X153011333Y-78513295D02*
X153011333Y-78656152D01*
X153011333Y-78656152D02*
X152963714Y-78751390D01*
X152963714Y-78751390D02*
X152916095Y-78799009D01*
X152916095Y-78799009D02*
X152820857Y-78846628D01*
X152820857Y-78846628D02*
X152439905Y-78846628D01*
X153392286Y-78418057D02*
X153439905Y-78370438D01*
X153439905Y-78370438D02*
X153535143Y-78322819D01*
X153535143Y-78322819D02*
X153773238Y-78322819D01*
X153773238Y-78322819D02*
X153868476Y-78370438D01*
X153868476Y-78370438D02*
X153916095Y-78418057D01*
X153916095Y-78418057D02*
X153963714Y-78513295D01*
X153963714Y-78513295D02*
X153963714Y-78608533D01*
X153963714Y-78608533D02*
X153916095Y-78751390D01*
X153916095Y-78751390D02*
X153344667Y-79322819D01*
X153344667Y-79322819D02*
X153963714Y-79322819D01*
X181483095Y-123508819D02*
X181483095Y-122508819D01*
X181483095Y-122985009D02*
X182054523Y-122985009D01*
X182054523Y-123508819D02*
X182054523Y-122508819D01*
X182959285Y-122842152D02*
X182959285Y-123508819D01*
X182721190Y-122461200D02*
X182483095Y-123175485D01*
X182483095Y-123175485D02*
X183102142Y-123175485D01*
X146408816Y-56567819D02*
X146408816Y-57282104D01*
X146408816Y-57282104D02*
X146361197Y-57424961D01*
X146361197Y-57424961D02*
X146265959Y-57520200D01*
X146265959Y-57520200D02*
X146123102Y-57567819D01*
X146123102Y-57567819D02*
X146027864Y-57567819D01*
X147313578Y-56567819D02*
X147123102Y-56567819D01*
X147123102Y-56567819D02*
X147027864Y-56615438D01*
X147027864Y-56615438D02*
X146980245Y-56663057D01*
X146980245Y-56663057D02*
X146885007Y-56805914D01*
X146885007Y-56805914D02*
X146837388Y-56996390D01*
X146837388Y-56996390D02*
X146837388Y-57377342D01*
X146837388Y-57377342D02*
X146885007Y-57472580D01*
X146885007Y-57472580D02*
X146932626Y-57520200D01*
X146932626Y-57520200D02*
X147027864Y-57567819D01*
X147027864Y-57567819D02*
X147218340Y-57567819D01*
X147218340Y-57567819D02*
X147313578Y-57520200D01*
X147313578Y-57520200D02*
X147361197Y-57472580D01*
X147361197Y-57472580D02*
X147408816Y-57377342D01*
X147408816Y-57377342D02*
X147408816Y-57139247D01*
X147408816Y-57139247D02*
X147361197Y-57044009D01*
X147361197Y-57044009D02*
X147313578Y-56996390D01*
X147313578Y-56996390D02*
X147218340Y-56948771D01*
X147218340Y-56948771D02*
X147027864Y-56948771D01*
X147027864Y-56948771D02*
X146932626Y-56996390D01*
X146932626Y-56996390D02*
X146885007Y-57044009D01*
X146885007Y-57044009D02*
X146837388Y-57139247D01*
X111133095Y-91921819D02*
X111704523Y-91921819D01*
X111418809Y-92921819D02*
X111418809Y-91921819D01*
X112037857Y-92921819D02*
X112037857Y-91921819D01*
X112037857Y-91921819D02*
X112418809Y-91921819D01*
X112418809Y-91921819D02*
X112514047Y-91969438D01*
X112514047Y-91969438D02*
X112561666Y-92017057D01*
X112561666Y-92017057D02*
X112609285Y-92112295D01*
X112609285Y-92112295D02*
X112609285Y-92255152D01*
X112609285Y-92255152D02*
X112561666Y-92350390D01*
X112561666Y-92350390D02*
X112514047Y-92398009D01*
X112514047Y-92398009D02*
X112418809Y-92445628D01*
X112418809Y-92445628D02*
X112037857Y-92445628D01*
X113466428Y-92255152D02*
X113466428Y-92921819D01*
X113228333Y-91874200D02*
X112990238Y-92588485D01*
X112990238Y-92588485D02*
X113609285Y-92588485D01*
X96437333Y-75514580D02*
X96389714Y-75562200D01*
X96389714Y-75562200D02*
X96246857Y-75609819D01*
X96246857Y-75609819D02*
X96151619Y-75609819D01*
X96151619Y-75609819D02*
X96008762Y-75562200D01*
X96008762Y-75562200D02*
X95913524Y-75466961D01*
X95913524Y-75466961D02*
X95865905Y-75371723D01*
X95865905Y-75371723D02*
X95818286Y-75181247D01*
X95818286Y-75181247D02*
X95818286Y-75038390D01*
X95818286Y-75038390D02*
X95865905Y-74847914D01*
X95865905Y-74847914D02*
X95913524Y-74752676D01*
X95913524Y-74752676D02*
X96008762Y-74657438D01*
X96008762Y-74657438D02*
X96151619Y-74609819D01*
X96151619Y-74609819D02*
X96246857Y-74609819D01*
X96246857Y-74609819D02*
X96389714Y-74657438D01*
X96389714Y-74657438D02*
X96437333Y-74705057D01*
X97389714Y-75609819D02*
X96818286Y-75609819D01*
X97104000Y-75609819D02*
X97104000Y-74609819D01*
X97104000Y-74609819D02*
X97008762Y-74752676D01*
X97008762Y-74752676D02*
X96913524Y-74847914D01*
X96913524Y-74847914D02*
X96818286Y-74895533D01*
X177842571Y-112461819D02*
X177842571Y-113271342D01*
X177842571Y-113271342D02*
X177890190Y-113366580D01*
X177890190Y-113366580D02*
X177937809Y-113414200D01*
X177937809Y-113414200D02*
X178033047Y-113461819D01*
X178033047Y-113461819D02*
X178223523Y-113461819D01*
X178223523Y-113461819D02*
X178318761Y-113414200D01*
X178318761Y-113414200D02*
X178366380Y-113366580D01*
X178366380Y-113366580D02*
X178413999Y-113271342D01*
X178413999Y-113271342D02*
X178413999Y-112461819D01*
X178842571Y-112557057D02*
X178890190Y-112509438D01*
X178890190Y-112509438D02*
X178985428Y-112461819D01*
X178985428Y-112461819D02*
X179223523Y-112461819D01*
X179223523Y-112461819D02*
X179318761Y-112509438D01*
X179318761Y-112509438D02*
X179366380Y-112557057D01*
X179366380Y-112557057D02*
X179413999Y-112652295D01*
X179413999Y-112652295D02*
X179413999Y-112747533D01*
X179413999Y-112747533D02*
X179366380Y-112890390D01*
X179366380Y-112890390D02*
X178794952Y-113461819D01*
X178794952Y-113461819D02*
X179413999Y-113461819D01*
X133604095Y-115532819D02*
X133604095Y-116342342D01*
X133604095Y-116342342D02*
X133651714Y-116437580D01*
X133651714Y-116437580D02*
X133699333Y-116485200D01*
X133699333Y-116485200D02*
X133794571Y-116532819D01*
X133794571Y-116532819D02*
X133985047Y-116532819D01*
X133985047Y-116532819D02*
X134080285Y-116485200D01*
X134080285Y-116485200D02*
X134127904Y-116437580D01*
X134127904Y-116437580D02*
X134175523Y-116342342D01*
X134175523Y-116342342D02*
X134175523Y-115532819D01*
X135175523Y-116532819D02*
X134604095Y-116532819D01*
X134889809Y-116532819D02*
X134889809Y-115532819D01*
X134889809Y-115532819D02*
X134794571Y-115675676D01*
X134794571Y-115675676D02*
X134699333Y-115770914D01*
X134699333Y-115770914D02*
X134604095Y-115818533D01*
X129897714Y-116278819D02*
X129897714Y-115278819D01*
X129897714Y-115278819D02*
X130135809Y-115278819D01*
X130135809Y-115278819D02*
X130278666Y-115326438D01*
X130278666Y-115326438D02*
X130373904Y-115421676D01*
X130373904Y-115421676D02*
X130421523Y-115516914D01*
X130421523Y-115516914D02*
X130469142Y-115707390D01*
X130469142Y-115707390D02*
X130469142Y-115850247D01*
X130469142Y-115850247D02*
X130421523Y-116040723D01*
X130421523Y-116040723D02*
X130373904Y-116135961D01*
X130373904Y-116135961D02*
X130278666Y-116231200D01*
X130278666Y-116231200D02*
X130135809Y-116278819D01*
X130135809Y-116278819D02*
X129897714Y-116278819D01*
X131278666Y-116231200D02*
X131183428Y-116278819D01*
X131183428Y-116278819D02*
X130992952Y-116278819D01*
X130992952Y-116278819D02*
X130897714Y-116231200D01*
X130897714Y-116231200D02*
X130850095Y-116135961D01*
X130850095Y-116135961D02*
X130850095Y-115755009D01*
X130850095Y-115755009D02*
X130897714Y-115659771D01*
X130897714Y-115659771D02*
X130992952Y-115612152D01*
X130992952Y-115612152D02*
X131183428Y-115612152D01*
X131183428Y-115612152D02*
X131278666Y-115659771D01*
X131278666Y-115659771D02*
X131326285Y-115755009D01*
X131326285Y-115755009D02*
X131326285Y-115850247D01*
X131326285Y-115850247D02*
X130850095Y-115945485D01*
X131707238Y-116231200D02*
X131802476Y-116278819D01*
X131802476Y-116278819D02*
X131992952Y-116278819D01*
X131992952Y-116278819D02*
X132088190Y-116231200D01*
X132088190Y-116231200D02*
X132135809Y-116135961D01*
X132135809Y-116135961D02*
X132135809Y-116088342D01*
X132135809Y-116088342D02*
X132088190Y-115993104D01*
X132088190Y-115993104D02*
X131992952Y-115945485D01*
X131992952Y-115945485D02*
X131850095Y-115945485D01*
X131850095Y-115945485D02*
X131754857Y-115897866D01*
X131754857Y-115897866D02*
X131707238Y-115802628D01*
X131707238Y-115802628D02*
X131707238Y-115755009D01*
X131707238Y-115755009D02*
X131754857Y-115659771D01*
X131754857Y-115659771D02*
X131850095Y-115612152D01*
X131850095Y-115612152D02*
X131992952Y-115612152D01*
X131992952Y-115612152D02*
X132088190Y-115659771D01*
X132564381Y-116278819D02*
X132564381Y-115612152D01*
X132564381Y-115278819D02*
X132516762Y-115326438D01*
X132516762Y-115326438D02*
X132564381Y-115374057D01*
X132564381Y-115374057D02*
X132612000Y-115326438D01*
X132612000Y-115326438D02*
X132564381Y-115278819D01*
X132564381Y-115278819D02*
X132564381Y-115374057D01*
X133469142Y-115612152D02*
X133469142Y-116421676D01*
X133469142Y-116421676D02*
X133421523Y-116516914D01*
X133421523Y-116516914D02*
X133373904Y-116564533D01*
X133373904Y-116564533D02*
X133278666Y-116612152D01*
X133278666Y-116612152D02*
X133135809Y-116612152D01*
X133135809Y-116612152D02*
X133040571Y-116564533D01*
X133469142Y-116231200D02*
X133373904Y-116278819D01*
X133373904Y-116278819D02*
X133183428Y-116278819D01*
X133183428Y-116278819D02*
X133088190Y-116231200D01*
X133088190Y-116231200D02*
X133040571Y-116183580D01*
X133040571Y-116183580D02*
X132992952Y-116088342D01*
X132992952Y-116088342D02*
X132992952Y-115802628D01*
X132992952Y-115802628D02*
X133040571Y-115707390D01*
X133040571Y-115707390D02*
X133088190Y-115659771D01*
X133088190Y-115659771D02*
X133183428Y-115612152D01*
X133183428Y-115612152D02*
X133373904Y-115612152D01*
X133373904Y-115612152D02*
X133469142Y-115659771D01*
X133945333Y-115612152D02*
X133945333Y-116278819D01*
X133945333Y-115707390D02*
X133992952Y-115659771D01*
X133992952Y-115659771D02*
X134088190Y-115612152D01*
X134088190Y-115612152D02*
X134231047Y-115612152D01*
X134231047Y-115612152D02*
X134326285Y-115659771D01*
X134326285Y-115659771D02*
X134373904Y-115755009D01*
X134373904Y-115755009D02*
X134373904Y-116278819D01*
X135278666Y-116278819D02*
X135278666Y-115755009D01*
X135278666Y-115755009D02*
X135231047Y-115659771D01*
X135231047Y-115659771D02*
X135135809Y-115612152D01*
X135135809Y-115612152D02*
X134945333Y-115612152D01*
X134945333Y-115612152D02*
X134850095Y-115659771D01*
X135278666Y-116231200D02*
X135183428Y-116278819D01*
X135183428Y-116278819D02*
X134945333Y-116278819D01*
X134945333Y-116278819D02*
X134850095Y-116231200D01*
X134850095Y-116231200D02*
X134802476Y-116135961D01*
X134802476Y-116135961D02*
X134802476Y-116040723D01*
X134802476Y-116040723D02*
X134850095Y-115945485D01*
X134850095Y-115945485D02*
X134945333Y-115897866D01*
X134945333Y-115897866D02*
X135183428Y-115897866D01*
X135183428Y-115897866D02*
X135278666Y-115850247D01*
X135612000Y-115612152D02*
X135992952Y-115612152D01*
X135754857Y-115278819D02*
X135754857Y-116135961D01*
X135754857Y-116135961D02*
X135802476Y-116231200D01*
X135802476Y-116231200D02*
X135897714Y-116278819D01*
X135897714Y-116278819D02*
X135992952Y-116278819D01*
X136469143Y-116278819D02*
X136373905Y-116231200D01*
X136373905Y-116231200D02*
X136326286Y-116183580D01*
X136326286Y-116183580D02*
X136278667Y-116088342D01*
X136278667Y-116088342D02*
X136278667Y-115802628D01*
X136278667Y-115802628D02*
X136326286Y-115707390D01*
X136326286Y-115707390D02*
X136373905Y-115659771D01*
X136373905Y-115659771D02*
X136469143Y-115612152D01*
X136469143Y-115612152D02*
X136612000Y-115612152D01*
X136612000Y-115612152D02*
X136707238Y-115659771D01*
X136707238Y-115659771D02*
X136754857Y-115707390D01*
X136754857Y-115707390D02*
X136802476Y-115802628D01*
X136802476Y-115802628D02*
X136802476Y-116088342D01*
X136802476Y-116088342D02*
X136754857Y-116183580D01*
X136754857Y-116183580D02*
X136707238Y-116231200D01*
X136707238Y-116231200D02*
X136612000Y-116278819D01*
X136612000Y-116278819D02*
X136469143Y-116278819D01*
X137231048Y-116278819D02*
X137231048Y-115612152D01*
X137231048Y-115802628D02*
X137278667Y-115707390D01*
X137278667Y-115707390D02*
X137326286Y-115659771D01*
X137326286Y-115659771D02*
X137421524Y-115612152D01*
X137421524Y-115612152D02*
X137516762Y-115612152D01*
X137754858Y-115278819D02*
X138421524Y-115278819D01*
X138421524Y-115278819D02*
X137992953Y-116278819D01*
X181610095Y-33338819D02*
X181610095Y-32338819D01*
X181610095Y-32815009D02*
X182181523Y-32815009D01*
X182181523Y-33338819D02*
X182181523Y-32338819D01*
X182610095Y-32434057D02*
X182657714Y-32386438D01*
X182657714Y-32386438D02*
X182752952Y-32338819D01*
X182752952Y-32338819D02*
X182991047Y-32338819D01*
X182991047Y-32338819D02*
X183086285Y-32386438D01*
X183086285Y-32386438D02*
X183133904Y-32434057D01*
X183133904Y-32434057D02*
X183181523Y-32529295D01*
X183181523Y-32529295D02*
X183181523Y-32624533D01*
X183181523Y-32624533D02*
X183133904Y-32767390D01*
X183133904Y-32767390D02*
X182562476Y-33338819D01*
X182562476Y-33338819D02*
X183181523Y-33338819D01*
X170411816Y-35104819D02*
X170411816Y-35819104D01*
X170411816Y-35819104D02*
X170364197Y-35961961D01*
X170364197Y-35961961D02*
X170268959Y-36057200D01*
X170268959Y-36057200D02*
X170126102Y-36104819D01*
X170126102Y-36104819D02*
X170030864Y-36104819D01*
X170792769Y-35104819D02*
X171459435Y-35104819D01*
X171459435Y-35104819D02*
X171030864Y-36104819D01*
X163265666Y-100524819D02*
X163265666Y-101239104D01*
X163265666Y-101239104D02*
X163218047Y-101381961D01*
X163218047Y-101381961D02*
X163122809Y-101477200D01*
X163122809Y-101477200D02*
X162979952Y-101524819D01*
X162979952Y-101524819D02*
X162884714Y-101524819D01*
X163741857Y-101524819D02*
X163741857Y-100524819D01*
X163741857Y-100524819D02*
X164122809Y-100524819D01*
X164122809Y-100524819D02*
X164218047Y-100572438D01*
X164218047Y-100572438D02*
X164265666Y-100620057D01*
X164265666Y-100620057D02*
X164313285Y-100715295D01*
X164313285Y-100715295D02*
X164313285Y-100858152D01*
X164313285Y-100858152D02*
X164265666Y-100953390D01*
X164265666Y-100953390D02*
X164218047Y-101001009D01*
X164218047Y-101001009D02*
X164122809Y-101048628D01*
X164122809Y-101048628D02*
X163741857Y-101048628D01*
X165265666Y-101524819D02*
X164694238Y-101524819D01*
X164979952Y-101524819D02*
X164979952Y-100524819D01*
X164979952Y-100524819D02*
X164884714Y-100667676D01*
X164884714Y-100667676D02*
X164789476Y-100762914D01*
X164789476Y-100762914D02*
X164694238Y-100810533D01*
X123421816Y-56313819D02*
X123421816Y-57028104D01*
X123421816Y-57028104D02*
X123374197Y-57170961D01*
X123374197Y-57170961D02*
X123278959Y-57266200D01*
X123278959Y-57266200D02*
X123136102Y-57313819D01*
X123136102Y-57313819D02*
X123040864Y-57313819D01*
X124326578Y-56647152D02*
X124326578Y-57313819D01*
X124088483Y-56266200D02*
X123850388Y-56980485D01*
X123850388Y-56980485D02*
X124469435Y-56980485D01*
X133895666Y-99809009D02*
X133562333Y-99809009D01*
X133562333Y-100332819D02*
X133562333Y-99332819D01*
X133562333Y-99332819D02*
X134038523Y-99332819D01*
X134943285Y-100332819D02*
X134371857Y-100332819D01*
X134657571Y-100332819D02*
X134657571Y-99332819D01*
X134657571Y-99332819D02*
X134562333Y-99475676D01*
X134562333Y-99475676D02*
X134467095Y-99570914D01*
X134467095Y-99570914D02*
X134371857Y-99618533D01*
X102974816Y-55805819D02*
X102974816Y-56520104D01*
X102974816Y-56520104D02*
X102927197Y-56662961D01*
X102927197Y-56662961D02*
X102831959Y-56758200D01*
X102831959Y-56758200D02*
X102689102Y-56805819D01*
X102689102Y-56805819D02*
X102593864Y-56805819D01*
X103403388Y-55901057D02*
X103451007Y-55853438D01*
X103451007Y-55853438D02*
X103546245Y-55805819D01*
X103546245Y-55805819D02*
X103784340Y-55805819D01*
X103784340Y-55805819D02*
X103879578Y-55853438D01*
X103879578Y-55853438D02*
X103927197Y-55901057D01*
X103927197Y-55901057D02*
X103974816Y-55996295D01*
X103974816Y-55996295D02*
X103974816Y-56091533D01*
X103974816Y-56091533D02*
X103927197Y-56234390D01*
X103927197Y-56234390D02*
X103355769Y-56805819D01*
X103355769Y-56805819D02*
X103974816Y-56805819D01*
X153265333Y-93165819D02*
X152932000Y-92689628D01*
X152693905Y-93165819D02*
X152693905Y-92165819D01*
X152693905Y-92165819D02*
X153074857Y-92165819D01*
X153074857Y-92165819D02*
X153170095Y-92213438D01*
X153170095Y-92213438D02*
X153217714Y-92261057D01*
X153217714Y-92261057D02*
X153265333Y-92356295D01*
X153265333Y-92356295D02*
X153265333Y-92499152D01*
X153265333Y-92499152D02*
X153217714Y-92594390D01*
X153217714Y-92594390D02*
X153170095Y-92642009D01*
X153170095Y-92642009D02*
X153074857Y-92689628D01*
X153074857Y-92689628D02*
X152693905Y-92689628D01*
X154170095Y-92165819D02*
X153693905Y-92165819D01*
X153693905Y-92165819D02*
X153646286Y-92642009D01*
X153646286Y-92642009D02*
X153693905Y-92594390D01*
X153693905Y-92594390D02*
X153789143Y-92546771D01*
X153789143Y-92546771D02*
X154027238Y-92546771D01*
X154027238Y-92546771D02*
X154122476Y-92594390D01*
X154122476Y-92594390D02*
X154170095Y-92642009D01*
X154170095Y-92642009D02*
X154217714Y-92737247D01*
X154217714Y-92737247D02*
X154217714Y-92975342D01*
X154217714Y-92975342D02*
X154170095Y-93070580D01*
X154170095Y-93070580D02*
X154122476Y-93118200D01*
X154122476Y-93118200D02*
X154027238Y-93165819D01*
X154027238Y-93165819D02*
X153789143Y-93165819D01*
X153789143Y-93165819D02*
X153693905Y-93118200D01*
X153693905Y-93118200D02*
X153646286Y-93070580D01*
X132601055Y-77113819D02*
X132601055Y-76113819D01*
X132601055Y-76113819D02*
X132839150Y-76113819D01*
X132839150Y-76113819D02*
X132982007Y-76161438D01*
X132982007Y-76161438D02*
X133077245Y-76256676D01*
X133077245Y-76256676D02*
X133124864Y-76351914D01*
X133124864Y-76351914D02*
X133172483Y-76542390D01*
X133172483Y-76542390D02*
X133172483Y-76685247D01*
X133172483Y-76685247D02*
X133124864Y-76875723D01*
X133124864Y-76875723D02*
X133077245Y-76970961D01*
X133077245Y-76970961D02*
X132982007Y-77066200D01*
X132982007Y-77066200D02*
X132839150Y-77113819D01*
X132839150Y-77113819D02*
X132601055Y-77113819D01*
X133553436Y-76209057D02*
X133601055Y-76161438D01*
X133601055Y-76161438D02*
X133696293Y-76113819D01*
X133696293Y-76113819D02*
X133934388Y-76113819D01*
X133934388Y-76113819D02*
X134029626Y-76161438D01*
X134029626Y-76161438D02*
X134077245Y-76209057D01*
X134077245Y-76209057D02*
X134124864Y-76304295D01*
X134124864Y-76304295D02*
X134124864Y-76399533D01*
X134124864Y-76399533D02*
X134077245Y-76542390D01*
X134077245Y-76542390D02*
X133505817Y-77113819D01*
X133505817Y-77113819D02*
X134124864Y-77113819D01*
X146657816Y-35663819D02*
X146657816Y-36378104D01*
X146657816Y-36378104D02*
X146610197Y-36520961D01*
X146610197Y-36520961D02*
X146514959Y-36616200D01*
X146514959Y-36616200D02*
X146372102Y-36663819D01*
X146372102Y-36663819D02*
X146276864Y-36663819D01*
X147610197Y-35663819D02*
X147134007Y-35663819D01*
X147134007Y-35663819D02*
X147086388Y-36140009D01*
X147086388Y-36140009D02*
X147134007Y-36092390D01*
X147134007Y-36092390D02*
X147229245Y-36044771D01*
X147229245Y-36044771D02*
X147467340Y-36044771D01*
X147467340Y-36044771D02*
X147562578Y-36092390D01*
X147562578Y-36092390D02*
X147610197Y-36140009D01*
X147610197Y-36140009D02*
X147657816Y-36235247D01*
X147657816Y-36235247D02*
X147657816Y-36473342D01*
X147657816Y-36473342D02*
X147610197Y-36568580D01*
X147610197Y-36568580D02*
X147562578Y-36616200D01*
X147562578Y-36616200D02*
X147467340Y-36663819D01*
X147467340Y-36663819D02*
X147229245Y-36663819D01*
X147229245Y-36663819D02*
X147134007Y-36616200D01*
X147134007Y-36616200D02*
X147086388Y-36568580D01*
X153011333Y-74623819D02*
X152678000Y-74147628D01*
X152439905Y-74623819D02*
X152439905Y-73623819D01*
X152439905Y-73623819D02*
X152820857Y-73623819D01*
X152820857Y-73623819D02*
X152916095Y-73671438D01*
X152916095Y-73671438D02*
X152963714Y-73719057D01*
X152963714Y-73719057D02*
X153011333Y-73814295D01*
X153011333Y-73814295D02*
X153011333Y-73957152D01*
X153011333Y-73957152D02*
X152963714Y-74052390D01*
X152963714Y-74052390D02*
X152916095Y-74100009D01*
X152916095Y-74100009D02*
X152820857Y-74147628D01*
X152820857Y-74147628D02*
X152439905Y-74147628D01*
X153963714Y-74623819D02*
X153392286Y-74623819D01*
X153678000Y-74623819D02*
X153678000Y-73623819D01*
X153678000Y-73623819D02*
X153582762Y-73766676D01*
X153582762Y-73766676D02*
X153487524Y-73861914D01*
X153487524Y-73861914D02*
X153392286Y-73909533D01*
X171424611Y-84624057D02*
X171329373Y-84576438D01*
X171329373Y-84576438D02*
X171234135Y-84481200D01*
X171234135Y-84481200D02*
X171091278Y-84338342D01*
X171091278Y-84338342D02*
X170996040Y-84290723D01*
X170996040Y-84290723D02*
X170900802Y-84290723D01*
X170948421Y-84528819D02*
X170853183Y-84481200D01*
X170853183Y-84481200D02*
X170757945Y-84385961D01*
X170757945Y-84385961D02*
X170710326Y-84195485D01*
X170710326Y-84195485D02*
X170710326Y-83862152D01*
X170710326Y-83862152D02*
X170757945Y-83671676D01*
X170757945Y-83671676D02*
X170853183Y-83576438D01*
X170853183Y-83576438D02*
X170948421Y-83528819D01*
X170948421Y-83528819D02*
X171138897Y-83528819D01*
X171138897Y-83528819D02*
X171234135Y-83576438D01*
X171234135Y-83576438D02*
X171329373Y-83671676D01*
X171329373Y-83671676D02*
X171376992Y-83862152D01*
X171376992Y-83862152D02*
X171376992Y-84195485D01*
X171376992Y-84195485D02*
X171329373Y-84385961D01*
X171329373Y-84385961D02*
X171234135Y-84481200D01*
X171234135Y-84481200D02*
X171138897Y-84528819D01*
X171138897Y-84528819D02*
X170948421Y-84528819D01*
X172329373Y-84528819D02*
X171757945Y-84528819D01*
X172043659Y-84528819D02*
X172043659Y-83528819D01*
X172043659Y-83528819D02*
X171948421Y-83671676D01*
X171948421Y-83671676D02*
X171853183Y-83766914D01*
X171853183Y-83766914D02*
X171757945Y-83814533D01*
X168541700Y-79922019D02*
X168541700Y-80160114D01*
X168303605Y-80064876D02*
X168541700Y-80160114D01*
X168541700Y-80160114D02*
X168779795Y-80064876D01*
X168398843Y-80350590D02*
X168541700Y-80160114D01*
X168541700Y-80160114D02*
X168684557Y-80350590D01*
X168541700Y-79922019D02*
X168541700Y-80160114D01*
X168303605Y-80064876D02*
X168541700Y-80160114D01*
X168541700Y-80160114D02*
X168779795Y-80064876D01*
X168398843Y-80350590D02*
X168541700Y-80160114D01*
X168541700Y-80160114D02*
X168684557Y-80350590D01*
X111133095Y-78078819D02*
X111704523Y-78078819D01*
X111418809Y-79078819D02*
X111418809Y-78078819D01*
X112037857Y-79078819D02*
X112037857Y-78078819D01*
X112037857Y-78078819D02*
X112418809Y-78078819D01*
X112418809Y-78078819D02*
X112514047Y-78126438D01*
X112514047Y-78126438D02*
X112561666Y-78174057D01*
X112561666Y-78174057D02*
X112609285Y-78269295D01*
X112609285Y-78269295D02*
X112609285Y-78412152D01*
X112609285Y-78412152D02*
X112561666Y-78507390D01*
X112561666Y-78507390D02*
X112514047Y-78555009D01*
X112514047Y-78555009D02*
X112418809Y-78602628D01*
X112418809Y-78602628D02*
X112037857Y-78602628D01*
X112990238Y-78174057D02*
X113037857Y-78126438D01*
X113037857Y-78126438D02*
X113133095Y-78078819D01*
X113133095Y-78078819D02*
X113371190Y-78078819D01*
X113371190Y-78078819D02*
X113466428Y-78126438D01*
X113466428Y-78126438D02*
X113514047Y-78174057D01*
X113514047Y-78174057D02*
X113561666Y-78269295D01*
X113561666Y-78269295D02*
X113561666Y-78364533D01*
X113561666Y-78364533D02*
X113514047Y-78507390D01*
X113514047Y-78507390D02*
X112942619Y-79078819D01*
X112942619Y-79078819D02*
X113561666Y-79078819D01*
X176681905Y-100816819D02*
X176681905Y-99816819D01*
X176681905Y-99816819D02*
X176920000Y-99816819D01*
X176920000Y-99816819D02*
X177062857Y-99864438D01*
X177062857Y-99864438D02*
X177158095Y-99959676D01*
X177158095Y-99959676D02*
X177205714Y-100054914D01*
X177205714Y-100054914D02*
X177253333Y-100245390D01*
X177253333Y-100245390D02*
X177253333Y-100388247D01*
X177253333Y-100388247D02*
X177205714Y-100578723D01*
X177205714Y-100578723D02*
X177158095Y-100673961D01*
X177158095Y-100673961D02*
X177062857Y-100769200D01*
X177062857Y-100769200D02*
X176920000Y-100816819D01*
X176920000Y-100816819D02*
X176681905Y-100816819D01*
X178205714Y-100816819D02*
X177634286Y-100816819D01*
X177920000Y-100816819D02*
X177920000Y-99816819D01*
X177920000Y-99816819D02*
X177824762Y-99959676D01*
X177824762Y-99959676D02*
X177729524Y-100054914D01*
X177729524Y-100054914D02*
X177634286Y-100102533D01*
X96310333Y-88976580D02*
X96262714Y-89024200D01*
X96262714Y-89024200D02*
X96119857Y-89071819D01*
X96119857Y-89071819D02*
X96024619Y-89071819D01*
X96024619Y-89071819D02*
X95881762Y-89024200D01*
X95881762Y-89024200D02*
X95786524Y-88928961D01*
X95786524Y-88928961D02*
X95738905Y-88833723D01*
X95738905Y-88833723D02*
X95691286Y-88643247D01*
X95691286Y-88643247D02*
X95691286Y-88500390D01*
X95691286Y-88500390D02*
X95738905Y-88309914D01*
X95738905Y-88309914D02*
X95786524Y-88214676D01*
X95786524Y-88214676D02*
X95881762Y-88119438D01*
X95881762Y-88119438D02*
X96024619Y-88071819D01*
X96024619Y-88071819D02*
X96119857Y-88071819D01*
X96119857Y-88071819D02*
X96262714Y-88119438D01*
X96262714Y-88119438D02*
X96310333Y-88167057D01*
X96643667Y-88071819D02*
X97262714Y-88071819D01*
X97262714Y-88071819D02*
X96929381Y-88452771D01*
X96929381Y-88452771D02*
X97072238Y-88452771D01*
X97072238Y-88452771D02*
X97167476Y-88500390D01*
X97167476Y-88500390D02*
X97215095Y-88548009D01*
X97215095Y-88548009D02*
X97262714Y-88643247D01*
X97262714Y-88643247D02*
X97262714Y-88881342D01*
X97262714Y-88881342D02*
X97215095Y-88976580D01*
X97215095Y-88976580D02*
X97167476Y-89024200D01*
X97167476Y-89024200D02*
X97072238Y-89071819D01*
X97072238Y-89071819D02*
X96786524Y-89071819D01*
X96786524Y-89071819D02*
X96691286Y-89024200D01*
X96691286Y-89024200D02*
X96643667Y-88976580D01*
X111260095Y-71982819D02*
X111831523Y-71982819D01*
X111545809Y-72982819D02*
X111545809Y-71982819D01*
X112164857Y-72982819D02*
X112164857Y-71982819D01*
X112164857Y-71982819D02*
X112545809Y-71982819D01*
X112545809Y-71982819D02*
X112641047Y-72030438D01*
X112641047Y-72030438D02*
X112688666Y-72078057D01*
X112688666Y-72078057D02*
X112736285Y-72173295D01*
X112736285Y-72173295D02*
X112736285Y-72316152D01*
X112736285Y-72316152D02*
X112688666Y-72411390D01*
X112688666Y-72411390D02*
X112641047Y-72459009D01*
X112641047Y-72459009D02*
X112545809Y-72506628D01*
X112545809Y-72506628D02*
X112164857Y-72506628D01*
X113688666Y-72982819D02*
X113117238Y-72982819D01*
X113402952Y-72982819D02*
X113402952Y-71982819D01*
X113402952Y-71982819D02*
X113307714Y-72125676D01*
X113307714Y-72125676D02*
X113212476Y-72220914D01*
X113212476Y-72220914D02*
X113117238Y-72268533D01*
X132552905Y-86577819D02*
X132552905Y-85577819D01*
X132552905Y-85577819D02*
X132791000Y-85577819D01*
X132791000Y-85577819D02*
X132933857Y-85625438D01*
X132933857Y-85625438D02*
X133029095Y-85720676D01*
X133029095Y-85720676D02*
X133076714Y-85815914D01*
X133076714Y-85815914D02*
X133124333Y-86006390D01*
X133124333Y-86006390D02*
X133124333Y-86149247D01*
X133124333Y-86149247D02*
X133076714Y-86339723D01*
X133076714Y-86339723D02*
X133029095Y-86434961D01*
X133029095Y-86434961D02*
X132933857Y-86530200D01*
X132933857Y-86530200D02*
X132791000Y-86577819D01*
X132791000Y-86577819D02*
X132552905Y-86577819D01*
X133457667Y-85577819D02*
X134076714Y-85577819D01*
X134076714Y-85577819D02*
X133743381Y-85958771D01*
X133743381Y-85958771D02*
X133886238Y-85958771D01*
X133886238Y-85958771D02*
X133981476Y-86006390D01*
X133981476Y-86006390D02*
X134029095Y-86054009D01*
X134029095Y-86054009D02*
X134076714Y-86149247D01*
X134076714Y-86149247D02*
X134076714Y-86387342D01*
X134076714Y-86387342D02*
X134029095Y-86482580D01*
X134029095Y-86482580D02*
X133981476Y-86530200D01*
X133981476Y-86530200D02*
X133886238Y-86577819D01*
X133886238Y-86577819D02*
X133600524Y-86577819D01*
X133600524Y-86577819D02*
X133505286Y-86530200D01*
X133505286Y-86530200D02*
X133457667Y-86482580D01*
X153138333Y-88593819D02*
X152805000Y-88117628D01*
X152566905Y-88593819D02*
X152566905Y-87593819D01*
X152566905Y-87593819D02*
X152947857Y-87593819D01*
X152947857Y-87593819D02*
X153043095Y-87641438D01*
X153043095Y-87641438D02*
X153090714Y-87689057D01*
X153090714Y-87689057D02*
X153138333Y-87784295D01*
X153138333Y-87784295D02*
X153138333Y-87927152D01*
X153138333Y-87927152D02*
X153090714Y-88022390D01*
X153090714Y-88022390D02*
X153043095Y-88070009D01*
X153043095Y-88070009D02*
X152947857Y-88117628D01*
X152947857Y-88117628D02*
X152566905Y-88117628D01*
X153995476Y-87927152D02*
X153995476Y-88593819D01*
X153757381Y-87546200D02*
X153519286Y-88260485D01*
X153519286Y-88260485D02*
X154138333Y-88260485D01*
X102461816Y-35155819D02*
X102461816Y-35870104D01*
X102461816Y-35870104D02*
X102414197Y-36012961D01*
X102414197Y-36012961D02*
X102318959Y-36108200D01*
X102318959Y-36108200D02*
X102176102Y-36155819D01*
X102176102Y-36155819D02*
X102080864Y-36155819D01*
X103461816Y-36155819D02*
X102890388Y-36155819D01*
X103176102Y-36155819D02*
X103176102Y-35155819D01*
X103176102Y-35155819D02*
X103080864Y-35298676D01*
X103080864Y-35298676D02*
X102985626Y-35393914D01*
X102985626Y-35393914D02*
X102890388Y-35441533D01*
X111063245Y-84704819D02*
X111634673Y-84704819D01*
X111348959Y-85704819D02*
X111348959Y-84704819D01*
X111968007Y-85704819D02*
X111968007Y-84704819D01*
X111968007Y-84704819D02*
X112348959Y-84704819D01*
X112348959Y-84704819D02*
X112444197Y-84752438D01*
X112444197Y-84752438D02*
X112491816Y-84800057D01*
X112491816Y-84800057D02*
X112539435Y-84895295D01*
X112539435Y-84895295D02*
X112539435Y-85038152D01*
X112539435Y-85038152D02*
X112491816Y-85133390D01*
X112491816Y-85133390D02*
X112444197Y-85181009D01*
X112444197Y-85181009D02*
X112348959Y-85228628D01*
X112348959Y-85228628D02*
X111968007Y-85228628D01*
X112872769Y-84704819D02*
X113491816Y-84704819D01*
X113491816Y-84704819D02*
X113158483Y-85085771D01*
X113158483Y-85085771D02*
X113301340Y-85085771D01*
X113301340Y-85085771D02*
X113396578Y-85133390D01*
X113396578Y-85133390D02*
X113444197Y-85181009D01*
X113444197Y-85181009D02*
X113491816Y-85276247D01*
X113491816Y-85276247D02*
X113491816Y-85514342D01*
X113491816Y-85514342D02*
X113444197Y-85609580D01*
X113444197Y-85609580D02*
X113396578Y-85657200D01*
X113396578Y-85657200D02*
X113301340Y-85704819D01*
X113301340Y-85704819D02*
X113015626Y-85704819D01*
X113015626Y-85704819D02*
X112920388Y-85657200D01*
X112920388Y-85657200D02*
X112872769Y-85609580D01*
X170792816Y-56186819D02*
X170792816Y-56901104D01*
X170792816Y-56901104D02*
X170745197Y-57043961D01*
X170745197Y-57043961D02*
X170649959Y-57139200D01*
X170649959Y-57139200D02*
X170507102Y-57186819D01*
X170507102Y-57186819D02*
X170411864Y-57186819D01*
X171411864Y-56615390D02*
X171316626Y-56567771D01*
X171316626Y-56567771D02*
X171269007Y-56520152D01*
X171269007Y-56520152D02*
X171221388Y-56424914D01*
X171221388Y-56424914D02*
X171221388Y-56377295D01*
X171221388Y-56377295D02*
X171269007Y-56282057D01*
X171269007Y-56282057D02*
X171316626Y-56234438D01*
X171316626Y-56234438D02*
X171411864Y-56186819D01*
X171411864Y-56186819D02*
X171602340Y-56186819D01*
X171602340Y-56186819D02*
X171697578Y-56234438D01*
X171697578Y-56234438D02*
X171745197Y-56282057D01*
X171745197Y-56282057D02*
X171792816Y-56377295D01*
X171792816Y-56377295D02*
X171792816Y-56424914D01*
X171792816Y-56424914D02*
X171745197Y-56520152D01*
X171745197Y-56520152D02*
X171697578Y-56567771D01*
X171697578Y-56567771D02*
X171602340Y-56615390D01*
X171602340Y-56615390D02*
X171411864Y-56615390D01*
X171411864Y-56615390D02*
X171316626Y-56663009D01*
X171316626Y-56663009D02*
X171269007Y-56710628D01*
X171269007Y-56710628D02*
X171221388Y-56805866D01*
X171221388Y-56805866D02*
X171221388Y-56996342D01*
X171221388Y-56996342D02*
X171269007Y-57091580D01*
X171269007Y-57091580D02*
X171316626Y-57139200D01*
X171316626Y-57139200D02*
X171411864Y-57186819D01*
X171411864Y-57186819D02*
X171602340Y-57186819D01*
X171602340Y-57186819D02*
X171697578Y-57139200D01*
X171697578Y-57139200D02*
X171745197Y-57091580D01*
X171745197Y-57091580D02*
X171792816Y-56996342D01*
X171792816Y-56996342D02*
X171792816Y-56805866D01*
X171792816Y-56805866D02*
X171745197Y-56710628D01*
X171745197Y-56710628D02*
X171697578Y-56663009D01*
X171697578Y-56663009D02*
X171602340Y-56615390D01*
X122532816Y-35104819D02*
X122532816Y-35819104D01*
X122532816Y-35819104D02*
X122485197Y-35961961D01*
X122485197Y-35961961D02*
X122389959Y-36057200D01*
X122389959Y-36057200D02*
X122247102Y-36104819D01*
X122247102Y-36104819D02*
X122151864Y-36104819D01*
X122913769Y-35104819D02*
X123532816Y-35104819D01*
X123532816Y-35104819D02*
X123199483Y-35485771D01*
X123199483Y-35485771D02*
X123342340Y-35485771D01*
X123342340Y-35485771D02*
X123437578Y-35533390D01*
X123437578Y-35533390D02*
X123485197Y-35581009D01*
X123485197Y-35581009D02*
X123532816Y-35676247D01*
X123532816Y-35676247D02*
X123532816Y-35914342D01*
X123532816Y-35914342D02*
X123485197Y-36009580D01*
X123485197Y-36009580D02*
X123437578Y-36057200D01*
X123437578Y-36057200D02*
X123342340Y-36104819D01*
X123342340Y-36104819D02*
X123056626Y-36104819D01*
X123056626Y-36104819D02*
X122961388Y-36057200D01*
X122961388Y-36057200D02*
X122913769Y-36009580D01*
X153011333Y-84021819D02*
X152678000Y-83545628D01*
X152439905Y-84021819D02*
X152439905Y-83021819D01*
X152439905Y-83021819D02*
X152820857Y-83021819D01*
X152820857Y-83021819D02*
X152916095Y-83069438D01*
X152916095Y-83069438D02*
X152963714Y-83117057D01*
X152963714Y-83117057D02*
X153011333Y-83212295D01*
X153011333Y-83212295D02*
X153011333Y-83355152D01*
X153011333Y-83355152D02*
X152963714Y-83450390D01*
X152963714Y-83450390D02*
X152916095Y-83498009D01*
X152916095Y-83498009D02*
X152820857Y-83545628D01*
X152820857Y-83545628D02*
X152439905Y-83545628D01*
X153344667Y-83021819D02*
X153963714Y-83021819D01*
X153963714Y-83021819D02*
X153630381Y-83402771D01*
X153630381Y-83402771D02*
X153773238Y-83402771D01*
X153773238Y-83402771D02*
X153868476Y-83450390D01*
X153868476Y-83450390D02*
X153916095Y-83498009D01*
X153916095Y-83498009D02*
X153963714Y-83593247D01*
X153963714Y-83593247D02*
X153963714Y-83831342D01*
X153963714Y-83831342D02*
X153916095Y-83926580D01*
X153916095Y-83926580D02*
X153868476Y-83974200D01*
X153868476Y-83974200D02*
X153773238Y-84021819D01*
X153773238Y-84021819D02*
X153487524Y-84021819D01*
X153487524Y-84021819D02*
X153392286Y-83974200D01*
X153392286Y-83974200D02*
X153344667Y-83926580D01*
X178141333Y-118149819D02*
X177665143Y-118149819D01*
X177665143Y-118149819D02*
X177665143Y-117149819D01*
X178998476Y-118149819D02*
X178427048Y-118149819D01*
X178712762Y-118149819D02*
X178712762Y-117149819D01*
X178712762Y-117149819D02*
X178617524Y-117292676D01*
X178617524Y-117292676D02*
X178522286Y-117387914D01*
X178522286Y-117387914D02*
X178427048Y-117435533D01*
X96437333Y-82626580D02*
X96389714Y-82674200D01*
X96389714Y-82674200D02*
X96246857Y-82721819D01*
X96246857Y-82721819D02*
X96151619Y-82721819D01*
X96151619Y-82721819D02*
X96008762Y-82674200D01*
X96008762Y-82674200D02*
X95913524Y-82578961D01*
X95913524Y-82578961D02*
X95865905Y-82483723D01*
X95865905Y-82483723D02*
X95818286Y-82293247D01*
X95818286Y-82293247D02*
X95818286Y-82150390D01*
X95818286Y-82150390D02*
X95865905Y-81959914D01*
X95865905Y-81959914D02*
X95913524Y-81864676D01*
X95913524Y-81864676D02*
X96008762Y-81769438D01*
X96008762Y-81769438D02*
X96151619Y-81721819D01*
X96151619Y-81721819D02*
X96246857Y-81721819D01*
X96246857Y-81721819D02*
X96389714Y-81769438D01*
X96389714Y-81769438D02*
X96437333Y-81817057D01*
X96818286Y-81817057D02*
X96865905Y-81769438D01*
X96865905Y-81769438D02*
X96961143Y-81721819D01*
X96961143Y-81721819D02*
X97199238Y-81721819D01*
X97199238Y-81721819D02*
X97294476Y-81769438D01*
X97294476Y-81769438D02*
X97342095Y-81817057D01*
X97342095Y-81817057D02*
X97389714Y-81912295D01*
X97389714Y-81912295D02*
X97389714Y-82007533D01*
X97389714Y-82007533D02*
X97342095Y-82150390D01*
X97342095Y-82150390D02*
X96770667Y-82721819D01*
X96770667Y-82721819D02*
X97389714Y-82721819D01*
X92202095Y-33592819D02*
X92202095Y-32592819D01*
X92202095Y-33069009D02*
X92773523Y-33069009D01*
X92773523Y-33592819D02*
X92773523Y-32592819D01*
X93773523Y-33592819D02*
X93202095Y-33592819D01*
X93487809Y-33592819D02*
X93487809Y-32592819D01*
X93487809Y-32592819D02*
X93392571Y-32735676D01*
X93392571Y-32735676D02*
X93297333Y-32830914D01*
X93297333Y-32830914D02*
X93202095Y-32878533D01*
X92583095Y-123127819D02*
X92583095Y-122127819D01*
X92583095Y-122604009D02*
X93154523Y-122604009D01*
X93154523Y-123127819D02*
X93154523Y-122127819D01*
X93535476Y-122127819D02*
X94154523Y-122127819D01*
X94154523Y-122127819D02*
X93821190Y-122508771D01*
X93821190Y-122508771D02*
X93964047Y-122508771D01*
X93964047Y-122508771D02*
X94059285Y-122556390D01*
X94059285Y-122556390D02*
X94106904Y-122604009D01*
X94106904Y-122604009D02*
X94154523Y-122699247D01*
X94154523Y-122699247D02*
X94154523Y-122937342D01*
X94154523Y-122937342D02*
X94106904Y-123032580D01*
X94106904Y-123032580D02*
X94059285Y-123080200D01*
X94059285Y-123080200D02*
X93964047Y-123127819D01*
X93964047Y-123127819D02*
X93678333Y-123127819D01*
X93678333Y-123127819D02*
X93583095Y-123080200D01*
X93583095Y-123080200D02*
X93535476Y-123032580D01*
D12*
%TO.C,C5*%
X96215748Y-105002000D02*
X96738252Y-105002000D01*
X96215748Y-103532000D02*
X96738252Y-103532000D01*
%TO.C,JP2*%
X162415000Y-114727000D02*
X162415000Y-114127000D01*
X163115000Y-113427000D02*
X164515000Y-113427000D01*
X164515000Y-115427000D02*
X163115000Y-115427000D01*
X165215000Y-114127000D02*
X165215000Y-114727000D01*
X162415000Y-114127000D02*
G75*
G02*
X163115000Y-113427000I699999J1D01*
G01*
X163115000Y-115427000D02*
G75*
G02*
X162415000Y-114727000I-1J699999D01*
G01*
X164515000Y-113427000D02*
G75*
G02*
X165215000Y-114127000I0J-700000D01*
G01*
X165215000Y-114727000D02*
G75*
G02*
X164515000Y-115427000I-700000J0D01*
G01*
%TO.C,C6*%
X96215748Y-112495000D02*
X96738252Y-112495000D01*
X96215748Y-111025000D02*
X96738252Y-111025000D01*
%TO.C,C7*%
X96237248Y-118972000D02*
X96759752Y-118972000D01*
X96237248Y-117502000D02*
X96759752Y-117502000D01*
%TO.C,C4*%
X96342748Y-97128000D02*
X96865252Y-97128000D01*
X96342748Y-95658000D02*
X96865252Y-95658000D01*
%TO.C,R2*%
X152950936Y-81253000D02*
X153405064Y-81253000D01*
X152950936Y-79783000D02*
X153405064Y-79783000D01*
%TO.C,J6*%
X150962150Y-63373000D02*
G75*
G02*
X147602150Y-63373000I-1680000J0D01*
G01*
X147602150Y-63373000D02*
G75*
G02*
X150962150Y-63373000I1680000J0D01*
G01*
X145737577Y-62689958D02*
G75*
G02*
X145737150Y-64057000I-1535427J-683042D01*
G01*
X144885468Y-64907756D02*
G75*
G02*
X144202150Y-65053000I-683318J1534756D01*
G01*
X144230955Y-65053253D02*
G75*
G02*
X143518150Y-64908000I-28806J1680254D01*
G01*
X143519108Y-61837573D02*
G75*
G02*
X144886150Y-61838000I683041J-1535420D01*
G01*
X142666723Y-64056042D02*
G75*
G02*
X142667150Y-62689000I1535420J683041D01*
G01*
X151882150Y-58112000D02*
X151882150Y-68033000D01*
X150557150Y-62304000D02*
X150510150Y-62350000D01*
X150352150Y-62098000D02*
X150317150Y-62134000D01*
X148248150Y-64612000D02*
X148213150Y-64647000D01*
X148055150Y-64396000D02*
X148008150Y-64442000D01*
X141602150Y-68033000D02*
X151882150Y-68033000D01*
X141602150Y-67473000D02*
X151882150Y-67473000D01*
X141602150Y-65973000D02*
X151882150Y-65973000D01*
X141602150Y-61072000D02*
X151882150Y-61072000D01*
X141602150Y-58112000D02*
X151882150Y-58112000D01*
X141602150Y-58112000D02*
X141602150Y-68033000D01*
X141362150Y-68273000D02*
X141862150Y-68273000D01*
X141362150Y-67533000D02*
X141362150Y-68273000D01*
%TO.C,TP4*%
X113845000Y-96065000D02*
X110945000Y-96065000D01*
X113845000Y-93165000D02*
X113845000Y-96065000D01*
X110945000Y-96065000D02*
X110945000Y-93165000D01*
X110945000Y-93165000D02*
X113845000Y-93165000D01*
%TO.C,C1*%
X96342748Y-77570000D02*
X96865252Y-77570000D01*
X96342748Y-76100000D02*
X96865252Y-76100000D01*
D13*
%TO.C,U2*%
X177829776Y-114238900D02*
X179379176Y-114238900D01*
X179379176Y-111775100D02*
X177829776Y-111775100D01*
X176999450Y-112256811D02*
G75*
G02*
X176796250Y-112256811I-101600J0D01*
G01*
X176796250Y-112256811D02*
G75*
G02*
X176999450Y-112256811I101600J0D01*
G01*
D14*
%TO.C,U1*%
X129866001Y-114928000D02*
G75*
G02*
X129615999Y-114928000I-125001J0D01*
G01*
X129615999Y-114928000D02*
G75*
G02*
X129866001Y-114928000I125001J0D01*
G01*
D15*
X139756004Y-119443000D02*
X139756004Y-112713000D01*
X136536001Y-119443000D02*
X139756004Y-119443000D01*
X136536001Y-112713000D02*
X139756004Y-112713000D01*
X128815996Y-119443000D02*
X129315997Y-119443000D01*
X128815996Y-119443000D02*
X128815996Y-112713000D01*
X128815996Y-112713000D02*
X129315997Y-112713000D01*
D12*
%TO.C,J7*%
X174965150Y-41910000D02*
G75*
G02*
X171605150Y-41910000I-1680000J0D01*
G01*
X171605150Y-41910000D02*
G75*
G02*
X174965150Y-41910000I1680000J0D01*
G01*
X169740577Y-41226958D02*
G75*
G02*
X169740150Y-42594000I-1535427J-683042D01*
G01*
X168888468Y-43444756D02*
G75*
G02*
X168205150Y-43590000I-683318J1534756D01*
G01*
X168233955Y-43590253D02*
G75*
G02*
X167521150Y-43445000I-28806J1680254D01*
G01*
X167522108Y-40374573D02*
G75*
G02*
X168889150Y-40375000I683041J-1535420D01*
G01*
X166669723Y-42593042D02*
G75*
G02*
X166670150Y-41226000I1535420J683041D01*
G01*
X175885150Y-36649000D02*
X175885150Y-46570000D01*
X174560150Y-40841000D02*
X174513150Y-40887000D01*
X174355150Y-40635000D02*
X174320150Y-40671000D01*
X172251150Y-43149000D02*
X172216150Y-43184000D01*
X172058150Y-42933000D02*
X172011150Y-42979000D01*
X165605150Y-46570000D02*
X175885150Y-46570000D01*
X165605150Y-46010000D02*
X175885150Y-46010000D01*
X165605150Y-44510000D02*
X175885150Y-44510000D01*
X165605150Y-39609000D02*
X175885150Y-39609000D01*
X165605150Y-36649000D02*
X175885150Y-36649000D01*
X165605150Y-36649000D02*
X165605150Y-46570000D01*
X165365150Y-46810000D02*
X165865150Y-46810000D01*
X165365150Y-46070000D02*
X165365150Y-46810000D01*
%TO.C,JP1*%
X162699000Y-103170000D02*
X162699000Y-102570000D01*
X163399000Y-101870000D02*
X164799000Y-101870000D01*
X164799000Y-103870000D02*
X163399000Y-103870000D01*
X165499000Y-102570000D02*
X165499000Y-103170000D01*
X162699000Y-102570000D02*
G75*
G02*
X163399000Y-101870000I699999J1D01*
G01*
X163399000Y-103870000D02*
G75*
G02*
X162699000Y-103170000I-1J699999D01*
G01*
X164799000Y-101870000D02*
G75*
G02*
X165499000Y-102570000I0J-700000D01*
G01*
X165499000Y-103170000D02*
G75*
G02*
X164799000Y-103870000I-700000J0D01*
G01*
%TO.C,J4*%
X127975150Y-63119000D02*
G75*
G02*
X124615150Y-63119000I-1680000J0D01*
G01*
X124615150Y-63119000D02*
G75*
G02*
X127975150Y-63119000I1680000J0D01*
G01*
X122750577Y-62435958D02*
G75*
G02*
X122750150Y-63803000I-1535427J-683042D01*
G01*
X121898468Y-64653756D02*
G75*
G02*
X121215150Y-64799000I-683318J1534756D01*
G01*
X121243955Y-64799253D02*
G75*
G02*
X120531150Y-64654000I-28806J1680254D01*
G01*
X120532108Y-61583573D02*
G75*
G02*
X121899150Y-61584000I683041J-1535420D01*
G01*
X119679723Y-63802042D02*
G75*
G02*
X119680150Y-62435000I1535420J683041D01*
G01*
X128895150Y-57858000D02*
X128895150Y-67779000D01*
X127570150Y-62050000D02*
X127523150Y-62096000D01*
X127365150Y-61844000D02*
X127330150Y-61880000D01*
X125261150Y-64358000D02*
X125226150Y-64393000D01*
X125068150Y-64142000D02*
X125021150Y-64188000D01*
X118615150Y-67779000D02*
X128895150Y-67779000D01*
X118615150Y-67219000D02*
X128895150Y-67219000D01*
X118615150Y-65719000D02*
X128895150Y-65719000D01*
X118615150Y-60818000D02*
X128895150Y-60818000D01*
X118615150Y-57858000D02*
X128895150Y-57858000D01*
X118615150Y-57858000D02*
X118615150Y-67779000D01*
X118375150Y-68019000D02*
X118875150Y-68019000D01*
X118375150Y-67279000D02*
X118375150Y-68019000D01*
%TO.C,F1*%
X139204000Y-106003000D02*
X139204000Y-105543000D01*
X139204000Y-100753000D02*
X139204000Y-101213000D01*
X129254000Y-106003000D02*
X139204000Y-106003000D01*
X129254000Y-105543000D02*
X129254000Y-106003000D01*
X129254000Y-100753000D02*
X139204000Y-100753000D01*
X129254000Y-100753000D02*
X129254000Y-101213000D01*
%TO.C,J2*%
X107528150Y-62611000D02*
G75*
G02*
X104168150Y-62611000I-1680000J0D01*
G01*
X104168150Y-62611000D02*
G75*
G02*
X107528150Y-62611000I1680000J0D01*
G01*
X102303577Y-61927958D02*
G75*
G02*
X102303150Y-63295000I-1535427J-683042D01*
G01*
X101451468Y-64145756D02*
G75*
G02*
X100768150Y-64291000I-683318J1534756D01*
G01*
X100796955Y-64291253D02*
G75*
G02*
X100084150Y-64146000I-28806J1680254D01*
G01*
X100085108Y-61075573D02*
G75*
G02*
X101452150Y-61076000I683041J-1535420D01*
G01*
X99232723Y-63294042D02*
G75*
G02*
X99233150Y-61927000I1535420J683041D01*
G01*
X108448150Y-57350000D02*
X108448150Y-67271000D01*
X107123150Y-61542000D02*
X107076150Y-61588000D01*
X106918150Y-61336000D02*
X106883150Y-61372000D01*
X104814150Y-63850000D02*
X104779150Y-63885000D01*
X104621150Y-63634000D02*
X104574150Y-63680000D01*
X98168150Y-67271000D02*
X108448150Y-67271000D01*
X98168150Y-66711000D02*
X108448150Y-66711000D01*
X98168150Y-65211000D02*
X108448150Y-65211000D01*
X98168150Y-60310000D02*
X108448150Y-60310000D01*
X98168150Y-57350000D02*
X108448150Y-57350000D01*
X98168150Y-57350000D02*
X98168150Y-67271000D01*
X97928150Y-67511000D02*
X98428150Y-67511000D01*
X97928150Y-66771000D02*
X97928150Y-67511000D01*
%TO.C,R5*%
X153204936Y-95096000D02*
X153659064Y-95096000D01*
X153204936Y-93626000D02*
X153659064Y-93626000D01*
%TO.C,D2*%
X132059150Y-77759000D02*
X131819150Y-77429000D01*
X132299150Y-77429000D01*
X132059150Y-77759000D01*
G36*
X132059150Y-77759000D02*
G01*
X131819150Y-77429000D01*
X132299150Y-77429000D01*
X132059150Y-77759000D01*
G37*
X134299150Y-77749000D02*
X134299150Y-78639000D01*
X134299150Y-77749000D02*
X132449150Y-77749000D01*
X134284150Y-80869000D02*
X132434150Y-80869000D01*
X134284150Y-79979000D02*
X134284150Y-80869000D01*
%TO.C,J5*%
X151211150Y-42469000D02*
G75*
G02*
X147851150Y-42469000I-1680000J0D01*
G01*
X147851150Y-42469000D02*
G75*
G02*
X151211150Y-42469000I1680000J0D01*
G01*
X145986577Y-41785958D02*
G75*
G02*
X145986150Y-43153000I-1535427J-683042D01*
G01*
X145134468Y-44003756D02*
G75*
G02*
X144451150Y-44149000I-683318J1534756D01*
G01*
X144479955Y-44149253D02*
G75*
G02*
X143767150Y-44004000I-28806J1680254D01*
G01*
X143768108Y-40933573D02*
G75*
G02*
X145135150Y-40934000I683041J-1535420D01*
G01*
X142915723Y-43152042D02*
G75*
G02*
X142916150Y-41785000I1535420J683041D01*
G01*
X152131150Y-37208000D02*
X152131150Y-47129000D01*
X150806150Y-41400000D02*
X150759150Y-41446000D01*
X150601150Y-41194000D02*
X150566150Y-41230000D01*
X148497150Y-43708000D02*
X148462150Y-43743000D01*
X148304150Y-43492000D02*
X148257150Y-43538000D01*
X141851150Y-47129000D02*
X152131150Y-47129000D01*
X141851150Y-46569000D02*
X152131150Y-46569000D01*
X141851150Y-45069000D02*
X152131150Y-45069000D01*
X141851150Y-40168000D02*
X152131150Y-40168000D01*
X141851150Y-37208000D02*
X152131150Y-37208000D01*
X141851150Y-37208000D02*
X141851150Y-47129000D01*
X141611150Y-47369000D02*
X142111150Y-47369000D01*
X141611150Y-46629000D02*
X141611150Y-47369000D01*
%TO.C,R1*%
X152950936Y-76554000D02*
X153405064Y-76554000D01*
X152950936Y-75084000D02*
X153405064Y-75084000D01*
D13*
%TO.C,Q1*%
X169398950Y-86702900D02*
X173640750Y-86702900D01*
X173640750Y-81445100D02*
X169398950Y-81445100D01*
D12*
%TO.C,TP2*%
X113845000Y-82222000D02*
X110945000Y-82222000D01*
X113845000Y-79322000D02*
X113845000Y-82222000D01*
X110945000Y-82222000D02*
X110945000Y-79322000D01*
X110945000Y-79322000D02*
X113845000Y-79322000D01*
%TO.C,D1*%
X175060000Y-101362000D02*
X175060000Y-103362000D01*
X175060000Y-101362000D02*
X179070000Y-101362000D01*
X175060000Y-103362000D02*
X179070000Y-103362000D01*
%TO.C,C3*%
X96215748Y-91032000D02*
X96738252Y-91032000D01*
X96215748Y-89562000D02*
X96738252Y-89562000D01*
%TO.C,TP1*%
X113972000Y-76126000D02*
X111072000Y-76126000D01*
X113972000Y-73226000D02*
X113972000Y-76126000D01*
X111072000Y-76126000D02*
X111072000Y-73226000D01*
X111072000Y-73226000D02*
X113972000Y-73226000D01*
%TO.C,D3*%
X132011000Y-87223000D02*
X131771000Y-86893000D01*
X132251000Y-86893000D01*
X132011000Y-87223000D01*
G36*
X132011000Y-87223000D02*
G01*
X131771000Y-86893000D01*
X132251000Y-86893000D01*
X132011000Y-87223000D01*
G37*
X134251000Y-87213000D02*
X134251000Y-88103000D01*
X134251000Y-87213000D02*
X132401000Y-87213000D01*
X134236000Y-90333000D02*
X132386000Y-90333000D01*
X134236000Y-89443000D02*
X134236000Y-90333000D01*
%TO.C,R4*%
X153077936Y-90524000D02*
X153532064Y-90524000D01*
X153077936Y-89054000D02*
X153532064Y-89054000D01*
%TO.C,J1*%
X107015150Y-41961000D02*
G75*
G02*
X103655150Y-41961000I-1680000J0D01*
G01*
X103655150Y-41961000D02*
G75*
G02*
X107015150Y-41961000I1680000J0D01*
G01*
X101790577Y-41277958D02*
G75*
G02*
X101790150Y-42645000I-1535427J-683042D01*
G01*
X100938468Y-43495756D02*
G75*
G02*
X100255150Y-43641000I-683318J1534756D01*
G01*
X100283955Y-43641253D02*
G75*
G02*
X99571150Y-43496000I-28806J1680254D01*
G01*
X99572108Y-40425573D02*
G75*
G02*
X100939150Y-40426000I683041J-1535420D01*
G01*
X98719723Y-42644042D02*
G75*
G02*
X98720150Y-41277000I1535420J683041D01*
G01*
X107935150Y-36700000D02*
X107935150Y-46621000D01*
X106610150Y-40892000D02*
X106563150Y-40938000D01*
X106405150Y-40686000D02*
X106370150Y-40722000D01*
X104301150Y-43200000D02*
X104266150Y-43235000D01*
X104108150Y-42984000D02*
X104061150Y-43030000D01*
X97655150Y-46621000D02*
X107935150Y-46621000D01*
X97655150Y-46061000D02*
X107935150Y-46061000D01*
X97655150Y-44561000D02*
X107935150Y-44561000D01*
X97655150Y-39660000D02*
X107935150Y-39660000D01*
X97655150Y-36700000D02*
X107935150Y-36700000D01*
X97655150Y-36700000D02*
X97655150Y-46621000D01*
X97415150Y-46861000D02*
X97915150Y-46861000D01*
X97415150Y-46121000D02*
X97415150Y-46861000D01*
%TO.C,TP3*%
X113775150Y-88848000D02*
X110875150Y-88848000D01*
X113775150Y-85948000D02*
X113775150Y-88848000D01*
X110875150Y-88848000D02*
X110875150Y-85948000D01*
X110875150Y-85948000D02*
X113775150Y-85948000D01*
%TO.C,J8*%
X175346150Y-62992000D02*
G75*
G02*
X171986150Y-62992000I-1680000J0D01*
G01*
X171986150Y-62992000D02*
G75*
G02*
X175346150Y-62992000I1680000J0D01*
G01*
X170121577Y-62308958D02*
G75*
G02*
X170121150Y-63676000I-1535427J-683042D01*
G01*
X169269468Y-64526756D02*
G75*
G02*
X168586150Y-64672000I-683318J1534756D01*
G01*
X168614955Y-64672253D02*
G75*
G02*
X167902150Y-64527000I-28806J1680254D01*
G01*
X167903108Y-61456573D02*
G75*
G02*
X169270150Y-61457000I683041J-1535420D01*
G01*
X167050723Y-63675042D02*
G75*
G02*
X167051150Y-62308000I1535420J683041D01*
G01*
X176266150Y-57731000D02*
X176266150Y-67652000D01*
X174941150Y-61923000D02*
X174894150Y-61969000D01*
X174736150Y-61717000D02*
X174701150Y-61753000D01*
X172632150Y-64231000D02*
X172597150Y-64266000D01*
X172439150Y-64015000D02*
X172392150Y-64061000D01*
X165986150Y-67652000D02*
X176266150Y-67652000D01*
X165986150Y-67092000D02*
X176266150Y-67092000D01*
X165986150Y-65592000D02*
X176266150Y-65592000D01*
X165986150Y-60691000D02*
X176266150Y-60691000D01*
X165986150Y-57731000D02*
X176266150Y-57731000D01*
X165986150Y-57731000D02*
X165986150Y-67652000D01*
X165746150Y-67892000D02*
X166246150Y-67892000D01*
X165746150Y-67152000D02*
X165746150Y-67892000D01*
%TO.C,J3*%
X127086150Y-41910000D02*
G75*
G02*
X123726150Y-41910000I-1680000J0D01*
G01*
X123726150Y-41910000D02*
G75*
G02*
X127086150Y-41910000I1680000J0D01*
G01*
X121861577Y-41226958D02*
G75*
G02*
X121861150Y-42594000I-1535427J-683042D01*
G01*
X121009468Y-43444756D02*
G75*
G02*
X120326150Y-43590000I-683318J1534756D01*
G01*
X120354955Y-43590253D02*
G75*
G02*
X119642150Y-43445000I-28806J1680254D01*
G01*
X119643108Y-40374573D02*
G75*
G02*
X121010150Y-40375000I683041J-1535420D01*
G01*
X118790723Y-42593042D02*
G75*
G02*
X118791150Y-41226000I1535420J683041D01*
G01*
X128006150Y-36649000D02*
X128006150Y-46570000D01*
X126681150Y-40841000D02*
X126634150Y-40887000D01*
X126476150Y-40635000D02*
X126441150Y-40671000D01*
X124372150Y-43149000D02*
X124337150Y-43184000D01*
X124179150Y-42933000D02*
X124132150Y-42979000D01*
X117726150Y-46570000D02*
X128006150Y-46570000D01*
X117726150Y-46010000D02*
X128006150Y-46010000D01*
X117726150Y-44510000D02*
X128006150Y-44510000D01*
X117726150Y-39609000D02*
X128006150Y-39609000D01*
X117726150Y-36649000D02*
X128006150Y-36649000D01*
X117726150Y-36649000D02*
X117726150Y-46570000D01*
X117486150Y-46810000D02*
X117986150Y-46810000D01*
X117486150Y-46070000D02*
X117486150Y-46810000D01*
%TO.C,R3*%
X152950936Y-85952000D02*
X153405064Y-85952000D01*
X152950936Y-84482000D02*
X153405064Y-84482000D01*
%TO.C,C2*%
X96342748Y-84682000D02*
X96865252Y-84682000D01*
X96342748Y-83212000D02*
X96865252Y-83212000D01*
%TD*%
M02*
