%TF.GenerationSoftware,KiCad,Pcbnew,8.0.5*%
%TF.CreationDate,2024-11-24T13:48:28-06:00*%
%TF.ProjectId,Autonomous_Gardening_Rover_v2,4175746f-6e6f-46d6-9f75-735f47617264,rev?*%
%TF.SameCoordinates,Original*%
%TF.FileFunction,Soldermask,Bot*%
%TF.FilePolarity,Negative*%
%FSLAX46Y46*%
G04 Gerber Fmt 4.6, Leading zero omitted, Abs format (unit mm)*
G04 Created by KiCad (PCBNEW 8.0.5) date 2024-11-24 13:48:28*
%MOMM*%
%LPD*%
G01*
G04 APERTURE LIST*
%ADD10R,2.600000X2.600000*%
%ADD11C,2.600000*%
%ADD12R,1.700000X1.700000*%
%ADD13O,1.700000X1.700000*%
%ADD14C,3.200000*%
%ADD15C,2.000000*%
G04 APERTURE END LIST*
D10*
%TO.C,J8*%
X57305000Y-105545000D03*
D11*
X57305000Y-100465000D03*
%TD*%
D12*
%TO.C,J1*%
X66280000Y-80200000D03*
D13*
X63740000Y-80200000D03*
X61200000Y-80200000D03*
%TD*%
D12*
%TO.C,J11*%
X58000000Y-111925000D03*
D13*
X58000000Y-114465000D03*
X58000000Y-117005000D03*
X58000000Y-119545000D03*
X58000000Y-122085000D03*
%TD*%
D14*
%TO.C,H2*%
X140000000Y-80000000D03*
%TD*%
D10*
%TO.C,J6*%
X92645000Y-129895000D03*
D11*
X87565000Y-129895000D03*
%TD*%
D10*
%TO.C,J3*%
X57000000Y-93080000D03*
D11*
X57000000Y-88000000D03*
%TD*%
D12*
%TO.C,J12*%
X120440000Y-129900000D03*
D13*
X117900000Y-129900000D03*
X115360000Y-129900000D03*
X112820000Y-129900000D03*
X110280000Y-129900000D03*
X107740000Y-129900000D03*
X105200000Y-129900000D03*
X102660000Y-129900000D03*
X100120000Y-129900000D03*
%TD*%
D12*
%TO.C,J10*%
X59350000Y-127100000D03*
D13*
X61890000Y-127100000D03*
X64430000Y-127100000D03*
X66970000Y-127100000D03*
X69510000Y-127100000D03*
X72050000Y-127100000D03*
X74590000Y-127100000D03*
X77130000Y-127100000D03*
X79670000Y-127100000D03*
%TD*%
D12*
%TO.C,J9*%
X75680000Y-80200000D03*
D13*
X73140000Y-80200000D03*
X70600000Y-80200000D03*
%TD*%
D12*
%TO.C,J7*%
X66000000Y-100000000D03*
D13*
X66000000Y-102540000D03*
X66000000Y-105080000D03*
%TD*%
D12*
%TO.C,J5*%
X66000000Y-89000000D03*
D13*
X66000000Y-91540000D03*
X66000000Y-94080000D03*
%TD*%
D14*
%TO.C,H3*%
X140400000Y-132700000D03*
%TD*%
%TO.C,H1*%
X55000000Y-80000000D03*
%TD*%
D15*
%TO.C,SW1*%
X122200000Y-115400000D03*
X115700000Y-115400000D03*
X122200000Y-110900000D03*
X115700000Y-110900000D03*
%TD*%
%TO.C,SW2*%
X133050000Y-115350000D03*
X126550000Y-115350000D03*
X133050000Y-110850000D03*
X126550000Y-110850000D03*
%TD*%
D10*
%TO.C,J4*%
X112955000Y-80605000D03*
D11*
X118035000Y-80605000D03*
%TD*%
D14*
%TO.C,H4*%
X53900000Y-133500000D03*
%TD*%
M02*
