M48
; DRILL file {KiCad 8.0.5} date 2024-11-24T13:46:34-0600
; FORMAT={-:-/ absolute / metric / decimal}
; #@! TF.CreationDate,2024-11-24T13:46:34-06:00
; #@! TF.GenerationSoftware,Kicad,Pcbnew,8.0.5
; #@! TF.FileFunction,Plated,1,2,PTH
FMAT,2
METRIC
; #@! TA.AperFunction,Plated,PTH,ViaDrill
T1C0.300
; #@! TA.AperFunction,Plated,PTH,ComponentDrill
T2C1.000
; #@! TA.AperFunction,Plated,PTH,ComponentDrill
T3C1.100
; #@! TA.AperFunction,Plated,PTH,ComponentDrill
T4C1.300
%
G90
G05
T1
X65.6Y-124.325
X68.35Y-97.4
X69.475Y-90.9
X71.875Y-85.475
X72.525Y-125.0
X77.8Y-83.2
X80.1Y-84.4
X81.2Y-99.9
X81.4Y-101.45
X82.05Y-100.625
X82.175Y-98.675
X82.2Y-87.4
X83.0Y-105.1
X91.7Y-113.925
X97.55Y-122.2
X98.7Y-104.7
X99.521Y-108.275
X100.0Y-104.85
X100.275Y-109.4
X101.05Y-104.7
X101.056Y-109.574
X103.325Y-109.65
X103.5Y-100.05
X103.75Y-93.625
X103.75Y-110.8
X103.8Y-87.425
X103.888Y-96.112
X103.975Y-97.15
X104.375Y-86.25
X104.5Y-98.7
X105.325Y-95.025
X106.325Y-126.125
X106.625Y-112.675
X106.675Y-115.825
X107.1Y-94.1
X108.275Y-108.125
X109.0Y-95.4
X109.1Y-90.9
X109.3Y-85.8
X109.4Y-92.1
X109.5Y-126.675
X110.675Y-126.2
X112.1Y-94.0
X112.85Y-125.2
X113.5Y-85.9
X113.7Y-95.5
X114.05Y-124.975
X114.5Y-99.0
X118.8Y-120.3
X121.0Y-96.2
X122.9Y-101.2
X123.0Y-99.2
X126.3Y-100.7
X126.6Y-99.3
X129.2Y-96.3
X130.6Y-93.6
X131.8Y-96.9
X132.8Y-96.0
X133.1Y-94.3
X133.9Y-107.3
X134.0Y-86.5
X135.198Y-87.298
X135.2Y-85.6
X135.3Y-93.4
X136.1Y-86.763
X136.5Y-94.8
X136.775Y-96.975
X137.2Y-88.0
X137.2Y-89.9
X137.2Y-90.7
X137.925Y-98.85
X138.85Y-96.925
X139.0Y-90.436
X139.1Y-87.9
X139.5Y-89.7
X139.775Y-100.075
X140.7Y-93.9
T2
X58.0Y-111.925
X58.0Y-114.465
X58.0Y-117.005
X58.0Y-119.545
X58.0Y-122.085
X59.35Y-127.1
X61.2Y-80.2
X61.89Y-127.1
X63.74Y-80.2
X64.43Y-127.1
X66.0Y-89.0
X66.0Y-91.54
X66.0Y-94.08
X66.0Y-100.0
X66.0Y-102.54
X66.0Y-105.08
X66.28Y-80.2
X66.97Y-127.1
X69.51Y-127.1
X70.6Y-80.2
X72.05Y-127.1
X73.14Y-80.2
X74.59Y-127.1
X75.68Y-80.2
X77.13Y-127.1
X79.67Y-127.1
X100.12Y-129.9
X102.66Y-129.9
X105.2Y-129.9
X107.74Y-129.9
X110.28Y-129.9
X112.82Y-129.9
X115.36Y-129.9
X117.9Y-129.9
X120.44Y-129.9
T3
X115.7Y-110.9
X115.7Y-115.4
X122.2Y-110.9
X122.2Y-115.4
X126.55Y-110.85
X126.55Y-115.35
X133.05Y-110.85
X133.05Y-115.35
T4
X57.0Y-88.0
X57.0Y-93.08
X57.305Y-100.465
X57.305Y-105.545
X87.565Y-129.895
X92.645Y-129.895
X112.955Y-80.605
X118.035Y-80.605
M30
