%TF.GenerationSoftware,KiCad,Pcbnew,8.0.5*%
%TF.CreationDate,2024-11-24T13:48:28-06:00*%
%TF.ProjectId,Autonomous_Gardening_Rover_v2,4175746f-6e6f-46d6-9f75-735f47617264,rev?*%
%TF.SameCoordinates,Original*%
%TF.FileFunction,Paste,Top*%
%TF.FilePolarity,Positive*%
%FSLAX46Y46*%
G04 Gerber Fmt 4.6, Leading zero omitted, Abs format (unit mm)*
G04 Created by KiCad (PCBNEW 8.0.5) date 2024-11-24 13:48:28*
%MOMM*%
%LPD*%
G01*
G04 APERTURE LIST*
G04 Aperture macros list*
%AMRoundRect*
0 Rectangle with rounded corners*
0 $1 Rounding radius*
0 $2 $3 $4 $5 $6 $7 $8 $9 X,Y pos of 4 corners*
0 Add a 4 corners polygon primitive as box body*
4,1,4,$2,$3,$4,$5,$6,$7,$8,$9,$2,$3,0*
0 Add four circle primitives for the rounded corners*
1,1,$1+$1,$2,$3*
1,1,$1+$1,$4,$5*
1,1,$1+$1,$6,$7*
1,1,$1+$1,$8,$9*
0 Add four rect primitives between the rounded corners*
20,1,$1+$1,$2,$3,$4,$5,0*
20,1,$1+$1,$4,$5,$6,$7,0*
20,1,$1+$1,$6,$7,$8,$9,0*
20,1,$1+$1,$8,$9,$2,$3,0*%
G04 Aperture macros list end*
%ADD10R,1.498600X0.812800*%
%ADD11R,0.812800X1.498600*%
%ADD12R,0.889000X0.889000*%
%ADD13R,0.558800X1.219200*%
%ADD14RoundRect,0.250000X-0.337500X-0.475000X0.337500X-0.475000X0.337500X0.475000X-0.337500X0.475000X0*%
%ADD15RoundRect,0.250000X-0.350000X-0.450000X0.350000X-0.450000X0.350000X0.450000X-0.350000X0.450000X0*%
%ADD16RoundRect,0.250000X0.337500X0.475000X-0.337500X0.475000X-0.337500X-0.475000X0.337500X-0.475000X0*%
%ADD17RoundRect,0.250000X0.475000X-0.337500X0.475000X0.337500X-0.475000X0.337500X-0.475000X-0.337500X0*%
%ADD18RoundRect,0.175000X0.175000X0.325000X-0.175000X0.325000X-0.175000X-0.325000X0.175000X-0.325000X0*%
%ADD19RoundRect,0.150000X0.200000X0.150000X-0.200000X0.150000X-0.200000X-0.150000X0.200000X-0.150000X0*%
%ADD20RoundRect,0.250000X0.262500X0.450000X-0.262500X0.450000X-0.262500X-0.450000X0.262500X-0.450000X0*%
%ADD21RoundRect,0.250000X0.275000X0.275000X-0.275000X0.275000X-0.275000X-0.275000X0.275000X-0.275000X0*%
%ADD22RoundRect,0.062500X0.350000X0.062500X-0.350000X0.062500X-0.350000X-0.062500X0.350000X-0.062500X0*%
%ADD23RoundRect,0.062500X0.062500X0.350000X-0.062500X0.350000X-0.062500X-0.350000X0.062500X-0.350000X0*%
%ADD24RoundRect,0.250000X0.350000X0.450000X-0.350000X0.450000X-0.350000X-0.450000X0.350000X-0.450000X0*%
%ADD25R,1.380000X0.450000*%
%ADD26R,1.300000X1.650000*%
%ADD27R,1.550000X1.425000*%
%ADD28R,1.900000X1.800000*%
%ADD29R,1.900000X1.000000*%
G04 APERTURE END LIST*
D10*
%TO.C,U3*%
X84394500Y-84740000D03*
X84394500Y-86010000D03*
X84394500Y-87280000D03*
X84394500Y-88550000D03*
X84394500Y-89820000D03*
X84394500Y-91090000D03*
X84394500Y-92360000D03*
X84394500Y-93630000D03*
X84394500Y-94900000D03*
X84394500Y-96170000D03*
X84394500Y-97440000D03*
X84394500Y-98710000D03*
X84394500Y-99980000D03*
X84394500Y-101250000D03*
D11*
X86159500Y-102500000D03*
X87429500Y-102500000D03*
X88699500Y-102500000D03*
X89969500Y-102500000D03*
X91239500Y-102500000D03*
X92509500Y-102500000D03*
X93779500Y-102500000D03*
X95049500Y-102500000D03*
X96319500Y-102500000D03*
X97589500Y-102500000D03*
X98859500Y-102500000D03*
X100129500Y-102500000D03*
D10*
X101894500Y-101250000D03*
X101894500Y-99980000D03*
X101894500Y-98710000D03*
X101894500Y-97440000D03*
X101894500Y-96170000D03*
X101894500Y-94900000D03*
X101894500Y-93630000D03*
X101894500Y-92360000D03*
X101894500Y-91090000D03*
X101894500Y-89820000D03*
X101894500Y-88550000D03*
X101894500Y-87280000D03*
X101894500Y-86010000D03*
X101894500Y-84740000D03*
D12*
X91644500Y-92460000D03*
X90244500Y-91060000D03*
X90244500Y-92460000D03*
X90244500Y-93860000D03*
X91644500Y-93860000D03*
X93044500Y-93860000D03*
X93044500Y-92460000D03*
X93044500Y-91060000D03*
X91644500Y-91060000D03*
%TD*%
D13*
%TO.C,Q2*%
X129300000Y-100500000D03*
X131200002Y-100500000D03*
X130250001Y-98458001D03*
%TD*%
D14*
%TO.C,C3*%
X102500000Y-106500000D03*
X104575000Y-106500000D03*
%TD*%
D13*
%TO.C,Q1*%
X117849999Y-100500000D03*
X119750001Y-100500000D03*
X118800000Y-98458001D03*
%TD*%
D15*
%TO.C,R1*%
X97500000Y-106500000D03*
X99500000Y-106500000D03*
%TD*%
D16*
%TO.C,C6*%
X129100000Y-92800000D03*
X127025000Y-92800000D03*
%TD*%
D17*
%TO.C,C2*%
X79400000Y-82300000D03*
X79400000Y-80225000D03*
%TD*%
%TO.C,C1*%
X82000000Y-82300000D03*
X82000000Y-80225000D03*
%TD*%
D15*
%TO.C,R6*%
X123400000Y-103100000D03*
X125400000Y-103100000D03*
%TD*%
D18*
%TO.C,D4*%
X137900000Y-97800000D03*
D19*
X137900000Y-96100000D03*
X135900000Y-96100000D03*
X135900000Y-98000000D03*
%TD*%
D20*
%TO.C,R3*%
X78700000Y-105200000D03*
X76875000Y-105200000D03*
%TD*%
D15*
%TO.C,R7*%
X114200000Y-104000000D03*
X116200000Y-104000000D03*
%TD*%
%TO.C,R4*%
X85200000Y-105400000D03*
X87200000Y-105400000D03*
%TD*%
D21*
%TO.C,U2*%
X134300000Y-90800000D03*
X134300000Y-89500000D03*
X133000000Y-90800000D03*
X133000000Y-89500000D03*
D22*
X135587500Y-91400000D03*
X135587500Y-90900000D03*
X135587500Y-90400000D03*
X135587500Y-89900000D03*
X135587500Y-89400000D03*
X135587500Y-88900000D03*
D23*
X134900000Y-88212500D03*
X134400000Y-88212500D03*
X133900000Y-88212500D03*
X133400000Y-88212500D03*
X132900000Y-88212500D03*
X132400000Y-88212500D03*
D22*
X131712500Y-88900000D03*
X131712500Y-89400000D03*
X131712500Y-89900000D03*
X131712500Y-90400000D03*
X131712500Y-90900000D03*
X131712500Y-91400000D03*
D23*
X132400000Y-92087500D03*
X132900000Y-92087500D03*
X133400000Y-92087500D03*
X133900000Y-92087500D03*
X134400000Y-92087500D03*
X134900000Y-92087500D03*
%TD*%
D15*
%TO.C,R5*%
X123300000Y-105500000D03*
X125300000Y-105500000D03*
%TD*%
D24*
%TO.C,R2*%
X109500000Y-104500000D03*
X107500000Y-104500000D03*
%TD*%
D15*
%TO.C,R8*%
X125000000Y-97100000D03*
X127000000Y-97100000D03*
%TD*%
D16*
%TO.C,C7*%
X129100000Y-88200000D03*
X127025000Y-88200000D03*
%TD*%
%TO.C,C8*%
X129100000Y-90500000D03*
X127025000Y-90500000D03*
%TD*%
D14*
%TO.C,C4*%
X107625000Y-101200000D03*
X109700000Y-101200000D03*
%TD*%
%TO.C,C5*%
X132925000Y-84100000D03*
X135000000Y-84100000D03*
%TD*%
D25*
%TO.C,J2*%
X140940000Y-90975000D03*
X140940000Y-90325000D03*
X140940000Y-89675000D03*
X140940000Y-89025000D03*
X140940000Y-88375000D03*
D26*
X143600000Y-93050000D03*
D27*
X141025000Y-92162500D03*
D28*
X143600000Y-90825000D03*
D29*
X143600000Y-88125000D03*
D27*
X141025000Y-87187500D03*
D26*
X143600000Y-86300000D03*
%TD*%
M02*
