%TF.GenerationSoftware,KiCad,Pcbnew,8.0.5*%
%TF.CreationDate,2024-10-29T07:25:13-05:00*%
%TF.ProjectId,Autonomous_Gardening_Rover_v2,4175746f-6e6f-46d6-9f75-735f47617264,rev?*%
%TF.SameCoordinates,Original*%
%TF.FileFunction,Soldermask,Bot*%
%TF.FilePolarity,Negative*%
%FSLAX46Y46*%
G04 Gerber Fmt 4.6, Leading zero omitted, Abs format (unit mm)*
G04 Created by KiCad (PCBNEW 8.0.5) date 2024-10-29 07:25:13*
%MOMM*%
%LPD*%
G01*
G04 APERTURE LIST*
%ADD10R,2.600000X2.600000*%
%ADD11C,2.600000*%
%ADD12R,1.371600X1.371600*%
%ADD13C,1.371600*%
%ADD14C,2.000000*%
%ADD15C,3.200000*%
%ADD16O,1.600000X1.200000*%
%ADD17O,1.200000X1.200000*%
%ADD18R,1.700000X1.700000*%
%ADD19O,1.700000X1.700000*%
G04 APERTURE END LIST*
D10*
%TO.C,J3*%
X37000000Y-39180000D03*
D11*
X37000000Y-44260000D03*
X37000000Y-49340000D03*
X37000000Y-54420000D03*
X37000000Y-59500000D03*
%TD*%
D12*
%TO.C,U3*%
X96190000Y-82690000D03*
D13*
X96190000Y-85230000D03*
X96190000Y-87770000D03*
X96190000Y-90310000D03*
X103810000Y-90310000D03*
X103810000Y-87770000D03*
X103810000Y-85230000D03*
X103810000Y-82690000D03*
%TD*%
D12*
%TO.C,U4*%
X96190000Y-95690000D03*
D13*
X96190000Y-98230000D03*
X96190000Y-100770000D03*
X96190000Y-103310000D03*
X103810000Y-103310000D03*
X103810000Y-100770000D03*
X103810000Y-98230000D03*
X103810000Y-95690000D03*
%TD*%
D14*
%TO.C,SW2*%
X74750000Y-77750000D03*
X68250000Y-77750000D03*
X74750000Y-73250000D03*
X68250000Y-73250000D03*
%TD*%
%TO.C,SW1*%
X61750000Y-77750000D03*
X55250000Y-77750000D03*
X61750000Y-73250000D03*
X55250000Y-73250000D03*
%TD*%
D10*
%TO.C,J8*%
X62535000Y-123305000D03*
D11*
X67615000Y-123305000D03*
%TD*%
D10*
%TO.C,J6*%
X75955000Y-123305000D03*
D11*
X81035000Y-123305000D03*
%TD*%
D10*
%TO.C,J5*%
X89035000Y-123305000D03*
D11*
X94115000Y-123305000D03*
%TD*%
%TO.C,J4*%
X117500000Y-80420000D03*
D10*
X117500000Y-85500000D03*
%TD*%
D11*
%TO.C,J1*%
X37000000Y-87160000D03*
X37000000Y-82080000D03*
X37000000Y-77000000D03*
X37000000Y-71920000D03*
D10*
X37000000Y-66840000D03*
%TD*%
D11*
%TO.C,J11*%
X117500000Y-67920000D03*
D10*
X117500000Y-73000000D03*
%TD*%
D15*
%TO.C,H1*%
X50500000Y-38500000D03*
%TD*%
D11*
%TO.C,J24*%
X116660000Y-123500000D03*
X111580000Y-123500000D03*
X106500000Y-123500000D03*
D10*
X101420000Y-123500000D03*
%TD*%
D16*
%TO.C,Q1*%
X72414724Y-94684724D03*
D17*
X73684724Y-95954724D03*
X74954724Y-94684724D03*
%TD*%
D11*
%TO.C,J7*%
X117000000Y-113820000D03*
X117000000Y-108740000D03*
X117000000Y-103660000D03*
X117000000Y-98580000D03*
D10*
X117000000Y-93500000D03*
%TD*%
D15*
%TO.C,H3*%
X50500000Y-111000000D03*
%TD*%
D11*
%TO.C,J12*%
X55320000Y-123500000D03*
X50240000Y-123500000D03*
X45160000Y-123500000D03*
X40080000Y-123500000D03*
D10*
X35000000Y-123500000D03*
%TD*%
D18*
%TO.C,J10*%
X62720000Y-107000000D03*
D19*
X65260000Y-107000000D03*
X67800000Y-107000000D03*
X70340000Y-107000000D03*
X72880000Y-107000000D03*
X75420000Y-107000000D03*
X77960000Y-107000000D03*
X80500000Y-107000000D03*
X83040000Y-107000000D03*
%TD*%
D16*
%TO.C,Q2*%
X63414724Y-94684724D03*
D17*
X64684724Y-95954724D03*
X65954724Y-94684724D03*
%TD*%
D15*
%TO.C,H2*%
X108000000Y-111000000D03*
%TD*%
D11*
%TO.C,J14*%
X37000000Y-114240000D03*
X37000000Y-109160000D03*
X37000000Y-104080000D03*
X37000000Y-99000000D03*
D10*
X37000000Y-93920000D03*
%TD*%
D15*
%TO.C,H4*%
X108000000Y-38500000D03*
%TD*%
M02*
