G04 #@! TF.GenerationSoftware,KiCad,Pcbnew,8.0.4*
G04 #@! TF.CreationDate,2024-10-22T20:24:45-05:00*
G04 #@! TF.ProjectId,PCB_split,5043425f-7370-46c6-9974-2e6b69636164,rev?*
G04 #@! TF.SameCoordinates,Original*
G04 #@! TF.FileFunction,Soldermask,Top*
G04 #@! TF.FilePolarity,Negative*
%FSLAX46Y46*%
G04 Gerber Fmt 4.6, Leading zero omitted, Abs format (unit mm)*
G04 Created by KiCad (PCBNEW 8.0.4) date 2024-10-22 20:24:45*
%MOMM*%
%LPD*%
G01*
G04 APERTURE LIST*
G04 Aperture macros list*
%AMRoundRect*
0 Rectangle with rounded corners*
0 $1 Rounding radius*
0 $2 $3 $4 $5 $6 $7 $8 $9 X,Y pos of 4 corners*
0 Add a 4 corners polygon primitive as box body*
4,1,4,$2,$3,$4,$5,$6,$7,$8,$9,$2,$3,0*
0 Add four circle primitives for the rounded corners*
1,1,$1+$1,$2,$3*
1,1,$1+$1,$4,$5*
1,1,$1+$1,$6,$7*
1,1,$1+$1,$8,$9*
0 Add four rect primitives between the rounded corners*
20,1,$1+$1,$2,$3,$4,$5,0*
20,1,$1+$1,$4,$5,$6,$7,0*
20,1,$1+$1,$6,$7,$8,$9,0*
20,1,$1+$1,$8,$9,$2,$3,0*%
%AMFreePoly0*
4,1,19,0.500000,-0.750000,0.000000,-0.750000,0.000000,-0.744911,-0.071157,-0.744911,-0.207708,-0.704816,-0.327430,-0.627875,-0.420627,-0.520320,-0.479746,-0.390866,-0.500000,-0.250000,-0.500000,0.250000,-0.479746,0.390866,-0.420627,0.520320,-0.327430,0.627875,-0.207708,0.704816,-0.071157,0.744911,0.000000,0.744911,0.000000,0.750000,0.500000,0.750000,0.500000,-0.750000,0.500000,-0.750000,
$1*%
%AMFreePoly1*
4,1,19,0.000000,0.744911,0.071157,0.744911,0.207708,0.704816,0.327430,0.627875,0.420627,0.520320,0.479746,0.390866,0.500000,0.250000,0.500000,-0.250000,0.479746,-0.390866,0.420627,-0.520320,0.327430,-0.627875,0.207708,-0.704816,0.071157,-0.744911,0.000000,-0.744911,0.000000,-0.750000,-0.500000,-0.750000,-0.500000,0.750000,0.000000,0.750000,0.000000,0.744911,0.000000,0.744911,
$1*%
G04 Aperture macros list end*
%ADD10RoundRect,0.250000X-0.337500X-0.475000X0.337500X-0.475000X0.337500X0.475000X-0.337500X0.475000X0*%
%ADD11FreePoly0,0.000000*%
%ADD12FreePoly1,0.000000*%
%ADD13RoundRect,0.250000X-0.350000X-0.450000X0.350000X-0.450000X0.350000X0.450000X-0.350000X0.450000X0*%
%ADD14C,3.200000*%
%ADD15R,2.600000X2.600000*%
%ADD16C,2.600000*%
%ADD17R,2.500000X2.500000*%
%ADD18R,0.711200X0.228600*%
%ADD19R,1.699999X1.300000*%
%ADD20R,5.699998X5.499999*%
%ADD21R,4.240000X3.810000*%
%ADD22RoundRect,0.162500X-0.837500X-0.162500X0.837500X-0.162500X0.837500X0.162500X-0.837500X0.162500X0*%
%ADD23R,1.460500X0.558800*%
%ADD24RoundRect,0.225000X-0.225000X-0.375000X0.225000X-0.375000X0.225000X0.375000X-0.225000X0.375000X0*%
%ADD25RoundRect,0.100000X-0.217500X-0.100000X0.217500X-0.100000X0.217500X0.100000X-0.217500X0.100000X0*%
G04 APERTURE END LIST*
D10*
G04 #@! TO.C,C5*
X95439500Y-104267000D03*
X97514500Y-104267000D03*
G04 #@! TD*
D11*
G04 #@! TO.C,JP2*
X163165000Y-114427000D03*
D12*
X164465000Y-114427000D03*
G04 #@! TD*
D10*
G04 #@! TO.C,C6*
X95439500Y-111760000D03*
X97514500Y-111760000D03*
G04 #@! TD*
G04 #@! TO.C,C7*
X95461000Y-118237000D03*
X97536000Y-118237000D03*
G04 #@! TD*
G04 #@! TO.C,C4*
X95566500Y-96393000D03*
X97641500Y-96393000D03*
G04 #@! TD*
D13*
G04 #@! TO.C,R2*
X152178000Y-80518000D03*
X154178000Y-80518000D03*
G04 #@! TD*
D14*
G04 #@! TO.C,H4*
X182245000Y-125857000D03*
G04 #@! TD*
D15*
G04 #@! TO.C,J6*
X144202150Y-63373000D03*
D16*
X149282150Y-63373000D03*
G04 #@! TD*
D17*
G04 #@! TO.C,TP4*
X112395000Y-94615000D03*
G04 #@! TD*
D10*
G04 #@! TO.C,C1*
X95566500Y-76835000D03*
X97641500Y-76835000D03*
G04 #@! TD*
D18*
G04 #@! TO.C,U2*
X177804376Y-112256811D03*
X177804376Y-112756937D03*
X177804376Y-113257063D03*
X177804376Y-113757189D03*
X179404576Y-113757189D03*
X179404576Y-113257063D03*
X179404576Y-112756937D03*
X179404576Y-112256811D03*
G04 #@! TD*
D19*
G04 #@! TO.C,U1*
X130066001Y-113793001D03*
X130066001Y-118362999D03*
D20*
X136506001Y-116078000D03*
G04 #@! TD*
D14*
G04 #@! TO.C,H2*
X181737000Y-41148000D03*
G04 #@! TD*
D16*
G04 #@! TO.C,J7*
X173285150Y-41910000D03*
D15*
X168205150Y-41910000D03*
G04 #@! TD*
D11*
G04 #@! TO.C,JP1*
X163449000Y-102870000D03*
D12*
X164749000Y-102870000D03*
G04 #@! TD*
D15*
G04 #@! TO.C,J4*
X121215150Y-63119000D03*
D16*
X126295150Y-63119000D03*
G04 #@! TD*
D21*
G04 #@! TO.C,F1*
X131044000Y-103378000D03*
X137414000Y-103378000D03*
G04 #@! TD*
D15*
G04 #@! TO.C,J2*
X100768150Y-62611000D03*
D16*
X105848150Y-62611000D03*
G04 #@! TD*
D13*
G04 #@! TO.C,R5*
X152432000Y-94361000D03*
X154432000Y-94361000D03*
G04 #@! TD*
D22*
G04 #@! TO.C,D2*
X131629150Y-78359000D03*
X131629150Y-80259000D03*
X135049150Y-79309000D03*
G04 #@! TD*
D16*
G04 #@! TO.C,J5*
X149531150Y-42469000D03*
D15*
X144451150Y-42469000D03*
G04 #@! TD*
D13*
G04 #@! TO.C,R1*
X152178000Y-75819000D03*
X154178000Y-75819000D03*
G04 #@! TD*
D23*
G04 #@! TO.C,Q1*
X168795700Y-82169000D03*
X168795700Y-83439000D03*
X168795700Y-84709000D03*
X168795700Y-85979000D03*
X174244000Y-85979000D03*
X174244000Y-84709000D03*
X174244000Y-83439000D03*
X174244000Y-82169000D03*
G04 #@! TD*
D17*
G04 #@! TO.C,TP2*
X112395000Y-80772000D03*
G04 #@! TD*
D24*
G04 #@! TO.C,D1*
X175770000Y-102362000D03*
X179070000Y-102362000D03*
G04 #@! TD*
D10*
G04 #@! TO.C,C3*
X95439500Y-90297000D03*
X97514500Y-90297000D03*
G04 #@! TD*
D17*
G04 #@! TO.C,TP1*
X112522000Y-74676000D03*
G04 #@! TD*
D22*
G04 #@! TO.C,D3*
X131581000Y-87823000D03*
X131581000Y-89723000D03*
X135001000Y-88773000D03*
G04 #@! TD*
D13*
G04 #@! TO.C,R4*
X152305000Y-89789000D03*
X154305000Y-89789000D03*
G04 #@! TD*
D16*
G04 #@! TO.C,J1*
X105335150Y-41961000D03*
D15*
X100255150Y-41961000D03*
G04 #@! TD*
D17*
G04 #@! TO.C,TP3*
X112325150Y-87398000D03*
G04 #@! TD*
D15*
G04 #@! TO.C,J8*
X168586150Y-62992000D03*
D16*
X173666150Y-62992000D03*
G04 #@! TD*
G04 #@! TO.C,J3*
X125406150Y-41910000D03*
D15*
X120326150Y-41910000D03*
G04 #@! TD*
D13*
G04 #@! TO.C,R3*
X152178000Y-85217000D03*
X154178000Y-85217000D03*
G04 #@! TD*
D25*
G04 #@! TO.C,L1*
X177900500Y-118745000D03*
X178715500Y-118745000D03*
G04 #@! TD*
D10*
G04 #@! TO.C,C2*
X95566500Y-83947000D03*
X97641500Y-83947000D03*
G04 #@! TD*
D14*
G04 #@! TO.C,H1*
X92329000Y-40259000D03*
G04 #@! TD*
G04 #@! TO.C,H3*
X96393000Y-126492000D03*
G04 #@! TD*
M02*
