M48
; DRILL file {KiCad 8.0.5} date 2024-11-24T21:54:12-0600
; FORMAT={-:-/ absolute / metric / decimal}
; #@! TF.CreationDate,2024-11-24T21:54:12-06:00
; #@! TF.GenerationSoftware,Kicad,Pcbnew,8.0.5
; #@! TF.FileFunction,Plated,1,2,PTH
FMAT,2
METRIC
; #@! TA.AperFunction,Plated,PTH,ViaDrill
T1C0.300
; #@! TA.AperFunction,Plated,PTH,ComponentDrill
T2C0.813
; #@! TA.AperFunction,Plated,PTH,ComponentDrill
T3C1.000
; #@! TA.AperFunction,Plated,PTH,ComponentDrill
T4C1.300
%
G90
G05
T1
X124.75Y-82.75
X125.0Y-89.5
X125.0Y-95.5
X125.5Y-92.0
X127.0Y-101.5
X134.5Y-83.0
X134.5Y-96.5
X134.5Y-103.0
X140.0Y-85.84
T2
X137.69Y-80.19
X137.69Y-82.73
X137.69Y-85.27
X137.69Y-87.81
X137.69Y-94.69
X137.69Y-97.23
X137.69Y-99.77
X137.69Y-102.31
X145.31Y-80.19
X145.31Y-82.73
X145.31Y-85.27
X145.31Y-87.81
X145.31Y-94.69
X145.31Y-97.23
X145.31Y-99.77
X145.31Y-102.31
T3
X122.0Y-85.225
X122.0Y-87.765
X122.0Y-100.0
T4
X123.455Y-74.0
X128.535Y-74.0
X152.75Y-96.25
X152.75Y-101.33
M30
