%TF.GenerationSoftware,KiCad,Pcbnew,8.0.5*%
%TF.CreationDate,2024-11-24T21:54:06-06:00*%
%TF.ProjectId,moisture_sensor,6d6f6973-7475-4726-955f-73656e736f72,rev?*%
%TF.SameCoordinates,Original*%
%TF.FileFunction,Legend,Top*%
%TF.FilePolarity,Positive*%
%FSLAX46Y46*%
G04 Gerber Fmt 4.6, Leading zero omitted, Abs format (unit mm)*
G04 Created by KiCad (PCBNEW 8.0.5) date 2024-11-24 21:54:06*
%MOMM*%
%LPD*%
G01*
G04 APERTURE LIST*
G04 Aperture macros list*
%AMRoundRect*
0 Rectangle with rounded corners*
0 $1 Rounding radius*
0 $2 $3 $4 $5 $6 $7 $8 $9 X,Y pos of 4 corners*
0 Add a 4 corners polygon primitive as box body*
4,1,4,$2,$3,$4,$5,$6,$7,$8,$9,$2,$3,0*
0 Add four circle primitives for the rounded corners*
1,1,$1+$1,$2,$3*
1,1,$1+$1,$4,$5*
1,1,$1+$1,$6,$7*
1,1,$1+$1,$8,$9*
0 Add four rect primitives between the rounded corners*
20,1,$1+$1,$2,$3,$4,$5,0*
20,1,$1+$1,$4,$5,$6,$7,0*
20,1,$1+$1,$6,$7,$8,$9,0*
20,1,$1+$1,$8,$9,$2,$3,0*%
G04 Aperture macros list end*
%ADD10C,0.150000*%
%ADD11C,0.120000*%
%ADD12C,0.152400*%
%ADD13RoundRect,0.250000X0.350000X0.450000X-0.350000X0.450000X-0.350000X-0.450000X0.350000X-0.450000X0*%
%ADD14R,1.700000X1.700000*%
%ADD15O,1.700000X1.700000*%
%ADD16RoundRect,0.250000X-0.350000X-0.450000X0.350000X-0.450000X0.350000X0.450000X-0.350000X0.450000X0*%
%ADD17R,1.524000X1.524000*%
%ADD18C,1.524000*%
%ADD19R,2.600000X2.600000*%
%ADD20C,2.600000*%
G04 APERTURE END LIST*
D10*
X129941733Y-106313619D02*
X129608400Y-105837428D01*
X129370305Y-106313619D02*
X129370305Y-105313619D01*
X129370305Y-105313619D02*
X129751257Y-105313619D01*
X129751257Y-105313619D02*
X129846495Y-105361238D01*
X129846495Y-105361238D02*
X129894114Y-105408857D01*
X129894114Y-105408857D02*
X129941733Y-105504095D01*
X129941733Y-105504095D02*
X129941733Y-105646952D01*
X129941733Y-105646952D02*
X129894114Y-105742190D01*
X129894114Y-105742190D02*
X129846495Y-105789809D01*
X129846495Y-105789809D02*
X129751257Y-105837428D01*
X129751257Y-105837428D02*
X129370305Y-105837428D01*
X130275067Y-105313619D02*
X130941733Y-105313619D01*
X130941733Y-105313619D02*
X130513162Y-106313619D01*
X121666666Y-82349819D02*
X121666666Y-83064104D01*
X121666666Y-83064104D02*
X121619047Y-83206961D01*
X121619047Y-83206961D02*
X121523809Y-83302200D01*
X121523809Y-83302200D02*
X121380952Y-83349819D01*
X121380952Y-83349819D02*
X121285714Y-83349819D01*
X122666666Y-83349819D02*
X122095238Y-83349819D01*
X122380952Y-83349819D02*
X122380952Y-82349819D01*
X122380952Y-82349819D02*
X122285714Y-82492676D01*
X122285714Y-82492676D02*
X122190476Y-82587914D01*
X122190476Y-82587914D02*
X122095238Y-82635533D01*
X129941733Y-100063619D02*
X129608400Y-99587428D01*
X129370305Y-100063619D02*
X129370305Y-99063619D01*
X129370305Y-99063619D02*
X129751257Y-99063619D01*
X129751257Y-99063619D02*
X129846495Y-99111238D01*
X129846495Y-99111238D02*
X129894114Y-99158857D01*
X129894114Y-99158857D02*
X129941733Y-99254095D01*
X129941733Y-99254095D02*
X129941733Y-99396952D01*
X129941733Y-99396952D02*
X129894114Y-99492190D01*
X129894114Y-99492190D02*
X129846495Y-99539809D01*
X129846495Y-99539809D02*
X129751257Y-99587428D01*
X129751257Y-99587428D02*
X129370305Y-99587428D01*
X130798876Y-99063619D02*
X130608400Y-99063619D01*
X130608400Y-99063619D02*
X130513162Y-99111238D01*
X130513162Y-99111238D02*
X130465543Y-99158857D01*
X130465543Y-99158857D02*
X130370305Y-99301714D01*
X130370305Y-99301714D02*
X130322686Y-99492190D01*
X130322686Y-99492190D02*
X130322686Y-99873142D01*
X130322686Y-99873142D02*
X130370305Y-99968380D01*
X130370305Y-99968380D02*
X130417924Y-100016000D01*
X130417924Y-100016000D02*
X130513162Y-100063619D01*
X130513162Y-100063619D02*
X130703638Y-100063619D01*
X130703638Y-100063619D02*
X130798876Y-100016000D01*
X130798876Y-100016000D02*
X130846495Y-99968380D01*
X130846495Y-99968380D02*
X130894114Y-99873142D01*
X130894114Y-99873142D02*
X130894114Y-99635047D01*
X130894114Y-99635047D02*
X130846495Y-99539809D01*
X130846495Y-99539809D02*
X130798876Y-99492190D01*
X130798876Y-99492190D02*
X130703638Y-99444571D01*
X130703638Y-99444571D02*
X130513162Y-99444571D01*
X130513162Y-99444571D02*
X130417924Y-99492190D01*
X130417924Y-99492190D02*
X130370305Y-99539809D01*
X130370305Y-99539809D02*
X130322686Y-99635047D01*
X129833333Y-83804819D02*
X129500000Y-83328628D01*
X129261905Y-83804819D02*
X129261905Y-82804819D01*
X129261905Y-82804819D02*
X129642857Y-82804819D01*
X129642857Y-82804819D02*
X129738095Y-82852438D01*
X129738095Y-82852438D02*
X129785714Y-82900057D01*
X129785714Y-82900057D02*
X129833333Y-82995295D01*
X129833333Y-82995295D02*
X129833333Y-83138152D01*
X129833333Y-83138152D02*
X129785714Y-83233390D01*
X129785714Y-83233390D02*
X129738095Y-83281009D01*
X129738095Y-83281009D02*
X129642857Y-83328628D01*
X129642857Y-83328628D02*
X129261905Y-83328628D01*
X130785714Y-83804819D02*
X130214286Y-83804819D01*
X130500000Y-83804819D02*
X130500000Y-82804819D01*
X130500000Y-82804819D02*
X130404762Y-82947676D01*
X130404762Y-82947676D02*
X130309524Y-83042914D01*
X130309524Y-83042914D02*
X130214286Y-83090533D01*
X129941733Y-97113619D02*
X129608400Y-96637428D01*
X129370305Y-97113619D02*
X129370305Y-96113619D01*
X129370305Y-96113619D02*
X129751257Y-96113619D01*
X129751257Y-96113619D02*
X129846495Y-96161238D01*
X129846495Y-96161238D02*
X129894114Y-96208857D01*
X129894114Y-96208857D02*
X129941733Y-96304095D01*
X129941733Y-96304095D02*
X129941733Y-96446952D01*
X129941733Y-96446952D02*
X129894114Y-96542190D01*
X129894114Y-96542190D02*
X129846495Y-96589809D01*
X129846495Y-96589809D02*
X129751257Y-96637428D01*
X129751257Y-96637428D02*
X129370305Y-96637428D01*
X130846495Y-96113619D02*
X130370305Y-96113619D01*
X130370305Y-96113619D02*
X130322686Y-96589809D01*
X130322686Y-96589809D02*
X130370305Y-96542190D01*
X130370305Y-96542190D02*
X130465543Y-96494571D01*
X130465543Y-96494571D02*
X130703638Y-96494571D01*
X130703638Y-96494571D02*
X130798876Y-96542190D01*
X130798876Y-96542190D02*
X130846495Y-96589809D01*
X130846495Y-96589809D02*
X130894114Y-96685047D01*
X130894114Y-96685047D02*
X130894114Y-96923142D01*
X130894114Y-96923142D02*
X130846495Y-97018380D01*
X130846495Y-97018380D02*
X130798876Y-97066000D01*
X130798876Y-97066000D02*
X130703638Y-97113619D01*
X130703638Y-97113619D02*
X130465543Y-97113619D01*
X130465543Y-97113619D02*
X130370305Y-97066000D01*
X130370305Y-97066000D02*
X130322686Y-97018380D01*
X129941733Y-94163619D02*
X129608400Y-93687428D01*
X129370305Y-94163619D02*
X129370305Y-93163619D01*
X129370305Y-93163619D02*
X129751257Y-93163619D01*
X129751257Y-93163619D02*
X129846495Y-93211238D01*
X129846495Y-93211238D02*
X129894114Y-93258857D01*
X129894114Y-93258857D02*
X129941733Y-93354095D01*
X129941733Y-93354095D02*
X129941733Y-93496952D01*
X129941733Y-93496952D02*
X129894114Y-93592190D01*
X129894114Y-93592190D02*
X129846495Y-93639809D01*
X129846495Y-93639809D02*
X129751257Y-93687428D01*
X129751257Y-93687428D02*
X129370305Y-93687428D01*
X130798876Y-93496952D02*
X130798876Y-94163619D01*
X130560781Y-93116000D02*
X130322686Y-93830285D01*
X130322686Y-93830285D02*
X130941733Y-93830285D01*
X140738095Y-97954819D02*
X140738095Y-98764342D01*
X140738095Y-98764342D02*
X140785714Y-98859580D01*
X140785714Y-98859580D02*
X140833333Y-98907200D01*
X140833333Y-98907200D02*
X140928571Y-98954819D01*
X140928571Y-98954819D02*
X141119047Y-98954819D01*
X141119047Y-98954819D02*
X141214285Y-98907200D01*
X141214285Y-98907200D02*
X141261904Y-98859580D01*
X141261904Y-98859580D02*
X141309523Y-98764342D01*
X141309523Y-98764342D02*
X141309523Y-97954819D01*
X141738095Y-98050057D02*
X141785714Y-98002438D01*
X141785714Y-98002438D02*
X141880952Y-97954819D01*
X141880952Y-97954819D02*
X142119047Y-97954819D01*
X142119047Y-97954819D02*
X142214285Y-98002438D01*
X142214285Y-98002438D02*
X142261904Y-98050057D01*
X142261904Y-98050057D02*
X142309523Y-98145295D01*
X142309523Y-98145295D02*
X142309523Y-98240533D01*
X142309523Y-98240533D02*
X142261904Y-98383390D01*
X142261904Y-98383390D02*
X141690476Y-98954819D01*
X141690476Y-98954819D02*
X142309523Y-98954819D01*
X137690000Y-92620819D02*
X137690000Y-92858914D01*
X137451905Y-92763676D02*
X137690000Y-92858914D01*
X137690000Y-92858914D02*
X137928095Y-92763676D01*
X137547143Y-93049390D02*
X137690000Y-92858914D01*
X137690000Y-92858914D02*
X137832857Y-93049390D01*
X137690000Y-92620819D02*
X137690000Y-92858914D01*
X137451905Y-92763676D02*
X137690000Y-92858914D01*
X137690000Y-92858914D02*
X137928095Y-92763676D01*
X137547143Y-93049390D02*
X137690000Y-92858914D01*
X137690000Y-92858914D02*
X137832857Y-93049390D01*
X129941733Y-91213619D02*
X129608400Y-90737428D01*
X129370305Y-91213619D02*
X129370305Y-90213619D01*
X129370305Y-90213619D02*
X129751257Y-90213619D01*
X129751257Y-90213619D02*
X129846495Y-90261238D01*
X129846495Y-90261238D02*
X129894114Y-90308857D01*
X129894114Y-90308857D02*
X129941733Y-90404095D01*
X129941733Y-90404095D02*
X129941733Y-90546952D01*
X129941733Y-90546952D02*
X129894114Y-90642190D01*
X129894114Y-90642190D02*
X129846495Y-90689809D01*
X129846495Y-90689809D02*
X129751257Y-90737428D01*
X129751257Y-90737428D02*
X129370305Y-90737428D01*
X130275067Y-90213619D02*
X130894114Y-90213619D01*
X130894114Y-90213619D02*
X130560781Y-90594571D01*
X130560781Y-90594571D02*
X130703638Y-90594571D01*
X130703638Y-90594571D02*
X130798876Y-90642190D01*
X130798876Y-90642190D02*
X130846495Y-90689809D01*
X130846495Y-90689809D02*
X130894114Y-90785047D01*
X130894114Y-90785047D02*
X130894114Y-91023142D01*
X130894114Y-91023142D02*
X130846495Y-91118380D01*
X130846495Y-91118380D02*
X130798876Y-91166000D01*
X130798876Y-91166000D02*
X130703638Y-91213619D01*
X130703638Y-91213619D02*
X130417924Y-91213619D01*
X130417924Y-91213619D02*
X130322686Y-91166000D01*
X130322686Y-91166000D02*
X130275067Y-91118380D01*
X140738095Y-83454819D02*
X140738095Y-84264342D01*
X140738095Y-84264342D02*
X140785714Y-84359580D01*
X140785714Y-84359580D02*
X140833333Y-84407200D01*
X140833333Y-84407200D02*
X140928571Y-84454819D01*
X140928571Y-84454819D02*
X141119047Y-84454819D01*
X141119047Y-84454819D02*
X141214285Y-84407200D01*
X141214285Y-84407200D02*
X141261904Y-84359580D01*
X141261904Y-84359580D02*
X141309523Y-84264342D01*
X141309523Y-84264342D02*
X141309523Y-83454819D01*
X142309523Y-84454819D02*
X141738095Y-84454819D01*
X142023809Y-84454819D02*
X142023809Y-83454819D01*
X142023809Y-83454819D02*
X141928571Y-83597676D01*
X141928571Y-83597676D02*
X141833333Y-83692914D01*
X141833333Y-83692914D02*
X141738095Y-83740533D01*
X137690000Y-78120819D02*
X137690000Y-78358914D01*
X137451905Y-78263676D02*
X137690000Y-78358914D01*
X137690000Y-78358914D02*
X137928095Y-78263676D01*
X137547143Y-78549390D02*
X137690000Y-78358914D01*
X137690000Y-78358914D02*
X137832857Y-78549390D01*
X137690000Y-78120819D02*
X137690000Y-78358914D01*
X137451905Y-78263676D02*
X137690000Y-78358914D01*
X137690000Y-78358914D02*
X137928095Y-78263676D01*
X137547143Y-78549390D02*
X137690000Y-78358914D01*
X137690000Y-78358914D02*
X137832857Y-78549390D01*
X129833333Y-86804819D02*
X129500000Y-86328628D01*
X129261905Y-86804819D02*
X129261905Y-85804819D01*
X129261905Y-85804819D02*
X129642857Y-85804819D01*
X129642857Y-85804819D02*
X129738095Y-85852438D01*
X129738095Y-85852438D02*
X129785714Y-85900057D01*
X129785714Y-85900057D02*
X129833333Y-85995295D01*
X129833333Y-85995295D02*
X129833333Y-86138152D01*
X129833333Y-86138152D02*
X129785714Y-86233390D01*
X129785714Y-86233390D02*
X129738095Y-86281009D01*
X129738095Y-86281009D02*
X129642857Y-86328628D01*
X129642857Y-86328628D02*
X129261905Y-86328628D01*
X130214286Y-85900057D02*
X130261905Y-85852438D01*
X130261905Y-85852438D02*
X130357143Y-85804819D01*
X130357143Y-85804819D02*
X130595238Y-85804819D01*
X130595238Y-85804819D02*
X130690476Y-85852438D01*
X130690476Y-85852438D02*
X130738095Y-85900057D01*
X130738095Y-85900057D02*
X130785714Y-85995295D01*
X130785714Y-85995295D02*
X130785714Y-86090533D01*
X130785714Y-86090533D02*
X130738095Y-86233390D01*
X130738095Y-86233390D02*
X130166667Y-86804819D01*
X130166667Y-86804819D02*
X130785714Y-86804819D01*
X121666666Y-97124819D02*
X121666666Y-97839104D01*
X121666666Y-97839104D02*
X121619047Y-97981961D01*
X121619047Y-97981961D02*
X121523809Y-98077200D01*
X121523809Y-98077200D02*
X121380952Y-98124819D01*
X121380952Y-98124819D02*
X121285714Y-98124819D01*
X122571428Y-97458152D02*
X122571428Y-98124819D01*
X122333333Y-97077200D02*
X122095238Y-97791485D01*
X122095238Y-97791485D02*
X122714285Y-97791485D01*
X158464819Y-99123333D02*
X159179104Y-99123333D01*
X159179104Y-99123333D02*
X159321961Y-99170952D01*
X159321961Y-99170952D02*
X159417200Y-99266190D01*
X159417200Y-99266190D02*
X159464819Y-99409047D01*
X159464819Y-99409047D02*
X159464819Y-99504285D01*
X158464819Y-98742380D02*
X158464819Y-98123333D01*
X158464819Y-98123333D02*
X158845771Y-98456666D01*
X158845771Y-98456666D02*
X158845771Y-98313809D01*
X158845771Y-98313809D02*
X158893390Y-98218571D01*
X158893390Y-98218571D02*
X158941009Y-98170952D01*
X158941009Y-98170952D02*
X159036247Y-98123333D01*
X159036247Y-98123333D02*
X159274342Y-98123333D01*
X159274342Y-98123333D02*
X159369580Y-98170952D01*
X159369580Y-98170952D02*
X159417200Y-98218571D01*
X159417200Y-98218571D02*
X159464819Y-98313809D01*
X159464819Y-98313809D02*
X159464819Y-98599523D01*
X159464819Y-98599523D02*
X159417200Y-98694761D01*
X159417200Y-98694761D02*
X159369580Y-98742380D01*
X125661666Y-67194819D02*
X125661666Y-67909104D01*
X125661666Y-67909104D02*
X125614047Y-68051961D01*
X125614047Y-68051961D02*
X125518809Y-68147200D01*
X125518809Y-68147200D02*
X125375952Y-68194819D01*
X125375952Y-68194819D02*
X125280714Y-68194819D01*
X126090238Y-67290057D02*
X126137857Y-67242438D01*
X126137857Y-67242438D02*
X126233095Y-67194819D01*
X126233095Y-67194819D02*
X126471190Y-67194819D01*
X126471190Y-67194819D02*
X126566428Y-67242438D01*
X126566428Y-67242438D02*
X126614047Y-67290057D01*
X126614047Y-67290057D02*
X126661666Y-67385295D01*
X126661666Y-67385295D02*
X126661666Y-67480533D01*
X126661666Y-67480533D02*
X126614047Y-67623390D01*
X126614047Y-67623390D02*
X126042619Y-68194819D01*
X126042619Y-68194819D02*
X126661666Y-68194819D01*
D11*
%TO.C,R7*%
X130335464Y-103473800D02*
X129881336Y-103473800D01*
X130335464Y-104943800D02*
X129881336Y-104943800D01*
%TO.C,J1*%
X120670000Y-83895000D02*
X122000000Y-83895000D01*
X120670000Y-85225000D02*
X120670000Y-83895000D01*
X120670000Y-86495000D02*
X120670000Y-89095000D01*
X120670000Y-86495000D02*
X123330000Y-86495000D01*
X120670000Y-89095000D02*
X123330000Y-89095000D01*
X123330000Y-86495000D02*
X123330000Y-89095000D01*
%TO.C,R6*%
X129881336Y-100523800D02*
X130335464Y-100523800D01*
X129881336Y-101993800D02*
X130335464Y-101993800D01*
%TO.C,R1*%
X129772936Y-84265000D02*
X130227064Y-84265000D01*
X129772936Y-85735000D02*
X130227064Y-85735000D01*
%TO.C,R5*%
X129881336Y-97573800D02*
X130335464Y-97573800D01*
X129881336Y-99043800D02*
X130335464Y-99043800D01*
%TO.C,R4*%
X129881336Y-94623800D02*
X130335464Y-94623800D01*
X129881336Y-96093800D02*
X130335464Y-96093800D01*
D12*
%TO.C,U2*%
X138198000Y-95784740D02*
X138198000Y-96260262D01*
X138198000Y-98199738D02*
X138198000Y-98800262D01*
X138198000Y-100739738D02*
X138198000Y-101340262D01*
X138198000Y-103326000D02*
X144802000Y-103326000D01*
X144802000Y-93674000D02*
X138666942Y-93674000D01*
X144802000Y-96260262D02*
X144802000Y-95659738D01*
X144802000Y-98800262D02*
X144802000Y-98199738D01*
X144802000Y-101340262D02*
X144802000Y-100739738D01*
X141804800Y-93674000D02*
G75*
G02*
X141195200Y-93674000I-304800J0D01*
G01*
D11*
%TO.C,R3*%
X129881336Y-91673800D02*
X130335464Y-91673800D01*
X129881336Y-93143800D02*
X130335464Y-93143800D01*
D12*
%TO.C,U1*%
X138198000Y-81284740D02*
X138198000Y-81760262D01*
X138198000Y-83699738D02*
X138198000Y-84300262D01*
X138198000Y-86239738D02*
X138198000Y-86840262D01*
X138198000Y-88826000D02*
X144802000Y-88826000D01*
X144802000Y-79174000D02*
X138666942Y-79174000D01*
X144802000Y-81760262D02*
X144802000Y-81159738D01*
X144802000Y-84300262D02*
X144802000Y-83699738D01*
X144802000Y-86840262D02*
X144802000Y-86239738D01*
X141804800Y-79174000D02*
G75*
G02*
X141195200Y-79174000I-304800J0D01*
G01*
D11*
%TO.C,R2*%
X129772936Y-87265000D02*
X130227064Y-87265000D01*
X129772936Y-88735000D02*
X130227064Y-88735000D01*
%TO.C,J4*%
X120670000Y-98670000D02*
X122000000Y-98670000D01*
X120670000Y-100000000D02*
X120670000Y-98670000D01*
X120670000Y-101270000D02*
X120670000Y-101330000D01*
X120670000Y-101270000D02*
X123330000Y-101270000D01*
X120670000Y-101330000D02*
X123330000Y-101330000D01*
X123330000Y-101270000D02*
X123330000Y-101330000D01*
%TO.C,J3*%
X147850000Y-93410000D02*
X147850000Y-93910000D01*
X148090000Y-93650000D02*
X148090000Y-103930000D01*
X148590000Y-93410000D02*
X147850000Y-93410000D01*
X148650000Y-93650000D02*
X148650000Y-103930000D01*
X150150000Y-93650000D02*
X150150000Y-103930000D01*
X151511000Y-100296000D02*
X151476000Y-100261000D01*
X151727000Y-100103000D02*
X151681000Y-100056000D01*
X153819000Y-102605000D02*
X153773000Y-102558000D01*
X154025000Y-102400000D02*
X153989000Y-102365000D01*
X155051000Y-93650000D02*
X155051000Y-103930000D01*
X158011000Y-93650000D02*
X148090000Y-93650000D01*
X158011000Y-93650000D02*
X158011000Y-103930000D01*
X158011000Y-103930000D02*
X148090000Y-103930000D01*
X151069747Y-96278805D02*
G75*
G02*
X151215000Y-95566000I1680254J28806D01*
G01*
X151215244Y-96933318D02*
G75*
G02*
X151070000Y-96250000I1534756J683318D01*
G01*
X152066958Y-94714573D02*
G75*
G02*
X153434000Y-94715000I683041J-1535420D01*
G01*
X153433042Y-97785427D02*
G75*
G02*
X152066000Y-97785000I-683042J1535427D01*
G01*
X154285427Y-95566958D02*
G75*
G02*
X154285000Y-96934000I-1535420J-683041D01*
G01*
X154430000Y-101330000D02*
G75*
G02*
X151070000Y-101330000I-1680000J0D01*
G01*
X151070000Y-101330000D02*
G75*
G02*
X154430000Y-101330000I1680000J0D01*
G01*
%TO.C,J2*%
X120615000Y-78160000D02*
X120615000Y-78900000D01*
X120615000Y-78900000D02*
X121115000Y-78900000D01*
X120855000Y-68739000D02*
X120855000Y-78660000D01*
X120855000Y-68739000D02*
X131135000Y-68739000D01*
X120855000Y-71699000D02*
X131135000Y-71699000D01*
X120855000Y-76600000D02*
X131135000Y-76600000D01*
X120855000Y-78100000D02*
X131135000Y-78100000D01*
X120855000Y-78660000D02*
X131135000Y-78660000D01*
X127308000Y-75023000D02*
X127261000Y-75069000D01*
X127501000Y-75239000D02*
X127466000Y-75274000D01*
X129605000Y-72725000D02*
X129570000Y-72761000D01*
X129810000Y-72931000D02*
X129763000Y-72977000D01*
X131135000Y-68739000D02*
X131135000Y-78660000D01*
X121919573Y-74683042D02*
G75*
G02*
X121920000Y-73316000I1535420J683041D01*
G01*
X122771958Y-72464573D02*
G75*
G02*
X124139000Y-72465000I683041J-1535420D01*
G01*
X123483805Y-75680253D02*
G75*
G02*
X122771000Y-75535000I-28806J1680254D01*
G01*
X124138318Y-75534756D02*
G75*
G02*
X123455000Y-75680000I-683318J1534756D01*
G01*
X124990427Y-73316958D02*
G75*
G02*
X124990000Y-74684000I-1535427J-683042D01*
G01*
X130215000Y-74000000D02*
G75*
G02*
X126855000Y-74000000I-1680000J0D01*
G01*
X126855000Y-74000000D02*
G75*
G02*
X130215000Y-74000000I1680000J0D01*
G01*
%TD*%
%LPC*%
D13*
%TO.C,R7*%
X131108400Y-104208800D03*
X129108400Y-104208800D03*
%TD*%
D14*
%TO.C,J1*%
X122000000Y-85225000D03*
D15*
X122000000Y-87765000D03*
%TD*%
D16*
%TO.C,R6*%
X129108400Y-101258800D03*
X131108400Y-101258800D03*
%TD*%
%TO.C,R1*%
X129000000Y-85000000D03*
X131000000Y-85000000D03*
%TD*%
%TO.C,R5*%
X129108400Y-98308800D03*
X131108400Y-98308800D03*
%TD*%
%TO.C,R4*%
X129108400Y-95358800D03*
X131108400Y-95358800D03*
%TD*%
D17*
%TO.C,U2*%
X137690000Y-94690000D03*
D18*
X137690000Y-97230000D03*
X137690000Y-99770000D03*
X137690000Y-102310000D03*
X145310000Y-102310000D03*
X145310000Y-99770000D03*
X145310000Y-97230000D03*
X145310000Y-94690000D03*
%TD*%
D16*
%TO.C,R3*%
X129108400Y-92408800D03*
X131108400Y-92408800D03*
%TD*%
D17*
%TO.C,U1*%
X137690000Y-80190000D03*
D18*
X137690000Y-82730000D03*
X137690000Y-85270000D03*
X137690000Y-87810000D03*
X145310000Y-87810000D03*
X145310000Y-85270000D03*
X145310000Y-82730000D03*
X145310000Y-80190000D03*
%TD*%
D16*
%TO.C,R2*%
X129000000Y-88000000D03*
X131000000Y-88000000D03*
%TD*%
D14*
%TO.C,J4*%
X122000000Y-100000000D03*
%TD*%
D19*
%TO.C,J3*%
X152750000Y-96250000D03*
D20*
X152750000Y-101330000D03*
%TD*%
D19*
%TO.C,J2*%
X123455000Y-74000000D03*
D20*
X128535000Y-74000000D03*
%TD*%
%LPD*%
M02*
