%TF.GenerationSoftware,KiCad,Pcbnew,8.0.5*%
%TF.CreationDate,2024-11-24T21:54:13-06:00*%
%TF.ProjectId,moisture_sensor,6d6f6973-7475-4726-955f-73656e736f72,rev?*%
%TF.SameCoordinates,Original*%
%TF.FileFunction,Drillmap*%
%TF.FilePolarity,Positive*%
%FSLAX45Y45*%
G04 Gerber Fmt 4.5, Leading zero omitted, Abs format (unit mm)*
G04 Created by KiCad (PCBNEW 8.0.5) date 2024-11-24 21:54:13*
%MOMM*%
%LPD*%
G01*
G04 APERTURE LIST*
%ADD10C,0.050000*%
%ADD11C,0.200000*%
G04 APERTURE END LIST*
D10*
X11900000Y-6800000D02*
X15975000Y-6800000D01*
X15975000Y-10650000D01*
X11900000Y-10650000D01*
X11900000Y-6800000D01*
D11*
X12158277Y-10963984D02*
X12158277Y-10763984D01*
X12158277Y-10763984D02*
X12205896Y-10763984D01*
X12205896Y-10763984D02*
X12234467Y-10773508D01*
X12234467Y-10773508D02*
X12253515Y-10792555D01*
X12253515Y-10792555D02*
X12263039Y-10811603D01*
X12263039Y-10811603D02*
X12272562Y-10849698D01*
X12272562Y-10849698D02*
X12272562Y-10878270D01*
X12272562Y-10878270D02*
X12263039Y-10916365D01*
X12263039Y-10916365D02*
X12253515Y-10935412D01*
X12253515Y-10935412D02*
X12234467Y-10954460D01*
X12234467Y-10954460D02*
X12205896Y-10963984D01*
X12205896Y-10963984D02*
X12158277Y-10963984D01*
X12358277Y-10963984D02*
X12358277Y-10830650D01*
X12358277Y-10868746D02*
X12367801Y-10849698D01*
X12367801Y-10849698D02*
X12377324Y-10840174D01*
X12377324Y-10840174D02*
X12396372Y-10830650D01*
X12396372Y-10830650D02*
X12415420Y-10830650D01*
X12482086Y-10963984D02*
X12482086Y-10830650D01*
X12482086Y-10763984D02*
X12472562Y-10773508D01*
X12472562Y-10773508D02*
X12482086Y-10783031D01*
X12482086Y-10783031D02*
X12491610Y-10773508D01*
X12491610Y-10773508D02*
X12482086Y-10763984D01*
X12482086Y-10763984D02*
X12482086Y-10783031D01*
X12605896Y-10963984D02*
X12586848Y-10954460D01*
X12586848Y-10954460D02*
X12577324Y-10935412D01*
X12577324Y-10935412D02*
X12577324Y-10763984D01*
X12710658Y-10963984D02*
X12691610Y-10954460D01*
X12691610Y-10954460D02*
X12682086Y-10935412D01*
X12682086Y-10935412D02*
X12682086Y-10763984D01*
X12939229Y-10963984D02*
X12939229Y-10763984D01*
X12939229Y-10763984D02*
X13005896Y-10906841D01*
X13005896Y-10906841D02*
X13072562Y-10763984D01*
X13072562Y-10763984D02*
X13072562Y-10963984D01*
X13253515Y-10963984D02*
X13253515Y-10859222D01*
X13253515Y-10859222D02*
X13243991Y-10840174D01*
X13243991Y-10840174D02*
X13224943Y-10830650D01*
X13224943Y-10830650D02*
X13186848Y-10830650D01*
X13186848Y-10830650D02*
X13167801Y-10840174D01*
X13253515Y-10954460D02*
X13234467Y-10963984D01*
X13234467Y-10963984D02*
X13186848Y-10963984D01*
X13186848Y-10963984D02*
X13167801Y-10954460D01*
X13167801Y-10954460D02*
X13158277Y-10935412D01*
X13158277Y-10935412D02*
X13158277Y-10916365D01*
X13158277Y-10916365D02*
X13167801Y-10897317D01*
X13167801Y-10897317D02*
X13186848Y-10887793D01*
X13186848Y-10887793D02*
X13234467Y-10887793D01*
X13234467Y-10887793D02*
X13253515Y-10878270D01*
X13348753Y-10830650D02*
X13348753Y-11030650D01*
X13348753Y-10840174D02*
X13367801Y-10830650D01*
X13367801Y-10830650D02*
X13405896Y-10830650D01*
X13405896Y-10830650D02*
X13424943Y-10840174D01*
X13424943Y-10840174D02*
X13434467Y-10849698D01*
X13434467Y-10849698D02*
X13443991Y-10868746D01*
X13443991Y-10868746D02*
X13443991Y-10925889D01*
X13443991Y-10925889D02*
X13434467Y-10944936D01*
X13434467Y-10944936D02*
X13424943Y-10954460D01*
X13424943Y-10954460D02*
X13405896Y-10963984D01*
X13405896Y-10963984D02*
X13367801Y-10963984D01*
X13367801Y-10963984D02*
X13348753Y-10954460D01*
X13529705Y-10944936D02*
X13539229Y-10954460D01*
X13539229Y-10954460D02*
X13529705Y-10963984D01*
X13529705Y-10963984D02*
X13520182Y-10954460D01*
X13520182Y-10954460D02*
X13529705Y-10944936D01*
X13529705Y-10944936D02*
X13529705Y-10963984D01*
X13529705Y-10840174D02*
X13539229Y-10849698D01*
X13539229Y-10849698D02*
X13529705Y-10859222D01*
X13529705Y-10859222D02*
X13520182Y-10849698D01*
X13520182Y-10849698D02*
X13529705Y-10840174D01*
X13529705Y-10840174D02*
X13529705Y-10859222D01*
M02*
