%TF.GenerationSoftware,KiCad,Pcbnew,8.0.5*%
%TF.CreationDate,2024-10-29T07:25:13-05:00*%
%TF.ProjectId,Autonomous_Gardening_Rover_v2,4175746f-6e6f-46d6-9f75-735f47617264,rev?*%
%TF.SameCoordinates,Original*%
%TF.FileFunction,Soldermask,Top*%
%TF.FilePolarity,Negative*%
%FSLAX46Y46*%
G04 Gerber Fmt 4.6, Leading zero omitted, Abs format (unit mm)*
G04 Created by KiCad (PCBNEW 8.0.5) date 2024-10-29 07:25:13*
%MOMM*%
%LPD*%
G01*
G04 APERTURE LIST*
G04 Aperture macros list*
%AMRoundRect*
0 Rectangle with rounded corners*
0 $1 Rounding radius*
0 $2 $3 $4 $5 $6 $7 $8 $9 X,Y pos of 4 corners*
0 Add a 4 corners polygon primitive as box body*
4,1,4,$2,$3,$4,$5,$6,$7,$8,$9,$2,$3,0*
0 Add four circle primitives for the rounded corners*
1,1,$1+$1,$2,$3*
1,1,$1+$1,$4,$5*
1,1,$1+$1,$6,$7*
1,1,$1+$1,$8,$9*
0 Add four rect primitives between the rounded corners*
20,1,$1+$1,$2,$3,$4,$5,0*
20,1,$1+$1,$4,$5,$6,$7,0*
20,1,$1+$1,$6,$7,$8,$9,0*
20,1,$1+$1,$8,$9,$2,$3,0*%
%AMFreePoly0*
4,1,6,1.000000,0.000000,0.500000,-0.750000,-0.500000,-0.750000,-0.500000,0.750000,0.500000,0.750000,1.000000,0.000000,1.000000,0.000000,$1*%
G04 Aperture macros list end*
%ADD10RoundRect,0.250000X-0.350000X-0.450000X0.350000X-0.450000X0.350000X0.450000X-0.350000X0.450000X0*%
%ADD11R,2.600000X2.600000*%
%ADD12C,2.600000*%
%ADD13R,1.371600X1.371600*%
%ADD14C,1.371600*%
%ADD15C,2.000000*%
%ADD16C,3.200000*%
%ADD17RoundRect,0.250000X-0.337500X-0.475000X0.337500X-0.475000X0.337500X0.475000X-0.337500X0.475000X0*%
%ADD18O,1.600000X1.200000*%
%ADD19O,1.200000X1.200000*%
%ADD20R,2.500000X2.500000*%
%ADD21FreePoly0,180.000000*%
%ADD22FreePoly0,0.000000*%
%ADD23R,1.500000X1.500000*%
%ADD24RoundRect,0.175000X-0.175000X-0.325000X0.175000X-0.325000X0.175000X0.325000X-0.175000X0.325000X0*%
%ADD25RoundRect,0.150000X-0.200000X-0.150000X0.200000X-0.150000X0.200000X0.150000X-0.200000X0.150000X0*%
%ADD26R,1.500000X0.900000*%
%ADD27R,0.900000X1.500000*%
%ADD28C,0.600000*%
%ADD29R,3.900000X3.900000*%
%ADD30RoundRect,0.250000X-0.262500X-0.450000X0.262500X-0.450000X0.262500X0.450000X-0.262500X0.450000X0*%
%ADD31RoundRect,0.250000X0.337500X0.475000X-0.337500X0.475000X-0.337500X-0.475000X0.337500X-0.475000X0*%
%ADD32R,0.660400X0.203200*%
%ADD33R,0.203200X0.660400*%
%ADD34R,1.752600X1.600200*%
%ADD35RoundRect,0.062500X0.062500X0.350000X-0.062500X0.350000X-0.062500X-0.350000X0.062500X-0.350000X0*%
%ADD36RoundRect,0.062500X0.350000X0.062500X-0.350000X0.062500X-0.350000X-0.062500X0.350000X-0.062500X0*%
%ADD37RoundRect,0.250000X-0.475000X0.337500X-0.475000X-0.337500X0.475000X-0.337500X0.475000X0.337500X0*%
%ADD38R,1.700000X1.700000*%
%ADD39O,1.700000X1.700000*%
%ADD40R,1.300000X1.650000*%
%ADD41R,1.550000X1.425000*%
%ADD42R,1.900000X1.000000*%
%ADD43R,1.900000X1.800000*%
%ADD44R,1.380000X0.450000*%
G04 APERTURE END LIST*
D10*
%TO.C,R9*%
X99500000Y-53000000D03*
X101500000Y-53000000D03*
%TD*%
D11*
%TO.C,J3*%
X37000000Y-39180000D03*
D12*
X37000000Y-44260000D03*
X37000000Y-49340000D03*
X37000000Y-54420000D03*
X37000000Y-59500000D03*
%TD*%
D13*
%TO.C,U3*%
X96190000Y-82690000D03*
D14*
X96190000Y-85230000D03*
X96190000Y-87770000D03*
X96190000Y-90310000D03*
X103810000Y-90310000D03*
X103810000Y-87770000D03*
X103810000Y-85230000D03*
X103810000Y-82690000D03*
%TD*%
D13*
%TO.C,U4*%
X96190000Y-95690000D03*
D14*
X96190000Y-98230000D03*
X96190000Y-100770000D03*
X96190000Y-103310000D03*
X103810000Y-103310000D03*
X103810000Y-100770000D03*
X103810000Y-98230000D03*
X103810000Y-95690000D03*
%TD*%
D15*
%TO.C,SW2*%
X74750000Y-77750000D03*
X68250000Y-77750000D03*
X74750000Y-73250000D03*
X68250000Y-73250000D03*
%TD*%
%TO.C,SW1*%
X61750000Y-77750000D03*
X55250000Y-77750000D03*
X61750000Y-73250000D03*
X55250000Y-73250000D03*
%TD*%
D11*
%TO.C,J8*%
X62535000Y-123305000D03*
D12*
X67615000Y-123305000D03*
%TD*%
D11*
%TO.C,J6*%
X75955000Y-123305000D03*
D12*
X81035000Y-123305000D03*
%TD*%
D11*
%TO.C,J5*%
X89035000Y-123305000D03*
D12*
X94115000Y-123305000D03*
%TD*%
%TO.C,J4*%
X117500000Y-80420000D03*
D11*
X117500000Y-85500000D03*
%TD*%
D12*
%TO.C,J1*%
X37000000Y-87160000D03*
X37000000Y-82080000D03*
X37000000Y-77000000D03*
X37000000Y-71920000D03*
D11*
X37000000Y-66840000D03*
%TD*%
D12*
%TO.C,J11*%
X117500000Y-67920000D03*
D11*
X117500000Y-73000000D03*
%TD*%
D16*
%TO.C,H1*%
X50500000Y-38500000D03*
%TD*%
D12*
%TO.C,J24*%
X116660000Y-123500000D03*
X111580000Y-123500000D03*
X106500000Y-123500000D03*
D11*
X101420000Y-123500000D03*
%TD*%
D17*
%TO.C,C2*%
X62425000Y-41000000D03*
X64500000Y-41000000D03*
%TD*%
D10*
%TO.C,R5*%
X72000000Y-83500000D03*
X74000000Y-83500000D03*
%TD*%
%TO.C,R6*%
X67000000Y-83500000D03*
X69000000Y-83500000D03*
%TD*%
D18*
%TO.C,Q1*%
X72414724Y-94684724D03*
D19*
X73684724Y-95954724D03*
X74954724Y-94684724D03*
%TD*%
D12*
%TO.C,J7*%
X117000000Y-113820000D03*
X117000000Y-108740000D03*
X117000000Y-103660000D03*
X117000000Y-98580000D03*
D11*
X117000000Y-93500000D03*
%TD*%
D20*
%TO.C,TP4*%
X105500000Y-49000000D03*
%TD*%
D10*
%TO.C,R4*%
X61000000Y-85000000D03*
X63000000Y-85000000D03*
%TD*%
D16*
%TO.C,H3*%
X50500000Y-111000000D03*
%TD*%
D21*
%TO.C,JP1*%
X58000000Y-85000000D03*
D22*
X54000000Y-85000000D03*
D23*
X57200000Y-85000000D03*
X54800000Y-85000000D03*
%TD*%
D10*
%TO.C,R27*%
X95500000Y-78950000D03*
X97500000Y-78950000D03*
%TD*%
%TO.C,R1*%
X54000000Y-68500000D03*
X56000000Y-68500000D03*
%TD*%
D12*
%TO.C,J12*%
X55320000Y-123500000D03*
X50240000Y-123500000D03*
X45160000Y-123500000D03*
X40080000Y-123500000D03*
D11*
X35000000Y-123500000D03*
%TD*%
D24*
%TO.C,D4*%
X108000000Y-62250000D03*
D25*
X108000000Y-63950000D03*
X110000000Y-63950000D03*
X110000000Y-62050000D03*
%TD*%
D10*
%TO.C,R21*%
X107000000Y-75000000D03*
X109000000Y-75000000D03*
%TD*%
D26*
%TO.C,U1*%
X72150000Y-37380000D03*
X72150000Y-38650000D03*
X72150000Y-39920000D03*
X72150000Y-41190000D03*
X72150000Y-42460000D03*
X72150000Y-43730000D03*
X72150000Y-45000000D03*
X72150000Y-46270000D03*
X72150000Y-47540000D03*
X72150000Y-48810000D03*
X72150000Y-50080000D03*
X72150000Y-51350000D03*
X72150000Y-52620000D03*
X72150000Y-53890000D03*
D27*
X73915000Y-55140000D03*
X75185000Y-55140000D03*
X76455000Y-55140000D03*
X77725000Y-55140000D03*
X78995000Y-55140000D03*
X80265000Y-55140000D03*
X81535000Y-55140000D03*
X82805000Y-55140000D03*
X84075000Y-55140000D03*
X85345000Y-55140000D03*
X86615000Y-55140000D03*
X87885000Y-55140000D03*
D26*
X89650000Y-53890000D03*
X89650000Y-52620000D03*
X89650000Y-51350000D03*
X89650000Y-50080000D03*
X89650000Y-48810000D03*
X89650000Y-47540000D03*
X89650000Y-46270000D03*
X89650000Y-45000000D03*
X89650000Y-43730000D03*
X89650000Y-42460000D03*
X89650000Y-41190000D03*
X89650000Y-39920000D03*
X89650000Y-38650000D03*
X89650000Y-37380000D03*
D28*
X78000000Y-44400000D03*
X78000000Y-45800000D03*
X78700000Y-43700000D03*
X78700000Y-45100000D03*
X78700000Y-46500000D03*
X79400000Y-44400000D03*
D29*
X79400000Y-45100000D03*
D28*
X79400000Y-45800000D03*
X80100000Y-43700000D03*
X80100000Y-45100000D03*
X80100000Y-46500000D03*
X80800000Y-44400000D03*
X80800000Y-45800000D03*
%TD*%
D30*
%TO.C,R3*%
X54675000Y-89000000D03*
X56500000Y-89000000D03*
%TD*%
D10*
%TO.C,R7*%
X67000000Y-87500000D03*
X69000000Y-87500000D03*
%TD*%
D31*
%TO.C,C16*%
X81000000Y-72000000D03*
X78925000Y-72000000D03*
%TD*%
D17*
%TO.C,C4*%
X71000000Y-68000000D03*
X73075000Y-68000000D03*
%TD*%
D20*
%TO.C,TP5*%
X86000000Y-94500000D03*
%TD*%
D17*
%TO.C,C17*%
X78925000Y-67000000D03*
X81000000Y-67000000D03*
%TD*%
D32*
%TO.C,U6*%
X86476000Y-61999999D03*
X86476000Y-62400001D03*
X86476000Y-62800000D03*
X86476000Y-63200000D03*
X86476000Y-63599999D03*
X86476000Y-64000001D03*
D33*
X86999999Y-64524000D03*
X87400001Y-64524000D03*
X87800000Y-64524000D03*
X88200000Y-64524000D03*
X88599999Y-64524000D03*
X89000001Y-64524000D03*
D32*
X89524000Y-64000001D03*
X89524000Y-63599999D03*
X89524000Y-63200000D03*
X89524000Y-62800000D03*
X89524000Y-62400001D03*
X89524000Y-61999999D03*
D33*
X89000001Y-61476000D03*
X88599999Y-61476000D03*
X88200000Y-61476000D03*
X87800000Y-61476000D03*
X87400001Y-61476000D03*
X86999999Y-61476000D03*
D34*
X88000000Y-63000000D03*
%TD*%
D11*
%TO.C,U2*%
X106350000Y-57150000D03*
D35*
X107600000Y-59087500D03*
X107100000Y-59087500D03*
X106600000Y-59087500D03*
X106100000Y-59087500D03*
X105600000Y-59087500D03*
X105100000Y-59087500D03*
D36*
X104412500Y-58400000D03*
X104412500Y-57900000D03*
X104412500Y-57400000D03*
X104412500Y-56900000D03*
X104412500Y-56400000D03*
X104412500Y-55900000D03*
D35*
X105100000Y-55212500D03*
X105600000Y-55212500D03*
X106100000Y-55212500D03*
X106600000Y-55212500D03*
X107100000Y-55212500D03*
X107600000Y-55212500D03*
D36*
X108287500Y-55900000D03*
X108287500Y-56400000D03*
X108287500Y-56900000D03*
X108287500Y-57400000D03*
X108287500Y-57900000D03*
X108287500Y-58400000D03*
%TD*%
D20*
%TO.C,TP1*%
X91500000Y-78500000D03*
%TD*%
D37*
%TO.C,C6*%
X99500000Y-55500000D03*
X99500000Y-57575000D03*
%TD*%
D10*
%TO.C,R24*%
X103000000Y-78500000D03*
X105000000Y-78500000D03*
%TD*%
D20*
%TO.C,TP6*%
X57500000Y-58500000D03*
%TD*%
D10*
%TO.C,R8*%
X72000000Y-87500000D03*
X74000000Y-87500000D03*
%TD*%
D20*
%TO.C,TP9*%
X57500000Y-63500000D03*
%TD*%
D38*
%TO.C,J10*%
X62720000Y-107000000D03*
D39*
X65260000Y-107000000D03*
X67800000Y-107000000D03*
X70340000Y-107000000D03*
X72880000Y-107000000D03*
X75420000Y-107000000D03*
X77960000Y-107000000D03*
X80500000Y-107000000D03*
X83040000Y-107000000D03*
%TD*%
D10*
%TO.C,R2*%
X67000000Y-68000000D03*
X69000000Y-68000000D03*
%TD*%
D20*
%TO.C,TP3*%
X101500000Y-49000000D03*
%TD*%
%TO.C,TP2*%
X87000000Y-78500000D03*
%TD*%
D18*
%TO.C,Q2*%
X63414724Y-94684724D03*
D19*
X64684724Y-95954724D03*
X65954724Y-94684724D03*
%TD*%
D10*
%TO.C,R25*%
X95500000Y-73050000D03*
X97500000Y-73050000D03*
%TD*%
D31*
%TO.C,C15*%
X81000000Y-62000000D03*
X78925000Y-62000000D03*
%TD*%
D17*
%TO.C,C1*%
X62425000Y-45000000D03*
X64500000Y-45000000D03*
%TD*%
D37*
%TO.C,C5*%
X111500000Y-52500000D03*
X111500000Y-54575000D03*
%TD*%
D16*
%TO.C,H2*%
X108000000Y-111000000D03*
%TD*%
D10*
%TO.C,R26*%
X95500000Y-76000000D03*
X97500000Y-76000000D03*
%TD*%
%TO.C,R22*%
X107000000Y-78500000D03*
X109000000Y-78500000D03*
%TD*%
%TO.C,R23*%
X103000000Y-75000000D03*
X105000000Y-75000000D03*
%TD*%
D17*
%TO.C,C3*%
X60075000Y-68500000D03*
X58000000Y-68500000D03*
%TD*%
D40*
%TO.C,J2*%
X119400000Y-53500000D03*
D41*
X116825000Y-54387500D03*
D42*
X119400000Y-55325000D03*
D43*
X119400000Y-58025000D03*
D41*
X116825000Y-59362500D03*
D40*
X119400000Y-60250000D03*
D44*
X116740000Y-55575000D03*
X116740000Y-56225000D03*
X116740000Y-56875000D03*
X116740000Y-57525000D03*
X116740000Y-58175000D03*
%TD*%
D12*
%TO.C,J14*%
X37000000Y-114240000D03*
X37000000Y-109160000D03*
X37000000Y-104080000D03*
X37000000Y-99000000D03*
D11*
X37000000Y-93920000D03*
%TD*%
D20*
%TO.C,TP7*%
X57500000Y-53000000D03*
%TD*%
D16*
%TO.C,H4*%
X108000000Y-38500000D03*
%TD*%
M02*
