G04 #@! TF.GenerationSoftware,KiCad,Pcbnew,8.0.4*
G04 #@! TF.CreationDate,2024-10-22T19:19:06-05:00*
G04 #@! TF.ProjectId,PCB_split,5043425f-7370-46c6-9974-2e6b69636164,rev?*
G04 #@! TF.SameCoordinates,Original*
G04 #@! TF.FileFunction,Copper,L1,Top*
G04 #@! TF.FilePolarity,Positive*
%FSLAX46Y46*%
G04 Gerber Fmt 4.6, Leading zero omitted, Abs format (unit mm)*
G04 Created by KiCad (PCBNEW 8.0.4) date 2024-10-22 19:19:06*
%MOMM*%
%LPD*%
G01*
G04 APERTURE LIST*
G04 Aperture macros list*
%AMRoundRect*
0 Rectangle with rounded corners*
0 $1 Rounding radius*
0 $2 $3 $4 $5 $6 $7 $8 $9 X,Y pos of 4 corners*
0 Add a 4 corners polygon primitive as box body*
4,1,4,$2,$3,$4,$5,$6,$7,$8,$9,$2,$3,0*
0 Add four circle primitives for the rounded corners*
1,1,$1+$1,$2,$3*
1,1,$1+$1,$4,$5*
1,1,$1+$1,$6,$7*
1,1,$1+$1,$8,$9*
0 Add four rect primitives between the rounded corners*
20,1,$1+$1,$2,$3,$4,$5,0*
20,1,$1+$1,$4,$5,$6,$7,0*
20,1,$1+$1,$6,$7,$8,$9,0*
20,1,$1+$1,$8,$9,$2,$3,0*%
%AMFreePoly0*
4,1,19,0.500000,-0.750000,0.000000,-0.750000,0.000000,-0.744911,-0.071157,-0.744911,-0.207708,-0.704816,-0.327430,-0.627875,-0.420627,-0.520320,-0.479746,-0.390866,-0.500000,-0.250000,-0.500000,0.250000,-0.479746,0.390866,-0.420627,0.520320,-0.327430,0.627875,-0.207708,0.704816,-0.071157,0.744911,0.000000,0.744911,0.000000,0.750000,0.500000,0.750000,0.500000,-0.750000,0.500000,-0.750000,
$1*%
%AMFreePoly1*
4,1,19,0.000000,0.744911,0.071157,0.744911,0.207708,0.704816,0.327430,0.627875,0.420627,0.520320,0.479746,0.390866,0.500000,0.250000,0.500000,-0.250000,0.479746,-0.390866,0.420627,-0.520320,0.327430,-0.627875,0.207708,-0.704816,0.071157,-0.744911,0.000000,-0.744911,0.000000,-0.750000,-0.500000,-0.750000,-0.500000,0.750000,0.000000,0.750000,0.000000,0.744911,0.000000,0.744911,
$1*%
G04 Aperture macros list end*
G04 #@! TA.AperFunction,SMDPad,CuDef*
%ADD10RoundRect,0.250000X-0.337500X-0.475000X0.337500X-0.475000X0.337500X0.475000X-0.337500X0.475000X0*%
G04 #@! TD*
G04 #@! TA.AperFunction,SMDPad,CuDef*
%ADD11FreePoly0,0.000000*%
G04 #@! TD*
G04 #@! TA.AperFunction,SMDPad,CuDef*
%ADD12FreePoly1,0.000000*%
G04 #@! TD*
G04 #@! TA.AperFunction,SMDPad,CuDef*
%ADD13RoundRect,0.250000X-0.350000X-0.450000X0.350000X-0.450000X0.350000X0.450000X-0.350000X0.450000X0*%
G04 #@! TD*
G04 #@! TA.AperFunction,ComponentPad*
%ADD14C,2.600000*%
G04 #@! TD*
G04 #@! TA.AperFunction,ComponentPad*
%ADD15R,2.600000X2.600000*%
G04 #@! TD*
G04 #@! TA.AperFunction,SMDPad,CuDef*
%ADD16R,2.500000X2.500000*%
G04 #@! TD*
G04 #@! TA.AperFunction,SMDPad,CuDef*
%ADD17R,0.711200X0.228600*%
G04 #@! TD*
G04 #@! TA.AperFunction,SMDPad,CuDef*
%ADD18R,5.699998X5.499999*%
G04 #@! TD*
G04 #@! TA.AperFunction,SMDPad,CuDef*
%ADD19R,1.699999X1.300000*%
G04 #@! TD*
G04 #@! TA.AperFunction,SMDPad,CuDef*
%ADD20R,4.240000X3.810000*%
G04 #@! TD*
G04 #@! TA.AperFunction,SMDPad,CuDef*
%ADD21RoundRect,0.162500X-0.837500X-0.162500X0.837500X-0.162500X0.837500X0.162500X-0.837500X0.162500X0*%
G04 #@! TD*
G04 #@! TA.AperFunction,SMDPad,CuDef*
%ADD22R,1.460500X0.558800*%
G04 #@! TD*
G04 #@! TA.AperFunction,SMDPad,CuDef*
%ADD23RoundRect,0.225000X-0.225000X-0.375000X0.225000X-0.375000X0.225000X0.375000X-0.225000X0.375000X0*%
G04 #@! TD*
G04 #@! TA.AperFunction,SMDPad,CuDef*
%ADD24RoundRect,0.100000X-0.217500X-0.100000X0.217500X-0.100000X0.217500X0.100000X-0.217500X0.100000X0*%
G04 #@! TD*
G04 #@! TA.AperFunction,ViaPad*
%ADD25C,0.600000*%
G04 #@! TD*
G04 #@! TA.AperFunction,Conductor*
%ADD26C,0.762000*%
G04 #@! TD*
G04 #@! TA.AperFunction,Conductor*
%ADD27C,0.254000*%
G04 #@! TD*
G04 #@! TA.AperFunction,Conductor*
%ADD28C,1.016000*%
G04 #@! TD*
G04 #@! TA.AperFunction,Conductor*
%ADD29C,0.508000*%
G04 #@! TD*
G04 APERTURE END LIST*
D10*
G04 #@! TO.P,C5,2*
G04 #@! TO.N,/BST*
X97514500Y-104267000D03*
G04 #@! TO.P,C5,1*
G04 #@! TO.N,/SW*
X95439500Y-104267000D03*
G04 #@! TD*
D11*
G04 #@! TO.P,JP2,1,A*
G04 #@! TO.N,Net-(JP2-A)*
X163165000Y-114427000D03*
D12*
G04 #@! TO.P,JP2,2,B*
G04 #@! TO.N,+5V*
X164465000Y-114427000D03*
G04 #@! TD*
D10*
G04 #@! TO.P,C6,2*
G04 #@! TO.N,GND*
X97514500Y-111760000D03*
G04 #@! TO.P,C6,1*
G04 #@! TO.N,/SS*
X95439500Y-111760000D03*
G04 #@! TD*
G04 #@! TO.P,C7,2*
G04 #@! TO.N,GND*
X97536000Y-118237000D03*
G04 #@! TO.P,C7,1*
G04 #@! TO.N,Net-(JP2-A)*
X95461000Y-118237000D03*
G04 #@! TD*
G04 #@! TO.P,C4,2*
G04 #@! TO.N,GND*
X97641500Y-96393000D03*
G04 #@! TO.P,C4,1*
G04 #@! TO.N,+12V*
X95566500Y-96393000D03*
G04 #@! TD*
D13*
G04 #@! TO.P,R2,2*
G04 #@! TO.N,GND*
X154178000Y-80518000D03*
G04 #@! TO.P,R2,1*
G04 #@! TO.N,/FB*
X152178000Y-80518000D03*
G04 #@! TD*
D14*
G04 #@! TO.P,J6,2,Pin_2*
G04 #@! TO.N,GND*
X149282150Y-63373000D03*
D15*
G04 #@! TO.P,J6,1,Pin_1*
G04 #@! TO.N,+12V*
X144202150Y-63373000D03*
G04 #@! TD*
D16*
G04 #@! TO.P,TP4,1,1*
G04 #@! TO.N,GND*
X112395000Y-94615000D03*
G04 #@! TD*
D10*
G04 #@! TO.P,C1,2*
G04 #@! TO.N,GND*
X97641500Y-76835000D03*
G04 #@! TO.P,C1,1*
G04 #@! TO.N,+5V*
X95566500Y-76835000D03*
G04 #@! TD*
D17*
G04 #@! TO.P,U2,1,RT*
G04 #@! TO.N,unconnected-(U2-RT-Pad1)*
X177804376Y-112256811D03*
G04 #@! TO.P,U2,2,EN*
G04 #@! TO.N,unconnected-(U2-EN-Pad2)*
X177804376Y-112756937D03*
G04 #@! TO.P,U2,3,VIN*
G04 #@! TO.N,+12V*
X177804376Y-113257063D03*
G04 #@! TO.P,U2,4,GND*
G04 #@! TO.N,GND*
X177804376Y-113757189D03*
G04 #@! TO.P,U2,5,SW*
G04 #@! TO.N,unconnected-(U2-SW-Pad5)*
X179404576Y-113757189D03*
G04 #@! TO.P,U2,6,BST*
G04 #@! TO.N,unconnected-(U2-BST-Pad6)*
X179404576Y-113257063D03*
G04 #@! TO.P,U2,7,SS*
G04 #@! TO.N,/SS*
X179404576Y-112756937D03*
G04 #@! TO.P,U2,8,FB*
G04 #@! TO.N,/FB*
X179404576Y-112256811D03*
G04 #@! TD*
D18*
G04 #@! TO.P,U1,4,OUT*
G04 #@! TO.N,Net-(JP1-A)*
X136506001Y-116078000D03*
D19*
G04 #@! TO.P,U1,3,INPUT*
G04 #@! TO.N,+5V*
X130066001Y-118362999D03*
G04 #@! TO.P,U1,1,GND*
G04 #@! TO.N,GND*
X130066001Y-113793001D03*
G04 #@! TD*
D14*
G04 #@! TO.P,J7,2,Pin_2*
G04 #@! TO.N,GND*
X173285150Y-41910000D03*
D15*
G04 #@! TO.P,J7,1,Pin_1*
G04 #@! TO.N,+5V*
X168205150Y-41910000D03*
G04 #@! TD*
D11*
G04 #@! TO.P,JP1,1,A*
G04 #@! TO.N,Net-(JP1-A)*
X163449000Y-102870000D03*
D12*
G04 #@! TO.P,JP1,2,B*
G04 #@! TO.N,+3V3*
X164749000Y-102870000D03*
G04 #@! TD*
D14*
G04 #@! TO.P,J4,2,Pin_2*
G04 #@! TO.N,Net-(J4-Pin_2)*
X126295150Y-63119000D03*
D15*
G04 #@! TO.P,J4,1,Pin_1*
G04 #@! TO.N,GND*
X121215150Y-63119000D03*
G04 #@! TD*
D20*
G04 #@! TO.P,F1,2*
G04 #@! TO.N,Net-(F1-Pad2)*
X137414000Y-103378000D03*
G04 #@! TO.P,F1,1*
G04 #@! TO.N,Net-(J4-Pin_2)*
X131044000Y-103378000D03*
G04 #@! TD*
D14*
G04 #@! TO.P,J2,2,Pin_2*
G04 #@! TO.N,GND*
X105848150Y-62611000D03*
D15*
G04 #@! TO.P,J2,1,Pin_1*
G04 #@! TO.N,+12V*
X100768150Y-62611000D03*
G04 #@! TD*
D13*
G04 #@! TO.P,R5,2*
G04 #@! TO.N,GND*
X154432000Y-94361000D03*
G04 #@! TO.P,R5,1*
G04 #@! TO.N,/VBAT_READ*
X152432000Y-94361000D03*
G04 #@! TD*
D21*
G04 #@! TO.P,D2,3*
G04 #@! TO.N,N/C*
X135049150Y-79309000D03*
G04 #@! TO.P,D2,2,A*
G04 #@! TO.N,/VBAT_READ*
X131629150Y-80259000D03*
G04 #@! TO.P,D2,1,K*
G04 #@! TO.N,+3V3*
X131629150Y-78359000D03*
G04 #@! TD*
D14*
G04 #@! TO.P,J5,2,Pin_2*
G04 #@! TO.N,GND*
X149531150Y-42469000D03*
D15*
G04 #@! TO.P,J5,1,Pin_1*
G04 #@! TO.N,/VBAT_READ*
X144451150Y-42469000D03*
G04 #@! TD*
D13*
G04 #@! TO.P,R1,2*
G04 #@! TO.N,/FB*
X154178000Y-75819000D03*
G04 #@! TO.P,R1,1*
G04 #@! TO.N,Net-(JP2-A)*
X152178000Y-75819000D03*
G04 #@! TD*
D22*
G04 #@! TO.P,Q1,1,1*
G04 #@! TO.N,+12V*
X168795700Y-82169000D03*
G04 #@! TO.P,Q1,2,2*
X168795700Y-83439000D03*
G04 #@! TO.P,Q1,3,3*
X168795700Y-84709000D03*
G04 #@! TO.P,Q1,4,4*
G04 #@! TO.N,Net-(D1-A)*
X168795700Y-85979000D03*
G04 #@! TO.P,Q1,5,5*
G04 #@! TO.N,Net-(F1-Pad2)*
X174244000Y-85979000D03*
G04 #@! TO.P,Q1,6,6*
X174244000Y-84709000D03*
G04 #@! TO.P,Q1,7,7*
X174244000Y-83439000D03*
G04 #@! TO.P,Q1,8,8*
X174244000Y-82169000D03*
G04 #@! TD*
D16*
G04 #@! TO.P,TP2,1,1*
G04 #@! TO.N,GND*
X112395000Y-80772000D03*
G04 #@! TD*
D23*
G04 #@! TO.P,D1,1,K*
G04 #@! TO.N,+12V*
X175770000Y-102362000D03*
G04 #@! TO.P,D1,2,A*
G04 #@! TO.N,Net-(D1-A)*
X179070000Y-102362000D03*
G04 #@! TD*
D10*
G04 #@! TO.P,C3,2*
G04 #@! TO.N,GND*
X97514500Y-90297000D03*
G04 #@! TO.P,C3,1*
G04 #@! TO.N,+12V*
X95439500Y-90297000D03*
G04 #@! TD*
D16*
G04 #@! TO.P,TP1,1,1*
G04 #@! TO.N,Net-(JP1-A)*
X112522000Y-74676000D03*
G04 #@! TD*
D21*
G04 #@! TO.P,D3,3*
G04 #@! TO.N,N/C*
X135001000Y-88773000D03*
G04 #@! TO.P,D3,2,A*
G04 #@! TO.N,GND*
X131581000Y-89723000D03*
G04 #@! TO.P,D3,1,K*
G04 #@! TO.N,/VBAT_READ*
X131581000Y-87823000D03*
G04 #@! TD*
D13*
G04 #@! TO.P,R4,2*
G04 #@! TO.N,/VBAT_READ*
X154305000Y-89789000D03*
G04 #@! TO.P,R4,1*
G04 #@! TO.N,+12V*
X152305000Y-89789000D03*
G04 #@! TD*
D14*
G04 #@! TO.P,J1,2,Pin_2*
G04 #@! TO.N,GND*
X105335150Y-41961000D03*
D15*
G04 #@! TO.P,J1,1,Pin_1*
G04 #@! TO.N,+5V*
X100255150Y-41961000D03*
G04 #@! TD*
D16*
G04 #@! TO.P,TP3,1,1*
G04 #@! TO.N,Net-(JP2-A)*
X112325150Y-87398000D03*
G04 #@! TD*
D14*
G04 #@! TO.P,J8,2,Pin_2*
G04 #@! TO.N,GND*
X173666150Y-62992000D03*
D15*
G04 #@! TO.P,J8,1,Pin_1*
G04 #@! TO.N,+3V3*
X168586150Y-62992000D03*
G04 #@! TD*
D14*
G04 #@! TO.P,J3,2,Pin_2*
G04 #@! TO.N,GND*
X125406150Y-41910000D03*
D15*
G04 #@! TO.P,J3,1,Pin_1*
G04 #@! TO.N,+3V3*
X120326150Y-41910000D03*
G04 #@! TD*
D13*
G04 #@! TO.P,R3,2*
G04 #@! TO.N,GND*
X154178000Y-85217000D03*
G04 #@! TO.P,R3,1*
G04 #@! TO.N,Net-(D1-A)*
X152178000Y-85217000D03*
G04 #@! TD*
D24*
G04 #@! TO.P,L1,2,2*
G04 #@! TO.N,Net-(JP2-A)*
X178715500Y-118745000D03*
G04 #@! TO.P,L1,1,1*
G04 #@! TO.N,/SW*
X177900500Y-118745000D03*
G04 #@! TD*
D10*
G04 #@! TO.P,C2,2*
G04 #@! TO.N,GND*
X97641500Y-83947000D03*
G04 #@! TO.P,C2,1*
G04 #@! TO.N,Net-(JP1-A)*
X95566500Y-83947000D03*
G04 #@! TD*
D25*
G04 #@! TO.N,GND*
X140208000Y-95885000D03*
X159512000Y-53975000D03*
X134874000Y-48260000D03*
X155702000Y-99695000D03*
X100584000Y-84836000D03*
X157099000Y-87376000D03*
X120269000Y-93853000D03*
X115951000Y-113538000D03*
G04 #@! TO.N,+12V*
X168783000Y-80010000D03*
X144272000Y-70104000D03*
G04 #@! TO.N,Net-(D1-A)*
X168783000Y-95504000D03*
X168783000Y-99314000D03*
X162560000Y-82804000D03*
X166116000Y-82804000D03*
G04 #@! TO.N,/VBAT_READ*
X149733000Y-94234000D03*
G04 #@! TO.N,Net-(JP2-A)*
X149225000Y-106172000D03*
X144272000Y-98679000D03*
G04 #@! TO.N,Net-(F1-Pad2)*
X162052000Y-97536000D03*
X166751000Y-97536000D03*
G04 #@! TO.N,/VBAT_READ*
X131572000Y-85725000D03*
G04 #@! TO.N,Net-(J4-Pin_2)*
X126238000Y-103378000D03*
X126238000Y-81407000D03*
G04 #@! TO.N,Net-(JP1-A)*
X152908000Y-102870000D03*
X136398000Y-107696000D03*
G04 #@! TO.N,/FB*
X179451000Y-108839000D03*
X149098000Y-80645000D03*
G04 #@! TO.N,/SS*
X183642000Y-112776000D03*
X95504000Y-108966000D03*
G04 #@! TO.N,Net-(JP2-A)*
X105537000Y-87376000D03*
X95504000Y-115189000D03*
G04 #@! TO.N,Net-(JP1-A)*
X108712000Y-74676000D03*
X95631000Y-81534000D03*
G04 #@! TO.N,/VBAT_READ*
X131572000Y-82296000D03*
X139827000Y-42545000D03*
G04 #@! TO.N,+12V*
X144272000Y-89789000D03*
G04 #@! TO.N,+3V3*
X116459000Y-41910000D03*
X127508000Y-78359000D03*
G04 #@! TO.N,+5V*
X94615000Y-74168000D03*
X94615000Y-45339000D03*
G04 #@! TD*
D26*
G04 #@! TO.N,+5V*
X94615000Y-45339000D02*
X94691000Y-45263000D01*
X100255150Y-36650850D02*
X100330000Y-36576000D01*
X94691000Y-45263000D02*
X100255150Y-45263000D01*
X100255150Y-45263000D02*
X100255150Y-36650850D01*
X100330000Y-36576000D02*
X168148000Y-36576000D01*
X168148000Y-36576000D02*
X168205150Y-36633150D01*
X168205150Y-36633150D02*
X168205150Y-41910000D01*
D27*
G04 #@! TO.N,/SS*
X183642000Y-112776000D02*
X180213000Y-112776000D01*
X180213000Y-112776000D02*
X180193937Y-112756937D01*
X180193937Y-112756937D02*
X179404576Y-112756937D01*
G04 #@! TO.N,/FB*
X179451000Y-108839000D02*
X179404576Y-108885424D01*
X179404576Y-108885424D02*
X179404576Y-112256811D01*
G04 #@! TO.N,+12V*
X175770000Y-111846461D02*
X177180602Y-113257063D01*
X177180602Y-113257063D02*
X177804376Y-113257063D01*
G04 #@! TO.N,Net-(JP2-A)*
X163165000Y-114427000D02*
X163165000Y-113672000D01*
X174498000Y-112903000D02*
X178664000Y-117069000D01*
X163165000Y-113672000D02*
X163934000Y-112903000D01*
X163934000Y-112903000D02*
X174498000Y-112903000D01*
X178664000Y-117069000D02*
X178664000Y-118745000D01*
G04 #@! TO.N,+12V*
X175770000Y-111846461D02*
X175770000Y-102362000D01*
D28*
X168783000Y-80010000D02*
X174510650Y-80010000D01*
X174510650Y-80010000D02*
X180228000Y-85727350D01*
X180228000Y-85727350D02*
X180228000Y-103129696D01*
X180228000Y-103129696D02*
X179471696Y-103886000D01*
X179471696Y-103886000D02*
X177294000Y-103886000D01*
X177294000Y-103886000D02*
X175770000Y-102362000D01*
X168795700Y-82169000D02*
X168795700Y-80022700D01*
X168795700Y-80022700D02*
X168783000Y-80010000D01*
X168795700Y-83439000D02*
X168795700Y-84709000D01*
X168795700Y-82169000D02*
X168795700Y-83439000D01*
X144272000Y-89789000D02*
X152305000Y-89789000D01*
X144202150Y-70034150D02*
X144272000Y-70104000D01*
X144202150Y-63373000D02*
X144202150Y-70034150D01*
X100768150Y-62611000D02*
X102776150Y-60603000D01*
X102776150Y-60603000D02*
X141432150Y-60603000D01*
X141432150Y-60603000D02*
X144202150Y-63373000D01*
X95439500Y-90297000D02*
X95439500Y-96266000D01*
X95439500Y-96266000D02*
X95566500Y-96393000D01*
X100768150Y-62611000D02*
X93526000Y-69853150D01*
X93526000Y-69853150D02*
X93526000Y-88383500D01*
X93526000Y-88383500D02*
X95439500Y-90297000D01*
D27*
G04 #@! TO.N,Net-(D1-A)*
X168783000Y-99314000D02*
X179070000Y-99314000D01*
X168795700Y-85979000D02*
X168795700Y-95491300D01*
X168795700Y-95491300D02*
X168783000Y-95504000D01*
X179070000Y-99314000D02*
X179070000Y-102362000D01*
X166116000Y-82804000D02*
X166116000Y-85979000D01*
X166116000Y-85979000D02*
X168795700Y-85979000D01*
X152178000Y-85217000D02*
X152178000Y-82836000D01*
X152146000Y-82804000D02*
X162560000Y-82804000D01*
X152178000Y-82836000D02*
X152146000Y-82804000D01*
G04 #@! TO.N,/VBAT_READ*
X152432000Y-94361000D02*
X154305000Y-92488000D01*
X154305000Y-92488000D02*
X154305000Y-89789000D01*
X150495000Y-94361000D02*
X152432000Y-94361000D01*
X149733000Y-94234000D02*
X150368000Y-94234000D01*
X150368000Y-94234000D02*
X150495000Y-94361000D01*
G04 #@! TO.N,Net-(JP2-A)*
X149225000Y-106172000D02*
X149225000Y-114427000D01*
X138938000Y-83820000D02*
X138938000Y-98679000D01*
X138938000Y-98679000D02*
X144272000Y-98679000D01*
X149225000Y-114427000D02*
X163165000Y-114427000D01*
G04 #@! TO.N,Net-(F1-Pad2)*
X174244000Y-83439000D02*
X174244000Y-82169000D01*
X174244000Y-84709000D02*
X174244000Y-83439000D01*
X174244000Y-85979000D02*
X174244000Y-84709000D01*
X146177000Y-97663000D02*
X146304000Y-97536000D01*
X166751000Y-97536000D02*
X174117000Y-97536000D01*
X146050000Y-103378000D02*
X146177000Y-103251000D01*
X146304000Y-97536000D02*
X162052000Y-97536000D01*
X174117000Y-97536000D02*
X174244000Y-97409000D01*
X137414000Y-103378000D02*
X146050000Y-103378000D01*
X146177000Y-103251000D02*
X146177000Y-97663000D01*
X174244000Y-97409000D02*
X174244000Y-85979000D01*
G04 #@! TO.N,/VBAT_READ*
X131572000Y-85725000D02*
X131572000Y-87814000D01*
X131572000Y-87814000D02*
X131581000Y-87823000D01*
G04 #@! TO.N,Net-(J4-Pin_2)*
X126295150Y-63119000D02*
X126295150Y-81349850D01*
X126295150Y-81349850D02*
X126238000Y-81407000D01*
X126238000Y-103378000D02*
X131044000Y-103378000D01*
G04 #@! TO.N,Net-(JP1-A)*
X152908000Y-102870000D02*
X163449000Y-102870000D01*
X136398000Y-107696000D02*
X136506001Y-107804001D01*
X136506001Y-107804001D02*
X136506001Y-116078000D01*
G04 #@! TO.N,/FB*
X149225000Y-80518000D02*
X149098000Y-80645000D01*
X152178000Y-80518000D02*
X149225000Y-80518000D01*
X154178000Y-75819000D02*
X154178000Y-78518000D01*
X154178000Y-78518000D02*
X152178000Y-80518000D01*
G04 #@! TO.N,Net-(JP2-A)*
X138938000Y-75819000D02*
X138938000Y-83820000D01*
X152178000Y-75819000D02*
X138938000Y-75819000D01*
X115903150Y-83820000D02*
X112325150Y-87398000D01*
X138938000Y-83820000D02*
X115903150Y-83820000D01*
G04 #@! TO.N,/SW*
X95439500Y-104267000D02*
X91186000Y-104267000D01*
X115951000Y-127508000D02*
X177800000Y-127508000D01*
X91186000Y-121793000D02*
X115951000Y-121793000D01*
X91186000Y-104267000D02*
X91186000Y-121793000D01*
X177800000Y-127508000D02*
X177800000Y-127000000D01*
X115951000Y-121793000D02*
X115951000Y-127508000D01*
X177800000Y-127000000D02*
X177849000Y-126951000D01*
X177849000Y-126951000D02*
X177849000Y-118745000D01*
G04 #@! TO.N,/SS*
X95439500Y-111760000D02*
X95439500Y-109030500D01*
X95439500Y-109030500D02*
X95504000Y-108966000D01*
G04 #@! TO.N,Net-(JP2-A)*
X95461000Y-115232000D02*
X95504000Y-115189000D01*
X95461000Y-118237000D02*
X95461000Y-115232000D01*
X105940000Y-87398000D02*
X112325150Y-87398000D01*
X105537000Y-87376000D02*
X105918000Y-87376000D01*
X105918000Y-87376000D02*
X105940000Y-87398000D01*
G04 #@! TO.N,Net-(JP1-A)*
X95566500Y-83947000D02*
X95566500Y-81598500D01*
X95566500Y-81598500D02*
X95631000Y-81534000D01*
X108712000Y-74676000D02*
X112522000Y-74676000D01*
G04 #@! TO.N,/VBAT_READ*
X139903000Y-42469000D02*
X139827000Y-42545000D01*
X144451150Y-42469000D02*
X139903000Y-42469000D01*
X131572000Y-82296000D02*
X131572000Y-80316150D01*
X131572000Y-80316150D02*
X131629150Y-80259000D01*
D29*
G04 #@! TO.N,+3V3*
X159131000Y-72136000D02*
X164592000Y-72136000D01*
X164749000Y-72293000D02*
X164749000Y-102870000D01*
X164592000Y-72136000D02*
X164749000Y-72293000D01*
X159131000Y-63119000D02*
X159004000Y-62992000D01*
X159004000Y-62992000D02*
X168586150Y-62992000D01*
X159131000Y-72136000D02*
X159131000Y-63119000D01*
X131629150Y-72193150D02*
X131572000Y-72136000D01*
X131572000Y-72136000D02*
X159131000Y-72136000D01*
X131629150Y-78359000D02*
X131629150Y-72193150D01*
X120326150Y-41910000D02*
X116459000Y-41910000D01*
X127508000Y-78359000D02*
X131629150Y-78359000D01*
D26*
G04 #@! TO.N,+5V*
X130048000Y-124968000D02*
X164465000Y-124968000D01*
X130066001Y-118362999D02*
X130066001Y-124949999D01*
X130066001Y-124949999D02*
X130048000Y-124968000D01*
X164465000Y-124968000D02*
X164465000Y-114427000D01*
X103632000Y-79629000D02*
X103632000Y-118364000D01*
X104395001Y-118362999D02*
X130066001Y-118362999D01*
X95631000Y-79629000D02*
X103632000Y-79629000D01*
X95566500Y-76835000D02*
X95566500Y-79564500D01*
X95566500Y-79564500D02*
X95631000Y-79629000D01*
X103632000Y-118364000D02*
X104394000Y-118364000D01*
X104394000Y-118364000D02*
X104395001Y-118362999D01*
X94615000Y-75883500D02*
X95566500Y-76835000D01*
X94615000Y-74168000D02*
X94615000Y-75883500D01*
G04 #@! TD*
G04 #@! TA.AperFunction,Conductor*
G04 #@! TO.N,GND*
G36*
X186632929Y-32531832D02*
G01*
X186678820Y-32584517D01*
X186690159Y-32636161D01*
X186817000Y-131445000D01*
X186817000Y-131448160D01*
X186797315Y-131515199D01*
X186744511Y-131560954D01*
X186693160Y-131572160D01*
X88643000Y-131698839D01*
X88575935Y-131679241D01*
X88530112Y-131626496D01*
X88518840Y-131575001D01*
X88512648Y-126751711D01*
X91494500Y-126751711D01*
X91494500Y-126994288D01*
X91526161Y-127234785D01*
X91588947Y-127469104D01*
X91649706Y-127615789D01*
X91681776Y-127693212D01*
X91803064Y-127903289D01*
X91803066Y-127903292D01*
X91803067Y-127903293D01*
X91950733Y-128095736D01*
X91950739Y-128095743D01*
X92122256Y-128267260D01*
X92122262Y-128267265D01*
X92314711Y-128414936D01*
X92524788Y-128536224D01*
X92748900Y-128629054D01*
X92983211Y-128691838D01*
X93163586Y-128715584D01*
X93223711Y-128723500D01*
X93223712Y-128723500D01*
X93466289Y-128723500D01*
X93514388Y-128717167D01*
X93706789Y-128691838D01*
X93941100Y-128629054D01*
X94165212Y-128536224D01*
X94375289Y-128414936D01*
X94567738Y-128267265D01*
X94739265Y-128095738D01*
X94886936Y-127903289D01*
X95008224Y-127693212D01*
X95101054Y-127469100D01*
X95163838Y-127234789D01*
X95195500Y-126994288D01*
X95195500Y-126751712D01*
X95163838Y-126511211D01*
X95101054Y-126276900D01*
X95008224Y-126052788D01*
X94886936Y-125842711D01*
X94786687Y-125712064D01*
X94739266Y-125650263D01*
X94739260Y-125650256D01*
X94567743Y-125478739D01*
X94567736Y-125478733D01*
X94375293Y-125331067D01*
X94375292Y-125331066D01*
X94375289Y-125331064D01*
X94203661Y-125231974D01*
X94165214Y-125209777D01*
X94165205Y-125209773D01*
X93941104Y-125116947D01*
X93709248Y-125054821D01*
X93706789Y-125054162D01*
X93706788Y-125054161D01*
X93706785Y-125054161D01*
X93466289Y-125022500D01*
X93466288Y-125022500D01*
X93223712Y-125022500D01*
X93223711Y-125022500D01*
X92983214Y-125054161D01*
X92748895Y-125116947D01*
X92524794Y-125209773D01*
X92524785Y-125209777D01*
X92314706Y-125331067D01*
X92122263Y-125478733D01*
X92122256Y-125478739D01*
X91950739Y-125650256D01*
X91950733Y-125650263D01*
X91803067Y-125842706D01*
X91681777Y-126052785D01*
X91681773Y-126052794D01*
X91588947Y-126276895D01*
X91526161Y-126511214D01*
X91494500Y-126751711D01*
X88512648Y-126751711D01*
X88506362Y-121854805D01*
X90558499Y-121854805D01*
X90582613Y-121976029D01*
X90582616Y-121976039D01*
X90629913Y-122090226D01*
X90629920Y-122090239D01*
X90698588Y-122193007D01*
X90698591Y-122193011D01*
X90785988Y-122280408D01*
X90785992Y-122280411D01*
X90888760Y-122349079D01*
X90888773Y-122349086D01*
X91002960Y-122396383D01*
X91002965Y-122396385D01*
X91002969Y-122396385D01*
X91002970Y-122396386D01*
X91124194Y-122420500D01*
X91124197Y-122420500D01*
X91247803Y-122420500D01*
X115199500Y-122420500D01*
X115266539Y-122440185D01*
X115312294Y-122492989D01*
X115323500Y-122544500D01*
X115323500Y-127569803D01*
X115323500Y-127569805D01*
X115323499Y-127569805D01*
X115347613Y-127691029D01*
X115347616Y-127691039D01*
X115394913Y-127805226D01*
X115394920Y-127805239D01*
X115463588Y-127908007D01*
X115463591Y-127908011D01*
X115550988Y-127995408D01*
X115550992Y-127995411D01*
X115653760Y-128064079D01*
X115653773Y-128064086D01*
X115767960Y-128111383D01*
X115767965Y-128111385D01*
X115767969Y-128111385D01*
X115767970Y-128111386D01*
X115889194Y-128135500D01*
X115889197Y-128135500D01*
X177861805Y-128135500D01*
X177943361Y-128119276D01*
X177983035Y-128111385D01*
X178097233Y-128064083D01*
X178200008Y-127995411D01*
X178287411Y-127908008D01*
X178356083Y-127805233D01*
X178403385Y-127691035D01*
X178418353Y-127615789D01*
X178427500Y-127569805D01*
X178427500Y-127218777D01*
X178436939Y-127171324D01*
X178452385Y-127134035D01*
X178452648Y-127132711D01*
X180394500Y-127132711D01*
X180394500Y-127375288D01*
X180426161Y-127615785D01*
X180488947Y-127850104D01*
X180577579Y-128064079D01*
X180581776Y-128074212D01*
X180703064Y-128284289D01*
X180703066Y-128284292D01*
X180703067Y-128284293D01*
X180850733Y-128476736D01*
X180850739Y-128476743D01*
X181022256Y-128648260D01*
X181022263Y-128648266D01*
X181120310Y-128723500D01*
X181214711Y-128795936D01*
X181424788Y-128917224D01*
X181648900Y-129010054D01*
X181883211Y-129072838D01*
X182063586Y-129096584D01*
X182123711Y-129104500D01*
X182123712Y-129104500D01*
X182366289Y-129104500D01*
X182414388Y-129098167D01*
X182606789Y-129072838D01*
X182841100Y-129010054D01*
X183065212Y-128917224D01*
X183275289Y-128795936D01*
X183467738Y-128648265D01*
X183639265Y-128476738D01*
X183786936Y-128284289D01*
X183908224Y-128074212D01*
X184001054Y-127850100D01*
X184063838Y-127615789D01*
X184095500Y-127375288D01*
X184095500Y-127132712D01*
X184063838Y-126892211D01*
X184001054Y-126657900D01*
X183908224Y-126433788D01*
X183786936Y-126223711D01*
X183655787Y-126052794D01*
X183639266Y-126031263D01*
X183639260Y-126031256D01*
X183467743Y-125859739D01*
X183467736Y-125859733D01*
X183275293Y-125712067D01*
X183275292Y-125712066D01*
X183275289Y-125712064D01*
X183065212Y-125590776D01*
X183065205Y-125590773D01*
X182841104Y-125497947D01*
X182606785Y-125435161D01*
X182366289Y-125403500D01*
X182366288Y-125403500D01*
X182123712Y-125403500D01*
X182123711Y-125403500D01*
X181883214Y-125435161D01*
X181648895Y-125497947D01*
X181424794Y-125590773D01*
X181424785Y-125590777D01*
X181214706Y-125712067D01*
X181022263Y-125859733D01*
X181022256Y-125859739D01*
X180850739Y-126031256D01*
X180850733Y-126031263D01*
X180703067Y-126223706D01*
X180581777Y-126433785D01*
X180581773Y-126433794D01*
X180488947Y-126657895D01*
X180426161Y-126892214D01*
X180394500Y-127132711D01*
X178452648Y-127132711D01*
X178476500Y-127012804D01*
X178476500Y-126889197D01*
X178476500Y-119569499D01*
X178496185Y-119502460D01*
X178548989Y-119456705D01*
X178600500Y-119445499D01*
X178972363Y-119445499D01*
X179089753Y-119430046D01*
X179089757Y-119430044D01*
X179089762Y-119430044D01*
X179235841Y-119369536D01*
X179361282Y-119273282D01*
X179457536Y-119147841D01*
X179518044Y-119001762D01*
X179533500Y-118884361D01*
X179533499Y-118605640D01*
X179533499Y-118605638D01*
X179533499Y-118605636D01*
X179518046Y-118488246D01*
X179518044Y-118488239D01*
X179518044Y-118488238D01*
X179457536Y-118342159D01*
X179361282Y-118216718D01*
X179359983Y-118215721D01*
X179340011Y-118200395D01*
X179298810Y-118143966D01*
X179291500Y-118102021D01*
X179291500Y-117007196D01*
X179291499Y-117007192D01*
X179267387Y-116885973D01*
X179267386Y-116885966D01*
X179222407Y-116777379D01*
X179220763Y-116772784D01*
X179151414Y-116668996D01*
X179151413Y-116668994D01*
X179151411Y-116668992D01*
X179064008Y-116581589D01*
X177032792Y-114550373D01*
X174898011Y-112415591D01*
X174898006Y-112415587D01*
X174856415Y-112387798D01*
X174856413Y-112387796D01*
X174795233Y-112346917D01*
X174795226Y-112346913D01*
X174761785Y-112333062D01*
X174681035Y-112299614D01*
X174681027Y-112299612D01*
X174559807Y-112275500D01*
X174559803Y-112275500D01*
X163872197Y-112275500D01*
X163872195Y-112275500D01*
X163750970Y-112299613D01*
X163750960Y-112299616D01*
X163636773Y-112346913D01*
X163636766Y-112346917D01*
X163606176Y-112367357D01*
X163575586Y-112387797D01*
X163575585Y-112387798D01*
X163533989Y-112415590D01*
X163533988Y-112415591D01*
X162764992Y-113184589D01*
X162677591Y-113271989D01*
X162677585Y-113271997D01*
X162664989Y-113290848D01*
X162628927Y-113326272D01*
X162566525Y-113366375D01*
X162565082Y-113367196D01*
X162560901Y-113369988D01*
X162452169Y-113464207D01*
X162452166Y-113464210D01*
X162358018Y-113572864D01*
X162358015Y-113572867D01*
X162284309Y-113687559D01*
X162280230Y-113693906D01*
X162265109Y-113727014D01*
X162219355Y-113779816D01*
X162152317Y-113799500D01*
X149976500Y-113799500D01*
X149909461Y-113779815D01*
X149863706Y-113727011D01*
X149852500Y-113675500D01*
X149852500Y-106713671D01*
X149871507Y-106647698D01*
X149950788Y-106521524D01*
X150010368Y-106351254D01*
X150010369Y-106351249D01*
X150030565Y-106172003D01*
X150030565Y-106171996D01*
X150010369Y-105992750D01*
X150010368Y-105992745D01*
X149950788Y-105822476D01*
X149911582Y-105760080D01*
X149854816Y-105669738D01*
X149727262Y-105542184D01*
X149700436Y-105525328D01*
X149574523Y-105446211D01*
X149404254Y-105386631D01*
X149404249Y-105386630D01*
X149225004Y-105366435D01*
X149224996Y-105366435D01*
X149045750Y-105386630D01*
X149045745Y-105386631D01*
X148875476Y-105446211D01*
X148722737Y-105542184D01*
X148595184Y-105669737D01*
X148499211Y-105822476D01*
X148439631Y-105992745D01*
X148439630Y-105992750D01*
X148419435Y-106171996D01*
X148419435Y-106172003D01*
X148439630Y-106351249D01*
X148439631Y-106351254D01*
X148499211Y-106521524D01*
X148578493Y-106647698D01*
X148597500Y-106713671D01*
X148597500Y-114365197D01*
X148597500Y-114488803D01*
X148597500Y-114488805D01*
X148597499Y-114488805D01*
X148621613Y-114610029D01*
X148621616Y-114610039D01*
X148668913Y-114724226D01*
X148668920Y-114724239D01*
X148737588Y-114827007D01*
X148737591Y-114827011D01*
X148824988Y-114914408D01*
X148824992Y-114914411D01*
X148927760Y-114983079D01*
X148927773Y-114983086D01*
X148992135Y-115009745D01*
X149041965Y-115030385D01*
X149041969Y-115030385D01*
X149041970Y-115030386D01*
X149163194Y-115054500D01*
X149163197Y-115054500D01*
X162152317Y-115054500D01*
X162219356Y-115074185D01*
X162265109Y-115126985D01*
X162280230Y-115160094D01*
X162302166Y-115194228D01*
X162358015Y-115281132D01*
X162358018Y-115281136D01*
X162433506Y-115368254D01*
X162452168Y-115389791D01*
X162452171Y-115389794D01*
X162560909Y-115484015D01*
X162621386Y-115522881D01*
X162681857Y-115561744D01*
X162681863Y-115561747D01*
X162812741Y-115621517D01*
X162950696Y-115662024D01*
X163093111Y-115682500D01*
X163459500Y-115682500D01*
X163526539Y-115702185D01*
X163572294Y-115754989D01*
X163583500Y-115806500D01*
X163583500Y-123962500D01*
X163563815Y-124029539D01*
X163511011Y-124075294D01*
X163459500Y-124086500D01*
X131071501Y-124086500D01*
X131004462Y-124066815D01*
X130958707Y-124014011D01*
X130947501Y-123962500D01*
X130947501Y-119621525D01*
X130967186Y-119554486D01*
X131019990Y-119508731D01*
X131028168Y-119505343D01*
X131143036Y-119462500D01*
X131158332Y-119456795D01*
X131273547Y-119370545D01*
X131359797Y-119255330D01*
X131410092Y-119120482D01*
X131416501Y-119060872D01*
X131416500Y-117665127D01*
X131410499Y-117609302D01*
X131410092Y-117605515D01*
X131359798Y-117470670D01*
X131359794Y-117470663D01*
X131273548Y-117355454D01*
X131273545Y-117355451D01*
X131158336Y-117269205D01*
X131158329Y-117269201D01*
X131023483Y-117218907D01*
X131023484Y-117218907D01*
X130963884Y-117212500D01*
X130963882Y-117212499D01*
X130963874Y-117212499D01*
X130963865Y-117212499D01*
X129168130Y-117212499D01*
X129168124Y-117212500D01*
X129108517Y-117218907D01*
X128973672Y-117269201D01*
X128973665Y-117269205D01*
X128858457Y-117355451D01*
X128858456Y-117355452D01*
X128858455Y-117355453D01*
X128801292Y-117431811D01*
X128745361Y-117473681D01*
X128702028Y-117481499D01*
X104637500Y-117481499D01*
X104570461Y-117461814D01*
X104524706Y-117409010D01*
X104513500Y-117357499D01*
X104513500Y-114490845D01*
X128716001Y-114490845D01*
X128722402Y-114550373D01*
X128722404Y-114550380D01*
X128772646Y-114685087D01*
X128772650Y-114685094D01*
X128858810Y-114800188D01*
X128858813Y-114800191D01*
X128973907Y-114886351D01*
X128973914Y-114886355D01*
X129108621Y-114936597D01*
X129108628Y-114936599D01*
X129168156Y-114943000D01*
X129168173Y-114943001D01*
X129816001Y-114943001D01*
X130316001Y-114943001D01*
X130963829Y-114943001D01*
X130963845Y-114943000D01*
X131023373Y-114936599D01*
X131023380Y-114936597D01*
X131158087Y-114886355D01*
X131158094Y-114886351D01*
X131273188Y-114800191D01*
X131273191Y-114800188D01*
X131359351Y-114685094D01*
X131359355Y-114685087D01*
X131409597Y-114550380D01*
X131409599Y-114550373D01*
X131416000Y-114490845D01*
X131416001Y-114490828D01*
X131416001Y-114043001D01*
X130316001Y-114043001D01*
X130316001Y-114943001D01*
X129816001Y-114943001D01*
X129816001Y-114043001D01*
X128716001Y-114043001D01*
X128716001Y-114490845D01*
X104513500Y-114490845D01*
X104513500Y-113095156D01*
X128716001Y-113095156D01*
X128716001Y-113543001D01*
X129816001Y-113543001D01*
X130316001Y-113543001D01*
X131416001Y-113543001D01*
X131416001Y-113280135D01*
X133155502Y-113280135D01*
X133155502Y-118875870D01*
X133155503Y-118875876D01*
X133161910Y-118935483D01*
X133212204Y-119070328D01*
X133212208Y-119070335D01*
X133298454Y-119185544D01*
X133298457Y-119185547D01*
X133413666Y-119271793D01*
X133413673Y-119271797D01*
X133548519Y-119322091D01*
X133548518Y-119322091D01*
X133555446Y-119322835D01*
X133608129Y-119328500D01*
X139403872Y-119328499D01*
X139463483Y-119322091D01*
X139598331Y-119271796D01*
X139713546Y-119185546D01*
X139799796Y-119070331D01*
X139850091Y-118935483D01*
X139856500Y-118875873D01*
X139856499Y-113280128D01*
X139850091Y-113220517D01*
X139803334Y-113095156D01*
X139799797Y-113085671D01*
X139799793Y-113085664D01*
X139713547Y-112970455D01*
X139713544Y-112970452D01*
X139598335Y-112884206D01*
X139598328Y-112884202D01*
X139463482Y-112833908D01*
X139463483Y-112833908D01*
X139403883Y-112827501D01*
X139403881Y-112827500D01*
X139403873Y-112827500D01*
X139403865Y-112827500D01*
X137257501Y-112827500D01*
X137190462Y-112807815D01*
X137144707Y-112755011D01*
X137133501Y-112703500D01*
X137133501Y-108038833D01*
X137140460Y-107997878D01*
X137183367Y-107875257D01*
X137183368Y-107875255D01*
X137203565Y-107696000D01*
X137183368Y-107516745D01*
X137123789Y-107346478D01*
X137027816Y-107193738D01*
X136900262Y-107066184D01*
X136747523Y-106970211D01*
X136577254Y-106910631D01*
X136577249Y-106910630D01*
X136398004Y-106890435D01*
X136397996Y-106890435D01*
X136218750Y-106910630D01*
X136218745Y-106910631D01*
X136048476Y-106970211D01*
X135895737Y-107066184D01*
X135768184Y-107193737D01*
X135672211Y-107346476D01*
X135612631Y-107516745D01*
X135612630Y-107516750D01*
X135592435Y-107695996D01*
X135592435Y-107696003D01*
X135612630Y-107875249D01*
X135612631Y-107875254D01*
X135672211Y-108045523D01*
X135768184Y-108198262D01*
X135842182Y-108272260D01*
X135875667Y-108333583D01*
X135878501Y-108359941D01*
X135878501Y-112703500D01*
X135858816Y-112770539D01*
X135806012Y-112816294D01*
X135754501Y-112827500D01*
X133608131Y-112827500D01*
X133608125Y-112827501D01*
X133548518Y-112833908D01*
X133413673Y-112884202D01*
X133413666Y-112884206D01*
X133298457Y-112970452D01*
X133298454Y-112970455D01*
X133212208Y-113085664D01*
X133212204Y-113085671D01*
X133161910Y-113220517D01*
X133155503Y-113280116D01*
X133155503Y-113280123D01*
X133155502Y-113280135D01*
X131416001Y-113280135D01*
X131416001Y-113095173D01*
X131416000Y-113095156D01*
X131409599Y-113035628D01*
X131409597Y-113035621D01*
X131359355Y-112900914D01*
X131359351Y-112900907D01*
X131273191Y-112785813D01*
X131273188Y-112785810D01*
X131158094Y-112699650D01*
X131158087Y-112699646D01*
X131023380Y-112649404D01*
X131023373Y-112649402D01*
X130963845Y-112643001D01*
X130316001Y-112643001D01*
X130316001Y-113543001D01*
X129816001Y-113543001D01*
X129816001Y-112643001D01*
X129168156Y-112643001D01*
X129108628Y-112649402D01*
X129108621Y-112649404D01*
X128973914Y-112699646D01*
X128973907Y-112699650D01*
X128858813Y-112785810D01*
X128858810Y-112785813D01*
X128772650Y-112900907D01*
X128772646Y-112900914D01*
X128722404Y-113035621D01*
X128722402Y-113035628D01*
X128716001Y-113095156D01*
X104513500Y-113095156D01*
X104513500Y-103377996D01*
X125432435Y-103377996D01*
X125432435Y-103378003D01*
X125452630Y-103557249D01*
X125452631Y-103557254D01*
X125512211Y-103727523D01*
X125578358Y-103832794D01*
X125608184Y-103880262D01*
X125735738Y-104007816D01*
X125762300Y-104024506D01*
X125847417Y-104077989D01*
X125888478Y-104103789D01*
X125961956Y-104129500D01*
X126058745Y-104163368D01*
X126058750Y-104163369D01*
X126237996Y-104183565D01*
X126238000Y-104183565D01*
X126238004Y-104183565D01*
X126417249Y-104163369D01*
X126417252Y-104163368D01*
X126417255Y-104163368D01*
X126587522Y-104103789D01*
X126713700Y-104024505D01*
X126779672Y-104005500D01*
X128299501Y-104005500D01*
X128366540Y-104025185D01*
X128412295Y-104077989D01*
X128423501Y-104129500D01*
X128423501Y-105330876D01*
X128429908Y-105390483D01*
X128480202Y-105525328D01*
X128480206Y-105525335D01*
X128566452Y-105640544D01*
X128566455Y-105640547D01*
X128681664Y-105726793D01*
X128681671Y-105726797D01*
X128816517Y-105777091D01*
X128816516Y-105777091D01*
X128823444Y-105777835D01*
X128876127Y-105783500D01*
X133211872Y-105783499D01*
X133271483Y-105777091D01*
X133406331Y-105726796D01*
X133521546Y-105640546D01*
X133607796Y-105525331D01*
X133658091Y-105390483D01*
X133664500Y-105330873D01*
X133664499Y-101425135D01*
X134793500Y-101425135D01*
X134793500Y-105330870D01*
X134793501Y-105330876D01*
X134799908Y-105390483D01*
X134850202Y-105525328D01*
X134850206Y-105525335D01*
X134936452Y-105640544D01*
X134936455Y-105640547D01*
X135051664Y-105726793D01*
X135051671Y-105726797D01*
X135186517Y-105777091D01*
X135186516Y-105777091D01*
X135193444Y-105777835D01*
X135246127Y-105783500D01*
X139581872Y-105783499D01*
X139641483Y-105777091D01*
X139776331Y-105726796D01*
X139891546Y-105640546D01*
X139977796Y-105525331D01*
X140028091Y-105390483D01*
X140034500Y-105330873D01*
X140034500Y-104129500D01*
X140054185Y-104062461D01*
X140106989Y-104016706D01*
X140158500Y-104005500D01*
X146111804Y-104005500D01*
X146111805Y-104005499D01*
X146233035Y-103981386D01*
X146313784Y-103947937D01*
X146347233Y-103934083D01*
X146450008Y-103865411D01*
X146537411Y-103778008D01*
X146664411Y-103651008D01*
X146703951Y-103591832D01*
X146703952Y-103591831D01*
X146733078Y-103548241D01*
X146733079Y-103548238D01*
X146733083Y-103548233D01*
X146780385Y-103434035D01*
X146792673Y-103372262D01*
X146804500Y-103312805D01*
X146804500Y-98287500D01*
X146824185Y-98220461D01*
X146876989Y-98174706D01*
X146928500Y-98163500D01*
X161510328Y-98163500D01*
X161576299Y-98182505D01*
X161702478Y-98261789D01*
X161775956Y-98287500D01*
X161872745Y-98321368D01*
X161872750Y-98321369D01*
X162051996Y-98341565D01*
X162052000Y-98341565D01*
X162052004Y-98341565D01*
X162231249Y-98321369D01*
X162231252Y-98321368D01*
X162231255Y-98321368D01*
X162401522Y-98261789D01*
X162554262Y-98165816D01*
X162681816Y-98038262D01*
X162777789Y-97885522D01*
X162837368Y-97715255D01*
X162838385Y-97706233D01*
X162857565Y-97536003D01*
X162857565Y-97535996D01*
X162837369Y-97356750D01*
X162837368Y-97356745D01*
X162778089Y-97187336D01*
X162777789Y-97186478D01*
X162681816Y-97033738D01*
X162554262Y-96906184D01*
X162527700Y-96889494D01*
X162401523Y-96810211D01*
X162231254Y-96750631D01*
X162231249Y-96750630D01*
X162052004Y-96730435D01*
X162051996Y-96730435D01*
X161872750Y-96750630D01*
X161872745Y-96750631D01*
X161702476Y-96810211D01*
X161576300Y-96889494D01*
X161510328Y-96908500D01*
X146242195Y-96908500D01*
X146120970Y-96932613D01*
X146120960Y-96932616D01*
X146006773Y-96979913D01*
X146006766Y-96979917D01*
X145976176Y-97000357D01*
X145945586Y-97020797D01*
X145945585Y-97020798D01*
X145903991Y-97048589D01*
X145840492Y-97112089D01*
X145776992Y-97175589D01*
X145689589Y-97262992D01*
X145626946Y-97356745D01*
X145620916Y-97365769D01*
X145607061Y-97399214D01*
X145607062Y-97399215D01*
X145573615Y-97479962D01*
X145573612Y-97479972D01*
X145559123Y-97552815D01*
X145549500Y-97601192D01*
X145549500Y-102626500D01*
X145529815Y-102693539D01*
X145477011Y-102739294D01*
X145425500Y-102750500D01*
X140158499Y-102750500D01*
X140091460Y-102730815D01*
X140045705Y-102678011D01*
X140034499Y-102626500D01*
X140034499Y-101425129D01*
X140034498Y-101425123D01*
X140034497Y-101425116D01*
X140028091Y-101365517D01*
X139993081Y-101271651D01*
X139977797Y-101230671D01*
X139977793Y-101230664D01*
X139891547Y-101115455D01*
X139891544Y-101115452D01*
X139776335Y-101029206D01*
X139776328Y-101029202D01*
X139641482Y-100978908D01*
X139641483Y-100978908D01*
X139581883Y-100972501D01*
X139581881Y-100972500D01*
X139581873Y-100972500D01*
X139581864Y-100972500D01*
X135246129Y-100972500D01*
X135246123Y-100972501D01*
X135186516Y-100978908D01*
X135051671Y-101029202D01*
X135051664Y-101029206D01*
X134936455Y-101115452D01*
X134936452Y-101115455D01*
X134850206Y-101230664D01*
X134850202Y-101230671D01*
X134799908Y-101365517D01*
X134794986Y-101411303D01*
X134793501Y-101425123D01*
X134793500Y-101425135D01*
X133664499Y-101425135D01*
X133664499Y-101425128D01*
X133658091Y-101365517D01*
X133623081Y-101271651D01*
X133607797Y-101230671D01*
X133607793Y-101230664D01*
X133521547Y-101115455D01*
X133521544Y-101115452D01*
X133406335Y-101029206D01*
X133406328Y-101029202D01*
X133271482Y-100978908D01*
X133271483Y-100978908D01*
X133211883Y-100972501D01*
X133211881Y-100972500D01*
X133211873Y-100972500D01*
X133211864Y-100972500D01*
X128876129Y-100972500D01*
X128876123Y-100972501D01*
X128816516Y-100978908D01*
X128681671Y-101029202D01*
X128681664Y-101029206D01*
X128566455Y-101115452D01*
X128566452Y-101115455D01*
X128480206Y-101230664D01*
X128480202Y-101230671D01*
X128429908Y-101365517D01*
X128424986Y-101411303D01*
X128423501Y-101425123D01*
X128423500Y-101425135D01*
X128423500Y-102626500D01*
X128403815Y-102693539D01*
X128351011Y-102739294D01*
X128299500Y-102750500D01*
X126779672Y-102750500D01*
X126713700Y-102731494D01*
X126587523Y-102652211D01*
X126417254Y-102592631D01*
X126417249Y-102592630D01*
X126238004Y-102572435D01*
X126237996Y-102572435D01*
X126058750Y-102592630D01*
X126058745Y-102592631D01*
X125888476Y-102652211D01*
X125735737Y-102748184D01*
X125608184Y-102875737D01*
X125512211Y-103028476D01*
X125452631Y-103198745D01*
X125452630Y-103198750D01*
X125432435Y-103377996D01*
X104513500Y-103377996D01*
X104513500Y-95912844D01*
X110645000Y-95912844D01*
X110651401Y-95972372D01*
X110651403Y-95972379D01*
X110701645Y-96107086D01*
X110701649Y-96107093D01*
X110787809Y-96222187D01*
X110787812Y-96222190D01*
X110902906Y-96308350D01*
X110902913Y-96308354D01*
X111037620Y-96358596D01*
X111037627Y-96358598D01*
X111097155Y-96364999D01*
X111097172Y-96365000D01*
X112145000Y-96365000D01*
X112645000Y-96365000D01*
X113692828Y-96365000D01*
X113692844Y-96364999D01*
X113752372Y-96358598D01*
X113752379Y-96358596D01*
X113887086Y-96308354D01*
X113887093Y-96308350D01*
X114002187Y-96222190D01*
X114002190Y-96222187D01*
X114088350Y-96107093D01*
X114088354Y-96107086D01*
X114138596Y-95972379D01*
X114138598Y-95972372D01*
X114144999Y-95912844D01*
X114145000Y-95912827D01*
X114145000Y-94865000D01*
X112645000Y-94865000D01*
X112645000Y-96365000D01*
X112145000Y-96365000D01*
X112145000Y-94865000D01*
X110645000Y-94865000D01*
X110645000Y-95912844D01*
X104513500Y-95912844D01*
X104513500Y-93317155D01*
X110645000Y-93317155D01*
X110645000Y-94365000D01*
X112145000Y-94365000D01*
X112645000Y-94365000D01*
X114145000Y-94365000D01*
X114145000Y-93317172D01*
X114144999Y-93317155D01*
X114138598Y-93257627D01*
X114138596Y-93257620D01*
X114088354Y-93122913D01*
X114088350Y-93122906D01*
X114002190Y-93007812D01*
X114002187Y-93007809D01*
X113887093Y-92921649D01*
X113887086Y-92921645D01*
X113752379Y-92871403D01*
X113752372Y-92871401D01*
X113692844Y-92865000D01*
X112645000Y-92865000D01*
X112645000Y-94365000D01*
X112145000Y-94365000D01*
X112145000Y-92865000D01*
X111097155Y-92865000D01*
X111037627Y-92871401D01*
X111037620Y-92871403D01*
X110902913Y-92921645D01*
X110902906Y-92921649D01*
X110787812Y-93007809D01*
X110787809Y-93007812D01*
X110701649Y-93122906D01*
X110701645Y-93122913D01*
X110651403Y-93257620D01*
X110651401Y-93257627D01*
X110645000Y-93317155D01*
X104513500Y-93317155D01*
X104513500Y-89973000D01*
X130084085Y-89973000D01*
X130087064Y-90005792D01*
X130087067Y-90005802D01*
X130134927Y-90159392D01*
X130218163Y-90297080D01*
X130331919Y-90410836D01*
X130469603Y-90494070D01*
X130623207Y-90541934D01*
X130689957Y-90548000D01*
X131331000Y-90548000D01*
X131831000Y-90548000D01*
X132472043Y-90548000D01*
X132538792Y-90541934D01*
X132692396Y-90494070D01*
X132830080Y-90410836D01*
X132943836Y-90297080D01*
X133027072Y-90159392D01*
X133074932Y-90005802D01*
X133074935Y-90005792D01*
X133077914Y-89973000D01*
X131831000Y-89973000D01*
X131831000Y-90548000D01*
X131331000Y-90548000D01*
X131331000Y-89973000D01*
X130084085Y-89973000D01*
X104513500Y-89973000D01*
X104513500Y-89472999D01*
X130084085Y-89472999D01*
X130084085Y-89473000D01*
X131331000Y-89473000D01*
X131831000Y-89473000D01*
X133077915Y-89473000D01*
X133077914Y-89472999D01*
X133074935Y-89440207D01*
X133074932Y-89440197D01*
X133027072Y-89286607D01*
X132943836Y-89148919D01*
X132830080Y-89035163D01*
X132692396Y-88951929D01*
X132538792Y-88904065D01*
X132472043Y-88898000D01*
X131831000Y-88898000D01*
X131831000Y-89473000D01*
X131331000Y-89473000D01*
X131331000Y-88898000D01*
X130689957Y-88898000D01*
X130623207Y-88904065D01*
X130469603Y-88951929D01*
X130331919Y-89035163D01*
X130218163Y-89148919D01*
X130134927Y-89286607D01*
X130087067Y-89440197D01*
X130087064Y-89440207D01*
X130084085Y-89472999D01*
X104513500Y-89472999D01*
X104513500Y-87604526D01*
X104533185Y-87537487D01*
X104585989Y-87491732D01*
X104655147Y-87481788D01*
X104718703Y-87510813D01*
X104754542Y-87563571D01*
X104811211Y-87725523D01*
X104907184Y-87878262D01*
X105034738Y-88005816D01*
X105187478Y-88101789D01*
X105199207Y-88105893D01*
X105357745Y-88161368D01*
X105357750Y-88161369D01*
X105536996Y-88181565D01*
X105537000Y-88181565D01*
X105537004Y-88181565D01*
X105716249Y-88161369D01*
X105716252Y-88161368D01*
X105716255Y-88161368D01*
X105886522Y-88101789D01*
X105977687Y-88044505D01*
X106043659Y-88025500D01*
X110450651Y-88025500D01*
X110517690Y-88045185D01*
X110563445Y-88097989D01*
X110574651Y-88149500D01*
X110574651Y-88695876D01*
X110581058Y-88755483D01*
X110631352Y-88890328D01*
X110631356Y-88890335D01*
X110717602Y-89005544D01*
X110717605Y-89005547D01*
X110832814Y-89091793D01*
X110832821Y-89091797D01*
X110967667Y-89142091D01*
X110967666Y-89142091D01*
X110974594Y-89142835D01*
X111027277Y-89148500D01*
X113623022Y-89148499D01*
X113682633Y-89142091D01*
X113817481Y-89091796D01*
X113932696Y-89005546D01*
X114018946Y-88890331D01*
X114069241Y-88755483D01*
X114075650Y-88695873D01*
X114075649Y-87606911D01*
X130080500Y-87606911D01*
X130080500Y-88039098D01*
X130086568Y-88105882D01*
X130086571Y-88105893D01*
X130134467Y-88259598D01*
X130134468Y-88259600D01*
X130134469Y-88259602D01*
X130180894Y-88336398D01*
X130217766Y-88397391D01*
X130331608Y-88511233D01*
X130331610Y-88511234D01*
X130331612Y-88511236D01*
X130469398Y-88594531D01*
X130623113Y-88642430D01*
X130689909Y-88648500D01*
X132472090Y-88648499D01*
X132472097Y-88648499D01*
X132538882Y-88642431D01*
X132538885Y-88642430D01*
X132538887Y-88642430D01*
X132692602Y-88594531D01*
X132754833Y-88556911D01*
X133500500Y-88556911D01*
X133500500Y-88989098D01*
X133506568Y-89055882D01*
X133506571Y-89055893D01*
X133554467Y-89209598D01*
X133554468Y-89209600D01*
X133554469Y-89209602D01*
X133615946Y-89311296D01*
X133637766Y-89347391D01*
X133751608Y-89461233D01*
X133751610Y-89461234D01*
X133751612Y-89461236D01*
X133889398Y-89544531D01*
X134043113Y-89592430D01*
X134109909Y-89598500D01*
X135892090Y-89598499D01*
X135892097Y-89598499D01*
X135958882Y-89592431D01*
X135958885Y-89592430D01*
X135958887Y-89592430D01*
X136112602Y-89544531D01*
X136250388Y-89461236D01*
X136364236Y-89347388D01*
X136447531Y-89209602D01*
X136495430Y-89055887D01*
X136501500Y-88989091D01*
X136501499Y-88556910D01*
X136501499Y-88556909D01*
X136501499Y-88556901D01*
X136495431Y-88490117D01*
X136495428Y-88490106D01*
X136447532Y-88336401D01*
X136447531Y-88336400D01*
X136447531Y-88336398D01*
X136364236Y-88198612D01*
X136364234Y-88198610D01*
X136364233Y-88198608D01*
X136250391Y-88084766D01*
X136183793Y-88044506D01*
X136112602Y-88001469D01*
X135958887Y-87953570D01*
X135958885Y-87953569D01*
X135958883Y-87953569D01*
X135912117Y-87949319D01*
X135892091Y-87947500D01*
X135892088Y-87947500D01*
X134109901Y-87947500D01*
X134043117Y-87953568D01*
X134043106Y-87953571D01*
X133889401Y-88001467D01*
X133751608Y-88084766D01*
X133637766Y-88198608D01*
X133554469Y-88336397D01*
X133506569Y-88490116D01*
X133500500Y-88556911D01*
X132754833Y-88556911D01*
X132830388Y-88511236D01*
X132944236Y-88397388D01*
X133027531Y-88259602D01*
X133075430Y-88105887D01*
X133081500Y-88039091D01*
X133081499Y-87606910D01*
X133081499Y-87606909D01*
X133081499Y-87606901D01*
X133075431Y-87540117D01*
X133075428Y-87540106D01*
X133027532Y-87386401D01*
X133027531Y-87386400D01*
X133027531Y-87386398D01*
X132944236Y-87248612D01*
X132944234Y-87248610D01*
X132944233Y-87248608D01*
X132830391Y-87134766D01*
X132692602Y-87051469D01*
X132692596Y-87051467D01*
X132538887Y-87003570D01*
X132538885Y-87003569D01*
X132538883Y-87003569D01*
X132492117Y-86999319D01*
X132472091Y-86997500D01*
X132472088Y-86997500D01*
X132323500Y-86997500D01*
X132256461Y-86977815D01*
X132210706Y-86925011D01*
X132199500Y-86873500D01*
X132199500Y-86266671D01*
X132218507Y-86200698D01*
X132297788Y-86074524D01*
X132309688Y-86040517D01*
X132357368Y-85904255D01*
X132366884Y-85819796D01*
X132377565Y-85725003D01*
X132377565Y-85724996D01*
X132357369Y-85545750D01*
X132357368Y-85545745D01*
X132326410Y-85457272D01*
X132297789Y-85375478D01*
X132201816Y-85222738D01*
X132074262Y-85095184D01*
X131980506Y-85036273D01*
X131921523Y-84999211D01*
X131751254Y-84939631D01*
X131751249Y-84939630D01*
X131572004Y-84919435D01*
X131571996Y-84919435D01*
X131392750Y-84939630D01*
X131392745Y-84939631D01*
X131222476Y-84999211D01*
X131069737Y-85095184D01*
X130942184Y-85222737D01*
X130846211Y-85375476D01*
X130786631Y-85545745D01*
X130786630Y-85545750D01*
X130766435Y-85724996D01*
X130766435Y-85725003D01*
X130786630Y-85904249D01*
X130786631Y-85904254D01*
X130846211Y-86074524D01*
X130925493Y-86200698D01*
X130944500Y-86266671D01*
X130944500Y-86873500D01*
X130924815Y-86940539D01*
X130872011Y-86986294D01*
X130820501Y-86997500D01*
X130689901Y-86997500D01*
X130623117Y-87003568D01*
X130623106Y-87003571D01*
X130469401Y-87051467D01*
X130331608Y-87134766D01*
X130217766Y-87248608D01*
X130134469Y-87386397D01*
X130086569Y-87540116D01*
X130080500Y-87606911D01*
X114075649Y-87606911D01*
X114075649Y-86586279D01*
X114095334Y-86519241D01*
X114111963Y-86498604D01*
X116126750Y-84483819D01*
X116188073Y-84450334D01*
X116214431Y-84447500D01*
X138186500Y-84447500D01*
X138253539Y-84467185D01*
X138299294Y-84519989D01*
X138310500Y-84571500D01*
X138310500Y-98617197D01*
X138310500Y-98740803D01*
X138310500Y-98740805D01*
X138310499Y-98740805D01*
X138334613Y-98862029D01*
X138334616Y-98862039D01*
X138381913Y-98976226D01*
X138381920Y-98976239D01*
X138450588Y-99079007D01*
X138450591Y-99079011D01*
X138537988Y-99166408D01*
X138537992Y-99166411D01*
X138640760Y-99235079D01*
X138640773Y-99235086D01*
X138754960Y-99282383D01*
X138754965Y-99282385D01*
X138754969Y-99282385D01*
X138754970Y-99282386D01*
X138876194Y-99306500D01*
X138876197Y-99306500D01*
X143730328Y-99306500D01*
X143796299Y-99325505D01*
X143922478Y-99404789D01*
X144092745Y-99464368D01*
X144092750Y-99464369D01*
X144271996Y-99484565D01*
X144272000Y-99484565D01*
X144272004Y-99484565D01*
X144451249Y-99464369D01*
X144451252Y-99464368D01*
X144451255Y-99464368D01*
X144621522Y-99404789D01*
X144774262Y-99308816D01*
X144901816Y-99181262D01*
X144997789Y-99028522D01*
X145057368Y-98858255D01*
X145062609Y-98811738D01*
X145077565Y-98679003D01*
X145077565Y-98678996D01*
X145057369Y-98499750D01*
X145057368Y-98499745D01*
X144997788Y-98329476D01*
X144955257Y-98261789D01*
X144901816Y-98176738D01*
X144774262Y-98049184D01*
X144747700Y-98032494D01*
X144621523Y-97953211D01*
X144451254Y-97893631D01*
X144451249Y-97893630D01*
X144272004Y-97873435D01*
X144271996Y-97873435D01*
X144092750Y-97893630D01*
X144092745Y-97893631D01*
X143922476Y-97953211D01*
X143796300Y-98032494D01*
X143730328Y-98051500D01*
X139689500Y-98051500D01*
X139622461Y-98031815D01*
X139576706Y-97979011D01*
X139565500Y-97927500D01*
X139565500Y-89689666D01*
X143263500Y-89689666D01*
X143263500Y-89888333D01*
X143302254Y-90083161D01*
X143302256Y-90083169D01*
X143378277Y-90266701D01*
X143378282Y-90266710D01*
X143488646Y-90431880D01*
X143488649Y-90431884D01*
X143629115Y-90572350D01*
X143629119Y-90572353D01*
X143794289Y-90682717D01*
X143794295Y-90682720D01*
X143794296Y-90682721D01*
X143977831Y-90758744D01*
X144172666Y-90797499D01*
X144172670Y-90797500D01*
X144172671Y-90797500D01*
X151400770Y-90797500D01*
X151467809Y-90817185D01*
X151480524Y-90827431D01*
X151480681Y-90827234D01*
X151486341Y-90831709D01*
X151486344Y-90831712D01*
X151635666Y-90923814D01*
X151802203Y-90978999D01*
X151904991Y-90989500D01*
X152705008Y-90989499D01*
X152705016Y-90989498D01*
X152705019Y-90989498D01*
X152761302Y-90983748D01*
X152807797Y-90978999D01*
X152974334Y-90923814D01*
X153123656Y-90831712D01*
X153217319Y-90738049D01*
X153278642Y-90704564D01*
X153348334Y-90709548D01*
X153392681Y-90738049D01*
X153486344Y-90831712D01*
X153618596Y-90913285D01*
X153665321Y-90965233D01*
X153677500Y-91018824D01*
X153677500Y-92176718D01*
X153657815Y-92243757D01*
X153641181Y-92264399D01*
X152781398Y-93124181D01*
X152720075Y-93157666D01*
X152693717Y-93160500D01*
X152031998Y-93160500D01*
X152031980Y-93160501D01*
X151929203Y-93171000D01*
X151929200Y-93171001D01*
X151762668Y-93226185D01*
X151762663Y-93226187D01*
X151613342Y-93318289D01*
X151489289Y-93442342D01*
X151397187Y-93591663D01*
X151397185Y-93591668D01*
X151378352Y-93648504D01*
X151338579Y-93705949D01*
X151274063Y-93732772D01*
X151260646Y-93733500D01*
X150786034Y-93733500D01*
X150718995Y-93713815D01*
X150717143Y-93712602D01*
X150665238Y-93677920D01*
X150665226Y-93677913D01*
X150631785Y-93664062D01*
X150551035Y-93630614D01*
X150551027Y-93630612D01*
X150429807Y-93606500D01*
X150429803Y-93606500D01*
X150274672Y-93606500D01*
X150208700Y-93587494D01*
X150082523Y-93508211D01*
X149912254Y-93448631D01*
X149912249Y-93448630D01*
X149733004Y-93428435D01*
X149732996Y-93428435D01*
X149553750Y-93448630D01*
X149553745Y-93448631D01*
X149383476Y-93508211D01*
X149230737Y-93604184D01*
X149103184Y-93731737D01*
X149007211Y-93884476D01*
X148947631Y-94054745D01*
X148947630Y-94054750D01*
X148927435Y-94233996D01*
X148927435Y-94234003D01*
X148947630Y-94413249D01*
X148947631Y-94413254D01*
X149007211Y-94583523D01*
X149103184Y-94736262D01*
X149230738Y-94863816D01*
X149291145Y-94901772D01*
X149355351Y-94942116D01*
X149383478Y-94959789D01*
X149521509Y-95008088D01*
X149553745Y-95019368D01*
X149553750Y-95019369D01*
X149732996Y-95039565D01*
X149733000Y-95039565D01*
X149733004Y-95039565D01*
X149912249Y-95019369D01*
X149912251Y-95019368D01*
X149912255Y-95019368D01*
X149912258Y-95019366D01*
X149912262Y-95019366D01*
X149963300Y-95001506D01*
X150082522Y-94959789D01*
X150115029Y-94939363D01*
X150182265Y-94920361D01*
X150228447Y-94929791D01*
X150241547Y-94935217D01*
X150311965Y-94964385D01*
X150311969Y-94964385D01*
X150311970Y-94964386D01*
X150433194Y-94988500D01*
X150433197Y-94988500D01*
X150556803Y-94988500D01*
X151260646Y-94988500D01*
X151327685Y-95008185D01*
X151373440Y-95060989D01*
X151378352Y-95073496D01*
X151397185Y-95130331D01*
X151397187Y-95130336D01*
X151426891Y-95178494D01*
X151489288Y-95279656D01*
X151613344Y-95403712D01*
X151762666Y-95495814D01*
X151929203Y-95550999D01*
X152031991Y-95561500D01*
X152832008Y-95561499D01*
X152832016Y-95561498D01*
X152832019Y-95561498D01*
X152888302Y-95555748D01*
X152934797Y-95550999D01*
X153101334Y-95495814D01*
X153250656Y-95403712D01*
X153344675Y-95309692D01*
X153405994Y-95276210D01*
X153475686Y-95281194D01*
X153520034Y-95309695D01*
X153613654Y-95403315D01*
X153762875Y-95495356D01*
X153762880Y-95495358D01*
X153929302Y-95550505D01*
X153929309Y-95550506D01*
X154032019Y-95560999D01*
X154181999Y-95560999D01*
X154682000Y-95560999D01*
X154831972Y-95560999D01*
X154831986Y-95560998D01*
X154934697Y-95550505D01*
X155101119Y-95495358D01*
X155101124Y-95495356D01*
X155250345Y-95403315D01*
X155374315Y-95279345D01*
X155466356Y-95130124D01*
X155466358Y-95130119D01*
X155521505Y-94963697D01*
X155521506Y-94963690D01*
X155531999Y-94860986D01*
X155532000Y-94860973D01*
X155532000Y-94611000D01*
X154682000Y-94611000D01*
X154682000Y-95560999D01*
X154181999Y-95560999D01*
X154182000Y-95560998D01*
X154182000Y-94235000D01*
X154201685Y-94167961D01*
X154254489Y-94122206D01*
X154306000Y-94111000D01*
X155531999Y-94111000D01*
X155531999Y-93861028D01*
X155531998Y-93861013D01*
X155521505Y-93758302D01*
X155466358Y-93591880D01*
X155466356Y-93591875D01*
X155374315Y-93442654D01*
X155250345Y-93318684D01*
X155101124Y-93226643D01*
X155101119Y-93226641D01*
X154934697Y-93171494D01*
X154934690Y-93171493D01*
X154831986Y-93161000D01*
X154818782Y-93161000D01*
X154751743Y-93141315D01*
X154705988Y-93088511D01*
X154696044Y-93019353D01*
X154725069Y-92955797D01*
X154731101Y-92949319D01*
X154792408Y-92888011D01*
X154792408Y-92888010D01*
X154792411Y-92888008D01*
X154861083Y-92785233D01*
X154874937Y-92751784D01*
X154908386Y-92671035D01*
X154932500Y-92549803D01*
X154932500Y-92426197D01*
X154932500Y-91018824D01*
X154952185Y-90951785D01*
X154991404Y-90913285D01*
X155123656Y-90831712D01*
X155247712Y-90707656D01*
X155339814Y-90558334D01*
X155394999Y-90391797D01*
X155405500Y-90289009D01*
X155405499Y-89288992D01*
X155405255Y-89286607D01*
X155394999Y-89186203D01*
X155394998Y-89186200D01*
X155378907Y-89137641D01*
X155339814Y-89019666D01*
X155247712Y-88870344D01*
X155123656Y-88746288D01*
X154974334Y-88654186D01*
X154807797Y-88599001D01*
X154807795Y-88599000D01*
X154705010Y-88588500D01*
X153904998Y-88588500D01*
X153904980Y-88588501D01*
X153802203Y-88599000D01*
X153802200Y-88599001D01*
X153635668Y-88654185D01*
X153635663Y-88654187D01*
X153486342Y-88746289D01*
X153392681Y-88839951D01*
X153331358Y-88873436D01*
X153261666Y-88868452D01*
X153217319Y-88839951D01*
X153123657Y-88746289D01*
X153123656Y-88746288D01*
X152974334Y-88654186D01*
X152807797Y-88599001D01*
X152807795Y-88599000D01*
X152705010Y-88588500D01*
X151904998Y-88588500D01*
X151904980Y-88588501D01*
X151802203Y-88599000D01*
X151802200Y-88599001D01*
X151635668Y-88654185D01*
X151635663Y-88654187D01*
X151486341Y-88746290D01*
X151480681Y-88750766D01*
X151479387Y-88749130D01*
X151427128Y-88777666D01*
X151400770Y-88780500D01*
X144172666Y-88780500D01*
X143977838Y-88819254D01*
X143977830Y-88819256D01*
X143794298Y-88895277D01*
X143794289Y-88895282D01*
X143629119Y-89005646D01*
X143629115Y-89005649D01*
X143488649Y-89146115D01*
X143488646Y-89146119D01*
X143378282Y-89311289D01*
X143378277Y-89311298D01*
X143302256Y-89494830D01*
X143302254Y-89494838D01*
X143263500Y-89689666D01*
X139565500Y-89689666D01*
X139565500Y-84716983D01*
X151077500Y-84716983D01*
X151077500Y-85717001D01*
X151077501Y-85717019D01*
X151088000Y-85819796D01*
X151088001Y-85819799D01*
X151116456Y-85905669D01*
X151143186Y-85986334D01*
X151235288Y-86135656D01*
X151359344Y-86259712D01*
X151508666Y-86351814D01*
X151675203Y-86406999D01*
X151777991Y-86417500D01*
X152578008Y-86417499D01*
X152578016Y-86417498D01*
X152578019Y-86417498D01*
X152634302Y-86411748D01*
X152680797Y-86406999D01*
X152847334Y-86351814D01*
X152996656Y-86259712D01*
X153090675Y-86165692D01*
X153151994Y-86132210D01*
X153221686Y-86137194D01*
X153266034Y-86165695D01*
X153359654Y-86259315D01*
X153508875Y-86351356D01*
X153508880Y-86351358D01*
X153675302Y-86406505D01*
X153675309Y-86406506D01*
X153778019Y-86416999D01*
X153927999Y-86416999D01*
X154428000Y-86416999D01*
X154577972Y-86416999D01*
X154577986Y-86416998D01*
X154680697Y-86406505D01*
X154847119Y-86351358D01*
X154847124Y-86351356D01*
X154996345Y-86259315D01*
X155120315Y-86135345D01*
X155212356Y-85986124D01*
X155212358Y-85986119D01*
X155267505Y-85819697D01*
X155267506Y-85819690D01*
X155277999Y-85716986D01*
X155278000Y-85716973D01*
X155278000Y-85467000D01*
X154428000Y-85467000D01*
X154428000Y-86416999D01*
X153927999Y-86416999D01*
X153928000Y-86416998D01*
X153928000Y-84967000D01*
X154428000Y-84967000D01*
X155277999Y-84967000D01*
X155277999Y-84717028D01*
X155277998Y-84717013D01*
X155267505Y-84614302D01*
X155212358Y-84447880D01*
X155212356Y-84447875D01*
X155120315Y-84298654D01*
X154996345Y-84174684D01*
X154847124Y-84082643D01*
X154847119Y-84082641D01*
X154680697Y-84027494D01*
X154680690Y-84027493D01*
X154577986Y-84017000D01*
X154428000Y-84017000D01*
X154428000Y-84967000D01*
X153928000Y-84967000D01*
X153928000Y-84017000D01*
X153778027Y-84017000D01*
X153778012Y-84017001D01*
X153675302Y-84027494D01*
X153508880Y-84082641D01*
X153508875Y-84082643D01*
X153359657Y-84174682D01*
X153266034Y-84268305D01*
X153204710Y-84301789D01*
X153135019Y-84296805D01*
X153090672Y-84268304D01*
X152996657Y-84174289D01*
X152996656Y-84174288D01*
X152864403Y-84092714D01*
X152817679Y-84040766D01*
X152805500Y-83987175D01*
X152805500Y-83555500D01*
X152825185Y-83488461D01*
X152877989Y-83442706D01*
X152929500Y-83431500D01*
X162018328Y-83431500D01*
X162084299Y-83450505D01*
X162210478Y-83529789D01*
X162283956Y-83555500D01*
X162380745Y-83589368D01*
X162380750Y-83589369D01*
X162559996Y-83609565D01*
X162560000Y-83609565D01*
X162560004Y-83609565D01*
X162739249Y-83589369D01*
X162739252Y-83589368D01*
X162739255Y-83589368D01*
X162909522Y-83529789D01*
X163062262Y-83433816D01*
X163189816Y-83306262D01*
X163285789Y-83153522D01*
X163345368Y-82983255D01*
X163352275Y-82921952D01*
X163365565Y-82804003D01*
X163365565Y-82803996D01*
X163345369Y-82624750D01*
X163345368Y-82624745D01*
X163309416Y-82522000D01*
X163285789Y-82454478D01*
X163189816Y-82301738D01*
X163062262Y-82174184D01*
X163012765Y-82143083D01*
X162909523Y-82078211D01*
X162739254Y-82018631D01*
X162739249Y-82018630D01*
X162560004Y-81998435D01*
X162559996Y-81998435D01*
X162380750Y-82018630D01*
X162380745Y-82018631D01*
X162210476Y-82078211D01*
X162084300Y-82157494D01*
X162018328Y-82176500D01*
X152084192Y-82176500D01*
X151962972Y-82200612D01*
X151962964Y-82200614D01*
X151882215Y-82234062D01*
X151848767Y-82247917D01*
X151824568Y-82264086D01*
X151745989Y-82316590D01*
X151658591Y-82403988D01*
X151658585Y-82403996D01*
X151589233Y-82507789D01*
X151587586Y-82512393D01*
X151542614Y-82620964D01*
X151542612Y-82620972D01*
X151518500Y-82742192D01*
X151518500Y-82865807D01*
X151542612Y-82987027D01*
X151544382Y-82992862D01*
X151543045Y-82993267D01*
X151550500Y-83030738D01*
X151550500Y-83987175D01*
X151530815Y-84054214D01*
X151491597Y-84092714D01*
X151359342Y-84174289D01*
X151235289Y-84298342D01*
X151143187Y-84447663D01*
X151143185Y-84447668D01*
X151131206Y-84483819D01*
X151088001Y-84614203D01*
X151088001Y-84614204D01*
X151088000Y-84614204D01*
X151077500Y-84716983D01*
X139565500Y-84716983D01*
X139565500Y-76570500D01*
X139585185Y-76503461D01*
X139637989Y-76457706D01*
X139689500Y-76446500D01*
X151006646Y-76446500D01*
X151073685Y-76466185D01*
X151119440Y-76518989D01*
X151124350Y-76531492D01*
X151143186Y-76588334D01*
X151235288Y-76737656D01*
X151359344Y-76861712D01*
X151508666Y-76953814D01*
X151675203Y-77008999D01*
X151777991Y-77019500D01*
X152578008Y-77019499D01*
X152578016Y-77019498D01*
X152578019Y-77019498D01*
X152634302Y-77013748D01*
X152680797Y-77008999D01*
X152847334Y-76953814D01*
X152996656Y-76861712D01*
X153090319Y-76768049D01*
X153151642Y-76734564D01*
X153221334Y-76739548D01*
X153265681Y-76768049D01*
X153359344Y-76861712D01*
X153491596Y-76943285D01*
X153538321Y-76995233D01*
X153550500Y-77048824D01*
X153550500Y-78206718D01*
X153530815Y-78273757D01*
X153514181Y-78294399D01*
X152527398Y-79281181D01*
X152466075Y-79314666D01*
X152439717Y-79317500D01*
X151777998Y-79317500D01*
X151777980Y-79317501D01*
X151675203Y-79328000D01*
X151675200Y-79328001D01*
X151508668Y-79383185D01*
X151508663Y-79383187D01*
X151359342Y-79475289D01*
X151235289Y-79599342D01*
X151143187Y-79748663D01*
X151143185Y-79748668D01*
X151124352Y-79805504D01*
X151084579Y-79862949D01*
X151020063Y-79889772D01*
X151006646Y-79890500D01*
X149386540Y-79890500D01*
X149345585Y-79883541D01*
X149277262Y-79859633D01*
X149277249Y-79859630D01*
X149098004Y-79839435D01*
X149097996Y-79839435D01*
X148918750Y-79859630D01*
X148918745Y-79859631D01*
X148748476Y-79919211D01*
X148595737Y-80015184D01*
X148468184Y-80142737D01*
X148372211Y-80295476D01*
X148312631Y-80465745D01*
X148312630Y-80465750D01*
X148292435Y-80644996D01*
X148292435Y-80645003D01*
X148312630Y-80824249D01*
X148312631Y-80824254D01*
X148372211Y-80994523D01*
X148451488Y-81120690D01*
X148468184Y-81147262D01*
X148595738Y-81274816D01*
X148748478Y-81370789D01*
X148799905Y-81388784D01*
X148918745Y-81430368D01*
X148918750Y-81430369D01*
X149097996Y-81450565D01*
X149098000Y-81450565D01*
X149098004Y-81450565D01*
X149277249Y-81430369D01*
X149277252Y-81430368D01*
X149277255Y-81430368D01*
X149447522Y-81370789D01*
X149600262Y-81274816D01*
X149693260Y-81181818D01*
X149754584Y-81148334D01*
X149780941Y-81145500D01*
X151006646Y-81145500D01*
X151073685Y-81165185D01*
X151119440Y-81217989D01*
X151124352Y-81230496D01*
X151143185Y-81287331D01*
X151143187Y-81287336D01*
X151178069Y-81343888D01*
X151235288Y-81436656D01*
X151359344Y-81560712D01*
X151508666Y-81652814D01*
X151675203Y-81707999D01*
X151777991Y-81718500D01*
X152578008Y-81718499D01*
X152578016Y-81718498D01*
X152578019Y-81718498D01*
X152634302Y-81712748D01*
X152680797Y-81707999D01*
X152847334Y-81652814D01*
X152996656Y-81560712D01*
X153090675Y-81466692D01*
X153151994Y-81433210D01*
X153221686Y-81438194D01*
X153266034Y-81466695D01*
X153359654Y-81560315D01*
X153508875Y-81652356D01*
X153508880Y-81652358D01*
X153675302Y-81707505D01*
X153675309Y-81707506D01*
X153778019Y-81717999D01*
X153927999Y-81717999D01*
X154428000Y-81717999D01*
X154577972Y-81717999D01*
X154577986Y-81717998D01*
X154680697Y-81707505D01*
X154847119Y-81652358D01*
X154847124Y-81652356D01*
X154996345Y-81560315D01*
X155120315Y-81436345D01*
X155212356Y-81287124D01*
X155212358Y-81287119D01*
X155267505Y-81120697D01*
X155267506Y-81120690D01*
X155277999Y-81017986D01*
X155278000Y-81017973D01*
X155278000Y-80768000D01*
X154428000Y-80768000D01*
X154428000Y-81717999D01*
X153927999Y-81717999D01*
X153928000Y-81717998D01*
X153928000Y-80392000D01*
X153947685Y-80324961D01*
X154000489Y-80279206D01*
X154052000Y-80268000D01*
X155277999Y-80268000D01*
X155277999Y-80018028D01*
X155277998Y-80018013D01*
X155267505Y-79915302D01*
X155212358Y-79748880D01*
X155212356Y-79748875D01*
X155120315Y-79599654D01*
X154996345Y-79475684D01*
X154847124Y-79383643D01*
X154847119Y-79383641D01*
X154680697Y-79328494D01*
X154680690Y-79328493D01*
X154577986Y-79318000D01*
X154564781Y-79318000D01*
X154497742Y-79298315D01*
X154451987Y-79245511D01*
X154442043Y-79176353D01*
X154471068Y-79112797D01*
X154477100Y-79106319D01*
X154665411Y-78918008D01*
X154690945Y-78879794D01*
X154712306Y-78847825D01*
X154734083Y-78815233D01*
X154781385Y-78701035D01*
X154789276Y-78661361D01*
X154805500Y-78579805D01*
X154805500Y-77048824D01*
X154825185Y-76981785D01*
X154864404Y-76943285D01*
X154996656Y-76861712D01*
X155120712Y-76737656D01*
X155212814Y-76588334D01*
X155267999Y-76421797D01*
X155278500Y-76319009D01*
X155278499Y-75318992D01*
X155276916Y-75303500D01*
X155267999Y-75216203D01*
X155267998Y-75216200D01*
X155259572Y-75190772D01*
X155212814Y-75049666D01*
X155120712Y-74900344D01*
X154996656Y-74776288D01*
X154847334Y-74684186D01*
X154680797Y-74629001D01*
X154680795Y-74629000D01*
X154578010Y-74618500D01*
X153777998Y-74618500D01*
X153777980Y-74618501D01*
X153675203Y-74629000D01*
X153675200Y-74629001D01*
X153508668Y-74684185D01*
X153508663Y-74684187D01*
X153359342Y-74776289D01*
X153265681Y-74869951D01*
X153204358Y-74903436D01*
X153134666Y-74898452D01*
X153090319Y-74869951D01*
X152996657Y-74776289D01*
X152996656Y-74776288D01*
X152847334Y-74684186D01*
X152680797Y-74629001D01*
X152680795Y-74629000D01*
X152578010Y-74618500D01*
X151777998Y-74618500D01*
X151777980Y-74618501D01*
X151675203Y-74629000D01*
X151675200Y-74629001D01*
X151508668Y-74684185D01*
X151508663Y-74684187D01*
X151359342Y-74776289D01*
X151235289Y-74900342D01*
X151143187Y-75049663D01*
X151143185Y-75049668D01*
X151124352Y-75106504D01*
X151084579Y-75163949D01*
X151020063Y-75190772D01*
X151006646Y-75191500D01*
X138876195Y-75191500D01*
X138754970Y-75215613D01*
X138754960Y-75215616D01*
X138640773Y-75262913D01*
X138640760Y-75262920D01*
X138537992Y-75331588D01*
X138537988Y-75331591D01*
X138450591Y-75418988D01*
X138450588Y-75418992D01*
X138381920Y-75521760D01*
X138381913Y-75521773D01*
X138334616Y-75635960D01*
X138334613Y-75635970D01*
X138310500Y-75757194D01*
X138310500Y-83068500D01*
X138290815Y-83135539D01*
X138238011Y-83181294D01*
X138186500Y-83192500D01*
X132080251Y-83192500D01*
X132013212Y-83172815D01*
X131967457Y-83120011D01*
X131957513Y-83050853D01*
X131986538Y-82987297D01*
X132014278Y-82963507D01*
X132054349Y-82938327D01*
X132074262Y-82925816D01*
X132201816Y-82798262D01*
X132297789Y-82645522D01*
X132357368Y-82475255D01*
X132359709Y-82454478D01*
X132377565Y-82296003D01*
X132377565Y-82295996D01*
X132357369Y-82116750D01*
X132357368Y-82116745D01*
X132339877Y-82066759D01*
X132297789Y-81946478D01*
X132218505Y-81820299D01*
X132199500Y-81754328D01*
X132199500Y-81208499D01*
X132219185Y-81141460D01*
X132271989Y-81095705D01*
X132323500Y-81084499D01*
X132520247Y-81084499D01*
X132587032Y-81078431D01*
X132587035Y-81078430D01*
X132587037Y-81078430D01*
X132740752Y-81030531D01*
X132878538Y-80947236D01*
X132992386Y-80833388D01*
X133075681Y-80695602D01*
X133123580Y-80541887D01*
X133129650Y-80475091D01*
X133129649Y-80042910D01*
X133129649Y-80042909D01*
X133129649Y-80042901D01*
X133123581Y-79976117D01*
X133123578Y-79976106D01*
X133075682Y-79822401D01*
X133075681Y-79822400D01*
X133075681Y-79822398D01*
X132992386Y-79684612D01*
X132992384Y-79684610D01*
X132992383Y-79684608D01*
X132878541Y-79570766D01*
X132831254Y-79542180D01*
X132740752Y-79487469D01*
X132587037Y-79439570D01*
X132587035Y-79439569D01*
X132587033Y-79439569D01*
X132540267Y-79435319D01*
X132520241Y-79433500D01*
X132520238Y-79433500D01*
X130738051Y-79433500D01*
X130671267Y-79439568D01*
X130671256Y-79439571D01*
X130517551Y-79487467D01*
X130379758Y-79570766D01*
X130265916Y-79684608D01*
X130182619Y-79822397D01*
X130134719Y-79976116D01*
X130128650Y-80042911D01*
X130128650Y-80475098D01*
X130134718Y-80541882D01*
X130134721Y-80541893D01*
X130182617Y-80695598D01*
X130182618Y-80695600D01*
X130182619Y-80695602D01*
X130242049Y-80793910D01*
X130265916Y-80833391D01*
X130379758Y-80947233D01*
X130379760Y-80947234D01*
X130379762Y-80947236D01*
X130517548Y-81030531D01*
X130671263Y-81078430D01*
X130738059Y-81084500D01*
X130820501Y-81084499D01*
X130887538Y-81104183D01*
X130933294Y-81156986D01*
X130944500Y-81208499D01*
X130944500Y-81754328D01*
X130925494Y-81820300D01*
X130846211Y-81946476D01*
X130786631Y-82116745D01*
X130786630Y-82116750D01*
X130766435Y-82295996D01*
X130766435Y-82296003D01*
X130786630Y-82475249D01*
X130786631Y-82475254D01*
X130846211Y-82645523D01*
X130942184Y-82798262D01*
X131069739Y-82925817D01*
X131129722Y-82963507D01*
X131176012Y-83015841D01*
X131186660Y-83084895D01*
X131158285Y-83148743D01*
X131099895Y-83187115D01*
X131063749Y-83192500D01*
X115841345Y-83192500D01*
X115720120Y-83216613D01*
X115720110Y-83216616D01*
X115605923Y-83263913D01*
X115605910Y-83263920D01*
X115523177Y-83319201D01*
X115523176Y-83319203D01*
X115523028Y-83319302D01*
X115503136Y-83332593D01*
X113224548Y-85611181D01*
X113163225Y-85644666D01*
X113136867Y-85647500D01*
X111027279Y-85647500D01*
X111027273Y-85647501D01*
X110967666Y-85653908D01*
X110832821Y-85704202D01*
X110832814Y-85704206D01*
X110717605Y-85790452D01*
X110717602Y-85790455D01*
X110631356Y-85905664D01*
X110631352Y-85905671D01*
X110581058Y-86040517D01*
X110574651Y-86100116D01*
X110574650Y-86100135D01*
X110574650Y-86646500D01*
X110554965Y-86713539D01*
X110502161Y-86759294D01*
X110450650Y-86770500D01*
X106113143Y-86770500D01*
X106046104Y-86750815D01*
X106042370Y-86748137D01*
X105886523Y-86650211D01*
X105716254Y-86590631D01*
X105716249Y-86590630D01*
X105537004Y-86570435D01*
X105536996Y-86570435D01*
X105357750Y-86590630D01*
X105357745Y-86590631D01*
X105187476Y-86650211D01*
X105034737Y-86746184D01*
X104907184Y-86873737D01*
X104811209Y-87026480D01*
X104754541Y-87188428D01*
X104713820Y-87245204D01*
X104648867Y-87270951D01*
X104580305Y-87257495D01*
X104529903Y-87209107D01*
X104513500Y-87147473D01*
X104513500Y-82069844D01*
X110645000Y-82069844D01*
X110651401Y-82129372D01*
X110651403Y-82129379D01*
X110701645Y-82264086D01*
X110701649Y-82264093D01*
X110787809Y-82379187D01*
X110787812Y-82379190D01*
X110902906Y-82465350D01*
X110902913Y-82465354D01*
X111037620Y-82515596D01*
X111037627Y-82515598D01*
X111097155Y-82521999D01*
X111097172Y-82522000D01*
X112145000Y-82522000D01*
X112645000Y-82522000D01*
X113692828Y-82522000D01*
X113692844Y-82521999D01*
X113752372Y-82515598D01*
X113752379Y-82515596D01*
X113887086Y-82465354D01*
X113887093Y-82465350D01*
X114002187Y-82379190D01*
X114002190Y-82379187D01*
X114088350Y-82264093D01*
X114088354Y-82264086D01*
X114138596Y-82129379D01*
X114138598Y-82129372D01*
X114144999Y-82069844D01*
X114145000Y-82069827D01*
X114145000Y-81022000D01*
X112645000Y-81022000D01*
X112645000Y-82522000D01*
X112145000Y-82522000D01*
X112145000Y-81022000D01*
X110645000Y-81022000D01*
X110645000Y-82069844D01*
X104513500Y-82069844D01*
X104513500Y-79542177D01*
X104499969Y-79474155D01*
X110645000Y-79474155D01*
X110645000Y-80522000D01*
X112145000Y-80522000D01*
X112645000Y-80522000D01*
X114145000Y-80522000D01*
X114145000Y-79474172D01*
X114144999Y-79474155D01*
X114138598Y-79414627D01*
X114138596Y-79414620D01*
X114088354Y-79279913D01*
X114088350Y-79279906D01*
X114002190Y-79164812D01*
X114002187Y-79164809D01*
X113887093Y-79078649D01*
X113887086Y-79078645D01*
X113752379Y-79028403D01*
X113752372Y-79028401D01*
X113692844Y-79022000D01*
X112645000Y-79022000D01*
X112645000Y-80522000D01*
X112145000Y-80522000D01*
X112145000Y-79022000D01*
X111097155Y-79022000D01*
X111037627Y-79028401D01*
X111037620Y-79028403D01*
X110902913Y-79078645D01*
X110902906Y-79078649D01*
X110787812Y-79164809D01*
X110787809Y-79164812D01*
X110701649Y-79279906D01*
X110701645Y-79279913D01*
X110651403Y-79414620D01*
X110651401Y-79414627D01*
X110645000Y-79474155D01*
X104499969Y-79474155D01*
X104479625Y-79371881D01*
X104479624Y-79371880D01*
X104479624Y-79371876D01*
X104461654Y-79328493D01*
X104413178Y-79211459D01*
X104413171Y-79211446D01*
X104316706Y-79067077D01*
X104316703Y-79067073D01*
X104193926Y-78944296D01*
X104193922Y-78944293D01*
X104049553Y-78847828D01*
X104049540Y-78847821D01*
X103889128Y-78781377D01*
X103889118Y-78781374D01*
X103718822Y-78747500D01*
X103718820Y-78747500D01*
X96572000Y-78747500D01*
X96504961Y-78727815D01*
X96459206Y-78675011D01*
X96448000Y-78623500D01*
X96448000Y-77878730D01*
X96467685Y-77811691D01*
X96484319Y-77791049D01*
X96496712Y-77778656D01*
X96498752Y-77775347D01*
X96500745Y-77773555D01*
X96501193Y-77772989D01*
X96501289Y-77773065D01*
X96550694Y-77728623D01*
X96619656Y-77717395D01*
X96683740Y-77745234D01*
X96709829Y-77775339D01*
X96711681Y-77778341D01*
X96711683Y-77778344D01*
X96835654Y-77902315D01*
X96984875Y-77994356D01*
X96984880Y-77994358D01*
X97151302Y-78049505D01*
X97151309Y-78049506D01*
X97254019Y-78059999D01*
X97391499Y-78059999D01*
X97891500Y-78059999D01*
X98028972Y-78059999D01*
X98028986Y-78059998D01*
X98131697Y-78049505D01*
X98298119Y-77994358D01*
X98298124Y-77994356D01*
X98447345Y-77902315D01*
X98571315Y-77778345D01*
X98663356Y-77629124D01*
X98663358Y-77629119D01*
X98718505Y-77462697D01*
X98718506Y-77462690D01*
X98728999Y-77359986D01*
X98729000Y-77359973D01*
X98729000Y-77085000D01*
X97891500Y-77085000D01*
X97891500Y-78059999D01*
X97391499Y-78059999D01*
X97391500Y-78059998D01*
X97391500Y-76585000D01*
X97891500Y-76585000D01*
X98728999Y-76585000D01*
X98728999Y-76310028D01*
X98728998Y-76310013D01*
X98718505Y-76207302D01*
X98663358Y-76040880D01*
X98663356Y-76040875D01*
X98571315Y-75891654D01*
X98447345Y-75767684D01*
X98298124Y-75675643D01*
X98298119Y-75675641D01*
X98131697Y-75620494D01*
X98131690Y-75620493D01*
X98028986Y-75610000D01*
X97891500Y-75610000D01*
X97891500Y-76585000D01*
X97391500Y-76585000D01*
X97391500Y-75610000D01*
X97254027Y-75610000D01*
X97254012Y-75610001D01*
X97151302Y-75620494D01*
X96984880Y-75675641D01*
X96984875Y-75675643D01*
X96835654Y-75767684D01*
X96711683Y-75891655D01*
X96711679Y-75891660D01*
X96709826Y-75894665D01*
X96708018Y-75896290D01*
X96707202Y-75897323D01*
X96707025Y-75897183D01*
X96657874Y-75941385D01*
X96588911Y-75952601D01*
X96524831Y-75924752D01*
X96498753Y-75894653D01*
X96498737Y-75894628D01*
X96496712Y-75891344D01*
X96372656Y-75767288D01*
X96223334Y-75675186D01*
X96056797Y-75620001D01*
X96056795Y-75620000D01*
X95954016Y-75609500D01*
X95954009Y-75609500D01*
X95638992Y-75609500D01*
X95571953Y-75589815D01*
X95551311Y-75573181D01*
X95532819Y-75554689D01*
X95499334Y-75493366D01*
X95496500Y-75467008D01*
X95496500Y-74675996D01*
X107906435Y-74675996D01*
X107906435Y-74676003D01*
X107926630Y-74855249D01*
X107926631Y-74855254D01*
X107986211Y-75025523D01*
X108082184Y-75178262D01*
X108209738Y-75305816D01*
X108250759Y-75331591D01*
X108321417Y-75375989D01*
X108362478Y-75401789D01*
X108435956Y-75427500D01*
X108532745Y-75461368D01*
X108532750Y-75461369D01*
X108711996Y-75481565D01*
X108712000Y-75481565D01*
X108712004Y-75481565D01*
X108891249Y-75461369D01*
X108891252Y-75461368D01*
X108891255Y-75461368D01*
X109061522Y-75401789D01*
X109187700Y-75322505D01*
X109253672Y-75303500D01*
X110647501Y-75303500D01*
X110714540Y-75323185D01*
X110760295Y-75375989D01*
X110771501Y-75427500D01*
X110771501Y-75973876D01*
X110777908Y-76033483D01*
X110828202Y-76168328D01*
X110828206Y-76168335D01*
X110914452Y-76283544D01*
X110914455Y-76283547D01*
X111029664Y-76369793D01*
X111029671Y-76369797D01*
X111164517Y-76420091D01*
X111164516Y-76420091D01*
X111171444Y-76420835D01*
X111224127Y-76426500D01*
X113819872Y-76426499D01*
X113879483Y-76420091D01*
X114014331Y-76369796D01*
X114129546Y-76283546D01*
X114215796Y-76168331D01*
X114266091Y-76033483D01*
X114272500Y-75973873D01*
X114272499Y-73378128D01*
X114266091Y-73318517D01*
X114254149Y-73286500D01*
X114215797Y-73183671D01*
X114215793Y-73183664D01*
X114129547Y-73068455D01*
X114129544Y-73068452D01*
X114014335Y-72982206D01*
X114014328Y-72982202D01*
X113879482Y-72931908D01*
X113879483Y-72931908D01*
X113819883Y-72925501D01*
X113819881Y-72925500D01*
X113819873Y-72925500D01*
X113819864Y-72925500D01*
X111224129Y-72925500D01*
X111224123Y-72925501D01*
X111164516Y-72931908D01*
X111029671Y-72982202D01*
X111029664Y-72982206D01*
X110914455Y-73068452D01*
X110914452Y-73068455D01*
X110828206Y-73183664D01*
X110828202Y-73183671D01*
X110777908Y-73318517D01*
X110771501Y-73378116D01*
X110771501Y-73378123D01*
X110771500Y-73378135D01*
X110771500Y-73924500D01*
X110751815Y-73991539D01*
X110699011Y-74037294D01*
X110647500Y-74048500D01*
X109253672Y-74048500D01*
X109187700Y-74029494D01*
X109061523Y-73950211D01*
X108891254Y-73890631D01*
X108891249Y-73890630D01*
X108712004Y-73870435D01*
X108711996Y-73870435D01*
X108532750Y-73890630D01*
X108532745Y-73890631D01*
X108362476Y-73950211D01*
X108209737Y-74046184D01*
X108082184Y-74173737D01*
X107986211Y-74326476D01*
X107926631Y-74496745D01*
X107926630Y-74496750D01*
X107906435Y-74675996D01*
X95496500Y-74675996D01*
X95496500Y-74081177D01*
X95462625Y-73910881D01*
X95462624Y-73910880D01*
X95462624Y-73910876D01*
X95445873Y-73870435D01*
X95396178Y-73750459D01*
X95396171Y-73750446D01*
X95299706Y-73606077D01*
X95299703Y-73606073D01*
X95176926Y-73483296D01*
X95176922Y-73483293D01*
X95032553Y-73386828D01*
X95032540Y-73386821D01*
X94872128Y-73320377D01*
X94872118Y-73320374D01*
X94701822Y-73286500D01*
X94701820Y-73286500D01*
X94658500Y-73286500D01*
X94591461Y-73266815D01*
X94545706Y-73214011D01*
X94534500Y-73162500D01*
X94534500Y-70322246D01*
X94554185Y-70255207D01*
X94570819Y-70234565D01*
X100357566Y-64447818D01*
X100418889Y-64414333D01*
X100445247Y-64411499D01*
X102116021Y-64411499D01*
X102116022Y-64411499D01*
X102175633Y-64405091D01*
X102310481Y-64354796D01*
X102425696Y-64268546D01*
X102511946Y-64153331D01*
X102562241Y-64018483D01*
X102568650Y-63958873D01*
X102568649Y-62288096D01*
X102588334Y-62221058D01*
X102604968Y-62200416D01*
X103157566Y-61647819D01*
X103218889Y-61614334D01*
X103245247Y-61611500D01*
X104131977Y-61611500D01*
X104199016Y-61631185D01*
X104244771Y-61683989D01*
X104254715Y-61753147D01*
X104239363Y-61797501D01*
X104221860Y-61827814D01*
X104221859Y-61827818D01*
X104123298Y-62078947D01*
X104123292Y-62078966D01*
X104063263Y-62341971D01*
X104063263Y-62341973D01*
X104043103Y-62610995D01*
X104043103Y-62611004D01*
X104063263Y-62880026D01*
X104063263Y-62880028D01*
X104123292Y-63143033D01*
X104123298Y-63143052D01*
X104221859Y-63394181D01*
X104221858Y-63394181D01*
X104356752Y-63627822D01*
X104410444Y-63695151D01*
X105247108Y-62858487D01*
X105272128Y-62918890D01*
X105343262Y-63025351D01*
X105433799Y-63115888D01*
X105540260Y-63187022D01*
X105600660Y-63212041D01*
X104762998Y-64049702D01*
X104945633Y-64174220D01*
X104945635Y-64174221D01*
X105188689Y-64291269D01*
X105188687Y-64291269D01*
X105446487Y-64370790D01*
X105446493Y-64370792D01*
X105713251Y-64410999D01*
X105713260Y-64411000D01*
X105983040Y-64411000D01*
X105983048Y-64410999D01*
X106249806Y-64370792D01*
X106249812Y-64370790D01*
X106507611Y-64291269D01*
X106750671Y-64174218D01*
X106933300Y-64049702D01*
X106095638Y-63212041D01*
X106156040Y-63187022D01*
X106262501Y-63115888D01*
X106353038Y-63025351D01*
X106424172Y-62918890D01*
X106449191Y-62858489D01*
X107285853Y-63695151D01*
X107285854Y-63695150D01*
X107339543Y-63627828D01*
X107339550Y-63627817D01*
X107474440Y-63394181D01*
X107573001Y-63143052D01*
X107573007Y-63143033D01*
X107633036Y-62880028D01*
X107633036Y-62880026D01*
X107653197Y-62611004D01*
X107653197Y-62610995D01*
X107633036Y-62341973D01*
X107633036Y-62341971D01*
X107573007Y-62078966D01*
X107573001Y-62078947D01*
X107474440Y-61827818D01*
X107474439Y-61827814D01*
X107456937Y-61797501D01*
X107440463Y-61729601D01*
X107463315Y-61663574D01*
X107518236Y-61620383D01*
X107564323Y-61611500D01*
X119294270Y-61611500D01*
X119361309Y-61631185D01*
X119407064Y-61683989D01*
X119417560Y-61748755D01*
X119415150Y-61771171D01*
X119415150Y-62869000D01*
X120615149Y-62869000D01*
X120590129Y-62929402D01*
X120565150Y-63054981D01*
X120565150Y-63183019D01*
X120590129Y-63308598D01*
X120615149Y-63369000D01*
X119415150Y-63369000D01*
X119415150Y-64466844D01*
X119421551Y-64526372D01*
X119421553Y-64526379D01*
X119471795Y-64661086D01*
X119471799Y-64661093D01*
X119557959Y-64776187D01*
X119557962Y-64776190D01*
X119673056Y-64862350D01*
X119673063Y-64862354D01*
X119807770Y-64912596D01*
X119807777Y-64912598D01*
X119867305Y-64918999D01*
X119867322Y-64919000D01*
X120965150Y-64919000D01*
X120965150Y-63719001D01*
X121025552Y-63744021D01*
X121151131Y-63769000D01*
X121279169Y-63769000D01*
X121404748Y-63744021D01*
X121465150Y-63719001D01*
X121465150Y-64919000D01*
X122562978Y-64919000D01*
X122562994Y-64918999D01*
X122622522Y-64912598D01*
X122622529Y-64912596D01*
X122757236Y-64862354D01*
X122757243Y-64862350D01*
X122872337Y-64776190D01*
X122872340Y-64776187D01*
X122958500Y-64661093D01*
X122958504Y-64661086D01*
X123008746Y-64526379D01*
X123008748Y-64526372D01*
X123015149Y-64466844D01*
X123015150Y-64466827D01*
X123015150Y-63369000D01*
X121815151Y-63369000D01*
X121840171Y-63308598D01*
X121865150Y-63183019D01*
X121865150Y-63054981D01*
X121840171Y-62929402D01*
X121815151Y-62869000D01*
X123015150Y-62869000D01*
X123015150Y-61771172D01*
X123015149Y-61771171D01*
X123012740Y-61748755D01*
X123025146Y-61679995D01*
X123072757Y-61628858D01*
X123136030Y-61611500D01*
X124956780Y-61611500D01*
X125023819Y-61631185D01*
X125069574Y-61683989D01*
X125079518Y-61753147D01*
X125050493Y-61816703D01*
X125041123Y-61826396D01*
X125036524Y-61830664D01*
X124971592Y-61890910D01*
X124803335Y-62101898D01*
X124668408Y-62335599D01*
X124668406Y-62335603D01*
X124569816Y-62586804D01*
X124569814Y-62586811D01*
X124509766Y-62849898D01*
X124489601Y-63118995D01*
X124489601Y-63119004D01*
X124509766Y-63388101D01*
X124569814Y-63651188D01*
X124569816Y-63651195D01*
X124616051Y-63769000D01*
X124668407Y-63902398D01*
X124803335Y-64136102D01*
X124908956Y-64268546D01*
X124971592Y-64347089D01*
X125158333Y-64520358D01*
X125169409Y-64530635D01*
X125392376Y-64682651D01*
X125392381Y-64682653D01*
X125392382Y-64682654D01*
X125392383Y-64682655D01*
X125597451Y-64781410D01*
X125649311Y-64828232D01*
X125667650Y-64893130D01*
X125667650Y-80793910D01*
X125647965Y-80860949D01*
X125631331Y-80881591D01*
X125608184Y-80904737D01*
X125512211Y-81057476D01*
X125452631Y-81227745D01*
X125452630Y-81227750D01*
X125432435Y-81406996D01*
X125432435Y-81407003D01*
X125452630Y-81586249D01*
X125452631Y-81586254D01*
X125512211Y-81756523D01*
X125565750Y-81841729D01*
X125608184Y-81909262D01*
X125735738Y-82036816D01*
X125888478Y-82132789D01*
X125959081Y-82157494D01*
X126058745Y-82192368D01*
X126058750Y-82192369D01*
X126237996Y-82212565D01*
X126238000Y-82212565D01*
X126238004Y-82212565D01*
X126417249Y-82192369D01*
X126417252Y-82192368D01*
X126417255Y-82192368D01*
X126587522Y-82132789D01*
X126740262Y-82036816D01*
X126867816Y-81909262D01*
X126963789Y-81756522D01*
X127023368Y-81586255D01*
X127026246Y-81560712D01*
X127043565Y-81407003D01*
X127043565Y-81406996D01*
X127023369Y-81227750D01*
X127023366Y-81227737D01*
X126963791Y-81057482D01*
X126963789Y-81057479D01*
X126963789Y-81057478D01*
X126941654Y-81022251D01*
X126922650Y-80956281D01*
X126922650Y-79160969D01*
X126942335Y-79093930D01*
X126995139Y-79048175D01*
X127064297Y-79038231D01*
X127112620Y-79055974D01*
X127158478Y-79084789D01*
X127328745Y-79144368D01*
X127328750Y-79144369D01*
X127507996Y-79164565D01*
X127508000Y-79164565D01*
X127508004Y-79164565D01*
X127687249Y-79144369D01*
X127687251Y-79144368D01*
X127687255Y-79144368D01*
X127687258Y-79144366D01*
X127687262Y-79144366D01*
X127755585Y-79120459D01*
X127796540Y-79113500D01*
X130454808Y-79113500D01*
X130510056Y-79128901D01*
X130510709Y-79127453D01*
X130517543Y-79130528D01*
X130517548Y-79130531D01*
X130671263Y-79178430D01*
X130738059Y-79184500D01*
X132520240Y-79184499D01*
X132520247Y-79184499D01*
X132587032Y-79178431D01*
X132587035Y-79178430D01*
X132587037Y-79178430D01*
X132740752Y-79130531D01*
X132802986Y-79092909D01*
X133548650Y-79092909D01*
X133548650Y-79525098D01*
X133554718Y-79591882D01*
X133554721Y-79591893D01*
X133602617Y-79745598D01*
X133602618Y-79745600D01*
X133602619Y-79745602D01*
X133685914Y-79883388D01*
X133685916Y-79883391D01*
X133799758Y-79997233D01*
X133799760Y-79997234D01*
X133799762Y-79997236D01*
X133937548Y-80080531D01*
X134091263Y-80128430D01*
X134158059Y-80134500D01*
X135940240Y-80134499D01*
X135940247Y-80134499D01*
X136007032Y-80128431D01*
X136007035Y-80128430D01*
X136007037Y-80128430D01*
X136160752Y-80080531D01*
X136298538Y-79997236D01*
X136412386Y-79883388D01*
X136495681Y-79745602D01*
X136543580Y-79591887D01*
X136549650Y-79525091D01*
X136549649Y-79092910D01*
X136549649Y-79092909D01*
X136549649Y-79092901D01*
X136543581Y-79026117D01*
X136543578Y-79026106D01*
X136495682Y-78872401D01*
X136495681Y-78872400D01*
X136495681Y-78872398D01*
X136412386Y-78734612D01*
X136412384Y-78734610D01*
X136412383Y-78734608D01*
X136298541Y-78620766D01*
X136230780Y-78579803D01*
X136160752Y-78537469D01*
X136007037Y-78489570D01*
X136007035Y-78489569D01*
X136007033Y-78489569D01*
X135960267Y-78485319D01*
X135940241Y-78483500D01*
X135940238Y-78483500D01*
X134158051Y-78483500D01*
X134091267Y-78489568D01*
X134091256Y-78489571D01*
X133937551Y-78537467D01*
X133799758Y-78620766D01*
X133685916Y-78734608D01*
X133602619Y-78872397D01*
X133554719Y-79026116D01*
X133548650Y-79092909D01*
X132802986Y-79092909D01*
X132878538Y-79047236D01*
X132992386Y-78933388D01*
X133075681Y-78795602D01*
X133123580Y-78641887D01*
X133129650Y-78575091D01*
X133129649Y-78142910D01*
X133129649Y-78142901D01*
X133123581Y-78076117D01*
X133123578Y-78076106D01*
X133075682Y-77922401D01*
X133075681Y-77922400D01*
X133075681Y-77922398D01*
X132992386Y-77784612D01*
X132992384Y-77784610D01*
X132992383Y-77784608D01*
X132878541Y-77670766D01*
X132768924Y-77604500D01*
X132740752Y-77587469D01*
X132587037Y-77539570D01*
X132587035Y-77539569D01*
X132587033Y-77539569D01*
X132540267Y-77535319D01*
X132520241Y-77533500D01*
X132520238Y-77533500D01*
X132507650Y-77533500D01*
X132440611Y-77513815D01*
X132394856Y-77461011D01*
X132383650Y-77409500D01*
X132383650Y-73014500D01*
X132403335Y-72947461D01*
X132456139Y-72901706D01*
X132507650Y-72890500D01*
X159056688Y-72890500D01*
X159205312Y-72890500D01*
X163870500Y-72890500D01*
X163937539Y-72910185D01*
X163983294Y-72962989D01*
X163994500Y-73014500D01*
X163994500Y-101490500D01*
X163974815Y-101557539D01*
X163922011Y-101603294D01*
X163870500Y-101614500D01*
X163377110Y-101614500D01*
X163234703Y-101634974D01*
X163234691Y-101634977D01*
X163096741Y-101675483D01*
X162965863Y-101735252D01*
X162965861Y-101735254D01*
X162850523Y-101809376D01*
X162849083Y-101810196D01*
X162844901Y-101812988D01*
X162736169Y-101907207D01*
X162736166Y-101907210D01*
X162642018Y-102015864D01*
X162642015Y-102015867D01*
X162564231Y-102136904D01*
X162564230Y-102136906D01*
X162549109Y-102170014D01*
X162503355Y-102222816D01*
X162436317Y-102242500D01*
X153449672Y-102242500D01*
X153383700Y-102223494D01*
X153257523Y-102144211D01*
X153087254Y-102084631D01*
X153087249Y-102084630D01*
X152908004Y-102064435D01*
X152907996Y-102064435D01*
X152728750Y-102084630D01*
X152728745Y-102084631D01*
X152558476Y-102144211D01*
X152405737Y-102240184D01*
X152278184Y-102367737D01*
X152182211Y-102520476D01*
X152122631Y-102690745D01*
X152122630Y-102690750D01*
X152102435Y-102869996D01*
X152102435Y-102870003D01*
X152122630Y-103049249D01*
X152122631Y-103049254D01*
X152182211Y-103219523D01*
X152254300Y-103334251D01*
X152278184Y-103372262D01*
X152405738Y-103499816D01*
X152558478Y-103595789D01*
X152682540Y-103639200D01*
X152728745Y-103655368D01*
X152728750Y-103655369D01*
X152907996Y-103675565D01*
X152908000Y-103675565D01*
X152908004Y-103675565D01*
X153087249Y-103655369D01*
X153087252Y-103655368D01*
X153087255Y-103655368D01*
X153257522Y-103595789D01*
X153383700Y-103516505D01*
X153449672Y-103497500D01*
X162436317Y-103497500D01*
X162503356Y-103517185D01*
X162549109Y-103569985D01*
X162564230Y-103603094D01*
X162595022Y-103651008D01*
X162642015Y-103724132D01*
X162642018Y-103724136D01*
X162736152Y-103832773D01*
X162736168Y-103832791D01*
X162736171Y-103832794D01*
X162844909Y-103927015D01*
X162905386Y-103965881D01*
X162965857Y-104004744D01*
X162965863Y-104004747D01*
X163096741Y-104064517D01*
X163234696Y-104105024D01*
X163377111Y-104125500D01*
X163377114Y-104125500D01*
X163949000Y-104125500D01*
X164020940Y-104120355D01*
X164058259Y-104109396D01*
X164110841Y-104105636D01*
X164249000Y-104125500D01*
X164249003Y-104125500D01*
X164820886Y-104125500D01*
X164820889Y-104125500D01*
X164963304Y-104105024D01*
X165101259Y-104064517D01*
X165232137Y-104004747D01*
X165347477Y-103930622D01*
X165348915Y-103929804D01*
X165353098Y-103927011D01*
X165424183Y-103865414D01*
X165461832Y-103832791D01*
X165555986Y-103724130D01*
X165633770Y-103603094D01*
X165690742Y-103478342D01*
X165692986Y-103474053D01*
X165693498Y-103472308D01*
X165693499Y-103472308D01*
X165734035Y-103334256D01*
X165734815Y-103328836D01*
X165738072Y-103306175D01*
X165754497Y-103191941D01*
X165754497Y-103135601D01*
X165754500Y-103135590D01*
X165754500Y-102604426D01*
X165754497Y-102604399D01*
X165754497Y-102548060D01*
X165734035Y-102405744D01*
X165734034Y-102405739D01*
X165722875Y-102367737D01*
X165693498Y-102267691D01*
X165693496Y-102267686D01*
X165633776Y-102136918D01*
X165633773Y-102136914D01*
X165633770Y-102136906D01*
X165555986Y-102015870D01*
X165555985Y-102015869D01*
X165555984Y-102015867D01*
X165555981Y-102015864D01*
X165533786Y-101990248D01*
X165504762Y-101926692D01*
X165503500Y-101909047D01*
X165503500Y-86553282D01*
X165523185Y-86486243D01*
X165575989Y-86440488D01*
X165645147Y-86430544D01*
X165708703Y-86459569D01*
X165715181Y-86465601D01*
X165715988Y-86466408D01*
X165715992Y-86466411D01*
X165818760Y-86535079D01*
X165818773Y-86535086D01*
X165932960Y-86582383D01*
X165932965Y-86582385D01*
X165932969Y-86582385D01*
X165932970Y-86582386D01*
X166054194Y-86606500D01*
X166054197Y-86606500D01*
X167654014Y-86606500D01*
X167721053Y-86626185D01*
X167728325Y-86631233D01*
X167823119Y-86702196D01*
X167823121Y-86702197D01*
X167853531Y-86713539D01*
X167957967Y-86752491D01*
X168017577Y-86758900D01*
X168044198Y-86758899D01*
X168111236Y-86778581D01*
X168156993Y-86831384D01*
X168168200Y-86882899D01*
X168168200Y-94942116D01*
X168149194Y-95008088D01*
X168057211Y-95154476D01*
X167997631Y-95324745D01*
X167997630Y-95324750D01*
X167977435Y-95503996D01*
X167977435Y-95504003D01*
X167997630Y-95683249D01*
X167997631Y-95683254D01*
X168057211Y-95853523D01*
X168131889Y-95972372D01*
X168153184Y-96006262D01*
X168280738Y-96133816D01*
X168433478Y-96229789D01*
X168603745Y-96289368D01*
X168603750Y-96289369D01*
X168782996Y-96309565D01*
X168783000Y-96309565D01*
X168783004Y-96309565D01*
X168962249Y-96289369D01*
X168962252Y-96289368D01*
X168962255Y-96289368D01*
X169132522Y-96229789D01*
X169285262Y-96133816D01*
X169412816Y-96006262D01*
X169508789Y-95853522D01*
X169568368Y-95683255D01*
X169577875Y-95598880D01*
X169588565Y-95504003D01*
X169588565Y-95503996D01*
X169568369Y-95324750D01*
X169568368Y-95324745D01*
X169536489Y-95233641D01*
X169508789Y-95154478D01*
X169493620Y-95130336D01*
X169442206Y-95048511D01*
X169423200Y-94982539D01*
X169423200Y-86882899D01*
X169442885Y-86815860D01*
X169495689Y-86770105D01*
X169547200Y-86758899D01*
X169573821Y-86758899D01*
X169573822Y-86758899D01*
X169633433Y-86752491D01*
X169768281Y-86702196D01*
X169883496Y-86615946D01*
X169969746Y-86500731D01*
X170020041Y-86365883D01*
X170026450Y-86306273D01*
X170026449Y-85651728D01*
X170020041Y-85592117D01*
X170002745Y-85545745D01*
X169969747Y-85457272D01*
X169969746Y-85457269D01*
X169940579Y-85418307D01*
X169916163Y-85352848D01*
X169931014Y-85284575D01*
X169940571Y-85269702D01*
X169969746Y-85230731D01*
X170020041Y-85095883D01*
X170026450Y-85036273D01*
X170026449Y-84381728D01*
X170020041Y-84322117D01*
X170011174Y-84298344D01*
X169969747Y-84187272D01*
X169969746Y-84187269D01*
X169940579Y-84148307D01*
X169916163Y-84082848D01*
X169931014Y-84014575D01*
X169940571Y-83999702D01*
X169969746Y-83960731D01*
X170020041Y-83825883D01*
X170026450Y-83766273D01*
X170026449Y-83111728D01*
X170020041Y-83052117D01*
X170014310Y-83036752D01*
X169981906Y-82949873D01*
X169969746Y-82917269D01*
X169940579Y-82878307D01*
X169916163Y-82812848D01*
X169931014Y-82744575D01*
X169940571Y-82729702D01*
X169969746Y-82690731D01*
X170020041Y-82555883D01*
X170026450Y-82496273D01*
X170026449Y-81841728D01*
X170020041Y-81782117D01*
X170009676Y-81754328D01*
X169969747Y-81647271D01*
X169969743Y-81647264D01*
X169883498Y-81532057D01*
X169883496Y-81532054D01*
X169883492Y-81532051D01*
X169883490Y-81532049D01*
X169853887Y-81509887D01*
X169812017Y-81453953D01*
X169804200Y-81410622D01*
X169804200Y-81142500D01*
X169823885Y-81075461D01*
X169876689Y-81029706D01*
X169928200Y-81018500D01*
X174041554Y-81018500D01*
X174108593Y-81038185D01*
X174129235Y-81054819D01*
X174251835Y-81177419D01*
X174285320Y-81238742D01*
X174280336Y-81308434D01*
X174238464Y-81364367D01*
X174173000Y-81388784D01*
X174164154Y-81389100D01*
X173465879Y-81389100D01*
X173465873Y-81389101D01*
X173406266Y-81395508D01*
X173271421Y-81445802D01*
X173271414Y-81445806D01*
X173156205Y-81532052D01*
X173156202Y-81532055D01*
X173069956Y-81647264D01*
X173069952Y-81647271D01*
X173019660Y-81782113D01*
X173019659Y-81782117D01*
X173013250Y-81841727D01*
X173013250Y-81841734D01*
X173013250Y-81841735D01*
X173013250Y-82496270D01*
X173013251Y-82496276D01*
X173019658Y-82555883D01*
X173069952Y-82690728D01*
X173069953Y-82690730D01*
X173099118Y-82729690D01*
X173123534Y-82795155D01*
X173108682Y-82863428D01*
X173099118Y-82878310D01*
X173069953Y-82917269D01*
X173069952Y-82917271D01*
X173020130Y-83050853D01*
X173019659Y-83052117D01*
X173013250Y-83111727D01*
X173013250Y-83111734D01*
X173013250Y-83111735D01*
X173013250Y-83766270D01*
X173013251Y-83766276D01*
X173019658Y-83825883D01*
X173069952Y-83960728D01*
X173069953Y-83960730D01*
X173099118Y-83999690D01*
X173123534Y-84065155D01*
X173108682Y-84133428D01*
X173099118Y-84148310D01*
X173069953Y-84187269D01*
X173069952Y-84187271D01*
X173019660Y-84322113D01*
X173019659Y-84322117D01*
X173013250Y-84381727D01*
X173013250Y-84381734D01*
X173013250Y-84381735D01*
X173013250Y-85036270D01*
X173013251Y-85036276D01*
X173019658Y-85095883D01*
X173069952Y-85230728D01*
X173069953Y-85230730D01*
X173099118Y-85269690D01*
X173123534Y-85335155D01*
X173108682Y-85403428D01*
X173099118Y-85418310D01*
X173069953Y-85457269D01*
X173069952Y-85457271D01*
X173019660Y-85592113D01*
X173019659Y-85592117D01*
X173013250Y-85651727D01*
X173013250Y-85651734D01*
X173013250Y-85651735D01*
X173013250Y-86306270D01*
X173013251Y-86306276D01*
X173019658Y-86365883D01*
X173069952Y-86500728D01*
X173069956Y-86500735D01*
X173156202Y-86615944D01*
X173156205Y-86615947D01*
X173271414Y-86702193D01*
X173271421Y-86702197D01*
X173301831Y-86713539D01*
X173406267Y-86752491D01*
X173465877Y-86758900D01*
X173492498Y-86758899D01*
X173559536Y-86778581D01*
X173605293Y-86831384D01*
X173616500Y-86882899D01*
X173616500Y-96784500D01*
X173596815Y-96851539D01*
X173544011Y-96897294D01*
X173492500Y-96908500D01*
X167292672Y-96908500D01*
X167226700Y-96889494D01*
X167100523Y-96810211D01*
X166930254Y-96750631D01*
X166930249Y-96750630D01*
X166751004Y-96730435D01*
X166750996Y-96730435D01*
X166571750Y-96750630D01*
X166571745Y-96750631D01*
X166401476Y-96810211D01*
X166248737Y-96906184D01*
X166121184Y-97033737D01*
X166025211Y-97186476D01*
X165965631Y-97356745D01*
X165965630Y-97356750D01*
X165945435Y-97535996D01*
X165945435Y-97536003D01*
X165965630Y-97715249D01*
X165965631Y-97715254D01*
X166025211Y-97885523D01*
X166056933Y-97936008D01*
X166121184Y-98038262D01*
X166248738Y-98165816D01*
X166401478Y-98261789D01*
X166474956Y-98287500D01*
X166571745Y-98321368D01*
X166571750Y-98321369D01*
X166750996Y-98341565D01*
X166751000Y-98341565D01*
X166751004Y-98341565D01*
X166930249Y-98321369D01*
X166930252Y-98321368D01*
X166930255Y-98321368D01*
X167100522Y-98261789D01*
X167226700Y-98182505D01*
X167292672Y-98163500D01*
X174178804Y-98163500D01*
X174178805Y-98163499D01*
X174300035Y-98139386D01*
X174380784Y-98105937D01*
X174414233Y-98092083D01*
X174517008Y-98023411D01*
X174604411Y-97936008D01*
X174731411Y-97809008D01*
X174800083Y-97706233D01*
X174847385Y-97592035D01*
X174871500Y-97470803D01*
X174871500Y-86882899D01*
X174891185Y-86815860D01*
X174943989Y-86770105D01*
X174995500Y-86758899D01*
X175022121Y-86758899D01*
X175022122Y-86758899D01*
X175081733Y-86752491D01*
X175216581Y-86702196D01*
X175331796Y-86615946D01*
X175418046Y-86500731D01*
X175468341Y-86365883D01*
X175474750Y-86306273D01*
X175474749Y-85651728D01*
X175468341Y-85592117D01*
X175451045Y-85545745D01*
X175418047Y-85457272D01*
X175418046Y-85457269D01*
X175388879Y-85418307D01*
X175364463Y-85352848D01*
X175379314Y-85284575D01*
X175388871Y-85269702D01*
X175418046Y-85230731D01*
X175468341Y-85095883D01*
X175474750Y-85036273D01*
X175474749Y-84381728D01*
X175468341Y-84322117D01*
X175459474Y-84298344D01*
X175418047Y-84187272D01*
X175418046Y-84187269D01*
X175388879Y-84148307D01*
X175364463Y-84082848D01*
X175379314Y-84014575D01*
X175388871Y-83999702D01*
X175418046Y-83960731D01*
X175468341Y-83825883D01*
X175474750Y-83766273D01*
X175474749Y-83111728D01*
X175468341Y-83052117D01*
X175462610Y-83036752D01*
X175430206Y-82949873D01*
X175418046Y-82917269D01*
X175388879Y-82878307D01*
X175364463Y-82812848D01*
X175379314Y-82744575D01*
X175388871Y-82729702D01*
X175418046Y-82690731D01*
X175444910Y-82618705D01*
X175486781Y-82562772D01*
X175552245Y-82538354D01*
X175620518Y-82553205D01*
X175648773Y-82574357D01*
X179183181Y-86108765D01*
X179216666Y-86170088D01*
X179219500Y-86196446D01*
X179219500Y-98562500D01*
X179199815Y-98629539D01*
X179147011Y-98675294D01*
X179095500Y-98686500D01*
X169324672Y-98686500D01*
X169258700Y-98667494D01*
X169132523Y-98588211D01*
X168962254Y-98528631D01*
X168962249Y-98528630D01*
X168783004Y-98508435D01*
X168782996Y-98508435D01*
X168603750Y-98528630D01*
X168603745Y-98528631D01*
X168433476Y-98588211D01*
X168280737Y-98684184D01*
X168153184Y-98811737D01*
X168057211Y-98964476D01*
X167997631Y-99134745D01*
X167997630Y-99134750D01*
X167977435Y-99313996D01*
X167977435Y-99314003D01*
X167997630Y-99493249D01*
X167997631Y-99493254D01*
X168057211Y-99663523D01*
X168153184Y-99816262D01*
X168280738Y-99943816D01*
X168307300Y-99960506D01*
X168392417Y-100013989D01*
X168433478Y-100039789D01*
X168506956Y-100065500D01*
X168603745Y-100099368D01*
X168603750Y-100099369D01*
X168782996Y-100119565D01*
X168783000Y-100119565D01*
X168783004Y-100119565D01*
X168962249Y-100099369D01*
X168962252Y-100099368D01*
X168962255Y-100099368D01*
X169132522Y-100039789D01*
X169258700Y-99960505D01*
X169324672Y-99941500D01*
X178318500Y-99941500D01*
X178385539Y-99961185D01*
X178431294Y-100013989D01*
X178442500Y-100065500D01*
X178442500Y-101314034D01*
X178422815Y-101381073D01*
X178395407Y-101411303D01*
X178391958Y-101414029D01*
X178272029Y-101533959D01*
X178183001Y-101678294D01*
X178182996Y-101678305D01*
X178129651Y-101839290D01*
X178119500Y-101938647D01*
X178119500Y-101938660D01*
X178119501Y-102753500D01*
X178099817Y-102820539D01*
X178047013Y-102866294D01*
X177995501Y-102877500D01*
X177763096Y-102877500D01*
X177696057Y-102857815D01*
X177675415Y-102841181D01*
X176745732Y-101911498D01*
X176712247Y-101850175D01*
X176710990Y-101842289D01*
X176710349Y-101839291D01*
X176692567Y-101785629D01*
X176657003Y-101678303D01*
X176656999Y-101678297D01*
X176656998Y-101678294D01*
X176567970Y-101533959D01*
X176567967Y-101533955D01*
X176448044Y-101414032D01*
X176448040Y-101414029D01*
X176303705Y-101325001D01*
X176303699Y-101324998D01*
X176303697Y-101324997D01*
X176270613Y-101314034D01*
X176142709Y-101271651D01*
X176043346Y-101261500D01*
X175496662Y-101261500D01*
X175496644Y-101261501D01*
X175397292Y-101271650D01*
X175397289Y-101271651D01*
X175236305Y-101324996D01*
X175236294Y-101325001D01*
X175091959Y-101414029D01*
X175091955Y-101414032D01*
X174972032Y-101533955D01*
X174972029Y-101533959D01*
X174883001Y-101678294D01*
X174882996Y-101678305D01*
X174829651Y-101839290D01*
X174819500Y-101938647D01*
X174819500Y-101996708D01*
X174810062Y-102044156D01*
X174801663Y-102064435D01*
X174800255Y-102067835D01*
X174800253Y-102067839D01*
X174761500Y-102262666D01*
X174761500Y-102461333D01*
X174800254Y-102656164D01*
X174800257Y-102656172D01*
X174810062Y-102679844D01*
X174819500Y-102727292D01*
X174819500Y-102785336D01*
X174819501Y-102785355D01*
X174829650Y-102884707D01*
X174829651Y-102884710D01*
X174882996Y-103045694D01*
X174883001Y-103045705D01*
X174972029Y-103190040D01*
X174972032Y-103190044D01*
X175091956Y-103309968D01*
X175091962Y-103309971D01*
X175095405Y-103312694D01*
X175135785Y-103369714D01*
X175142500Y-103409965D01*
X175142500Y-111908268D01*
X175166612Y-112029488D01*
X175166614Y-112029496D01*
X175193597Y-112094638D01*
X175213915Y-112143690D01*
X175213920Y-112143699D01*
X175250765Y-112198841D01*
X175250766Y-112198842D01*
X175282590Y-112246471D01*
X176780589Y-113744470D01*
X176780593Y-113744473D01*
X176888434Y-113816531D01*
X176887764Y-113817532D01*
X176933064Y-113862016D01*
X176947127Y-113916088D01*
X176948316Y-113916025D01*
X176948420Y-113916014D01*
X176948420Y-113916019D01*
X176948599Y-113916010D01*
X176948776Y-113919333D01*
X176955177Y-113978861D01*
X176955179Y-113978868D01*
X177005421Y-114113575D01*
X177005425Y-114113582D01*
X177091585Y-114228676D01*
X177091588Y-114228679D01*
X177206682Y-114314839D01*
X177206689Y-114314843D01*
X177341396Y-114365085D01*
X177341403Y-114365087D01*
X177400931Y-114371488D01*
X177400948Y-114371489D01*
X178207804Y-114371489D01*
X178207820Y-114371488D01*
X178267348Y-114365087D01*
X178267355Y-114365085D01*
X178402062Y-114314843D01*
X178402069Y-114314839D01*
X178524264Y-114223364D01*
X178525203Y-114224618D01*
X178577761Y-114195920D01*
X178647453Y-114200904D01*
X178683884Y-114224317D01*
X178684331Y-114223721D01*
X178806640Y-114315282D01*
X178806647Y-114315286D01*
X178941493Y-114365580D01*
X178941492Y-114365580D01*
X178948420Y-114366324D01*
X179001103Y-114371989D01*
X179808048Y-114371988D01*
X179867659Y-114365580D01*
X180002507Y-114315285D01*
X180117722Y-114229035D01*
X180203972Y-114113820D01*
X180254267Y-113978972D01*
X180260676Y-113919362D01*
X180260675Y-113595017D01*
X180255856Y-113550185D01*
X180254842Y-113540753D01*
X180267249Y-113471994D01*
X180314860Y-113420857D01*
X180378132Y-113403500D01*
X183100328Y-113403500D01*
X183166300Y-113422506D01*
X183245059Y-113471994D01*
X183292478Y-113501789D01*
X183403831Y-113540753D01*
X183462745Y-113561368D01*
X183462750Y-113561369D01*
X183641996Y-113581565D01*
X183642000Y-113581565D01*
X183642004Y-113581565D01*
X183821249Y-113561369D01*
X183821252Y-113561368D01*
X183821255Y-113561368D01*
X183991522Y-113501789D01*
X184144262Y-113405816D01*
X184271816Y-113278262D01*
X184367789Y-113125522D01*
X184427368Y-112955255D01*
X184427369Y-112955249D01*
X184447565Y-112776003D01*
X184447565Y-112775996D01*
X184427369Y-112596750D01*
X184427368Y-112596745D01*
X184412454Y-112554124D01*
X184367789Y-112426478D01*
X184343483Y-112387796D01*
X184288076Y-112299616D01*
X184271816Y-112273738D01*
X184144262Y-112146184D01*
X184117700Y-112129494D01*
X183991523Y-112050211D01*
X183821254Y-111990631D01*
X183821249Y-111990630D01*
X183642004Y-111970435D01*
X183641996Y-111970435D01*
X183462750Y-111990630D01*
X183462745Y-111990631D01*
X183292476Y-112050211D01*
X183166300Y-112129494D01*
X183100328Y-112148500D01*
X180377850Y-112148500D01*
X180310811Y-112128815D01*
X180265056Y-112076011D01*
X180254560Y-112037753D01*
X180254267Y-112035027D01*
X180203973Y-111900182D01*
X180203969Y-111900175D01*
X180117724Y-111784968D01*
X180117722Y-111784965D01*
X180117720Y-111784963D01*
X180117718Y-111784961D01*
X180081764Y-111758046D01*
X180039894Y-111702112D01*
X180032076Y-111658780D01*
X180032076Y-109441364D01*
X180051761Y-109374325D01*
X180068395Y-109353683D01*
X180080816Y-109341262D01*
X180176789Y-109188522D01*
X180236368Y-109018255D01*
X180236369Y-109018249D01*
X180256565Y-108839003D01*
X180256565Y-108838996D01*
X180236369Y-108659750D01*
X180236368Y-108659745D01*
X180221228Y-108616478D01*
X180176789Y-108489478D01*
X180160615Y-108463738D01*
X180080815Y-108336737D01*
X179953262Y-108209184D01*
X179800523Y-108113211D01*
X179630254Y-108053631D01*
X179630249Y-108053630D01*
X179451004Y-108033435D01*
X179450996Y-108033435D01*
X179271750Y-108053630D01*
X179271745Y-108053631D01*
X179101476Y-108113211D01*
X178948737Y-108209184D01*
X178821184Y-108336737D01*
X178725211Y-108489476D01*
X178665631Y-108659745D01*
X178665630Y-108659750D01*
X178645435Y-108838996D01*
X178645435Y-108839003D01*
X178665630Y-109018249D01*
X178665631Y-109018254D01*
X178725211Y-109188524D01*
X178758069Y-109240815D01*
X178777076Y-109306788D01*
X178777076Y-111658780D01*
X178757391Y-111725819D01*
X178727388Y-111758046D01*
X178684331Y-111790279D01*
X178683392Y-111789025D01*
X178630822Y-111817725D01*
X178561131Y-111812734D01*
X178525132Y-111789596D01*
X178524621Y-111790279D01*
X178402311Y-111698717D01*
X178402304Y-111698713D01*
X178267458Y-111648419D01*
X178267459Y-111648419D01*
X178207859Y-111642012D01*
X178207857Y-111642011D01*
X178207849Y-111642011D01*
X178207840Y-111642011D01*
X177400905Y-111642011D01*
X177400899Y-111642012D01*
X177341292Y-111648419D01*
X177206447Y-111698713D01*
X177206440Y-111698717D01*
X177091231Y-111784963D01*
X177091228Y-111784966D01*
X177004982Y-111900175D01*
X177004978Y-111900183D01*
X176992582Y-111933417D01*
X176950710Y-111989350D01*
X176885245Y-112013765D01*
X176816972Y-111998912D01*
X176788720Y-111977762D01*
X176433819Y-111622861D01*
X176400334Y-111561538D01*
X176397500Y-111535180D01*
X176397500Y-104715096D01*
X176417185Y-104648057D01*
X176469989Y-104602302D01*
X176539147Y-104592358D01*
X176602703Y-104621383D01*
X176609182Y-104627416D01*
X176651115Y-104669350D01*
X176651119Y-104669353D01*
X176816289Y-104779717D01*
X176816295Y-104779720D01*
X176816296Y-104779721D01*
X176999831Y-104855744D01*
X177194666Y-104894499D01*
X177194670Y-104894500D01*
X177194671Y-104894500D01*
X179571026Y-104894500D01*
X179571027Y-104894499D01*
X179765865Y-104855744D01*
X179949400Y-104779721D01*
X180114577Y-104669353D01*
X180255049Y-104528881D01*
X181011353Y-103772577D01*
X181121721Y-103607400D01*
X181197744Y-103423865D01*
X181236500Y-103229025D01*
X181236500Y-85628021D01*
X181229358Y-85592116D01*
X181197746Y-85433188D01*
X181197743Y-85433179D01*
X181173843Y-85375478D01*
X181121724Y-85249650D01*
X181121723Y-85249649D01*
X181121722Y-85249646D01*
X181011353Y-85084469D01*
X181011350Y-85084465D01*
X175153534Y-79226649D01*
X175153530Y-79226646D01*
X174988360Y-79116282D01*
X174988351Y-79116277D01*
X174931934Y-79092909D01*
X174804819Y-79040256D01*
X174804811Y-79040254D01*
X174609983Y-79001500D01*
X174609979Y-79001500D01*
X168683671Y-79001500D01*
X168683666Y-79001500D01*
X168488838Y-79040254D01*
X168488830Y-79040256D01*
X168305298Y-79116277D01*
X168305289Y-79116282D01*
X168140119Y-79226646D01*
X168140115Y-79226649D01*
X167999649Y-79367115D01*
X167999646Y-79367119D01*
X167889282Y-79532289D01*
X167889277Y-79532298D01*
X167813256Y-79715830D01*
X167813254Y-79715838D01*
X167774500Y-79910666D01*
X167774500Y-79910671D01*
X167774500Y-80109329D01*
X167781145Y-80142738D01*
X167784817Y-80161194D01*
X167787200Y-80185387D01*
X167787200Y-81410622D01*
X167767515Y-81477661D01*
X167737513Y-81509887D01*
X167707909Y-81532049D01*
X167707901Y-81532057D01*
X167621656Y-81647264D01*
X167621652Y-81647271D01*
X167571360Y-81782113D01*
X167571359Y-81782117D01*
X167564950Y-81841727D01*
X167564950Y-81841734D01*
X167564950Y-81841735D01*
X167564950Y-82496270D01*
X167564951Y-82496276D01*
X167571358Y-82555883D01*
X167621652Y-82690728D01*
X167621653Y-82690730D01*
X167650818Y-82729690D01*
X167675234Y-82795155D01*
X167660382Y-82863428D01*
X167650818Y-82878310D01*
X167621653Y-82917269D01*
X167621652Y-82917271D01*
X167571830Y-83050853D01*
X167571359Y-83052117D01*
X167564950Y-83111727D01*
X167564950Y-83111734D01*
X167564950Y-83111735D01*
X167564950Y-83766270D01*
X167564951Y-83766276D01*
X167571358Y-83825883D01*
X167621652Y-83960728D01*
X167621653Y-83960730D01*
X167650818Y-83999690D01*
X167675234Y-84065155D01*
X167660382Y-84133428D01*
X167650818Y-84148310D01*
X167621653Y-84187269D01*
X167621652Y-84187271D01*
X167571360Y-84322113D01*
X167571359Y-84322117D01*
X167564950Y-84381727D01*
X167564950Y-84381734D01*
X167564950Y-84381735D01*
X167564950Y-85036270D01*
X167564951Y-85036276D01*
X167571359Y-85095884D01*
X167604286Y-85184168D01*
X167609270Y-85253859D01*
X167575784Y-85315182D01*
X167514461Y-85348666D01*
X167488104Y-85351500D01*
X166867500Y-85351500D01*
X166800461Y-85331815D01*
X166754706Y-85279011D01*
X166743500Y-85227500D01*
X166743500Y-83345671D01*
X166762507Y-83279698D01*
X166772426Y-83263913D01*
X166804174Y-83213384D01*
X166841788Y-83153524D01*
X166841789Y-83153522D01*
X166901368Y-82983255D01*
X166908275Y-82921952D01*
X166921565Y-82804003D01*
X166921565Y-82803996D01*
X166901369Y-82624750D01*
X166901368Y-82624745D01*
X166865416Y-82522000D01*
X166841789Y-82454478D01*
X166745816Y-82301738D01*
X166618262Y-82174184D01*
X166568765Y-82143083D01*
X166465523Y-82078211D01*
X166295254Y-82018631D01*
X166295249Y-82018630D01*
X166116004Y-81998435D01*
X166115996Y-81998435D01*
X165936750Y-82018630D01*
X165936745Y-82018631D01*
X165766476Y-82078211D01*
X165693472Y-82124083D01*
X165626235Y-82143083D01*
X165559400Y-82122715D01*
X165514186Y-82069447D01*
X165503500Y-82019089D01*
X165503500Y-72373446D01*
X165503501Y-72373425D01*
X165503501Y-72218685D01*
X165474506Y-72072925D01*
X165474503Y-72072915D01*
X165469871Y-72061733D01*
X165469851Y-72061686D01*
X165433146Y-71973070D01*
X165417630Y-71935611D01*
X165350912Y-71835760D01*
X165335059Y-71812034D01*
X165229966Y-71706941D01*
X165229964Y-71706939D01*
X165072966Y-71549941D01*
X164949389Y-71467370D01*
X164949386Y-71467368D01*
X164949385Y-71467368D01*
X164868955Y-71434053D01*
X164812080Y-71410495D01*
X164787894Y-71405684D01*
X164666314Y-71381499D01*
X164666312Y-71381499D01*
X164517688Y-71381499D01*
X164511574Y-71381499D01*
X164511554Y-71381500D01*
X160009500Y-71381500D01*
X159942461Y-71361815D01*
X159896706Y-71309011D01*
X159885500Y-71257500D01*
X159885500Y-63870500D01*
X159905185Y-63803461D01*
X159957989Y-63757706D01*
X160009500Y-63746500D01*
X166661651Y-63746500D01*
X166728690Y-63766185D01*
X166774445Y-63818989D01*
X166785651Y-63870500D01*
X166785651Y-64339876D01*
X166792058Y-64399483D01*
X166842352Y-64534328D01*
X166842356Y-64534335D01*
X166928602Y-64649544D01*
X166928605Y-64649547D01*
X167043814Y-64735793D01*
X167043821Y-64735797D01*
X167178667Y-64786091D01*
X167178666Y-64786091D01*
X167185594Y-64786835D01*
X167238277Y-64792500D01*
X169934022Y-64792499D01*
X169993633Y-64786091D01*
X170128481Y-64735796D01*
X170243696Y-64649546D01*
X170329946Y-64534331D01*
X170380241Y-64399483D01*
X170386650Y-64339873D01*
X170386649Y-62991995D01*
X171861103Y-62991995D01*
X171861103Y-62992004D01*
X171881263Y-63261026D01*
X171881263Y-63261028D01*
X171941292Y-63524033D01*
X171941298Y-63524052D01*
X172039859Y-63775181D01*
X172039858Y-63775181D01*
X172174752Y-64008822D01*
X172228444Y-64076151D01*
X173065107Y-63239487D01*
X173090128Y-63299890D01*
X173161262Y-63406351D01*
X173251799Y-63496888D01*
X173358260Y-63568022D01*
X173418660Y-63593041D01*
X172580998Y-64430702D01*
X172763633Y-64555220D01*
X172763635Y-64555221D01*
X173006689Y-64672269D01*
X173006687Y-64672269D01*
X173264487Y-64751790D01*
X173264493Y-64751792D01*
X173531251Y-64791999D01*
X173531260Y-64792000D01*
X173801040Y-64792000D01*
X173801048Y-64791999D01*
X174067806Y-64751792D01*
X174067812Y-64751790D01*
X174325611Y-64672269D01*
X174568671Y-64555218D01*
X174751300Y-64430702D01*
X173913638Y-63593041D01*
X173974040Y-63568022D01*
X174080501Y-63496888D01*
X174171038Y-63406351D01*
X174242172Y-63299890D01*
X174267191Y-63239488D01*
X175103853Y-64076151D01*
X175103854Y-64076150D01*
X175157543Y-64008828D01*
X175157550Y-64008817D01*
X175292440Y-63775181D01*
X175391001Y-63524052D01*
X175391007Y-63524033D01*
X175451036Y-63261028D01*
X175451036Y-63261026D01*
X175471197Y-62992004D01*
X175471197Y-62991995D01*
X175451036Y-62722973D01*
X175451036Y-62722971D01*
X175391007Y-62459966D01*
X175391001Y-62459947D01*
X175292440Y-62208818D01*
X175292441Y-62208818D01*
X175157547Y-61975177D01*
X175103854Y-61907847D01*
X174267191Y-62744510D01*
X174242172Y-62684110D01*
X174171038Y-62577649D01*
X174080501Y-62487112D01*
X173974040Y-62415978D01*
X173913638Y-62390958D01*
X174751300Y-61553296D01*
X174568667Y-61428779D01*
X174568666Y-61428778D01*
X174325610Y-61311730D01*
X174325612Y-61311730D01*
X174067812Y-61232209D01*
X174067806Y-61232207D01*
X173801048Y-61192000D01*
X173531251Y-61192000D01*
X173264493Y-61232207D01*
X173264487Y-61232209D01*
X173006688Y-61311730D01*
X172763635Y-61428778D01*
X172763626Y-61428783D01*
X172580998Y-61553296D01*
X173418661Y-62390958D01*
X173358260Y-62415978D01*
X173251799Y-62487112D01*
X173161262Y-62577649D01*
X173090128Y-62684110D01*
X173065108Y-62744511D01*
X172228445Y-61907848D01*
X172174750Y-61975180D01*
X172039859Y-62208818D01*
X171941298Y-62459947D01*
X171941292Y-62459966D01*
X171881263Y-62722971D01*
X171881263Y-62722973D01*
X171861103Y-62991995D01*
X170386649Y-62991995D01*
X170386649Y-61644128D01*
X170380241Y-61584517D01*
X170378149Y-61578909D01*
X170329947Y-61449671D01*
X170329943Y-61449664D01*
X170243697Y-61334455D01*
X170243694Y-61334452D01*
X170128485Y-61248206D01*
X170128478Y-61248202D01*
X169993632Y-61197908D01*
X169993633Y-61197908D01*
X169934033Y-61191501D01*
X169934031Y-61191500D01*
X169934023Y-61191500D01*
X169934014Y-61191500D01*
X167238279Y-61191500D01*
X167238273Y-61191501D01*
X167178666Y-61197908D01*
X167043821Y-61248202D01*
X167043814Y-61248206D01*
X166928605Y-61334452D01*
X166928602Y-61334455D01*
X166842356Y-61449664D01*
X166842352Y-61449671D01*
X166792058Y-61584517D01*
X166785651Y-61644116D01*
X166785651Y-61644123D01*
X166785650Y-61644135D01*
X166785650Y-62113500D01*
X166765965Y-62180539D01*
X166713161Y-62226294D01*
X166661650Y-62237500D01*
X159084446Y-62237500D01*
X159084426Y-62237499D01*
X159078312Y-62237499D01*
X158929688Y-62237499D01*
X158929686Y-62237499D01*
X158808105Y-62261684D01*
X158793540Y-62264581D01*
X158783918Y-62266495D01*
X158783917Y-62266495D01*
X158727045Y-62290053D01*
X158646614Y-62323368D01*
X158523031Y-62405942D01*
X158417942Y-62511031D01*
X158335372Y-62634607D01*
X158335366Y-62634618D01*
X158278496Y-62771916D01*
X158278493Y-62771926D01*
X158249499Y-62917685D01*
X158249499Y-62917688D01*
X158249499Y-63066312D01*
X158249499Y-63066314D01*
X158249498Y-63066314D01*
X158278493Y-63212073D01*
X158278496Y-63212083D01*
X158335366Y-63349382D01*
X158335370Y-63349389D01*
X158351146Y-63373000D01*
X158355601Y-63379666D01*
X158376480Y-63446344D01*
X158376500Y-63448559D01*
X158376500Y-71257500D01*
X158356815Y-71324539D01*
X158304011Y-71370294D01*
X158252500Y-71381500D01*
X131652446Y-71381500D01*
X131652426Y-71381499D01*
X131646312Y-71381499D01*
X131497688Y-71381499D01*
X131497686Y-71381499D01*
X131376105Y-71405684D01*
X131361540Y-71408581D01*
X131351918Y-71410495D01*
X131351917Y-71410495D01*
X131295045Y-71434053D01*
X131214614Y-71467368D01*
X131091031Y-71549942D01*
X130985942Y-71655031D01*
X130903372Y-71778607D01*
X130903366Y-71778618D01*
X130846496Y-71915916D01*
X130846493Y-71915926D01*
X130817499Y-72061685D01*
X130817499Y-72210314D01*
X130819165Y-72218688D01*
X130841684Y-72331894D01*
X130846495Y-72356080D01*
X130865212Y-72401267D01*
X130874650Y-72448718D01*
X130874650Y-77409500D01*
X130854965Y-77476539D01*
X130802161Y-77522294D01*
X130750658Y-77533500D01*
X130738051Y-77533500D01*
X130671267Y-77539568D01*
X130671256Y-77539571D01*
X130517550Y-77587467D01*
X130510709Y-77590547D01*
X130510056Y-77589098D01*
X130454808Y-77604500D01*
X127796540Y-77604500D01*
X127755585Y-77597541D01*
X127687262Y-77573633D01*
X127687249Y-77573630D01*
X127508004Y-77553435D01*
X127507996Y-77553435D01*
X127328750Y-77573630D01*
X127328745Y-77573631D01*
X127158476Y-77633211D01*
X127112622Y-77662024D01*
X127045385Y-77681024D01*
X126978550Y-77660656D01*
X126933336Y-77607388D01*
X126922650Y-77557030D01*
X126922650Y-64893130D01*
X126942335Y-64826091D01*
X126992848Y-64781410D01*
X127197925Y-64682651D01*
X127420891Y-64530635D01*
X127593163Y-64370790D01*
X127618707Y-64347089D01*
X127618707Y-64347087D01*
X127618711Y-64347085D01*
X127786965Y-64136102D01*
X127921893Y-63902398D01*
X128020484Y-63651195D01*
X128080533Y-63388103D01*
X128100699Y-63119000D01*
X128095979Y-63056019D01*
X128082791Y-62880026D01*
X128080533Y-62849897D01*
X128020484Y-62586805D01*
X127921893Y-62335602D01*
X127786965Y-62101898D01*
X127618711Y-61890915D01*
X127618710Y-61890914D01*
X127618707Y-61890910D01*
X127553776Y-61830664D01*
X127549178Y-61826398D01*
X127513424Y-61766371D01*
X127515799Y-61696542D01*
X127555549Y-61639081D01*
X127620055Y-61612233D01*
X127633520Y-61611500D01*
X140963054Y-61611500D01*
X141030093Y-61631185D01*
X141050735Y-61647819D01*
X142365331Y-62962415D01*
X142398816Y-63023738D01*
X142401650Y-63050096D01*
X142401650Y-64720870D01*
X142401651Y-64720876D01*
X142408058Y-64780483D01*
X142458352Y-64915328D01*
X142458356Y-64915335D01*
X142544602Y-65030544D01*
X142544605Y-65030547D01*
X142659814Y-65116793D01*
X142659821Y-65116797D01*
X142702701Y-65132790D01*
X142794667Y-65167091D01*
X142854277Y-65173500D01*
X143069650Y-65173499D01*
X143136689Y-65193183D01*
X143182444Y-65245987D01*
X143193650Y-65297499D01*
X143193650Y-70133483D01*
X143232404Y-70328310D01*
X143232406Y-70328318D01*
X143308427Y-70511851D01*
X143308432Y-70511860D01*
X143418796Y-70677030D01*
X143418799Y-70677034D01*
X143629115Y-70887351D01*
X143629119Y-70887354D01*
X143794292Y-70997720D01*
X143794294Y-70997720D01*
X143794296Y-70997722D01*
X143977832Y-71073744D01*
X143977834Y-71073744D01*
X143977839Y-71073746D01*
X144172666Y-71112499D01*
X144172669Y-71112500D01*
X144172671Y-71112500D01*
X144371330Y-71112500D01*
X144371331Y-71112499D01*
X144436275Y-71099581D01*
X144566161Y-71073746D01*
X144566164Y-71073744D01*
X144566169Y-71073744D01*
X144749704Y-70997722D01*
X144914881Y-70887354D01*
X145055354Y-70746881D01*
X145165722Y-70581704D01*
X145241744Y-70398169D01*
X145280500Y-70203329D01*
X145280500Y-70004671D01*
X145280500Y-70004668D01*
X145280499Y-70004666D01*
X145241746Y-69809839D01*
X145241744Y-69809836D01*
X145241744Y-69809832D01*
X145220087Y-69757546D01*
X145210650Y-69710099D01*
X145210650Y-65297499D01*
X145230335Y-65230460D01*
X145283139Y-65184705D01*
X145334650Y-65173499D01*
X145550021Y-65173499D01*
X145550022Y-65173499D01*
X145609633Y-65167091D01*
X145744481Y-65116796D01*
X145859696Y-65030546D01*
X145945946Y-64915331D01*
X145996241Y-64780483D01*
X146002650Y-64720873D01*
X146002649Y-63372995D01*
X147477103Y-63372995D01*
X147477103Y-63373004D01*
X147497263Y-63642026D01*
X147497263Y-63642028D01*
X147557292Y-63905033D01*
X147557298Y-63905052D01*
X147655859Y-64156181D01*
X147655858Y-64156181D01*
X147790752Y-64389822D01*
X147844444Y-64457151D01*
X148681107Y-63620487D01*
X148706128Y-63680890D01*
X148777262Y-63787351D01*
X148867799Y-63877888D01*
X148974260Y-63949022D01*
X149034660Y-63974041D01*
X148196998Y-64811702D01*
X148379633Y-64936220D01*
X148379635Y-64936221D01*
X148622689Y-65053269D01*
X148622687Y-65053269D01*
X148880487Y-65132790D01*
X148880493Y-65132792D01*
X149147251Y-65172999D01*
X149147260Y-65173000D01*
X149417040Y-65173000D01*
X149417048Y-65172999D01*
X149683806Y-65132792D01*
X149683812Y-65132790D01*
X149941611Y-65053269D01*
X150184671Y-64936218D01*
X150367300Y-64811702D01*
X149529638Y-63974041D01*
X149590040Y-63949022D01*
X149696501Y-63877888D01*
X149787038Y-63787351D01*
X149858172Y-63680890D01*
X149883191Y-63620488D01*
X150719853Y-64457151D01*
X150719854Y-64457150D01*
X150773543Y-64389828D01*
X150773550Y-64389817D01*
X150908440Y-64156181D01*
X151007001Y-63905052D01*
X151007007Y-63905033D01*
X151067036Y-63642028D01*
X151067036Y-63642026D01*
X151087197Y-63373004D01*
X151087197Y-63372995D01*
X151067036Y-63103973D01*
X151067036Y-63103971D01*
X151007007Y-62840966D01*
X151007001Y-62840947D01*
X150908440Y-62589818D01*
X150908441Y-62589818D01*
X150773547Y-62356177D01*
X150719854Y-62288847D01*
X149883191Y-63125510D01*
X149858172Y-63065110D01*
X149787038Y-62958649D01*
X149696501Y-62868112D01*
X149590040Y-62796978D01*
X149529638Y-62771958D01*
X150367300Y-61934296D01*
X150184667Y-61809779D01*
X150184666Y-61809778D01*
X149941610Y-61692730D01*
X149941612Y-61692730D01*
X149683812Y-61613209D01*
X149683806Y-61613207D01*
X149417048Y-61573000D01*
X149147251Y-61573000D01*
X148880493Y-61613207D01*
X148880487Y-61613209D01*
X148622688Y-61692730D01*
X148379635Y-61809778D01*
X148379626Y-61809783D01*
X148196998Y-61934296D01*
X149034661Y-62771958D01*
X148974260Y-62796978D01*
X148867799Y-62868112D01*
X148777262Y-62958649D01*
X148706128Y-63065110D01*
X148681108Y-63125511D01*
X147844445Y-62288848D01*
X147790750Y-62356180D01*
X147655859Y-62589818D01*
X147557298Y-62840947D01*
X147557292Y-62840966D01*
X147497263Y-63103971D01*
X147497263Y-63103973D01*
X147477103Y-63372995D01*
X146002649Y-63372995D01*
X146002649Y-62025128D01*
X145996241Y-61965517D01*
X145994556Y-61961000D01*
X145945947Y-61830671D01*
X145945943Y-61830664D01*
X145859697Y-61715455D01*
X145859694Y-61715452D01*
X145744485Y-61629206D01*
X145744478Y-61629202D01*
X145609632Y-61578908D01*
X145609633Y-61578908D01*
X145550033Y-61572501D01*
X145550031Y-61572500D01*
X145550023Y-61572500D01*
X145550015Y-61572500D01*
X143879247Y-61572500D01*
X143812208Y-61552815D01*
X143791566Y-61536181D01*
X142075034Y-59819649D01*
X142075030Y-59819646D01*
X141909854Y-59709279D01*
X141726319Y-59633256D01*
X141726311Y-59633254D01*
X141531483Y-59594500D01*
X141531479Y-59594500D01*
X102676821Y-59594500D01*
X102676816Y-59594500D01*
X102481988Y-59633253D01*
X102481988Y-59633254D01*
X102481985Y-59633255D01*
X102481981Y-59633256D01*
X102428225Y-59655522D01*
X102298452Y-59709274D01*
X102298439Y-59709281D01*
X102133269Y-59819645D01*
X102133265Y-59819648D01*
X101178733Y-60774181D01*
X101117410Y-60807666D01*
X101091052Y-60810500D01*
X99420279Y-60810500D01*
X99420273Y-60810501D01*
X99360666Y-60816908D01*
X99225821Y-60867202D01*
X99225814Y-60867206D01*
X99110605Y-60953452D01*
X99110602Y-60953455D01*
X99024356Y-61068664D01*
X99024352Y-61068671D01*
X98974058Y-61203517D01*
X98967651Y-61263116D01*
X98967650Y-61263135D01*
X98967650Y-62933902D01*
X98947965Y-63000941D01*
X98931331Y-63021583D01*
X97418587Y-64534328D01*
X92883119Y-69069797D01*
X92812882Y-69140034D01*
X92742645Y-69210270D01*
X92632282Y-69375439D01*
X92632277Y-69375448D01*
X92556256Y-69558980D01*
X92556254Y-69558988D01*
X92517500Y-69753816D01*
X92517500Y-88482833D01*
X92556254Y-88677661D01*
X92556256Y-88677669D01*
X92632277Y-88861201D01*
X92632282Y-88861210D01*
X92742646Y-89026380D01*
X92742649Y-89026384D01*
X94315181Y-90598916D01*
X94348666Y-90660239D01*
X94351500Y-90686596D01*
X94351500Y-90822000D01*
X94351501Y-90822019D01*
X94362000Y-90924796D01*
X94362001Y-90924799D01*
X94417187Y-91091338D01*
X94419383Y-91096046D01*
X94431000Y-91148448D01*
X94431000Y-96365333D01*
X94469754Y-96560164D01*
X94471525Y-96566000D01*
X94470610Y-96566277D01*
X94478500Y-96605943D01*
X94478500Y-96918000D01*
X94478501Y-96918019D01*
X94489000Y-97020796D01*
X94489001Y-97020797D01*
X94544186Y-97187334D01*
X94636288Y-97336656D01*
X94760344Y-97460712D01*
X94909666Y-97552814D01*
X95076203Y-97607999D01*
X95178991Y-97618500D01*
X95954008Y-97618499D01*
X95954016Y-97618498D01*
X95954019Y-97618498D01*
X96010302Y-97612748D01*
X96056797Y-97607999D01*
X96223334Y-97552814D01*
X96372656Y-97460712D01*
X96496712Y-97336656D01*
X96498752Y-97333347D01*
X96500745Y-97331555D01*
X96501193Y-97330989D01*
X96501289Y-97331065D01*
X96550694Y-97286623D01*
X96619656Y-97275395D01*
X96683740Y-97303234D01*
X96709829Y-97333339D01*
X96711681Y-97336341D01*
X96711683Y-97336344D01*
X96835654Y-97460315D01*
X96984875Y-97552356D01*
X96984880Y-97552358D01*
X97151302Y-97607505D01*
X97151309Y-97607506D01*
X97254019Y-97617999D01*
X97391499Y-97617999D01*
X97891500Y-97617999D01*
X98028972Y-97617999D01*
X98028986Y-97617998D01*
X98131697Y-97607505D01*
X98298119Y-97552358D01*
X98298124Y-97552356D01*
X98447345Y-97460315D01*
X98571315Y-97336345D01*
X98663356Y-97187124D01*
X98663358Y-97187119D01*
X98718505Y-97020697D01*
X98718506Y-97020690D01*
X98728999Y-96917986D01*
X98729000Y-96917973D01*
X98729000Y-96643000D01*
X97891500Y-96643000D01*
X97891500Y-97617999D01*
X97391499Y-97617999D01*
X97391500Y-97617998D01*
X97391500Y-96143000D01*
X97891500Y-96143000D01*
X98728999Y-96143000D01*
X98728999Y-95868028D01*
X98728998Y-95868013D01*
X98718505Y-95765302D01*
X98663358Y-95598880D01*
X98663356Y-95598875D01*
X98571315Y-95449654D01*
X98447345Y-95325684D01*
X98298124Y-95233643D01*
X98298119Y-95233641D01*
X98131697Y-95178494D01*
X98131690Y-95178493D01*
X98028986Y-95168000D01*
X97891500Y-95168000D01*
X97891500Y-96143000D01*
X97391500Y-96143000D01*
X97391500Y-95168000D01*
X97254027Y-95168000D01*
X97254012Y-95168001D01*
X97151302Y-95178494D01*
X96984880Y-95233641D01*
X96984875Y-95233643D01*
X96835654Y-95325684D01*
X96711683Y-95449655D01*
X96711679Y-95449660D01*
X96709826Y-95452665D01*
X96708018Y-95454290D01*
X96707202Y-95455323D01*
X96707025Y-95455183D01*
X96657874Y-95499385D01*
X96588911Y-95510601D01*
X96524831Y-95482752D01*
X96498753Y-95452653D01*
X96498737Y-95452628D01*
X96496712Y-95449344D01*
X96484319Y-95436951D01*
X96450834Y-95375628D01*
X96448000Y-95349270D01*
X96448000Y-91403023D01*
X96467685Y-91335984D01*
X96520489Y-91290229D01*
X96589647Y-91280285D01*
X96653203Y-91309310D01*
X96659681Y-91315342D01*
X96708654Y-91364315D01*
X96857875Y-91456356D01*
X96857880Y-91456358D01*
X97024302Y-91511505D01*
X97024309Y-91511506D01*
X97127019Y-91521999D01*
X97264499Y-91521999D01*
X97764500Y-91521999D01*
X97901972Y-91521999D01*
X97901986Y-91521998D01*
X98004697Y-91511505D01*
X98171119Y-91456358D01*
X98171124Y-91456356D01*
X98320345Y-91364315D01*
X98444315Y-91240345D01*
X98536356Y-91091124D01*
X98536358Y-91091119D01*
X98591505Y-90924697D01*
X98591506Y-90924690D01*
X98601999Y-90821986D01*
X98602000Y-90821973D01*
X98602000Y-90547000D01*
X97764500Y-90547000D01*
X97764500Y-91521999D01*
X97264499Y-91521999D01*
X97264500Y-91521998D01*
X97264500Y-90047000D01*
X97764500Y-90047000D01*
X98601999Y-90047000D01*
X98601999Y-89772028D01*
X98601998Y-89772013D01*
X98591505Y-89669302D01*
X98536358Y-89502880D01*
X98536356Y-89502875D01*
X98444315Y-89353654D01*
X98320345Y-89229684D01*
X98171124Y-89137643D01*
X98171119Y-89137641D01*
X98004697Y-89082494D01*
X98004690Y-89082493D01*
X97901986Y-89072000D01*
X97764500Y-89072000D01*
X97764500Y-90047000D01*
X97264500Y-90047000D01*
X97264500Y-89072000D01*
X97127027Y-89072000D01*
X97127012Y-89072001D01*
X97024302Y-89082494D01*
X96857880Y-89137641D01*
X96857875Y-89137643D01*
X96708654Y-89229684D01*
X96584683Y-89353655D01*
X96584679Y-89353660D01*
X96582826Y-89356665D01*
X96581018Y-89358290D01*
X96580202Y-89359323D01*
X96580025Y-89359183D01*
X96530874Y-89403385D01*
X96461911Y-89414601D01*
X96397831Y-89386752D01*
X96371753Y-89356653D01*
X96371737Y-89356628D01*
X96369712Y-89353344D01*
X96245656Y-89229288D01*
X96152888Y-89172069D01*
X96096336Y-89137187D01*
X96096331Y-89137185D01*
X96094862Y-89136698D01*
X95929797Y-89082001D01*
X95929795Y-89082000D01*
X95827016Y-89071500D01*
X95827009Y-89071500D01*
X95691596Y-89071500D01*
X95624557Y-89051815D01*
X95603915Y-89035181D01*
X94570819Y-88002084D01*
X94537334Y-87940761D01*
X94534500Y-87914403D01*
X94534500Y-85088230D01*
X94554185Y-85021191D01*
X94606989Y-84975436D01*
X94676147Y-84965492D01*
X94739703Y-84994517D01*
X94746181Y-85000549D01*
X94760344Y-85014712D01*
X94909666Y-85106814D01*
X95076203Y-85161999D01*
X95178991Y-85172500D01*
X95954008Y-85172499D01*
X95954016Y-85172498D01*
X95954019Y-85172498D01*
X96010302Y-85166748D01*
X96056797Y-85161999D01*
X96223334Y-85106814D01*
X96372656Y-85014712D01*
X96496712Y-84890656D01*
X96498752Y-84887347D01*
X96500745Y-84885555D01*
X96501193Y-84884989D01*
X96501289Y-84885065D01*
X96550694Y-84840623D01*
X96619656Y-84829395D01*
X96683740Y-84857234D01*
X96709829Y-84887339D01*
X96711681Y-84890341D01*
X96711683Y-84890344D01*
X96835654Y-85014315D01*
X96984875Y-85106356D01*
X96984880Y-85106358D01*
X97151302Y-85161505D01*
X97151309Y-85161506D01*
X97254019Y-85171999D01*
X97391499Y-85171999D01*
X97891500Y-85171999D01*
X98028972Y-85171999D01*
X98028986Y-85171998D01*
X98131697Y-85161505D01*
X98298119Y-85106358D01*
X98298124Y-85106356D01*
X98447345Y-85014315D01*
X98571315Y-84890345D01*
X98663356Y-84741124D01*
X98663358Y-84741119D01*
X98718505Y-84574697D01*
X98718506Y-84574690D01*
X98728999Y-84471986D01*
X98729000Y-84471973D01*
X98729000Y-84197000D01*
X97891500Y-84197000D01*
X97891500Y-85171999D01*
X97391499Y-85171999D01*
X97391500Y-85171998D01*
X97391500Y-83697000D01*
X97891500Y-83697000D01*
X98728999Y-83697000D01*
X98728999Y-83422028D01*
X98728998Y-83422013D01*
X98718505Y-83319302D01*
X98663358Y-83152880D01*
X98663356Y-83152875D01*
X98571315Y-83003654D01*
X98447345Y-82879684D01*
X98298124Y-82787643D01*
X98298119Y-82787641D01*
X98131697Y-82732494D01*
X98131690Y-82732493D01*
X98028986Y-82722000D01*
X97891500Y-82722000D01*
X97891500Y-83697000D01*
X97391500Y-83697000D01*
X97391500Y-82722000D01*
X97254027Y-82722000D01*
X97254012Y-82722001D01*
X97151302Y-82732494D01*
X96984880Y-82787641D01*
X96984875Y-82787643D01*
X96835654Y-82879684D01*
X96711683Y-83003655D01*
X96711679Y-83003660D01*
X96709826Y-83006665D01*
X96708018Y-83008290D01*
X96707202Y-83009323D01*
X96707025Y-83009183D01*
X96657874Y-83053385D01*
X96588911Y-83064601D01*
X96524831Y-83036752D01*
X96498753Y-83006653D01*
X96498395Y-83006073D01*
X96496712Y-83003344D01*
X96372656Y-82879288D01*
X96293550Y-82830495D01*
X96252903Y-82805424D01*
X96206179Y-82753476D01*
X96194000Y-82699885D01*
X96194000Y-82154440D01*
X96213685Y-82087401D01*
X96230319Y-82066759D01*
X96260816Y-82036262D01*
X96356789Y-81883522D01*
X96416368Y-81713255D01*
X96416369Y-81713249D01*
X96436565Y-81534003D01*
X96436565Y-81533996D01*
X96416369Y-81354750D01*
X96416368Y-81354745D01*
X96400163Y-81308434D01*
X96356789Y-81184478D01*
X96344666Y-81165185D01*
X96301009Y-81095705D01*
X96260816Y-81031738D01*
X96133262Y-80904184D01*
X95980523Y-80808211D01*
X95818571Y-80751542D01*
X95761795Y-80710820D01*
X95736048Y-80645867D01*
X95749504Y-80577306D01*
X95797891Y-80526903D01*
X95859526Y-80510500D01*
X102626500Y-80510500D01*
X102693539Y-80530185D01*
X102739294Y-80582989D01*
X102750500Y-80634500D01*
X102750500Y-118277179D01*
X102750500Y-118277180D01*
X102750500Y-118450820D01*
X102750500Y-118450822D01*
X102750499Y-118450822D01*
X102784374Y-118621118D01*
X102784377Y-118621128D01*
X102850821Y-118781540D01*
X102850828Y-118781553D01*
X102947293Y-118925922D01*
X102947296Y-118925926D01*
X103070073Y-119048703D01*
X103070077Y-119048706D01*
X103214446Y-119145171D01*
X103214459Y-119145178D01*
X103311920Y-119185547D01*
X103374876Y-119211624D01*
X103374880Y-119211624D01*
X103374881Y-119211625D01*
X103545177Y-119245500D01*
X103545180Y-119245500D01*
X104480825Y-119245500D01*
X104484928Y-119245096D01*
X104497079Y-119244499D01*
X128702028Y-119244499D01*
X128769067Y-119264184D01*
X128801292Y-119294185D01*
X128858455Y-119370545D01*
X128892934Y-119396356D01*
X128973665Y-119456792D01*
X128973672Y-119456796D01*
X129103834Y-119505343D01*
X129159768Y-119547214D01*
X129184185Y-119612678D01*
X129184501Y-119621525D01*
X129184501Y-124778471D01*
X129182118Y-124802663D01*
X129166500Y-124881176D01*
X129166500Y-124881179D01*
X129166500Y-125054821D01*
X129166500Y-125054823D01*
X129166499Y-125054823D01*
X129200374Y-125225118D01*
X129200377Y-125225128D01*
X129266822Y-125385543D01*
X129363295Y-125529926D01*
X129486073Y-125652704D01*
X129630456Y-125749177D01*
X129790871Y-125815622D01*
X129790876Y-125815624D01*
X129790880Y-125815624D01*
X129790881Y-125815625D01*
X129961176Y-125849500D01*
X129961179Y-125849500D01*
X164551822Y-125849500D01*
X164666394Y-125826709D01*
X164722124Y-125815624D01*
X164882547Y-125749175D01*
X165026923Y-125652706D01*
X165149706Y-125529923D01*
X165246175Y-125385547D01*
X165312624Y-125225124D01*
X165334142Y-125116946D01*
X165346500Y-125054822D01*
X165346500Y-115194228D01*
X165357706Y-115142717D01*
X165367625Y-115120996D01*
X165406738Y-115035350D01*
X165408985Y-115031055D01*
X165409498Y-115029309D01*
X165409499Y-115029308D01*
X165450035Y-114891256D01*
X165470497Y-114748941D01*
X165470497Y-114692601D01*
X165470500Y-114692590D01*
X165470500Y-114161426D01*
X165470497Y-114161399D01*
X165470497Y-114105060D01*
X165450035Y-113962744D01*
X165450034Y-113962739D01*
X165436314Y-113916014D01*
X165409498Y-113824691D01*
X165406229Y-113817532D01*
X165355299Y-113706012D01*
X165345355Y-113636853D01*
X165374380Y-113573298D01*
X165433158Y-113535523D01*
X165468093Y-113530500D01*
X174186719Y-113530500D01*
X174253758Y-113550185D01*
X174274400Y-113566819D01*
X178000181Y-117292600D01*
X178033666Y-117353923D01*
X178036500Y-117380281D01*
X178036500Y-117920500D01*
X178016815Y-117987539D01*
X177964011Y-118033294D01*
X177912500Y-118044500D01*
X177643636Y-118044500D01*
X177526246Y-118059953D01*
X177526237Y-118059956D01*
X177380160Y-118120463D01*
X177254718Y-118216718D01*
X177158463Y-118342160D01*
X177097956Y-118488237D01*
X177097955Y-118488239D01*
X177082500Y-118605638D01*
X177082500Y-118884363D01*
X177097953Y-119001753D01*
X177097957Y-119001765D01*
X177158461Y-119147836D01*
X177158461Y-119147837D01*
X177158463Y-119147839D01*
X177158464Y-119147841D01*
X177195876Y-119196598D01*
X177221070Y-119261765D01*
X177221500Y-119272083D01*
X177221500Y-126732220D01*
X177212061Y-126779672D01*
X177202004Y-126803952D01*
X177158163Y-126858356D01*
X177091869Y-126880421D01*
X177087443Y-126880500D01*
X116702500Y-126880500D01*
X116635461Y-126860815D01*
X116589706Y-126808011D01*
X116578500Y-126756500D01*
X116578500Y-121731194D01*
X116554386Y-121609970D01*
X116554385Y-121609969D01*
X116554385Y-121609965D01*
X116554383Y-121609960D01*
X116507086Y-121495773D01*
X116507079Y-121495760D01*
X116438411Y-121392992D01*
X116438408Y-121392988D01*
X116351011Y-121305591D01*
X116351007Y-121305588D01*
X116248239Y-121236920D01*
X116248226Y-121236913D01*
X116134039Y-121189616D01*
X116134029Y-121189613D01*
X116012805Y-121165500D01*
X116012803Y-121165500D01*
X91937500Y-121165500D01*
X91870461Y-121145815D01*
X91824706Y-121093011D01*
X91813500Y-121041500D01*
X91813500Y-117711983D01*
X94373000Y-117711983D01*
X94373000Y-118762001D01*
X94373001Y-118762019D01*
X94383500Y-118864796D01*
X94383501Y-118864799D01*
X94438685Y-119031331D01*
X94438687Y-119031336D01*
X94462739Y-119070331D01*
X94530788Y-119180656D01*
X94654844Y-119304712D01*
X94804166Y-119396814D01*
X94970703Y-119451999D01*
X95073491Y-119462500D01*
X95848508Y-119462499D01*
X95848516Y-119462498D01*
X95848519Y-119462498D01*
X95905228Y-119456705D01*
X95951297Y-119451999D01*
X96117834Y-119396814D01*
X96267156Y-119304712D01*
X96391212Y-119180656D01*
X96393252Y-119177347D01*
X96395245Y-119175555D01*
X96395693Y-119174989D01*
X96395789Y-119175065D01*
X96445194Y-119130623D01*
X96514156Y-119119395D01*
X96578240Y-119147234D01*
X96604329Y-119177339D01*
X96606181Y-119180341D01*
X96606183Y-119180344D01*
X96730154Y-119304315D01*
X96879375Y-119396356D01*
X96879380Y-119396358D01*
X97045802Y-119451505D01*
X97045809Y-119451506D01*
X97148519Y-119461999D01*
X97285999Y-119461999D01*
X97786000Y-119461999D01*
X97923472Y-119461999D01*
X97923486Y-119461998D01*
X98026197Y-119451505D01*
X98192619Y-119396358D01*
X98192624Y-119396356D01*
X98341845Y-119304315D01*
X98465815Y-119180345D01*
X98557856Y-119031124D01*
X98557858Y-119031119D01*
X98613005Y-118864697D01*
X98613006Y-118864690D01*
X98623499Y-118761986D01*
X98623500Y-118761973D01*
X98623500Y-118487000D01*
X97786000Y-118487000D01*
X97786000Y-119461999D01*
X97285999Y-119461999D01*
X97286000Y-119461998D01*
X97286000Y-117987000D01*
X97786000Y-117987000D01*
X98623499Y-117987000D01*
X98623499Y-117712028D01*
X98623498Y-117712013D01*
X98613005Y-117609302D01*
X98557858Y-117442880D01*
X98557856Y-117442875D01*
X98465815Y-117293654D01*
X98341845Y-117169684D01*
X98192624Y-117077643D01*
X98192619Y-117077641D01*
X98026197Y-117022494D01*
X98026190Y-117022493D01*
X97923486Y-117012000D01*
X97786000Y-117012000D01*
X97786000Y-117987000D01*
X97286000Y-117987000D01*
X97286000Y-117012000D01*
X97148527Y-117012000D01*
X97148512Y-117012001D01*
X97045802Y-117022494D01*
X96879380Y-117077641D01*
X96879375Y-117077643D01*
X96730154Y-117169684D01*
X96606183Y-117293655D01*
X96606179Y-117293660D01*
X96604326Y-117296665D01*
X96602518Y-117298290D01*
X96601702Y-117299323D01*
X96601525Y-117299183D01*
X96552374Y-117343385D01*
X96483411Y-117354601D01*
X96419331Y-117326752D01*
X96393253Y-117296653D01*
X96393237Y-117296628D01*
X96391212Y-117293344D01*
X96267156Y-117169288D01*
X96147403Y-117095424D01*
X96100679Y-117043476D01*
X96088500Y-116989885D01*
X96088500Y-115787940D01*
X96108185Y-115720901D01*
X96124819Y-115700259D01*
X96133816Y-115691262D01*
X96229789Y-115538522D01*
X96289368Y-115368255D01*
X96299184Y-115281136D01*
X96309565Y-115189003D01*
X96309565Y-115188996D01*
X96289369Y-115009750D01*
X96289368Y-115009745D01*
X96256008Y-114914408D01*
X96229789Y-114839478D01*
X96221955Y-114827011D01*
X96172900Y-114748940D01*
X96133816Y-114686738D01*
X96006262Y-114559184D01*
X95992239Y-114550373D01*
X95853523Y-114463211D01*
X95683254Y-114403631D01*
X95683249Y-114403630D01*
X95504004Y-114383435D01*
X95503996Y-114383435D01*
X95324750Y-114403630D01*
X95324745Y-114403631D01*
X95154476Y-114463211D01*
X95001737Y-114559184D01*
X94874184Y-114686737D01*
X94778211Y-114839476D01*
X94718631Y-115009745D01*
X94718630Y-115009750D01*
X94698435Y-115188996D01*
X94698435Y-115189003D01*
X94718630Y-115368249D01*
X94718631Y-115368254D01*
X94759139Y-115484018D01*
X94778211Y-115538522D01*
X94814493Y-115596265D01*
X94833500Y-115662235D01*
X94833500Y-116989885D01*
X94813815Y-117056924D01*
X94774597Y-117095424D01*
X94654842Y-117169289D01*
X94530789Y-117293342D01*
X94438687Y-117442663D01*
X94438685Y-117442668D01*
X94425818Y-117481499D01*
X94383501Y-117609203D01*
X94383501Y-117609204D01*
X94383500Y-117609204D01*
X94373000Y-117711983D01*
X91813500Y-117711983D01*
X91813500Y-111234983D01*
X94351500Y-111234983D01*
X94351500Y-112285001D01*
X94351501Y-112285019D01*
X94362000Y-112387796D01*
X94362001Y-112387797D01*
X94417186Y-112554334D01*
X94509288Y-112703656D01*
X94633344Y-112827712D01*
X94782666Y-112919814D01*
X94949203Y-112974999D01*
X95051991Y-112985500D01*
X95827008Y-112985499D01*
X95827016Y-112985498D01*
X95827019Y-112985498D01*
X95883302Y-112979748D01*
X95929797Y-112974999D01*
X96096334Y-112919814D01*
X96245656Y-112827712D01*
X96369712Y-112703656D01*
X96371752Y-112700347D01*
X96373745Y-112698555D01*
X96374193Y-112697989D01*
X96374289Y-112698065D01*
X96423694Y-112653623D01*
X96492656Y-112642395D01*
X96556740Y-112670234D01*
X96582829Y-112700339D01*
X96584681Y-112703341D01*
X96584683Y-112703344D01*
X96708654Y-112827315D01*
X96857875Y-112919356D01*
X96857880Y-112919358D01*
X97024302Y-112974505D01*
X97024309Y-112974506D01*
X97127019Y-112984999D01*
X97264499Y-112984999D01*
X97764500Y-112984999D01*
X97901972Y-112984999D01*
X97901986Y-112984998D01*
X98004697Y-112974505D01*
X98171119Y-112919358D01*
X98171124Y-112919356D01*
X98320345Y-112827315D01*
X98444315Y-112703345D01*
X98536356Y-112554124D01*
X98536358Y-112554119D01*
X98591505Y-112387697D01*
X98591506Y-112387690D01*
X98601999Y-112284986D01*
X98602000Y-112284973D01*
X98602000Y-112010000D01*
X97764500Y-112010000D01*
X97764500Y-112984999D01*
X97264499Y-112984999D01*
X97264500Y-112984998D01*
X97264500Y-111510000D01*
X97764500Y-111510000D01*
X98601999Y-111510000D01*
X98601999Y-111235028D01*
X98601998Y-111235013D01*
X98591505Y-111132302D01*
X98536358Y-110965880D01*
X98536356Y-110965875D01*
X98444315Y-110816654D01*
X98320345Y-110692684D01*
X98171124Y-110600643D01*
X98171119Y-110600641D01*
X98004697Y-110545494D01*
X98004690Y-110545493D01*
X97901986Y-110535000D01*
X97764500Y-110535000D01*
X97764500Y-111510000D01*
X97264500Y-111510000D01*
X97264500Y-110535000D01*
X97127027Y-110535000D01*
X97127012Y-110535001D01*
X97024302Y-110545494D01*
X96857880Y-110600641D01*
X96857875Y-110600643D01*
X96708654Y-110692684D01*
X96584683Y-110816655D01*
X96584679Y-110816660D01*
X96582826Y-110819665D01*
X96581018Y-110821290D01*
X96580202Y-110822323D01*
X96580025Y-110822183D01*
X96530874Y-110866385D01*
X96461911Y-110877601D01*
X96397831Y-110849752D01*
X96371753Y-110819653D01*
X96371737Y-110819628D01*
X96369712Y-110816344D01*
X96245656Y-110692288D01*
X96125903Y-110618424D01*
X96079179Y-110566476D01*
X96067000Y-110512885D01*
X96067000Y-109586440D01*
X96086685Y-109519401D01*
X96103319Y-109498759D01*
X96133816Y-109468262D01*
X96229789Y-109315522D01*
X96289368Y-109145255D01*
X96289369Y-109145249D01*
X96309565Y-108966003D01*
X96309565Y-108965996D01*
X96289369Y-108786750D01*
X96289368Y-108786745D01*
X96229789Y-108616478D01*
X96133816Y-108463738D01*
X96006262Y-108336184D01*
X95904528Y-108272260D01*
X95853523Y-108240211D01*
X95683254Y-108180631D01*
X95683249Y-108180630D01*
X95504004Y-108160435D01*
X95503996Y-108160435D01*
X95324750Y-108180630D01*
X95324745Y-108180631D01*
X95154476Y-108240211D01*
X95001737Y-108336184D01*
X94874184Y-108463737D01*
X94778211Y-108616476D01*
X94718631Y-108786745D01*
X94718630Y-108786750D01*
X94698435Y-108965996D01*
X94698435Y-108966003D01*
X94718630Y-109145249D01*
X94718633Y-109145262D01*
X94778210Y-109315520D01*
X94778211Y-109315522D01*
X94792993Y-109339047D01*
X94812000Y-109405019D01*
X94812000Y-110512885D01*
X94792315Y-110579924D01*
X94753097Y-110618424D01*
X94633342Y-110692289D01*
X94509289Y-110816342D01*
X94417187Y-110965663D01*
X94417185Y-110965668D01*
X94417115Y-110965880D01*
X94362001Y-111132203D01*
X94362001Y-111132204D01*
X94362000Y-111132204D01*
X94351500Y-111234983D01*
X91813500Y-111234983D01*
X91813500Y-105018500D01*
X91833185Y-104951461D01*
X91885989Y-104905706D01*
X91937500Y-104894500D01*
X94272362Y-104894500D01*
X94339401Y-104914185D01*
X94385156Y-104966989D01*
X94390064Y-104979488D01*
X94417186Y-105061334D01*
X94509288Y-105210656D01*
X94633344Y-105334712D01*
X94782666Y-105426814D01*
X94949203Y-105481999D01*
X95051991Y-105492500D01*
X95827008Y-105492499D01*
X95827016Y-105492498D01*
X95827019Y-105492498D01*
X95883302Y-105486748D01*
X95929797Y-105481999D01*
X96096334Y-105426814D01*
X96245656Y-105334712D01*
X96369712Y-105210656D01*
X96371461Y-105207819D01*
X96373169Y-105206283D01*
X96374193Y-105204989D01*
X96374414Y-105205163D01*
X96423406Y-105161096D01*
X96492368Y-105149872D01*
X96556451Y-105177713D01*
X96582537Y-105207817D01*
X96584288Y-105210656D01*
X96708344Y-105334712D01*
X96857666Y-105426814D01*
X97024203Y-105481999D01*
X97126991Y-105492500D01*
X97902008Y-105492499D01*
X97902016Y-105492498D01*
X97902019Y-105492498D01*
X97958302Y-105486748D01*
X98004797Y-105481999D01*
X98171334Y-105426814D01*
X98320656Y-105334712D01*
X98444712Y-105210656D01*
X98536814Y-105061334D01*
X98591999Y-104894797D01*
X98602500Y-104792009D01*
X98602499Y-103741992D01*
X98600674Y-103724130D01*
X98591999Y-103639203D01*
X98591998Y-103639200D01*
X98581462Y-103607406D01*
X98536814Y-103472666D01*
X98444712Y-103323344D01*
X98320656Y-103199288D01*
X98217402Y-103135601D01*
X98171336Y-103107187D01*
X98171331Y-103107185D01*
X98169862Y-103106698D01*
X98004797Y-103052001D01*
X98004795Y-103052000D01*
X97902010Y-103041500D01*
X97126998Y-103041500D01*
X97126980Y-103041501D01*
X97024203Y-103052000D01*
X97024200Y-103052001D01*
X96857668Y-103107185D01*
X96857663Y-103107187D01*
X96708342Y-103199289D01*
X96584285Y-103323346D01*
X96582537Y-103326182D01*
X96580829Y-103327717D01*
X96579807Y-103329011D01*
X96579585Y-103328836D01*
X96530589Y-103372905D01*
X96461626Y-103384126D01*
X96397544Y-103356282D01*
X96371463Y-103326182D01*
X96369714Y-103323346D01*
X96245657Y-103199289D01*
X96245656Y-103199288D01*
X96142402Y-103135601D01*
X96096336Y-103107187D01*
X96096331Y-103107185D01*
X96094862Y-103106698D01*
X95929797Y-103052001D01*
X95929795Y-103052000D01*
X95827010Y-103041500D01*
X95051998Y-103041500D01*
X95051980Y-103041501D01*
X94949203Y-103052000D01*
X94949200Y-103052001D01*
X94782668Y-103107185D01*
X94782663Y-103107187D01*
X94633342Y-103199289D01*
X94509289Y-103323342D01*
X94417187Y-103472663D01*
X94417185Y-103472668D01*
X94390068Y-103554504D01*
X94350295Y-103611949D01*
X94285780Y-103638772D01*
X94272362Y-103639500D01*
X91124195Y-103639500D01*
X91002970Y-103663613D01*
X91002960Y-103663616D01*
X90888773Y-103710913D01*
X90888760Y-103710920D01*
X90785992Y-103779588D01*
X90785988Y-103779591D01*
X90698591Y-103866988D01*
X90698588Y-103866992D01*
X90629920Y-103969760D01*
X90629913Y-103969773D01*
X90582616Y-104083960D01*
X90582613Y-104083970D01*
X90558500Y-104205194D01*
X90558500Y-104205197D01*
X90558500Y-121854803D01*
X90558500Y-121854805D01*
X90558499Y-121854805D01*
X88506362Y-121854805D01*
X88408250Y-45425823D01*
X93733499Y-45425823D01*
X93767374Y-45596118D01*
X93767377Y-45596128D01*
X93833822Y-45756543D01*
X93930295Y-45900926D01*
X94053073Y-46023704D01*
X94197456Y-46120177D01*
X94357871Y-46186622D01*
X94357876Y-46186624D01*
X94357880Y-46186624D01*
X94357881Y-46186625D01*
X94528176Y-46220500D01*
X94528179Y-46220500D01*
X94701823Y-46220500D01*
X94816393Y-46197709D01*
X94872124Y-46186624D01*
X94951034Y-46153938D01*
X94998485Y-46144500D01*
X100341972Y-46144500D01*
X100464258Y-46120175D01*
X100512274Y-46110624D01*
X100672697Y-46044175D01*
X100817073Y-45947706D01*
X100939856Y-45824923D01*
X101036325Y-45680547D01*
X101102774Y-45520124D01*
X101136650Y-45349820D01*
X101136650Y-43885499D01*
X101156335Y-43818460D01*
X101209139Y-43772705D01*
X101260650Y-43761499D01*
X101603021Y-43761499D01*
X101603022Y-43761499D01*
X101662633Y-43755091D01*
X101797481Y-43704796D01*
X101912696Y-43618546D01*
X101998946Y-43503331D01*
X102049241Y-43368483D01*
X102055650Y-43308873D01*
X102055649Y-41960995D01*
X103530103Y-41960995D01*
X103530103Y-41961004D01*
X103550263Y-42230026D01*
X103550263Y-42230028D01*
X103610292Y-42493033D01*
X103610298Y-42493052D01*
X103708859Y-42744181D01*
X103708858Y-42744181D01*
X103843752Y-42977822D01*
X103897444Y-43045151D01*
X104734107Y-42208487D01*
X104759128Y-42268890D01*
X104830262Y-42375351D01*
X104920799Y-42465888D01*
X105027260Y-42537022D01*
X105087660Y-42562041D01*
X104249998Y-43399702D01*
X104432633Y-43524220D01*
X104432635Y-43524221D01*
X104675689Y-43641269D01*
X104675687Y-43641269D01*
X104933487Y-43720790D01*
X104933493Y-43720792D01*
X105200251Y-43760999D01*
X105200260Y-43761000D01*
X105470040Y-43761000D01*
X105470048Y-43760999D01*
X105736806Y-43720792D01*
X105736812Y-43720790D01*
X105994611Y-43641269D01*
X106237671Y-43524218D01*
X106420300Y-43399702D01*
X105582638Y-42562041D01*
X105643040Y-42537022D01*
X105749501Y-42465888D01*
X105840038Y-42375351D01*
X105911172Y-42268890D01*
X105936191Y-42208488D01*
X106772853Y-43045151D01*
X106772854Y-43045150D01*
X106826543Y-42977828D01*
X106826550Y-42977817D01*
X106961440Y-42744181D01*
X107060001Y-42493052D01*
X107060007Y-42493033D01*
X107120036Y-42230028D01*
X107120036Y-42230026D01*
X107140197Y-41961004D01*
X107140197Y-41960995D01*
X107136375Y-41909996D01*
X115653435Y-41909996D01*
X115653435Y-41910003D01*
X115673630Y-42089249D01*
X115673631Y-42089254D01*
X115733211Y-42259523D01*
X115805991Y-42375351D01*
X115829184Y-42412262D01*
X115956738Y-42539816D01*
X115988861Y-42560000D01*
X116070026Y-42611000D01*
X116109478Y-42635789D01*
X116211417Y-42671459D01*
X116279745Y-42695368D01*
X116279750Y-42695369D01*
X116458996Y-42715565D01*
X116459000Y-42715565D01*
X116459004Y-42715565D01*
X116638249Y-42695369D01*
X116638251Y-42695368D01*
X116638255Y-42695368D01*
X116638258Y-42695366D01*
X116638262Y-42695366D01*
X116706585Y-42671459D01*
X116747540Y-42664500D01*
X118401651Y-42664500D01*
X118468690Y-42684185D01*
X118514445Y-42736989D01*
X118525651Y-42788500D01*
X118525651Y-43257876D01*
X118532058Y-43317483D01*
X118582352Y-43452328D01*
X118582356Y-43452335D01*
X118668602Y-43567544D01*
X118668605Y-43567547D01*
X118783814Y-43653793D01*
X118783821Y-43653797D01*
X118918667Y-43704091D01*
X118918666Y-43704091D01*
X118925196Y-43704793D01*
X118978277Y-43710500D01*
X121674022Y-43710499D01*
X121733633Y-43704091D01*
X121868481Y-43653796D01*
X121983696Y-43567546D01*
X122069946Y-43452331D01*
X122120241Y-43317483D01*
X122126650Y-43257873D01*
X122126649Y-41909995D01*
X123601103Y-41909995D01*
X123601103Y-41910004D01*
X123621263Y-42179026D01*
X123621263Y-42179028D01*
X123681292Y-42442033D01*
X123681298Y-42442052D01*
X123779859Y-42693181D01*
X123779858Y-42693181D01*
X123914752Y-42926822D01*
X123968444Y-42994151D01*
X124805107Y-42157487D01*
X124830128Y-42217890D01*
X124901262Y-42324351D01*
X124991799Y-42414888D01*
X125098260Y-42486022D01*
X125158660Y-42511041D01*
X124320998Y-43348702D01*
X124503633Y-43473220D01*
X124503635Y-43473221D01*
X124746689Y-43590269D01*
X124746687Y-43590269D01*
X125004487Y-43669790D01*
X125004493Y-43669792D01*
X125271251Y-43709999D01*
X125271260Y-43710000D01*
X125541040Y-43710000D01*
X125541048Y-43709999D01*
X125807806Y-43669792D01*
X125807812Y-43669790D01*
X126065611Y-43590269D01*
X126308671Y-43473218D01*
X126491300Y-43348702D01*
X125653638Y-42511041D01*
X125714040Y-42486022D01*
X125820501Y-42414888D01*
X125911038Y-42324351D01*
X125982172Y-42217890D01*
X126007191Y-42157488D01*
X126843853Y-42994151D01*
X126843854Y-42994150D01*
X126897543Y-42926828D01*
X126897550Y-42926817D01*
X127032440Y-42693181D01*
X127090598Y-42544996D01*
X139021435Y-42544996D01*
X139021435Y-42545003D01*
X139041630Y-42724249D01*
X139041631Y-42724254D01*
X139101211Y-42894523D01*
X139163811Y-42994150D01*
X139197184Y-43047262D01*
X139324738Y-43174816D01*
X139397444Y-43220500D01*
X139456920Y-43257872D01*
X139477478Y-43270789D01*
X139610919Y-43317482D01*
X139647745Y-43330368D01*
X139647750Y-43330369D01*
X139826996Y-43350565D01*
X139827000Y-43350565D01*
X139827004Y-43350565D01*
X140006249Y-43330369D01*
X140006252Y-43330368D01*
X140006255Y-43330368D01*
X140176522Y-43270789D01*
X140329262Y-43174816D01*
X140371259Y-43132819D01*
X140432582Y-43099334D01*
X140458940Y-43096500D01*
X142526651Y-43096500D01*
X142593690Y-43116185D01*
X142639445Y-43168989D01*
X142650651Y-43220500D01*
X142650651Y-43816876D01*
X142657058Y-43876483D01*
X142707352Y-44011328D01*
X142707356Y-44011335D01*
X142793602Y-44126544D01*
X142793605Y-44126547D01*
X142908814Y-44212793D01*
X142908821Y-44212797D01*
X143043667Y-44263091D01*
X143043666Y-44263091D01*
X143050594Y-44263835D01*
X143103277Y-44269500D01*
X145799022Y-44269499D01*
X145858633Y-44263091D01*
X145993481Y-44212796D01*
X146108696Y-44126546D01*
X146194946Y-44011331D01*
X146245241Y-43876483D01*
X146251650Y-43816873D01*
X146251649Y-42468995D01*
X147726103Y-42468995D01*
X147726103Y-42469004D01*
X147746263Y-42738026D01*
X147746263Y-42738028D01*
X147806292Y-43001033D01*
X147806298Y-43001052D01*
X147904859Y-43252181D01*
X147904858Y-43252181D01*
X148039752Y-43485822D01*
X148093444Y-43553151D01*
X148930107Y-42716487D01*
X148955128Y-42776890D01*
X149026262Y-42883351D01*
X149116799Y-42973888D01*
X149223260Y-43045022D01*
X149283660Y-43070041D01*
X148445998Y-43907702D01*
X148628633Y-44032220D01*
X148628635Y-44032221D01*
X148871689Y-44149269D01*
X148871687Y-44149269D01*
X149129487Y-44228790D01*
X149129493Y-44228792D01*
X149396251Y-44268999D01*
X149396260Y-44269000D01*
X149666040Y-44269000D01*
X149666048Y-44268999D01*
X149932806Y-44228792D01*
X149932812Y-44228790D01*
X150190611Y-44149269D01*
X150433671Y-44032218D01*
X150616300Y-43907702D01*
X149778638Y-43070041D01*
X149839040Y-43045022D01*
X149945501Y-42973888D01*
X150036038Y-42883351D01*
X150107172Y-42776890D01*
X150132191Y-42716488D01*
X150968853Y-43553151D01*
X150968854Y-43553150D01*
X151022543Y-43485828D01*
X151022550Y-43485817D01*
X151157440Y-43252181D01*
X151256001Y-43001052D01*
X151256007Y-43001033D01*
X151316036Y-42738028D01*
X151316036Y-42738026D01*
X151336197Y-42469004D01*
X151336197Y-42468995D01*
X151316036Y-42199973D01*
X151316036Y-42199971D01*
X151256007Y-41936966D01*
X151256001Y-41936947D01*
X151157440Y-41685818D01*
X151157441Y-41685818D01*
X151022547Y-41452177D01*
X150968854Y-41384847D01*
X150132191Y-42221510D01*
X150107172Y-42161110D01*
X150036038Y-42054649D01*
X149945501Y-41964112D01*
X149839040Y-41892978D01*
X149778638Y-41867958D01*
X150616300Y-41030296D01*
X150433667Y-40905779D01*
X150433666Y-40905778D01*
X150190610Y-40788730D01*
X150190612Y-40788730D01*
X149932812Y-40709209D01*
X149932806Y-40709207D01*
X149666048Y-40669000D01*
X149396251Y-40669000D01*
X149129493Y-40709207D01*
X149129487Y-40709209D01*
X148871688Y-40788730D01*
X148628635Y-40905778D01*
X148628626Y-40905783D01*
X148445998Y-41030296D01*
X149283661Y-41867958D01*
X149223260Y-41892978D01*
X149116799Y-41964112D01*
X149026262Y-42054649D01*
X148955128Y-42161110D01*
X148930108Y-42221511D01*
X148093445Y-41384848D01*
X148039750Y-41452180D01*
X147904859Y-41685818D01*
X147806298Y-41936947D01*
X147806292Y-41936966D01*
X147746263Y-42199971D01*
X147746263Y-42199973D01*
X147726103Y-42468995D01*
X146251649Y-42468995D01*
X146251649Y-41121128D01*
X146245241Y-41061517D01*
X146234045Y-41031500D01*
X146194947Y-40926671D01*
X146194943Y-40926664D01*
X146108697Y-40811455D01*
X146108694Y-40811452D01*
X145993485Y-40725206D01*
X145993478Y-40725202D01*
X145858632Y-40674908D01*
X145858633Y-40674908D01*
X145799033Y-40668501D01*
X145799031Y-40668500D01*
X145799023Y-40668500D01*
X145799014Y-40668500D01*
X143103279Y-40668500D01*
X143103273Y-40668501D01*
X143043666Y-40674908D01*
X142908821Y-40725202D01*
X142908814Y-40725206D01*
X142793605Y-40811452D01*
X142793602Y-40811455D01*
X142707356Y-40926664D01*
X142707352Y-40926671D01*
X142657058Y-41061517D01*
X142650651Y-41121116D01*
X142650651Y-41121123D01*
X142650650Y-41121135D01*
X142650650Y-41717500D01*
X142630965Y-41784539D01*
X142578161Y-41830294D01*
X142526650Y-41841500D01*
X140247719Y-41841500D01*
X140181750Y-41822496D01*
X140176522Y-41819211D01*
X140176520Y-41819210D01*
X140176518Y-41819209D01*
X140006262Y-41759633D01*
X140006249Y-41759630D01*
X139827004Y-41739435D01*
X139826996Y-41739435D01*
X139647750Y-41759630D01*
X139647745Y-41759631D01*
X139477476Y-41819211D01*
X139324737Y-41915184D01*
X139197184Y-42042737D01*
X139101211Y-42195476D01*
X139041631Y-42365745D01*
X139041630Y-42365750D01*
X139021435Y-42544996D01*
X127090598Y-42544996D01*
X127131001Y-42442052D01*
X127131007Y-42442033D01*
X127191036Y-42179028D01*
X127191036Y-42179026D01*
X127211197Y-41910004D01*
X127211197Y-41909995D01*
X127191036Y-41640973D01*
X127191036Y-41640971D01*
X127131007Y-41377966D01*
X127131001Y-41377947D01*
X127032440Y-41126818D01*
X127032441Y-41126818D01*
X126897547Y-40893177D01*
X126843854Y-40825847D01*
X126007191Y-41662510D01*
X125982172Y-41602110D01*
X125911038Y-41495649D01*
X125820501Y-41405112D01*
X125714040Y-41333978D01*
X125653638Y-41308958D01*
X126491300Y-40471296D01*
X126308667Y-40346779D01*
X126308666Y-40346778D01*
X126065610Y-40229730D01*
X126065612Y-40229730D01*
X125807812Y-40150209D01*
X125807806Y-40150207D01*
X125541048Y-40110000D01*
X125271251Y-40110000D01*
X125004493Y-40150207D01*
X125004487Y-40150209D01*
X124746688Y-40229730D01*
X124503635Y-40346778D01*
X124503626Y-40346783D01*
X124320998Y-40471296D01*
X125158661Y-41308958D01*
X125098260Y-41333978D01*
X124991799Y-41405112D01*
X124901262Y-41495649D01*
X124830128Y-41602110D01*
X124805108Y-41662511D01*
X123968445Y-40825848D01*
X123914750Y-40893180D01*
X123779859Y-41126818D01*
X123681298Y-41377947D01*
X123681292Y-41377966D01*
X123621263Y-41640971D01*
X123621263Y-41640973D01*
X123601103Y-41909995D01*
X122126649Y-41909995D01*
X122126649Y-40562128D01*
X122120241Y-40502517D01*
X122108596Y-40471296D01*
X122069947Y-40367671D01*
X122069943Y-40367664D01*
X121983697Y-40252455D01*
X121983694Y-40252452D01*
X121868485Y-40166206D01*
X121868478Y-40166202D01*
X121733632Y-40115908D01*
X121733633Y-40115908D01*
X121674033Y-40109501D01*
X121674031Y-40109500D01*
X121674023Y-40109500D01*
X121674014Y-40109500D01*
X118978279Y-40109500D01*
X118978273Y-40109501D01*
X118918666Y-40115908D01*
X118783821Y-40166202D01*
X118783814Y-40166206D01*
X118668605Y-40252452D01*
X118668602Y-40252455D01*
X118582356Y-40367664D01*
X118582352Y-40367671D01*
X118532058Y-40502517D01*
X118525651Y-40562116D01*
X118525651Y-40562123D01*
X118525650Y-40562135D01*
X118525650Y-41031500D01*
X118505965Y-41098539D01*
X118453161Y-41144294D01*
X118401650Y-41155500D01*
X116747540Y-41155500D01*
X116706585Y-41148541D01*
X116638262Y-41124633D01*
X116638249Y-41124630D01*
X116459004Y-41104435D01*
X116458996Y-41104435D01*
X116279750Y-41124630D01*
X116279745Y-41124631D01*
X116109476Y-41184211D01*
X115956737Y-41280184D01*
X115829184Y-41407737D01*
X115733211Y-41560476D01*
X115673631Y-41730745D01*
X115673630Y-41730750D01*
X115653435Y-41909996D01*
X107136375Y-41909996D01*
X107120036Y-41691973D01*
X107120036Y-41691971D01*
X107060007Y-41428966D01*
X107060001Y-41428947D01*
X106961440Y-41177818D01*
X106961441Y-41177818D01*
X106826547Y-40944177D01*
X106772854Y-40876847D01*
X105936191Y-41713510D01*
X105911172Y-41653110D01*
X105840038Y-41546649D01*
X105749501Y-41456112D01*
X105643040Y-41384978D01*
X105582638Y-41359958D01*
X106420300Y-40522296D01*
X106237667Y-40397779D01*
X106237666Y-40397778D01*
X105994610Y-40280730D01*
X105994612Y-40280730D01*
X105736812Y-40201209D01*
X105736806Y-40201207D01*
X105470048Y-40161000D01*
X105200251Y-40161000D01*
X104933493Y-40201207D01*
X104933487Y-40201209D01*
X104675688Y-40280730D01*
X104432635Y-40397778D01*
X104432626Y-40397783D01*
X104249998Y-40522296D01*
X105087661Y-41359958D01*
X105027260Y-41384978D01*
X104920799Y-41456112D01*
X104830262Y-41546649D01*
X104759128Y-41653110D01*
X104734108Y-41713511D01*
X103897445Y-40876848D01*
X103843750Y-40944180D01*
X103708859Y-41177818D01*
X103610298Y-41428947D01*
X103610292Y-41428966D01*
X103550263Y-41691971D01*
X103550263Y-41691973D01*
X103530103Y-41960995D01*
X102055649Y-41960995D01*
X102055649Y-40613128D01*
X102049241Y-40553517D01*
X102037596Y-40522296D01*
X101998947Y-40418671D01*
X101998943Y-40418664D01*
X101912697Y-40303455D01*
X101912694Y-40303452D01*
X101797485Y-40217206D01*
X101797478Y-40217202D01*
X101662632Y-40166908D01*
X101662633Y-40166908D01*
X101603033Y-40160501D01*
X101603031Y-40160500D01*
X101603023Y-40160500D01*
X101603015Y-40160500D01*
X101260650Y-40160500D01*
X101193611Y-40140815D01*
X101147856Y-40088011D01*
X101136650Y-40036500D01*
X101136650Y-37581500D01*
X101156335Y-37514461D01*
X101209139Y-37468706D01*
X101260650Y-37457500D01*
X167199650Y-37457500D01*
X167266689Y-37477185D01*
X167312444Y-37529989D01*
X167323650Y-37581500D01*
X167323650Y-39985500D01*
X167303965Y-40052539D01*
X167251161Y-40098294D01*
X167199650Y-40109500D01*
X166857280Y-40109500D01*
X166857273Y-40109501D01*
X166797666Y-40115908D01*
X166662821Y-40166202D01*
X166662814Y-40166206D01*
X166547605Y-40252452D01*
X166547602Y-40252455D01*
X166461356Y-40367664D01*
X166461352Y-40367671D01*
X166411058Y-40502517D01*
X166404651Y-40562116D01*
X166404651Y-40562123D01*
X166404650Y-40562135D01*
X166404650Y-43257870D01*
X166404651Y-43257876D01*
X166411058Y-43317483D01*
X166461352Y-43452328D01*
X166461356Y-43452335D01*
X166547602Y-43567544D01*
X166547605Y-43567547D01*
X166662814Y-43653793D01*
X166662821Y-43653797D01*
X166797667Y-43704091D01*
X166797666Y-43704091D01*
X166804196Y-43704793D01*
X166857277Y-43710500D01*
X169553022Y-43710499D01*
X169612633Y-43704091D01*
X169747481Y-43653796D01*
X169862696Y-43567546D01*
X169948946Y-43452331D01*
X169999241Y-43317483D01*
X170005650Y-43257873D01*
X170005649Y-41909995D01*
X171480103Y-41909995D01*
X171480103Y-41910004D01*
X171500263Y-42179026D01*
X171500263Y-42179028D01*
X171560292Y-42442033D01*
X171560298Y-42442052D01*
X171658859Y-42693181D01*
X171658858Y-42693181D01*
X171793752Y-42926822D01*
X171847444Y-42994151D01*
X172684107Y-42157487D01*
X172709128Y-42217890D01*
X172780262Y-42324351D01*
X172870799Y-42414888D01*
X172977260Y-42486022D01*
X173037660Y-42511041D01*
X172199998Y-43348702D01*
X172382633Y-43473220D01*
X172382635Y-43473221D01*
X172625689Y-43590269D01*
X172625687Y-43590269D01*
X172883487Y-43669790D01*
X172883493Y-43669792D01*
X173150251Y-43709999D01*
X173150260Y-43710000D01*
X173420040Y-43710000D01*
X173420048Y-43709999D01*
X173686806Y-43669792D01*
X173686812Y-43669790D01*
X173944611Y-43590269D01*
X174187671Y-43473218D01*
X174370300Y-43348702D01*
X173532638Y-42511041D01*
X173593040Y-42486022D01*
X173699501Y-42414888D01*
X173790038Y-42324351D01*
X173861172Y-42217890D01*
X173886191Y-42157488D01*
X174722853Y-42994151D01*
X174722854Y-42994150D01*
X174776543Y-42926828D01*
X174776550Y-42926817D01*
X174911440Y-42693181D01*
X175010001Y-42442052D01*
X175010007Y-42442033D01*
X175070036Y-42179028D01*
X175070036Y-42179026D01*
X175090197Y-41910004D01*
X175090197Y-41909995D01*
X175070036Y-41640973D01*
X175070036Y-41640971D01*
X175010007Y-41377966D01*
X175010001Y-41377947D01*
X174911440Y-41126818D01*
X174911441Y-41126818D01*
X174776547Y-40893177D01*
X174722854Y-40825847D01*
X173886191Y-41662510D01*
X173861172Y-41602110D01*
X173790038Y-41495649D01*
X173699501Y-41405112D01*
X173593040Y-41333978D01*
X173532638Y-41308958D01*
X174370300Y-40471296D01*
X174187667Y-40346779D01*
X174187666Y-40346778D01*
X173944610Y-40229730D01*
X173944612Y-40229730D01*
X173686812Y-40150209D01*
X173686806Y-40150207D01*
X173420048Y-40110000D01*
X173150251Y-40110000D01*
X172883493Y-40150207D01*
X172883487Y-40150209D01*
X172625688Y-40229730D01*
X172382635Y-40346778D01*
X172382626Y-40346783D01*
X172199998Y-40471296D01*
X173037661Y-41308958D01*
X172977260Y-41333978D01*
X172870799Y-41405112D01*
X172780262Y-41495649D01*
X172709128Y-41602110D01*
X172684108Y-41662511D01*
X171847445Y-40825848D01*
X171793750Y-40893180D01*
X171658859Y-41126818D01*
X171560298Y-41377947D01*
X171560292Y-41377966D01*
X171500263Y-41640971D01*
X171500263Y-41640973D01*
X171480103Y-41909995D01*
X170005649Y-41909995D01*
X170005649Y-40562128D01*
X169999241Y-40502517D01*
X169987596Y-40471296D01*
X169948947Y-40367671D01*
X169948943Y-40367664D01*
X169862697Y-40252455D01*
X169862694Y-40252452D01*
X169747485Y-40166206D01*
X169747478Y-40166202D01*
X169612632Y-40115908D01*
X169612633Y-40115908D01*
X169553033Y-40109501D01*
X169553031Y-40109500D01*
X169553023Y-40109500D01*
X169553015Y-40109500D01*
X169210650Y-40109500D01*
X169143611Y-40089815D01*
X169097856Y-40037011D01*
X169086650Y-39985500D01*
X169086650Y-36962711D01*
X180521500Y-36962711D01*
X180521500Y-37205288D01*
X180553161Y-37445785D01*
X180615947Y-37680104D01*
X180624101Y-37699789D01*
X180708776Y-37904212D01*
X180830064Y-38114289D01*
X180830066Y-38114292D01*
X180830067Y-38114293D01*
X180977733Y-38306736D01*
X180977739Y-38306743D01*
X181149256Y-38478260D01*
X181149262Y-38478265D01*
X181341711Y-38625936D01*
X181551788Y-38747224D01*
X181775900Y-38840054D01*
X182010211Y-38902838D01*
X182190586Y-38926584D01*
X182250711Y-38934500D01*
X182250712Y-38934500D01*
X182493289Y-38934500D01*
X182541388Y-38928167D01*
X182733789Y-38902838D01*
X182968100Y-38840054D01*
X183192212Y-38747224D01*
X183402289Y-38625936D01*
X183594738Y-38478265D01*
X183766265Y-38306738D01*
X183913936Y-38114289D01*
X184035224Y-37904212D01*
X184128054Y-37680100D01*
X184190838Y-37445789D01*
X184222500Y-37205288D01*
X184222500Y-36962712D01*
X184190838Y-36722211D01*
X184128054Y-36487900D01*
X184035224Y-36263788D01*
X183913936Y-36053711D01*
X183766265Y-35861262D01*
X183766260Y-35861256D01*
X183594743Y-35689739D01*
X183594736Y-35689733D01*
X183402293Y-35542067D01*
X183402292Y-35542066D01*
X183402289Y-35542064D01*
X183192212Y-35420776D01*
X183192205Y-35420773D01*
X182968104Y-35327947D01*
X182733785Y-35265161D01*
X182493289Y-35233500D01*
X182493288Y-35233500D01*
X182250712Y-35233500D01*
X182250711Y-35233500D01*
X182010214Y-35265161D01*
X181775895Y-35327947D01*
X181551794Y-35420773D01*
X181551785Y-35420777D01*
X181341706Y-35542067D01*
X181149263Y-35689733D01*
X181149256Y-35689739D01*
X180977739Y-35861256D01*
X180977733Y-35861263D01*
X180830067Y-36053706D01*
X180708777Y-36263785D01*
X180708773Y-36263794D01*
X180615947Y-36487895D01*
X180553161Y-36722214D01*
X180521500Y-36962711D01*
X169086650Y-36962711D01*
X169086650Y-36546328D01*
X169075027Y-36487901D01*
X169075027Y-36487899D01*
X169067541Y-36450267D01*
X169052774Y-36376026D01*
X169024475Y-36307706D01*
X168986328Y-36215609D01*
X168986321Y-36215596D01*
X168889857Y-36071228D01*
X168872335Y-36053706D01*
X168832705Y-36014076D01*
X168709924Y-35891294D01*
X168567406Y-35796067D01*
X168565543Y-35794822D01*
X168405128Y-35728377D01*
X168405118Y-35728374D01*
X168234823Y-35694500D01*
X168234821Y-35694500D01*
X168234820Y-35694500D01*
X100416821Y-35694500D01*
X100243179Y-35694500D01*
X100243174Y-35694500D01*
X100072883Y-35728373D01*
X100072875Y-35728375D01*
X99973955Y-35769350D01*
X99912453Y-35794824D01*
X99869179Y-35823738D01*
X99840265Y-35843059D01*
X99813021Y-35861263D01*
X99768073Y-35891295D01*
X99570445Y-36088923D01*
X99523988Y-36158453D01*
X99473973Y-36233305D01*
X99407527Y-36393721D01*
X99407524Y-36393731D01*
X99373650Y-36564027D01*
X99373650Y-40036500D01*
X99353965Y-40103539D01*
X99301161Y-40149294D01*
X99249650Y-40160500D01*
X98907280Y-40160500D01*
X98907273Y-40160501D01*
X98847666Y-40166908D01*
X98712821Y-40217202D01*
X98712814Y-40217206D01*
X98597605Y-40303452D01*
X98597602Y-40303455D01*
X98511356Y-40418664D01*
X98511352Y-40418671D01*
X98461058Y-40553517D01*
X98460132Y-40562135D01*
X98454651Y-40613123D01*
X98454650Y-40613135D01*
X98454650Y-43308870D01*
X98454651Y-43308876D01*
X98461058Y-43368483D01*
X98511352Y-43503328D01*
X98511356Y-43503335D01*
X98597602Y-43618544D01*
X98597605Y-43618547D01*
X98712814Y-43704793D01*
X98712821Y-43704797D01*
X98728112Y-43710500D01*
X98847667Y-43755091D01*
X98907277Y-43761500D01*
X99249650Y-43761499D01*
X99316689Y-43781183D01*
X99362444Y-43833987D01*
X99373650Y-43885499D01*
X99373650Y-44257500D01*
X99353965Y-44324539D01*
X99301161Y-44370294D01*
X99249650Y-44381500D01*
X94604177Y-44381500D01*
X94433881Y-44415374D01*
X94433871Y-44415377D01*
X94273457Y-44481822D01*
X94273455Y-44481823D01*
X94165987Y-44553632D01*
X94165986Y-44553633D01*
X94129073Y-44578296D01*
X94129072Y-44578297D01*
X93930296Y-44777072D01*
X93930295Y-44777073D01*
X93833822Y-44921456D01*
X93767377Y-45081871D01*
X93767374Y-45081881D01*
X93733500Y-45252176D01*
X93733500Y-45252179D01*
X93733500Y-45425821D01*
X93733500Y-45425823D01*
X93733499Y-45425823D01*
X88408250Y-45425823D01*
X88397712Y-37216711D01*
X91113500Y-37216711D01*
X91113500Y-37459288D01*
X91145161Y-37699785D01*
X91207947Y-37934104D01*
X91282584Y-38114293D01*
X91300776Y-38158212D01*
X91422064Y-38368289D01*
X91422066Y-38368292D01*
X91422067Y-38368293D01*
X91569733Y-38560736D01*
X91569739Y-38560743D01*
X91741256Y-38732260D01*
X91741263Y-38732266D01*
X91854321Y-38819018D01*
X91933711Y-38879936D01*
X92143788Y-39001224D01*
X92367900Y-39094054D01*
X92602211Y-39156838D01*
X92782586Y-39180584D01*
X92842711Y-39188500D01*
X92842712Y-39188500D01*
X93085289Y-39188500D01*
X93133388Y-39182167D01*
X93325789Y-39156838D01*
X93560100Y-39094054D01*
X93784212Y-39001224D01*
X93994289Y-38879936D01*
X94186738Y-38732265D01*
X94358265Y-38560738D01*
X94505936Y-38368289D01*
X94627224Y-38158212D01*
X94720054Y-37934100D01*
X94782838Y-37699789D01*
X94814500Y-37459288D01*
X94814500Y-37216712D01*
X94782838Y-36976211D01*
X94720054Y-36741900D01*
X94627224Y-36517788D01*
X94505936Y-36307711D01*
X94358265Y-36115262D01*
X94358260Y-36115256D01*
X94186743Y-35943739D01*
X94186736Y-35943733D01*
X93994293Y-35796067D01*
X93994292Y-35796066D01*
X93994289Y-35796064D01*
X93784212Y-35674776D01*
X93784205Y-35674773D01*
X93560104Y-35581947D01*
X93325785Y-35519161D01*
X93085289Y-35487500D01*
X93085288Y-35487500D01*
X92842712Y-35487500D01*
X92842711Y-35487500D01*
X92602214Y-35519161D01*
X92367895Y-35581947D01*
X92143794Y-35674773D01*
X92143785Y-35674777D01*
X91933706Y-35796067D01*
X91741263Y-35943733D01*
X91741256Y-35943739D01*
X91569739Y-36115256D01*
X91569733Y-36115263D01*
X91422067Y-36307706D01*
X91300777Y-36517785D01*
X91300773Y-36517794D01*
X91207947Y-36741895D01*
X91145161Y-36976214D01*
X91113500Y-37216711D01*
X88397712Y-37216711D01*
X88392158Y-32889835D01*
X88411757Y-32822775D01*
X88464502Y-32776952D01*
X88515837Y-32765680D01*
X186565841Y-32512320D01*
X186632929Y-32531832D01*
G37*
G04 #@! TD.AperFunction*
G04 #@! TD*
M02*
