M48
; DRILL file {KiCad 8.0.4} date 2024-10-22T20:33:14-0500
; FORMAT={-:-/ absolute / inch / decimal}
; #@! TF.CreationDate,2024-10-22T20:33:14-05:00
; #@! TF.GenerationSoftware,Kicad,Pcbnew,8.0.4
; #@! TF.FileFunction,Plated,1,2,PTH
FMAT,2
INCH
; #@! TA.AperFunction,Plated,PTH,ViaDrill
T1C0.0118
; #@! TA.AperFunction,Plated,PTH,ComponentDrill
T2C0.0512
%
G90
G05
T1
X3.725Y-1.785
X3.725Y-2.92
X3.76Y-4.29
X3.76Y-4.535
X3.765Y-3.21
X3.96Y-3.34
X4.155Y-3.44
X4.28Y-2.94
X4.565Y-4.47
X4.585Y-1.65
X4.735Y-3.695
X4.97Y-3.205
X4.97Y-4.07
X5.02Y-3.085
X5.18Y-3.24
X5.18Y-3.375
X5.31Y-1.9
X5.37Y-4.24
X5.505Y-1.675
X5.52Y-3.775
X5.68Y-2.76
X5.68Y-3.535
X5.68Y-3.885
X5.87Y-3.175
X5.875Y-4.18
X5.895Y-3.71
X6.02Y-4.05
X6.13Y-3.925
X6.185Y-3.44
X6.28Y-2.125
X6.38Y-3.84
X6.4Y-3.26
X6.54Y-3.26
X6.565Y-3.84
X6.645Y-3.15
X6.645Y-3.76
X6.645Y-3.91
X7.065Y-4.285
X7.23Y-4.44
T2
X3.9471Y-1.652
X3.9672Y-2.465
X4.1471Y-1.652
X4.1673Y-2.465
X4.7372Y-1.65
X4.7722Y-2.485
X4.9372Y-1.65
X4.9722Y-2.485
X5.6772Y-2.495
X5.6871Y-1.672
X5.8773Y-2.495
X5.8871Y-1.672
X6.6223Y-1.65
X6.6372Y-2.48
X6.8222Y-1.65
X6.8373Y-2.48
M30
