G04 #@! TF.GenerationSoftware,KiCad,Pcbnew,8.0.4*
G04 #@! TF.CreationDate,2024-10-22T20:33:19-05:00*
G04 #@! TF.ProjectId,PCB_split,5043425f-7370-46c6-9974-2e6b69636164,rev?*
G04 #@! TF.SameCoordinates,Original*
G04 #@! TF.FileFunction,Paste,Top*
G04 #@! TF.FilePolarity,Positive*
%FSLAX46Y46*%
G04 Gerber Fmt 4.6, Leading zero omitted, Abs format (unit mm)*
G04 Created by KiCad (PCBNEW 8.0.4) date 2024-10-22 20:33:19*
%MOMM*%
%LPD*%
G01*
G04 APERTURE LIST*
G04 Aperture macros list*
%AMRoundRect*
0 Rectangle with rounded corners*
0 $1 Rounding radius*
0 $2 $3 $4 $5 $6 $7 $8 $9 X,Y pos of 4 corners*
0 Add a 4 corners polygon primitive as box body*
4,1,4,$2,$3,$4,$5,$6,$7,$8,$9,$2,$3,0*
0 Add four circle primitives for the rounded corners*
1,1,$1+$1,$2,$3*
1,1,$1+$1,$4,$5*
1,1,$1+$1,$6,$7*
1,1,$1+$1,$8,$9*
0 Add four rect primitives between the rounded corners*
20,1,$1+$1,$2,$3,$4,$5,0*
20,1,$1+$1,$4,$5,$6,$7,0*
20,1,$1+$1,$6,$7,$8,$9,0*
20,1,$1+$1,$8,$9,$2,$3,0*%
G04 Aperture macros list end*
%ADD10RoundRect,0.250000X-0.337500X-0.475000X0.337500X-0.475000X0.337500X0.475000X-0.337500X0.475000X0*%
%ADD11RoundRect,0.250000X-0.350000X-0.450000X0.350000X-0.450000X0.350000X0.450000X-0.350000X0.450000X0*%
%ADD12R,0.711200X0.228600*%
%ADD13R,1.699999X1.300000*%
%ADD14R,5.699998X5.499999*%
%ADD15R,4.240000X3.810000*%
%ADD16RoundRect,0.162500X-0.837500X-0.162500X0.837500X-0.162500X0.837500X0.162500X-0.837500X0.162500X0*%
%ADD17R,1.460500X0.558800*%
%ADD18RoundRect,0.225000X-0.225000X-0.375000X0.225000X-0.375000X0.225000X0.375000X-0.225000X0.375000X0*%
%ADD19RoundRect,0.090000X-0.139000X-0.090000X0.139000X-0.090000X0.139000X0.090000X-0.139000X0.090000X0*%
G04 APERTURE END LIST*
D10*
G04 #@! TO.C,C5*
X95439500Y-104267000D03*
X97514500Y-104267000D03*
G04 #@! TD*
G04 #@! TO.C,C6*
X95439500Y-111760000D03*
X97514500Y-111760000D03*
G04 #@! TD*
G04 #@! TO.C,C7*
X95461000Y-118237000D03*
X97536000Y-118237000D03*
G04 #@! TD*
G04 #@! TO.C,C4*
X95566500Y-96393000D03*
X97641500Y-96393000D03*
G04 #@! TD*
D11*
G04 #@! TO.C,R2*
X152178000Y-80518000D03*
X154178000Y-80518000D03*
G04 #@! TD*
D10*
G04 #@! TO.C,C1*
X95566500Y-76835000D03*
X97641500Y-76835000D03*
G04 #@! TD*
D12*
G04 #@! TO.C,U2*
X177804376Y-112256811D03*
X177804376Y-112756937D03*
X177804376Y-113257063D03*
X177804376Y-113757189D03*
X179404576Y-113757189D03*
X179404576Y-113257063D03*
X179404576Y-112756937D03*
X179404576Y-112256811D03*
G04 #@! TD*
D13*
G04 #@! TO.C,U1*
X130066001Y-113793001D03*
X130066001Y-118362999D03*
D14*
X136506001Y-116078000D03*
G04 #@! TD*
D15*
G04 #@! TO.C,F1*
X131044000Y-103378000D03*
X137414000Y-103378000D03*
G04 #@! TD*
D11*
G04 #@! TO.C,R5*
X152432000Y-94361000D03*
X154432000Y-94361000D03*
G04 #@! TD*
D16*
G04 #@! TO.C,D2*
X131629150Y-78359000D03*
X131629150Y-80259000D03*
X135049150Y-79309000D03*
G04 #@! TD*
D11*
G04 #@! TO.C,R1*
X152178000Y-75819000D03*
X154178000Y-75819000D03*
G04 #@! TD*
D17*
G04 #@! TO.C,Q1*
X168795700Y-82169000D03*
X168795700Y-83439000D03*
X168795700Y-84709000D03*
X168795700Y-85979000D03*
X174244000Y-85979000D03*
X174244000Y-84709000D03*
X174244000Y-83439000D03*
X174244000Y-82169000D03*
G04 #@! TD*
D18*
G04 #@! TO.C,D1*
X175770000Y-102362000D03*
X179070000Y-102362000D03*
G04 #@! TD*
D10*
G04 #@! TO.C,C3*
X95439500Y-90297000D03*
X97514500Y-90297000D03*
G04 #@! TD*
D16*
G04 #@! TO.C,D3*
X131581000Y-87823000D03*
X131581000Y-89723000D03*
X135001000Y-88773000D03*
G04 #@! TD*
D11*
G04 #@! TO.C,R4*
X152305000Y-89789000D03*
X154305000Y-89789000D03*
G04 #@! TD*
G04 #@! TO.C,R3*
X152178000Y-85217000D03*
X154178000Y-85217000D03*
G04 #@! TD*
D19*
G04 #@! TO.C,L1*
X177875500Y-118745000D03*
X178740500Y-118745000D03*
G04 #@! TD*
D10*
G04 #@! TO.C,C2*
X95566500Y-83947000D03*
X97641500Y-83947000D03*
G04 #@! TD*
M02*
