M48
; DRILL file {KiCad 8.0.5} date 2024-10-29T07:25:09-0500
; FORMAT={-:-/ absolute / inch / decimal}
; #@! TF.CreationDate,2024-10-29T07:25:09-05:00
; #@! TF.GenerationSoftware,Kicad,Pcbnew,8.0.5
; #@! TF.FileFunction,Plated,1,6,PTH
FMAT,2
INCH
; #@! TA.AperFunction,Plated,PTH,ComponentDrill
T1C0.0079
; #@! TA.AperFunction,Plated,PTH,ViaDrill
T2C0.0118
; #@! TA.AperFunction,Plated,PTH,ComponentDrill
T3C0.0276
; #@! TA.AperFunction,Plated,PTH,ComponentDrill
T4C0.0340
; #@! TA.AperFunction,Plated,PTH,ComponentDrill
T5C0.0394
; #@! TA.AperFunction,Plated,PTH,ComponentDrill
T6C0.0433
; #@! TA.AperFunction,Plated,PTH,ComponentDrill
T7C0.0512
%
G90
G05
T1
X3.0709Y-1.748
X3.0709Y-1.8031
X3.0984Y-1.7205
X3.0984Y-1.7756
X3.0984Y-1.8307
X3.126Y-1.748
X3.126Y-1.8031
X3.1535Y-1.7205
X3.1535Y-1.7756
X3.1535Y-1.8307
X3.1811Y-1.748
X3.1811Y-1.8031
T2
X1.752Y-3.4646
X1.7717Y-2.5031
X1.7717Y-3.015
X1.7717Y-4.3898
X1.8504Y-1.6535
X1.8504Y-2.185
X1.9882Y-2.6378
X2.0079Y-2.1457
X2.0669Y-2.2835
X2.0669Y-3.248
X2.2047Y-4.4685
X2.2244Y-3.7402
X2.2835Y-1.7717
X2.3819Y-3.4843
X2.4016Y-1.8504
X2.5Y-3.248
X2.5394Y-2.0079
X2.5591Y-2.6575
X2.5591Y-3.563
X2.5591Y-3.9764
X2.5787Y-2.126
X2.5787Y-2.7953
X2.5787Y-3.248
X2.5984Y-1.9291
X2.6378Y-2.1614
X2.6378Y-3.6024
X2.6575Y-1.7323
X2.6575Y-2.2835
X2.6969Y-3.6417
X2.7165Y-1.7717
X2.7165Y-2.3819
X2.7362Y-2.0669
X2.7362Y-3.6811
X2.7559Y-2.3031
X2.7559Y-3.189
X2.7756Y-3.0709
X2.7756Y-3.5039
X2.8543Y-2.9921
X2.8543Y-3.3661
X2.8543Y-3.5236
X2.9331Y-3.2087
X3.0118Y-2.4016
X3.0709Y-3.3071
X3.1102Y-2.7362
X3.1102Y-3.7795
X3.1496Y-3.0315
X3.1496Y-3.3071
X3.1693Y-3.7205
X3.2087Y-2.2677
X3.248Y-2.5394
X3.248Y-3.2677
X3.2677Y-2.3031
X3.2874Y-2.5984
X3.2874Y-2.7185
X3.3268Y-3.2087
X3.3465Y-2.7362
X3.3661Y-2.5984
X3.4252Y-2.0669
X3.4449Y-2.6969
X3.4646Y-2.0079
X3.5039Y-2.7165
X3.5236Y-2.2441
X3.6024Y-1.8307
X3.6024Y-1.8701
X3.6172Y-1.688
X3.6378Y-1.6339
X3.6417Y-2.3622
X3.6614Y-1.5748
X3.6811Y-2.1654
X3.7008Y-2.5984
X3.7034Y-2.1431
X3.7205Y-1.9685
X3.7205Y-2.4606
X3.7402Y-2.5984
X3.7598Y-2.1457
X3.7598Y-2.4803
X3.7598Y-2.5197
X3.8189Y-2.2835
X3.8386Y-3.1693
X3.8583Y-1.9291
X3.8583Y-2.6575
X3.878Y-3.7402
X3.8976Y-2.9921
X3.9173Y-3.4646
X3.9567Y-3.0118
X3.9961Y-2.6969
X4.0157Y-2.3228
X4.0157Y-3.3661
X4.0354Y-2.2638
X4.0354Y-3.0118
X4.0354Y-3.6417
X4.0748Y-2.6378
X4.252Y-3.4843
X4.2717Y-2.3622
X4.2913Y-2.0472
X4.2913Y-2.6181
X4.311Y-3.8386
X4.3307Y-2.2047
X4.3661Y-3.0118
X4.3898Y-2.9134
X4.3898Y-4.5276
X4.4094Y-2.2638
X4.4094Y-2.4016
X4.4094Y-2.5
X4.4488Y-2.9724
X4.4685Y-2.185
X4.4685Y-2.4803
X4.4882Y-4.4094
X4.5079Y-2.2426
X4.5866Y-2.4606
X4.6457Y-2.0669
T3
X2.4966Y-3.7277
X2.5466Y-3.7777
X2.5966Y-3.7277
X2.851Y-3.7277
X2.901Y-3.7777
X2.951Y-3.7277
T4
X3.787Y-3.2555
X3.787Y-3.3555
X3.787Y-3.4555
X3.787Y-3.5555
X3.787Y-3.7673
X3.787Y-3.8673
X3.787Y-3.9673
X3.787Y-4.0673
X4.087Y-3.2555
X4.087Y-3.3555
X4.087Y-3.4555
X4.087Y-3.5555
X4.087Y-3.7673
X4.087Y-3.8673
X4.087Y-3.9673
X4.087Y-4.0673
T5
X2.4693Y-4.2126
X2.5693Y-4.2126
X2.6693Y-4.2126
X2.7693Y-4.2126
X2.8693Y-4.2126
X2.9693Y-4.2126
X3.0693Y-4.2126
X3.1693Y-4.2126
X3.2693Y-4.2126
T6
X2.1752Y-2.8839
X2.1752Y-3.061
X2.4311Y-2.8839
X2.4311Y-3.061
X2.687Y-2.8839
X2.687Y-3.061
X2.9429Y-2.8839
X2.9429Y-3.061
T7
X1.378Y-4.8622
X1.4567Y-1.5425
X1.4567Y-1.7425
X1.4567Y-1.9425
X1.4567Y-2.1425
X1.4567Y-2.3425
X1.4567Y-2.6315
X1.4567Y-2.8315
X1.4567Y-3.0315
X1.4567Y-3.2315
X1.4567Y-3.4315
X1.4567Y-3.6976
X1.4567Y-3.8976
X1.4567Y-4.0976
X1.4567Y-4.2976
X1.4567Y-4.4976
X1.578Y-4.8622
X1.778Y-4.8622
X1.978Y-4.8622
X2.178Y-4.8622
X2.462Y-4.8545
X2.662Y-4.8545
X2.9904Y-4.8545
X3.1904Y-4.8545
X3.5053Y-4.8545
X3.7053Y-4.8545
X3.9929Y-4.8622
X4.1929Y-4.8622
X4.3929Y-4.8622
X4.5929Y-4.8622
X4.6063Y-3.6811
X4.6063Y-3.8811
X4.6063Y-4.0811
X4.6063Y-4.2811
X4.6063Y-4.4811
X4.626Y-2.674
X4.626Y-2.874
X4.626Y-3.1661
X4.626Y-3.3661
M30
