%TF.GenerationSoftware,KiCad,Pcbnew,8.0.5*%
%TF.CreationDate,2024-10-29T07:25:13-05:00*%
%TF.ProjectId,Autonomous_Gardening_Rover_v2,4175746f-6e6f-46d6-9f75-735f47617264,rev?*%
%TF.SameCoordinates,Original*%
%TF.FileFunction,Legend,Top*%
%TF.FilePolarity,Positive*%
%FSLAX46Y46*%
G04 Gerber Fmt 4.6, Leading zero omitted, Abs format (unit mm)*
G04 Created by KiCad (PCBNEW 8.0.5) date 2024-10-29 07:25:13*
%MOMM*%
%LPD*%
G01*
G04 APERTURE LIST*
%ADD10C,0.150000*%
%ADD11C,0.120000*%
%ADD12C,0.152400*%
%ADD13C,0.000000*%
G04 APERTURE END LIST*
D10*
X61693922Y-110759875D02*
X62265350Y-110759875D01*
X61979636Y-111759875D02*
X61979636Y-110759875D01*
X62979636Y-111712256D02*
X62884398Y-111759875D01*
X62884398Y-111759875D02*
X62693922Y-111759875D01*
X62693922Y-111759875D02*
X62598684Y-111712256D01*
X62598684Y-111712256D02*
X62551065Y-111617017D01*
X62551065Y-111617017D02*
X62551065Y-111236065D01*
X62551065Y-111236065D02*
X62598684Y-111140827D01*
X62598684Y-111140827D02*
X62693922Y-111093208D01*
X62693922Y-111093208D02*
X62884398Y-111093208D01*
X62884398Y-111093208D02*
X62979636Y-111140827D01*
X62979636Y-111140827D02*
X63027255Y-111236065D01*
X63027255Y-111236065D02*
X63027255Y-111331303D01*
X63027255Y-111331303D02*
X62551065Y-111426541D01*
X63884398Y-111759875D02*
X63884398Y-111236065D01*
X63884398Y-111236065D02*
X63836779Y-111140827D01*
X63836779Y-111140827D02*
X63741541Y-111093208D01*
X63741541Y-111093208D02*
X63551065Y-111093208D01*
X63551065Y-111093208D02*
X63455827Y-111140827D01*
X63884398Y-111712256D02*
X63789160Y-111759875D01*
X63789160Y-111759875D02*
X63551065Y-111759875D01*
X63551065Y-111759875D02*
X63455827Y-111712256D01*
X63455827Y-111712256D02*
X63408208Y-111617017D01*
X63408208Y-111617017D02*
X63408208Y-111521779D01*
X63408208Y-111521779D02*
X63455827Y-111426541D01*
X63455827Y-111426541D02*
X63551065Y-111378922D01*
X63551065Y-111378922D02*
X63789160Y-111378922D01*
X63789160Y-111378922D02*
X63884398Y-111331303D01*
X64360589Y-111759875D02*
X64360589Y-111093208D01*
X64360589Y-111188446D02*
X64408208Y-111140827D01*
X64408208Y-111140827D02*
X64503446Y-111093208D01*
X64503446Y-111093208D02*
X64646303Y-111093208D01*
X64646303Y-111093208D02*
X64741541Y-111140827D01*
X64741541Y-111140827D02*
X64789160Y-111236065D01*
X64789160Y-111236065D02*
X64789160Y-111759875D01*
X64789160Y-111236065D02*
X64836779Y-111140827D01*
X64836779Y-111140827D02*
X64932017Y-111093208D01*
X64932017Y-111093208D02*
X65074874Y-111093208D01*
X65074874Y-111093208D02*
X65170113Y-111140827D01*
X65170113Y-111140827D02*
X65217732Y-111236065D01*
X65217732Y-111236065D02*
X65217732Y-111759875D01*
X66979636Y-111759875D02*
X66408208Y-111759875D01*
X66693922Y-111759875D02*
X66693922Y-110759875D01*
X66693922Y-110759875D02*
X66598684Y-110902732D01*
X66598684Y-110902732D02*
X66503446Y-110997970D01*
X66503446Y-110997970D02*
X66408208Y-111045589D01*
X67312970Y-110759875D02*
X67932017Y-110759875D01*
X67932017Y-110759875D02*
X67598684Y-111140827D01*
X67598684Y-111140827D02*
X67741541Y-111140827D01*
X67741541Y-111140827D02*
X67836779Y-111188446D01*
X67836779Y-111188446D02*
X67884398Y-111236065D01*
X67884398Y-111236065D02*
X67932017Y-111331303D01*
X67932017Y-111331303D02*
X67932017Y-111569398D01*
X67932017Y-111569398D02*
X67884398Y-111664636D01*
X67884398Y-111664636D02*
X67836779Y-111712256D01*
X67836779Y-111712256D02*
X67741541Y-111759875D01*
X67741541Y-111759875D02*
X67455827Y-111759875D01*
X67455827Y-111759875D02*
X67360589Y-111712256D01*
X67360589Y-111712256D02*
X67312970Y-111664636D01*
X61789160Y-113084104D02*
X62265350Y-113084104D01*
X61693922Y-113369819D02*
X62027255Y-112369819D01*
X62027255Y-112369819D02*
X62360588Y-113369819D01*
X63122493Y-112703152D02*
X63122493Y-113369819D01*
X62693922Y-112703152D02*
X62693922Y-113226961D01*
X62693922Y-113226961D02*
X62741541Y-113322200D01*
X62741541Y-113322200D02*
X62836779Y-113369819D01*
X62836779Y-113369819D02*
X62979636Y-113369819D01*
X62979636Y-113369819D02*
X63074874Y-113322200D01*
X63074874Y-113322200D02*
X63122493Y-113274580D01*
X63455827Y-112703152D02*
X63836779Y-112703152D01*
X63598684Y-112369819D02*
X63598684Y-113226961D01*
X63598684Y-113226961D02*
X63646303Y-113322200D01*
X63646303Y-113322200D02*
X63741541Y-113369819D01*
X63741541Y-113369819D02*
X63836779Y-113369819D01*
X64312970Y-113369819D02*
X64217732Y-113322200D01*
X64217732Y-113322200D02*
X64170113Y-113274580D01*
X64170113Y-113274580D02*
X64122494Y-113179342D01*
X64122494Y-113179342D02*
X64122494Y-112893628D01*
X64122494Y-112893628D02*
X64170113Y-112798390D01*
X64170113Y-112798390D02*
X64217732Y-112750771D01*
X64217732Y-112750771D02*
X64312970Y-112703152D01*
X64312970Y-112703152D02*
X64455827Y-112703152D01*
X64455827Y-112703152D02*
X64551065Y-112750771D01*
X64551065Y-112750771D02*
X64598684Y-112798390D01*
X64598684Y-112798390D02*
X64646303Y-112893628D01*
X64646303Y-112893628D02*
X64646303Y-113179342D01*
X64646303Y-113179342D02*
X64598684Y-113274580D01*
X64598684Y-113274580D02*
X64551065Y-113322200D01*
X64551065Y-113322200D02*
X64455827Y-113369819D01*
X64455827Y-113369819D02*
X64312970Y-113369819D01*
X65074875Y-112703152D02*
X65074875Y-113369819D01*
X65074875Y-112798390D02*
X65122494Y-112750771D01*
X65122494Y-112750771D02*
X65217732Y-112703152D01*
X65217732Y-112703152D02*
X65360589Y-112703152D01*
X65360589Y-112703152D02*
X65455827Y-112750771D01*
X65455827Y-112750771D02*
X65503446Y-112846009D01*
X65503446Y-112846009D02*
X65503446Y-113369819D01*
X66122494Y-113369819D02*
X66027256Y-113322200D01*
X66027256Y-113322200D02*
X65979637Y-113274580D01*
X65979637Y-113274580D02*
X65932018Y-113179342D01*
X65932018Y-113179342D02*
X65932018Y-112893628D01*
X65932018Y-112893628D02*
X65979637Y-112798390D01*
X65979637Y-112798390D02*
X66027256Y-112750771D01*
X66027256Y-112750771D02*
X66122494Y-112703152D01*
X66122494Y-112703152D02*
X66265351Y-112703152D01*
X66265351Y-112703152D02*
X66360589Y-112750771D01*
X66360589Y-112750771D02*
X66408208Y-112798390D01*
X66408208Y-112798390D02*
X66455827Y-112893628D01*
X66455827Y-112893628D02*
X66455827Y-113179342D01*
X66455827Y-113179342D02*
X66408208Y-113274580D01*
X66408208Y-113274580D02*
X66360589Y-113322200D01*
X66360589Y-113322200D02*
X66265351Y-113369819D01*
X66265351Y-113369819D02*
X66122494Y-113369819D01*
X66884399Y-113369819D02*
X66884399Y-112703152D01*
X66884399Y-112798390D02*
X66932018Y-112750771D01*
X66932018Y-112750771D02*
X67027256Y-112703152D01*
X67027256Y-112703152D02*
X67170113Y-112703152D01*
X67170113Y-112703152D02*
X67265351Y-112750771D01*
X67265351Y-112750771D02*
X67312970Y-112846009D01*
X67312970Y-112846009D02*
X67312970Y-113369819D01*
X67312970Y-112846009D02*
X67360589Y-112750771D01*
X67360589Y-112750771D02*
X67455827Y-112703152D01*
X67455827Y-112703152D02*
X67598684Y-112703152D01*
X67598684Y-112703152D02*
X67693923Y-112750771D01*
X67693923Y-112750771D02*
X67741542Y-112846009D01*
X67741542Y-112846009D02*
X67741542Y-113369819D01*
X68360589Y-113369819D02*
X68265351Y-113322200D01*
X68265351Y-113322200D02*
X68217732Y-113274580D01*
X68217732Y-113274580D02*
X68170113Y-113179342D01*
X68170113Y-113179342D02*
X68170113Y-112893628D01*
X68170113Y-112893628D02*
X68217732Y-112798390D01*
X68217732Y-112798390D02*
X68265351Y-112750771D01*
X68265351Y-112750771D02*
X68360589Y-112703152D01*
X68360589Y-112703152D02*
X68503446Y-112703152D01*
X68503446Y-112703152D02*
X68598684Y-112750771D01*
X68598684Y-112750771D02*
X68646303Y-112798390D01*
X68646303Y-112798390D02*
X68693922Y-112893628D01*
X68693922Y-112893628D02*
X68693922Y-113179342D01*
X68693922Y-113179342D02*
X68646303Y-113274580D01*
X68646303Y-113274580D02*
X68598684Y-113322200D01*
X68598684Y-113322200D02*
X68503446Y-113369819D01*
X68503446Y-113369819D02*
X68360589Y-113369819D01*
X69551065Y-112703152D02*
X69551065Y-113369819D01*
X69122494Y-112703152D02*
X69122494Y-113226961D01*
X69122494Y-113226961D02*
X69170113Y-113322200D01*
X69170113Y-113322200D02*
X69265351Y-113369819D01*
X69265351Y-113369819D02*
X69408208Y-113369819D01*
X69408208Y-113369819D02*
X69503446Y-113322200D01*
X69503446Y-113322200D02*
X69551065Y-113274580D01*
X69979637Y-113322200D02*
X70074875Y-113369819D01*
X70074875Y-113369819D02*
X70265351Y-113369819D01*
X70265351Y-113369819D02*
X70360589Y-113322200D01*
X70360589Y-113322200D02*
X70408208Y-113226961D01*
X70408208Y-113226961D02*
X70408208Y-113179342D01*
X70408208Y-113179342D02*
X70360589Y-113084104D01*
X70360589Y-113084104D02*
X70265351Y-113036485D01*
X70265351Y-113036485D02*
X70122494Y-113036485D01*
X70122494Y-113036485D02*
X70027256Y-112988866D01*
X70027256Y-112988866D02*
X69979637Y-112893628D01*
X69979637Y-112893628D02*
X69979637Y-112846009D01*
X69979637Y-112846009D02*
X70027256Y-112750771D01*
X70027256Y-112750771D02*
X70122494Y-112703152D01*
X70122494Y-112703152D02*
X70265351Y-112703152D01*
X70265351Y-112703152D02*
X70360589Y-112750771D01*
X72122494Y-112417438D02*
X72027256Y-112369819D01*
X72027256Y-112369819D02*
X71884399Y-112369819D01*
X71884399Y-112369819D02*
X71741542Y-112417438D01*
X71741542Y-112417438D02*
X71646304Y-112512676D01*
X71646304Y-112512676D02*
X71598685Y-112607914D01*
X71598685Y-112607914D02*
X71551066Y-112798390D01*
X71551066Y-112798390D02*
X71551066Y-112941247D01*
X71551066Y-112941247D02*
X71598685Y-113131723D01*
X71598685Y-113131723D02*
X71646304Y-113226961D01*
X71646304Y-113226961D02*
X71741542Y-113322200D01*
X71741542Y-113322200D02*
X71884399Y-113369819D01*
X71884399Y-113369819D02*
X71979637Y-113369819D01*
X71979637Y-113369819D02*
X72122494Y-113322200D01*
X72122494Y-113322200D02*
X72170113Y-113274580D01*
X72170113Y-113274580D02*
X72170113Y-112941247D01*
X72170113Y-112941247D02*
X71979637Y-112941247D01*
X73027256Y-113369819D02*
X73027256Y-112846009D01*
X73027256Y-112846009D02*
X72979637Y-112750771D01*
X72979637Y-112750771D02*
X72884399Y-112703152D01*
X72884399Y-112703152D02*
X72693923Y-112703152D01*
X72693923Y-112703152D02*
X72598685Y-112750771D01*
X73027256Y-113322200D02*
X72932018Y-113369819D01*
X72932018Y-113369819D02*
X72693923Y-113369819D01*
X72693923Y-113369819D02*
X72598685Y-113322200D01*
X72598685Y-113322200D02*
X72551066Y-113226961D01*
X72551066Y-113226961D02*
X72551066Y-113131723D01*
X72551066Y-113131723D02*
X72598685Y-113036485D01*
X72598685Y-113036485D02*
X72693923Y-112988866D01*
X72693923Y-112988866D02*
X72932018Y-112988866D01*
X72932018Y-112988866D02*
X73027256Y-112941247D01*
X73503447Y-113369819D02*
X73503447Y-112703152D01*
X73503447Y-112893628D02*
X73551066Y-112798390D01*
X73551066Y-112798390D02*
X73598685Y-112750771D01*
X73598685Y-112750771D02*
X73693923Y-112703152D01*
X73693923Y-112703152D02*
X73789161Y-112703152D01*
X74551066Y-113369819D02*
X74551066Y-112369819D01*
X74551066Y-113322200D02*
X74455828Y-113369819D01*
X74455828Y-113369819D02*
X74265352Y-113369819D01*
X74265352Y-113369819D02*
X74170114Y-113322200D01*
X74170114Y-113322200D02*
X74122495Y-113274580D01*
X74122495Y-113274580D02*
X74074876Y-113179342D01*
X74074876Y-113179342D02*
X74074876Y-112893628D01*
X74074876Y-112893628D02*
X74122495Y-112798390D01*
X74122495Y-112798390D02*
X74170114Y-112750771D01*
X74170114Y-112750771D02*
X74265352Y-112703152D01*
X74265352Y-112703152D02*
X74455828Y-112703152D01*
X74455828Y-112703152D02*
X74551066Y-112750771D01*
X75408209Y-113322200D02*
X75312971Y-113369819D01*
X75312971Y-113369819D02*
X75122495Y-113369819D01*
X75122495Y-113369819D02*
X75027257Y-113322200D01*
X75027257Y-113322200D02*
X74979638Y-113226961D01*
X74979638Y-113226961D02*
X74979638Y-112846009D01*
X74979638Y-112846009D02*
X75027257Y-112750771D01*
X75027257Y-112750771D02*
X75122495Y-112703152D01*
X75122495Y-112703152D02*
X75312971Y-112703152D01*
X75312971Y-112703152D02*
X75408209Y-112750771D01*
X75408209Y-112750771D02*
X75455828Y-112846009D01*
X75455828Y-112846009D02*
X75455828Y-112941247D01*
X75455828Y-112941247D02*
X74979638Y-113036485D01*
X75884400Y-112703152D02*
X75884400Y-113369819D01*
X75884400Y-112798390D02*
X75932019Y-112750771D01*
X75932019Y-112750771D02*
X76027257Y-112703152D01*
X76027257Y-112703152D02*
X76170114Y-112703152D01*
X76170114Y-112703152D02*
X76265352Y-112750771D01*
X76265352Y-112750771D02*
X76312971Y-112846009D01*
X76312971Y-112846009D02*
X76312971Y-113369819D01*
X76789162Y-113369819D02*
X76789162Y-112703152D01*
X76789162Y-112369819D02*
X76741543Y-112417438D01*
X76741543Y-112417438D02*
X76789162Y-112465057D01*
X76789162Y-112465057D02*
X76836781Y-112417438D01*
X76836781Y-112417438D02*
X76789162Y-112369819D01*
X76789162Y-112369819D02*
X76789162Y-112465057D01*
X77265352Y-112703152D02*
X77265352Y-113369819D01*
X77265352Y-112798390D02*
X77312971Y-112750771D01*
X77312971Y-112750771D02*
X77408209Y-112703152D01*
X77408209Y-112703152D02*
X77551066Y-112703152D01*
X77551066Y-112703152D02*
X77646304Y-112750771D01*
X77646304Y-112750771D02*
X77693923Y-112846009D01*
X77693923Y-112846009D02*
X77693923Y-113369819D01*
X78598685Y-112703152D02*
X78598685Y-113512676D01*
X78598685Y-113512676D02*
X78551066Y-113607914D01*
X78551066Y-113607914D02*
X78503447Y-113655533D01*
X78503447Y-113655533D02*
X78408209Y-113703152D01*
X78408209Y-113703152D02*
X78265352Y-113703152D01*
X78265352Y-113703152D02*
X78170114Y-113655533D01*
X78598685Y-113322200D02*
X78503447Y-113369819D01*
X78503447Y-113369819D02*
X78312971Y-113369819D01*
X78312971Y-113369819D02*
X78217733Y-113322200D01*
X78217733Y-113322200D02*
X78170114Y-113274580D01*
X78170114Y-113274580D02*
X78122495Y-113179342D01*
X78122495Y-113179342D02*
X78122495Y-112893628D01*
X78122495Y-112893628D02*
X78170114Y-112798390D01*
X78170114Y-112798390D02*
X78217733Y-112750771D01*
X78217733Y-112750771D02*
X78312971Y-112703152D01*
X78312971Y-112703152D02*
X78503447Y-112703152D01*
X78503447Y-112703152D02*
X78598685Y-112750771D01*
X80408209Y-113369819D02*
X80074876Y-112893628D01*
X79836781Y-113369819D02*
X79836781Y-112369819D01*
X79836781Y-112369819D02*
X80217733Y-112369819D01*
X80217733Y-112369819D02*
X80312971Y-112417438D01*
X80312971Y-112417438D02*
X80360590Y-112465057D01*
X80360590Y-112465057D02*
X80408209Y-112560295D01*
X80408209Y-112560295D02*
X80408209Y-112703152D01*
X80408209Y-112703152D02*
X80360590Y-112798390D01*
X80360590Y-112798390D02*
X80312971Y-112846009D01*
X80312971Y-112846009D02*
X80217733Y-112893628D01*
X80217733Y-112893628D02*
X79836781Y-112893628D01*
X80979638Y-113369819D02*
X80884400Y-113322200D01*
X80884400Y-113322200D02*
X80836781Y-113274580D01*
X80836781Y-113274580D02*
X80789162Y-113179342D01*
X80789162Y-113179342D02*
X80789162Y-112893628D01*
X80789162Y-112893628D02*
X80836781Y-112798390D01*
X80836781Y-112798390D02*
X80884400Y-112750771D01*
X80884400Y-112750771D02*
X80979638Y-112703152D01*
X80979638Y-112703152D02*
X81122495Y-112703152D01*
X81122495Y-112703152D02*
X81217733Y-112750771D01*
X81217733Y-112750771D02*
X81265352Y-112798390D01*
X81265352Y-112798390D02*
X81312971Y-112893628D01*
X81312971Y-112893628D02*
X81312971Y-113179342D01*
X81312971Y-113179342D02*
X81265352Y-113274580D01*
X81265352Y-113274580D02*
X81217733Y-113322200D01*
X81217733Y-113322200D02*
X81122495Y-113369819D01*
X81122495Y-113369819D02*
X80979638Y-113369819D01*
X81646305Y-112703152D02*
X81884400Y-113369819D01*
X81884400Y-113369819D02*
X82122495Y-112703152D01*
X82884400Y-113322200D02*
X82789162Y-113369819D01*
X82789162Y-113369819D02*
X82598686Y-113369819D01*
X82598686Y-113369819D02*
X82503448Y-113322200D01*
X82503448Y-113322200D02*
X82455829Y-113226961D01*
X82455829Y-113226961D02*
X82455829Y-112846009D01*
X82455829Y-112846009D02*
X82503448Y-112750771D01*
X82503448Y-112750771D02*
X82598686Y-112703152D01*
X82598686Y-112703152D02*
X82789162Y-112703152D01*
X82789162Y-112703152D02*
X82884400Y-112750771D01*
X82884400Y-112750771D02*
X82932019Y-112846009D01*
X82932019Y-112846009D02*
X82932019Y-112941247D01*
X82932019Y-112941247D02*
X82455829Y-113036485D01*
X83360591Y-113369819D02*
X83360591Y-112703152D01*
X83360591Y-112893628D02*
X83408210Y-112798390D01*
X83408210Y-112798390D02*
X83455829Y-112750771D01*
X83455829Y-112750771D02*
X83551067Y-112703152D01*
X83551067Y-112703152D02*
X83646305Y-112703152D01*
X100333333Y-51804819D02*
X100000000Y-51328628D01*
X99761905Y-51804819D02*
X99761905Y-50804819D01*
X99761905Y-50804819D02*
X100142857Y-50804819D01*
X100142857Y-50804819D02*
X100238095Y-50852438D01*
X100238095Y-50852438D02*
X100285714Y-50900057D01*
X100285714Y-50900057D02*
X100333333Y-50995295D01*
X100333333Y-50995295D02*
X100333333Y-51138152D01*
X100333333Y-51138152D02*
X100285714Y-51233390D01*
X100285714Y-51233390D02*
X100238095Y-51281009D01*
X100238095Y-51281009D02*
X100142857Y-51328628D01*
X100142857Y-51328628D02*
X99761905Y-51328628D01*
X100809524Y-51804819D02*
X101000000Y-51804819D01*
X101000000Y-51804819D02*
X101095238Y-51757200D01*
X101095238Y-51757200D02*
X101142857Y-51709580D01*
X101142857Y-51709580D02*
X101238095Y-51566723D01*
X101238095Y-51566723D02*
X101285714Y-51376247D01*
X101285714Y-51376247D02*
X101285714Y-50995295D01*
X101285714Y-50995295D02*
X101238095Y-50900057D01*
X101238095Y-50900057D02*
X101190476Y-50852438D01*
X101190476Y-50852438D02*
X101095238Y-50804819D01*
X101095238Y-50804819D02*
X100904762Y-50804819D01*
X100904762Y-50804819D02*
X100809524Y-50852438D01*
X100809524Y-50852438D02*
X100761905Y-50900057D01*
X100761905Y-50900057D02*
X100714286Y-50995295D01*
X100714286Y-50995295D02*
X100714286Y-51233390D01*
X100714286Y-51233390D02*
X100761905Y-51328628D01*
X100761905Y-51328628D02*
X100809524Y-51376247D01*
X100809524Y-51376247D02*
X100904762Y-51423866D01*
X100904762Y-51423866D02*
X101095238Y-51423866D01*
X101095238Y-51423866D02*
X101190476Y-51376247D01*
X101190476Y-51376247D02*
X101238095Y-51328628D01*
X101238095Y-51328628D02*
X101285714Y-51233390D01*
X42714819Y-49673333D02*
X43429104Y-49673333D01*
X43429104Y-49673333D02*
X43571961Y-49720952D01*
X43571961Y-49720952D02*
X43667200Y-49816190D01*
X43667200Y-49816190D02*
X43714819Y-49959047D01*
X43714819Y-49959047D02*
X43714819Y-50054285D01*
X42714819Y-49292380D02*
X42714819Y-48673333D01*
X42714819Y-48673333D02*
X43095771Y-49006666D01*
X43095771Y-49006666D02*
X43095771Y-48863809D01*
X43095771Y-48863809D02*
X43143390Y-48768571D01*
X43143390Y-48768571D02*
X43191009Y-48720952D01*
X43191009Y-48720952D02*
X43286247Y-48673333D01*
X43286247Y-48673333D02*
X43524342Y-48673333D01*
X43524342Y-48673333D02*
X43619580Y-48720952D01*
X43619580Y-48720952D02*
X43667200Y-48768571D01*
X43667200Y-48768571D02*
X43714819Y-48863809D01*
X43714819Y-48863809D02*
X43714819Y-49149523D01*
X43714819Y-49149523D02*
X43667200Y-49244761D01*
X43667200Y-49244761D02*
X43619580Y-49292380D01*
X99238095Y-85954819D02*
X99238095Y-86764342D01*
X99238095Y-86764342D02*
X99285714Y-86859580D01*
X99285714Y-86859580D02*
X99333333Y-86907200D01*
X99333333Y-86907200D02*
X99428571Y-86954819D01*
X99428571Y-86954819D02*
X99619047Y-86954819D01*
X99619047Y-86954819D02*
X99714285Y-86907200D01*
X99714285Y-86907200D02*
X99761904Y-86859580D01*
X99761904Y-86859580D02*
X99809523Y-86764342D01*
X99809523Y-86764342D02*
X99809523Y-85954819D01*
X100190476Y-85954819D02*
X100809523Y-85954819D01*
X100809523Y-85954819D02*
X100476190Y-86335771D01*
X100476190Y-86335771D02*
X100619047Y-86335771D01*
X100619047Y-86335771D02*
X100714285Y-86383390D01*
X100714285Y-86383390D02*
X100761904Y-86431009D01*
X100761904Y-86431009D02*
X100809523Y-86526247D01*
X100809523Y-86526247D02*
X100809523Y-86764342D01*
X100809523Y-86764342D02*
X100761904Y-86859580D01*
X100761904Y-86859580D02*
X100714285Y-86907200D01*
X100714285Y-86907200D02*
X100619047Y-86954819D01*
X100619047Y-86954819D02*
X100333333Y-86954819D01*
X100333333Y-86954819D02*
X100238095Y-86907200D01*
X100238095Y-86907200D02*
X100190476Y-86859580D01*
X96190000Y-80697019D02*
X96190000Y-80935114D01*
X95951905Y-80839876D02*
X96190000Y-80935114D01*
X96190000Y-80935114D02*
X96428095Y-80839876D01*
X96047143Y-81125590D02*
X96190000Y-80935114D01*
X96190000Y-80935114D02*
X96332857Y-81125590D01*
X96190000Y-80697019D02*
X96190000Y-80935114D01*
X95951905Y-80839876D02*
X96190000Y-80935114D01*
X96190000Y-80935114D02*
X96428095Y-80839876D01*
X96047143Y-81125590D02*
X96190000Y-80935114D01*
X96190000Y-80935114D02*
X96332857Y-81125590D01*
X99238095Y-98954819D02*
X99238095Y-99764342D01*
X99238095Y-99764342D02*
X99285714Y-99859580D01*
X99285714Y-99859580D02*
X99333333Y-99907200D01*
X99333333Y-99907200D02*
X99428571Y-99954819D01*
X99428571Y-99954819D02*
X99619047Y-99954819D01*
X99619047Y-99954819D02*
X99714285Y-99907200D01*
X99714285Y-99907200D02*
X99761904Y-99859580D01*
X99761904Y-99859580D02*
X99809523Y-99764342D01*
X99809523Y-99764342D02*
X99809523Y-98954819D01*
X100714285Y-99288152D02*
X100714285Y-99954819D01*
X100476190Y-98907200D02*
X100238095Y-99621485D01*
X100238095Y-99621485D02*
X100857142Y-99621485D01*
X96190000Y-93697019D02*
X96190000Y-93935114D01*
X95951905Y-93839876D02*
X96190000Y-93935114D01*
X96190000Y-93935114D02*
X96428095Y-93839876D01*
X96047143Y-94125590D02*
X96190000Y-93935114D01*
X96190000Y-93935114D02*
X96332857Y-94125590D01*
X96190000Y-93697019D02*
X96190000Y-93935114D01*
X95951905Y-93839876D02*
X96190000Y-93935114D01*
X96190000Y-93935114D02*
X96428095Y-93839876D01*
X96047143Y-94125590D02*
X96190000Y-93935114D01*
X96190000Y-93935114D02*
X96332857Y-94125590D01*
X70166667Y-80157200D02*
X70309524Y-80204819D01*
X70309524Y-80204819D02*
X70547619Y-80204819D01*
X70547619Y-80204819D02*
X70642857Y-80157200D01*
X70642857Y-80157200D02*
X70690476Y-80109580D01*
X70690476Y-80109580D02*
X70738095Y-80014342D01*
X70738095Y-80014342D02*
X70738095Y-79919104D01*
X70738095Y-79919104D02*
X70690476Y-79823866D01*
X70690476Y-79823866D02*
X70642857Y-79776247D01*
X70642857Y-79776247D02*
X70547619Y-79728628D01*
X70547619Y-79728628D02*
X70357143Y-79681009D01*
X70357143Y-79681009D02*
X70261905Y-79633390D01*
X70261905Y-79633390D02*
X70214286Y-79585771D01*
X70214286Y-79585771D02*
X70166667Y-79490533D01*
X70166667Y-79490533D02*
X70166667Y-79395295D01*
X70166667Y-79395295D02*
X70214286Y-79300057D01*
X70214286Y-79300057D02*
X70261905Y-79252438D01*
X70261905Y-79252438D02*
X70357143Y-79204819D01*
X70357143Y-79204819D02*
X70595238Y-79204819D01*
X70595238Y-79204819D02*
X70738095Y-79252438D01*
X71071429Y-79204819D02*
X71309524Y-80204819D01*
X71309524Y-80204819D02*
X71500000Y-79490533D01*
X71500000Y-79490533D02*
X71690476Y-80204819D01*
X71690476Y-80204819D02*
X71928572Y-79204819D01*
X72261905Y-79300057D02*
X72309524Y-79252438D01*
X72309524Y-79252438D02*
X72404762Y-79204819D01*
X72404762Y-79204819D02*
X72642857Y-79204819D01*
X72642857Y-79204819D02*
X72738095Y-79252438D01*
X72738095Y-79252438D02*
X72785714Y-79300057D01*
X72785714Y-79300057D02*
X72833333Y-79395295D01*
X72833333Y-79395295D02*
X72833333Y-79490533D01*
X72833333Y-79490533D02*
X72785714Y-79633390D01*
X72785714Y-79633390D02*
X72214286Y-80204819D01*
X72214286Y-80204819D02*
X72833333Y-80204819D01*
X57166667Y-80157200D02*
X57309524Y-80204819D01*
X57309524Y-80204819D02*
X57547619Y-80204819D01*
X57547619Y-80204819D02*
X57642857Y-80157200D01*
X57642857Y-80157200D02*
X57690476Y-80109580D01*
X57690476Y-80109580D02*
X57738095Y-80014342D01*
X57738095Y-80014342D02*
X57738095Y-79919104D01*
X57738095Y-79919104D02*
X57690476Y-79823866D01*
X57690476Y-79823866D02*
X57642857Y-79776247D01*
X57642857Y-79776247D02*
X57547619Y-79728628D01*
X57547619Y-79728628D02*
X57357143Y-79681009D01*
X57357143Y-79681009D02*
X57261905Y-79633390D01*
X57261905Y-79633390D02*
X57214286Y-79585771D01*
X57214286Y-79585771D02*
X57166667Y-79490533D01*
X57166667Y-79490533D02*
X57166667Y-79395295D01*
X57166667Y-79395295D02*
X57214286Y-79300057D01*
X57214286Y-79300057D02*
X57261905Y-79252438D01*
X57261905Y-79252438D02*
X57357143Y-79204819D01*
X57357143Y-79204819D02*
X57595238Y-79204819D01*
X57595238Y-79204819D02*
X57738095Y-79252438D01*
X58071429Y-79204819D02*
X58309524Y-80204819D01*
X58309524Y-80204819D02*
X58500000Y-79490533D01*
X58500000Y-79490533D02*
X58690476Y-80204819D01*
X58690476Y-80204819D02*
X58928572Y-79204819D01*
X59833333Y-80204819D02*
X59261905Y-80204819D01*
X59547619Y-80204819D02*
X59547619Y-79204819D01*
X59547619Y-79204819D02*
X59452381Y-79347676D01*
X59452381Y-79347676D02*
X59357143Y-79442914D01*
X59357143Y-79442914D02*
X59261905Y-79490533D01*
X64741666Y-116499819D02*
X64741666Y-117214104D01*
X64741666Y-117214104D02*
X64694047Y-117356961D01*
X64694047Y-117356961D02*
X64598809Y-117452200D01*
X64598809Y-117452200D02*
X64455952Y-117499819D01*
X64455952Y-117499819D02*
X64360714Y-117499819D01*
X65360714Y-116928390D02*
X65265476Y-116880771D01*
X65265476Y-116880771D02*
X65217857Y-116833152D01*
X65217857Y-116833152D02*
X65170238Y-116737914D01*
X65170238Y-116737914D02*
X65170238Y-116690295D01*
X65170238Y-116690295D02*
X65217857Y-116595057D01*
X65217857Y-116595057D02*
X65265476Y-116547438D01*
X65265476Y-116547438D02*
X65360714Y-116499819D01*
X65360714Y-116499819D02*
X65551190Y-116499819D01*
X65551190Y-116499819D02*
X65646428Y-116547438D01*
X65646428Y-116547438D02*
X65694047Y-116595057D01*
X65694047Y-116595057D02*
X65741666Y-116690295D01*
X65741666Y-116690295D02*
X65741666Y-116737914D01*
X65741666Y-116737914D02*
X65694047Y-116833152D01*
X65694047Y-116833152D02*
X65646428Y-116880771D01*
X65646428Y-116880771D02*
X65551190Y-116928390D01*
X65551190Y-116928390D02*
X65360714Y-116928390D01*
X65360714Y-116928390D02*
X65265476Y-116976009D01*
X65265476Y-116976009D02*
X65217857Y-117023628D01*
X65217857Y-117023628D02*
X65170238Y-117118866D01*
X65170238Y-117118866D02*
X65170238Y-117309342D01*
X65170238Y-117309342D02*
X65217857Y-117404580D01*
X65217857Y-117404580D02*
X65265476Y-117452200D01*
X65265476Y-117452200D02*
X65360714Y-117499819D01*
X65360714Y-117499819D02*
X65551190Y-117499819D01*
X65551190Y-117499819D02*
X65646428Y-117452200D01*
X65646428Y-117452200D02*
X65694047Y-117404580D01*
X65694047Y-117404580D02*
X65741666Y-117309342D01*
X65741666Y-117309342D02*
X65741666Y-117118866D01*
X65741666Y-117118866D02*
X65694047Y-117023628D01*
X65694047Y-117023628D02*
X65646428Y-116976009D01*
X65646428Y-116976009D02*
X65551190Y-116928390D01*
X78161666Y-116499819D02*
X78161666Y-117214104D01*
X78161666Y-117214104D02*
X78114047Y-117356961D01*
X78114047Y-117356961D02*
X78018809Y-117452200D01*
X78018809Y-117452200D02*
X77875952Y-117499819D01*
X77875952Y-117499819D02*
X77780714Y-117499819D01*
X79066428Y-116499819D02*
X78875952Y-116499819D01*
X78875952Y-116499819D02*
X78780714Y-116547438D01*
X78780714Y-116547438D02*
X78733095Y-116595057D01*
X78733095Y-116595057D02*
X78637857Y-116737914D01*
X78637857Y-116737914D02*
X78590238Y-116928390D01*
X78590238Y-116928390D02*
X78590238Y-117309342D01*
X78590238Y-117309342D02*
X78637857Y-117404580D01*
X78637857Y-117404580D02*
X78685476Y-117452200D01*
X78685476Y-117452200D02*
X78780714Y-117499819D01*
X78780714Y-117499819D02*
X78971190Y-117499819D01*
X78971190Y-117499819D02*
X79066428Y-117452200D01*
X79066428Y-117452200D02*
X79114047Y-117404580D01*
X79114047Y-117404580D02*
X79161666Y-117309342D01*
X79161666Y-117309342D02*
X79161666Y-117071247D01*
X79161666Y-117071247D02*
X79114047Y-116976009D01*
X79114047Y-116976009D02*
X79066428Y-116928390D01*
X79066428Y-116928390D02*
X78971190Y-116880771D01*
X78971190Y-116880771D02*
X78780714Y-116880771D01*
X78780714Y-116880771D02*
X78685476Y-116928390D01*
X78685476Y-116928390D02*
X78637857Y-116976009D01*
X78637857Y-116976009D02*
X78590238Y-117071247D01*
X91241666Y-116499819D02*
X91241666Y-117214104D01*
X91241666Y-117214104D02*
X91194047Y-117356961D01*
X91194047Y-117356961D02*
X91098809Y-117452200D01*
X91098809Y-117452200D02*
X90955952Y-117499819D01*
X90955952Y-117499819D02*
X90860714Y-117499819D01*
X92194047Y-116499819D02*
X91717857Y-116499819D01*
X91717857Y-116499819D02*
X91670238Y-116976009D01*
X91670238Y-116976009D02*
X91717857Y-116928390D01*
X91717857Y-116928390D02*
X91813095Y-116880771D01*
X91813095Y-116880771D02*
X92051190Y-116880771D01*
X92051190Y-116880771D02*
X92146428Y-116928390D01*
X92146428Y-116928390D02*
X92194047Y-116976009D01*
X92194047Y-116976009D02*
X92241666Y-117071247D01*
X92241666Y-117071247D02*
X92241666Y-117309342D01*
X92241666Y-117309342D02*
X92194047Y-117404580D01*
X92194047Y-117404580D02*
X92146428Y-117452200D01*
X92146428Y-117452200D02*
X92051190Y-117499819D01*
X92051190Y-117499819D02*
X91813095Y-117499819D01*
X91813095Y-117499819D02*
X91717857Y-117452200D01*
X91717857Y-117452200D02*
X91670238Y-117404580D01*
X110694819Y-83293333D02*
X111409104Y-83293333D01*
X111409104Y-83293333D02*
X111551961Y-83340952D01*
X111551961Y-83340952D02*
X111647200Y-83436190D01*
X111647200Y-83436190D02*
X111694819Y-83579047D01*
X111694819Y-83579047D02*
X111694819Y-83674285D01*
X111028152Y-82388571D02*
X111694819Y-82388571D01*
X110647200Y-82626666D02*
X111361485Y-82864761D01*
X111361485Y-82864761D02*
X111361485Y-82245714D01*
X42714819Y-77333333D02*
X43429104Y-77333333D01*
X43429104Y-77333333D02*
X43571961Y-77380952D01*
X43571961Y-77380952D02*
X43667200Y-77476190D01*
X43667200Y-77476190D02*
X43714819Y-77619047D01*
X43714819Y-77619047D02*
X43714819Y-77714285D01*
X43714819Y-76333333D02*
X43714819Y-76904761D01*
X43714819Y-76619047D02*
X42714819Y-76619047D01*
X42714819Y-76619047D02*
X42857676Y-76714285D01*
X42857676Y-76714285D02*
X42952914Y-76809523D01*
X42952914Y-76809523D02*
X43000533Y-76904761D01*
X110694819Y-71269523D02*
X111409104Y-71269523D01*
X111409104Y-71269523D02*
X111551961Y-71317142D01*
X111551961Y-71317142D02*
X111647200Y-71412380D01*
X111647200Y-71412380D02*
X111694819Y-71555237D01*
X111694819Y-71555237D02*
X111694819Y-71650475D01*
X111694819Y-70269523D02*
X111694819Y-70840951D01*
X111694819Y-70555237D02*
X110694819Y-70555237D01*
X110694819Y-70555237D02*
X110837676Y-70650475D01*
X110837676Y-70650475D02*
X110932914Y-70745713D01*
X110932914Y-70745713D02*
X110980533Y-70840951D01*
X111694819Y-69317142D02*
X111694819Y-69888570D01*
X111694819Y-69602856D02*
X110694819Y-69602856D01*
X110694819Y-69602856D02*
X110837676Y-69698094D01*
X110837676Y-69698094D02*
X110932914Y-69793332D01*
X110932914Y-69793332D02*
X110980533Y-69888570D01*
X49738095Y-34754819D02*
X49738095Y-33754819D01*
X49738095Y-34231009D02*
X50309523Y-34231009D01*
X50309523Y-34754819D02*
X50309523Y-33754819D01*
X51309523Y-34754819D02*
X50738095Y-34754819D01*
X51023809Y-34754819D02*
X51023809Y-33754819D01*
X51023809Y-33754819D02*
X50928571Y-33897676D01*
X50928571Y-33897676D02*
X50833333Y-33992914D01*
X50833333Y-33992914D02*
X50738095Y-34040533D01*
X108230476Y-116694819D02*
X108230476Y-117409104D01*
X108230476Y-117409104D02*
X108182857Y-117551961D01*
X108182857Y-117551961D02*
X108087619Y-117647200D01*
X108087619Y-117647200D02*
X107944762Y-117694819D01*
X107944762Y-117694819D02*
X107849524Y-117694819D01*
X108659048Y-116790057D02*
X108706667Y-116742438D01*
X108706667Y-116742438D02*
X108801905Y-116694819D01*
X108801905Y-116694819D02*
X109040000Y-116694819D01*
X109040000Y-116694819D02*
X109135238Y-116742438D01*
X109135238Y-116742438D02*
X109182857Y-116790057D01*
X109182857Y-116790057D02*
X109230476Y-116885295D01*
X109230476Y-116885295D02*
X109230476Y-116980533D01*
X109230476Y-116980533D02*
X109182857Y-117123390D01*
X109182857Y-117123390D02*
X108611429Y-117694819D01*
X108611429Y-117694819D02*
X109230476Y-117694819D01*
X110087619Y-117028152D02*
X110087619Y-117694819D01*
X109849524Y-116647200D02*
X109611429Y-117361485D01*
X109611429Y-117361485D02*
X110230476Y-117361485D01*
X63295833Y-39679580D02*
X63248214Y-39727200D01*
X63248214Y-39727200D02*
X63105357Y-39774819D01*
X63105357Y-39774819D02*
X63010119Y-39774819D01*
X63010119Y-39774819D02*
X62867262Y-39727200D01*
X62867262Y-39727200D02*
X62772024Y-39631961D01*
X62772024Y-39631961D02*
X62724405Y-39536723D01*
X62724405Y-39536723D02*
X62676786Y-39346247D01*
X62676786Y-39346247D02*
X62676786Y-39203390D01*
X62676786Y-39203390D02*
X62724405Y-39012914D01*
X62724405Y-39012914D02*
X62772024Y-38917676D01*
X62772024Y-38917676D02*
X62867262Y-38822438D01*
X62867262Y-38822438D02*
X63010119Y-38774819D01*
X63010119Y-38774819D02*
X63105357Y-38774819D01*
X63105357Y-38774819D02*
X63248214Y-38822438D01*
X63248214Y-38822438D02*
X63295833Y-38870057D01*
X63676786Y-38870057D02*
X63724405Y-38822438D01*
X63724405Y-38822438D02*
X63819643Y-38774819D01*
X63819643Y-38774819D02*
X64057738Y-38774819D01*
X64057738Y-38774819D02*
X64152976Y-38822438D01*
X64152976Y-38822438D02*
X64200595Y-38870057D01*
X64200595Y-38870057D02*
X64248214Y-38965295D01*
X64248214Y-38965295D02*
X64248214Y-39060533D01*
X64248214Y-39060533D02*
X64200595Y-39203390D01*
X64200595Y-39203390D02*
X63629167Y-39774819D01*
X63629167Y-39774819D02*
X64248214Y-39774819D01*
X72833333Y-82304819D02*
X72500000Y-81828628D01*
X72261905Y-82304819D02*
X72261905Y-81304819D01*
X72261905Y-81304819D02*
X72642857Y-81304819D01*
X72642857Y-81304819D02*
X72738095Y-81352438D01*
X72738095Y-81352438D02*
X72785714Y-81400057D01*
X72785714Y-81400057D02*
X72833333Y-81495295D01*
X72833333Y-81495295D02*
X72833333Y-81638152D01*
X72833333Y-81638152D02*
X72785714Y-81733390D01*
X72785714Y-81733390D02*
X72738095Y-81781009D01*
X72738095Y-81781009D02*
X72642857Y-81828628D01*
X72642857Y-81828628D02*
X72261905Y-81828628D01*
X73738095Y-81304819D02*
X73261905Y-81304819D01*
X73261905Y-81304819D02*
X73214286Y-81781009D01*
X73214286Y-81781009D02*
X73261905Y-81733390D01*
X73261905Y-81733390D02*
X73357143Y-81685771D01*
X73357143Y-81685771D02*
X73595238Y-81685771D01*
X73595238Y-81685771D02*
X73690476Y-81733390D01*
X73690476Y-81733390D02*
X73738095Y-81781009D01*
X73738095Y-81781009D02*
X73785714Y-81876247D01*
X73785714Y-81876247D02*
X73785714Y-82114342D01*
X73785714Y-82114342D02*
X73738095Y-82209580D01*
X73738095Y-82209580D02*
X73690476Y-82257200D01*
X73690476Y-82257200D02*
X73595238Y-82304819D01*
X73595238Y-82304819D02*
X73357143Y-82304819D01*
X73357143Y-82304819D02*
X73261905Y-82257200D01*
X73261905Y-82257200D02*
X73214286Y-82209580D01*
X67833333Y-82454819D02*
X67500000Y-81978628D01*
X67261905Y-82454819D02*
X67261905Y-81454819D01*
X67261905Y-81454819D02*
X67642857Y-81454819D01*
X67642857Y-81454819D02*
X67738095Y-81502438D01*
X67738095Y-81502438D02*
X67785714Y-81550057D01*
X67785714Y-81550057D02*
X67833333Y-81645295D01*
X67833333Y-81645295D02*
X67833333Y-81788152D01*
X67833333Y-81788152D02*
X67785714Y-81883390D01*
X67785714Y-81883390D02*
X67738095Y-81931009D01*
X67738095Y-81931009D02*
X67642857Y-81978628D01*
X67642857Y-81978628D02*
X67261905Y-81978628D01*
X68690476Y-81454819D02*
X68500000Y-81454819D01*
X68500000Y-81454819D02*
X68404762Y-81502438D01*
X68404762Y-81502438D02*
X68357143Y-81550057D01*
X68357143Y-81550057D02*
X68261905Y-81692914D01*
X68261905Y-81692914D02*
X68214286Y-81883390D01*
X68214286Y-81883390D02*
X68214286Y-82264342D01*
X68214286Y-82264342D02*
X68261905Y-82359580D01*
X68261905Y-82359580D02*
X68309524Y-82407200D01*
X68309524Y-82407200D02*
X68404762Y-82454819D01*
X68404762Y-82454819D02*
X68595238Y-82454819D01*
X68595238Y-82454819D02*
X68690476Y-82407200D01*
X68690476Y-82407200D02*
X68738095Y-82359580D01*
X68738095Y-82359580D02*
X68785714Y-82264342D01*
X68785714Y-82264342D02*
X68785714Y-82026247D01*
X68785714Y-82026247D02*
X68738095Y-81931009D01*
X68738095Y-81931009D02*
X68690476Y-81883390D01*
X68690476Y-81883390D02*
X68595238Y-81835771D01*
X68595238Y-81835771D02*
X68404762Y-81835771D01*
X68404762Y-81835771D02*
X68309524Y-81883390D01*
X68309524Y-81883390D02*
X68261905Y-81931009D01*
X68261905Y-81931009D02*
X68214286Y-82026247D01*
X73589485Y-91214781D02*
X73494247Y-91167162D01*
X73494247Y-91167162D02*
X73399009Y-91071924D01*
X73399009Y-91071924D02*
X73256152Y-90929066D01*
X73256152Y-90929066D02*
X73160914Y-90881447D01*
X73160914Y-90881447D02*
X73065676Y-90881447D01*
X73113295Y-91119543D02*
X73018057Y-91071924D01*
X73018057Y-91071924D02*
X72922819Y-90976685D01*
X72922819Y-90976685D02*
X72875200Y-90786209D01*
X72875200Y-90786209D02*
X72875200Y-90452876D01*
X72875200Y-90452876D02*
X72922819Y-90262400D01*
X72922819Y-90262400D02*
X73018057Y-90167162D01*
X73018057Y-90167162D02*
X73113295Y-90119543D01*
X73113295Y-90119543D02*
X73303771Y-90119543D01*
X73303771Y-90119543D02*
X73399009Y-90167162D01*
X73399009Y-90167162D02*
X73494247Y-90262400D01*
X73494247Y-90262400D02*
X73541866Y-90452876D01*
X73541866Y-90452876D02*
X73541866Y-90786209D01*
X73541866Y-90786209D02*
X73494247Y-90976685D01*
X73494247Y-90976685D02*
X73399009Y-91071924D01*
X73399009Y-91071924D02*
X73303771Y-91119543D01*
X73303771Y-91119543D02*
X73113295Y-91119543D01*
X74494247Y-91119543D02*
X73922819Y-91119543D01*
X74208533Y-91119543D02*
X74208533Y-90119543D01*
X74208533Y-90119543D02*
X74113295Y-90262400D01*
X74113295Y-90262400D02*
X74018057Y-90357638D01*
X74018057Y-90357638D02*
X73922819Y-90405257D01*
X122714819Y-103993333D02*
X123429104Y-103993333D01*
X123429104Y-103993333D02*
X123571961Y-104040952D01*
X123571961Y-104040952D02*
X123667200Y-104136190D01*
X123667200Y-104136190D02*
X123714819Y-104279047D01*
X123714819Y-104279047D02*
X123714819Y-104374285D01*
X122714819Y-103612380D02*
X122714819Y-102945714D01*
X122714819Y-102945714D02*
X123714819Y-103374285D01*
X104238095Y-46306819D02*
X104809523Y-46306819D01*
X104523809Y-47306819D02*
X104523809Y-46306819D01*
X105142857Y-47306819D02*
X105142857Y-46306819D01*
X105142857Y-46306819D02*
X105523809Y-46306819D01*
X105523809Y-46306819D02*
X105619047Y-46354438D01*
X105619047Y-46354438D02*
X105666666Y-46402057D01*
X105666666Y-46402057D02*
X105714285Y-46497295D01*
X105714285Y-46497295D02*
X105714285Y-46640152D01*
X105714285Y-46640152D02*
X105666666Y-46735390D01*
X105666666Y-46735390D02*
X105619047Y-46783009D01*
X105619047Y-46783009D02*
X105523809Y-46830628D01*
X105523809Y-46830628D02*
X105142857Y-46830628D01*
X106571428Y-46640152D02*
X106571428Y-47306819D01*
X106333333Y-46259200D02*
X106095238Y-46973485D01*
X106095238Y-46973485D02*
X106714285Y-46973485D01*
X61833333Y-83804819D02*
X61500000Y-83328628D01*
X61261905Y-83804819D02*
X61261905Y-82804819D01*
X61261905Y-82804819D02*
X61642857Y-82804819D01*
X61642857Y-82804819D02*
X61738095Y-82852438D01*
X61738095Y-82852438D02*
X61785714Y-82900057D01*
X61785714Y-82900057D02*
X61833333Y-82995295D01*
X61833333Y-82995295D02*
X61833333Y-83138152D01*
X61833333Y-83138152D02*
X61785714Y-83233390D01*
X61785714Y-83233390D02*
X61738095Y-83281009D01*
X61738095Y-83281009D02*
X61642857Y-83328628D01*
X61642857Y-83328628D02*
X61261905Y-83328628D01*
X62690476Y-83138152D02*
X62690476Y-83804819D01*
X62452381Y-82757200D02*
X62214286Y-83471485D01*
X62214286Y-83471485D02*
X62833333Y-83471485D01*
X49738095Y-107254819D02*
X49738095Y-106254819D01*
X49738095Y-106731009D02*
X50309523Y-106731009D01*
X50309523Y-107254819D02*
X50309523Y-106254819D01*
X50690476Y-106254819D02*
X51309523Y-106254819D01*
X51309523Y-106254819D02*
X50976190Y-106635771D01*
X50976190Y-106635771D02*
X51119047Y-106635771D01*
X51119047Y-106635771D02*
X51214285Y-106683390D01*
X51214285Y-106683390D02*
X51261904Y-106731009D01*
X51261904Y-106731009D02*
X51309523Y-106826247D01*
X51309523Y-106826247D02*
X51309523Y-107064342D01*
X51309523Y-107064342D02*
X51261904Y-107159580D01*
X51261904Y-107159580D02*
X51214285Y-107207200D01*
X51214285Y-107207200D02*
X51119047Y-107254819D01*
X51119047Y-107254819D02*
X50833333Y-107254819D01*
X50833333Y-107254819D02*
X50738095Y-107207200D01*
X50738095Y-107207200D02*
X50690476Y-107159580D01*
X55891666Y-82679819D02*
X55891666Y-83394104D01*
X55891666Y-83394104D02*
X55844047Y-83536961D01*
X55844047Y-83536961D02*
X55748809Y-83632200D01*
X55748809Y-83632200D02*
X55605952Y-83679819D01*
X55605952Y-83679819D02*
X55510714Y-83679819D01*
X56367857Y-83679819D02*
X56367857Y-82679819D01*
X56367857Y-82679819D02*
X56748809Y-82679819D01*
X56748809Y-82679819D02*
X56844047Y-82727438D01*
X56844047Y-82727438D02*
X56891666Y-82775057D01*
X56891666Y-82775057D02*
X56939285Y-82870295D01*
X56939285Y-82870295D02*
X56939285Y-83013152D01*
X56939285Y-83013152D02*
X56891666Y-83108390D01*
X56891666Y-83108390D02*
X56844047Y-83156009D01*
X56844047Y-83156009D02*
X56748809Y-83203628D01*
X56748809Y-83203628D02*
X56367857Y-83203628D01*
X57891666Y-83679819D02*
X57320238Y-83679819D01*
X57605952Y-83679819D02*
X57605952Y-82679819D01*
X57605952Y-82679819D02*
X57510714Y-82822676D01*
X57510714Y-82822676D02*
X57415476Y-82917914D01*
X57415476Y-82917914D02*
X57320238Y-82965533D01*
X95857142Y-77754819D02*
X95523809Y-77278628D01*
X95285714Y-77754819D02*
X95285714Y-76754819D01*
X95285714Y-76754819D02*
X95666666Y-76754819D01*
X95666666Y-76754819D02*
X95761904Y-76802438D01*
X95761904Y-76802438D02*
X95809523Y-76850057D01*
X95809523Y-76850057D02*
X95857142Y-76945295D01*
X95857142Y-76945295D02*
X95857142Y-77088152D01*
X95857142Y-77088152D02*
X95809523Y-77183390D01*
X95809523Y-77183390D02*
X95761904Y-77231009D01*
X95761904Y-77231009D02*
X95666666Y-77278628D01*
X95666666Y-77278628D02*
X95285714Y-77278628D01*
X96238095Y-76850057D02*
X96285714Y-76802438D01*
X96285714Y-76802438D02*
X96380952Y-76754819D01*
X96380952Y-76754819D02*
X96619047Y-76754819D01*
X96619047Y-76754819D02*
X96714285Y-76802438D01*
X96714285Y-76802438D02*
X96761904Y-76850057D01*
X96761904Y-76850057D02*
X96809523Y-76945295D01*
X96809523Y-76945295D02*
X96809523Y-77040533D01*
X96809523Y-77040533D02*
X96761904Y-77183390D01*
X96761904Y-77183390D02*
X96190476Y-77754819D01*
X96190476Y-77754819D02*
X96809523Y-77754819D01*
X97142857Y-76754819D02*
X97809523Y-76754819D01*
X97809523Y-76754819D02*
X97380952Y-77754819D01*
X54833333Y-67304819D02*
X54500000Y-66828628D01*
X54261905Y-67304819D02*
X54261905Y-66304819D01*
X54261905Y-66304819D02*
X54642857Y-66304819D01*
X54642857Y-66304819D02*
X54738095Y-66352438D01*
X54738095Y-66352438D02*
X54785714Y-66400057D01*
X54785714Y-66400057D02*
X54833333Y-66495295D01*
X54833333Y-66495295D02*
X54833333Y-66638152D01*
X54833333Y-66638152D02*
X54785714Y-66733390D01*
X54785714Y-66733390D02*
X54738095Y-66781009D01*
X54738095Y-66781009D02*
X54642857Y-66828628D01*
X54642857Y-66828628D02*
X54261905Y-66828628D01*
X55785714Y-67304819D02*
X55214286Y-67304819D01*
X55500000Y-67304819D02*
X55500000Y-66304819D01*
X55500000Y-66304819D02*
X55404762Y-66447676D01*
X55404762Y-66447676D02*
X55309524Y-66542914D01*
X55309524Y-66542914D02*
X55214286Y-66590533D01*
X44350476Y-116694819D02*
X44350476Y-117409104D01*
X44350476Y-117409104D02*
X44302857Y-117551961D01*
X44302857Y-117551961D02*
X44207619Y-117647200D01*
X44207619Y-117647200D02*
X44064762Y-117694819D01*
X44064762Y-117694819D02*
X43969524Y-117694819D01*
X45350476Y-117694819D02*
X44779048Y-117694819D01*
X45064762Y-117694819D02*
X45064762Y-116694819D01*
X45064762Y-116694819D02*
X44969524Y-116837676D01*
X44969524Y-116837676D02*
X44874286Y-116932914D01*
X44874286Y-116932914D02*
X44779048Y-116980533D01*
X45731429Y-116790057D02*
X45779048Y-116742438D01*
X45779048Y-116742438D02*
X45874286Y-116694819D01*
X45874286Y-116694819D02*
X46112381Y-116694819D01*
X46112381Y-116694819D02*
X46207619Y-116742438D01*
X46207619Y-116742438D02*
X46255238Y-116790057D01*
X46255238Y-116790057D02*
X46302857Y-116885295D01*
X46302857Y-116885295D02*
X46302857Y-116980533D01*
X46302857Y-116980533D02*
X46255238Y-117123390D01*
X46255238Y-117123390D02*
X45683810Y-117694819D01*
X45683810Y-117694819D02*
X46302857Y-117694819D01*
X108281905Y-60754819D02*
X108281905Y-59754819D01*
X108281905Y-59754819D02*
X108520000Y-59754819D01*
X108520000Y-59754819D02*
X108662857Y-59802438D01*
X108662857Y-59802438D02*
X108758095Y-59897676D01*
X108758095Y-59897676D02*
X108805714Y-59992914D01*
X108805714Y-59992914D02*
X108853333Y-60183390D01*
X108853333Y-60183390D02*
X108853333Y-60326247D01*
X108853333Y-60326247D02*
X108805714Y-60516723D01*
X108805714Y-60516723D02*
X108758095Y-60611961D01*
X108758095Y-60611961D02*
X108662857Y-60707200D01*
X108662857Y-60707200D02*
X108520000Y-60754819D01*
X108520000Y-60754819D02*
X108281905Y-60754819D01*
X109710476Y-60088152D02*
X109710476Y-60754819D01*
X109472381Y-59707200D02*
X109234286Y-60421485D01*
X109234286Y-60421485D02*
X109853333Y-60421485D01*
X107357142Y-73804819D02*
X107023809Y-73328628D01*
X106785714Y-73804819D02*
X106785714Y-72804819D01*
X106785714Y-72804819D02*
X107166666Y-72804819D01*
X107166666Y-72804819D02*
X107261904Y-72852438D01*
X107261904Y-72852438D02*
X107309523Y-72900057D01*
X107309523Y-72900057D02*
X107357142Y-72995295D01*
X107357142Y-72995295D02*
X107357142Y-73138152D01*
X107357142Y-73138152D02*
X107309523Y-73233390D01*
X107309523Y-73233390D02*
X107261904Y-73281009D01*
X107261904Y-73281009D02*
X107166666Y-73328628D01*
X107166666Y-73328628D02*
X106785714Y-73328628D01*
X107738095Y-72900057D02*
X107785714Y-72852438D01*
X107785714Y-72852438D02*
X107880952Y-72804819D01*
X107880952Y-72804819D02*
X108119047Y-72804819D01*
X108119047Y-72804819D02*
X108214285Y-72852438D01*
X108214285Y-72852438D02*
X108261904Y-72900057D01*
X108261904Y-72900057D02*
X108309523Y-72995295D01*
X108309523Y-72995295D02*
X108309523Y-73090533D01*
X108309523Y-73090533D02*
X108261904Y-73233390D01*
X108261904Y-73233390D02*
X107690476Y-73804819D01*
X107690476Y-73804819D02*
X108309523Y-73804819D01*
X109261904Y-73804819D02*
X108690476Y-73804819D01*
X108976190Y-73804819D02*
X108976190Y-72804819D01*
X108976190Y-72804819D02*
X108880952Y-72947676D01*
X108880952Y-72947676D02*
X108785714Y-73042914D01*
X108785714Y-73042914D02*
X108690476Y-73090533D01*
X69854819Y-54801904D02*
X70664342Y-54801904D01*
X70664342Y-54801904D02*
X70759580Y-54754285D01*
X70759580Y-54754285D02*
X70807200Y-54706666D01*
X70807200Y-54706666D02*
X70854819Y-54611428D01*
X70854819Y-54611428D02*
X70854819Y-54420952D01*
X70854819Y-54420952D02*
X70807200Y-54325714D01*
X70807200Y-54325714D02*
X70759580Y-54278095D01*
X70759580Y-54278095D02*
X70664342Y-54230476D01*
X70664342Y-54230476D02*
X69854819Y-54230476D01*
X70854819Y-53230476D02*
X70854819Y-53801904D01*
X70854819Y-53516190D02*
X69854819Y-53516190D01*
X69854819Y-53516190D02*
X69997676Y-53611428D01*
X69997676Y-53611428D02*
X70092914Y-53706666D01*
X70092914Y-53706666D02*
X70140533Y-53801904D01*
X55420833Y-87804819D02*
X55087500Y-87328628D01*
X54849405Y-87804819D02*
X54849405Y-86804819D01*
X54849405Y-86804819D02*
X55230357Y-86804819D01*
X55230357Y-86804819D02*
X55325595Y-86852438D01*
X55325595Y-86852438D02*
X55373214Y-86900057D01*
X55373214Y-86900057D02*
X55420833Y-86995295D01*
X55420833Y-86995295D02*
X55420833Y-87138152D01*
X55420833Y-87138152D02*
X55373214Y-87233390D01*
X55373214Y-87233390D02*
X55325595Y-87281009D01*
X55325595Y-87281009D02*
X55230357Y-87328628D01*
X55230357Y-87328628D02*
X54849405Y-87328628D01*
X55754167Y-86804819D02*
X56373214Y-86804819D01*
X56373214Y-86804819D02*
X56039881Y-87185771D01*
X56039881Y-87185771D02*
X56182738Y-87185771D01*
X56182738Y-87185771D02*
X56277976Y-87233390D01*
X56277976Y-87233390D02*
X56325595Y-87281009D01*
X56325595Y-87281009D02*
X56373214Y-87376247D01*
X56373214Y-87376247D02*
X56373214Y-87614342D01*
X56373214Y-87614342D02*
X56325595Y-87709580D01*
X56325595Y-87709580D02*
X56277976Y-87757200D01*
X56277976Y-87757200D02*
X56182738Y-87804819D01*
X56182738Y-87804819D02*
X55897024Y-87804819D01*
X55897024Y-87804819D02*
X55801786Y-87757200D01*
X55801786Y-87757200D02*
X55754167Y-87709580D01*
X67833333Y-86304819D02*
X67500000Y-85828628D01*
X67261905Y-86304819D02*
X67261905Y-85304819D01*
X67261905Y-85304819D02*
X67642857Y-85304819D01*
X67642857Y-85304819D02*
X67738095Y-85352438D01*
X67738095Y-85352438D02*
X67785714Y-85400057D01*
X67785714Y-85400057D02*
X67833333Y-85495295D01*
X67833333Y-85495295D02*
X67833333Y-85638152D01*
X67833333Y-85638152D02*
X67785714Y-85733390D01*
X67785714Y-85733390D02*
X67738095Y-85781009D01*
X67738095Y-85781009D02*
X67642857Y-85828628D01*
X67642857Y-85828628D02*
X67261905Y-85828628D01*
X68166667Y-85304819D02*
X68833333Y-85304819D01*
X68833333Y-85304819D02*
X68404762Y-86304819D01*
X79319642Y-74039580D02*
X79272023Y-74087200D01*
X79272023Y-74087200D02*
X79129166Y-74134819D01*
X79129166Y-74134819D02*
X79033928Y-74134819D01*
X79033928Y-74134819D02*
X78891071Y-74087200D01*
X78891071Y-74087200D02*
X78795833Y-73991961D01*
X78795833Y-73991961D02*
X78748214Y-73896723D01*
X78748214Y-73896723D02*
X78700595Y-73706247D01*
X78700595Y-73706247D02*
X78700595Y-73563390D01*
X78700595Y-73563390D02*
X78748214Y-73372914D01*
X78748214Y-73372914D02*
X78795833Y-73277676D01*
X78795833Y-73277676D02*
X78891071Y-73182438D01*
X78891071Y-73182438D02*
X79033928Y-73134819D01*
X79033928Y-73134819D02*
X79129166Y-73134819D01*
X79129166Y-73134819D02*
X79272023Y-73182438D01*
X79272023Y-73182438D02*
X79319642Y-73230057D01*
X80272023Y-74134819D02*
X79700595Y-74134819D01*
X79986309Y-74134819D02*
X79986309Y-73134819D01*
X79986309Y-73134819D02*
X79891071Y-73277676D01*
X79891071Y-73277676D02*
X79795833Y-73372914D01*
X79795833Y-73372914D02*
X79700595Y-73420533D01*
X81129166Y-73134819D02*
X80938690Y-73134819D01*
X80938690Y-73134819D02*
X80843452Y-73182438D01*
X80843452Y-73182438D02*
X80795833Y-73230057D01*
X80795833Y-73230057D02*
X80700595Y-73372914D01*
X80700595Y-73372914D02*
X80652976Y-73563390D01*
X80652976Y-73563390D02*
X80652976Y-73944342D01*
X80652976Y-73944342D02*
X80700595Y-74039580D01*
X80700595Y-74039580D02*
X80748214Y-74087200D01*
X80748214Y-74087200D02*
X80843452Y-74134819D01*
X80843452Y-74134819D02*
X81033928Y-74134819D01*
X81033928Y-74134819D02*
X81129166Y-74087200D01*
X81129166Y-74087200D02*
X81176785Y-74039580D01*
X81176785Y-74039580D02*
X81224404Y-73944342D01*
X81224404Y-73944342D02*
X81224404Y-73706247D01*
X81224404Y-73706247D02*
X81176785Y-73611009D01*
X81176785Y-73611009D02*
X81129166Y-73563390D01*
X81129166Y-73563390D02*
X81033928Y-73515771D01*
X81033928Y-73515771D02*
X80843452Y-73515771D01*
X80843452Y-73515771D02*
X80748214Y-73563390D01*
X80748214Y-73563390D02*
X80700595Y-73611009D01*
X80700595Y-73611009D02*
X80652976Y-73706247D01*
X71870833Y-66679580D02*
X71823214Y-66727200D01*
X71823214Y-66727200D02*
X71680357Y-66774819D01*
X71680357Y-66774819D02*
X71585119Y-66774819D01*
X71585119Y-66774819D02*
X71442262Y-66727200D01*
X71442262Y-66727200D02*
X71347024Y-66631961D01*
X71347024Y-66631961D02*
X71299405Y-66536723D01*
X71299405Y-66536723D02*
X71251786Y-66346247D01*
X71251786Y-66346247D02*
X71251786Y-66203390D01*
X71251786Y-66203390D02*
X71299405Y-66012914D01*
X71299405Y-66012914D02*
X71347024Y-65917676D01*
X71347024Y-65917676D02*
X71442262Y-65822438D01*
X71442262Y-65822438D02*
X71585119Y-65774819D01*
X71585119Y-65774819D02*
X71680357Y-65774819D01*
X71680357Y-65774819D02*
X71823214Y-65822438D01*
X71823214Y-65822438D02*
X71870833Y-65870057D01*
X72727976Y-66108152D02*
X72727976Y-66774819D01*
X72489881Y-65727200D02*
X72251786Y-66441485D01*
X72251786Y-66441485D02*
X72870833Y-66441485D01*
X84738095Y-91954819D02*
X85309523Y-91954819D01*
X85023809Y-92954819D02*
X85023809Y-91954819D01*
X85642857Y-92954819D02*
X85642857Y-91954819D01*
X85642857Y-91954819D02*
X86023809Y-91954819D01*
X86023809Y-91954819D02*
X86119047Y-92002438D01*
X86119047Y-92002438D02*
X86166666Y-92050057D01*
X86166666Y-92050057D02*
X86214285Y-92145295D01*
X86214285Y-92145295D02*
X86214285Y-92288152D01*
X86214285Y-92288152D02*
X86166666Y-92383390D01*
X86166666Y-92383390D02*
X86119047Y-92431009D01*
X86119047Y-92431009D02*
X86023809Y-92478628D01*
X86023809Y-92478628D02*
X85642857Y-92478628D01*
X87119047Y-91954819D02*
X86642857Y-91954819D01*
X86642857Y-91954819D02*
X86595238Y-92431009D01*
X86595238Y-92431009D02*
X86642857Y-92383390D01*
X86642857Y-92383390D02*
X86738095Y-92335771D01*
X86738095Y-92335771D02*
X86976190Y-92335771D01*
X86976190Y-92335771D02*
X87071428Y-92383390D01*
X87071428Y-92383390D02*
X87119047Y-92431009D01*
X87119047Y-92431009D02*
X87166666Y-92526247D01*
X87166666Y-92526247D02*
X87166666Y-92764342D01*
X87166666Y-92764342D02*
X87119047Y-92859580D01*
X87119047Y-92859580D02*
X87071428Y-92907200D01*
X87071428Y-92907200D02*
X86976190Y-92954819D01*
X86976190Y-92954819D02*
X86738095Y-92954819D01*
X86738095Y-92954819D02*
X86642857Y-92907200D01*
X86642857Y-92907200D02*
X86595238Y-92859580D01*
X79319642Y-65679580D02*
X79272023Y-65727200D01*
X79272023Y-65727200D02*
X79129166Y-65774819D01*
X79129166Y-65774819D02*
X79033928Y-65774819D01*
X79033928Y-65774819D02*
X78891071Y-65727200D01*
X78891071Y-65727200D02*
X78795833Y-65631961D01*
X78795833Y-65631961D02*
X78748214Y-65536723D01*
X78748214Y-65536723D02*
X78700595Y-65346247D01*
X78700595Y-65346247D02*
X78700595Y-65203390D01*
X78700595Y-65203390D02*
X78748214Y-65012914D01*
X78748214Y-65012914D02*
X78795833Y-64917676D01*
X78795833Y-64917676D02*
X78891071Y-64822438D01*
X78891071Y-64822438D02*
X79033928Y-64774819D01*
X79033928Y-64774819D02*
X79129166Y-64774819D01*
X79129166Y-64774819D02*
X79272023Y-64822438D01*
X79272023Y-64822438D02*
X79319642Y-64870057D01*
X80272023Y-65774819D02*
X79700595Y-65774819D01*
X79986309Y-65774819D02*
X79986309Y-64774819D01*
X79986309Y-64774819D02*
X79891071Y-64917676D01*
X79891071Y-64917676D02*
X79795833Y-65012914D01*
X79795833Y-65012914D02*
X79700595Y-65060533D01*
X80605357Y-64774819D02*
X81272023Y-64774819D01*
X81272023Y-64774819D02*
X80843452Y-65774819D01*
X87238095Y-62454819D02*
X87238095Y-63264342D01*
X87238095Y-63264342D02*
X87285714Y-63359580D01*
X87285714Y-63359580D02*
X87333333Y-63407200D01*
X87333333Y-63407200D02*
X87428571Y-63454819D01*
X87428571Y-63454819D02*
X87619047Y-63454819D01*
X87619047Y-63454819D02*
X87714285Y-63407200D01*
X87714285Y-63407200D02*
X87761904Y-63359580D01*
X87761904Y-63359580D02*
X87809523Y-63264342D01*
X87809523Y-63264342D02*
X87809523Y-62454819D01*
X88714285Y-62454819D02*
X88523809Y-62454819D01*
X88523809Y-62454819D02*
X88428571Y-62502438D01*
X88428571Y-62502438D02*
X88380952Y-62550057D01*
X88380952Y-62550057D02*
X88285714Y-62692914D01*
X88285714Y-62692914D02*
X88238095Y-62883390D01*
X88238095Y-62883390D02*
X88238095Y-63264342D01*
X88238095Y-63264342D02*
X88285714Y-63359580D01*
X88285714Y-63359580D02*
X88333333Y-63407200D01*
X88333333Y-63407200D02*
X88428571Y-63454819D01*
X88428571Y-63454819D02*
X88619047Y-63454819D01*
X88619047Y-63454819D02*
X88714285Y-63407200D01*
X88714285Y-63407200D02*
X88761904Y-63359580D01*
X88761904Y-63359580D02*
X88809523Y-63264342D01*
X88809523Y-63264342D02*
X88809523Y-63026247D01*
X88809523Y-63026247D02*
X88761904Y-62931009D01*
X88761904Y-62931009D02*
X88714285Y-62883390D01*
X88714285Y-62883390D02*
X88619047Y-62835771D01*
X88619047Y-62835771D02*
X88428571Y-62835771D01*
X88428571Y-62835771D02*
X88333333Y-62883390D01*
X88333333Y-62883390D02*
X88285714Y-62931009D01*
X88285714Y-62931009D02*
X88238095Y-63026247D01*
X85510800Y-61254819D02*
X85510800Y-61492914D01*
X85272705Y-61397676D02*
X85510800Y-61492914D01*
X85510800Y-61492914D02*
X85748895Y-61397676D01*
X85367943Y-61683390D02*
X85510800Y-61492914D01*
X85510800Y-61492914D02*
X85653657Y-61683390D01*
X85510800Y-61254819D02*
X85510800Y-61492914D01*
X85272705Y-61397676D02*
X85510800Y-61492914D01*
X85510800Y-61492914D02*
X85748895Y-61397676D01*
X85367943Y-61683390D02*
X85510800Y-61492914D01*
X85510800Y-61492914D02*
X85653657Y-61683390D01*
X105588095Y-59904819D02*
X105588095Y-60714342D01*
X105588095Y-60714342D02*
X105635714Y-60809580D01*
X105635714Y-60809580D02*
X105683333Y-60857200D01*
X105683333Y-60857200D02*
X105778571Y-60904819D01*
X105778571Y-60904819D02*
X105969047Y-60904819D01*
X105969047Y-60904819D02*
X106064285Y-60857200D01*
X106064285Y-60857200D02*
X106111904Y-60809580D01*
X106111904Y-60809580D02*
X106159523Y-60714342D01*
X106159523Y-60714342D02*
X106159523Y-59904819D01*
X106588095Y-60000057D02*
X106635714Y-59952438D01*
X106635714Y-59952438D02*
X106730952Y-59904819D01*
X106730952Y-59904819D02*
X106969047Y-59904819D01*
X106969047Y-59904819D02*
X107064285Y-59952438D01*
X107064285Y-59952438D02*
X107111904Y-60000057D01*
X107111904Y-60000057D02*
X107159523Y-60095295D01*
X107159523Y-60095295D02*
X107159523Y-60190533D01*
X107159523Y-60190533D02*
X107111904Y-60333390D01*
X107111904Y-60333390D02*
X106540476Y-60904819D01*
X106540476Y-60904819D02*
X107159523Y-60904819D01*
X90238095Y-75806819D02*
X90809523Y-75806819D01*
X90523809Y-76806819D02*
X90523809Y-75806819D01*
X91142857Y-76806819D02*
X91142857Y-75806819D01*
X91142857Y-75806819D02*
X91523809Y-75806819D01*
X91523809Y-75806819D02*
X91619047Y-75854438D01*
X91619047Y-75854438D02*
X91666666Y-75902057D01*
X91666666Y-75902057D02*
X91714285Y-75997295D01*
X91714285Y-75997295D02*
X91714285Y-76140152D01*
X91714285Y-76140152D02*
X91666666Y-76235390D01*
X91666666Y-76235390D02*
X91619047Y-76283009D01*
X91619047Y-76283009D02*
X91523809Y-76330628D01*
X91523809Y-76330628D02*
X91142857Y-76330628D01*
X92666666Y-76806819D02*
X92095238Y-76806819D01*
X92380952Y-76806819D02*
X92380952Y-75806819D01*
X92380952Y-75806819D02*
X92285714Y-75949676D01*
X92285714Y-75949676D02*
X92190476Y-76044914D01*
X92190476Y-76044914D02*
X92095238Y-76092533D01*
X101539580Y-56704166D02*
X101587200Y-56751785D01*
X101587200Y-56751785D02*
X101634819Y-56894642D01*
X101634819Y-56894642D02*
X101634819Y-56989880D01*
X101634819Y-56989880D02*
X101587200Y-57132737D01*
X101587200Y-57132737D02*
X101491961Y-57227975D01*
X101491961Y-57227975D02*
X101396723Y-57275594D01*
X101396723Y-57275594D02*
X101206247Y-57323213D01*
X101206247Y-57323213D02*
X101063390Y-57323213D01*
X101063390Y-57323213D02*
X100872914Y-57275594D01*
X100872914Y-57275594D02*
X100777676Y-57227975D01*
X100777676Y-57227975D02*
X100682438Y-57132737D01*
X100682438Y-57132737D02*
X100634819Y-56989880D01*
X100634819Y-56989880D02*
X100634819Y-56894642D01*
X100634819Y-56894642D02*
X100682438Y-56751785D01*
X100682438Y-56751785D02*
X100730057Y-56704166D01*
X100634819Y-55847023D02*
X100634819Y-56037499D01*
X100634819Y-56037499D02*
X100682438Y-56132737D01*
X100682438Y-56132737D02*
X100730057Y-56180356D01*
X100730057Y-56180356D02*
X100872914Y-56275594D01*
X100872914Y-56275594D02*
X101063390Y-56323213D01*
X101063390Y-56323213D02*
X101444342Y-56323213D01*
X101444342Y-56323213D02*
X101539580Y-56275594D01*
X101539580Y-56275594D02*
X101587200Y-56227975D01*
X101587200Y-56227975D02*
X101634819Y-56132737D01*
X101634819Y-56132737D02*
X101634819Y-55942261D01*
X101634819Y-55942261D02*
X101587200Y-55847023D01*
X101587200Y-55847023D02*
X101539580Y-55799404D01*
X101539580Y-55799404D02*
X101444342Y-55751785D01*
X101444342Y-55751785D02*
X101206247Y-55751785D01*
X101206247Y-55751785D02*
X101111009Y-55799404D01*
X101111009Y-55799404D02*
X101063390Y-55847023D01*
X101063390Y-55847023D02*
X101015771Y-55942261D01*
X101015771Y-55942261D02*
X101015771Y-56132737D01*
X101015771Y-56132737D02*
X101063390Y-56227975D01*
X101063390Y-56227975D02*
X101111009Y-56275594D01*
X101111009Y-56275594D02*
X101206247Y-56323213D01*
X103357142Y-77304819D02*
X103023809Y-76828628D01*
X102785714Y-77304819D02*
X102785714Y-76304819D01*
X102785714Y-76304819D02*
X103166666Y-76304819D01*
X103166666Y-76304819D02*
X103261904Y-76352438D01*
X103261904Y-76352438D02*
X103309523Y-76400057D01*
X103309523Y-76400057D02*
X103357142Y-76495295D01*
X103357142Y-76495295D02*
X103357142Y-76638152D01*
X103357142Y-76638152D02*
X103309523Y-76733390D01*
X103309523Y-76733390D02*
X103261904Y-76781009D01*
X103261904Y-76781009D02*
X103166666Y-76828628D01*
X103166666Y-76828628D02*
X102785714Y-76828628D01*
X103738095Y-76400057D02*
X103785714Y-76352438D01*
X103785714Y-76352438D02*
X103880952Y-76304819D01*
X103880952Y-76304819D02*
X104119047Y-76304819D01*
X104119047Y-76304819D02*
X104214285Y-76352438D01*
X104214285Y-76352438D02*
X104261904Y-76400057D01*
X104261904Y-76400057D02*
X104309523Y-76495295D01*
X104309523Y-76495295D02*
X104309523Y-76590533D01*
X104309523Y-76590533D02*
X104261904Y-76733390D01*
X104261904Y-76733390D02*
X103690476Y-77304819D01*
X103690476Y-77304819D02*
X104309523Y-77304819D01*
X105166666Y-76638152D02*
X105166666Y-77304819D01*
X104928571Y-76257200D02*
X104690476Y-76971485D01*
X104690476Y-76971485D02*
X105309523Y-76971485D01*
X56238095Y-55806819D02*
X56809523Y-55806819D01*
X56523809Y-56806819D02*
X56523809Y-55806819D01*
X57142857Y-56806819D02*
X57142857Y-55806819D01*
X57142857Y-55806819D02*
X57523809Y-55806819D01*
X57523809Y-55806819D02*
X57619047Y-55854438D01*
X57619047Y-55854438D02*
X57666666Y-55902057D01*
X57666666Y-55902057D02*
X57714285Y-55997295D01*
X57714285Y-55997295D02*
X57714285Y-56140152D01*
X57714285Y-56140152D02*
X57666666Y-56235390D01*
X57666666Y-56235390D02*
X57619047Y-56283009D01*
X57619047Y-56283009D02*
X57523809Y-56330628D01*
X57523809Y-56330628D02*
X57142857Y-56330628D01*
X58571428Y-55806819D02*
X58380952Y-55806819D01*
X58380952Y-55806819D02*
X58285714Y-55854438D01*
X58285714Y-55854438D02*
X58238095Y-55902057D01*
X58238095Y-55902057D02*
X58142857Y-56044914D01*
X58142857Y-56044914D02*
X58095238Y-56235390D01*
X58095238Y-56235390D02*
X58095238Y-56616342D01*
X58095238Y-56616342D02*
X58142857Y-56711580D01*
X58142857Y-56711580D02*
X58190476Y-56759200D01*
X58190476Y-56759200D02*
X58285714Y-56806819D01*
X58285714Y-56806819D02*
X58476190Y-56806819D01*
X58476190Y-56806819D02*
X58571428Y-56759200D01*
X58571428Y-56759200D02*
X58619047Y-56711580D01*
X58619047Y-56711580D02*
X58666666Y-56616342D01*
X58666666Y-56616342D02*
X58666666Y-56378247D01*
X58666666Y-56378247D02*
X58619047Y-56283009D01*
X58619047Y-56283009D02*
X58571428Y-56235390D01*
X58571428Y-56235390D02*
X58476190Y-56187771D01*
X58476190Y-56187771D02*
X58285714Y-56187771D01*
X58285714Y-56187771D02*
X58190476Y-56235390D01*
X58190476Y-56235390D02*
X58142857Y-56283009D01*
X58142857Y-56283009D02*
X58095238Y-56378247D01*
X72833333Y-86304819D02*
X72500000Y-85828628D01*
X72261905Y-86304819D02*
X72261905Y-85304819D01*
X72261905Y-85304819D02*
X72642857Y-85304819D01*
X72642857Y-85304819D02*
X72738095Y-85352438D01*
X72738095Y-85352438D02*
X72785714Y-85400057D01*
X72785714Y-85400057D02*
X72833333Y-85495295D01*
X72833333Y-85495295D02*
X72833333Y-85638152D01*
X72833333Y-85638152D02*
X72785714Y-85733390D01*
X72785714Y-85733390D02*
X72738095Y-85781009D01*
X72738095Y-85781009D02*
X72642857Y-85828628D01*
X72642857Y-85828628D02*
X72261905Y-85828628D01*
X73404762Y-85733390D02*
X73309524Y-85685771D01*
X73309524Y-85685771D02*
X73261905Y-85638152D01*
X73261905Y-85638152D02*
X73214286Y-85542914D01*
X73214286Y-85542914D02*
X73214286Y-85495295D01*
X73214286Y-85495295D02*
X73261905Y-85400057D01*
X73261905Y-85400057D02*
X73309524Y-85352438D01*
X73309524Y-85352438D02*
X73404762Y-85304819D01*
X73404762Y-85304819D02*
X73595238Y-85304819D01*
X73595238Y-85304819D02*
X73690476Y-85352438D01*
X73690476Y-85352438D02*
X73738095Y-85400057D01*
X73738095Y-85400057D02*
X73785714Y-85495295D01*
X73785714Y-85495295D02*
X73785714Y-85542914D01*
X73785714Y-85542914D02*
X73738095Y-85638152D01*
X73738095Y-85638152D02*
X73690476Y-85685771D01*
X73690476Y-85685771D02*
X73595238Y-85733390D01*
X73595238Y-85733390D02*
X73404762Y-85733390D01*
X73404762Y-85733390D02*
X73309524Y-85781009D01*
X73309524Y-85781009D02*
X73261905Y-85828628D01*
X73261905Y-85828628D02*
X73214286Y-85923866D01*
X73214286Y-85923866D02*
X73214286Y-86114342D01*
X73214286Y-86114342D02*
X73261905Y-86209580D01*
X73261905Y-86209580D02*
X73309524Y-86257200D01*
X73309524Y-86257200D02*
X73404762Y-86304819D01*
X73404762Y-86304819D02*
X73595238Y-86304819D01*
X73595238Y-86304819D02*
X73690476Y-86257200D01*
X73690476Y-86257200D02*
X73738095Y-86209580D01*
X73738095Y-86209580D02*
X73785714Y-86114342D01*
X73785714Y-86114342D02*
X73785714Y-85923866D01*
X73785714Y-85923866D02*
X73738095Y-85828628D01*
X73738095Y-85828628D02*
X73690476Y-85781009D01*
X73690476Y-85781009D02*
X73595238Y-85733390D01*
X56238095Y-60806819D02*
X56809523Y-60806819D01*
X56523809Y-61806819D02*
X56523809Y-60806819D01*
X57142857Y-61806819D02*
X57142857Y-60806819D01*
X57142857Y-60806819D02*
X57523809Y-60806819D01*
X57523809Y-60806819D02*
X57619047Y-60854438D01*
X57619047Y-60854438D02*
X57666666Y-60902057D01*
X57666666Y-60902057D02*
X57714285Y-60997295D01*
X57714285Y-60997295D02*
X57714285Y-61140152D01*
X57714285Y-61140152D02*
X57666666Y-61235390D01*
X57666666Y-61235390D02*
X57619047Y-61283009D01*
X57619047Y-61283009D02*
X57523809Y-61330628D01*
X57523809Y-61330628D02*
X57142857Y-61330628D01*
X58190476Y-61806819D02*
X58380952Y-61806819D01*
X58380952Y-61806819D02*
X58476190Y-61759200D01*
X58476190Y-61759200D02*
X58523809Y-61711580D01*
X58523809Y-61711580D02*
X58619047Y-61568723D01*
X58619047Y-61568723D02*
X58666666Y-61378247D01*
X58666666Y-61378247D02*
X58666666Y-60997295D01*
X58666666Y-60997295D02*
X58619047Y-60902057D01*
X58619047Y-60902057D02*
X58571428Y-60854438D01*
X58571428Y-60854438D02*
X58476190Y-60806819D01*
X58476190Y-60806819D02*
X58285714Y-60806819D01*
X58285714Y-60806819D02*
X58190476Y-60854438D01*
X58190476Y-60854438D02*
X58142857Y-60902057D01*
X58142857Y-60902057D02*
X58095238Y-60997295D01*
X58095238Y-60997295D02*
X58095238Y-61235390D01*
X58095238Y-61235390D02*
X58142857Y-61330628D01*
X58142857Y-61330628D02*
X58190476Y-61378247D01*
X58190476Y-61378247D02*
X58285714Y-61425866D01*
X58285714Y-61425866D02*
X58476190Y-61425866D01*
X58476190Y-61425866D02*
X58571428Y-61378247D01*
X58571428Y-61378247D02*
X58619047Y-61330628D01*
X58619047Y-61330628D02*
X58666666Y-61235390D01*
X59294819Y-107309523D02*
X60009104Y-107309523D01*
X60009104Y-107309523D02*
X60151961Y-107357142D01*
X60151961Y-107357142D02*
X60247200Y-107452380D01*
X60247200Y-107452380D02*
X60294819Y-107595237D01*
X60294819Y-107595237D02*
X60294819Y-107690475D01*
X60294819Y-106309523D02*
X60294819Y-106880951D01*
X60294819Y-106595237D02*
X59294819Y-106595237D01*
X59294819Y-106595237D02*
X59437676Y-106690475D01*
X59437676Y-106690475D02*
X59532914Y-106785713D01*
X59532914Y-106785713D02*
X59580533Y-106880951D01*
X59294819Y-105690475D02*
X59294819Y-105595237D01*
X59294819Y-105595237D02*
X59342438Y-105499999D01*
X59342438Y-105499999D02*
X59390057Y-105452380D01*
X59390057Y-105452380D02*
X59485295Y-105404761D01*
X59485295Y-105404761D02*
X59675771Y-105357142D01*
X59675771Y-105357142D02*
X59913866Y-105357142D01*
X59913866Y-105357142D02*
X60104342Y-105404761D01*
X60104342Y-105404761D02*
X60199580Y-105452380D01*
X60199580Y-105452380D02*
X60247200Y-105499999D01*
X60247200Y-105499999D02*
X60294819Y-105595237D01*
X60294819Y-105595237D02*
X60294819Y-105690475D01*
X60294819Y-105690475D02*
X60247200Y-105785713D01*
X60247200Y-105785713D02*
X60199580Y-105833332D01*
X60199580Y-105833332D02*
X60104342Y-105880951D01*
X60104342Y-105880951D02*
X59913866Y-105928570D01*
X59913866Y-105928570D02*
X59675771Y-105928570D01*
X59675771Y-105928570D02*
X59485295Y-105880951D01*
X59485295Y-105880951D02*
X59390057Y-105833332D01*
X59390057Y-105833332D02*
X59342438Y-105785713D01*
X59342438Y-105785713D02*
X59294819Y-105690475D01*
X67833333Y-66804819D02*
X67500000Y-66328628D01*
X67261905Y-66804819D02*
X67261905Y-65804819D01*
X67261905Y-65804819D02*
X67642857Y-65804819D01*
X67642857Y-65804819D02*
X67738095Y-65852438D01*
X67738095Y-65852438D02*
X67785714Y-65900057D01*
X67785714Y-65900057D02*
X67833333Y-65995295D01*
X67833333Y-65995295D02*
X67833333Y-66138152D01*
X67833333Y-66138152D02*
X67785714Y-66233390D01*
X67785714Y-66233390D02*
X67738095Y-66281009D01*
X67738095Y-66281009D02*
X67642857Y-66328628D01*
X67642857Y-66328628D02*
X67261905Y-66328628D01*
X68214286Y-65900057D02*
X68261905Y-65852438D01*
X68261905Y-65852438D02*
X68357143Y-65804819D01*
X68357143Y-65804819D02*
X68595238Y-65804819D01*
X68595238Y-65804819D02*
X68690476Y-65852438D01*
X68690476Y-65852438D02*
X68738095Y-65900057D01*
X68738095Y-65900057D02*
X68785714Y-65995295D01*
X68785714Y-65995295D02*
X68785714Y-66090533D01*
X68785714Y-66090533D02*
X68738095Y-66233390D01*
X68738095Y-66233390D02*
X68166667Y-66804819D01*
X68166667Y-66804819D02*
X68785714Y-66804819D01*
X100238095Y-46306819D02*
X100809523Y-46306819D01*
X100523809Y-47306819D02*
X100523809Y-46306819D01*
X101142857Y-47306819D02*
X101142857Y-46306819D01*
X101142857Y-46306819D02*
X101523809Y-46306819D01*
X101523809Y-46306819D02*
X101619047Y-46354438D01*
X101619047Y-46354438D02*
X101666666Y-46402057D01*
X101666666Y-46402057D02*
X101714285Y-46497295D01*
X101714285Y-46497295D02*
X101714285Y-46640152D01*
X101714285Y-46640152D02*
X101666666Y-46735390D01*
X101666666Y-46735390D02*
X101619047Y-46783009D01*
X101619047Y-46783009D02*
X101523809Y-46830628D01*
X101523809Y-46830628D02*
X101142857Y-46830628D01*
X102047619Y-46306819D02*
X102666666Y-46306819D01*
X102666666Y-46306819D02*
X102333333Y-46687771D01*
X102333333Y-46687771D02*
X102476190Y-46687771D01*
X102476190Y-46687771D02*
X102571428Y-46735390D01*
X102571428Y-46735390D02*
X102619047Y-46783009D01*
X102619047Y-46783009D02*
X102666666Y-46878247D01*
X102666666Y-46878247D02*
X102666666Y-47116342D01*
X102666666Y-47116342D02*
X102619047Y-47211580D01*
X102619047Y-47211580D02*
X102571428Y-47259200D01*
X102571428Y-47259200D02*
X102476190Y-47306819D01*
X102476190Y-47306819D02*
X102190476Y-47306819D01*
X102190476Y-47306819D02*
X102095238Y-47259200D01*
X102095238Y-47259200D02*
X102047619Y-47211580D01*
X85738095Y-75806819D02*
X86309523Y-75806819D01*
X86023809Y-76806819D02*
X86023809Y-75806819D01*
X86642857Y-76806819D02*
X86642857Y-75806819D01*
X86642857Y-75806819D02*
X87023809Y-75806819D01*
X87023809Y-75806819D02*
X87119047Y-75854438D01*
X87119047Y-75854438D02*
X87166666Y-75902057D01*
X87166666Y-75902057D02*
X87214285Y-75997295D01*
X87214285Y-75997295D02*
X87214285Y-76140152D01*
X87214285Y-76140152D02*
X87166666Y-76235390D01*
X87166666Y-76235390D02*
X87119047Y-76283009D01*
X87119047Y-76283009D02*
X87023809Y-76330628D01*
X87023809Y-76330628D02*
X86642857Y-76330628D01*
X87595238Y-75902057D02*
X87642857Y-75854438D01*
X87642857Y-75854438D02*
X87738095Y-75806819D01*
X87738095Y-75806819D02*
X87976190Y-75806819D01*
X87976190Y-75806819D02*
X88071428Y-75854438D01*
X88071428Y-75854438D02*
X88119047Y-75902057D01*
X88119047Y-75902057D02*
X88166666Y-75997295D01*
X88166666Y-75997295D02*
X88166666Y-76092533D01*
X88166666Y-76092533D02*
X88119047Y-76235390D01*
X88119047Y-76235390D02*
X87547619Y-76806819D01*
X87547619Y-76806819D02*
X88166666Y-76806819D01*
X65039485Y-73864781D02*
X64944247Y-73817162D01*
X64944247Y-73817162D02*
X64849009Y-73721924D01*
X64849009Y-73721924D02*
X64706152Y-73579066D01*
X64706152Y-73579066D02*
X64610914Y-73531447D01*
X64610914Y-73531447D02*
X64515676Y-73531447D01*
X64563295Y-73769543D02*
X64468057Y-73721924D01*
X64468057Y-73721924D02*
X64372819Y-73626685D01*
X64372819Y-73626685D02*
X64325200Y-73436209D01*
X64325200Y-73436209D02*
X64325200Y-73102876D01*
X64325200Y-73102876D02*
X64372819Y-72912400D01*
X64372819Y-72912400D02*
X64468057Y-72817162D01*
X64468057Y-72817162D02*
X64563295Y-72769543D01*
X64563295Y-72769543D02*
X64753771Y-72769543D01*
X64753771Y-72769543D02*
X64849009Y-72817162D01*
X64849009Y-72817162D02*
X64944247Y-72912400D01*
X64944247Y-72912400D02*
X64991866Y-73102876D01*
X64991866Y-73102876D02*
X64991866Y-73436209D01*
X64991866Y-73436209D02*
X64944247Y-73626685D01*
X64944247Y-73626685D02*
X64849009Y-73721924D01*
X64849009Y-73721924D02*
X64753771Y-73769543D01*
X64753771Y-73769543D02*
X64563295Y-73769543D01*
X65372819Y-72864781D02*
X65420438Y-72817162D01*
X65420438Y-72817162D02*
X65515676Y-72769543D01*
X65515676Y-72769543D02*
X65753771Y-72769543D01*
X65753771Y-72769543D02*
X65849009Y-72817162D01*
X65849009Y-72817162D02*
X65896628Y-72864781D01*
X65896628Y-72864781D02*
X65944247Y-72960019D01*
X65944247Y-72960019D02*
X65944247Y-73055257D01*
X65944247Y-73055257D02*
X65896628Y-73198114D01*
X65896628Y-73198114D02*
X65325200Y-73769543D01*
X65325200Y-73769543D02*
X65944247Y-73769543D01*
X95857142Y-71854819D02*
X95523809Y-71378628D01*
X95285714Y-71854819D02*
X95285714Y-70854819D01*
X95285714Y-70854819D02*
X95666666Y-70854819D01*
X95666666Y-70854819D02*
X95761904Y-70902438D01*
X95761904Y-70902438D02*
X95809523Y-70950057D01*
X95809523Y-70950057D02*
X95857142Y-71045295D01*
X95857142Y-71045295D02*
X95857142Y-71188152D01*
X95857142Y-71188152D02*
X95809523Y-71283390D01*
X95809523Y-71283390D02*
X95761904Y-71331009D01*
X95761904Y-71331009D02*
X95666666Y-71378628D01*
X95666666Y-71378628D02*
X95285714Y-71378628D01*
X96238095Y-70950057D02*
X96285714Y-70902438D01*
X96285714Y-70902438D02*
X96380952Y-70854819D01*
X96380952Y-70854819D02*
X96619047Y-70854819D01*
X96619047Y-70854819D02*
X96714285Y-70902438D01*
X96714285Y-70902438D02*
X96761904Y-70950057D01*
X96761904Y-70950057D02*
X96809523Y-71045295D01*
X96809523Y-71045295D02*
X96809523Y-71140533D01*
X96809523Y-71140533D02*
X96761904Y-71283390D01*
X96761904Y-71283390D02*
X96190476Y-71854819D01*
X96190476Y-71854819D02*
X96809523Y-71854819D01*
X97714285Y-70854819D02*
X97238095Y-70854819D01*
X97238095Y-70854819D02*
X97190476Y-71331009D01*
X97190476Y-71331009D02*
X97238095Y-71283390D01*
X97238095Y-71283390D02*
X97333333Y-71235771D01*
X97333333Y-71235771D02*
X97571428Y-71235771D01*
X97571428Y-71235771D02*
X97666666Y-71283390D01*
X97666666Y-71283390D02*
X97714285Y-71331009D01*
X97714285Y-71331009D02*
X97761904Y-71426247D01*
X97761904Y-71426247D02*
X97761904Y-71664342D01*
X97761904Y-71664342D02*
X97714285Y-71759580D01*
X97714285Y-71759580D02*
X97666666Y-71807200D01*
X97666666Y-71807200D02*
X97571428Y-71854819D01*
X97571428Y-71854819D02*
X97333333Y-71854819D01*
X97333333Y-71854819D02*
X97238095Y-71807200D01*
X97238095Y-71807200D02*
X97190476Y-71759580D01*
X79319642Y-64039580D02*
X79272023Y-64087200D01*
X79272023Y-64087200D02*
X79129166Y-64134819D01*
X79129166Y-64134819D02*
X79033928Y-64134819D01*
X79033928Y-64134819D02*
X78891071Y-64087200D01*
X78891071Y-64087200D02*
X78795833Y-63991961D01*
X78795833Y-63991961D02*
X78748214Y-63896723D01*
X78748214Y-63896723D02*
X78700595Y-63706247D01*
X78700595Y-63706247D02*
X78700595Y-63563390D01*
X78700595Y-63563390D02*
X78748214Y-63372914D01*
X78748214Y-63372914D02*
X78795833Y-63277676D01*
X78795833Y-63277676D02*
X78891071Y-63182438D01*
X78891071Y-63182438D02*
X79033928Y-63134819D01*
X79033928Y-63134819D02*
X79129166Y-63134819D01*
X79129166Y-63134819D02*
X79272023Y-63182438D01*
X79272023Y-63182438D02*
X79319642Y-63230057D01*
X80272023Y-64134819D02*
X79700595Y-64134819D01*
X79986309Y-64134819D02*
X79986309Y-63134819D01*
X79986309Y-63134819D02*
X79891071Y-63277676D01*
X79891071Y-63277676D02*
X79795833Y-63372914D01*
X79795833Y-63372914D02*
X79700595Y-63420533D01*
X81176785Y-63134819D02*
X80700595Y-63134819D01*
X80700595Y-63134819D02*
X80652976Y-63611009D01*
X80652976Y-63611009D02*
X80700595Y-63563390D01*
X80700595Y-63563390D02*
X80795833Y-63515771D01*
X80795833Y-63515771D02*
X81033928Y-63515771D01*
X81033928Y-63515771D02*
X81129166Y-63563390D01*
X81129166Y-63563390D02*
X81176785Y-63611009D01*
X81176785Y-63611009D02*
X81224404Y-63706247D01*
X81224404Y-63706247D02*
X81224404Y-63944342D01*
X81224404Y-63944342D02*
X81176785Y-64039580D01*
X81176785Y-64039580D02*
X81129166Y-64087200D01*
X81129166Y-64087200D02*
X81033928Y-64134819D01*
X81033928Y-64134819D02*
X80795833Y-64134819D01*
X80795833Y-64134819D02*
X80700595Y-64087200D01*
X80700595Y-64087200D02*
X80652976Y-64039580D01*
X63295833Y-43679580D02*
X63248214Y-43727200D01*
X63248214Y-43727200D02*
X63105357Y-43774819D01*
X63105357Y-43774819D02*
X63010119Y-43774819D01*
X63010119Y-43774819D02*
X62867262Y-43727200D01*
X62867262Y-43727200D02*
X62772024Y-43631961D01*
X62772024Y-43631961D02*
X62724405Y-43536723D01*
X62724405Y-43536723D02*
X62676786Y-43346247D01*
X62676786Y-43346247D02*
X62676786Y-43203390D01*
X62676786Y-43203390D02*
X62724405Y-43012914D01*
X62724405Y-43012914D02*
X62772024Y-42917676D01*
X62772024Y-42917676D02*
X62867262Y-42822438D01*
X62867262Y-42822438D02*
X63010119Y-42774819D01*
X63010119Y-42774819D02*
X63105357Y-42774819D01*
X63105357Y-42774819D02*
X63248214Y-42822438D01*
X63248214Y-42822438D02*
X63295833Y-42870057D01*
X64248214Y-43774819D02*
X63676786Y-43774819D01*
X63962500Y-43774819D02*
X63962500Y-42774819D01*
X63962500Y-42774819D02*
X63867262Y-42917676D01*
X63867262Y-42917676D02*
X63772024Y-43012914D01*
X63772024Y-43012914D02*
X63676786Y-43060533D01*
X113859580Y-53741666D02*
X113907200Y-53789285D01*
X113907200Y-53789285D02*
X113954819Y-53932142D01*
X113954819Y-53932142D02*
X113954819Y-54027380D01*
X113954819Y-54027380D02*
X113907200Y-54170237D01*
X113907200Y-54170237D02*
X113811961Y-54265475D01*
X113811961Y-54265475D02*
X113716723Y-54313094D01*
X113716723Y-54313094D02*
X113526247Y-54360713D01*
X113526247Y-54360713D02*
X113383390Y-54360713D01*
X113383390Y-54360713D02*
X113192914Y-54313094D01*
X113192914Y-54313094D02*
X113097676Y-54265475D01*
X113097676Y-54265475D02*
X113002438Y-54170237D01*
X113002438Y-54170237D02*
X112954819Y-54027380D01*
X112954819Y-54027380D02*
X112954819Y-53932142D01*
X112954819Y-53932142D02*
X113002438Y-53789285D01*
X113002438Y-53789285D02*
X113050057Y-53741666D01*
X112954819Y-52836904D02*
X112954819Y-53313094D01*
X112954819Y-53313094D02*
X113431009Y-53360713D01*
X113431009Y-53360713D02*
X113383390Y-53313094D01*
X113383390Y-53313094D02*
X113335771Y-53217856D01*
X113335771Y-53217856D02*
X113335771Y-52979761D01*
X113335771Y-52979761D02*
X113383390Y-52884523D01*
X113383390Y-52884523D02*
X113431009Y-52836904D01*
X113431009Y-52836904D02*
X113526247Y-52789285D01*
X113526247Y-52789285D02*
X113764342Y-52789285D01*
X113764342Y-52789285D02*
X113859580Y-52836904D01*
X113859580Y-52836904D02*
X113907200Y-52884523D01*
X113907200Y-52884523D02*
X113954819Y-52979761D01*
X113954819Y-52979761D02*
X113954819Y-53217856D01*
X113954819Y-53217856D02*
X113907200Y-53313094D01*
X113907200Y-53313094D02*
X113859580Y-53360713D01*
X107238095Y-107254819D02*
X107238095Y-106254819D01*
X107238095Y-106731009D02*
X107809523Y-106731009D01*
X107809523Y-107254819D02*
X107809523Y-106254819D01*
X108238095Y-106350057D02*
X108285714Y-106302438D01*
X108285714Y-106302438D02*
X108380952Y-106254819D01*
X108380952Y-106254819D02*
X108619047Y-106254819D01*
X108619047Y-106254819D02*
X108714285Y-106302438D01*
X108714285Y-106302438D02*
X108761904Y-106350057D01*
X108761904Y-106350057D02*
X108809523Y-106445295D01*
X108809523Y-106445295D02*
X108809523Y-106540533D01*
X108809523Y-106540533D02*
X108761904Y-106683390D01*
X108761904Y-106683390D02*
X108190476Y-107254819D01*
X108190476Y-107254819D02*
X108809523Y-107254819D01*
X95857142Y-74804819D02*
X95523809Y-74328628D01*
X95285714Y-74804819D02*
X95285714Y-73804819D01*
X95285714Y-73804819D02*
X95666666Y-73804819D01*
X95666666Y-73804819D02*
X95761904Y-73852438D01*
X95761904Y-73852438D02*
X95809523Y-73900057D01*
X95809523Y-73900057D02*
X95857142Y-73995295D01*
X95857142Y-73995295D02*
X95857142Y-74138152D01*
X95857142Y-74138152D02*
X95809523Y-74233390D01*
X95809523Y-74233390D02*
X95761904Y-74281009D01*
X95761904Y-74281009D02*
X95666666Y-74328628D01*
X95666666Y-74328628D02*
X95285714Y-74328628D01*
X96238095Y-73900057D02*
X96285714Y-73852438D01*
X96285714Y-73852438D02*
X96380952Y-73804819D01*
X96380952Y-73804819D02*
X96619047Y-73804819D01*
X96619047Y-73804819D02*
X96714285Y-73852438D01*
X96714285Y-73852438D02*
X96761904Y-73900057D01*
X96761904Y-73900057D02*
X96809523Y-73995295D01*
X96809523Y-73995295D02*
X96809523Y-74090533D01*
X96809523Y-74090533D02*
X96761904Y-74233390D01*
X96761904Y-74233390D02*
X96190476Y-74804819D01*
X96190476Y-74804819D02*
X96809523Y-74804819D01*
X97666666Y-73804819D02*
X97476190Y-73804819D01*
X97476190Y-73804819D02*
X97380952Y-73852438D01*
X97380952Y-73852438D02*
X97333333Y-73900057D01*
X97333333Y-73900057D02*
X97238095Y-74042914D01*
X97238095Y-74042914D02*
X97190476Y-74233390D01*
X97190476Y-74233390D02*
X97190476Y-74614342D01*
X97190476Y-74614342D02*
X97238095Y-74709580D01*
X97238095Y-74709580D02*
X97285714Y-74757200D01*
X97285714Y-74757200D02*
X97380952Y-74804819D01*
X97380952Y-74804819D02*
X97571428Y-74804819D01*
X97571428Y-74804819D02*
X97666666Y-74757200D01*
X97666666Y-74757200D02*
X97714285Y-74709580D01*
X97714285Y-74709580D02*
X97761904Y-74614342D01*
X97761904Y-74614342D02*
X97761904Y-74376247D01*
X97761904Y-74376247D02*
X97714285Y-74281009D01*
X97714285Y-74281009D02*
X97666666Y-74233390D01*
X97666666Y-74233390D02*
X97571428Y-74185771D01*
X97571428Y-74185771D02*
X97380952Y-74185771D01*
X97380952Y-74185771D02*
X97285714Y-74233390D01*
X97285714Y-74233390D02*
X97238095Y-74281009D01*
X97238095Y-74281009D02*
X97190476Y-74376247D01*
X107357142Y-77304819D02*
X107023809Y-76828628D01*
X106785714Y-77304819D02*
X106785714Y-76304819D01*
X106785714Y-76304819D02*
X107166666Y-76304819D01*
X107166666Y-76304819D02*
X107261904Y-76352438D01*
X107261904Y-76352438D02*
X107309523Y-76400057D01*
X107309523Y-76400057D02*
X107357142Y-76495295D01*
X107357142Y-76495295D02*
X107357142Y-76638152D01*
X107357142Y-76638152D02*
X107309523Y-76733390D01*
X107309523Y-76733390D02*
X107261904Y-76781009D01*
X107261904Y-76781009D02*
X107166666Y-76828628D01*
X107166666Y-76828628D02*
X106785714Y-76828628D01*
X107738095Y-76400057D02*
X107785714Y-76352438D01*
X107785714Y-76352438D02*
X107880952Y-76304819D01*
X107880952Y-76304819D02*
X108119047Y-76304819D01*
X108119047Y-76304819D02*
X108214285Y-76352438D01*
X108214285Y-76352438D02*
X108261904Y-76400057D01*
X108261904Y-76400057D02*
X108309523Y-76495295D01*
X108309523Y-76495295D02*
X108309523Y-76590533D01*
X108309523Y-76590533D02*
X108261904Y-76733390D01*
X108261904Y-76733390D02*
X107690476Y-77304819D01*
X107690476Y-77304819D02*
X108309523Y-77304819D01*
X108690476Y-76400057D02*
X108738095Y-76352438D01*
X108738095Y-76352438D02*
X108833333Y-76304819D01*
X108833333Y-76304819D02*
X109071428Y-76304819D01*
X109071428Y-76304819D02*
X109166666Y-76352438D01*
X109166666Y-76352438D02*
X109214285Y-76400057D01*
X109214285Y-76400057D02*
X109261904Y-76495295D01*
X109261904Y-76495295D02*
X109261904Y-76590533D01*
X109261904Y-76590533D02*
X109214285Y-76733390D01*
X109214285Y-76733390D02*
X108642857Y-77304819D01*
X108642857Y-77304819D02*
X109261904Y-77304819D01*
X103357142Y-73804819D02*
X103023809Y-73328628D01*
X102785714Y-73804819D02*
X102785714Y-72804819D01*
X102785714Y-72804819D02*
X103166666Y-72804819D01*
X103166666Y-72804819D02*
X103261904Y-72852438D01*
X103261904Y-72852438D02*
X103309523Y-72900057D01*
X103309523Y-72900057D02*
X103357142Y-72995295D01*
X103357142Y-72995295D02*
X103357142Y-73138152D01*
X103357142Y-73138152D02*
X103309523Y-73233390D01*
X103309523Y-73233390D02*
X103261904Y-73281009D01*
X103261904Y-73281009D02*
X103166666Y-73328628D01*
X103166666Y-73328628D02*
X102785714Y-73328628D01*
X103738095Y-72900057D02*
X103785714Y-72852438D01*
X103785714Y-72852438D02*
X103880952Y-72804819D01*
X103880952Y-72804819D02*
X104119047Y-72804819D01*
X104119047Y-72804819D02*
X104214285Y-72852438D01*
X104214285Y-72852438D02*
X104261904Y-72900057D01*
X104261904Y-72900057D02*
X104309523Y-72995295D01*
X104309523Y-72995295D02*
X104309523Y-73090533D01*
X104309523Y-73090533D02*
X104261904Y-73233390D01*
X104261904Y-73233390D02*
X103690476Y-73804819D01*
X103690476Y-73804819D02*
X104309523Y-73804819D01*
X104642857Y-72804819D02*
X105261904Y-72804819D01*
X105261904Y-72804819D02*
X104928571Y-73185771D01*
X104928571Y-73185771D02*
X105071428Y-73185771D01*
X105071428Y-73185771D02*
X105166666Y-73233390D01*
X105166666Y-73233390D02*
X105214285Y-73281009D01*
X105214285Y-73281009D02*
X105261904Y-73376247D01*
X105261904Y-73376247D02*
X105261904Y-73614342D01*
X105261904Y-73614342D02*
X105214285Y-73709580D01*
X105214285Y-73709580D02*
X105166666Y-73757200D01*
X105166666Y-73757200D02*
X105071428Y-73804819D01*
X105071428Y-73804819D02*
X104785714Y-73804819D01*
X104785714Y-73804819D02*
X104690476Y-73757200D01*
X104690476Y-73757200D02*
X104642857Y-73709580D01*
X58870833Y-67179580D02*
X58823214Y-67227200D01*
X58823214Y-67227200D02*
X58680357Y-67274819D01*
X58680357Y-67274819D02*
X58585119Y-67274819D01*
X58585119Y-67274819D02*
X58442262Y-67227200D01*
X58442262Y-67227200D02*
X58347024Y-67131961D01*
X58347024Y-67131961D02*
X58299405Y-67036723D01*
X58299405Y-67036723D02*
X58251786Y-66846247D01*
X58251786Y-66846247D02*
X58251786Y-66703390D01*
X58251786Y-66703390D02*
X58299405Y-66512914D01*
X58299405Y-66512914D02*
X58347024Y-66417676D01*
X58347024Y-66417676D02*
X58442262Y-66322438D01*
X58442262Y-66322438D02*
X58585119Y-66274819D01*
X58585119Y-66274819D02*
X58680357Y-66274819D01*
X58680357Y-66274819D02*
X58823214Y-66322438D01*
X58823214Y-66322438D02*
X58870833Y-66370057D01*
X59204167Y-66274819D02*
X59823214Y-66274819D01*
X59823214Y-66274819D02*
X59489881Y-66655771D01*
X59489881Y-66655771D02*
X59632738Y-66655771D01*
X59632738Y-66655771D02*
X59727976Y-66703390D01*
X59727976Y-66703390D02*
X59775595Y-66751009D01*
X59775595Y-66751009D02*
X59823214Y-66846247D01*
X59823214Y-66846247D02*
X59823214Y-67084342D01*
X59823214Y-67084342D02*
X59775595Y-67179580D01*
X59775595Y-67179580D02*
X59727976Y-67227200D01*
X59727976Y-67227200D02*
X59632738Y-67274819D01*
X59632738Y-67274819D02*
X59347024Y-67274819D01*
X59347024Y-67274819D02*
X59251786Y-67227200D01*
X59251786Y-67227200D02*
X59204167Y-67179580D01*
X114354819Y-57208333D02*
X115069104Y-57208333D01*
X115069104Y-57208333D02*
X115211961Y-57255952D01*
X115211961Y-57255952D02*
X115307200Y-57351190D01*
X115307200Y-57351190D02*
X115354819Y-57494047D01*
X115354819Y-57494047D02*
X115354819Y-57589285D01*
X114450057Y-56779761D02*
X114402438Y-56732142D01*
X114402438Y-56732142D02*
X114354819Y-56636904D01*
X114354819Y-56636904D02*
X114354819Y-56398809D01*
X114354819Y-56398809D02*
X114402438Y-56303571D01*
X114402438Y-56303571D02*
X114450057Y-56255952D01*
X114450057Y-56255952D02*
X114545295Y-56208333D01*
X114545295Y-56208333D02*
X114640533Y-56208333D01*
X114640533Y-56208333D02*
X114783390Y-56255952D01*
X114783390Y-56255952D02*
X115354819Y-56827380D01*
X115354819Y-56827380D02*
X115354819Y-56208333D01*
X42714819Y-104889523D02*
X43429104Y-104889523D01*
X43429104Y-104889523D02*
X43571961Y-104937142D01*
X43571961Y-104937142D02*
X43667200Y-105032380D01*
X43667200Y-105032380D02*
X43714819Y-105175237D01*
X43714819Y-105175237D02*
X43714819Y-105270475D01*
X43714819Y-103889523D02*
X43714819Y-104460951D01*
X43714819Y-104175237D02*
X42714819Y-104175237D01*
X42714819Y-104175237D02*
X42857676Y-104270475D01*
X42857676Y-104270475D02*
X42952914Y-104365713D01*
X42952914Y-104365713D02*
X43000533Y-104460951D01*
X43048152Y-103032380D02*
X43714819Y-103032380D01*
X42667200Y-103270475D02*
X43381485Y-103508570D01*
X43381485Y-103508570D02*
X43381485Y-102889523D01*
X56238095Y-50306819D02*
X56809523Y-50306819D01*
X56523809Y-51306819D02*
X56523809Y-50306819D01*
X57142857Y-51306819D02*
X57142857Y-50306819D01*
X57142857Y-50306819D02*
X57523809Y-50306819D01*
X57523809Y-50306819D02*
X57619047Y-50354438D01*
X57619047Y-50354438D02*
X57666666Y-50402057D01*
X57666666Y-50402057D02*
X57714285Y-50497295D01*
X57714285Y-50497295D02*
X57714285Y-50640152D01*
X57714285Y-50640152D02*
X57666666Y-50735390D01*
X57666666Y-50735390D02*
X57619047Y-50783009D01*
X57619047Y-50783009D02*
X57523809Y-50830628D01*
X57523809Y-50830628D02*
X57142857Y-50830628D01*
X58047619Y-50306819D02*
X58714285Y-50306819D01*
X58714285Y-50306819D02*
X58285714Y-51306819D01*
X107238095Y-34754819D02*
X107238095Y-33754819D01*
X107238095Y-34231009D02*
X107809523Y-34231009D01*
X107809523Y-34754819D02*
X107809523Y-33754819D01*
X108714285Y-34088152D02*
X108714285Y-34754819D01*
X108476190Y-33707200D02*
X108238095Y-34421485D01*
X108238095Y-34421485D02*
X108857142Y-34421485D01*
D11*
%TO.C,R9*%
X100272936Y-52265000D02*
X100727064Y-52265000D01*
X100272936Y-53735000D02*
X100727064Y-53735000D01*
%TO.C,J3*%
X32840000Y-36340000D02*
X32100000Y-36340000D01*
X32100000Y-36340000D02*
X32100000Y-36840000D01*
X42261000Y-36580000D02*
X32340000Y-36580000D01*
X42261000Y-36580000D02*
X42261000Y-62100000D01*
X39301000Y-36580000D02*
X39301000Y-62100000D01*
X34400000Y-36580000D02*
X34400000Y-62100000D01*
X32900000Y-36580000D02*
X32900000Y-62100000D01*
X32340000Y-36580000D02*
X32340000Y-62100000D01*
X35977000Y-43033000D02*
X35931000Y-42986000D01*
X35761000Y-43226000D02*
X35726000Y-43191000D01*
X38275000Y-45330000D02*
X38239000Y-45295000D01*
X38069000Y-45535000D02*
X38023000Y-45488000D01*
X35977000Y-48113000D02*
X35931000Y-48066000D01*
X35761000Y-48306000D02*
X35726000Y-48271000D01*
X38275000Y-50410000D02*
X38239000Y-50375000D01*
X38069000Y-50615000D02*
X38023000Y-50568000D01*
X35977000Y-53193000D02*
X35931000Y-53146000D01*
X35761000Y-53386000D02*
X35726000Y-53351000D01*
X38275000Y-55490000D02*
X38239000Y-55455000D01*
X38069000Y-55695000D02*
X38023000Y-55648000D01*
X35977000Y-58273000D02*
X35931000Y-58226000D01*
X35761000Y-58466000D02*
X35726000Y-58431000D01*
X38275000Y-60570000D02*
X38239000Y-60535000D01*
X38069000Y-60775000D02*
X38023000Y-60728000D01*
X42261000Y-62100000D02*
X32340000Y-62100000D01*
X36316958Y-37644573D02*
G75*
G02*
X37684000Y-37645000I683041J-1535420D01*
G01*
X38535427Y-38496958D02*
G75*
G02*
X38535000Y-39864000I-1535420J-683041D01*
G01*
X35319747Y-39208805D02*
G75*
G02*
X35465000Y-38496000I1680254J28806D01*
G01*
X35465244Y-39863318D02*
G75*
G02*
X35320000Y-39180000I1534756J683318D01*
G01*
X37683042Y-40715427D02*
G75*
G02*
X36316000Y-40715000I-683042J1535427D01*
G01*
X38680000Y-44260000D02*
G75*
G02*
X35320000Y-44260000I-1680000J0D01*
G01*
X35320000Y-44260000D02*
G75*
G02*
X38680000Y-44260000I1680000J0D01*
G01*
X38680000Y-49340000D02*
G75*
G02*
X35320000Y-49340000I-1680000J0D01*
G01*
X35320000Y-49340000D02*
G75*
G02*
X38680000Y-49340000I1680000J0D01*
G01*
X38680000Y-54420000D02*
G75*
G02*
X35320000Y-54420000I-1680000J0D01*
G01*
X35320000Y-54420000D02*
G75*
G02*
X38680000Y-54420000I1680000J0D01*
G01*
X38680000Y-59500000D02*
G75*
G02*
X35320000Y-59500000I-1680000J0D01*
G01*
X35320000Y-59500000D02*
G75*
G02*
X38680000Y-59500000I1680000J0D01*
G01*
D12*
%TO.C,U3*%
X96698000Y-91580000D02*
X103302000Y-91580000D01*
X103302000Y-91580000D02*
X103302000Y-91192814D01*
X103302000Y-81420000D02*
X96698000Y-81420000D01*
X96698000Y-83708540D02*
X96698000Y-84347186D01*
X100304800Y-81420000D02*
G75*
G02*
X99695200Y-81420000I-304800J0D01*
G01*
X96698000Y-86112814D02*
X96698000Y-86887186D01*
X96698000Y-88652814D02*
X96698000Y-89427186D01*
X96698000Y-91192814D02*
X96698000Y-91580000D01*
X103302000Y-89427186D02*
X103302000Y-88652814D01*
X103302000Y-86887186D02*
X103302000Y-86112814D01*
X103302000Y-84347186D02*
X103302000Y-83572814D01*
X103302000Y-81807186D02*
X103302000Y-81420000D01*
%TO.C,U4*%
X96698000Y-104580000D02*
X103302000Y-104580000D01*
X103302000Y-104580000D02*
X103302000Y-104192814D01*
X103302000Y-94420000D02*
X96698000Y-94420000D01*
X96698000Y-96708540D02*
X96698000Y-97347186D01*
X100304800Y-94420000D02*
G75*
G02*
X99695200Y-94420000I-304800J0D01*
G01*
X96698000Y-99112814D02*
X96698000Y-99887186D01*
X96698000Y-101652814D02*
X96698000Y-102427186D01*
X96698000Y-104192814D02*
X96698000Y-104580000D01*
X103302000Y-102427186D02*
X103302000Y-101652814D01*
X103302000Y-99887186D02*
X103302000Y-99112814D01*
X103302000Y-97347186D02*
X103302000Y-96572814D01*
X103302000Y-94807186D02*
X103302000Y-94420000D01*
D11*
%TO.C,SW2*%
X75000000Y-76250000D02*
X75000000Y-74750000D01*
X73750000Y-72250000D02*
X69250000Y-72250000D01*
X69250000Y-78750000D02*
X73750000Y-78750000D01*
X68000000Y-74750000D02*
X68000000Y-76250000D01*
%TO.C,SW1*%
X62000000Y-76250000D02*
X62000000Y-74750000D01*
X60750000Y-72250000D02*
X56250000Y-72250000D01*
X56250000Y-78750000D02*
X60750000Y-78750000D01*
X55000000Y-74750000D02*
X55000000Y-76250000D01*
%TO.C,J8*%
X59695000Y-127465000D02*
X59695000Y-128205000D01*
X59695000Y-128205000D02*
X60195000Y-128205000D01*
X59935000Y-118044000D02*
X59935000Y-127965000D01*
X59935000Y-118044000D02*
X70215000Y-118044000D01*
X59935000Y-121004000D02*
X70215000Y-121004000D01*
X59935000Y-125905000D02*
X70215000Y-125905000D01*
X59935000Y-127405000D02*
X70215000Y-127405000D01*
X59935000Y-127965000D02*
X70215000Y-127965000D01*
X66388000Y-124328000D02*
X66341000Y-124374000D01*
X66581000Y-124544000D02*
X66546000Y-124579000D01*
X68685000Y-122030000D02*
X68650000Y-122066000D01*
X68890000Y-122236000D02*
X68843000Y-122282000D01*
X70215000Y-118044000D02*
X70215000Y-127965000D01*
X60999573Y-123988042D02*
G75*
G02*
X61000000Y-122621000I1535420J683041D01*
G01*
X61851958Y-121769573D02*
G75*
G02*
X63219000Y-121770000I683041J-1535420D01*
G01*
X62563805Y-124985253D02*
G75*
G02*
X61851000Y-124840000I-28806J1680254D01*
G01*
X63218318Y-124839756D02*
G75*
G02*
X62535000Y-124985000I-683318J1534756D01*
G01*
X64070427Y-122621958D02*
G75*
G02*
X64070000Y-123989000I-1535427J-683042D01*
G01*
X69295000Y-123305000D02*
G75*
G02*
X65935000Y-123305000I-1680000J0D01*
G01*
X65935000Y-123305000D02*
G75*
G02*
X69295000Y-123305000I1680000J0D01*
G01*
%TO.C,J6*%
X73115000Y-127465000D02*
X73115000Y-128205000D01*
X73115000Y-128205000D02*
X73615000Y-128205000D01*
X73355000Y-118044000D02*
X73355000Y-127965000D01*
X73355000Y-118044000D02*
X83635000Y-118044000D01*
X73355000Y-121004000D02*
X83635000Y-121004000D01*
X73355000Y-125905000D02*
X83635000Y-125905000D01*
X73355000Y-127405000D02*
X83635000Y-127405000D01*
X73355000Y-127965000D02*
X83635000Y-127965000D01*
X79808000Y-124328000D02*
X79761000Y-124374000D01*
X80001000Y-124544000D02*
X79966000Y-124579000D01*
X82105000Y-122030000D02*
X82070000Y-122066000D01*
X82310000Y-122236000D02*
X82263000Y-122282000D01*
X83635000Y-118044000D02*
X83635000Y-127965000D01*
X74419573Y-123988042D02*
G75*
G02*
X74420000Y-122621000I1535420J683041D01*
G01*
X75271958Y-121769573D02*
G75*
G02*
X76639000Y-121770000I683041J-1535420D01*
G01*
X75983805Y-124985253D02*
G75*
G02*
X75271000Y-124840000I-28806J1680254D01*
G01*
X76638318Y-124839756D02*
G75*
G02*
X75955000Y-124985000I-683318J1534756D01*
G01*
X77490427Y-122621958D02*
G75*
G02*
X77490000Y-123989000I-1535427J-683042D01*
G01*
X82715000Y-123305000D02*
G75*
G02*
X79355000Y-123305000I-1680000J0D01*
G01*
X79355000Y-123305000D02*
G75*
G02*
X82715000Y-123305000I1680000J0D01*
G01*
%TO.C,J5*%
X86195000Y-127465000D02*
X86195000Y-128205000D01*
X86195000Y-128205000D02*
X86695000Y-128205000D01*
X86435000Y-118044000D02*
X86435000Y-127965000D01*
X86435000Y-118044000D02*
X96715000Y-118044000D01*
X86435000Y-121004000D02*
X96715000Y-121004000D01*
X86435000Y-125905000D02*
X96715000Y-125905000D01*
X86435000Y-127405000D02*
X96715000Y-127405000D01*
X86435000Y-127965000D02*
X96715000Y-127965000D01*
X92888000Y-124328000D02*
X92841000Y-124374000D01*
X93081000Y-124544000D02*
X93046000Y-124579000D01*
X95185000Y-122030000D02*
X95150000Y-122066000D01*
X95390000Y-122236000D02*
X95343000Y-122282000D01*
X96715000Y-118044000D02*
X96715000Y-127965000D01*
X87499573Y-123988042D02*
G75*
G02*
X87500000Y-122621000I1535420J683041D01*
G01*
X88351958Y-121769573D02*
G75*
G02*
X89719000Y-121770000I683041J-1535420D01*
G01*
X89063805Y-124985253D02*
G75*
G02*
X88351000Y-124840000I-28806J1680254D01*
G01*
X89718318Y-124839756D02*
G75*
G02*
X89035000Y-124985000I-683318J1534756D01*
G01*
X90570427Y-122621958D02*
G75*
G02*
X90570000Y-123989000I-1535427J-683042D01*
G01*
X95795000Y-123305000D02*
G75*
G02*
X92435000Y-123305000I-1680000J0D01*
G01*
X92435000Y-123305000D02*
G75*
G02*
X95795000Y-123305000I1680000J0D01*
G01*
%TO.C,J4*%
X119180000Y-80420000D02*
G75*
G02*
X115820000Y-80420000I-1680000J0D01*
G01*
X115820000Y-80420000D02*
G75*
G02*
X119180000Y-80420000I1680000J0D01*
G01*
X116816958Y-83964573D02*
G75*
G02*
X118184000Y-83965000I683042J-1535427D01*
G01*
X119034756Y-84816682D02*
G75*
G02*
X119180000Y-85500000I-1534756J-683318D01*
G01*
X119180253Y-85471195D02*
G75*
G02*
X119035000Y-86184000I-1680254J-28806D01*
G01*
X115964573Y-86183042D02*
G75*
G02*
X115965000Y-84816000I1535420J683041D01*
G01*
X118183042Y-87035427D02*
G75*
G02*
X116816000Y-87035000I-683041J1535420D01*
G01*
X112239000Y-77820000D02*
X122160000Y-77820000D01*
X116431000Y-79145000D02*
X116477000Y-79192000D01*
X116225000Y-79350000D02*
X116261000Y-79385000D01*
X118739000Y-81454000D02*
X118774000Y-81489000D01*
X118523000Y-81647000D02*
X118569000Y-81694000D01*
X122160000Y-88100000D02*
X122160000Y-77820000D01*
X121600000Y-88100000D02*
X121600000Y-77820000D01*
X120100000Y-88100000D02*
X120100000Y-77820000D01*
X115199000Y-88100000D02*
X115199000Y-77820000D01*
X112239000Y-88100000D02*
X112239000Y-77820000D01*
X112239000Y-88100000D02*
X122160000Y-88100000D01*
X122400000Y-88340000D02*
X122400000Y-87840000D01*
X121660000Y-88340000D02*
X122400000Y-88340000D01*
%TO.C,J1*%
X38680000Y-87160000D02*
G75*
G02*
X35320000Y-87160000I-1680000J0D01*
G01*
X35320000Y-87160000D02*
G75*
G02*
X38680000Y-87160000I1680000J0D01*
G01*
X38680000Y-82080000D02*
G75*
G02*
X35320000Y-82080000I-1680000J0D01*
G01*
X35320000Y-82080000D02*
G75*
G02*
X38680000Y-82080000I1680000J0D01*
G01*
X38680000Y-77000000D02*
G75*
G02*
X35320000Y-77000000I-1680000J0D01*
G01*
X35320000Y-77000000D02*
G75*
G02*
X38680000Y-77000000I1680000J0D01*
G01*
X38680000Y-71920000D02*
G75*
G02*
X35320000Y-71920000I-1680000J0D01*
G01*
X35320000Y-71920000D02*
G75*
G02*
X38680000Y-71920000I1680000J0D01*
G01*
X37683042Y-68375427D02*
G75*
G02*
X36316000Y-68375000I-683042J1535427D01*
G01*
X35465244Y-67523318D02*
G75*
G02*
X35320000Y-66840000I1534756J683318D01*
G01*
X35319747Y-66868805D02*
G75*
G02*
X35465000Y-66156000I1680254J28806D01*
G01*
X38535427Y-66156958D02*
G75*
G02*
X38535000Y-67524000I-1535420J-683041D01*
G01*
X36316958Y-65304573D02*
G75*
G02*
X37684000Y-65305000I683041J-1535420D01*
G01*
X42261000Y-89760000D02*
X32340000Y-89760000D01*
X38069000Y-88435000D02*
X38023000Y-88388000D01*
X38275000Y-88230000D02*
X38239000Y-88195000D01*
X35761000Y-86126000D02*
X35726000Y-86091000D01*
X35977000Y-85933000D02*
X35931000Y-85886000D01*
X38069000Y-83355000D02*
X38023000Y-83308000D01*
X38275000Y-83150000D02*
X38239000Y-83115000D01*
X35761000Y-81046000D02*
X35726000Y-81011000D01*
X35977000Y-80853000D02*
X35931000Y-80806000D01*
X38069000Y-78275000D02*
X38023000Y-78228000D01*
X38275000Y-78070000D02*
X38239000Y-78035000D01*
X35761000Y-75966000D02*
X35726000Y-75931000D01*
X35977000Y-75773000D02*
X35931000Y-75726000D01*
X38069000Y-73195000D02*
X38023000Y-73148000D01*
X38275000Y-72990000D02*
X38239000Y-72955000D01*
X35761000Y-70886000D02*
X35726000Y-70851000D01*
X35977000Y-70693000D02*
X35931000Y-70646000D01*
X32340000Y-64240000D02*
X32340000Y-89760000D01*
X32900000Y-64240000D02*
X32900000Y-89760000D01*
X34400000Y-64240000D02*
X34400000Y-89760000D01*
X39301000Y-64240000D02*
X39301000Y-89760000D01*
X42261000Y-64240000D02*
X42261000Y-89760000D01*
X42261000Y-64240000D02*
X32340000Y-64240000D01*
X32100000Y-64000000D02*
X32100000Y-64500000D01*
X32840000Y-64000000D02*
X32100000Y-64000000D01*
%TO.C,J11*%
X119180000Y-67920000D02*
G75*
G02*
X115820000Y-67920000I-1680000J0D01*
G01*
X115820000Y-67920000D02*
G75*
G02*
X119180000Y-67920000I1680000J0D01*
G01*
X116816958Y-71464573D02*
G75*
G02*
X118184000Y-71465000I683042J-1535427D01*
G01*
X119034756Y-72316682D02*
G75*
G02*
X119180000Y-73000000I-1534756J-683318D01*
G01*
X119180253Y-72971195D02*
G75*
G02*
X119035000Y-73684000I-1680254J-28806D01*
G01*
X115964573Y-73683042D02*
G75*
G02*
X115965000Y-72316000I1535420J683041D01*
G01*
X118183042Y-74535427D02*
G75*
G02*
X116816000Y-74535000I-683041J1535420D01*
G01*
X112239000Y-65320000D02*
X122160000Y-65320000D01*
X116431000Y-66645000D02*
X116477000Y-66692000D01*
X116225000Y-66850000D02*
X116261000Y-66885000D01*
X118739000Y-68954000D02*
X118774000Y-68989000D01*
X118523000Y-69147000D02*
X118569000Y-69194000D01*
X122160000Y-75600000D02*
X122160000Y-65320000D01*
X121600000Y-75600000D02*
X121600000Y-65320000D01*
X120100000Y-75600000D02*
X120100000Y-65320000D01*
X115199000Y-75600000D02*
X115199000Y-65320000D01*
X112239000Y-75600000D02*
X112239000Y-65320000D01*
X112239000Y-75600000D02*
X122160000Y-75600000D01*
X122400000Y-75840000D02*
X122400000Y-75340000D01*
X121660000Y-75840000D02*
X122400000Y-75840000D01*
%TO.C,J24*%
X118340000Y-123500000D02*
G75*
G02*
X114980000Y-123500000I-1680000J0D01*
G01*
X114980000Y-123500000D02*
G75*
G02*
X118340000Y-123500000I1680000J0D01*
G01*
X113260000Y-123500000D02*
G75*
G02*
X109900000Y-123500000I-1680000J0D01*
G01*
X109900000Y-123500000D02*
G75*
G02*
X113260000Y-123500000I1680000J0D01*
G01*
X108180000Y-123500000D02*
G75*
G02*
X104820000Y-123500000I-1680000J0D01*
G01*
X104820000Y-123500000D02*
G75*
G02*
X108180000Y-123500000I1680000J0D01*
G01*
X102955427Y-122816958D02*
G75*
G02*
X102955000Y-124184000I-1535427J-683042D01*
G01*
X102103318Y-125034756D02*
G75*
G02*
X101420000Y-125180000I-683318J1534756D01*
G01*
X101448805Y-125180253D02*
G75*
G02*
X100736000Y-125035000I-28806J1680254D01*
G01*
X100736958Y-121964573D02*
G75*
G02*
X102104000Y-121965000I683041J-1535420D01*
G01*
X99884573Y-124183042D02*
G75*
G02*
X99885000Y-122816000I1535420J683041D01*
G01*
X119260000Y-118239000D02*
X119260000Y-128160000D01*
X117935000Y-122431000D02*
X117888000Y-122477000D01*
X117730000Y-122225000D02*
X117695000Y-122261000D01*
X115626000Y-124739000D02*
X115591000Y-124774000D01*
X115433000Y-124523000D02*
X115386000Y-124569000D01*
X112855000Y-122431000D02*
X112808000Y-122477000D01*
X112650000Y-122225000D02*
X112615000Y-122261000D01*
X110546000Y-124739000D02*
X110511000Y-124774000D01*
X110353000Y-124523000D02*
X110306000Y-124569000D01*
X107775000Y-122431000D02*
X107728000Y-122477000D01*
X107570000Y-122225000D02*
X107535000Y-122261000D01*
X105466000Y-124739000D02*
X105431000Y-124774000D01*
X105273000Y-124523000D02*
X105226000Y-124569000D01*
X98820000Y-128160000D02*
X119260000Y-128160000D01*
X98820000Y-127600000D02*
X119260000Y-127600000D01*
X98820000Y-126100000D02*
X119260000Y-126100000D01*
X98820000Y-121199000D02*
X119260000Y-121199000D01*
X98820000Y-118239000D02*
X119260000Y-118239000D01*
X98820000Y-118239000D02*
X98820000Y-128160000D01*
X98580000Y-128400000D02*
X99080000Y-128400000D01*
X98580000Y-127660000D02*
X98580000Y-128400000D01*
%TO.C,C2*%
X63201248Y-40265000D02*
X63723752Y-40265000D01*
X63201248Y-41735000D02*
X63723752Y-41735000D01*
%TO.C,R5*%
X72772936Y-82765000D02*
X73227064Y-82765000D01*
X72772936Y-84235000D02*
X73227064Y-84235000D01*
%TO.C,R6*%
X67772936Y-82765000D02*
X68227064Y-82765000D01*
X67772936Y-84235000D02*
X68227064Y-84235000D01*
%TO.C,Q1*%
X70200276Y-92190225D02*
X71112443Y-93102393D01*
X71190225Y-91200276D02*
X70200276Y-92190225D01*
X72102393Y-92112443D02*
X71190225Y-91200276D01*
X72102393Y-92112443D02*
G75*
G02*
X71112574Y-93102180I1582331J-2572281D01*
G01*
%TO.C,J7*%
X118680000Y-113820000D02*
G75*
G02*
X115320000Y-113820000I-1680000J0D01*
G01*
X115320000Y-113820000D02*
G75*
G02*
X118680000Y-113820000I1680000J0D01*
G01*
X118680000Y-108740000D02*
G75*
G02*
X115320000Y-108740000I-1680000J0D01*
G01*
X115320000Y-108740000D02*
G75*
G02*
X118680000Y-108740000I1680000J0D01*
G01*
X118680000Y-103660000D02*
G75*
G02*
X115320000Y-103660000I-1680000J0D01*
G01*
X115320000Y-103660000D02*
G75*
G02*
X118680000Y-103660000I1680000J0D01*
G01*
X118680000Y-98580000D02*
G75*
G02*
X115320000Y-98580000I-1680000J0D01*
G01*
X115320000Y-98580000D02*
G75*
G02*
X118680000Y-98580000I1680000J0D01*
G01*
X118535427Y-92816958D02*
G75*
G02*
X118535000Y-94184000I-1535420J-683041D01*
G01*
X117683042Y-95035427D02*
G75*
G02*
X116316000Y-95035000I-683042J1535427D01*
G01*
X116316958Y-91964573D02*
G75*
G02*
X117684000Y-91965000I683041J-1535420D01*
G01*
X115465244Y-94183318D02*
G75*
G02*
X115320000Y-93500000I1534756J683318D01*
G01*
X115319747Y-93528805D02*
G75*
G02*
X115465000Y-92816000I1680254J28806D01*
G01*
X122261000Y-116420000D02*
X112340000Y-116420000D01*
X122261000Y-90900000D02*
X122261000Y-116420000D01*
X122261000Y-90900000D02*
X112340000Y-90900000D01*
X119301000Y-90900000D02*
X119301000Y-116420000D01*
X118275000Y-114890000D02*
X118239000Y-114855000D01*
X118275000Y-109810000D02*
X118239000Y-109775000D01*
X118275000Y-104730000D02*
X118239000Y-104695000D01*
X118275000Y-99650000D02*
X118239000Y-99615000D01*
X118069000Y-115095000D02*
X118023000Y-115048000D01*
X118069000Y-110015000D02*
X118023000Y-109968000D01*
X118069000Y-104935000D02*
X118023000Y-104888000D01*
X118069000Y-99855000D02*
X118023000Y-99808000D01*
X115977000Y-112593000D02*
X115931000Y-112546000D01*
X115977000Y-107513000D02*
X115931000Y-107466000D01*
X115977000Y-102433000D02*
X115931000Y-102386000D01*
X115977000Y-97353000D02*
X115931000Y-97306000D01*
X115761000Y-112786000D02*
X115726000Y-112751000D01*
X115761000Y-107706000D02*
X115726000Y-107671000D01*
X115761000Y-102626000D02*
X115726000Y-102591000D01*
X115761000Y-97546000D02*
X115726000Y-97511000D01*
X114400000Y-90900000D02*
X114400000Y-116420000D01*
X112900000Y-90900000D02*
X112900000Y-116420000D01*
X112840000Y-90660000D02*
X112100000Y-90660000D01*
X112340000Y-90900000D02*
X112340000Y-116420000D01*
X112100000Y-90660000D02*
X112100000Y-91160000D01*
%TO.C,TP4*%
X104050000Y-47550000D02*
X106950000Y-47550000D01*
X104050000Y-50450000D02*
X104050000Y-47550000D01*
X106950000Y-47550000D02*
X106950000Y-50450000D01*
X106950000Y-50450000D02*
X104050000Y-50450000D01*
%TO.C,R4*%
X61772936Y-84265000D02*
X62227064Y-84265000D01*
X61772936Y-85735000D02*
X62227064Y-85735000D01*
%TO.C,JP1*%
X58750000Y-85950000D02*
X53250000Y-85950000D01*
X58750000Y-84000000D02*
X58750000Y-85950000D01*
X54900000Y-86500000D02*
X54600000Y-86200000D01*
X54600000Y-86200000D02*
X54300000Y-86500000D01*
X54300000Y-86500000D02*
X54900000Y-86500000D01*
X53250000Y-85950000D02*
X53250000Y-84000000D01*
X53250000Y-84000000D02*
X58750000Y-84000000D01*
%TO.C,R27*%
X96272936Y-78215000D02*
X96727064Y-78215000D01*
X96272936Y-79685000D02*
X96727064Y-79685000D01*
%TO.C,R1*%
X54772936Y-67765000D02*
X55227064Y-67765000D01*
X54772936Y-69235000D02*
X55227064Y-69235000D01*
%TO.C,J12*%
X57000000Y-123500000D02*
G75*
G02*
X53640000Y-123500000I-1680000J0D01*
G01*
X53640000Y-123500000D02*
G75*
G02*
X57000000Y-123500000I1680000J0D01*
G01*
X51920000Y-123500000D02*
G75*
G02*
X48560000Y-123500000I-1680000J0D01*
G01*
X48560000Y-123500000D02*
G75*
G02*
X51920000Y-123500000I1680000J0D01*
G01*
X46840000Y-123500000D02*
G75*
G02*
X43480000Y-123500000I-1680000J0D01*
G01*
X43480000Y-123500000D02*
G75*
G02*
X46840000Y-123500000I1680000J0D01*
G01*
X41760000Y-123500000D02*
G75*
G02*
X38400000Y-123500000I-1680000J0D01*
G01*
X38400000Y-123500000D02*
G75*
G02*
X41760000Y-123500000I1680000J0D01*
G01*
X36535427Y-122816958D02*
G75*
G02*
X36535000Y-124184000I-1535427J-683042D01*
G01*
X35683318Y-125034756D02*
G75*
G02*
X35000000Y-125180000I-683318J1534756D01*
G01*
X35028805Y-125180253D02*
G75*
G02*
X34316000Y-125035000I-28806J1680254D01*
G01*
X34316958Y-121964573D02*
G75*
G02*
X35684000Y-121965000I683041J-1535420D01*
G01*
X33464573Y-124183042D02*
G75*
G02*
X33465000Y-122816000I1535420J683041D01*
G01*
X57920000Y-118239000D02*
X57920000Y-128160000D01*
X56595000Y-122431000D02*
X56548000Y-122477000D01*
X56390000Y-122225000D02*
X56355000Y-122261000D01*
X54286000Y-124739000D02*
X54251000Y-124774000D01*
X54093000Y-124523000D02*
X54046000Y-124569000D01*
X51515000Y-122431000D02*
X51468000Y-122477000D01*
X51310000Y-122225000D02*
X51275000Y-122261000D01*
X49206000Y-124739000D02*
X49171000Y-124774000D01*
X49013000Y-124523000D02*
X48966000Y-124569000D01*
X46435000Y-122431000D02*
X46388000Y-122477000D01*
X46230000Y-122225000D02*
X46195000Y-122261000D01*
X44126000Y-124739000D02*
X44091000Y-124774000D01*
X43933000Y-124523000D02*
X43886000Y-124569000D01*
X41355000Y-122431000D02*
X41308000Y-122477000D01*
X41150000Y-122225000D02*
X41115000Y-122261000D01*
X39046000Y-124739000D02*
X39011000Y-124774000D01*
X38853000Y-124523000D02*
X38806000Y-124569000D01*
X32400000Y-128160000D02*
X57920000Y-128160000D01*
X32400000Y-127600000D02*
X57920000Y-127600000D01*
X32400000Y-126100000D02*
X57920000Y-126100000D01*
X32400000Y-121199000D02*
X57920000Y-121199000D01*
X32400000Y-118239000D02*
X57920000Y-118239000D01*
X32400000Y-118239000D02*
X32400000Y-128160000D01*
X32160000Y-128400000D02*
X32660000Y-128400000D01*
X32160000Y-127660000D02*
X32160000Y-128400000D01*
%TO.C,D4*%
X108350000Y-64560000D02*
X109650000Y-64560000D01*
X109650000Y-61440000D02*
X108380000Y-61440000D01*
X108000000Y-61490000D02*
X107760000Y-61160000D01*
X108240000Y-61160000D01*
X108000000Y-61490000D01*
G36*
X108000000Y-61490000D02*
G01*
X107760000Y-61160000D01*
X108240000Y-61160000D01*
X108000000Y-61490000D01*
G37*
%TO.C,R21*%
X107772936Y-74265000D02*
X108227064Y-74265000D01*
X107772936Y-75735000D02*
X108227064Y-75735000D01*
%TO.C,U1*%
X71700000Y-29740000D02*
X71700000Y-35940000D01*
X71700000Y-29740000D02*
X90100000Y-29740000D01*
X71700000Y-54590000D02*
X71700000Y-55590000D01*
X71700000Y-55590000D02*
X73200000Y-55590000D01*
X90100000Y-29740000D02*
X90100000Y-35940000D01*
X90100000Y-55590000D02*
X88600000Y-55590000D01*
X90100000Y-55590000D02*
X90100000Y-54590000D01*
X71700000Y-36615000D02*
X71200000Y-36615000D01*
X71700000Y-36115000D01*
X71700000Y-36615000D01*
G36*
X71700000Y-36615000D02*
G01*
X71200000Y-36615000D01*
X71700000Y-36115000D01*
X71700000Y-36615000D01*
G37*
%TO.C,R3*%
X55360436Y-88265000D02*
X55814564Y-88265000D01*
X55360436Y-89735000D02*
X55814564Y-89735000D01*
%TO.C,R7*%
X67772936Y-86765000D02*
X68227064Y-86765000D01*
X67772936Y-88235000D02*
X68227064Y-88235000D01*
%TO.C,C16*%
X80223752Y-72735000D02*
X79701248Y-72735000D01*
X80223752Y-71265000D02*
X79701248Y-71265000D01*
%TO.C,C4*%
X71776248Y-67265000D02*
X72298752Y-67265000D01*
X71776248Y-68735000D02*
X72298752Y-68735000D01*
%TO.C,TP5*%
X84550000Y-93050000D02*
X87450000Y-93050000D01*
X84550000Y-95950000D02*
X84550000Y-93050000D01*
X87450000Y-93050000D02*
X87450000Y-95950000D01*
X87450000Y-95950000D02*
X84550000Y-95950000D01*
%TO.C,C17*%
X79701248Y-66265000D02*
X80223752Y-66265000D01*
X79701248Y-67735000D02*
X80223752Y-67735000D01*
D12*
%TO.C,U6*%
X86323600Y-61323600D02*
X86323600Y-61565659D01*
X86323600Y-64434341D02*
X86323600Y-64676400D01*
X86323600Y-64676400D02*
X86565659Y-64676400D01*
X86565659Y-61323600D02*
X86323600Y-61323600D01*
X89434341Y-64676400D02*
X89676400Y-64676400D01*
X89676400Y-61323600D02*
X89434341Y-61323600D01*
X89676400Y-61565659D02*
X89676400Y-61323600D01*
X89676400Y-64676400D02*
X89676400Y-64434341D01*
D13*
G36*
X88390500Y-65362200D02*
G01*
X88009500Y-65362200D01*
X88009500Y-65108200D01*
X88390500Y-65108200D01*
X88390500Y-65362200D01*
G37*
G36*
X88790499Y-60891800D02*
G01*
X88409499Y-60891800D01*
X88409499Y-60637800D01*
X88790499Y-60637800D01*
X88790499Y-60891800D01*
G37*
D11*
%TO.C,U2*%
X108700000Y-59590000D02*
X108220000Y-59590000D01*
X108460000Y-59260000D01*
X108700000Y-59590000D01*
G36*
X108700000Y-59590000D02*
G01*
X108220000Y-59590000D01*
X108460000Y-59260000D01*
X108700000Y-59590000D01*
G37*
X104240000Y-55040000D02*
X104240000Y-55515000D01*
X104240000Y-59260000D02*
X104240000Y-58785000D01*
X104715000Y-55040000D02*
X104240000Y-55040000D01*
X104715000Y-59260000D02*
X104240000Y-59260000D01*
X107985000Y-55040000D02*
X108460000Y-55040000D01*
X107985000Y-59260000D02*
X108160000Y-59260000D01*
X108460000Y-55040000D02*
X108460000Y-55515000D01*
X108460000Y-58785000D02*
X108460000Y-59020000D01*
%TO.C,TP1*%
X90050000Y-77050000D02*
X92950000Y-77050000D01*
X90050000Y-79950000D02*
X90050000Y-77050000D01*
X92950000Y-77050000D02*
X92950000Y-79950000D01*
X92950000Y-79950000D02*
X90050000Y-79950000D01*
%TO.C,C6*%
X100235000Y-56276248D02*
X100235000Y-56798752D01*
X98765000Y-56276248D02*
X98765000Y-56798752D01*
%TO.C,R24*%
X103772936Y-77765000D02*
X104227064Y-77765000D01*
X103772936Y-79235000D02*
X104227064Y-79235000D01*
%TO.C,TP6*%
X56050000Y-57050000D02*
X58950000Y-57050000D01*
X56050000Y-59950000D02*
X56050000Y-57050000D01*
X58950000Y-57050000D02*
X58950000Y-59950000D01*
X58950000Y-59950000D02*
X56050000Y-59950000D01*
%TO.C,R8*%
X72772936Y-86765000D02*
X73227064Y-86765000D01*
X72772936Y-88235000D02*
X73227064Y-88235000D01*
%TO.C,TP9*%
X56050000Y-62050000D02*
X58950000Y-62050000D01*
X56050000Y-64950000D02*
X56050000Y-62050000D01*
X58950000Y-62050000D02*
X58950000Y-64950000D01*
X58950000Y-64950000D02*
X56050000Y-64950000D01*
%TO.C,J10*%
X61390000Y-108330000D02*
X61390000Y-107000000D01*
X62720000Y-108330000D02*
X61390000Y-108330000D01*
X63990000Y-108330000D02*
X84370000Y-108330000D01*
X63990000Y-108330000D02*
X63990000Y-105670000D01*
X84370000Y-108330000D02*
X84370000Y-105670000D01*
X63990000Y-105670000D02*
X84370000Y-105670000D01*
%TO.C,R2*%
X67772936Y-67265000D02*
X68227064Y-67265000D01*
X67772936Y-68735000D02*
X68227064Y-68735000D01*
%TO.C,TP3*%
X100050000Y-47550000D02*
X102950000Y-47550000D01*
X100050000Y-50450000D02*
X100050000Y-47550000D01*
X102950000Y-47550000D02*
X102950000Y-50450000D01*
X102950000Y-50450000D02*
X100050000Y-50450000D01*
%TO.C,TP2*%
X85550000Y-77050000D02*
X88450000Y-77050000D01*
X85550000Y-79950000D02*
X85550000Y-77050000D01*
X88450000Y-77050000D02*
X88450000Y-79950000D01*
X88450000Y-79950000D02*
X85550000Y-79950000D01*
%TO.C,Q2*%
X61200276Y-92190225D02*
X62112443Y-93102393D01*
X62190225Y-91200276D02*
X61200276Y-92190225D01*
X63102393Y-92112443D02*
X62190225Y-91200276D01*
X63102393Y-92112443D02*
G75*
G02*
X62112574Y-93102180I1582331J-2572281D01*
G01*
%TO.C,R25*%
X96272936Y-72315000D02*
X96727064Y-72315000D01*
X96272936Y-73785000D02*
X96727064Y-73785000D01*
%TO.C,C15*%
X80223752Y-62735000D02*
X79701248Y-62735000D01*
X80223752Y-61265000D02*
X79701248Y-61265000D01*
%TO.C,C1*%
X63201248Y-44265000D02*
X63723752Y-44265000D01*
X63201248Y-45735000D02*
X63723752Y-45735000D01*
%TO.C,C5*%
X112235000Y-53276248D02*
X112235000Y-53798752D01*
X110765000Y-53276248D02*
X110765000Y-53798752D01*
%TO.C,R26*%
X96272936Y-75265000D02*
X96727064Y-75265000D01*
X96272936Y-76735000D02*
X96727064Y-76735000D01*
%TO.C,R22*%
X107772936Y-77765000D02*
X108227064Y-77765000D01*
X107772936Y-79235000D02*
X108227064Y-79235000D01*
%TO.C,R23*%
X103772936Y-74265000D02*
X104227064Y-74265000D01*
X103772936Y-75735000D02*
X104227064Y-75735000D01*
%TO.C,C3*%
X58776248Y-69235000D02*
X59298752Y-69235000D01*
X58776248Y-67765000D02*
X59298752Y-67765000D01*
%TO.C,J2*%
X120540000Y-53065000D02*
X120800000Y-53065000D01*
X116490000Y-53065000D02*
X118260000Y-53065000D01*
X116490000Y-53065000D02*
X116490000Y-53445000D01*
X120800000Y-60685000D02*
X120540000Y-60685000D01*
X118260000Y-60685000D02*
X116490000Y-60685000D01*
X116490000Y-60685000D02*
X116490000Y-60305000D01*
%TO.C,J14*%
X38680000Y-114240000D02*
G75*
G02*
X35320000Y-114240000I-1680000J0D01*
G01*
X35320000Y-114240000D02*
G75*
G02*
X38680000Y-114240000I1680000J0D01*
G01*
X38680000Y-109160000D02*
G75*
G02*
X35320000Y-109160000I-1680000J0D01*
G01*
X35320000Y-109160000D02*
G75*
G02*
X38680000Y-109160000I1680000J0D01*
G01*
X38680000Y-104080000D02*
G75*
G02*
X35320000Y-104080000I-1680000J0D01*
G01*
X35320000Y-104080000D02*
G75*
G02*
X38680000Y-104080000I1680000J0D01*
G01*
X38680000Y-99000000D02*
G75*
G02*
X35320000Y-99000000I-1680000J0D01*
G01*
X35320000Y-99000000D02*
G75*
G02*
X38680000Y-99000000I1680000J0D01*
G01*
X37683042Y-95455427D02*
G75*
G02*
X36316000Y-95455000I-683042J1535427D01*
G01*
X35465244Y-94603318D02*
G75*
G02*
X35320000Y-93920000I1534756J683318D01*
G01*
X35319747Y-93948805D02*
G75*
G02*
X35465000Y-93236000I1680254J28806D01*
G01*
X38535427Y-93236958D02*
G75*
G02*
X38535000Y-94604000I-1535420J-683041D01*
G01*
X36316958Y-92384573D02*
G75*
G02*
X37684000Y-92385000I683041J-1535420D01*
G01*
X42261000Y-116840000D02*
X32340000Y-116840000D01*
X38069000Y-115515000D02*
X38023000Y-115468000D01*
X38275000Y-115310000D02*
X38239000Y-115275000D01*
X35761000Y-113206000D02*
X35726000Y-113171000D01*
X35977000Y-113013000D02*
X35931000Y-112966000D01*
X38069000Y-110435000D02*
X38023000Y-110388000D01*
X38275000Y-110230000D02*
X38239000Y-110195000D01*
X35761000Y-108126000D02*
X35726000Y-108091000D01*
X35977000Y-107933000D02*
X35931000Y-107886000D01*
X38069000Y-105355000D02*
X38023000Y-105308000D01*
X38275000Y-105150000D02*
X38239000Y-105115000D01*
X35761000Y-103046000D02*
X35726000Y-103011000D01*
X35977000Y-102853000D02*
X35931000Y-102806000D01*
X38069000Y-100275000D02*
X38023000Y-100228000D01*
X38275000Y-100070000D02*
X38239000Y-100035000D01*
X35761000Y-97966000D02*
X35726000Y-97931000D01*
X35977000Y-97773000D02*
X35931000Y-97726000D01*
X32340000Y-91320000D02*
X32340000Y-116840000D01*
X32900000Y-91320000D02*
X32900000Y-116840000D01*
X34400000Y-91320000D02*
X34400000Y-116840000D01*
X39301000Y-91320000D02*
X39301000Y-116840000D01*
X42261000Y-91320000D02*
X42261000Y-116840000D01*
X42261000Y-91320000D02*
X32340000Y-91320000D01*
X32100000Y-91080000D02*
X32100000Y-91580000D01*
X32840000Y-91080000D02*
X32100000Y-91080000D01*
%TO.C,TP7*%
X56050000Y-51550000D02*
X58950000Y-51550000D01*
X56050000Y-54450000D02*
X56050000Y-51550000D01*
X58950000Y-51550000D02*
X58950000Y-54450000D01*
X58950000Y-54450000D02*
X56050000Y-54450000D01*
%TD*%
M02*
