%TF.GenerationSoftware,KiCad,Pcbnew,8.0.5*%
%TF.CreationDate,2024-11-24T13:49:31-06:00*%
%TF.ProjectId,Autonomous_Gardening_Rover_v2,4175746f-6e6f-46d6-9f75-735f47617264,rev?*%
%TF.SameCoordinates,Original*%
%TF.FileFunction,Copper,L1,Top*%
%TF.FilePolarity,Positive*%
%FSLAX46Y46*%
G04 Gerber Fmt 4.6, Leading zero omitted, Abs format (unit mm)*
G04 Created by KiCad (PCBNEW 8.0.5) date 2024-11-24 13:49:31*
%MOMM*%
%LPD*%
G01*
G04 APERTURE LIST*
G04 Aperture macros list*
%AMRoundRect*
0 Rectangle with rounded corners*
0 $1 Rounding radius*
0 $2 $3 $4 $5 $6 $7 $8 $9 X,Y pos of 4 corners*
0 Add a 4 corners polygon primitive as box body*
4,1,4,$2,$3,$4,$5,$6,$7,$8,$9,$2,$3,0*
0 Add four circle primitives for the rounded corners*
1,1,$1+$1,$2,$3*
1,1,$1+$1,$4,$5*
1,1,$1+$1,$6,$7*
1,1,$1+$1,$8,$9*
0 Add four rect primitives between the rounded corners*
20,1,$1+$1,$2,$3,$4,$5,0*
20,1,$1+$1,$4,$5,$6,$7,0*
20,1,$1+$1,$6,$7,$8,$9,0*
20,1,$1+$1,$8,$9,$2,$3,0*%
%AMFreePoly0*
4,1,6,1.000000,0.000000,0.500000,-0.750000,-0.500000,-0.750000,-0.500000,0.750000,0.500000,0.750000,1.000000,0.000000,1.000000,0.000000,$1*%
%AMFreePoly1*
4,1,7,0.700000,0.000000,1.200000,-0.750000,-1.200000,-0.750000,-0.700000,0.000000,-1.200000,0.750000,1.200000,0.750000,0.700000,0.000000,0.700000,0.000000,$1*%
G04 Aperture macros list end*
%TA.AperFunction,ComponentPad*%
%ADD10R,2.600000X2.600000*%
%TD*%
%TA.AperFunction,ComponentPad*%
%ADD11C,2.600000*%
%TD*%
%TA.AperFunction,ComponentPad*%
%ADD12R,1.700000X1.700000*%
%TD*%
%TA.AperFunction,ComponentPad*%
%ADD13O,1.700000X1.700000*%
%TD*%
%TA.AperFunction,SMDPad,CuDef*%
%ADD14R,1.498600X0.812800*%
%TD*%
%TA.AperFunction,SMDPad,CuDef*%
%ADD15R,0.812800X1.498600*%
%TD*%
%TA.AperFunction,SMDPad,CuDef*%
%ADD16R,0.889000X0.889000*%
%TD*%
%TA.AperFunction,SMDPad,CuDef*%
%ADD17R,0.558800X1.219200*%
%TD*%
%TA.AperFunction,SMDPad,CuDef*%
%ADD18RoundRect,0.250000X-0.337500X-0.475000X0.337500X-0.475000X0.337500X0.475000X-0.337500X0.475000X0*%
%TD*%
%TA.AperFunction,SMDPad,CuDef*%
%ADD19RoundRect,0.250000X-0.350000X-0.450000X0.350000X-0.450000X0.350000X0.450000X-0.350000X0.450000X0*%
%TD*%
%TA.AperFunction,SMDPad,CuDef*%
%ADD20RoundRect,0.250000X0.337500X0.475000X-0.337500X0.475000X-0.337500X-0.475000X0.337500X-0.475000X0*%
%TD*%
%TA.AperFunction,SMDPad,CuDef*%
%ADD21RoundRect,0.250000X0.475000X-0.337500X0.475000X0.337500X-0.475000X0.337500X-0.475000X-0.337500X0*%
%TD*%
%TA.AperFunction,SMDPad,CuDef*%
%ADD22FreePoly0,0.000000*%
%TD*%
%TA.AperFunction,SMDPad,CuDef*%
%ADD23FreePoly1,0.000000*%
%TD*%
%TA.AperFunction,SMDPad,CuDef*%
%ADD24FreePoly0,180.000000*%
%TD*%
%TA.AperFunction,SMDPad,CuDef*%
%ADD25RoundRect,0.175000X0.175000X0.325000X-0.175000X0.325000X-0.175000X-0.325000X0.175000X-0.325000X0*%
%TD*%
%TA.AperFunction,SMDPad,CuDef*%
%ADD26RoundRect,0.150000X0.200000X0.150000X-0.200000X0.150000X-0.200000X-0.150000X0.200000X-0.150000X0*%
%TD*%
%TA.AperFunction,SMDPad,CuDef*%
%ADD27RoundRect,0.250000X0.262500X0.450000X-0.262500X0.450000X-0.262500X-0.450000X0.262500X-0.450000X0*%
%TD*%
%TA.AperFunction,SMDPad,CuDef*%
%ADD28RoundRect,0.062500X0.350000X0.062500X-0.350000X0.062500X-0.350000X-0.062500X0.350000X-0.062500X0*%
%TD*%
%TA.AperFunction,SMDPad,CuDef*%
%ADD29RoundRect,0.062500X0.062500X0.350000X-0.062500X0.350000X-0.062500X-0.350000X0.062500X-0.350000X0*%
%TD*%
%TA.AperFunction,HeatsinkPad*%
%ADD30R,2.600000X2.600000*%
%TD*%
%TA.AperFunction,SMDPad,CuDef*%
%ADD31RoundRect,0.250000X0.350000X0.450000X-0.350000X0.450000X-0.350000X-0.450000X0.350000X-0.450000X0*%
%TD*%
%TA.AperFunction,ComponentPad*%
%ADD32C,2.000000*%
%TD*%
%TA.AperFunction,SMDPad,CuDef*%
%ADD33R,1.380000X0.450000*%
%TD*%
%TA.AperFunction,SMDPad,CuDef*%
%ADD34R,1.300000X1.650000*%
%TD*%
%TA.AperFunction,SMDPad,CuDef*%
%ADD35R,1.550000X1.425000*%
%TD*%
%TA.AperFunction,SMDPad,CuDef*%
%ADD36R,1.900000X1.800000*%
%TD*%
%TA.AperFunction,SMDPad,CuDef*%
%ADD37R,1.900000X1.000000*%
%TD*%
%TA.AperFunction,ViaPad*%
%ADD38C,0.600000*%
%TD*%
%TA.AperFunction,Conductor*%
%ADD39C,0.508000*%
%TD*%
%TA.AperFunction,Conductor*%
%ADD40C,0.127000*%
%TD*%
%TA.AperFunction,Conductor*%
%ADD41C,1.016000*%
%TD*%
G04 APERTURE END LIST*
D10*
%TO.P,J8,1,Pin_1*%
%TO.N,GND*%
X57305000Y-105545000D03*
D11*
%TO.P,J8,2,Pin_2*%
%TO.N,+3V3*%
X57305000Y-100465000D03*
%TD*%
D12*
%TO.P,J1,1,Pin_1*%
%TO.N,/MOTOR2PWM*%
X66280000Y-80200000D03*
D13*
%TO.P,J1,2,Pin_2*%
%TO.N,/MOTOR2ENA*%
X63740000Y-80200000D03*
%TO.P,J1,3,Pin_3*%
%TO.N,/MOTOR2ENB*%
X61200000Y-80200000D03*
%TD*%
D14*
%TO.P,U3,1,GND*%
%TO.N,GND*%
X84394500Y-84740000D03*
%TO.P,U3,2,3V3*%
%TO.N,+3V3*%
X84394500Y-86010000D03*
%TO.P,U3,3,EN*%
%TO.N,/CHIP_PU*%
X84394500Y-87280000D03*
%TO.P,U3,4,IO4*%
%TO.N,/MOTOR1ENA*%
X84394500Y-88550000D03*
%TO.P,U3,5,IO5*%
%TO.N,/MOTOR1ENB*%
X84394500Y-89820000D03*
%TO.P,U3,6,IO6*%
%TO.N,/MOTOR2ENA*%
X84394500Y-91090000D03*
%TO.P,U3,7,IO7*%
%TO.N,/MOTOR2ENB*%
X84394500Y-92360000D03*
%TO.P,U3,8,IO15*%
%TO.N,/MOTOR3ENA*%
X84394500Y-93630000D03*
%TO.P,U3,9,IO16*%
%TO.N,/MOTOR3ENB*%
X84394500Y-94900000D03*
%TO.P,U3,10,IO17*%
%TO.N,/MOTOR4ENA*%
X84394500Y-96170000D03*
%TO.P,U3,11,IO18*%
%TO.N,/MOTOR4ENB*%
X84394500Y-97440000D03*
%TO.P,U3,12,IO8*%
%TO.N,/GPIO8*%
X84394500Y-98710000D03*
%TO.P,U3,13,IO19*%
%TO.N,/GPIO19*%
X84394500Y-99980000D03*
%TO.P,U3,14,IO20*%
%TO.N,/GPIO20*%
X84394500Y-101250000D03*
D15*
%TO.P,U3,15,IO3*%
%TO.N,/GPIO3_STRAPPING*%
X86159500Y-102500000D03*
%TO.P,U3,16,IO46*%
%TO.N,/GPIO46_STRAPPING*%
X87429500Y-102500000D03*
%TO.P,U3,17,IO9*%
%TO.N,/UWBMOSI*%
X88699500Y-102500000D03*
%TO.P,U3,18,IO10*%
%TO.N,/UWBCLK*%
X89969500Y-102500000D03*
%TO.P,U3,19,IO11*%
%TO.N,/UWBMISO*%
X91239500Y-102500000D03*
%TO.P,U3,20,IO12*%
%TO.N,/UWBCS*%
X92509500Y-102500000D03*
%TO.P,U3,21,IO13*%
%TO.N,/UWBINT*%
X93779500Y-102500000D03*
%TO.P,U3,22,IO14*%
%TO.N,/MOSITURE_SENSOR_OUTPUT*%
X95049500Y-102500000D03*
%TO.P,U3,23,IO21*%
%TO.N,/pH_Sensor*%
X96319500Y-102500000D03*
%TO.P,U3,24,IO47*%
%TO.N,/temp_Sensor*%
X97589500Y-102500000D03*
%TO.P,U3,25,IO48*%
%TO.N,/GPIO48*%
X98859500Y-102500000D03*
%TO.P,U3,26,IO45*%
%TO.N,/GPIO45*%
X100129500Y-102500000D03*
D14*
%TO.P,U3,27,IO0*%
%TO.N,/GPIO0_STRAPPING*%
X101894500Y-101250000D03*
%TO.P,U3,28,IO35*%
%TO.N,/MOTOR4PWM*%
X101894500Y-99980000D03*
%TO.P,U3,29,IO36*%
%TO.N,/MOTOR3PWM*%
X101894500Y-98710000D03*
%TO.P,U3,30,IO37*%
%TO.N,/MOTOR2PWM*%
X101894500Y-97440000D03*
%TO.P,U3,31,IO38*%
%TO.N,/MOTOR1PWM*%
X101894500Y-96170000D03*
%TO.P,U3,32,IO39*%
%TO.N,/GPIO39*%
X101894500Y-94900000D03*
%TO.P,U3,33,IO40*%
%TO.N,/GPIO40*%
X101894500Y-93630000D03*
%TO.P,U3,34,IO41*%
%TO.N,/LINACT-*%
X101894500Y-92360000D03*
%TO.P,U3,35,IO42*%
%TO.N,/LINACT+*%
X101894500Y-91090000D03*
%TO.P,U3,36,RXD0*%
%TO.N,/TXD*%
X101894500Y-89820000D03*
%TO.P,U3,37,TXD0*%
%TO.N,/RXD*%
X101894500Y-88550000D03*
%TO.P,U3,38,IO2*%
%TO.N,/GPIO2*%
X101894500Y-87280000D03*
%TO.P,U3,39,IO1*%
%TO.N,/GPIO1*%
X101894500Y-86010000D03*
%TO.P,U3,40,GND*%
%TO.N,GND*%
X101894500Y-84740000D03*
D16*
%TO.P,U3,41,GND*%
X91644500Y-92460000D03*
%TO.P,U3,42*%
%TO.N,N/C*%
X90244500Y-91060000D03*
%TO.P,U3,43*%
X90244500Y-92460000D03*
%TO.P,U3,44*%
X90244500Y-93860000D03*
%TO.P,U3,45*%
X91644500Y-93860000D03*
%TO.P,U3,46,GND*%
%TO.N,GND*%
X93044500Y-93860000D03*
%TO.P,U3,47,GND*%
X93044500Y-92460000D03*
%TO.P,U3,48,GND*%
X93044500Y-91060000D03*
%TO.P,U3,49,GND*%
X91644500Y-91060000D03*
%TD*%
D17*
%TO.P,Q2,1,1*%
%TO.N,Net-(Q2-Pad1)*%
X129300000Y-100500000D03*
%TO.P,Q2,2,2*%
%TO.N,/DTR*%
X131200002Y-100500000D03*
%TO.P,Q2,3,3*%
%TO.N,Net-(Q2-Pad3)*%
X130250001Y-98458001D03*
%TD*%
D18*
%TO.P,C3,1*%
%TO.N,/CHIP_PU*%
X102500000Y-106500000D03*
%TO.P,C3,2*%
%TO.N,GND*%
X104575000Y-106500000D03*
%TD*%
D17*
%TO.P,Q1,1,1*%
%TO.N,Net-(Q1-Pad1)*%
X117849999Y-100500000D03*
%TO.P,Q1,2,2*%
%TO.N,/RTS*%
X119750001Y-100500000D03*
%TO.P,Q1,3,3*%
%TO.N,Net-(Q1-Pad3)*%
X118800000Y-98458001D03*
%TD*%
D12*
%TO.P,J11,1,Pin_1*%
%TO.N,/UWBMOSI*%
X58000000Y-111925000D03*
D13*
%TO.P,J11,2,Pin_2*%
%TO.N,/UWBCLK*%
X58000000Y-114465000D03*
%TO.P,J11,3,Pin_3*%
%TO.N,/UWBMISO*%
X58000000Y-117005000D03*
%TO.P,J11,4,Pin_4*%
%TO.N,/UWBCS*%
X58000000Y-119545000D03*
%TO.P,J11,5,Pin_5*%
%TO.N,/UWBINT*%
X58000000Y-122085000D03*
%TD*%
D19*
%TO.P,R1,1*%
%TO.N,+3V3*%
X97500000Y-106500000D03*
%TO.P,R1,2*%
%TO.N,/CHIP_PU*%
X99500000Y-106500000D03*
%TD*%
D10*
%TO.P,J6,1,Pin_1*%
%TO.N,GND*%
X92645000Y-129895000D03*
D11*
%TO.P,J6,2,Pin_2*%
%TO.N,+5V*%
X87565000Y-129895000D03*
%TD*%
D20*
%TO.P,C6,1*%
%TO.N,Net-(U2-VPP)*%
X129100000Y-92800000D03*
%TO.P,C6,2*%
%TO.N,GND*%
X127025000Y-92800000D03*
%TD*%
D21*
%TO.P,C2,1*%
%TO.N,+3V3*%
X79400000Y-82300000D03*
%TO.P,C2,2*%
%TO.N,GND*%
X79400000Y-80225000D03*
%TD*%
D22*
%TO.P,JP1,1,A*%
%TO.N,GND*%
X75800000Y-101300000D03*
D23*
%TO.P,JP1,2,C*%
%TO.N,Net-(JP1-C)*%
X77800000Y-101300000D03*
D24*
%TO.P,JP1,3,B*%
%TO.N,+3V3*%
X79800000Y-101300000D03*
%TD*%
D21*
%TO.P,C1,1*%
%TO.N,+3V3*%
X82000000Y-82300000D03*
%TO.P,C1,2*%
%TO.N,GND*%
X82000000Y-80225000D03*
%TD*%
D19*
%TO.P,R6,1*%
%TO.N,Net-(Q2-Pad1)*%
X123400000Y-103100000D03*
%TO.P,R6,2*%
%TO.N,/RTS*%
X125400000Y-103100000D03*
%TD*%
D25*
%TO.P,D4,1,A*%
%TO.N,GND*%
X137900000Y-97800000D03*
D26*
%TO.P,D4,2,K*%
%TO.N,/D+*%
X137900000Y-96100000D03*
%TO.P,D4,3,K*%
%TO.N,/D-*%
X135900000Y-96100000D03*
%TO.P,D4,4,K*%
%TO.N,+VBUS*%
X135900000Y-98000000D03*
%TD*%
D27*
%TO.P,R3,1*%
%TO.N,/GPIO3_STRAPPING*%
X78700000Y-105200000D03*
%TO.P,R3,2*%
%TO.N,Net-(JP1-C)*%
X76875000Y-105200000D03*
%TD*%
D10*
%TO.P,J3,1,Pin_1*%
%TO.N,GND*%
X57000000Y-93080000D03*
D11*
%TO.P,J3,2,Pin_2*%
%TO.N,+3V3*%
X57000000Y-88000000D03*
%TD*%
D19*
%TO.P,R7,1*%
%TO.N,Net-(Q1-Pad3)*%
X114200000Y-104000000D03*
%TO.P,R7,2*%
%TO.N,/CHIP_PU*%
X116200000Y-104000000D03*
%TD*%
%TO.P,R4,1*%
%TO.N,+3V3*%
X85200000Y-105400000D03*
%TO.P,R4,2*%
%TO.N,/GPIO46_STRAPPING*%
X87200000Y-105400000D03*
%TD*%
D12*
%TO.P,J12,1,Pin_1*%
%TO.N,/GPIO1*%
X120440000Y-129900000D03*
D13*
%TO.P,J12,2,Pin_2*%
%TO.N,/GPIO2*%
X117900000Y-129900000D03*
%TO.P,J12,3,Pin_3*%
%TO.N,/GPIO8*%
X115360000Y-129900000D03*
%TO.P,J12,4,Pin_4*%
%TO.N,/GPIO19*%
X112820000Y-129900000D03*
%TO.P,J12,5,Pin_5*%
%TO.N,/GPIO20*%
X110280000Y-129900000D03*
%TO.P,J12,6,Pin_6*%
%TO.N,/GPIO39*%
X107740000Y-129900000D03*
%TO.P,J12,7,Pin_7*%
%TO.N,/GPIO40*%
X105200000Y-129900000D03*
%TO.P,J12,8,Pin_8*%
%TO.N,/GPIO45*%
X102660000Y-129900000D03*
%TO.P,J12,9,Pin_9*%
%TO.N,/GPIO48*%
X100120000Y-129900000D03*
%TD*%
D12*
%TO.P,J10,1,Pin_1*%
%TO.N,/pH_Sensor*%
X59350000Y-127100000D03*
D13*
%TO.P,J10,2,Pin_2*%
%TO.N,+3V3*%
X61890000Y-127100000D03*
%TO.P,J10,3,Pin_3*%
%TO.N,GND*%
X64430000Y-127100000D03*
%TO.P,J10,4,Pin_4*%
%TO.N,/temp_Sensor*%
X66970000Y-127100000D03*
%TO.P,J10,5,Pin_5*%
%TO.N,+5V*%
X69510000Y-127100000D03*
%TO.P,J10,6,Pin_6*%
%TO.N,GND*%
X72050000Y-127100000D03*
%TO.P,J10,7,Pin_7*%
%TO.N,unconnected-(J10-Pin_7-Pad7)*%
X74590000Y-127100000D03*
%TO.P,J10,8,Pin_8*%
%TO.N,unconnected-(J10-Pin_8-Pad8)*%
X77130000Y-127100000D03*
%TO.P,J10,9,Pin_9*%
%TO.N,/Moisture_Sensor_Output*%
X79670000Y-127100000D03*
%TD*%
D28*
%TO.P,U2,1,~{RI}*%
%TO.N,unconnected-(U2-~{RI}-Pad1)*%
X135587500Y-91400000D03*
%TO.P,U2,2,GND*%
%TO.N,GND*%
X135587500Y-90900000D03*
%TO.P,U2,3,D+*%
%TO.N,/D+*%
X135587500Y-90400000D03*
%TO.P,U2,4,D-*%
%TO.N,/D-*%
X135587500Y-89900000D03*
%TO.P,U2,5,VIO*%
%TO.N,Net-(U2-VDD)*%
X135587500Y-89400000D03*
%TO.P,U2,6,VDD*%
X135587500Y-88900000D03*
D29*
%TO.P,U2,7,REGIN*%
%TO.N,Net-(U2-REGIN)*%
X134900000Y-88212500D03*
%TO.P,U2,8,VBUS*%
%TO.N,+VBUS*%
X134400000Y-88212500D03*
%TO.P,U2,9,~{RST}*%
%TO.N,Net-(U2-VDD)*%
X133900000Y-88212500D03*
%TO.P,U2,10,NC*%
%TO.N,unconnected-(U2-NC-Pad10)*%
X133400000Y-88212500D03*
%TO.P,U2,11,GPIO.3*%
%TO.N,unconnected-(U2-GPIO.3-Pad11)*%
X132900000Y-88212500D03*
%TO.P,U2,12,RS485/GPIO.2*%
%TO.N,unconnected-(U2-RS485{slash}GPIO.2-Pad12)*%
X132400000Y-88212500D03*
D28*
%TO.P,U2,13,RXT/GPIO.1*%
%TO.N,unconnected-(U2-RXT{slash}GPIO.1-Pad13)*%
X131712500Y-88900000D03*
%TO.P,U2,14,TXT/GPIO.0*%
%TO.N,unconnected-(U2-TXT{slash}GPIO.0-Pad14)*%
X131712500Y-89400000D03*
%TO.P,U2,15,~{SUSPEND}*%
%TO.N,unconnected-(U2-~{SUSPEND}-Pad15)*%
X131712500Y-89900000D03*
%TO.P,U2,16,VPP*%
%TO.N,Net-(U2-VPP)*%
X131712500Y-90400000D03*
%TO.P,U2,17,SUSPEND*%
%TO.N,unconnected-(U2-SUSPEND-Pad17)*%
X131712500Y-90900000D03*
%TO.P,U2,18,~{CTS}*%
%TO.N,unconnected-(U2-~{CTS}-Pad18)*%
X131712500Y-91400000D03*
D29*
%TO.P,U2,19,~{RTS}*%
%TO.N,/RTS*%
X132400000Y-92087500D03*
%TO.P,U2,20,RXD*%
%TO.N,/RXD*%
X132900000Y-92087500D03*
%TO.P,U2,21,TXD*%
%TO.N,/TXD*%
X133400000Y-92087500D03*
%TO.P,U2,22,~{DSR}*%
%TO.N,unconnected-(U2-~{DSR}-Pad22)*%
X133900000Y-92087500D03*
%TO.P,U2,23,~{DTR}*%
%TO.N,/DTR*%
X134400000Y-92087500D03*
%TO.P,U2,24,~{DCD}*%
%TO.N,unconnected-(U2-~{DCD}-Pad24)*%
X134900000Y-92087500D03*
D30*
%TO.P,U2,25,GND*%
%TO.N,GND*%
X133650000Y-90150000D03*
%TD*%
D19*
%TO.P,R5,1*%
%TO.N,Net-(Q1-Pad1)*%
X123300000Y-105500000D03*
%TO.P,R5,2*%
%TO.N,/DTR*%
X125300000Y-105500000D03*
%TD*%
D12*
%TO.P,J9,1,Pin_1*%
%TO.N,/MOTOR1PWM*%
X75680000Y-80200000D03*
D13*
%TO.P,J9,2,Pin_2*%
%TO.N,/MOTOR1ENA*%
X73140000Y-80200000D03*
%TO.P,J9,3,Pin_3*%
%TO.N,/MOTOR1ENB*%
X70600000Y-80200000D03*
%TD*%
D31*
%TO.P,R2,1*%
%TO.N,+3V3*%
X109500000Y-104500000D03*
%TO.P,R2,2*%
%TO.N,/GPIO0_STRAPPING*%
X107500000Y-104500000D03*
%TD*%
D12*
%TO.P,J7,1,Pin_1*%
%TO.N,/MOTOR4PWM*%
X66000000Y-100000000D03*
D13*
%TO.P,J7,2,Pin_2*%
%TO.N,/MOTOR4ENA*%
X66000000Y-102540000D03*
%TO.P,J7,3,Pin_3*%
%TO.N,/MOTOR4ENB*%
X66000000Y-105080000D03*
%TD*%
D12*
%TO.P,J5,1,Pin_1*%
%TO.N,/MOTOR3PWM*%
X66000000Y-89000000D03*
D13*
%TO.P,J5,2,Pin_2*%
%TO.N,/MOTOR3ENA*%
X66000000Y-91540000D03*
%TO.P,J5,3,Pin_3*%
%TO.N,/MOTOR3ENB*%
X66000000Y-94080000D03*
%TD*%
D19*
%TO.P,R8,1*%
%TO.N,/GPIO0_STRAPPING*%
X125000000Y-97100000D03*
%TO.P,R8,2*%
%TO.N,Net-(Q2-Pad3)*%
X127000000Y-97100000D03*
%TD*%
D32*
%TO.P,SW1,1,1*%
%TO.N,GND*%
X122200000Y-115400000D03*
X115700000Y-115400000D03*
%TO.P,SW1,2,2*%
%TO.N,/CHIP_PU*%
X122200000Y-110900000D03*
X115700000Y-110900000D03*
%TD*%
%TO.P,SW2,1,1*%
%TO.N,GND*%
X133050000Y-115350000D03*
X126550000Y-115350000D03*
%TO.P,SW2,2,2*%
%TO.N,/GPIO0_STRAPPING*%
X133050000Y-110850000D03*
X126550000Y-110850000D03*
%TD*%
D20*
%TO.P,C7,1*%
%TO.N,Net-(U2-VDD)*%
X129100000Y-88200000D03*
%TO.P,C7,2*%
%TO.N,GND*%
X127025000Y-88200000D03*
%TD*%
D10*
%TO.P,J4,1,Pin_1*%
%TO.N,/LINACT+*%
X112955000Y-80605000D03*
D11*
%TO.P,J4,2,Pin_2*%
%TO.N,/LINACT-*%
X118035000Y-80605000D03*
%TD*%
D20*
%TO.P,C8,1*%
%TO.N,Net-(U2-VDD)*%
X129100000Y-90500000D03*
%TO.P,C8,2*%
%TO.N,GND*%
X127025000Y-90500000D03*
%TD*%
D18*
%TO.P,C4,1*%
%TO.N,/GPIO0_STRAPPING*%
X107625000Y-101200000D03*
%TO.P,C4,2*%
%TO.N,GND*%
X109700000Y-101200000D03*
%TD*%
%TO.P,C5,1*%
%TO.N,VBUS*%
X132925000Y-84100000D03*
%TO.P,C5,2*%
%TO.N,Net-(U2-REGIN)*%
X135000000Y-84100000D03*
%TD*%
D33*
%TO.P,J2,1,VBUS*%
%TO.N,+VBUS*%
X140940000Y-90975000D03*
%TO.P,J2,2,D-*%
%TO.N,/D-*%
X140940000Y-90325000D03*
%TO.P,J2,3,D+*%
%TO.N,/D+*%
X140940000Y-89675000D03*
%TO.P,J2,4,ID*%
%TO.N,unconnected-(J2-ID-Pad4)*%
X140940000Y-89025000D03*
%TO.P,J2,5,GND*%
%TO.N,GND*%
X140940000Y-88375000D03*
D34*
%TO.P,J2,6,Shield*%
X143600000Y-93050000D03*
D35*
X141025000Y-92162500D03*
D36*
X143600000Y-90825000D03*
D37*
X143600000Y-88125000D03*
D35*
X141025000Y-87187500D03*
D34*
X143600000Y-86300000D03*
%TD*%
D38*
%TO.N,+3V3*%
X108275000Y-108125000D03*
X106675000Y-115825000D03*
X80100000Y-84400000D03*
X106325000Y-126125000D03*
X97550000Y-122200000D03*
X91700000Y-113925000D03*
X81200000Y-99900000D03*
X83000000Y-105100000D03*
%TO.N,/CHIP_PU*%
X98700000Y-104700000D03*
X82200000Y-87400000D03*
%TO.N,/GPIO0_STRAPPING*%
X133900000Y-107300000D03*
X126600000Y-99300000D03*
%TO.N,GND*%
X135300000Y-93400000D03*
X109000000Y-95400000D03*
X107100000Y-94100000D03*
X72525000Y-125000000D03*
X129200000Y-96300000D03*
X136775000Y-96975000D03*
X132800000Y-96000000D03*
X139100000Y-87900000D03*
X137925000Y-98850000D03*
X140700000Y-93900000D03*
X114500000Y-99000000D03*
X138850000Y-96925000D03*
X113700000Y-95500000D03*
X121000000Y-96200000D03*
X139775000Y-100075000D03*
X137200000Y-88000000D03*
X112100000Y-94000000D03*
X131800000Y-96900000D03*
X65600000Y-124325000D03*
X133100000Y-94300000D03*
%TO.N,/D+*%
X139500000Y-89700000D03*
X137200000Y-90700000D03*
%TO.N,/D-*%
X139000000Y-90436500D03*
X136500000Y-94800000D03*
X137200000Y-89900000D03*
%TO.N,/RTS*%
X123000000Y-99200000D03*
X130600000Y-93600000D03*
%TO.N,/MOTOR4PWM*%
X68350000Y-97400000D03*
X103500000Y-100050000D03*
%TO.N,/LINACT+*%
X109100000Y-90900000D03*
X109300000Y-85800000D03*
%TO.N,/GPIO19*%
X110675000Y-126200000D03*
X82050000Y-100625000D03*
%TO.N,/LINACT-*%
X113500000Y-85900000D03*
X109400000Y-92100000D03*
%TO.N,/GPIO1*%
X104375000Y-86250000D03*
X118800000Y-120300000D03*
%TO.N,/GPIO45*%
X101055952Y-109573545D03*
X101050000Y-104700000D03*
%TO.N,/MOTOR1PWM*%
X103887841Y-96112159D03*
X77800000Y-83200000D03*
%TO.N,/GPIO39*%
X105325000Y-95025000D03*
X106625000Y-112675000D03*
%TO.N,/GPIO40*%
X103750000Y-110800000D03*
X103750000Y-93625000D03*
%TO.N,/GPIO8*%
X112850000Y-125200000D03*
X82175000Y-98675000D03*
%TO.N,/GPIO20*%
X109500000Y-126675000D03*
X81400000Y-101450000D03*
%TO.N,/MOTOR2PWM*%
X71875000Y-85475000D03*
X103975000Y-97150000D03*
%TO.N,/GPIO48*%
X100000000Y-104850000D03*
X100275000Y-109400000D03*
%TO.N,/MOTOR3PWM*%
X103325000Y-109650000D03*
X99521000Y-108275000D03*
X69475000Y-90900000D03*
X104500000Y-98700000D03*
%TO.N,/GPIO2*%
X103800000Y-87425000D03*
X114050000Y-124975000D03*
%TO.N,Net-(Q2-Pad1)*%
X122900000Y-101200000D03*
X126300000Y-100700000D03*
%TO.N,Net-(U2-VDD)*%
X134000000Y-86500000D03*
X136100000Y-86763500D03*
%TO.N,Net-(U2-REGIN)*%
X135200000Y-85600000D03*
X135198455Y-87298455D03*
%TD*%
D39*
%TO.N,+3V3*%
X91700000Y-113925000D02*
X91700000Y-116350000D01*
X79400000Y-82300000D02*
X79400000Y-83700000D01*
X97500000Y-108125000D02*
X91700000Y-113925000D01*
X83137200Y-86010000D02*
X84394500Y-86010000D01*
X106325000Y-116175000D02*
X106675000Y-115825000D01*
X83300000Y-105400000D02*
X83000000Y-105100000D01*
X97500000Y-106500000D02*
X97500000Y-108125000D01*
X109500000Y-104500000D02*
X109500000Y-106900000D01*
X82000000Y-84872800D02*
X83137200Y-86010000D01*
X109500000Y-106900000D02*
X108275000Y-108125000D01*
X81200000Y-99900000D02*
X79800000Y-101300000D01*
X79400000Y-82300000D02*
X82000000Y-82300000D01*
X106325000Y-126125000D02*
X106325000Y-116175000D01*
X85200000Y-105400000D02*
X83300000Y-105400000D01*
X79400000Y-83700000D02*
X80100000Y-84400000D01*
X91700000Y-116350000D02*
X97550000Y-122200000D01*
X82000000Y-82300000D02*
X82000000Y-84872800D01*
%TO.N,/CHIP_PU*%
X106900000Y-110900000D02*
X102500000Y-106500000D01*
X82200000Y-87400000D02*
X84274500Y-87400000D01*
X84274500Y-87400000D02*
X84394500Y-87280000D01*
X99500000Y-105500000D02*
X98700000Y-104700000D01*
X102500000Y-106500000D02*
X99500000Y-106500000D01*
X99500000Y-106500000D02*
X99500000Y-105500000D01*
X116200000Y-110400000D02*
X115700000Y-110900000D01*
X115700000Y-110900000D02*
X122200000Y-110900000D01*
X116200000Y-104000000D02*
X116200000Y-110400000D01*
X115700000Y-110900000D02*
X106900000Y-110900000D01*
%TO.N,/GPIO0_STRAPPING*%
X107500000Y-101325000D02*
X107625000Y-101200000D01*
X109500000Y-97100000D02*
X107625000Y-98975000D01*
X125000000Y-97700000D02*
X126600000Y-99300000D01*
X125000000Y-97100000D02*
X109500000Y-97100000D01*
X133900000Y-107300000D02*
X133900000Y-110000000D01*
X101944500Y-101200000D02*
X101894500Y-101250000D01*
X107500000Y-104500000D02*
X107500000Y-101325000D01*
X133900000Y-110000000D02*
X133050000Y-110850000D01*
X126550000Y-110850000D02*
X133050000Y-110850000D01*
X107625000Y-98975000D02*
X107625000Y-101200000D01*
X125000000Y-97100000D02*
X125000000Y-97700000D01*
X107625000Y-101200000D02*
X101944500Y-101200000D01*
D40*
%TO.N,Net-(U2-VPP)*%
X129100000Y-92800000D02*
X129100000Y-92075000D01*
X129100000Y-92075000D02*
X130775000Y-90400000D01*
X130775000Y-90400000D02*
X131712500Y-90400000D01*
D41*
%TO.N,+5V*%
X69510000Y-128890000D02*
X69510000Y-127100000D01*
X69400000Y-129000000D02*
X69510000Y-128890000D01*
X70295000Y-129895000D02*
X69400000Y-129000000D01*
X87565000Y-129895000D02*
X70295000Y-129895000D01*
D40*
%TO.N,GND*%
X135999999Y-90900000D02*
X136263500Y-91163501D01*
D39*
X143600000Y-86300000D02*
X143000000Y-86300000D01*
D40*
X140940000Y-88375000D02*
X139575000Y-88375000D01*
X134400000Y-90900000D02*
X133650000Y-90150000D01*
X136263500Y-91163501D02*
X136263500Y-92436500D01*
X136263500Y-92436500D02*
X135300000Y-93400000D01*
D39*
X139775000Y-100075000D02*
X140700000Y-99150000D01*
X139025000Y-86175000D02*
X139025000Y-87825000D01*
X126550000Y-115350000D02*
X133050000Y-115350000D01*
X139775000Y-85425000D02*
X139025000Y-86175000D01*
D40*
X135587500Y-90900000D02*
X135999999Y-90900000D01*
D39*
X141025000Y-92162500D02*
X141025000Y-93575000D01*
X141025000Y-93575000D02*
X140700000Y-93900000D01*
X143000000Y-86300000D02*
X142125000Y-85425000D01*
X142125000Y-85425000D02*
X139775000Y-85425000D01*
X115700000Y-115400000D02*
X122200000Y-115400000D01*
D40*
X139575000Y-88375000D02*
X139100000Y-87900000D01*
D39*
X139025000Y-87825000D02*
X139100000Y-87900000D01*
X140700000Y-99150000D02*
X140700000Y-93900000D01*
D40*
X135587500Y-90900000D02*
X134400000Y-90900000D01*
D39*
%TO.N,/MOTOR2ENA*%
X74630000Y-91090000D02*
X84394500Y-91090000D01*
X63740000Y-80200000D02*
X74630000Y-91090000D01*
%TO.N,/UWBINT*%
X58000000Y-122085000D02*
X76322590Y-122085000D01*
X93779500Y-104628090D02*
X93779500Y-102500000D01*
X76322590Y-122085000D02*
X93779500Y-104628090D01*
%TO.N,/MOTOR2ENB*%
X61200000Y-80200000D02*
X73360000Y-92360000D01*
X73360000Y-92360000D02*
X84394500Y-92360000D01*
%TO.N,/MOTOR3ENA*%
X66000000Y-91540000D02*
X68090000Y-93630000D01*
X68090000Y-93630000D02*
X84394500Y-93630000D01*
D40*
%TO.N,/D+*%
X136900000Y-90400000D02*
X135587500Y-90400000D01*
X140940000Y-89675000D02*
X139525000Y-89675000D01*
X137200000Y-90700000D02*
X137900000Y-91400000D01*
X139525000Y-89675000D02*
X139500000Y-89700000D01*
X137200000Y-90700000D02*
X136900000Y-90400000D01*
X137900000Y-91400000D02*
X137900000Y-96100000D01*
%TO.N,/D-*%
X137200000Y-89900000D02*
X135587500Y-89900000D01*
X139111500Y-90325000D02*
X139000000Y-90436500D01*
X140940000Y-90325000D02*
X139111500Y-90325000D01*
X135900000Y-95400000D02*
X135900000Y-96100000D01*
X136500000Y-94800000D02*
X135900000Y-95400000D01*
D39*
%TO.N,/MOTOR3ENB*%
X66000000Y-94080000D02*
X66820000Y-94900000D01*
X66820000Y-94900000D02*
X84394500Y-94900000D01*
%TO.N,/MOTOR4ENB*%
X73640000Y-97440000D02*
X84394500Y-97440000D01*
X66000000Y-105080000D02*
X73640000Y-97440000D01*
%TO.N,Net-(JP1-C)*%
X78000000Y-102700000D02*
X77800000Y-102500000D01*
X76875000Y-104225000D02*
X78000000Y-103100000D01*
X78000000Y-103100000D02*
X78000000Y-102700000D01*
X76875000Y-105200000D02*
X76875000Y-104225000D01*
X77800000Y-102500000D02*
X77800000Y-101300000D01*
%TO.N,/temp_Sensor*%
X66970000Y-127100000D02*
X70495000Y-123575000D01*
X70495000Y-123575000D02*
X77771800Y-123575000D01*
X77771800Y-123575000D02*
X97589500Y-103757300D01*
X97589500Y-103757300D02*
X97589500Y-102500000D01*
%TO.N,/pH_Sensor*%
X96319500Y-103480500D02*
X96319500Y-102500000D01*
X59350000Y-127100000D02*
X63657000Y-122793000D01*
X63657000Y-122793000D02*
X77007000Y-122793000D01*
X77007000Y-122793000D02*
X96319500Y-103480500D01*
D40*
%TO.N,/RTS*%
X121700000Y-100500000D02*
X119750001Y-100500000D01*
X130887500Y-93600000D02*
X130600000Y-93600000D01*
X123000000Y-99200000D02*
X125400000Y-101600000D01*
X123000000Y-99200000D02*
X121700000Y-100500000D01*
X132400000Y-92087500D02*
X130887500Y-93600000D01*
X125400000Y-101600000D02*
X125400000Y-103100000D01*
%TO.N,/DTR*%
X134400000Y-92087500D02*
X134400000Y-97300002D01*
X126200002Y-105500000D02*
X125300000Y-105500000D01*
X134400000Y-97300002D02*
X131200002Y-100500000D01*
X131200002Y-100500000D02*
X126200002Y-105500000D01*
D39*
%TO.N,/GPIO3_STRAPPING*%
X79700000Y-105200000D02*
X82400000Y-102500000D01*
X78700000Y-105200000D02*
X79700000Y-105200000D01*
X82400000Y-102500000D02*
X86159500Y-102500000D01*
%TO.N,/GPIO46_STRAPPING*%
X87200000Y-105400000D02*
X87200000Y-102729500D01*
X87200000Y-102729500D02*
X87429500Y-102500000D01*
%TO.N,/MOTOR4PWM*%
X101964500Y-100050000D02*
X101894500Y-99980000D01*
X103500000Y-100050000D02*
X101964500Y-100050000D01*
X66000000Y-99750000D02*
X68350000Y-97400000D01*
X66000000Y-100000000D02*
X66000000Y-99750000D01*
%TO.N,/MOTOR4ENA*%
X72370000Y-96170000D02*
X84394500Y-96170000D01*
X66000000Y-102540000D02*
X72370000Y-96170000D01*
%TO.N,/MOTOR1ENB*%
X80220000Y-89820000D02*
X84394500Y-89820000D01*
X70600000Y-80200000D02*
X80220000Y-89820000D01*
%TO.N,/MOTOR1ENA*%
X81490000Y-88550000D02*
X84394500Y-88550000D01*
X73140000Y-80200000D02*
X81490000Y-88550000D01*
%TO.N,/LINACT+*%
X112955000Y-82145000D02*
X109300000Y-85800000D01*
X112955000Y-80605000D02*
X112955000Y-82145000D01*
X109100000Y-90900000D02*
X108910000Y-91090000D01*
X108910000Y-91090000D02*
X101894500Y-91090000D01*
%TO.N,/GPIO19*%
X82050000Y-100625000D02*
X82695000Y-99980000D01*
X82695000Y-99980000D02*
X84394500Y-99980000D01*
X112820000Y-129900000D02*
X112820000Y-128345000D01*
X112820000Y-128345000D02*
X110675000Y-126200000D01*
%TO.N,/LINACT-*%
X109140000Y-92360000D02*
X101894500Y-92360000D01*
X118035000Y-80605000D02*
X113500000Y-85140000D01*
X113500000Y-85140000D02*
X113500000Y-85900000D01*
X109400000Y-92100000D02*
X109140000Y-92360000D01*
%TO.N,/GPIO1*%
X102134500Y-86250000D02*
X101894500Y-86010000D01*
X104375000Y-86250000D02*
X102134500Y-86250000D01*
X120440000Y-121940000D02*
X118800000Y-120300000D01*
X120440000Y-129900000D02*
X120440000Y-121940000D01*
%TO.N,/UWBMOSI*%
X58000000Y-111925000D02*
X82477534Y-111925000D01*
X88699500Y-105703034D02*
X88699500Y-102500000D01*
X82477534Y-111925000D02*
X88699500Y-105703034D01*
%TO.N,/GPIO45*%
X101050000Y-103420500D02*
X100129500Y-102500000D01*
X102660000Y-129900000D02*
X102660000Y-111177593D01*
X102660000Y-111177593D02*
X101055952Y-109573545D01*
X101050000Y-104700000D02*
X101050000Y-103420500D01*
%TO.N,/MOTOR1PWM*%
X101952341Y-96112159D02*
X101894500Y-96170000D01*
X75680000Y-81080000D02*
X77800000Y-83200000D01*
X103887841Y-96112159D02*
X101952341Y-96112159D01*
X75680000Y-80200000D02*
X75680000Y-81080000D01*
%TO.N,/GPIO39*%
X107740000Y-113790000D02*
X106625000Y-112675000D01*
X102019500Y-95025000D02*
X101894500Y-94900000D01*
X105325000Y-95025000D02*
X102019500Y-95025000D01*
X107740000Y-129900000D02*
X107740000Y-113790000D01*
%TO.N,/GPIO40*%
X105200000Y-112250000D02*
X103750000Y-110800000D01*
X101899500Y-93625000D02*
X101894500Y-93630000D01*
X105200000Y-129900000D02*
X105200000Y-112250000D01*
X103750000Y-93625000D02*
X101899500Y-93625000D01*
D40*
%TO.N,/RXD*%
X131099999Y-94300000D02*
X116300000Y-94300000D01*
X110550000Y-88550000D02*
X101894500Y-88550000D01*
X132900000Y-92087500D02*
X132900000Y-92499999D01*
X132900000Y-92499999D02*
X131099999Y-94300000D01*
X116300000Y-94300000D02*
X110550000Y-88550000D01*
D39*
%TO.N,/UWBMISO*%
X58000000Y-117005000D02*
X79400062Y-117005000D01*
X79400062Y-117005000D02*
X91239500Y-105165562D01*
X91239500Y-105165562D02*
X91239500Y-102500000D01*
%TO.N,/GPIO8*%
X115360000Y-127710000D02*
X112850000Y-125200000D01*
X115360000Y-129900000D02*
X115360000Y-127710000D01*
X84359500Y-98675000D02*
X84394500Y-98710000D01*
X82175000Y-98675000D02*
X84359500Y-98675000D01*
%TO.N,/GPIO20*%
X110280000Y-129900000D02*
X110280000Y-127455000D01*
X81400000Y-101450000D02*
X84194500Y-101450000D01*
X84194500Y-101450000D02*
X84394500Y-101250000D01*
X110280000Y-127455000D02*
X109500000Y-126675000D01*
%TO.N,/MOTOR2PWM*%
X66600000Y-80200000D02*
X71875000Y-85475000D01*
X103975000Y-97150000D02*
X102184500Y-97150000D01*
X102184500Y-97150000D02*
X101894500Y-97440000D01*
X66280000Y-80200000D02*
X66600000Y-80200000D01*
%TO.N,/UWBCLK*%
X58000000Y-114465000D02*
X80938798Y-114465000D01*
X89969500Y-105434298D02*
X89969500Y-102500000D01*
X80938798Y-114465000D02*
X89969500Y-105434298D01*
D40*
%TO.N,/TXD*%
X110220000Y-89820000D02*
X101894500Y-89820000D01*
X116000000Y-94800000D02*
X111100000Y-89900000D01*
X111100000Y-89900000D02*
X110300000Y-89900000D01*
X131099999Y-94800000D02*
X116000000Y-94800000D01*
X133400000Y-92087500D02*
X133400000Y-92499999D01*
X110300000Y-89900000D02*
X110220000Y-89820000D01*
X133400000Y-92499999D02*
X131099999Y-94800000D01*
D39*
%TO.N,/UWBCS*%
X58000000Y-119545000D02*
X77861326Y-119545000D01*
X92509500Y-104896826D02*
X92509500Y-102500000D01*
X77861326Y-119545000D02*
X92509500Y-104896826D01*
%TO.N,/GPIO48*%
X100000000Y-104850000D02*
X98859500Y-103709500D01*
X100120000Y-109555000D02*
X100275000Y-109400000D01*
X100120000Y-129900000D02*
X100120000Y-109555000D01*
X98859500Y-103709500D02*
X98859500Y-102500000D01*
%TO.N,/MOTOR3PWM*%
X67575000Y-89000000D02*
X69475000Y-90900000D01*
X99521000Y-108275000D02*
X101950000Y-108275000D01*
X101904500Y-98700000D02*
X101894500Y-98710000D01*
X104500000Y-98700000D02*
X101904500Y-98700000D01*
X66000000Y-89000000D02*
X67575000Y-89000000D01*
X101950000Y-108275000D02*
X103325000Y-109650000D01*
%TO.N,/GPIO2*%
X117900000Y-129900000D02*
X117900000Y-128825000D01*
X117900000Y-128825000D02*
X114050000Y-124975000D01*
X102039500Y-87425000D02*
X101894500Y-87280000D01*
X103800000Y-87425000D02*
X102039500Y-87425000D01*
D40*
%TO.N,+VBUS*%
X139700000Y-91000000D02*
X138766590Y-91000000D01*
X138100000Y-100000000D02*
X137900000Y-100000000D01*
X138766590Y-91000000D02*
X137950000Y-90183410D01*
X135600000Y-86100000D02*
X134400000Y-87300000D01*
X139700000Y-98400000D02*
X138100000Y-100000000D01*
X140940000Y-90975000D02*
X139725000Y-90975000D01*
X136950000Y-86100000D02*
X135600000Y-86100000D01*
X137950000Y-90183410D02*
X137950000Y-87100000D01*
X137900000Y-100000000D02*
X135900000Y-98000000D01*
X134400000Y-87300000D02*
X134400000Y-88212500D01*
X139700000Y-91000000D02*
X139700000Y-98400000D01*
X139725000Y-90975000D02*
X139700000Y-91000000D01*
X137950000Y-87100000D02*
X136950000Y-86100000D01*
D39*
%TO.N,Net-(Q1-Pad1)*%
X122849999Y-105500000D02*
X123300000Y-105500000D01*
X117849999Y-100500000D02*
X122849999Y-105500000D01*
%TO.N,Net-(Q2-Pad1)*%
X122900000Y-101200000D02*
X122900000Y-102600000D01*
X126500000Y-100500000D02*
X126300000Y-100700000D01*
X129300000Y-100500000D02*
X126500000Y-100500000D01*
X122900000Y-102600000D02*
X123400000Y-103100000D01*
%TO.N,Net-(Q1-Pad3)*%
X118012600Y-98458001D02*
X114200000Y-102270601D01*
X118800000Y-98458001D02*
X118012600Y-98458001D01*
X114200000Y-102270601D02*
X114200000Y-104000000D01*
%TO.N,Net-(Q2-Pad3)*%
X130250001Y-98458001D02*
X128358001Y-98458001D01*
X128358001Y-98458001D02*
X127000000Y-97100000D01*
D40*
%TO.N,Net-(U2-VDD)*%
X130600000Y-86700000D02*
X132799999Y-86700000D01*
X134000000Y-86500000D02*
X133900000Y-86600000D01*
X132799999Y-86700000D02*
X133900000Y-87800001D01*
X133900000Y-86600000D02*
X133900000Y-88212500D01*
X135587500Y-88900000D02*
X136100000Y-88387500D01*
X129100000Y-90500000D02*
X129100000Y-88200000D01*
X135587500Y-89400000D02*
X135587500Y-88900000D01*
X133900000Y-87800001D02*
X133900000Y-88212500D01*
X129100000Y-88200000D02*
X130600000Y-86700000D01*
X136100000Y-88387500D02*
X136100000Y-86763500D01*
%TO.N,Net-(U2-REGIN)*%
X134900000Y-88212500D02*
X134900000Y-87596910D01*
X135200000Y-85600000D02*
X135000000Y-85400000D01*
X134900000Y-87596910D02*
X135198455Y-87298455D01*
X135000000Y-85400000D02*
X135000000Y-84100000D01*
%TD*%
%TA.AperFunction,Conductor*%
%TO.N,GND*%
G36*
X143793039Y-86069685D02*
G01*
X143838794Y-86122489D01*
X143850000Y-86174000D01*
X143850000Y-89125000D01*
X144476000Y-89125000D01*
X144543039Y-89144685D01*
X144588794Y-89197489D01*
X144600000Y-89249000D01*
X144600000Y-89301000D01*
X144580315Y-89368039D01*
X144527511Y-89413794D01*
X144476000Y-89425000D01*
X143850000Y-89425000D01*
X143850000Y-94375000D01*
X144297828Y-94375000D01*
X144297844Y-94374999D01*
X144357372Y-94368598D01*
X144357380Y-94368596D01*
X144432665Y-94340516D01*
X144502357Y-94335530D01*
X144563680Y-94369015D01*
X144597166Y-94430338D01*
X144600000Y-94456697D01*
X144600000Y-94676000D01*
X144580315Y-94743039D01*
X144527511Y-94788794D01*
X144476000Y-94800000D01*
X140388000Y-94800000D01*
X140320961Y-94780315D01*
X140275206Y-94727511D01*
X140264000Y-94676000D01*
X140264000Y-93499000D01*
X140283685Y-93431961D01*
X140336489Y-93386206D01*
X140388000Y-93375000D01*
X140775000Y-93375000D01*
X140775000Y-92036500D01*
X140794685Y-91969461D01*
X140847489Y-91923706D01*
X140899000Y-91912500D01*
X141151000Y-91912500D01*
X141218039Y-91932185D01*
X141263794Y-91984989D01*
X141275000Y-92036500D01*
X141275000Y-93375000D01*
X141847828Y-93375000D01*
X141847844Y-93374999D01*
X141907372Y-93368598D01*
X141907379Y-93368596D01*
X142042086Y-93318354D01*
X142042093Y-93318350D01*
X142157187Y-93232190D01*
X142157190Y-93232187D01*
X142226734Y-93139290D01*
X142282668Y-93097419D01*
X142352359Y-93092435D01*
X142413682Y-93125921D01*
X142447166Y-93187244D01*
X142450000Y-93213601D01*
X142450000Y-93922844D01*
X142456401Y-93982372D01*
X142456403Y-93982379D01*
X142506645Y-94117086D01*
X142506649Y-94117093D01*
X142592809Y-94232187D01*
X142592812Y-94232190D01*
X142707906Y-94318350D01*
X142707913Y-94318354D01*
X142842620Y-94368596D01*
X142842627Y-94368598D01*
X142902155Y-94374999D01*
X142902172Y-94375000D01*
X143350000Y-94375000D01*
X143350000Y-89425000D01*
X142602155Y-89425000D01*
X142542627Y-89431401D01*
X142542620Y-89431403D01*
X142407913Y-89481645D01*
X142407911Y-89481647D01*
X142328810Y-89540862D01*
X142263346Y-89565279D01*
X142195073Y-89550428D01*
X142145667Y-89501022D01*
X142130499Y-89441595D01*
X142130499Y-89402128D01*
X142130498Y-89402111D01*
X142126320Y-89363253D01*
X142126320Y-89336747D01*
X142130500Y-89297873D01*
X142130499Y-89108402D01*
X142150183Y-89041365D01*
X142202987Y-88995610D01*
X142272145Y-88985666D01*
X142328811Y-89009138D01*
X142407910Y-89068352D01*
X142407913Y-89068354D01*
X142542620Y-89118596D01*
X142542627Y-89118598D01*
X142602155Y-89124999D01*
X142602172Y-89125000D01*
X143350000Y-89125000D01*
X143350000Y-86174000D01*
X143369685Y-86106961D01*
X143422489Y-86061206D01*
X143474000Y-86050000D01*
X143726000Y-86050000D01*
X143793039Y-86069685D01*
G37*
%TD.AperFunction*%
%TA.AperFunction,Conductor*%
G36*
X142543215Y-84958494D02*
G01*
X142589958Y-85010426D01*
X142601204Y-85079384D01*
X142577422Y-85138367D01*
X142506647Y-85232910D01*
X142506645Y-85232913D01*
X142456403Y-85367620D01*
X142456401Y-85367627D01*
X142450000Y-85427155D01*
X142450000Y-86136398D01*
X142430315Y-86203437D01*
X142377511Y-86249192D01*
X142308353Y-86259136D01*
X142244797Y-86230111D01*
X142226734Y-86210710D01*
X142157187Y-86117809D01*
X142042093Y-86031649D01*
X142042086Y-86031645D01*
X141907379Y-85981403D01*
X141907372Y-85981401D01*
X141847844Y-85975000D01*
X141275000Y-85975000D01*
X141275000Y-88175500D01*
X141255315Y-88242539D01*
X141202511Y-88288294D01*
X141151000Y-88299500D01*
X140839000Y-88299500D01*
X140771961Y-88279815D01*
X140726206Y-88227011D01*
X140715000Y-88175500D01*
X140715000Y-87718362D01*
X140734685Y-87651323D01*
X140751319Y-87630681D01*
X140775000Y-87607000D01*
X140775000Y-87437500D01*
X139750000Y-87437500D01*
X139750000Y-87947827D01*
X139750001Y-87947846D01*
X139756871Y-88011745D01*
X139756871Y-88038255D01*
X139750001Y-88102153D01*
X139750000Y-88102172D01*
X139750000Y-88150000D01*
X139910565Y-88150000D01*
X139977604Y-88169685D01*
X140023359Y-88222489D01*
X140033303Y-88291647D01*
X140004278Y-88355203D01*
X139984876Y-88373266D01*
X139892455Y-88442452D01*
X139811711Y-88550312D01*
X139763894Y-88586105D01*
X139750000Y-88600000D01*
X139750000Y-88647832D01*
X139753931Y-88684399D01*
X139753931Y-88710905D01*
X139749500Y-88752122D01*
X139749500Y-88783790D01*
X139729815Y-88850829D01*
X139677011Y-88896584D01*
X139611617Y-88907010D01*
X139500004Y-88894435D01*
X139499996Y-88894435D01*
X139320750Y-88914630D01*
X139320742Y-88914632D01*
X139300000Y-88921889D01*
X139300000Y-86427155D01*
X139750000Y-86427155D01*
X139750000Y-86937500D01*
X140775000Y-86937500D01*
X140775000Y-85975000D01*
X140202155Y-85975000D01*
X140142627Y-85981401D01*
X140142620Y-85981403D01*
X140007913Y-86031645D01*
X140007906Y-86031649D01*
X139892812Y-86117809D01*
X139892809Y-86117812D01*
X139806649Y-86232906D01*
X139806645Y-86232913D01*
X139756403Y-86367620D01*
X139756401Y-86367627D01*
X139750000Y-86427155D01*
X139300000Y-86427155D01*
X139300000Y-85000000D01*
X142475819Y-84940078D01*
X142543215Y-84958494D01*
G37*
%TD.AperFunction*%
%TD*%
%TA.AperFunction,Conductor*%
%TO.N,GND*%
G36*
X84083239Y-78519685D02*
G01*
X84128994Y-78572489D01*
X84140200Y-78624000D01*
X84140200Y-83243600D01*
X102148800Y-83243600D01*
X102148800Y-78624000D01*
X102168485Y-78556961D01*
X102221289Y-78511206D01*
X102272800Y-78500000D01*
X138583634Y-78500000D01*
X138650673Y-78519685D01*
X138696428Y-78572489D01*
X138706372Y-78641647D01*
X138677347Y-78705203D01*
X138671315Y-78711681D01*
X138605739Y-78777256D01*
X138605733Y-78777263D01*
X138458067Y-78969706D01*
X138458064Y-78969710D01*
X138458064Y-78969711D01*
X138444933Y-78992454D01*
X138336777Y-79179785D01*
X138336773Y-79179794D01*
X138243947Y-79403895D01*
X138181161Y-79638214D01*
X138149500Y-79878711D01*
X138149500Y-80121288D01*
X138181161Y-80361785D01*
X138243947Y-80596104D01*
X138309748Y-80754960D01*
X138336776Y-80820212D01*
X138458064Y-81030289D01*
X138458066Y-81030292D01*
X138458067Y-81030293D01*
X138605733Y-81222736D01*
X138605739Y-81222743D01*
X138777256Y-81394260D01*
X138777262Y-81394265D01*
X138969711Y-81541936D01*
X139179788Y-81663224D01*
X139403900Y-81756054D01*
X139638211Y-81818838D01*
X139818586Y-81842584D01*
X139878711Y-81850500D01*
X139995230Y-81850500D01*
X140062269Y-81870185D01*
X140108024Y-81922989D01*
X140119227Y-81973811D01*
X140135890Y-84984228D01*
X139300000Y-85000000D01*
X139300000Y-88921890D01*
X139150476Y-88974211D01*
X138997737Y-89070184D01*
X138870184Y-89197737D01*
X138774211Y-89350476D01*
X138755042Y-89405260D01*
X138714320Y-89462036D01*
X138649367Y-89487783D01*
X138580806Y-89474327D01*
X138530403Y-89425940D01*
X138514000Y-89364305D01*
X138514000Y-87184255D01*
X138514001Y-87184242D01*
X138514001Y-87025750D01*
X138514001Y-87025748D01*
X138475565Y-86882304D01*
X138442901Y-86825729D01*
X138401315Y-86753699D01*
X138401310Y-86753693D01*
X137408383Y-85760767D01*
X137408381Y-85760764D01*
X137296306Y-85648689D01*
X137296304Y-85648687D01*
X137167696Y-85574435D01*
X137024253Y-85536000D01*
X137024252Y-85536000D01*
X136109168Y-85536000D01*
X136042129Y-85516315D01*
X135996374Y-85463511D01*
X135985948Y-85425888D01*
X135985368Y-85420747D01*
X135985368Y-85420745D01*
X135925788Y-85250475D01*
X135900299Y-85209911D01*
X135881298Y-85142675D01*
X135901665Y-85075839D01*
X135917609Y-85056258D01*
X135930212Y-85043656D01*
X136022314Y-84894334D01*
X136077499Y-84727797D01*
X136088000Y-84625009D01*
X136087999Y-83574992D01*
X136077499Y-83472203D01*
X136022314Y-83305666D01*
X135930212Y-83156344D01*
X135806156Y-83032288D01*
X135656834Y-82940186D01*
X135490297Y-82885001D01*
X135490295Y-82885000D01*
X135387510Y-82874500D01*
X134612498Y-82874500D01*
X134612480Y-82874501D01*
X134509703Y-82885000D01*
X134509700Y-82885001D01*
X134343168Y-82940185D01*
X134343163Y-82940187D01*
X134193842Y-83032289D01*
X134069785Y-83156346D01*
X134068037Y-83159182D01*
X134066329Y-83160717D01*
X134065307Y-83162011D01*
X134065085Y-83161836D01*
X134016089Y-83205905D01*
X133947126Y-83217126D01*
X133883044Y-83189282D01*
X133856963Y-83159182D01*
X133855214Y-83156346D01*
X133731157Y-83032289D01*
X133731156Y-83032288D01*
X133581834Y-82940186D01*
X133415297Y-82885001D01*
X133415295Y-82885000D01*
X133312510Y-82874500D01*
X132537498Y-82874500D01*
X132537480Y-82874501D01*
X132434703Y-82885000D01*
X132434700Y-82885001D01*
X132268168Y-82940185D01*
X132268163Y-82940187D01*
X132118842Y-83032289D01*
X131994789Y-83156342D01*
X131902687Y-83305663D01*
X131902685Y-83305668D01*
X131887500Y-83351494D01*
X131847501Y-83472203D01*
X131847501Y-83472204D01*
X131847500Y-83472204D01*
X131837000Y-83574983D01*
X131837000Y-84625001D01*
X131837001Y-84625019D01*
X131847500Y-84727796D01*
X131847501Y-84727799D01*
X131886399Y-84845184D01*
X131902686Y-84894334D01*
X131994788Y-85043656D01*
X132118844Y-85167712D01*
X132268166Y-85259814D01*
X132434703Y-85314999D01*
X132537491Y-85325500D01*
X133312508Y-85325499D01*
X133312516Y-85325498D01*
X133312519Y-85325498D01*
X133368802Y-85319748D01*
X133415297Y-85314999D01*
X133581834Y-85259814D01*
X133731156Y-85167712D01*
X133855212Y-85043656D01*
X133856961Y-85040819D01*
X133858669Y-85039283D01*
X133859693Y-85037989D01*
X133859914Y-85038163D01*
X133908906Y-84994096D01*
X133977868Y-84982872D01*
X134041951Y-85010713D01*
X134068037Y-85040817D01*
X134069788Y-85043656D01*
X134193844Y-85167712D01*
X134343166Y-85259814D01*
X134343170Y-85259815D01*
X134349709Y-85262864D01*
X134348528Y-85265395D01*
X134395432Y-85297869D01*
X134422257Y-85362384D01*
X134416027Y-85416758D01*
X134414631Y-85420747D01*
X134394435Y-85599996D01*
X134394435Y-85600004D01*
X134394618Y-85601630D01*
X134394435Y-85602674D01*
X134394435Y-85606964D01*
X134393683Y-85606964D01*
X134382556Y-85670451D01*
X134335202Y-85721825D01*
X134267589Y-85739443D01*
X134230441Y-85732542D01*
X134179262Y-85714633D01*
X134179249Y-85714630D01*
X134000004Y-85694435D01*
X133999996Y-85694435D01*
X133820750Y-85714630D01*
X133820745Y-85714631D01*
X133650476Y-85774211D01*
X133497737Y-85870184D01*
X133370184Y-85997737D01*
X133274212Y-86150475D01*
X133274210Y-86150478D01*
X133273552Y-86152361D01*
X133272798Y-86153410D01*
X133271193Y-86156746D01*
X133270608Y-86156464D01*
X133232827Y-86209134D01*
X133167873Y-86234878D01*
X133099312Y-86221417D01*
X133094513Y-86218786D01*
X133017697Y-86174436D01*
X133017696Y-86174435D01*
X132998224Y-86169218D01*
X132978754Y-86164001D01*
X132978753Y-86164000D01*
X132902252Y-86143502D01*
X132874252Y-86136000D01*
X132874251Y-86136000D01*
X130674252Y-86136000D01*
X130525747Y-86136000D01*
X130382302Y-86174435D01*
X130336660Y-86200788D01*
X130336658Y-86200789D01*
X130253699Y-86248684D01*
X130253694Y-86248688D01*
X130148685Y-86353698D01*
X129564201Y-86938181D01*
X129502878Y-86971666D01*
X129476520Y-86974500D01*
X128712498Y-86974500D01*
X128712480Y-86974501D01*
X128609703Y-86985000D01*
X128609700Y-86985001D01*
X128443168Y-87040185D01*
X128443163Y-87040187D01*
X128293842Y-87132289D01*
X128169788Y-87256343D01*
X128169783Y-87256349D01*
X128167741Y-87259661D01*
X128165747Y-87261453D01*
X128165307Y-87262011D01*
X128165211Y-87261935D01*
X128115791Y-87306383D01*
X128046828Y-87317602D01*
X127982747Y-87289755D01*
X127956668Y-87259656D01*
X127954819Y-87256659D01*
X127954816Y-87256655D01*
X127830845Y-87132684D01*
X127681624Y-87040643D01*
X127681619Y-87040641D01*
X127515197Y-86985494D01*
X127515190Y-86985493D01*
X127412486Y-86975000D01*
X127275000Y-86975000D01*
X127275000Y-92926000D01*
X127255315Y-92993039D01*
X127202511Y-93038794D01*
X127151000Y-93050000D01*
X125937501Y-93050000D01*
X125937501Y-93324986D01*
X125947994Y-93427697D01*
X125996142Y-93572996D01*
X125998544Y-93642824D01*
X125962812Y-93702866D01*
X125900292Y-93734059D01*
X125878436Y-93736000D01*
X116584978Y-93736000D01*
X116517939Y-93716315D01*
X116497297Y-93699681D01*
X115072629Y-92275013D01*
X125937500Y-92275013D01*
X125937500Y-92550000D01*
X126775000Y-92550000D01*
X126775000Y-90750000D01*
X125937501Y-90750000D01*
X125937501Y-91024986D01*
X125947994Y-91127697D01*
X126003141Y-91294119D01*
X126003143Y-91294124D01*
X126095184Y-91443345D01*
X126214158Y-91562319D01*
X126247643Y-91623642D01*
X126242659Y-91693334D01*
X126214158Y-91737681D01*
X126095184Y-91856654D01*
X126003143Y-92005875D01*
X126003141Y-92005880D01*
X125947994Y-92172302D01*
X125947993Y-92172309D01*
X125937500Y-92275013D01*
X115072629Y-92275013D01*
X112772629Y-89975013D01*
X125937500Y-89975013D01*
X125937500Y-90250000D01*
X126775000Y-90250000D01*
X126775000Y-88450000D01*
X125937501Y-88450000D01*
X125937501Y-88724986D01*
X125947994Y-88827697D01*
X126003141Y-88994119D01*
X126003143Y-88994124D01*
X126095184Y-89143345D01*
X126214158Y-89262319D01*
X126247643Y-89323642D01*
X126242659Y-89393334D01*
X126214158Y-89437681D01*
X126095184Y-89556654D01*
X126003143Y-89705875D01*
X126003141Y-89705880D01*
X125947994Y-89872302D01*
X125947993Y-89872309D01*
X125937500Y-89975013D01*
X112772629Y-89975013D01*
X111008383Y-88210767D01*
X111008381Y-88210764D01*
X110896306Y-88098689D01*
X110896304Y-88098687D01*
X110780988Y-88032109D01*
X110767698Y-88024436D01*
X110767697Y-88024435D01*
X110745790Y-88018565D01*
X110723885Y-88012696D01*
X110723884Y-88012695D01*
X110650948Y-87993152D01*
X110624253Y-87986000D01*
X110624252Y-87986000D01*
X104617270Y-87986000D01*
X104550231Y-87966315D01*
X104504476Y-87913511D01*
X104494532Y-87844353D01*
X104512277Y-87796028D01*
X104525787Y-87774526D01*
X104525787Y-87774524D01*
X104525789Y-87774522D01*
X104560609Y-87675013D01*
X125937500Y-87675013D01*
X125937500Y-87950000D01*
X126775000Y-87950000D01*
X126775000Y-86975000D01*
X126637527Y-86975000D01*
X126637512Y-86975001D01*
X126534802Y-86985494D01*
X126368380Y-87040641D01*
X126368375Y-87040643D01*
X126219154Y-87132684D01*
X126095184Y-87256654D01*
X126003143Y-87405875D01*
X126003141Y-87405880D01*
X125947994Y-87572302D01*
X125947993Y-87572309D01*
X125937500Y-87675013D01*
X104560609Y-87675013D01*
X104585368Y-87604255D01*
X104588262Y-87578571D01*
X104605565Y-87425003D01*
X104605565Y-87424996D01*
X104585369Y-87245750D01*
X104585366Y-87245737D01*
X104557345Y-87165659D01*
X104553782Y-87095881D01*
X104588511Y-87035253D01*
X104633431Y-87007662D01*
X104698196Y-86985001D01*
X104724520Y-86975790D01*
X104725776Y-86975001D01*
X104877262Y-86879816D01*
X105004816Y-86752262D01*
X105100789Y-86599522D01*
X105160368Y-86429255D01*
X105160605Y-86427155D01*
X105180565Y-86250003D01*
X105180565Y-86249996D01*
X105160369Y-86070750D01*
X105160368Y-86070745D01*
X105100788Y-85900476D01*
X105061582Y-85838080D01*
X105037652Y-85799996D01*
X108494435Y-85799996D01*
X108494435Y-85800003D01*
X108514630Y-85979249D01*
X108514631Y-85979254D01*
X108574211Y-86149523D01*
X108637347Y-86250003D01*
X108670184Y-86302262D01*
X108797738Y-86429816D01*
X108852576Y-86464273D01*
X108947444Y-86523883D01*
X108950478Y-86525789D01*
X109120745Y-86585368D01*
X109120750Y-86585369D01*
X109299996Y-86605565D01*
X109300000Y-86605565D01*
X109300004Y-86605565D01*
X109479249Y-86585369D01*
X109479252Y-86585368D01*
X109479255Y-86585368D01*
X109649522Y-86525789D01*
X109802262Y-86429816D01*
X109929816Y-86302262D01*
X110025789Y-86149522D01*
X110025789Y-86149520D01*
X110029494Y-86143625D01*
X110030299Y-86144131D01*
X110048382Y-86118641D01*
X110267027Y-85899996D01*
X112694435Y-85899996D01*
X112694435Y-85900003D01*
X112714630Y-86079249D01*
X112714631Y-86079254D01*
X112774211Y-86249523D01*
X112818032Y-86319263D01*
X112870184Y-86402262D01*
X112997738Y-86529816D01*
X113086148Y-86585368D01*
X113139103Y-86618642D01*
X113150478Y-86625789D01*
X113205380Y-86645000D01*
X113320745Y-86685368D01*
X113320750Y-86685369D01*
X113499996Y-86705565D01*
X113500000Y-86705565D01*
X113500004Y-86705565D01*
X113679249Y-86685369D01*
X113679252Y-86685368D01*
X113679255Y-86685368D01*
X113849522Y-86625789D01*
X114002262Y-86529816D01*
X114129816Y-86402262D01*
X114225789Y-86249522D01*
X114285368Y-86079255D01*
X114285369Y-86079249D01*
X114305565Y-85900003D01*
X114305565Y-85899996D01*
X114285369Y-85720750D01*
X114285368Y-85720745D01*
X114261458Y-85652414D01*
X114254500Y-85611459D01*
X114254500Y-85503885D01*
X114274185Y-85436846D01*
X114290814Y-85416209D01*
X117357627Y-82349395D01*
X117418948Y-82315912D01*
X117481854Y-82318586D01*
X117633228Y-82365280D01*
X117900071Y-82405500D01*
X117900072Y-82405500D01*
X118169928Y-82405500D01*
X118169929Y-82405500D01*
X118169936Y-82405499D01*
X118436767Y-82365281D01*
X118436768Y-82365280D01*
X118436772Y-82365280D01*
X118694641Y-82285738D01*
X118937775Y-82168651D01*
X119160741Y-82016635D01*
X119358561Y-81833085D01*
X119526815Y-81622102D01*
X119661743Y-81388398D01*
X119760334Y-81137195D01*
X119820383Y-80874103D01*
X119830399Y-80740450D01*
X119840549Y-80605004D01*
X119840549Y-80604995D01*
X119820383Y-80335898D01*
X119789318Y-80199793D01*
X119760334Y-80072805D01*
X119661743Y-79821602D01*
X119526815Y-79587898D01*
X119358561Y-79376915D01*
X119358560Y-79376914D01*
X119358557Y-79376910D01*
X119160741Y-79193365D01*
X119140823Y-79179785D01*
X118937775Y-79041349D01*
X118937769Y-79041346D01*
X118937768Y-79041345D01*
X118937767Y-79041344D01*
X118694643Y-78924263D01*
X118694645Y-78924263D01*
X118436773Y-78844720D01*
X118436767Y-78844718D01*
X118169936Y-78804500D01*
X118169929Y-78804500D01*
X117900071Y-78804500D01*
X117900063Y-78804500D01*
X117633232Y-78844718D01*
X117633226Y-78844720D01*
X117375358Y-78924262D01*
X117132230Y-79041346D01*
X116909258Y-79193365D01*
X116711442Y-79376910D01*
X116543185Y-79587898D01*
X116408258Y-79821599D01*
X116408256Y-79821603D01*
X116309666Y-80072804D01*
X116309664Y-80072811D01*
X116249616Y-80335898D01*
X116229451Y-80604995D01*
X116229451Y-80605004D01*
X116249616Y-80874101D01*
X116309664Y-81137188D01*
X116309667Y-81137200D01*
X116315550Y-81152188D01*
X116321719Y-81221785D01*
X116289281Y-81283668D01*
X116287803Y-81285171D01*
X112913943Y-84659030D01*
X112913942Y-84659031D01*
X112831370Y-84782611D01*
X112824794Y-84798488D01*
X112774495Y-84919920D01*
X112769684Y-84944105D01*
X112745499Y-85065685D01*
X112745499Y-85220425D01*
X112745500Y-85220446D01*
X112745500Y-85611459D01*
X112738542Y-85652414D01*
X112714631Y-85720745D01*
X112714630Y-85720750D01*
X112694435Y-85899996D01*
X110267027Y-85899996D01*
X113435963Y-82731060D01*
X113435966Y-82731059D01*
X113541059Y-82625966D01*
X113623629Y-82502390D01*
X113623630Y-82502389D01*
X113632055Y-82482047D01*
X113675896Y-82427644D01*
X113742189Y-82405578D01*
X113746617Y-82405499D01*
X114302871Y-82405499D01*
X114302872Y-82405499D01*
X114362483Y-82399091D01*
X114497331Y-82348796D01*
X114612546Y-82262546D01*
X114698796Y-82147331D01*
X114749091Y-82012483D01*
X114755500Y-81952873D01*
X114755499Y-79257128D01*
X114749091Y-79197517D01*
X114747542Y-79193365D01*
X114698797Y-79062671D01*
X114698793Y-79062664D01*
X114612547Y-78947455D01*
X114612544Y-78947452D01*
X114497335Y-78861206D01*
X114497328Y-78861202D01*
X114362482Y-78810908D01*
X114362483Y-78810908D01*
X114302883Y-78804501D01*
X114302881Y-78804500D01*
X114302873Y-78804500D01*
X114302864Y-78804500D01*
X111607129Y-78804500D01*
X111607123Y-78804501D01*
X111547516Y-78810908D01*
X111412671Y-78861202D01*
X111412664Y-78861206D01*
X111297455Y-78947452D01*
X111297452Y-78947455D01*
X111211206Y-79062664D01*
X111211202Y-79062671D01*
X111160908Y-79197517D01*
X111154501Y-79257116D01*
X111154501Y-79257123D01*
X111154500Y-79257135D01*
X111154500Y-81952870D01*
X111154501Y-81952876D01*
X111160908Y-82012483D01*
X111211202Y-82147328D01*
X111211206Y-82147335D01*
X111297452Y-82262544D01*
X111297455Y-82262547D01*
X111412664Y-82348793D01*
X111412671Y-82348797D01*
X111429637Y-82355125D01*
X111485571Y-82396996D01*
X111509988Y-82462460D01*
X111495137Y-82530733D01*
X111473985Y-82558988D01*
X108981357Y-85051616D01*
X108955869Y-85069705D01*
X108956373Y-85070507D01*
X108797737Y-85170184D01*
X108670184Y-85297737D01*
X108574211Y-85450476D01*
X108514631Y-85620745D01*
X108514630Y-85620750D01*
X108494435Y-85799996D01*
X105037652Y-85799996D01*
X105004816Y-85747738D01*
X104877262Y-85620184D01*
X104845146Y-85600004D01*
X104724523Y-85524211D01*
X104554254Y-85464631D01*
X104554249Y-85464630D01*
X104375004Y-85444435D01*
X104374996Y-85444435D01*
X104195750Y-85464630D01*
X104195737Y-85464633D01*
X104127415Y-85488541D01*
X104086460Y-85495500D01*
X103225833Y-85495500D01*
X103158794Y-85475815D01*
X103113039Y-85423011D01*
X103103095Y-85353853D01*
X103109651Y-85328166D01*
X103137398Y-85253772D01*
X103143799Y-85194244D01*
X103143800Y-85194227D01*
X103143800Y-84990000D01*
X100645200Y-84990000D01*
X100645200Y-85194244D01*
X100651601Y-85253772D01*
X100651603Y-85253782D01*
X100680386Y-85330953D01*
X100685370Y-85400644D01*
X100680386Y-85417617D01*
X100651109Y-85496114D01*
X100651108Y-85496116D01*
X100644701Y-85555716D01*
X100644701Y-85555723D01*
X100644700Y-85555735D01*
X100644700Y-86464270D01*
X100644701Y-86464276D01*
X100651108Y-86523882D01*
X100671179Y-86577695D01*
X100679320Y-86599523D01*
X100680120Y-86601666D01*
X100685104Y-86671358D01*
X100680120Y-86688331D01*
X100651109Y-86766114D01*
X100651108Y-86766116D01*
X100644701Y-86825716D01*
X100644701Y-86825723D01*
X100644700Y-86825735D01*
X100644700Y-87734270D01*
X100644701Y-87734276D01*
X100651108Y-87793882D01*
X100680120Y-87871666D01*
X100685104Y-87941358D01*
X100680120Y-87958331D01*
X100651109Y-88036114D01*
X100651108Y-88036116D01*
X100644701Y-88095716D01*
X100644701Y-88095723D01*
X100644700Y-88095735D01*
X100644700Y-89004270D01*
X100644701Y-89004276D01*
X100651108Y-89063882D01*
X100667901Y-89108905D01*
X100679626Y-89140343D01*
X100680120Y-89141666D01*
X100685104Y-89211358D01*
X100680120Y-89228331D01*
X100651109Y-89306114D01*
X100651108Y-89306116D01*
X100644853Y-89364305D01*
X100644701Y-89365723D01*
X100644700Y-89365735D01*
X100644700Y-90274270D01*
X100644701Y-90274276D01*
X100651108Y-90333882D01*
X100669801Y-90384000D01*
X100678028Y-90406059D01*
X100680120Y-90411666D01*
X100685104Y-90481358D01*
X100680120Y-90498331D01*
X100651109Y-90576114D01*
X100651108Y-90576116D01*
X100644701Y-90635716D01*
X100644701Y-90635723D01*
X100644700Y-90635735D01*
X100644700Y-91544270D01*
X100644701Y-91544276D01*
X100651108Y-91603882D01*
X100663270Y-91636489D01*
X100676748Y-91672627D01*
X100680120Y-91681666D01*
X100685104Y-91751358D01*
X100680120Y-91768331D01*
X100651109Y-91846114D01*
X100651108Y-91846116D01*
X100649182Y-91864036D01*
X100644701Y-91905723D01*
X100644700Y-91905735D01*
X100644700Y-92814270D01*
X100644701Y-92814276D01*
X100651108Y-92873882D01*
X100665167Y-92911575D01*
X100678028Y-92946059D01*
X100680120Y-92951666D01*
X100685104Y-93021358D01*
X100680120Y-93038331D01*
X100651109Y-93116114D01*
X100651108Y-93116116D01*
X100646286Y-93160976D01*
X100644701Y-93175723D01*
X100644700Y-93175735D01*
X100644700Y-94084270D01*
X100644701Y-94084276D01*
X100651108Y-94143882D01*
X100680120Y-94221666D01*
X100685104Y-94291358D01*
X100680120Y-94308331D01*
X100651109Y-94386114D01*
X100651108Y-94386116D01*
X100644701Y-94445716D01*
X100644701Y-94445723D01*
X100644700Y-94445735D01*
X100644700Y-95354270D01*
X100644701Y-95354276D01*
X100651108Y-95413882D01*
X100670882Y-95466899D01*
X100679925Y-95491145D01*
X100680120Y-95491666D01*
X100685104Y-95561358D01*
X100680120Y-95578331D01*
X100651109Y-95656114D01*
X100651108Y-95656116D01*
X100647508Y-95689606D01*
X100644701Y-95715723D01*
X100644700Y-95715735D01*
X100644700Y-96624270D01*
X100644701Y-96624276D01*
X100651108Y-96683882D01*
X100680120Y-96761666D01*
X100685104Y-96831358D01*
X100680120Y-96848331D01*
X100651109Y-96926114D01*
X100651108Y-96926116D01*
X100646310Y-96970750D01*
X100644701Y-96985723D01*
X100644700Y-96985735D01*
X100644700Y-97894270D01*
X100644701Y-97894276D01*
X100651108Y-97953882D01*
X100660290Y-97978500D01*
X100679429Y-98029815D01*
X100680120Y-98031666D01*
X100685104Y-98101358D01*
X100680120Y-98118331D01*
X100651109Y-98196114D01*
X100651108Y-98196116D01*
X100645039Y-98252573D01*
X100644701Y-98255723D01*
X100644700Y-98255735D01*
X100644700Y-99164270D01*
X100644701Y-99164276D01*
X100651108Y-99223882D01*
X100660198Y-99248253D01*
X100679499Y-99300003D01*
X100680120Y-99301666D01*
X100685104Y-99371358D01*
X100680120Y-99388331D01*
X100651109Y-99466114D01*
X100651108Y-99466116D01*
X100645543Y-99517886D01*
X100644701Y-99525723D01*
X100644700Y-99525735D01*
X100644700Y-100434270D01*
X100644701Y-100434276D01*
X100651108Y-100493882D01*
X100661129Y-100520749D01*
X100675205Y-100558490D01*
X100680120Y-100571666D01*
X100685104Y-100641358D01*
X100680120Y-100658331D01*
X100651109Y-100736114D01*
X100651108Y-100736116D01*
X100646645Y-100777634D01*
X100644701Y-100795723D01*
X100644700Y-100795735D01*
X100644700Y-101126200D01*
X100625015Y-101193239D01*
X100572211Y-101238994D01*
X100520700Y-101250200D01*
X99675229Y-101250200D01*
X99675223Y-101250201D01*
X99615616Y-101256608D01*
X99537832Y-101285620D01*
X99468140Y-101290604D01*
X99451167Y-101285620D01*
X99373382Y-101256608D01*
X99373383Y-101256608D01*
X99313783Y-101250201D01*
X99313781Y-101250200D01*
X99313773Y-101250200D01*
X99313764Y-101250200D01*
X98405229Y-101250200D01*
X98405223Y-101250201D01*
X98345616Y-101256608D01*
X98267832Y-101285620D01*
X98198140Y-101290604D01*
X98181167Y-101285620D01*
X98103382Y-101256608D01*
X98103383Y-101256608D01*
X98043783Y-101250201D01*
X98043781Y-101250200D01*
X98043773Y-101250200D01*
X98043764Y-101250200D01*
X97135229Y-101250200D01*
X97135223Y-101250201D01*
X97075616Y-101256608D01*
X96997832Y-101285620D01*
X96928140Y-101290604D01*
X96911167Y-101285620D01*
X96833382Y-101256608D01*
X96833383Y-101256608D01*
X96773783Y-101250201D01*
X96773781Y-101250200D01*
X96773773Y-101250200D01*
X96773764Y-101250200D01*
X95865229Y-101250200D01*
X95865223Y-101250201D01*
X95805616Y-101256608D01*
X95727832Y-101285620D01*
X95658140Y-101290604D01*
X95641167Y-101285620D01*
X95563382Y-101256608D01*
X95563383Y-101256608D01*
X95503783Y-101250201D01*
X95503781Y-101250200D01*
X95503773Y-101250200D01*
X95503764Y-101250200D01*
X94595229Y-101250200D01*
X94595223Y-101250201D01*
X94535616Y-101256608D01*
X94457832Y-101285620D01*
X94388140Y-101290604D01*
X94371167Y-101285620D01*
X94293382Y-101256608D01*
X94293383Y-101256608D01*
X94233783Y-101250201D01*
X94233781Y-101250200D01*
X94233773Y-101250200D01*
X94233764Y-101250200D01*
X93325229Y-101250200D01*
X93325223Y-101250201D01*
X93265616Y-101256608D01*
X93187832Y-101285620D01*
X93118140Y-101290604D01*
X93101167Y-101285620D01*
X93023382Y-101256608D01*
X93023383Y-101256608D01*
X92963783Y-101250201D01*
X92963781Y-101250200D01*
X92963773Y-101250200D01*
X92963764Y-101250200D01*
X92055229Y-101250200D01*
X92055223Y-101250201D01*
X91995616Y-101256608D01*
X91917832Y-101285620D01*
X91848140Y-101290604D01*
X91831167Y-101285620D01*
X91753382Y-101256608D01*
X91753383Y-101256608D01*
X91693783Y-101250201D01*
X91693781Y-101250200D01*
X91693773Y-101250200D01*
X91693764Y-101250200D01*
X90785229Y-101250200D01*
X90785223Y-101250201D01*
X90725616Y-101256608D01*
X90647832Y-101285620D01*
X90578140Y-101290604D01*
X90561167Y-101285620D01*
X90483382Y-101256608D01*
X90483383Y-101256608D01*
X90423783Y-101250201D01*
X90423781Y-101250200D01*
X90423773Y-101250200D01*
X90423764Y-101250200D01*
X89515229Y-101250200D01*
X89515223Y-101250201D01*
X89455616Y-101256608D01*
X89377832Y-101285620D01*
X89308140Y-101290604D01*
X89291167Y-101285620D01*
X89213382Y-101256608D01*
X89213383Y-101256608D01*
X89153783Y-101250201D01*
X89153781Y-101250200D01*
X89153773Y-101250200D01*
X89153764Y-101250200D01*
X88245229Y-101250200D01*
X88245223Y-101250201D01*
X88185616Y-101256608D01*
X88107832Y-101285620D01*
X88038140Y-101290604D01*
X88021167Y-101285620D01*
X87943382Y-101256608D01*
X87943383Y-101256608D01*
X87883783Y-101250201D01*
X87883781Y-101250200D01*
X87883773Y-101250200D01*
X87883764Y-101250200D01*
X86975229Y-101250200D01*
X86975223Y-101250201D01*
X86915616Y-101256608D01*
X86837832Y-101285620D01*
X86768140Y-101290604D01*
X86751167Y-101285620D01*
X86673382Y-101256608D01*
X86673383Y-101256608D01*
X86613783Y-101250201D01*
X86613781Y-101250200D01*
X86613773Y-101250200D01*
X86613765Y-101250200D01*
X85768299Y-101250200D01*
X85701260Y-101230515D01*
X85655505Y-101177711D01*
X85644299Y-101126200D01*
X85644299Y-100795729D01*
X85644298Y-100795723D01*
X85644297Y-100795716D01*
X85637891Y-100736117D01*
X85608878Y-100658331D01*
X85603895Y-100588642D01*
X85608880Y-100571666D01*
X85637888Y-100493891D01*
X85637887Y-100493891D01*
X85637891Y-100493883D01*
X85644300Y-100434273D01*
X85644299Y-99525728D01*
X85637891Y-99466117D01*
X85608878Y-99388331D01*
X85603895Y-99318642D01*
X85608880Y-99301666D01*
X85637888Y-99223891D01*
X85637887Y-99223891D01*
X85637891Y-99223883D01*
X85644300Y-99164273D01*
X85644299Y-98255728D01*
X85637891Y-98196117D01*
X85608878Y-98118331D01*
X85603895Y-98048642D01*
X85608880Y-98031666D01*
X85637888Y-97953891D01*
X85637887Y-97953891D01*
X85637891Y-97953883D01*
X85644300Y-97894273D01*
X85644299Y-96985728D01*
X85637891Y-96926117D01*
X85608878Y-96848331D01*
X85603895Y-96778642D01*
X85608880Y-96761666D01*
X85637888Y-96683891D01*
X85637887Y-96683891D01*
X85637891Y-96683883D01*
X85644300Y-96624273D01*
X85644299Y-95715728D01*
X85637891Y-95656117D01*
X85608878Y-95578331D01*
X85603895Y-95508642D01*
X85608880Y-95491666D01*
X85637888Y-95413891D01*
X85637887Y-95413891D01*
X85637891Y-95413883D01*
X85644300Y-95354273D01*
X85644299Y-94445728D01*
X85637891Y-94386117D01*
X85608878Y-94308331D01*
X85603895Y-94238642D01*
X85608880Y-94221666D01*
X85637888Y-94143891D01*
X85637887Y-94143891D01*
X85637891Y-94143883D01*
X85644300Y-94084273D01*
X85644299Y-93175728D01*
X85637891Y-93116117D01*
X85608878Y-93038331D01*
X85603895Y-92968642D01*
X85608880Y-92951666D01*
X85637888Y-92873891D01*
X85637887Y-92873891D01*
X85637891Y-92873883D01*
X85644300Y-92814273D01*
X85644299Y-91905728D01*
X85637891Y-91846117D01*
X85608878Y-91768331D01*
X85603895Y-91698642D01*
X85608880Y-91681666D01*
X85637888Y-91603891D01*
X85637887Y-91603891D01*
X85637891Y-91603883D01*
X85644300Y-91544273D01*
X85644299Y-90635728D01*
X85637891Y-90576117D01*
X85634727Y-90567635D01*
X89299500Y-90567635D01*
X89299500Y-91552370D01*
X89299501Y-91552376D01*
X89305908Y-91611983D01*
X89344953Y-91716667D01*
X89349937Y-91786359D01*
X89344953Y-91803333D01*
X89305908Y-91908017D01*
X89299501Y-91967616D01*
X89299500Y-91967635D01*
X89299500Y-92952370D01*
X89299501Y-92952376D01*
X89305908Y-93011983D01*
X89344953Y-93116667D01*
X89349937Y-93186359D01*
X89344953Y-93203333D01*
X89305908Y-93308017D01*
X89299501Y-93367616D01*
X89299500Y-93367635D01*
X89299500Y-94352370D01*
X89299501Y-94352376D01*
X89305908Y-94411983D01*
X89356202Y-94546828D01*
X89356206Y-94546835D01*
X89442452Y-94662044D01*
X89442455Y-94662047D01*
X89557664Y-94748293D01*
X89557671Y-94748297D01*
X89692517Y-94798591D01*
X89692516Y-94798591D01*
X89699444Y-94799335D01*
X89752127Y-94805000D01*
X90736872Y-94804999D01*
X90796483Y-94798591D01*
X90901168Y-94759545D01*
X90970858Y-94754562D01*
X90987823Y-94759543D01*
X91092517Y-94798591D01*
X91152127Y-94805000D01*
X92136872Y-94804999D01*
X92196483Y-94798591D01*
X92301881Y-94759279D01*
X92371572Y-94754296D01*
X92388547Y-94759280D01*
X92492620Y-94798096D01*
X92492627Y-94798098D01*
X92552155Y-94804499D01*
X92552172Y-94804500D01*
X92794500Y-94804500D01*
X93294500Y-94804500D01*
X93536828Y-94804500D01*
X93536844Y-94804499D01*
X93596372Y-94798098D01*
X93596379Y-94798096D01*
X93731086Y-94747854D01*
X93731093Y-94747850D01*
X93846187Y-94661690D01*
X93846190Y-94661687D01*
X93932350Y-94546593D01*
X93932354Y-94546586D01*
X93982596Y-94411879D01*
X93982598Y-94411872D01*
X93988999Y-94352344D01*
X93989000Y-94352327D01*
X93989000Y-94110000D01*
X93294500Y-94110000D01*
X93294500Y-94804500D01*
X92794500Y-94804500D01*
X92794500Y-93610000D01*
X93294500Y-93610000D01*
X93989000Y-93610000D01*
X93989000Y-93367672D01*
X93988999Y-93367655D01*
X93982598Y-93308127D01*
X93982597Y-93308123D01*
X93943513Y-93203334D01*
X93938529Y-93133642D01*
X93943513Y-93116666D01*
X93982597Y-93011876D01*
X93982598Y-93011872D01*
X93988999Y-92952344D01*
X93989000Y-92952327D01*
X93989000Y-92710000D01*
X93294500Y-92710000D01*
X93294500Y-93610000D01*
X92794500Y-93610000D01*
X92794500Y-92710000D01*
X91518500Y-92710000D01*
X91451461Y-92690315D01*
X91405706Y-92637511D01*
X91394500Y-92586000D01*
X91394500Y-92210000D01*
X91894500Y-92210000D01*
X92794500Y-92210000D01*
X93294500Y-92210000D01*
X93989000Y-92210000D01*
X93989000Y-91967672D01*
X93988999Y-91967655D01*
X93982598Y-91908127D01*
X93982597Y-91908123D01*
X93943513Y-91803334D01*
X93938529Y-91733642D01*
X93943513Y-91716666D01*
X93982597Y-91611876D01*
X93982598Y-91611872D01*
X93988999Y-91552344D01*
X93989000Y-91552327D01*
X93989000Y-91310000D01*
X93294500Y-91310000D01*
X93294500Y-92210000D01*
X92794500Y-92210000D01*
X92794500Y-91310000D01*
X91894500Y-91310000D01*
X91894500Y-92210000D01*
X91394500Y-92210000D01*
X91394500Y-90810000D01*
X91894500Y-90810000D01*
X92794500Y-90810000D01*
X93294500Y-90810000D01*
X93989000Y-90810000D01*
X93989000Y-90567672D01*
X93988999Y-90567655D01*
X93982598Y-90508127D01*
X93982596Y-90508120D01*
X93932354Y-90373413D01*
X93932350Y-90373406D01*
X93846190Y-90258312D01*
X93846187Y-90258309D01*
X93731093Y-90172149D01*
X93731086Y-90172145D01*
X93596379Y-90121903D01*
X93596372Y-90121901D01*
X93536844Y-90115500D01*
X93294500Y-90115500D01*
X93294500Y-90810000D01*
X92794500Y-90810000D01*
X92794500Y-90115500D01*
X92552155Y-90115500D01*
X92492627Y-90121901D01*
X92492619Y-90121903D01*
X92387833Y-90160986D01*
X92318141Y-90165970D01*
X92301167Y-90160986D01*
X92196380Y-90121903D01*
X92196372Y-90121901D01*
X92136844Y-90115500D01*
X91894500Y-90115500D01*
X91894500Y-90810000D01*
X91394500Y-90810000D01*
X91394500Y-90115500D01*
X91152155Y-90115500D01*
X91092627Y-90121901D01*
X91092620Y-90121903D01*
X90988547Y-90160720D01*
X90918855Y-90165704D01*
X90901881Y-90160720D01*
X90796482Y-90121408D01*
X90796483Y-90121408D01*
X90736883Y-90115001D01*
X90736881Y-90115000D01*
X90736873Y-90115000D01*
X90736864Y-90115000D01*
X89752129Y-90115000D01*
X89752123Y-90115001D01*
X89692516Y-90121408D01*
X89557671Y-90171702D01*
X89557664Y-90171706D01*
X89442455Y-90257952D01*
X89442452Y-90257955D01*
X89356206Y-90373164D01*
X89356202Y-90373171D01*
X89305908Y-90508017D01*
X89299501Y-90567616D01*
X89299500Y-90567635D01*
X85634727Y-90567635D01*
X85608878Y-90498331D01*
X85603895Y-90428642D01*
X85608880Y-90411666D01*
X85637888Y-90333891D01*
X85637887Y-90333891D01*
X85637891Y-90333883D01*
X85644300Y-90274273D01*
X85644299Y-89365728D01*
X85637891Y-89306117D01*
X85608878Y-89228331D01*
X85603895Y-89158642D01*
X85608880Y-89141666D01*
X85637888Y-89063891D01*
X85637887Y-89063891D01*
X85637891Y-89063883D01*
X85644300Y-89004273D01*
X85644299Y-88095728D01*
X85637891Y-88036117D01*
X85608878Y-87958331D01*
X85603895Y-87888642D01*
X85608880Y-87871666D01*
X85637888Y-87793891D01*
X85637887Y-87793891D01*
X85637891Y-87793883D01*
X85644300Y-87734273D01*
X85644299Y-86825728D01*
X85637891Y-86766117D01*
X85608878Y-86688331D01*
X85603895Y-86618642D01*
X85608880Y-86601666D01*
X85637888Y-86523891D01*
X85637887Y-86523891D01*
X85637891Y-86523883D01*
X85644300Y-86464273D01*
X85644299Y-85555728D01*
X85637891Y-85496117D01*
X85608611Y-85417615D01*
X85603628Y-85347926D01*
X85608613Y-85330950D01*
X85637397Y-85253778D01*
X85637398Y-85253772D01*
X85643799Y-85194244D01*
X85643800Y-85194227D01*
X85643800Y-84990000D01*
X83235586Y-84990000D01*
X83168547Y-84970315D01*
X83147905Y-84953681D01*
X83042729Y-84848505D01*
X82790819Y-84596594D01*
X82757334Y-84535271D01*
X82754500Y-84508913D01*
X82754500Y-84285755D01*
X83145200Y-84285755D01*
X83145200Y-84490000D01*
X84144500Y-84490000D01*
X84644500Y-84490000D01*
X85643800Y-84490000D01*
X85643800Y-84285772D01*
X85643799Y-84285755D01*
X100645200Y-84285755D01*
X100645200Y-84490000D01*
X101644500Y-84490000D01*
X102144500Y-84490000D01*
X103143800Y-84490000D01*
X103143800Y-84285772D01*
X103143799Y-84285755D01*
X103137398Y-84226227D01*
X103137396Y-84226220D01*
X103087154Y-84091513D01*
X103087150Y-84091506D01*
X103000990Y-83976412D01*
X103000987Y-83976409D01*
X102885893Y-83890249D01*
X102885886Y-83890245D01*
X102751179Y-83840003D01*
X102751172Y-83840001D01*
X102691644Y-83833600D01*
X102144500Y-83833600D01*
X102144500Y-84490000D01*
X101644500Y-84490000D01*
X101644500Y-83833600D01*
X101097355Y-83833600D01*
X101037827Y-83840001D01*
X101037820Y-83840003D01*
X100903113Y-83890245D01*
X100903106Y-83890249D01*
X100788012Y-83976409D01*
X100788009Y-83976412D01*
X100701849Y-84091506D01*
X100701845Y-84091513D01*
X100651603Y-84226220D01*
X100651601Y-84226227D01*
X100645200Y-84285755D01*
X85643799Y-84285755D01*
X85637398Y-84226227D01*
X85637396Y-84226220D01*
X85587154Y-84091513D01*
X85587150Y-84091506D01*
X85500990Y-83976412D01*
X85500987Y-83976409D01*
X85385893Y-83890249D01*
X85385886Y-83890245D01*
X85251179Y-83840003D01*
X85251172Y-83840001D01*
X85191644Y-83833600D01*
X84644500Y-83833600D01*
X84644500Y-84490000D01*
X84144500Y-84490000D01*
X84144500Y-83833600D01*
X83597355Y-83833600D01*
X83537827Y-83840001D01*
X83537820Y-83840003D01*
X83403113Y-83890245D01*
X83403106Y-83890249D01*
X83288012Y-83976409D01*
X83288009Y-83976412D01*
X83201849Y-84091506D01*
X83201845Y-84091513D01*
X83151603Y-84226220D01*
X83151601Y-84226227D01*
X83145200Y-84285755D01*
X82754500Y-84285755D01*
X82754500Y-83416090D01*
X82774185Y-83349051D01*
X82813402Y-83310552D01*
X82943656Y-83230212D01*
X83067712Y-83106156D01*
X83159814Y-82956834D01*
X83214999Y-82790297D01*
X83225500Y-82687509D01*
X83225499Y-81912492D01*
X83219166Y-81850500D01*
X83214999Y-81809703D01*
X83214998Y-81809700D01*
X83178931Y-81700857D01*
X83159814Y-81643166D01*
X83067712Y-81493844D01*
X82943656Y-81369788D01*
X82940342Y-81367743D01*
X82938546Y-81365748D01*
X82937989Y-81365307D01*
X82938064Y-81365211D01*
X82893618Y-81315797D01*
X82882397Y-81246834D01*
X82910240Y-81182752D01*
X82940348Y-81156665D01*
X82943342Y-81154818D01*
X83067315Y-81030845D01*
X83159356Y-80881624D01*
X83159358Y-80881619D01*
X83214505Y-80715197D01*
X83214506Y-80715190D01*
X83224999Y-80612486D01*
X83225000Y-80612473D01*
X83225000Y-80475000D01*
X81874000Y-80475000D01*
X81806961Y-80455315D01*
X81761206Y-80402511D01*
X81750000Y-80351000D01*
X81750000Y-79975000D01*
X82250000Y-79975000D01*
X83224999Y-79975000D01*
X83224999Y-79837528D01*
X83224998Y-79837513D01*
X83214505Y-79734802D01*
X83159358Y-79568380D01*
X83159356Y-79568375D01*
X83067315Y-79419154D01*
X82943345Y-79295184D01*
X82794124Y-79203143D01*
X82794119Y-79203141D01*
X82627697Y-79147994D01*
X82627690Y-79147993D01*
X82524986Y-79137500D01*
X82250000Y-79137500D01*
X82250000Y-79975000D01*
X81750000Y-79975000D01*
X81750000Y-79137500D01*
X81475029Y-79137500D01*
X81475012Y-79137501D01*
X81372302Y-79147994D01*
X81205880Y-79203141D01*
X81205875Y-79203143D01*
X81056654Y-79295184D01*
X80932684Y-79419154D01*
X80840643Y-79568375D01*
X80840641Y-79568380D01*
X80817706Y-79637595D01*
X80777933Y-79695040D01*
X80713417Y-79721863D01*
X80644641Y-79709548D01*
X80593442Y-79662005D01*
X80582294Y-79637595D01*
X80559358Y-79568380D01*
X80559356Y-79568375D01*
X80467315Y-79419154D01*
X80343345Y-79295184D01*
X80194124Y-79203143D01*
X80194119Y-79203141D01*
X80027697Y-79147994D01*
X80027690Y-79147993D01*
X79924986Y-79137500D01*
X79650000Y-79137500D01*
X79650000Y-80351000D01*
X79630315Y-80418039D01*
X79577511Y-80463794D01*
X79526000Y-80475000D01*
X78175001Y-80475000D01*
X78175001Y-80612486D01*
X78185494Y-80715197D01*
X78240641Y-80881619D01*
X78240643Y-80881624D01*
X78332684Y-81030845D01*
X78456655Y-81154816D01*
X78456659Y-81154819D01*
X78459656Y-81156668D01*
X78461279Y-81158472D01*
X78462323Y-81159298D01*
X78462181Y-81159476D01*
X78506381Y-81208616D01*
X78517602Y-81277579D01*
X78489759Y-81341661D01*
X78459661Y-81367741D01*
X78456349Y-81369783D01*
X78456343Y-81369788D01*
X78332289Y-81493842D01*
X78240187Y-81643163D01*
X78240186Y-81643166D01*
X78185001Y-81809703D01*
X78185001Y-81809704D01*
X78185000Y-81809704D01*
X78174500Y-81912483D01*
X78174500Y-82208114D01*
X78154815Y-82275153D01*
X78102011Y-82320908D01*
X78032853Y-82330852D01*
X77969297Y-82301827D01*
X77962819Y-82295795D01*
X77026222Y-81359198D01*
X76992737Y-81297875D01*
X76997720Y-81228185D01*
X77024091Y-81157483D01*
X77030500Y-81097873D01*
X77030499Y-79837513D01*
X78175000Y-79837513D01*
X78175000Y-79975000D01*
X79150000Y-79975000D01*
X79150000Y-79137500D01*
X78875029Y-79137500D01*
X78875012Y-79137501D01*
X78772302Y-79147994D01*
X78605880Y-79203141D01*
X78605875Y-79203143D01*
X78456654Y-79295184D01*
X78332684Y-79419154D01*
X78240643Y-79568375D01*
X78240641Y-79568380D01*
X78185494Y-79734802D01*
X78185493Y-79734809D01*
X78175000Y-79837513D01*
X77030499Y-79837513D01*
X77030499Y-79302128D01*
X77024091Y-79242517D01*
X77022810Y-79239083D01*
X76973797Y-79107671D01*
X76973793Y-79107664D01*
X76887547Y-78992455D01*
X76887544Y-78992452D01*
X76772335Y-78906206D01*
X76772328Y-78906202D01*
X76637482Y-78855908D01*
X76637483Y-78855908D01*
X76577883Y-78849501D01*
X76577881Y-78849500D01*
X76577873Y-78849500D01*
X76577864Y-78849500D01*
X74782129Y-78849500D01*
X74782123Y-78849501D01*
X74722516Y-78855908D01*
X74587671Y-78906202D01*
X74587664Y-78906206D01*
X74472455Y-78992452D01*
X74472452Y-78992455D01*
X74386206Y-79107664D01*
X74386203Y-79107669D01*
X74337189Y-79239083D01*
X74295317Y-79295016D01*
X74229853Y-79319433D01*
X74161580Y-79304581D01*
X74133326Y-79283430D01*
X74011402Y-79161506D01*
X74011395Y-79161501D01*
X73817834Y-79025967D01*
X73817830Y-79025965D01*
X73817828Y-79025964D01*
X73603663Y-78926097D01*
X73603659Y-78926096D01*
X73603655Y-78926094D01*
X73375413Y-78864938D01*
X73375403Y-78864936D01*
X73140001Y-78844341D01*
X73139999Y-78844341D01*
X72904596Y-78864936D01*
X72904586Y-78864938D01*
X72676344Y-78926094D01*
X72676335Y-78926098D01*
X72462171Y-79025964D01*
X72462169Y-79025965D01*
X72268597Y-79161505D01*
X72101505Y-79328597D01*
X71971575Y-79514158D01*
X71916998Y-79557783D01*
X71847500Y-79564977D01*
X71785145Y-79533454D01*
X71768425Y-79514158D01*
X71638494Y-79328597D01*
X71471402Y-79161506D01*
X71471395Y-79161501D01*
X71277834Y-79025967D01*
X71277830Y-79025965D01*
X71277828Y-79025964D01*
X71063663Y-78926097D01*
X71063659Y-78926096D01*
X71063655Y-78926094D01*
X70835413Y-78864938D01*
X70835403Y-78864936D01*
X70600001Y-78844341D01*
X70599999Y-78844341D01*
X70364596Y-78864936D01*
X70364586Y-78864938D01*
X70136344Y-78926094D01*
X70136335Y-78926098D01*
X69922171Y-79025964D01*
X69922169Y-79025965D01*
X69728597Y-79161505D01*
X69561505Y-79328597D01*
X69425965Y-79522169D01*
X69425964Y-79522171D01*
X69326098Y-79736335D01*
X69326094Y-79736344D01*
X69264938Y-79964586D01*
X69264936Y-79964596D01*
X69244341Y-80199999D01*
X69244341Y-80200000D01*
X69264936Y-80435403D01*
X69264938Y-80435413D01*
X69326094Y-80663655D01*
X69326096Y-80663659D01*
X69326097Y-80663663D01*
X69368670Y-80754960D01*
X69425965Y-80877830D01*
X69425967Y-80877834D01*
X69532718Y-81030289D01*
X69561505Y-81071401D01*
X69728599Y-81238495D01*
X69793113Y-81283668D01*
X69922165Y-81374032D01*
X69922167Y-81374033D01*
X69922170Y-81374035D01*
X70136337Y-81473903D01*
X70364592Y-81535063D01*
X70552918Y-81551539D01*
X70599999Y-81555659D01*
X70600000Y-81555659D01*
X70600001Y-81555659D01*
X70627776Y-81553228D01*
X70807811Y-81537477D01*
X70876310Y-81551243D01*
X70906299Y-81573324D01*
X75233453Y-85900478D01*
X79456795Y-90123819D01*
X79490280Y-90185142D01*
X79485296Y-90254834D01*
X79443424Y-90310767D01*
X79377960Y-90335184D01*
X79369114Y-90335500D01*
X74993886Y-90335500D01*
X74926847Y-90315815D01*
X74906205Y-90299181D01*
X66369205Y-81762180D01*
X66335720Y-81700857D01*
X66340704Y-81631165D01*
X66382576Y-81575232D01*
X66448040Y-81550815D01*
X66456886Y-81550499D01*
X66832112Y-81550499D01*
X66899151Y-81570184D01*
X66919793Y-81586818D01*
X71126615Y-85793639D01*
X71144704Y-85819130D01*
X71145507Y-85818626D01*
X71149210Y-85824519D01*
X71149211Y-85824522D01*
X71245184Y-85977262D01*
X71372738Y-86104816D01*
X71443887Y-86149522D01*
X71523426Y-86199500D01*
X71525478Y-86200789D01*
X71664749Y-86249522D01*
X71695745Y-86260368D01*
X71695750Y-86260369D01*
X71874996Y-86280565D01*
X71875000Y-86280565D01*
X71875004Y-86280565D01*
X72054249Y-86260369D01*
X72054252Y-86260368D01*
X72054255Y-86260368D01*
X72224522Y-86200789D01*
X72377262Y-86104816D01*
X72504816Y-85977262D01*
X72600789Y-85824522D01*
X72660368Y-85654255D01*
X72660369Y-85654249D01*
X72680565Y-85475003D01*
X72680565Y-85474996D01*
X72660369Y-85295750D01*
X72660368Y-85295745D01*
X72647794Y-85259812D01*
X72600789Y-85125478D01*
X72504816Y-84972738D01*
X72377262Y-84845184D01*
X72224522Y-84749211D01*
X72224519Y-84749210D01*
X72218626Y-84745507D01*
X72219130Y-84744704D01*
X72193639Y-84726615D01*
X67666818Y-80199793D01*
X67633333Y-80138470D01*
X67630499Y-80112112D01*
X67630499Y-79302129D01*
X67630498Y-79302123D01*
X67629752Y-79295184D01*
X67624091Y-79242517D01*
X67622810Y-79239083D01*
X67573797Y-79107671D01*
X67573793Y-79107664D01*
X67487547Y-78992455D01*
X67487544Y-78992452D01*
X67372335Y-78906206D01*
X67372328Y-78906202D01*
X67237482Y-78855908D01*
X67237483Y-78855908D01*
X67177883Y-78849501D01*
X67177881Y-78849500D01*
X67177873Y-78849500D01*
X67177864Y-78849500D01*
X65382129Y-78849500D01*
X65382123Y-78849501D01*
X65322516Y-78855908D01*
X65187671Y-78906202D01*
X65187664Y-78906206D01*
X65072455Y-78992452D01*
X65072452Y-78992455D01*
X64986206Y-79107664D01*
X64986203Y-79107669D01*
X64937189Y-79239083D01*
X64895317Y-79295016D01*
X64829853Y-79319433D01*
X64761580Y-79304581D01*
X64733326Y-79283430D01*
X64611402Y-79161506D01*
X64611395Y-79161501D01*
X64417834Y-79025967D01*
X64417830Y-79025965D01*
X64417828Y-79025964D01*
X64203663Y-78926097D01*
X64203659Y-78926096D01*
X64203655Y-78926094D01*
X63975413Y-78864938D01*
X63975403Y-78864936D01*
X63740001Y-78844341D01*
X63739999Y-78844341D01*
X63504596Y-78864936D01*
X63504586Y-78864938D01*
X63276344Y-78926094D01*
X63276335Y-78926098D01*
X63062171Y-79025964D01*
X63062169Y-79025965D01*
X62868597Y-79161505D01*
X62701505Y-79328597D01*
X62571575Y-79514158D01*
X62516998Y-79557783D01*
X62447500Y-79564977D01*
X62385145Y-79533454D01*
X62368425Y-79514158D01*
X62238494Y-79328597D01*
X62071402Y-79161506D01*
X62071395Y-79161501D01*
X61877834Y-79025967D01*
X61877830Y-79025965D01*
X61877828Y-79025964D01*
X61663663Y-78926097D01*
X61663659Y-78926096D01*
X61663655Y-78926094D01*
X61435413Y-78864938D01*
X61435403Y-78864936D01*
X61200001Y-78844341D01*
X61199999Y-78844341D01*
X60964596Y-78864936D01*
X60964586Y-78864938D01*
X60736344Y-78926094D01*
X60736335Y-78926098D01*
X60522171Y-79025964D01*
X60522169Y-79025965D01*
X60328597Y-79161505D01*
X60161505Y-79328597D01*
X60025965Y-79522169D01*
X60025964Y-79522171D01*
X59926098Y-79736335D01*
X59926094Y-79736344D01*
X59864938Y-79964586D01*
X59864936Y-79964596D01*
X59844341Y-80199999D01*
X59844341Y-80200000D01*
X59864936Y-80435403D01*
X59864938Y-80435413D01*
X59926094Y-80663655D01*
X59926096Y-80663659D01*
X59926097Y-80663663D01*
X59968670Y-80754960D01*
X60025965Y-80877830D01*
X60025967Y-80877834D01*
X60132718Y-81030289D01*
X60161505Y-81071401D01*
X60328599Y-81238495D01*
X60393113Y-81283668D01*
X60522165Y-81374032D01*
X60522167Y-81374033D01*
X60522170Y-81374035D01*
X60736337Y-81473903D01*
X60964592Y-81535063D01*
X61152918Y-81551539D01*
X61199999Y-81555659D01*
X61200000Y-81555659D01*
X61200001Y-81555659D01*
X61227776Y-81553228D01*
X61407811Y-81537477D01*
X61476310Y-81551243D01*
X61506299Y-81573324D01*
X67117230Y-87184255D01*
X68058272Y-88125296D01*
X68091757Y-88186619D01*
X68086773Y-88256311D01*
X68044901Y-88312244D01*
X67979437Y-88336661D01*
X67923139Y-88327538D01*
X67830076Y-88288991D01*
X67795080Y-88274495D01*
X67767973Y-88269103D01*
X67767963Y-88269101D01*
X67649314Y-88245499D01*
X67649312Y-88245499D01*
X67500688Y-88245499D01*
X67494574Y-88245499D01*
X67494554Y-88245500D01*
X67474499Y-88245500D01*
X67407460Y-88225815D01*
X67361705Y-88173011D01*
X67350499Y-88121500D01*
X67350499Y-88102129D01*
X67350498Y-88102123D01*
X67350497Y-88102116D01*
X67344091Y-88042517D01*
X67342501Y-88038255D01*
X67293797Y-87907671D01*
X67293793Y-87907664D01*
X67207547Y-87792455D01*
X67207544Y-87792452D01*
X67092335Y-87706206D01*
X67092328Y-87706202D01*
X66957482Y-87655908D01*
X66957483Y-87655908D01*
X66897883Y-87649501D01*
X66897881Y-87649500D01*
X66897873Y-87649500D01*
X66897864Y-87649500D01*
X65102129Y-87649500D01*
X65102123Y-87649501D01*
X65042516Y-87655908D01*
X64907671Y-87706202D01*
X64907664Y-87706206D01*
X64792455Y-87792452D01*
X64792452Y-87792455D01*
X64706206Y-87907664D01*
X64706202Y-87907671D01*
X64655908Y-88042517D01*
X64649501Y-88102116D01*
X64649501Y-88102123D01*
X64649500Y-88102135D01*
X64649500Y-89897870D01*
X64649501Y-89897876D01*
X64655908Y-89957483D01*
X64706202Y-90092328D01*
X64706206Y-90092335D01*
X64792452Y-90207544D01*
X64792455Y-90207547D01*
X64907664Y-90293793D01*
X64907671Y-90293797D01*
X65039081Y-90342810D01*
X65095015Y-90384681D01*
X65119432Y-90450145D01*
X65104580Y-90518418D01*
X65083430Y-90546673D01*
X64961503Y-90668600D01*
X64825965Y-90862169D01*
X64825964Y-90862171D01*
X64726098Y-91076335D01*
X64726094Y-91076344D01*
X64664938Y-91304586D01*
X64664936Y-91304596D01*
X64644341Y-91539999D01*
X64644341Y-91540000D01*
X64664936Y-91775403D01*
X64664938Y-91775413D01*
X64726094Y-92003655D01*
X64726096Y-92003659D01*
X64726097Y-92003663D01*
X64794102Y-92149499D01*
X64825965Y-92217830D01*
X64825967Y-92217834D01*
X64961501Y-92411395D01*
X64961506Y-92411402D01*
X65128597Y-92578493D01*
X65128603Y-92578498D01*
X65314158Y-92708425D01*
X65357783Y-92763002D01*
X65364977Y-92832500D01*
X65333454Y-92894855D01*
X65314158Y-92911575D01*
X65128597Y-93041505D01*
X64961505Y-93208597D01*
X64825965Y-93402169D01*
X64825964Y-93402171D01*
X64726098Y-93616335D01*
X64726094Y-93616344D01*
X64664938Y-93844586D01*
X64664936Y-93844596D01*
X64644341Y-94079999D01*
X64644341Y-94080000D01*
X64664936Y-94315403D01*
X64664938Y-94315413D01*
X64726094Y-94543655D01*
X64726096Y-94543659D01*
X64726097Y-94543663D01*
X64762670Y-94622093D01*
X64825965Y-94757830D01*
X64825967Y-94757834D01*
X64887527Y-94845750D01*
X64961505Y-94951401D01*
X65128599Y-95118495D01*
X65172910Y-95149522D01*
X65322165Y-95254032D01*
X65322167Y-95254033D01*
X65322170Y-95254035D01*
X65536337Y-95353903D01*
X65536343Y-95353904D01*
X65536344Y-95353905D01*
X65537729Y-95354276D01*
X65764592Y-95415063D01*
X65933216Y-95429816D01*
X65999999Y-95435659D01*
X66000000Y-95435659D01*
X66000001Y-95435659D01*
X66042747Y-95431919D01*
X66207811Y-95417477D01*
X66276309Y-95431243D01*
X66306298Y-95453324D01*
X66339028Y-95486054D01*
X66339035Y-95486060D01*
X66462608Y-95568628D01*
X66462609Y-95568628D01*
X66462610Y-95568629D01*
X66599920Y-95625505D01*
X66599922Y-95625505D01*
X66599924Y-95625506D01*
X66624104Y-95630315D01*
X66624110Y-95630316D01*
X66745686Y-95654501D01*
X66745688Y-95654501D01*
X66900426Y-95654501D01*
X66900446Y-95654500D01*
X71519113Y-95654500D01*
X71586152Y-95674185D01*
X71631907Y-95726989D01*
X71641851Y-95796147D01*
X71612826Y-95859703D01*
X71606794Y-95866181D01*
X67562180Y-99910794D01*
X67500857Y-99944279D01*
X67431165Y-99939295D01*
X67375232Y-99897423D01*
X67350815Y-99831959D01*
X67350499Y-99823113D01*
X67350499Y-99517886D01*
X67370184Y-99450847D01*
X67386813Y-99430210D01*
X68668639Y-98148383D01*
X68694130Y-98130301D01*
X68693624Y-98129495D01*
X68708636Y-98120062D01*
X68852262Y-98029816D01*
X68979816Y-97902262D01*
X69075789Y-97749522D01*
X69135368Y-97579255D01*
X69135369Y-97579249D01*
X69155565Y-97400003D01*
X69155565Y-97399996D01*
X69135369Y-97220750D01*
X69135368Y-97220745D01*
X69134455Y-97218136D01*
X69075789Y-97050478D01*
X68979816Y-96897738D01*
X68852262Y-96770184D01*
X68838706Y-96761666D01*
X68699523Y-96674211D01*
X68529254Y-96614631D01*
X68529249Y-96614630D01*
X68350004Y-96594435D01*
X68349996Y-96594435D01*
X68170750Y-96614630D01*
X68170745Y-96614631D01*
X68000476Y-96674211D01*
X67847737Y-96770184D01*
X67720184Y-96897737D01*
X67620507Y-97056373D01*
X67619705Y-97055869D01*
X67601615Y-97081359D01*
X66069792Y-98613181D01*
X66008469Y-98646666D01*
X65982111Y-98649500D01*
X65102129Y-98649500D01*
X65102123Y-98649501D01*
X65042516Y-98655908D01*
X64907671Y-98706202D01*
X64907664Y-98706206D01*
X64792455Y-98792452D01*
X64792452Y-98792455D01*
X64706206Y-98907664D01*
X64706202Y-98907671D01*
X64655908Y-99042517D01*
X64649501Y-99102116D01*
X64649500Y-99102129D01*
X64649500Y-100897870D01*
X64649501Y-100897876D01*
X64655908Y-100957483D01*
X64706202Y-101092328D01*
X64706206Y-101092335D01*
X64792452Y-101207544D01*
X64792455Y-101207547D01*
X64907664Y-101293793D01*
X64907671Y-101293797D01*
X65039081Y-101342810D01*
X65095015Y-101384681D01*
X65119432Y-101450145D01*
X65104580Y-101518418D01*
X65083430Y-101546673D01*
X64961503Y-101668600D01*
X64825965Y-101862169D01*
X64825964Y-101862171D01*
X64726098Y-102076335D01*
X64726094Y-102076344D01*
X64664938Y-102304586D01*
X64664936Y-102304596D01*
X64644341Y-102539999D01*
X64644341Y-102540000D01*
X64664936Y-102775403D01*
X64664938Y-102775413D01*
X64726094Y-103003655D01*
X64726096Y-103003659D01*
X64726097Y-103003663D01*
X64791325Y-103143545D01*
X64825965Y-103217830D01*
X64825967Y-103217834D01*
X64923261Y-103356783D01*
X64951563Y-103397203D01*
X64961501Y-103411395D01*
X64961506Y-103411402D01*
X65128597Y-103578493D01*
X65128603Y-103578498D01*
X65314158Y-103708425D01*
X65357783Y-103763002D01*
X65364977Y-103832500D01*
X65333454Y-103894855D01*
X65314158Y-103911575D01*
X65128597Y-104041505D01*
X64961505Y-104208597D01*
X64825965Y-104402169D01*
X64825964Y-104402171D01*
X64726098Y-104616335D01*
X64726094Y-104616344D01*
X64664938Y-104844586D01*
X64664936Y-104844596D01*
X64644341Y-105079999D01*
X64644341Y-105080000D01*
X64664936Y-105315403D01*
X64664938Y-105315413D01*
X64726094Y-105543655D01*
X64726096Y-105543659D01*
X64726097Y-105543663D01*
X64801738Y-105705875D01*
X64825965Y-105757830D01*
X64825967Y-105757834D01*
X64903546Y-105868627D01*
X64961505Y-105951401D01*
X65128599Y-106118495D01*
X65225384Y-106186265D01*
X65322165Y-106254032D01*
X65322167Y-106254033D01*
X65322170Y-106254035D01*
X65536337Y-106353903D01*
X65764592Y-106415063D01*
X65952918Y-106431539D01*
X65999999Y-106435659D01*
X66000000Y-106435659D01*
X66000001Y-106435659D01*
X66039234Y-106432226D01*
X66235408Y-106415063D01*
X66463663Y-106353903D01*
X66677830Y-106254035D01*
X66871401Y-106118495D01*
X67038495Y-105951401D01*
X67174035Y-105757830D01*
X67273903Y-105543663D01*
X67335063Y-105315408D01*
X67355659Y-105080000D01*
X67337477Y-104872186D01*
X67351243Y-104803688D01*
X67373321Y-104773702D01*
X73916205Y-98230819D01*
X73977528Y-98197334D01*
X74003886Y-98194500D01*
X81320280Y-98194500D01*
X81387319Y-98214185D01*
X81433074Y-98266989D01*
X81443018Y-98336147D01*
X81437322Y-98359455D01*
X81389631Y-98495745D01*
X81389630Y-98495750D01*
X81369435Y-98674996D01*
X81369435Y-98675003D01*
X81389630Y-98854249D01*
X81389632Y-98854257D01*
X81419728Y-98940266D01*
X81423289Y-99010044D01*
X81388560Y-99070672D01*
X81326567Y-99102899D01*
X81288803Y-99104440D01*
X81200004Y-99094435D01*
X81199996Y-99094435D01*
X81020750Y-99114630D01*
X81020745Y-99114631D01*
X80850476Y-99174211D01*
X80697737Y-99270184D01*
X80570184Y-99397737D01*
X80470507Y-99556373D01*
X80469705Y-99555869D01*
X80451616Y-99581357D01*
X80024794Y-100008181D01*
X79963471Y-100041666D01*
X79937113Y-100044500D01*
X79299984Y-100044500D01*
X79236481Y-100048506D01*
X79231072Y-100049996D01*
X79189889Y-100061340D01*
X79139316Y-100064530D01*
X79000000Y-100044500D01*
X76600000Y-100044500D01*
X76599978Y-100044500D01*
X76519669Y-100050923D01*
X76519656Y-100050926D01*
X76382310Y-100093773D01*
X76382308Y-100093775D01*
X76262595Y-100173584D01*
X76229690Y-100212874D01*
X76188277Y-100262323D01*
X76170211Y-100283894D01*
X76112651Y-100415754D01*
X76094570Y-100558490D01*
X76099424Y-100588642D01*
X76117438Y-100700546D01*
X76154221Y-100777634D01*
X76179399Y-100830401D01*
X76446609Y-101231216D01*
X76467417Y-101297915D01*
X76448862Y-101365276D01*
X76446609Y-101368782D01*
X76179399Y-101769598D01*
X76140182Y-101840005D01*
X76140179Y-101840012D01*
X76099645Y-101978058D01*
X76099645Y-101978060D01*
X76099645Y-102121940D01*
X76138881Y-102255565D01*
X76140182Y-102259994D01*
X76217967Y-102381030D01*
X76217971Y-102381034D01*
X76308922Y-102459844D01*
X76326706Y-102475254D01*
X76366285Y-102493329D01*
X76457580Y-102535023D01*
X76457583Y-102535023D01*
X76457584Y-102535024D01*
X76600000Y-102555500D01*
X76939994Y-102555500D01*
X77007033Y-102575185D01*
X77052788Y-102627989D01*
X77061611Y-102655309D01*
X77074493Y-102720072D01*
X77074496Y-102720084D01*
X77091063Y-102760080D01*
X77091064Y-102760081D01*
X77112614Y-102812109D01*
X77120082Y-102881578D01*
X77088806Y-102944057D01*
X77085733Y-102947241D01*
X76288943Y-103744030D01*
X76288942Y-103744031D01*
X76206372Y-103867607D01*
X76206366Y-103867618D01*
X76182314Y-103925688D01*
X76151541Y-103999983D01*
X76151537Y-103999992D01*
X76149495Y-104004921D01*
X76149494Y-104004925D01*
X76149494Y-104004926D01*
X76120401Y-104151178D01*
X76088015Y-104213088D01*
X76086466Y-104214666D01*
X76019787Y-104281345D01*
X75927687Y-104430663D01*
X75927685Y-104430668D01*
X75904711Y-104500001D01*
X75872501Y-104597203D01*
X75872501Y-104597204D01*
X75872500Y-104597204D01*
X75862000Y-104699983D01*
X75862000Y-105700001D01*
X75862001Y-105700019D01*
X75872500Y-105802796D01*
X75872501Y-105802799D01*
X75927685Y-105969331D01*
X75927687Y-105969336D01*
X75950310Y-106006014D01*
X76019788Y-106118656D01*
X76143844Y-106242712D01*
X76293166Y-106334814D01*
X76459703Y-106389999D01*
X76562491Y-106400500D01*
X77187508Y-106400499D01*
X77187516Y-106400498D01*
X77187519Y-106400498D01*
X77243802Y-106394748D01*
X77290297Y-106389999D01*
X77456834Y-106334814D01*
X77606156Y-106242712D01*
X77699819Y-106149049D01*
X77761142Y-106115564D01*
X77830834Y-106120548D01*
X77875181Y-106149049D01*
X77968844Y-106242712D01*
X78118166Y-106334814D01*
X78284703Y-106389999D01*
X78387491Y-106400500D01*
X79012508Y-106400499D01*
X79012516Y-106400498D01*
X79012519Y-106400498D01*
X79068802Y-106394748D01*
X79115297Y-106389999D01*
X79281834Y-106334814D01*
X79431156Y-106242712D01*
X79555212Y-106118656D01*
X79620131Y-106013405D01*
X79672079Y-105966680D01*
X79725670Y-105954501D01*
X79774314Y-105954501D01*
X79895894Y-105930315D01*
X79895894Y-105930316D01*
X79895900Y-105930313D01*
X79920080Y-105925505D01*
X79955942Y-105910649D01*
X79976944Y-105901951D01*
X79976947Y-105901949D01*
X79976955Y-105901946D01*
X80057389Y-105868630D01*
X80180966Y-105786059D01*
X82676205Y-103290818D01*
X82737528Y-103257334D01*
X82763886Y-103254500D01*
X85136725Y-103254500D01*
X85203764Y-103274185D01*
X85249519Y-103326989D01*
X85257401Y-103349980D01*
X85259008Y-103356783D01*
X85309302Y-103491628D01*
X85309306Y-103491635D01*
X85395552Y-103606844D01*
X85395555Y-103606847D01*
X85510764Y-103693093D01*
X85510771Y-103693097D01*
X85544972Y-103705853D01*
X85645617Y-103743391D01*
X85705227Y-103749800D01*
X86321500Y-103749799D01*
X86388539Y-103769483D01*
X86434294Y-103822287D01*
X86445500Y-103873799D01*
X86445500Y-104248509D01*
X86425815Y-104315548D01*
X86386600Y-104354046D01*
X86381343Y-104357288D01*
X86287681Y-104450951D01*
X86226358Y-104484436D01*
X86156666Y-104479452D01*
X86112319Y-104450951D01*
X86018657Y-104357289D01*
X86018656Y-104357288D01*
X85924966Y-104299500D01*
X85869336Y-104265187D01*
X85869331Y-104265185D01*
X85819006Y-104248509D01*
X85702797Y-104210001D01*
X85702795Y-104210000D01*
X85600010Y-104199500D01*
X84799998Y-104199500D01*
X84799980Y-104199501D01*
X84697203Y-104210000D01*
X84697200Y-104210001D01*
X84530668Y-104265185D01*
X84530663Y-104265187D01*
X84381342Y-104357289D01*
X84257289Y-104481342D01*
X84192368Y-104586597D01*
X84140420Y-104633321D01*
X84086829Y-104645500D01*
X83727620Y-104645500D01*
X83660581Y-104625815D01*
X83634833Y-104602568D01*
X83634740Y-104602662D01*
X83632918Y-104600840D01*
X83630675Y-104598815D01*
X83629816Y-104597738D01*
X83502262Y-104470184D01*
X83349523Y-104374211D01*
X83179254Y-104314631D01*
X83179249Y-104314630D01*
X83000004Y-104294435D01*
X82999996Y-104294435D01*
X82820750Y-104314630D01*
X82820745Y-104314631D01*
X82650476Y-104374211D01*
X82497737Y-104470184D01*
X82370184Y-104597737D01*
X82274211Y-104750476D01*
X82214631Y-104920745D01*
X82214630Y-104920750D01*
X82194435Y-105099996D01*
X82194435Y-105100003D01*
X82214630Y-105279249D01*
X82214631Y-105279254D01*
X82274211Y-105449523D01*
X82350704Y-105571260D01*
X82370184Y-105602262D01*
X82497738Y-105729816D01*
X82586320Y-105785476D01*
X82656374Y-105829494D01*
X82655867Y-105830299D01*
X82681356Y-105848381D01*
X82819034Y-105986059D01*
X82942611Y-106068630D01*
X82984689Y-106086059D01*
X83079920Y-106125505D01*
X83079922Y-106125505D01*
X83079924Y-106125506D01*
X83104104Y-106130315D01*
X83104110Y-106130316D01*
X83225686Y-106154501D01*
X83225688Y-106154501D01*
X83380426Y-106154501D01*
X83380446Y-106154500D01*
X84086829Y-106154500D01*
X84153868Y-106174185D01*
X84192367Y-106213402D01*
X84257288Y-106318656D01*
X84381344Y-106442712D01*
X84530666Y-106534814D01*
X84697203Y-106589999D01*
X84799991Y-106600500D01*
X85600008Y-106600499D01*
X85600016Y-106600498D01*
X85600019Y-106600498D01*
X85658970Y-106594476D01*
X85702797Y-106589999D01*
X85869334Y-106534814D01*
X86018656Y-106442712D01*
X86112319Y-106349049D01*
X86173642Y-106315564D01*
X86243334Y-106320548D01*
X86287681Y-106349049D01*
X86381344Y-106442712D01*
X86530666Y-106534814D01*
X86542658Y-106538787D01*
X86600102Y-106578560D01*
X86626925Y-106643076D01*
X86614610Y-106711851D01*
X86591334Y-106744174D01*
X82201328Y-111134181D01*
X82140005Y-111167666D01*
X82113647Y-111170500D01*
X59474499Y-111170500D01*
X59407460Y-111150815D01*
X59361705Y-111098011D01*
X59350499Y-111046500D01*
X59350499Y-111027129D01*
X59350498Y-111027123D01*
X59350497Y-111027116D01*
X59344091Y-110967517D01*
X59293796Y-110832669D01*
X59293795Y-110832668D01*
X59293793Y-110832664D01*
X59207547Y-110717455D01*
X59207544Y-110717452D01*
X59092335Y-110631206D01*
X59092328Y-110631202D01*
X58957482Y-110580908D01*
X58957483Y-110580908D01*
X58897883Y-110574501D01*
X58897881Y-110574500D01*
X58897873Y-110574500D01*
X58897864Y-110574500D01*
X57102129Y-110574500D01*
X57102123Y-110574501D01*
X57042516Y-110580908D01*
X56907671Y-110631202D01*
X56907664Y-110631206D01*
X56792455Y-110717452D01*
X56792452Y-110717455D01*
X56706206Y-110832664D01*
X56706202Y-110832671D01*
X56655908Y-110967517D01*
X56649501Y-111027116D01*
X56649501Y-111027123D01*
X56649500Y-111027135D01*
X56649500Y-112822870D01*
X56649501Y-112822876D01*
X56655908Y-112882483D01*
X56706202Y-113017328D01*
X56706206Y-113017335D01*
X56792452Y-113132544D01*
X56792455Y-113132547D01*
X56907664Y-113218793D01*
X56907671Y-113218797D01*
X57039081Y-113267810D01*
X57095015Y-113309681D01*
X57119432Y-113375145D01*
X57104580Y-113443418D01*
X57083430Y-113471673D01*
X56961503Y-113593600D01*
X56825965Y-113787169D01*
X56825964Y-113787171D01*
X56726098Y-114001335D01*
X56726094Y-114001344D01*
X56664938Y-114229586D01*
X56664936Y-114229596D01*
X56644341Y-114464999D01*
X56644341Y-114465000D01*
X56664936Y-114700403D01*
X56664938Y-114700413D01*
X56726094Y-114928655D01*
X56726096Y-114928659D01*
X56726097Y-114928663D01*
X56799258Y-115085556D01*
X56825965Y-115142830D01*
X56825967Y-115142834D01*
X56916674Y-115272376D01*
X56961504Y-115336400D01*
X56961506Y-115336402D01*
X57128597Y-115503493D01*
X57128603Y-115503498D01*
X57314158Y-115633425D01*
X57357783Y-115688002D01*
X57364977Y-115757500D01*
X57333454Y-115819855D01*
X57314158Y-115836575D01*
X57128597Y-115966505D01*
X56961505Y-116133597D01*
X56825965Y-116327169D01*
X56825964Y-116327171D01*
X56726098Y-116541335D01*
X56726094Y-116541344D01*
X56664938Y-116769586D01*
X56664936Y-116769596D01*
X56644341Y-117004999D01*
X56644341Y-117005000D01*
X56664936Y-117240403D01*
X56664938Y-117240413D01*
X56726094Y-117468655D01*
X56726096Y-117468659D01*
X56726097Y-117468663D01*
X56825965Y-117682830D01*
X56825967Y-117682834D01*
X56916674Y-117812376D01*
X56961504Y-117876400D01*
X56961506Y-117876402D01*
X57128597Y-118043493D01*
X57128603Y-118043498D01*
X57314158Y-118173425D01*
X57357783Y-118228002D01*
X57364977Y-118297500D01*
X57333454Y-118359855D01*
X57314158Y-118376575D01*
X57128597Y-118506505D01*
X56961505Y-118673597D01*
X56825965Y-118867169D01*
X56825964Y-118867171D01*
X56726098Y-119081335D01*
X56726094Y-119081344D01*
X56664938Y-119309586D01*
X56664936Y-119309596D01*
X56644341Y-119544999D01*
X56644341Y-119545000D01*
X56664936Y-119780403D01*
X56664938Y-119780413D01*
X56726094Y-120008655D01*
X56726096Y-120008659D01*
X56726097Y-120008663D01*
X56778362Y-120120745D01*
X56825965Y-120222830D01*
X56825967Y-120222834D01*
X56916674Y-120352376D01*
X56961504Y-120416400D01*
X56961506Y-120416402D01*
X57128597Y-120583493D01*
X57128603Y-120583498D01*
X57314158Y-120713425D01*
X57357783Y-120768002D01*
X57364977Y-120837500D01*
X57333454Y-120899855D01*
X57314158Y-120916575D01*
X57128597Y-121046505D01*
X56961505Y-121213597D01*
X56825965Y-121407169D01*
X56825964Y-121407171D01*
X56726098Y-121621335D01*
X56726094Y-121621344D01*
X56664938Y-121849586D01*
X56664936Y-121849596D01*
X56644341Y-122084999D01*
X56644341Y-122085000D01*
X56664936Y-122320403D01*
X56664938Y-122320413D01*
X56726094Y-122548655D01*
X56726096Y-122548659D01*
X56726097Y-122548663D01*
X56797722Y-122702262D01*
X56825965Y-122762830D01*
X56825967Y-122762834D01*
X56916674Y-122892376D01*
X56961505Y-122956401D01*
X57128599Y-123123495D01*
X57225384Y-123191265D01*
X57322165Y-123259032D01*
X57322167Y-123259033D01*
X57322170Y-123259035D01*
X57536337Y-123358903D01*
X57764592Y-123420063D01*
X57952918Y-123436539D01*
X57999999Y-123440659D01*
X58000000Y-123440659D01*
X58000001Y-123440659D01*
X58039234Y-123437226D01*
X58235408Y-123420063D01*
X58463663Y-123358903D01*
X58677830Y-123259035D01*
X58871401Y-123123495D01*
X59038495Y-122956401D01*
X59083326Y-122892376D01*
X59137904Y-122848751D01*
X59184901Y-122839500D01*
X62244114Y-122839500D01*
X62311153Y-122859185D01*
X62356908Y-122911989D01*
X62366852Y-122981147D01*
X62337827Y-123044703D01*
X62331795Y-123051181D01*
X59669792Y-125713181D01*
X59608469Y-125746666D01*
X59582111Y-125749500D01*
X58452129Y-125749500D01*
X58452123Y-125749501D01*
X58392516Y-125755908D01*
X58257671Y-125806202D01*
X58257664Y-125806206D01*
X58142455Y-125892452D01*
X58142452Y-125892455D01*
X58056206Y-126007664D01*
X58056202Y-126007671D01*
X58005908Y-126142517D01*
X57999501Y-126202116D01*
X57999500Y-126202135D01*
X57999500Y-127997870D01*
X57999501Y-127997876D01*
X58005908Y-128057483D01*
X58056202Y-128192328D01*
X58056206Y-128192335D01*
X58142452Y-128307544D01*
X58142455Y-128307547D01*
X58257664Y-128393793D01*
X58257671Y-128393797D01*
X58392517Y-128444091D01*
X58392516Y-128444091D01*
X58399444Y-128444835D01*
X58452127Y-128450500D01*
X60247872Y-128450499D01*
X60307483Y-128444091D01*
X60442331Y-128393796D01*
X60557546Y-128307546D01*
X60643796Y-128192331D01*
X60692810Y-128060916D01*
X60734681Y-128004984D01*
X60800145Y-127980566D01*
X60868418Y-127995417D01*
X60896673Y-128016569D01*
X61018599Y-128138495D01*
X61115384Y-128206265D01*
X61212165Y-128274032D01*
X61212167Y-128274033D01*
X61212170Y-128274035D01*
X61426337Y-128373903D01*
X61654592Y-128435063D01*
X61831034Y-128450500D01*
X61889999Y-128455659D01*
X61890000Y-128455659D01*
X61890001Y-128455659D01*
X61948966Y-128450500D01*
X62125408Y-128435063D01*
X62353663Y-128373903D01*
X62567830Y-128274035D01*
X62761401Y-128138495D01*
X62928495Y-127971401D01*
X63058730Y-127785405D01*
X63113307Y-127741781D01*
X63182805Y-127734587D01*
X63245160Y-127766110D01*
X63261879Y-127785405D01*
X63391890Y-127971078D01*
X63558917Y-128138105D01*
X63752421Y-128273600D01*
X63966507Y-128373429D01*
X63966516Y-128373433D01*
X64180000Y-128430634D01*
X64180000Y-127533012D01*
X64237007Y-127565925D01*
X64364174Y-127600000D01*
X64495826Y-127600000D01*
X64622993Y-127565925D01*
X64680000Y-127533012D01*
X64680000Y-128430633D01*
X64893483Y-128373433D01*
X64893492Y-128373429D01*
X65107578Y-128273600D01*
X65301082Y-128138105D01*
X65468105Y-127971082D01*
X65598119Y-127785405D01*
X65652696Y-127741781D01*
X65722195Y-127734588D01*
X65784549Y-127766110D01*
X65801269Y-127785405D01*
X65931505Y-127971401D01*
X66098599Y-128138495D01*
X66195384Y-128206265D01*
X66292165Y-128274032D01*
X66292167Y-128274033D01*
X66292170Y-128274035D01*
X66506337Y-128373903D01*
X66734592Y-128435063D01*
X66911034Y-128450500D01*
X66969999Y-128455659D01*
X66970000Y-128455659D01*
X66970001Y-128455659D01*
X67028966Y-128450500D01*
X67205408Y-128435063D01*
X67433663Y-128373903D01*
X67647830Y-128274035D01*
X67841401Y-128138495D01*
X68008495Y-127971401D01*
X68138425Y-127785842D01*
X68193002Y-127742217D01*
X68262500Y-127735023D01*
X68324855Y-127766546D01*
X68341575Y-127785842D01*
X68471498Y-127971392D01*
X68471501Y-127971395D01*
X68471505Y-127971401D01*
X68471506Y-127971402D01*
X68472481Y-127972563D01*
X68472752Y-127973183D01*
X68474610Y-127975836D01*
X68474077Y-127976209D01*
X68500501Y-128036568D01*
X68501500Y-128052279D01*
X68501500Y-128509167D01*
X68492061Y-128556619D01*
X68430257Y-128705827D01*
X68430254Y-128705839D01*
X68391500Y-128900666D01*
X68391500Y-129099333D01*
X68430254Y-129294160D01*
X68430256Y-129294168D01*
X68506277Y-129477701D01*
X68506282Y-129477710D01*
X68616646Y-129642880D01*
X68616649Y-129642884D01*
X69511647Y-130537881D01*
X69652119Y-130678353D01*
X69652120Y-130678354D01*
X69817289Y-130788717D01*
X69817295Y-130788720D01*
X69817296Y-130788721D01*
X70000831Y-130864744D01*
X70195666Y-130903499D01*
X70195670Y-130903500D01*
X70195671Y-130903500D01*
X86006610Y-130903500D01*
X86073649Y-130923185D01*
X86103557Y-130950187D01*
X86241442Y-131123089D01*
X86384320Y-131255659D01*
X86439259Y-131306635D01*
X86662226Y-131458651D01*
X86905359Y-131575738D01*
X87163228Y-131655280D01*
X87163229Y-131655280D01*
X87163232Y-131655281D01*
X87430063Y-131695499D01*
X87430068Y-131695499D01*
X87430071Y-131695500D01*
X87430072Y-131695500D01*
X87699928Y-131695500D01*
X87699929Y-131695500D01*
X87699936Y-131695499D01*
X87966767Y-131655281D01*
X87966768Y-131655280D01*
X87966772Y-131655280D01*
X88224641Y-131575738D01*
X88467775Y-131458651D01*
X88690741Y-131306635D01*
X88888561Y-131123085D01*
X89056815Y-130912102D01*
X89191743Y-130678398D01*
X89290334Y-130427195D01*
X89350383Y-130164103D01*
X89365752Y-129959019D01*
X89370549Y-129895004D01*
X89370549Y-129894995D01*
X89353282Y-129664586D01*
X89350383Y-129625897D01*
X89290334Y-129362805D01*
X89191743Y-129111602D01*
X89056815Y-128877898D01*
X88888561Y-128666915D01*
X88888560Y-128666914D01*
X88888557Y-128666910D01*
X88759491Y-128547155D01*
X90845000Y-128547155D01*
X90845000Y-129645000D01*
X92044999Y-129645000D01*
X92019979Y-129705402D01*
X91995000Y-129830981D01*
X91995000Y-129959019D01*
X92019979Y-130084598D01*
X92044999Y-130145000D01*
X90845000Y-130145000D01*
X90845000Y-131242844D01*
X90851401Y-131302372D01*
X90851403Y-131302379D01*
X90901645Y-131437086D01*
X90901649Y-131437093D01*
X90987809Y-131552187D01*
X90987812Y-131552190D01*
X91102906Y-131638350D01*
X91102913Y-131638354D01*
X91237620Y-131688596D01*
X91237627Y-131688598D01*
X91297155Y-131694999D01*
X91297172Y-131695000D01*
X92395000Y-131695000D01*
X92395000Y-130495001D01*
X92455402Y-130520021D01*
X92580981Y-130545000D01*
X92709019Y-130545000D01*
X92834598Y-130520021D01*
X92895000Y-130495001D01*
X92895000Y-131695000D01*
X93992828Y-131695000D01*
X93992844Y-131694999D01*
X94052372Y-131688598D01*
X94052379Y-131688596D01*
X94187086Y-131638354D01*
X94187093Y-131638350D01*
X94302187Y-131552190D01*
X94302190Y-131552187D01*
X94388350Y-131437093D01*
X94388354Y-131437086D01*
X94438596Y-131302379D01*
X94438598Y-131302372D01*
X94444999Y-131242844D01*
X94445000Y-131242827D01*
X94445000Y-130145000D01*
X93245001Y-130145000D01*
X93270021Y-130084598D01*
X93295000Y-129959019D01*
X93295000Y-129830981D01*
X93270021Y-129705402D01*
X93245001Y-129645000D01*
X94445000Y-129645000D01*
X94445000Y-128547172D01*
X94444999Y-128547155D01*
X94438598Y-128487627D01*
X94438596Y-128487620D01*
X94388354Y-128352913D01*
X94388350Y-128352906D01*
X94302190Y-128237812D01*
X94302187Y-128237809D01*
X94187093Y-128151649D01*
X94187086Y-128151645D01*
X94052379Y-128101403D01*
X94052372Y-128101401D01*
X93992844Y-128095000D01*
X92895000Y-128095000D01*
X92895000Y-129294998D01*
X92834598Y-129269979D01*
X92709019Y-129245000D01*
X92580981Y-129245000D01*
X92455402Y-129269979D01*
X92395000Y-129294998D01*
X92395000Y-128095000D01*
X91297155Y-128095000D01*
X91237627Y-128101401D01*
X91237620Y-128101403D01*
X91102913Y-128151645D01*
X91102906Y-128151649D01*
X90987812Y-128237809D01*
X90987809Y-128237812D01*
X90901649Y-128352906D01*
X90901645Y-128352913D01*
X90851403Y-128487620D01*
X90851401Y-128487627D01*
X90845000Y-128547155D01*
X88759491Y-128547155D01*
X88690741Y-128483365D01*
X88642537Y-128450500D01*
X88467775Y-128331349D01*
X88467769Y-128331346D01*
X88467768Y-128331345D01*
X88467767Y-128331344D01*
X88224643Y-128214263D01*
X88224645Y-128214263D01*
X87966773Y-128134720D01*
X87966767Y-128134718D01*
X87699936Y-128094500D01*
X87699929Y-128094500D01*
X87430071Y-128094500D01*
X87430063Y-128094500D01*
X87163232Y-128134718D01*
X87163226Y-128134720D01*
X86905358Y-128214262D01*
X86662230Y-128331346D01*
X86439258Y-128483365D01*
X86241442Y-128666910D01*
X86103557Y-128839813D01*
X86046368Y-128879953D01*
X86006610Y-128886500D01*
X70764096Y-128886500D01*
X70697057Y-128866815D01*
X70676415Y-128850181D01*
X70554819Y-128728585D01*
X70521334Y-128667262D01*
X70518500Y-128640904D01*
X70518500Y-128052279D01*
X70538185Y-127985240D01*
X70547519Y-127972563D01*
X70548485Y-127971410D01*
X70548495Y-127971401D01*
X70678730Y-127785405D01*
X70733307Y-127741781D01*
X70802805Y-127734587D01*
X70865160Y-127766110D01*
X70881879Y-127785405D01*
X71011890Y-127971078D01*
X71178917Y-128138105D01*
X71372421Y-128273600D01*
X71586507Y-128373429D01*
X71586516Y-128373433D01*
X71800000Y-128430634D01*
X71800000Y-127533012D01*
X71857007Y-127565925D01*
X71984174Y-127600000D01*
X72115826Y-127600000D01*
X72242993Y-127565925D01*
X72300000Y-127533012D01*
X72300000Y-128430633D01*
X72513483Y-128373433D01*
X72513492Y-128373429D01*
X72727578Y-128273600D01*
X72921082Y-128138105D01*
X73088105Y-127971082D01*
X73218119Y-127785405D01*
X73272696Y-127741781D01*
X73342195Y-127734588D01*
X73404549Y-127766110D01*
X73421269Y-127785405D01*
X73551505Y-127971401D01*
X73718599Y-128138495D01*
X73815384Y-128206265D01*
X73912165Y-128274032D01*
X73912167Y-128274033D01*
X73912170Y-128274035D01*
X74126337Y-128373903D01*
X74354592Y-128435063D01*
X74531034Y-128450500D01*
X74589999Y-128455659D01*
X74590000Y-128455659D01*
X74590001Y-128455659D01*
X74648966Y-128450500D01*
X74825408Y-128435063D01*
X75053663Y-128373903D01*
X75267830Y-128274035D01*
X75461401Y-128138495D01*
X75628495Y-127971401D01*
X75758425Y-127785842D01*
X75813002Y-127742217D01*
X75882500Y-127735023D01*
X75944855Y-127766546D01*
X75961575Y-127785842D01*
X76091500Y-127971395D01*
X76091505Y-127971401D01*
X76258599Y-128138495D01*
X76355384Y-128206265D01*
X76452165Y-128274032D01*
X76452167Y-128274033D01*
X76452170Y-128274035D01*
X76666337Y-128373903D01*
X76894592Y-128435063D01*
X77071034Y-128450500D01*
X77129999Y-128455659D01*
X77130000Y-128455659D01*
X77130001Y-128455659D01*
X77188966Y-128450500D01*
X77365408Y-128435063D01*
X77593663Y-128373903D01*
X77807830Y-128274035D01*
X78001401Y-128138495D01*
X78168495Y-127971401D01*
X78298425Y-127785842D01*
X78353002Y-127742217D01*
X78422500Y-127735023D01*
X78484855Y-127766546D01*
X78501575Y-127785842D01*
X78631500Y-127971395D01*
X78631505Y-127971401D01*
X78798599Y-128138495D01*
X78895384Y-128206265D01*
X78992165Y-128274032D01*
X78992167Y-128274033D01*
X78992170Y-128274035D01*
X79206337Y-128373903D01*
X79434592Y-128435063D01*
X79611034Y-128450500D01*
X79669999Y-128455659D01*
X79670000Y-128455659D01*
X79670001Y-128455659D01*
X79728966Y-128450500D01*
X79905408Y-128435063D01*
X80133663Y-128373903D01*
X80347830Y-128274035D01*
X80541401Y-128138495D01*
X80708495Y-127971401D01*
X80844035Y-127777830D01*
X80943903Y-127563663D01*
X81005063Y-127335408D01*
X81025659Y-127100000D01*
X81005063Y-126864592D01*
X80943903Y-126636337D01*
X80844035Y-126422171D01*
X80838731Y-126414595D01*
X80708494Y-126228597D01*
X80541402Y-126061506D01*
X80541395Y-126061501D01*
X80347834Y-125925967D01*
X80347830Y-125925965D01*
X80312004Y-125909259D01*
X80133663Y-125826097D01*
X80133659Y-125826096D01*
X80133655Y-125826094D01*
X79905413Y-125764938D01*
X79905403Y-125764936D01*
X79670001Y-125744341D01*
X79669999Y-125744341D01*
X79434596Y-125764936D01*
X79434586Y-125764938D01*
X79206344Y-125826094D01*
X79206335Y-125826098D01*
X78992171Y-125925964D01*
X78992169Y-125925965D01*
X78798597Y-126061505D01*
X78631505Y-126228597D01*
X78501575Y-126414158D01*
X78446998Y-126457783D01*
X78377500Y-126464977D01*
X78315145Y-126433454D01*
X78298425Y-126414158D01*
X78168494Y-126228597D01*
X78001402Y-126061506D01*
X78001395Y-126061501D01*
X77807834Y-125925967D01*
X77807830Y-125925965D01*
X77772004Y-125909259D01*
X77593663Y-125826097D01*
X77593659Y-125826096D01*
X77593655Y-125826094D01*
X77365413Y-125764938D01*
X77365403Y-125764936D01*
X77130001Y-125744341D01*
X77129999Y-125744341D01*
X76894596Y-125764936D01*
X76894586Y-125764938D01*
X76666344Y-125826094D01*
X76666335Y-125826098D01*
X76452171Y-125925964D01*
X76452169Y-125925965D01*
X76258597Y-126061505D01*
X76091505Y-126228597D01*
X75961575Y-126414158D01*
X75906998Y-126457783D01*
X75837500Y-126464977D01*
X75775145Y-126433454D01*
X75758425Y-126414158D01*
X75628494Y-126228597D01*
X75461402Y-126061506D01*
X75461395Y-126061501D01*
X75267834Y-125925967D01*
X75267830Y-125925965D01*
X75232004Y-125909259D01*
X75053663Y-125826097D01*
X75053659Y-125826096D01*
X75053655Y-125826094D01*
X74825413Y-125764938D01*
X74825403Y-125764936D01*
X74590001Y-125744341D01*
X74589999Y-125744341D01*
X74354596Y-125764936D01*
X74354586Y-125764938D01*
X74126344Y-125826094D01*
X74126335Y-125826098D01*
X73912171Y-125925964D01*
X73912169Y-125925965D01*
X73718597Y-126061505D01*
X73551508Y-126228594D01*
X73421269Y-126414595D01*
X73366692Y-126458219D01*
X73297193Y-126465412D01*
X73234839Y-126433890D01*
X73218119Y-126414594D01*
X73088113Y-126228926D01*
X73088108Y-126228920D01*
X72921082Y-126061894D01*
X72727578Y-125926399D01*
X72513492Y-125826570D01*
X72513486Y-125826567D01*
X72300000Y-125769364D01*
X72300000Y-126666988D01*
X72242993Y-126634075D01*
X72115826Y-126600000D01*
X71984174Y-126600000D01*
X71857007Y-126634075D01*
X71800000Y-126666988D01*
X71800000Y-125769364D01*
X71799999Y-125769364D01*
X71586513Y-125826567D01*
X71586507Y-125826570D01*
X71372422Y-125926399D01*
X71372420Y-125926400D01*
X71178926Y-126061886D01*
X71178920Y-126061891D01*
X71011891Y-126228920D01*
X71011890Y-126228922D01*
X70881880Y-126414595D01*
X70827303Y-126458219D01*
X70757804Y-126465412D01*
X70695450Y-126433890D01*
X70678730Y-126414594D01*
X70548494Y-126228597D01*
X70381402Y-126061506D01*
X70381395Y-126061501D01*
X70187834Y-125925967D01*
X70187830Y-125925965D01*
X70152004Y-125909259D01*
X69973663Y-125826097D01*
X69973659Y-125826096D01*
X69973655Y-125826094D01*
X69745413Y-125764938D01*
X69745403Y-125764936D01*
X69667026Y-125758079D01*
X69601957Y-125732626D01*
X69560979Y-125676035D01*
X69557101Y-125606273D01*
X69590151Y-125546872D01*
X70771205Y-124365819D01*
X70832528Y-124332334D01*
X70858886Y-124329500D01*
X77691354Y-124329500D01*
X77691374Y-124329501D01*
X77697488Y-124329501D01*
X77846114Y-124329501D01*
X77967694Y-124305315D01*
X77967694Y-124305316D01*
X77967700Y-124305313D01*
X77991880Y-124300505D01*
X78027742Y-124285649D01*
X78048744Y-124276951D01*
X78048747Y-124276949D01*
X78048755Y-124276946D01*
X78129189Y-124243630D01*
X78252766Y-124161059D01*
X96187821Y-106226002D01*
X96249142Y-106192519D01*
X96318834Y-106197503D01*
X96374767Y-106239375D01*
X96399184Y-106304839D01*
X96399500Y-106313685D01*
X96399500Y-107000001D01*
X96399501Y-107000019D01*
X96410000Y-107102796D01*
X96410001Y-107102799D01*
X96465185Y-107269331D01*
X96465187Y-107269336D01*
X96480603Y-107294329D01*
X96557288Y-107418656D01*
X96681344Y-107542712D01*
X96686591Y-107545948D01*
X96733318Y-107597892D01*
X96745500Y-107651490D01*
X96745500Y-107761112D01*
X96725815Y-107828151D01*
X96709181Y-107848793D01*
X91381357Y-113176616D01*
X91355869Y-113194705D01*
X91356373Y-113195507D01*
X91350478Y-113199210D01*
X91350478Y-113199211D01*
X91342953Y-113203939D01*
X91197737Y-113295184D01*
X91070184Y-113422737D01*
X90974211Y-113575476D01*
X90914631Y-113745745D01*
X90914630Y-113745750D01*
X90894435Y-113924996D01*
X90894435Y-113925003D01*
X90914630Y-114104246D01*
X90914632Y-114104256D01*
X90938541Y-114172582D01*
X90945500Y-114213537D01*
X90945500Y-116270552D01*
X90945499Y-116270578D01*
X90945499Y-116275688D01*
X90945499Y-116424312D01*
X90945499Y-116424314D01*
X90945498Y-116424314D01*
X90974493Y-116570073D01*
X90974496Y-116570083D01*
X91031366Y-116707381D01*
X91031372Y-116707392D01*
X91113942Y-116830968D01*
X91113943Y-116830969D01*
X96801615Y-122518639D01*
X96819704Y-122544130D01*
X96820507Y-122543626D01*
X96824210Y-122549519D01*
X96824211Y-122549522D01*
X96920184Y-122702262D01*
X97047738Y-122829816D01*
X97200478Y-122925789D01*
X97287962Y-122956401D01*
X97370745Y-122985368D01*
X97370750Y-122985369D01*
X97549996Y-123005565D01*
X97550000Y-123005565D01*
X97550004Y-123005565D01*
X97729249Y-122985369D01*
X97729252Y-122985368D01*
X97729255Y-122985368D01*
X97899522Y-122925789D01*
X98052262Y-122829816D01*
X98179816Y-122702262D01*
X98275789Y-122549522D01*
X98335368Y-122379255D01*
X98341998Y-122320413D01*
X98355565Y-122200003D01*
X98355565Y-122199996D01*
X98335369Y-122020750D01*
X98335368Y-122020745D01*
X98275788Y-121850476D01*
X98179815Y-121697737D01*
X98052262Y-121570184D01*
X97899522Y-121474211D01*
X97899519Y-121474210D01*
X97893626Y-121470507D01*
X97894130Y-121469704D01*
X97868639Y-121451615D01*
X92490819Y-116073794D01*
X92457334Y-116012471D01*
X92454500Y-115986113D01*
X92454500Y-114288885D01*
X92474185Y-114221846D01*
X92490814Y-114201209D01*
X97980963Y-108711060D01*
X97980966Y-108711059D01*
X98086059Y-108605966D01*
X98168629Y-108482390D01*
X98168630Y-108482389D01*
X98168633Y-108482385D01*
X98225503Y-108345083D01*
X98225505Y-108345079D01*
X98254501Y-108199312D01*
X98254501Y-108050688D01*
X98254501Y-108045578D01*
X98254500Y-108045552D01*
X98254500Y-107651490D01*
X98274185Y-107584451D01*
X98313408Y-107545948D01*
X98318656Y-107542712D01*
X98412319Y-107449049D01*
X98473642Y-107415564D01*
X98543334Y-107420548D01*
X98587681Y-107449049D01*
X98681344Y-107542712D01*
X98830318Y-107634599D01*
X98877042Y-107686545D01*
X98888265Y-107755508D01*
X98870215Y-107806109D01*
X98795211Y-107925476D01*
X98735631Y-108095745D01*
X98735630Y-108095750D01*
X98715435Y-108274996D01*
X98715435Y-108275003D01*
X98735630Y-108454249D01*
X98735631Y-108454254D01*
X98795211Y-108624523D01*
X98856002Y-108721271D01*
X98891184Y-108777262D01*
X99018738Y-108904816D01*
X99171478Y-109000789D01*
X99226906Y-109020184D01*
X99341745Y-109060368D01*
X99348532Y-109061917D01*
X99347960Y-109064421D01*
X99401471Y-109086902D01*
X99441030Y-109144494D01*
X99443173Y-109214331D01*
X99437742Y-109230511D01*
X99421792Y-109269020D01*
X99421791Y-109269023D01*
X99395967Y-109331367D01*
X99394497Y-109334913D01*
X99394492Y-109334929D01*
X99365499Y-109480685D01*
X99365499Y-109635425D01*
X99365500Y-109635446D01*
X99365500Y-128715099D01*
X99345815Y-128782138D01*
X99312624Y-128816674D01*
X99248599Y-128861505D01*
X99248597Y-128861506D01*
X99081505Y-129028597D01*
X98945965Y-129222169D01*
X98945964Y-129222171D01*
X98846098Y-129436335D01*
X98846094Y-129436344D01*
X98784938Y-129664586D01*
X98784936Y-129664596D01*
X98764341Y-129899999D01*
X98764341Y-129900000D01*
X98784936Y-130135403D01*
X98784938Y-130135413D01*
X98846094Y-130363655D01*
X98846096Y-130363659D01*
X98846097Y-130363663D01*
X98929358Y-130542217D01*
X98945965Y-130577830D01*
X98945967Y-130577834D01*
X99016385Y-130678400D01*
X99081505Y-130771401D01*
X99248599Y-130938495D01*
X99345384Y-131006265D01*
X99442165Y-131074032D01*
X99442167Y-131074033D01*
X99442170Y-131074035D01*
X99656337Y-131173903D01*
X99884592Y-131235063D01*
X100061034Y-131250500D01*
X100119999Y-131255659D01*
X100120000Y-131255659D01*
X100120001Y-131255659D01*
X100178966Y-131250500D01*
X100355408Y-131235063D01*
X100583663Y-131173903D01*
X100797830Y-131074035D01*
X100991401Y-130938495D01*
X101158495Y-130771401D01*
X101288425Y-130585842D01*
X101343002Y-130542217D01*
X101412500Y-130535023D01*
X101474855Y-130566546D01*
X101491575Y-130585842D01*
X101621500Y-130771395D01*
X101621505Y-130771401D01*
X101788599Y-130938495D01*
X101885384Y-131006265D01*
X101982165Y-131074032D01*
X101982167Y-131074033D01*
X101982170Y-131074035D01*
X102196337Y-131173903D01*
X102424592Y-131235063D01*
X102601034Y-131250500D01*
X102659999Y-131255659D01*
X102660000Y-131255659D01*
X102660001Y-131255659D01*
X102718966Y-131250500D01*
X102895408Y-131235063D01*
X103123663Y-131173903D01*
X103337830Y-131074035D01*
X103531401Y-130938495D01*
X103698495Y-130771401D01*
X103828425Y-130585842D01*
X103883002Y-130542217D01*
X103952500Y-130535023D01*
X104014855Y-130566546D01*
X104031575Y-130585842D01*
X104161500Y-130771395D01*
X104161505Y-130771401D01*
X104328599Y-130938495D01*
X104425384Y-131006265D01*
X104522165Y-131074032D01*
X104522167Y-131074033D01*
X104522170Y-131074035D01*
X104736337Y-131173903D01*
X104964592Y-131235063D01*
X105141034Y-131250500D01*
X105199999Y-131255659D01*
X105200000Y-131255659D01*
X105200001Y-131255659D01*
X105258966Y-131250500D01*
X105435408Y-131235063D01*
X105663663Y-131173903D01*
X105877830Y-131074035D01*
X106071401Y-130938495D01*
X106238495Y-130771401D01*
X106368425Y-130585842D01*
X106423002Y-130542217D01*
X106492500Y-130535023D01*
X106554855Y-130566546D01*
X106571575Y-130585842D01*
X106701500Y-130771395D01*
X106701505Y-130771401D01*
X106868599Y-130938495D01*
X106965384Y-131006265D01*
X107062165Y-131074032D01*
X107062167Y-131074033D01*
X107062170Y-131074035D01*
X107276337Y-131173903D01*
X107504592Y-131235063D01*
X107681034Y-131250500D01*
X107739999Y-131255659D01*
X107740000Y-131255659D01*
X107740001Y-131255659D01*
X107798966Y-131250500D01*
X107975408Y-131235063D01*
X108203663Y-131173903D01*
X108417830Y-131074035D01*
X108611401Y-130938495D01*
X108778495Y-130771401D01*
X108908425Y-130585842D01*
X108963002Y-130542217D01*
X109032500Y-130535023D01*
X109094855Y-130566546D01*
X109111575Y-130585842D01*
X109241500Y-130771395D01*
X109241505Y-130771401D01*
X109408599Y-130938495D01*
X109505384Y-131006265D01*
X109602165Y-131074032D01*
X109602167Y-131074033D01*
X109602170Y-131074035D01*
X109816337Y-131173903D01*
X110044592Y-131235063D01*
X110221034Y-131250500D01*
X110279999Y-131255659D01*
X110280000Y-131255659D01*
X110280001Y-131255659D01*
X110338966Y-131250500D01*
X110515408Y-131235063D01*
X110743663Y-131173903D01*
X110957830Y-131074035D01*
X111151401Y-130938495D01*
X111318495Y-130771401D01*
X111448425Y-130585842D01*
X111503002Y-130542217D01*
X111572500Y-130535023D01*
X111634855Y-130566546D01*
X111651575Y-130585842D01*
X111781500Y-130771395D01*
X111781505Y-130771401D01*
X111948599Y-130938495D01*
X112045384Y-131006265D01*
X112142165Y-131074032D01*
X112142167Y-131074033D01*
X112142170Y-131074035D01*
X112356337Y-131173903D01*
X112584592Y-131235063D01*
X112761034Y-131250500D01*
X112819999Y-131255659D01*
X112820000Y-131255659D01*
X112820001Y-131255659D01*
X112878966Y-131250500D01*
X113055408Y-131235063D01*
X113283663Y-131173903D01*
X113497830Y-131074035D01*
X113691401Y-130938495D01*
X113858495Y-130771401D01*
X113988425Y-130585842D01*
X114043002Y-130542217D01*
X114112500Y-130535023D01*
X114174855Y-130566546D01*
X114191575Y-130585842D01*
X114321500Y-130771395D01*
X114321505Y-130771401D01*
X114488599Y-130938495D01*
X114585384Y-131006265D01*
X114682165Y-131074032D01*
X114682167Y-131074033D01*
X114682170Y-131074035D01*
X114896337Y-131173903D01*
X115124592Y-131235063D01*
X115301034Y-131250500D01*
X115359999Y-131255659D01*
X115360000Y-131255659D01*
X115360001Y-131255659D01*
X115418966Y-131250500D01*
X115595408Y-131235063D01*
X115823663Y-131173903D01*
X116037830Y-131074035D01*
X116231401Y-130938495D01*
X116398495Y-130771401D01*
X116528425Y-130585842D01*
X116583002Y-130542217D01*
X116652500Y-130535023D01*
X116714855Y-130566546D01*
X116731575Y-130585842D01*
X116861500Y-130771395D01*
X116861505Y-130771401D01*
X117028599Y-130938495D01*
X117125384Y-131006265D01*
X117222165Y-131074032D01*
X117222167Y-131074033D01*
X117222170Y-131074035D01*
X117436337Y-131173903D01*
X117664592Y-131235063D01*
X117841034Y-131250500D01*
X117899999Y-131255659D01*
X117900000Y-131255659D01*
X117900001Y-131255659D01*
X117958966Y-131250500D01*
X118135408Y-131235063D01*
X118363663Y-131173903D01*
X118577830Y-131074035D01*
X118771401Y-130938495D01*
X118893329Y-130816566D01*
X118954648Y-130783084D01*
X119024340Y-130788068D01*
X119080274Y-130829939D01*
X119097189Y-130860917D01*
X119146202Y-130992328D01*
X119146206Y-130992335D01*
X119232452Y-131107544D01*
X119232455Y-131107547D01*
X119347664Y-131193793D01*
X119347671Y-131193797D01*
X119482517Y-131244091D01*
X119482516Y-131244091D01*
X119489444Y-131244835D01*
X119542127Y-131250500D01*
X121337872Y-131250499D01*
X121397483Y-131244091D01*
X121532331Y-131193796D01*
X121647546Y-131107546D01*
X121733796Y-130992331D01*
X121784091Y-130857483D01*
X121790500Y-130797873D01*
X121790499Y-129002128D01*
X121784091Y-128942517D01*
X121782810Y-128939083D01*
X121733797Y-128807671D01*
X121733793Y-128807664D01*
X121647547Y-128692455D01*
X121647544Y-128692452D01*
X121532335Y-128606206D01*
X121532328Y-128606202D01*
X121397482Y-128555908D01*
X121397483Y-128555908D01*
X121337883Y-128549501D01*
X121337881Y-128549500D01*
X121337873Y-128549500D01*
X121337865Y-128549500D01*
X121318500Y-128549500D01*
X121251461Y-128529815D01*
X121205706Y-128477011D01*
X121194500Y-128425500D01*
X121194500Y-121865687D01*
X121194499Y-121865683D01*
X121165506Y-121719927D01*
X121165505Y-121719920D01*
X121108629Y-121582610D01*
X121100326Y-121570184D01*
X121026060Y-121459035D01*
X121026054Y-121459028D01*
X120916647Y-121349621D01*
X120916624Y-121349600D01*
X119548385Y-119981360D01*
X119530298Y-119955868D01*
X119529494Y-119956374D01*
X119429815Y-119797737D01*
X119302262Y-119670184D01*
X119149523Y-119574211D01*
X118979254Y-119514631D01*
X118979249Y-119514630D01*
X118800004Y-119494435D01*
X118799996Y-119494435D01*
X118620750Y-119514630D01*
X118620745Y-119514631D01*
X118450476Y-119574211D01*
X118297737Y-119670184D01*
X118170184Y-119797737D01*
X118074211Y-119950476D01*
X118014631Y-120120745D01*
X118014630Y-120120750D01*
X117994435Y-120299996D01*
X117994435Y-120300003D01*
X118014630Y-120479249D01*
X118014631Y-120479254D01*
X118074211Y-120649523D01*
X118114364Y-120713425D01*
X118170184Y-120802262D01*
X118297738Y-120929816D01*
X118386320Y-120985476D01*
X118456374Y-121029494D01*
X118455868Y-121030298D01*
X118481360Y-121048385D01*
X119649181Y-122216205D01*
X119682666Y-122277528D01*
X119685500Y-122303886D01*
X119685500Y-128425500D01*
X119665815Y-128492539D01*
X119613011Y-128538294D01*
X119561505Y-128549500D01*
X119542132Y-128549500D01*
X119542123Y-128549501D01*
X119482516Y-128555908D01*
X119347671Y-128606202D01*
X119347664Y-128606206D01*
X119232455Y-128692452D01*
X119232452Y-128692455D01*
X119146206Y-128807664D01*
X119146203Y-128807669D01*
X119097189Y-128939083D01*
X119055317Y-128995016D01*
X118989853Y-129019433D01*
X118921580Y-129004581D01*
X118893326Y-128983430D01*
X118771404Y-128861508D01*
X118771394Y-128861499D01*
X118701973Y-128812890D01*
X118658348Y-128758313D01*
X118651482Y-128735516D01*
X118625505Y-128604920D01*
X118568629Y-128467610D01*
X118557195Y-128450498D01*
X118486060Y-128344035D01*
X118486054Y-128344028D01*
X118376647Y-128234621D01*
X118376624Y-128234600D01*
X114798385Y-124656360D01*
X114780298Y-124630868D01*
X114779494Y-124631374D01*
X114683238Y-124478184D01*
X114679816Y-124472738D01*
X114552262Y-124345184D01*
X114488811Y-124305315D01*
X114399523Y-124249211D01*
X114229254Y-124189631D01*
X114229249Y-124189630D01*
X114050004Y-124169435D01*
X114049996Y-124169435D01*
X113870750Y-124189630D01*
X113870745Y-124189631D01*
X113700476Y-124249211D01*
X113547737Y-124345184D01*
X113420184Y-124472737D01*
X113415841Y-124478184D01*
X113413700Y-124476476D01*
X113370626Y-124514528D01*
X113301566Y-124525133D01*
X113252066Y-124507226D01*
X113199523Y-124474211D01*
X113029254Y-124414631D01*
X113029249Y-124414630D01*
X112850004Y-124394435D01*
X112849996Y-124394435D01*
X112670750Y-124414630D01*
X112670745Y-124414631D01*
X112500476Y-124474211D01*
X112347737Y-124570184D01*
X112220184Y-124697737D01*
X112124211Y-124850476D01*
X112064631Y-125020745D01*
X112064630Y-125020750D01*
X112044435Y-125199996D01*
X112044435Y-125200003D01*
X112064630Y-125379249D01*
X112064631Y-125379254D01*
X112124211Y-125549523D01*
X112159870Y-125606273D01*
X112220184Y-125702262D01*
X112347738Y-125829816D01*
X112410791Y-125869435D01*
X112506374Y-125929494D01*
X112505868Y-125930298D01*
X112531360Y-125948385D01*
X114569181Y-127986206D01*
X114602666Y-128047529D01*
X114605500Y-128073887D01*
X114605500Y-128715099D01*
X114585815Y-128782138D01*
X114552624Y-128816674D01*
X114488599Y-128861505D01*
X114488597Y-128861506D01*
X114321505Y-129028597D01*
X114191575Y-129214158D01*
X114136998Y-129257783D01*
X114067500Y-129264977D01*
X114005145Y-129233454D01*
X113988425Y-129214158D01*
X113858494Y-129028597D01*
X113691404Y-128861508D01*
X113691402Y-128861506D01*
X113691401Y-128861505D01*
X113691396Y-128861501D01*
X113691393Y-128861499D01*
X113627376Y-128816673D01*
X113583751Y-128762096D01*
X113574500Y-128715099D01*
X113574500Y-128425446D01*
X113574501Y-128425425D01*
X113574501Y-128270685D01*
X113545506Y-128124925D01*
X113545505Y-128124924D01*
X113545505Y-128124921D01*
X113544970Y-128123630D01*
X113537885Y-128106524D01*
X113528846Y-128084702D01*
X113488633Y-127987616D01*
X113488631Y-127987612D01*
X113488630Y-127987610D01*
X113477800Y-127971402D01*
X113406059Y-127864033D01*
X113406056Y-127864030D01*
X111423385Y-125881360D01*
X111405298Y-125855868D01*
X111404494Y-125856374D01*
X111347039Y-125764936D01*
X111304816Y-125697738D01*
X111177262Y-125570184D01*
X111140158Y-125546870D01*
X111024523Y-125474211D01*
X110854254Y-125414631D01*
X110854249Y-125414630D01*
X110675004Y-125394435D01*
X110674996Y-125394435D01*
X110495750Y-125414630D01*
X110495745Y-125414631D01*
X110325476Y-125474211D01*
X110172737Y-125570184D01*
X110045184Y-125697737D01*
X109949212Y-125850475D01*
X109949210Y-125850480D01*
X109948508Y-125852486D01*
X109947705Y-125853604D01*
X109946193Y-125856746D01*
X109945642Y-125856480D01*
X109907781Y-125909259D01*
X109842826Y-125935000D01*
X109790516Y-125928563D01*
X109679257Y-125889632D01*
X109679249Y-125889630D01*
X109500004Y-125869435D01*
X109499996Y-125869435D01*
X109320750Y-125889630D01*
X109320745Y-125889631D01*
X109150476Y-125949211D01*
X108997737Y-126045184D01*
X108870184Y-126172737D01*
X108774209Y-126325480D01*
X108735541Y-126435987D01*
X108694820Y-126492763D01*
X108629867Y-126518510D01*
X108561305Y-126505054D01*
X108510903Y-126456666D01*
X108494500Y-126395032D01*
X108494500Y-115399994D01*
X114194859Y-115399994D01*
X114194859Y-115400005D01*
X114215385Y-115647729D01*
X114215387Y-115647738D01*
X114276412Y-115888717D01*
X114376266Y-116116364D01*
X114476564Y-116269882D01*
X115176212Y-115570234D01*
X115187482Y-115612292D01*
X115259890Y-115737708D01*
X115362292Y-115840110D01*
X115487708Y-115912518D01*
X115529765Y-115923787D01*
X114829942Y-116623609D01*
X114876768Y-116660055D01*
X114876770Y-116660056D01*
X115095385Y-116778364D01*
X115095396Y-116778369D01*
X115330506Y-116859083D01*
X115575707Y-116900000D01*
X115824293Y-116900000D01*
X116069493Y-116859083D01*
X116304603Y-116778369D01*
X116304614Y-116778364D01*
X116523228Y-116660057D01*
X116523231Y-116660055D01*
X116570056Y-116623609D01*
X115870234Y-115923787D01*
X115912292Y-115912518D01*
X116037708Y-115840110D01*
X116140110Y-115737708D01*
X116212518Y-115612292D01*
X116223787Y-115570235D01*
X116923434Y-116269882D01*
X117023731Y-116116369D01*
X117123587Y-115888717D01*
X117184612Y-115647738D01*
X117184614Y-115647729D01*
X117205141Y-115400005D01*
X117205141Y-115399994D01*
X120694859Y-115399994D01*
X120694859Y-115400005D01*
X120715385Y-115647729D01*
X120715387Y-115647738D01*
X120776412Y-115888717D01*
X120876266Y-116116364D01*
X120976564Y-116269882D01*
X121676212Y-115570234D01*
X121687482Y-115612292D01*
X121759890Y-115737708D01*
X121862292Y-115840110D01*
X121987708Y-115912518D01*
X122029765Y-115923787D01*
X121329942Y-116623609D01*
X121376768Y-116660055D01*
X121376770Y-116660056D01*
X121595385Y-116778364D01*
X121595396Y-116778369D01*
X121830506Y-116859083D01*
X122075707Y-116900000D01*
X122324293Y-116900000D01*
X122569493Y-116859083D01*
X122804603Y-116778369D01*
X122804614Y-116778364D01*
X123023228Y-116660057D01*
X123023231Y-116660055D01*
X123070056Y-116623609D01*
X122370234Y-115923787D01*
X122412292Y-115912518D01*
X122537708Y-115840110D01*
X122640110Y-115737708D01*
X122712518Y-115612292D01*
X122723787Y-115570235D01*
X123423434Y-116269882D01*
X123523731Y-116116369D01*
X123623587Y-115888717D01*
X123684612Y-115647738D01*
X123684614Y-115647729D01*
X123705141Y-115400005D01*
X123705141Y-115399994D01*
X123700998Y-115349994D01*
X125044859Y-115349994D01*
X125044859Y-115350005D01*
X125065385Y-115597729D01*
X125065387Y-115597738D01*
X125126412Y-115838717D01*
X125226266Y-116066364D01*
X125326564Y-116219882D01*
X126026212Y-115520234D01*
X126037482Y-115562292D01*
X126109890Y-115687708D01*
X126212292Y-115790110D01*
X126337708Y-115862518D01*
X126379765Y-115873787D01*
X125679942Y-116573609D01*
X125726768Y-116610055D01*
X125726770Y-116610056D01*
X125945385Y-116728364D01*
X125945396Y-116728369D01*
X126180506Y-116809083D01*
X126425707Y-116850000D01*
X126674293Y-116850000D01*
X126919493Y-116809083D01*
X127154603Y-116728369D01*
X127154614Y-116728364D01*
X127373228Y-116610057D01*
X127373231Y-116610055D01*
X127420056Y-116573609D01*
X126720234Y-115873787D01*
X126762292Y-115862518D01*
X126887708Y-115790110D01*
X126990110Y-115687708D01*
X127062518Y-115562292D01*
X127073787Y-115520235D01*
X127773434Y-116219882D01*
X127873731Y-116066369D01*
X127973587Y-115838717D01*
X128034612Y-115597738D01*
X128034614Y-115597729D01*
X128055141Y-115350005D01*
X128055141Y-115349994D01*
X131544859Y-115349994D01*
X131544859Y-115350005D01*
X131565385Y-115597729D01*
X131565387Y-115597738D01*
X131626412Y-115838717D01*
X131726266Y-116066364D01*
X131826564Y-116219882D01*
X132526212Y-115520234D01*
X132537482Y-115562292D01*
X132609890Y-115687708D01*
X132712292Y-115790110D01*
X132837708Y-115862518D01*
X132879765Y-115873787D01*
X132179942Y-116573609D01*
X132226768Y-116610055D01*
X132226770Y-116610056D01*
X132445385Y-116728364D01*
X132445396Y-116728369D01*
X132680506Y-116809083D01*
X132925707Y-116850000D01*
X133174293Y-116850000D01*
X133419493Y-116809083D01*
X133654603Y-116728369D01*
X133654614Y-116728364D01*
X133873228Y-116610057D01*
X133873231Y-116610055D01*
X133920056Y-116573609D01*
X133220234Y-115873787D01*
X133262292Y-115862518D01*
X133387708Y-115790110D01*
X133490110Y-115687708D01*
X133562518Y-115562292D01*
X133573787Y-115520235D01*
X134273434Y-116219882D01*
X134373731Y-116066369D01*
X134473587Y-115838717D01*
X134534612Y-115597738D01*
X134534614Y-115597729D01*
X134555141Y-115350005D01*
X134555141Y-115349994D01*
X134534614Y-115102270D01*
X134534612Y-115102261D01*
X134473587Y-114861282D01*
X134373731Y-114633630D01*
X134273434Y-114480116D01*
X133573787Y-115179764D01*
X133562518Y-115137708D01*
X133490110Y-115012292D01*
X133387708Y-114909890D01*
X133262292Y-114837482D01*
X133220235Y-114826212D01*
X133920057Y-114126390D01*
X133920056Y-114126389D01*
X133873229Y-114089943D01*
X133654614Y-113971635D01*
X133654603Y-113971630D01*
X133419493Y-113890916D01*
X133174293Y-113850000D01*
X132925707Y-113850000D01*
X132680506Y-113890916D01*
X132445396Y-113971630D01*
X132445390Y-113971632D01*
X132226761Y-114089949D01*
X132179942Y-114126388D01*
X132179942Y-114126390D01*
X132879765Y-114826212D01*
X132837708Y-114837482D01*
X132712292Y-114909890D01*
X132609890Y-115012292D01*
X132537482Y-115137708D01*
X132526212Y-115179764D01*
X131826564Y-114480116D01*
X131726267Y-114633632D01*
X131626412Y-114861282D01*
X131565387Y-115102261D01*
X131565385Y-115102270D01*
X131544859Y-115349994D01*
X128055141Y-115349994D01*
X128034614Y-115102270D01*
X128034612Y-115102261D01*
X127973587Y-114861282D01*
X127873731Y-114633630D01*
X127773434Y-114480116D01*
X127073787Y-115179764D01*
X127062518Y-115137708D01*
X126990110Y-115012292D01*
X126887708Y-114909890D01*
X126762292Y-114837482D01*
X126720235Y-114826212D01*
X127420057Y-114126390D01*
X127420056Y-114126389D01*
X127373229Y-114089943D01*
X127154614Y-113971635D01*
X127154603Y-113971630D01*
X126919493Y-113890916D01*
X126674293Y-113850000D01*
X126425707Y-113850000D01*
X126180506Y-113890916D01*
X125945396Y-113971630D01*
X125945390Y-113971632D01*
X125726761Y-114089949D01*
X125679942Y-114126388D01*
X125679942Y-114126390D01*
X126379765Y-114826212D01*
X126337708Y-114837482D01*
X126212292Y-114909890D01*
X126109890Y-115012292D01*
X126037482Y-115137708D01*
X126026212Y-115179764D01*
X125326564Y-114480116D01*
X125226267Y-114633632D01*
X125126412Y-114861282D01*
X125065387Y-115102261D01*
X125065385Y-115102270D01*
X125044859Y-115349994D01*
X123700998Y-115349994D01*
X123684614Y-115152270D01*
X123684612Y-115152261D01*
X123623587Y-114911282D01*
X123523731Y-114683630D01*
X123423434Y-114530116D01*
X122723787Y-115229764D01*
X122712518Y-115187708D01*
X122640110Y-115062292D01*
X122537708Y-114959890D01*
X122412292Y-114887482D01*
X122370235Y-114876212D01*
X123070057Y-114176390D01*
X123070056Y-114176389D01*
X123023229Y-114139943D01*
X122804614Y-114021635D01*
X122804603Y-114021630D01*
X122569493Y-113940916D01*
X122324293Y-113900000D01*
X122075707Y-113900000D01*
X121830506Y-113940916D01*
X121595396Y-114021630D01*
X121595390Y-114021632D01*
X121376761Y-114139949D01*
X121329942Y-114176388D01*
X121329942Y-114176390D01*
X122029765Y-114876212D01*
X121987708Y-114887482D01*
X121862292Y-114959890D01*
X121759890Y-115062292D01*
X121687482Y-115187708D01*
X121676212Y-115229764D01*
X120976564Y-114530116D01*
X120876267Y-114683632D01*
X120776412Y-114911282D01*
X120715387Y-115152261D01*
X120715385Y-115152270D01*
X120694859Y-115399994D01*
X117205141Y-115399994D01*
X117184614Y-115152270D01*
X117184612Y-115152261D01*
X117123587Y-114911282D01*
X117023731Y-114683630D01*
X116923434Y-114530116D01*
X116223787Y-115229764D01*
X116212518Y-115187708D01*
X116140110Y-115062292D01*
X116037708Y-114959890D01*
X115912292Y-114887482D01*
X115870235Y-114876212D01*
X116570057Y-114176390D01*
X116570056Y-114176389D01*
X116523229Y-114139943D01*
X116304614Y-114021635D01*
X116304603Y-114021630D01*
X116069493Y-113940916D01*
X115824293Y-113900000D01*
X115575707Y-113900000D01*
X115330506Y-113940916D01*
X115095396Y-114021630D01*
X115095390Y-114021632D01*
X114876761Y-114139949D01*
X114829942Y-114176388D01*
X114829942Y-114176390D01*
X115529765Y-114876212D01*
X115487708Y-114887482D01*
X115362292Y-114959890D01*
X115259890Y-115062292D01*
X115187482Y-115187708D01*
X115176212Y-115229764D01*
X114476564Y-114530116D01*
X114376267Y-114683632D01*
X114276412Y-114911282D01*
X114215387Y-115152261D01*
X114215385Y-115152270D01*
X114194859Y-115399994D01*
X108494500Y-115399994D01*
X108494500Y-113870446D01*
X108494501Y-113870425D01*
X108494501Y-113715686D01*
X108470215Y-113593600D01*
X108467185Y-113578368D01*
X108465505Y-113569920D01*
X108408629Y-113432610D01*
X108402519Y-113423466D01*
X108326060Y-113309035D01*
X108326054Y-113309028D01*
X108216647Y-113199621D01*
X108216624Y-113199600D01*
X107373385Y-112356360D01*
X107355298Y-112330868D01*
X107354494Y-112331374D01*
X107290059Y-112228827D01*
X107254816Y-112172738D01*
X107127262Y-112045184D01*
X106974522Y-111949211D01*
X106821148Y-111895543D01*
X106764372Y-111854821D01*
X106754976Y-111831117D01*
X106743290Y-111847326D01*
X106678274Y-111872912D01*
X106653332Y-111872627D01*
X106639333Y-111871049D01*
X106625000Y-111869435D01*
X106624999Y-111869435D01*
X106624998Y-111869435D01*
X106624996Y-111869435D01*
X106445750Y-111889630D01*
X106445745Y-111889631D01*
X106275476Y-111949211D01*
X106122737Y-112045184D01*
X106118962Y-112048959D01*
X106057637Y-112082441D01*
X105987946Y-112077452D01*
X105932015Y-112035578D01*
X105916725Y-112008725D01*
X105892074Y-111949211D01*
X105868630Y-111892611D01*
X105837634Y-111846222D01*
X105786059Y-111769034D01*
X105786057Y-111769031D01*
X105676647Y-111659621D01*
X105676624Y-111659600D01*
X104498385Y-110481360D01*
X104480298Y-110455868D01*
X104479494Y-110456374D01*
X104419640Y-110361118D01*
X104379816Y-110297738D01*
X104252262Y-110170184D01*
X104212978Y-110145500D01*
X104121878Y-110088258D01*
X104075587Y-110035923D01*
X104064939Y-109966869D01*
X104070809Y-109942309D01*
X104110366Y-109829262D01*
X104110369Y-109829249D01*
X104130565Y-109650003D01*
X104130565Y-109649997D01*
X104112795Y-109492286D01*
X104124849Y-109423464D01*
X104172198Y-109372084D01*
X104239809Y-109354460D01*
X104306214Y-109376186D01*
X104323696Y-109390721D01*
X106309600Y-111376624D01*
X106309621Y-111376647D01*
X106419030Y-111486056D01*
X106419034Y-111486059D01*
X106476558Y-111524495D01*
X106542611Y-111568630D01*
X106583019Y-111585367D01*
X106583020Y-111585368D01*
X106583021Y-111585368D01*
X106679920Y-111625505D01*
X106691397Y-111627787D01*
X106753309Y-111660168D01*
X106774707Y-111697738D01*
X106800469Y-111670904D01*
X106862103Y-111654501D01*
X106980426Y-111654501D01*
X106980446Y-111654500D01*
X114333478Y-111654500D01*
X114400517Y-111674185D01*
X114437287Y-111710679D01*
X114511833Y-111824782D01*
X114511836Y-111824785D01*
X114680256Y-112007738D01*
X114876491Y-112160474D01*
X115095190Y-112278828D01*
X115330386Y-112359571D01*
X115575665Y-112400500D01*
X115824335Y-112400500D01*
X116069614Y-112359571D01*
X116304810Y-112278828D01*
X116523509Y-112160474D01*
X116719744Y-112007738D01*
X116888164Y-111824785D01*
X116888166Y-111824782D01*
X116962713Y-111710679D01*
X117015859Y-111665322D01*
X117066522Y-111654500D01*
X120833478Y-111654500D01*
X120900517Y-111674185D01*
X120937287Y-111710679D01*
X121011833Y-111824782D01*
X121011836Y-111824785D01*
X121180256Y-112007738D01*
X121376491Y-112160474D01*
X121595190Y-112278828D01*
X121830386Y-112359571D01*
X122075665Y-112400500D01*
X122324335Y-112400500D01*
X122569614Y-112359571D01*
X122804810Y-112278828D01*
X123023509Y-112160474D01*
X123219744Y-112007738D01*
X123388164Y-111824785D01*
X123524173Y-111616607D01*
X123624063Y-111388881D01*
X123685108Y-111147821D01*
X123685109Y-111147812D01*
X123705643Y-110900005D01*
X123705643Y-110899994D01*
X123701500Y-110849994D01*
X125044357Y-110849994D01*
X125044357Y-110850005D01*
X125064890Y-111097812D01*
X125064892Y-111097824D01*
X125125936Y-111338881D01*
X125225826Y-111566606D01*
X125361833Y-111774782D01*
X125361836Y-111774785D01*
X125530256Y-111957738D01*
X125726491Y-112110474D01*
X125945190Y-112228828D01*
X126180386Y-112309571D01*
X126425665Y-112350500D01*
X126674335Y-112350500D01*
X126919614Y-112309571D01*
X127154810Y-112228828D01*
X127373509Y-112110474D01*
X127569744Y-111957738D01*
X127738164Y-111774785D01*
X127803889Y-111674185D01*
X127812713Y-111660679D01*
X127865859Y-111615322D01*
X127916522Y-111604500D01*
X131683478Y-111604500D01*
X131750517Y-111624185D01*
X131787287Y-111660679D01*
X131861833Y-111774782D01*
X131861836Y-111774785D01*
X132030256Y-111957738D01*
X132226491Y-112110474D01*
X132445190Y-112228828D01*
X132680386Y-112309571D01*
X132925665Y-112350500D01*
X133174335Y-112350500D01*
X133419614Y-112309571D01*
X133654810Y-112228828D01*
X133873509Y-112110474D01*
X134069744Y-111957738D01*
X134238164Y-111774785D01*
X134374173Y-111566607D01*
X134474063Y-111338881D01*
X134535108Y-111097821D01*
X134540967Y-111027116D01*
X134555643Y-110850005D01*
X134555643Y-110849994D01*
X134535109Y-110602187D01*
X134535108Y-110602184D01*
X134535108Y-110602179D01*
X134512908Y-110514513D01*
X134515533Y-110444694D01*
X134530012Y-110415184D01*
X134563227Y-110365474D01*
X134563230Y-110365470D01*
X134568630Y-110357389D01*
X134607853Y-110262696D01*
X134625505Y-110220080D01*
X134625505Y-110220077D01*
X134625507Y-110220073D01*
X134632410Y-110185369D01*
X134632410Y-110185368D01*
X134654501Y-110074314D01*
X134654501Y-109920578D01*
X134654500Y-109920552D01*
X134654500Y-107588537D01*
X134661459Y-107547582D01*
X134663163Y-107542712D01*
X134685368Y-107479255D01*
X134694889Y-107394750D01*
X134705565Y-107300003D01*
X134705565Y-107299996D01*
X134685369Y-107120750D01*
X134685368Y-107120745D01*
X134651869Y-107025011D01*
X134625789Y-106950478D01*
X134529816Y-106797738D01*
X134402262Y-106670184D01*
X134331944Y-106626000D01*
X134249523Y-106574211D01*
X134079254Y-106514631D01*
X134079249Y-106514630D01*
X133900004Y-106494435D01*
X133899996Y-106494435D01*
X133720750Y-106514630D01*
X133720745Y-106514631D01*
X133550476Y-106574211D01*
X133397737Y-106670184D01*
X133270184Y-106797737D01*
X133174211Y-106950476D01*
X133114631Y-107120745D01*
X133114630Y-107120750D01*
X133094435Y-107299996D01*
X133094435Y-107300003D01*
X133114630Y-107479246D01*
X133114632Y-107479255D01*
X133136836Y-107542711D01*
X133138541Y-107547582D01*
X133145500Y-107588537D01*
X133145500Y-109225500D01*
X133125815Y-109292539D01*
X133073011Y-109338294D01*
X133021500Y-109349500D01*
X132925665Y-109349500D01*
X132680383Y-109390429D01*
X132445197Y-109471169D01*
X132445188Y-109471172D01*
X132226493Y-109589524D01*
X132030257Y-109742261D01*
X131861833Y-109925217D01*
X131787287Y-110039321D01*
X131734141Y-110084678D01*
X131683478Y-110095500D01*
X127916522Y-110095500D01*
X127849483Y-110075815D01*
X127812713Y-110039321D01*
X127738166Y-109925217D01*
X127649833Y-109829262D01*
X127569744Y-109742262D01*
X127373509Y-109589526D01*
X127373507Y-109589525D01*
X127373506Y-109589524D01*
X127154811Y-109471172D01*
X127154802Y-109471169D01*
X126919616Y-109390429D01*
X126674335Y-109349500D01*
X126425665Y-109349500D01*
X126180383Y-109390429D01*
X125945197Y-109471169D01*
X125945188Y-109471172D01*
X125726493Y-109589524D01*
X125530257Y-109742261D01*
X125361833Y-109925217D01*
X125225826Y-110133393D01*
X125125936Y-110361118D01*
X125064892Y-110602175D01*
X125064890Y-110602187D01*
X125044357Y-110849994D01*
X123701500Y-110849994D01*
X123685109Y-110652187D01*
X123685107Y-110652175D01*
X123624063Y-110411118D01*
X123524173Y-110183393D01*
X123388166Y-109975217D01*
X123342566Y-109925682D01*
X123219744Y-109792262D01*
X123023509Y-109639526D01*
X123023507Y-109639525D01*
X123023506Y-109639524D01*
X122804811Y-109521172D01*
X122804802Y-109521169D01*
X122569616Y-109440429D01*
X122324335Y-109399500D01*
X122075665Y-109399500D01*
X121830383Y-109440429D01*
X121595197Y-109521169D01*
X121595188Y-109521172D01*
X121376493Y-109639524D01*
X121180257Y-109792261D01*
X121011833Y-109975217D01*
X120937287Y-110089321D01*
X120884141Y-110134678D01*
X120833478Y-110145500D01*
X117078500Y-110145500D01*
X117011461Y-110125815D01*
X116965706Y-110073011D01*
X116954500Y-110021500D01*
X116954500Y-105151490D01*
X116974185Y-105084451D01*
X117013408Y-105045948D01*
X117018656Y-105042712D01*
X117142712Y-104918656D01*
X117234814Y-104769334D01*
X117289999Y-104602797D01*
X117300500Y-104500009D01*
X117300499Y-103499992D01*
X117299970Y-103494817D01*
X117289999Y-103397203D01*
X117289998Y-103397200D01*
X117279390Y-103365187D01*
X117234814Y-103230666D01*
X117142712Y-103081344D01*
X117018656Y-102957288D01*
X116869334Y-102865186D01*
X116702797Y-102810001D01*
X116702795Y-102810000D01*
X116600010Y-102799500D01*
X115799998Y-102799500D01*
X115799980Y-102799501D01*
X115697203Y-102810000D01*
X115697200Y-102810001D01*
X115530668Y-102865185D01*
X115530663Y-102865187D01*
X115381342Y-102957289D01*
X115287681Y-103050951D01*
X115226358Y-103084436D01*
X115156666Y-103079452D01*
X115112319Y-103050951D01*
X115018656Y-102957288D01*
X115013400Y-102954046D01*
X114966677Y-102902097D01*
X114954500Y-102848509D01*
X114954500Y-102634486D01*
X114974185Y-102567447D01*
X114990814Y-102546810D01*
X116858420Y-100679203D01*
X116919741Y-100645720D01*
X116989433Y-100650704D01*
X117045366Y-100692576D01*
X117069783Y-100758040D01*
X117070099Y-100766886D01*
X117070099Y-101157470D01*
X117070100Y-101157476D01*
X117076507Y-101217083D01*
X117126801Y-101351928D01*
X117126805Y-101351935D01*
X117213051Y-101467144D01*
X117213054Y-101467147D01*
X117328263Y-101553393D01*
X117328270Y-101553397D01*
X117366941Y-101567820D01*
X117463116Y-101603691D01*
X117522726Y-101610100D01*
X117841711Y-101610099D01*
X117908750Y-101629783D01*
X117929392Y-101646418D01*
X122163181Y-105880206D01*
X122196666Y-105941529D01*
X122199500Y-105967883D01*
X122199500Y-105999998D01*
X122199501Y-106000019D01*
X122210000Y-106102796D01*
X122210001Y-106102799D01*
X122265185Y-106269331D01*
X122265187Y-106269336D01*
X122292542Y-106313685D01*
X122357288Y-106418656D01*
X122481344Y-106542712D01*
X122630666Y-106634814D01*
X122797203Y-106689999D01*
X122899991Y-106700500D01*
X123700008Y-106700499D01*
X123700016Y-106700498D01*
X123700019Y-106700498D01*
X123756302Y-106694748D01*
X123802797Y-106689999D01*
X123969334Y-106634814D01*
X124118656Y-106542712D01*
X124212319Y-106449049D01*
X124273642Y-106415564D01*
X124343334Y-106420548D01*
X124387681Y-106449049D01*
X124481344Y-106542712D01*
X124630666Y-106634814D01*
X124797203Y-106689999D01*
X124899991Y-106700500D01*
X125700008Y-106700499D01*
X125700016Y-106700498D01*
X125700019Y-106700498D01*
X125756302Y-106694748D01*
X125802797Y-106689999D01*
X125969334Y-106634814D01*
X126118656Y-106542712D01*
X126242712Y-106418656D01*
X126334814Y-106269334D01*
X126389999Y-106102797D01*
X126390203Y-106100801D01*
X126390673Y-106099646D01*
X126391416Y-106096180D01*
X126392034Y-106096312D01*
X126416598Y-106036109D01*
X126451561Y-106006014D01*
X126546306Y-105951313D01*
X126651315Y-105846304D01*
X126651315Y-105846302D01*
X126661519Y-105836099D01*
X126661523Y-105836094D01*
X130851199Y-101646418D01*
X130912522Y-101612933D01*
X130938880Y-101610099D01*
X131527273Y-101610099D01*
X131527274Y-101610099D01*
X131586885Y-101603691D01*
X131721733Y-101553396D01*
X131836948Y-101467146D01*
X131923198Y-101351931D01*
X131973493Y-101217083D01*
X131979902Y-101157473D01*
X131979901Y-100569076D01*
X131999585Y-100502038D01*
X132016215Y-100481401D01*
X134840550Y-97657068D01*
X134901871Y-97623585D01*
X134971563Y-97628569D01*
X135027496Y-97670441D01*
X135051913Y-97735905D01*
X135051847Y-97754478D01*
X135049500Y-97784295D01*
X135049500Y-98215701D01*
X135052401Y-98252567D01*
X135052402Y-98252573D01*
X135098254Y-98410393D01*
X135098255Y-98410396D01*
X135098256Y-98410398D01*
X135100760Y-98414632D01*
X135181917Y-98551862D01*
X135181923Y-98551870D01*
X135298129Y-98668076D01*
X135298135Y-98668081D01*
X135439602Y-98751744D01*
X135481224Y-98763836D01*
X135597426Y-98797597D01*
X135597429Y-98797597D01*
X135597431Y-98797598D01*
X135634306Y-98800500D01*
X135851522Y-98800500D01*
X135918561Y-98820185D01*
X135939203Y-98836819D01*
X137444346Y-100341962D01*
X137444356Y-100341973D01*
X137448686Y-100346303D01*
X137448687Y-100346304D01*
X137553696Y-100451313D01*
X137553698Y-100451314D01*
X137553702Y-100451317D01*
X137673952Y-100520743D01*
X137673954Y-100520745D01*
X137673955Y-100520745D01*
X137678076Y-100523124D01*
X137682304Y-100525565D01*
X137825747Y-100564000D01*
X137825748Y-100564000D01*
X137825749Y-100564000D01*
X138174251Y-100564000D01*
X138174253Y-100564000D01*
X138317696Y-100525565D01*
X138326044Y-100520745D01*
X138446304Y-100451313D01*
X138551313Y-100346304D01*
X138551313Y-100346302D01*
X138561517Y-100336099D01*
X138561520Y-100336094D01*
X140001695Y-98895921D01*
X140063017Y-98862437D01*
X140132709Y-98867421D01*
X140188642Y-98909293D01*
X140213059Y-98974757D01*
X140213373Y-98982917D01*
X140389070Y-130725539D01*
X140369757Y-130792686D01*
X140317207Y-130838733D01*
X140281257Y-130849164D01*
X140038214Y-130881161D01*
X139803895Y-130943947D01*
X139579794Y-131036773D01*
X139579785Y-131036777D01*
X139369706Y-131158067D01*
X139177263Y-131305733D01*
X139177256Y-131305739D01*
X139005739Y-131477256D01*
X139005733Y-131477263D01*
X138858067Y-131669706D01*
X138736777Y-131879785D01*
X138736773Y-131879794D01*
X138643947Y-132103895D01*
X138581161Y-132338214D01*
X138549499Y-132578717D01*
X138549234Y-132582763D01*
X138547546Y-132582652D01*
X138529815Y-132643039D01*
X138477011Y-132688794D01*
X138425500Y-132700000D01*
X55646485Y-132700000D01*
X55579446Y-132680315D01*
X55539098Y-132638000D01*
X55517904Y-132601291D01*
X55441936Y-132469711D01*
X55423802Y-132446078D01*
X55398608Y-132380909D01*
X55398180Y-132371290D01*
X55257198Y-106900495D01*
X55260507Y-106888990D01*
X55258466Y-106875066D01*
X55501866Y-106875066D01*
X55504387Y-106889552D01*
X55504644Y-106889525D01*
X55511401Y-106952372D01*
X55511403Y-106952379D01*
X55561645Y-107087086D01*
X55561649Y-107087093D01*
X55647809Y-107202187D01*
X55647812Y-107202190D01*
X55762906Y-107288350D01*
X55762913Y-107288354D01*
X55897620Y-107338596D01*
X55897627Y-107338598D01*
X55957155Y-107344999D01*
X55957172Y-107345000D01*
X57055000Y-107345000D01*
X57055000Y-106145001D01*
X57115402Y-106170021D01*
X57240981Y-106195000D01*
X57369019Y-106195000D01*
X57494598Y-106170021D01*
X57555000Y-106145001D01*
X57555000Y-107345000D01*
X58652828Y-107345000D01*
X58652844Y-107344999D01*
X58712372Y-107338598D01*
X58712379Y-107338596D01*
X58847086Y-107288354D01*
X58847093Y-107288350D01*
X58962187Y-107202190D01*
X58962190Y-107202187D01*
X59048350Y-107087093D01*
X59048354Y-107087086D01*
X59098596Y-106952379D01*
X59098598Y-106952372D01*
X59104999Y-106892844D01*
X59105000Y-106892827D01*
X59105000Y-105795000D01*
X57905001Y-105795000D01*
X57930021Y-105734598D01*
X57955000Y-105609019D01*
X57955000Y-105480981D01*
X57930021Y-105355402D01*
X57905001Y-105295000D01*
X59105000Y-105295000D01*
X59105000Y-104197172D01*
X59104999Y-104197155D01*
X59098598Y-104137627D01*
X59098596Y-104137620D01*
X59048354Y-104002913D01*
X59048350Y-104002906D01*
X58962190Y-103887812D01*
X58962187Y-103887809D01*
X58847093Y-103801649D01*
X58847086Y-103801645D01*
X58712379Y-103751403D01*
X58712372Y-103751401D01*
X58652844Y-103745000D01*
X57555000Y-103745000D01*
X57555000Y-104944998D01*
X57494598Y-104919979D01*
X57369019Y-104895000D01*
X57240981Y-104895000D01*
X57115402Y-104919979D01*
X57055000Y-104944998D01*
X57055000Y-103745000D01*
X55957155Y-103745000D01*
X55897627Y-103751401D01*
X55897620Y-103751403D01*
X55762913Y-103801645D01*
X55762906Y-103801649D01*
X55647812Y-103887809D01*
X55647809Y-103887812D01*
X55561649Y-104002906D01*
X55561645Y-104002913D01*
X55511403Y-104137620D01*
X55511401Y-104137627D01*
X55505000Y-104197155D01*
X55505000Y-105295000D01*
X56704999Y-105295000D01*
X56679979Y-105355402D01*
X56655000Y-105480981D01*
X56655000Y-105609019D01*
X56679979Y-105734598D01*
X56704999Y-105795000D01*
X55505000Y-105795000D01*
X55505000Y-106864393D01*
X55501866Y-106875066D01*
X55258466Y-106875066D01*
X55257002Y-106865079D01*
X55256756Y-106820552D01*
X55221578Y-100464995D01*
X55499451Y-100464995D01*
X55499451Y-100465004D01*
X55519616Y-100734101D01*
X55579664Y-100997188D01*
X55579666Y-100997195D01*
X55678256Y-101248396D01*
X55678258Y-101248400D01*
X55683281Y-101257100D01*
X55813185Y-101482102D01*
X55944223Y-101646418D01*
X55981442Y-101693089D01*
X56168183Y-101866358D01*
X56179259Y-101876635D01*
X56402226Y-102028651D01*
X56645359Y-102145738D01*
X56903228Y-102225280D01*
X56903229Y-102225280D01*
X56903232Y-102225281D01*
X57170063Y-102265499D01*
X57170068Y-102265499D01*
X57170071Y-102265500D01*
X57170072Y-102265500D01*
X57439928Y-102265500D01*
X57439929Y-102265500D01*
X57451958Y-102263687D01*
X57706767Y-102225281D01*
X57706768Y-102225280D01*
X57706772Y-102225280D01*
X57964641Y-102145738D01*
X58162361Y-102050521D01*
X58207767Y-102028655D01*
X58207767Y-102028654D01*
X58207775Y-102028651D01*
X58430741Y-101876635D01*
X58628561Y-101693085D01*
X58796815Y-101482102D01*
X58931743Y-101248398D01*
X59030334Y-100997195D01*
X59090383Y-100734103D01*
X59102508Y-100572302D01*
X59110549Y-100465004D01*
X59110549Y-100464995D01*
X59090383Y-100195898D01*
X59075955Y-100132684D01*
X59030334Y-99932805D01*
X58931743Y-99681602D01*
X58796815Y-99447898D01*
X58628561Y-99236915D01*
X58628560Y-99236914D01*
X58628557Y-99236910D01*
X58430741Y-99053365D01*
X58388436Y-99024522D01*
X58207775Y-98901349D01*
X58207769Y-98901346D01*
X58207768Y-98901345D01*
X58207767Y-98901344D01*
X57964643Y-98784263D01*
X57964645Y-98784263D01*
X57706773Y-98704720D01*
X57706767Y-98704718D01*
X57439936Y-98664500D01*
X57439929Y-98664500D01*
X57170071Y-98664500D01*
X57170063Y-98664500D01*
X56903232Y-98704718D01*
X56903226Y-98704720D01*
X56645358Y-98784262D01*
X56402230Y-98901346D01*
X56179258Y-99053365D01*
X55981442Y-99236910D01*
X55813185Y-99447898D01*
X55678258Y-99681599D01*
X55678256Y-99681603D01*
X55579666Y-99932804D01*
X55579664Y-99932811D01*
X55519616Y-100195898D01*
X55499451Y-100464995D01*
X55221578Y-100464995D01*
X55190618Y-94871659D01*
X55209930Y-94804516D01*
X55262480Y-94758469D01*
X55331582Y-94748143D01*
X55388927Y-94771711D01*
X55457910Y-94823352D01*
X55457913Y-94823354D01*
X55592620Y-94873596D01*
X55592627Y-94873598D01*
X55652155Y-94879999D01*
X55652172Y-94880000D01*
X56750000Y-94880000D01*
X56750000Y-93680001D01*
X56810402Y-93705021D01*
X56935981Y-93730000D01*
X57064019Y-93730000D01*
X57189598Y-93705021D01*
X57250000Y-93680001D01*
X57250000Y-94880000D01*
X58347828Y-94880000D01*
X58347844Y-94879999D01*
X58407372Y-94873598D01*
X58407379Y-94873596D01*
X58542086Y-94823354D01*
X58542093Y-94823350D01*
X58657187Y-94737190D01*
X58657190Y-94737187D01*
X58743350Y-94622093D01*
X58743354Y-94622086D01*
X58793596Y-94487379D01*
X58793598Y-94487372D01*
X58799999Y-94427844D01*
X58800000Y-94427827D01*
X58800000Y-93330000D01*
X57600001Y-93330000D01*
X57625021Y-93269598D01*
X57650000Y-93144019D01*
X57650000Y-93015981D01*
X57625021Y-92890402D01*
X57600001Y-92830000D01*
X58800000Y-92830000D01*
X58800000Y-91732172D01*
X58799999Y-91732155D01*
X58793598Y-91672627D01*
X58793596Y-91672620D01*
X58743354Y-91537913D01*
X58743350Y-91537906D01*
X58657190Y-91422812D01*
X58657187Y-91422809D01*
X58542093Y-91336649D01*
X58542086Y-91336645D01*
X58407379Y-91286403D01*
X58407372Y-91286401D01*
X58347844Y-91280000D01*
X57250000Y-91280000D01*
X57250000Y-92479998D01*
X57189598Y-92454979D01*
X57064019Y-92430000D01*
X56935981Y-92430000D01*
X56810402Y-92454979D01*
X56750000Y-92479998D01*
X56750000Y-91280000D01*
X55652155Y-91280000D01*
X55592627Y-91286401D01*
X55592620Y-91286403D01*
X55457913Y-91336645D01*
X55457910Y-91336647D01*
X55369182Y-91403069D01*
X55303717Y-91427486D01*
X55235444Y-91412634D01*
X55186039Y-91363229D01*
X55170873Y-91304490D01*
X55157415Y-88873001D01*
X55176727Y-88805858D01*
X55229277Y-88759811D01*
X55298379Y-88749485D01*
X55362095Y-88778158D01*
X55388799Y-88810319D01*
X55412188Y-88850829D01*
X55508185Y-89017102D01*
X55608860Y-89143344D01*
X55676442Y-89228089D01*
X55836239Y-89376358D01*
X55874259Y-89411635D01*
X56097226Y-89563651D01*
X56340359Y-89680738D01*
X56598228Y-89760280D01*
X56598229Y-89760280D01*
X56598232Y-89760281D01*
X56865063Y-89800499D01*
X56865068Y-89800499D01*
X56865071Y-89800500D01*
X56865072Y-89800500D01*
X57134928Y-89800500D01*
X57134929Y-89800500D01*
X57161700Y-89796465D01*
X57401767Y-89760281D01*
X57401768Y-89760280D01*
X57401772Y-89760280D01*
X57659641Y-89680738D01*
X57902775Y-89563651D01*
X58125741Y-89411635D01*
X58280853Y-89267712D01*
X58323557Y-89228089D01*
X58323557Y-89228087D01*
X58323561Y-89228085D01*
X58491815Y-89017102D01*
X58626743Y-88783398D01*
X58725334Y-88532195D01*
X58785383Y-88269103D01*
X58796444Y-88121500D01*
X58805549Y-88000004D01*
X58805549Y-87999995D01*
X58785383Y-87730898D01*
X58779747Y-87706204D01*
X58725334Y-87467805D01*
X58626743Y-87216602D01*
X58491815Y-86982898D01*
X58323561Y-86771915D01*
X58323560Y-86771914D01*
X58323557Y-86771910D01*
X58125741Y-86588365D01*
X58043943Y-86532596D01*
X57902775Y-86436349D01*
X57902769Y-86436346D01*
X57902768Y-86436345D01*
X57902767Y-86436344D01*
X57659643Y-86319263D01*
X57659645Y-86319263D01*
X57401773Y-86239720D01*
X57401767Y-86239718D01*
X57134936Y-86199500D01*
X57134929Y-86199500D01*
X56865071Y-86199500D01*
X56865063Y-86199500D01*
X56598232Y-86239718D01*
X56598226Y-86239720D01*
X56340358Y-86319262D01*
X56097230Y-86436346D01*
X55874258Y-86588365D01*
X55676442Y-86771910D01*
X55508185Y-86982898D01*
X55379234Y-87206247D01*
X55328667Y-87254463D01*
X55260060Y-87267685D01*
X55195195Y-87241717D01*
X55154667Y-87184803D01*
X55147850Y-87144940D01*
X55119152Y-81960210D01*
X55138465Y-81893065D01*
X55191015Y-81847018D01*
X55226961Y-81836588D01*
X55361789Y-81818838D01*
X55596100Y-81756054D01*
X55820212Y-81663224D01*
X56030289Y-81541936D01*
X56222738Y-81394265D01*
X56394265Y-81222738D01*
X56541936Y-81030289D01*
X56663224Y-80820212D01*
X56756054Y-80596100D01*
X56818838Y-80361789D01*
X56850500Y-80121288D01*
X56850500Y-79878712D01*
X56818838Y-79638211D01*
X56756054Y-79403900D01*
X56663224Y-79179788D01*
X56541936Y-78969711D01*
X56461540Y-78864937D01*
X56394266Y-78777263D01*
X56394260Y-78777256D01*
X56328685Y-78711681D01*
X56295200Y-78650358D01*
X56300184Y-78580666D01*
X56342056Y-78524733D01*
X56407520Y-78500316D01*
X56416366Y-78500000D01*
X84016200Y-78500000D01*
X84083239Y-78519685D01*
G37*
%TD.AperFunction*%
%TA.AperFunction,Conductor*%
G36*
X69223153Y-123567185D02*
G01*
X69268908Y-123619989D01*
X69278852Y-123689147D01*
X69249827Y-123752703D01*
X69243795Y-123759181D01*
X67276298Y-125726675D01*
X67214975Y-125760160D01*
X67177810Y-125762522D01*
X66970002Y-125744341D01*
X66969999Y-125744341D01*
X66734596Y-125764936D01*
X66734586Y-125764938D01*
X66506344Y-125826094D01*
X66506335Y-125826098D01*
X66292171Y-125925964D01*
X66292169Y-125925965D01*
X66098597Y-126061505D01*
X65931508Y-126228594D01*
X65801269Y-126414595D01*
X65746692Y-126458219D01*
X65677193Y-126465412D01*
X65614839Y-126433890D01*
X65598119Y-126414594D01*
X65468113Y-126228926D01*
X65468108Y-126228920D01*
X65301082Y-126061894D01*
X65107578Y-125926399D01*
X64893492Y-125826570D01*
X64893486Y-125826567D01*
X64680000Y-125769364D01*
X64680000Y-126666988D01*
X64622993Y-126634075D01*
X64495826Y-126600000D01*
X64364174Y-126600000D01*
X64237007Y-126634075D01*
X64180000Y-126666988D01*
X64180000Y-125769364D01*
X64179999Y-125769364D01*
X63966513Y-125826567D01*
X63966507Y-125826570D01*
X63752422Y-125926399D01*
X63752420Y-125926400D01*
X63558926Y-126061886D01*
X63558920Y-126061891D01*
X63391891Y-126228920D01*
X63391890Y-126228922D01*
X63261880Y-126414595D01*
X63207303Y-126458219D01*
X63137804Y-126465412D01*
X63075450Y-126433890D01*
X63058730Y-126414594D01*
X62928494Y-126228597D01*
X62761402Y-126061506D01*
X62761395Y-126061501D01*
X62567834Y-125925967D01*
X62567830Y-125925965D01*
X62532004Y-125909259D01*
X62353663Y-125826097D01*
X62353659Y-125826096D01*
X62353655Y-125826094D01*
X62125413Y-125764938D01*
X62125403Y-125764936D01*
X62047026Y-125758079D01*
X61981957Y-125732626D01*
X61940979Y-125676035D01*
X61937101Y-125606273D01*
X61970151Y-125546872D01*
X63933205Y-123583819D01*
X63994528Y-123550334D01*
X64020886Y-123547500D01*
X69156114Y-123547500D01*
X69223153Y-123567185D01*
G37*
%TD.AperFunction*%
%TA.AperFunction,Conductor*%
G36*
X117316753Y-97874185D02*
G01*
X117362508Y-97926989D01*
X117372452Y-97996147D01*
X117343427Y-98059703D01*
X117337395Y-98066181D01*
X113613943Y-101789631D01*
X113613942Y-101789632D01*
X113531369Y-101913213D01*
X113501482Y-101985368D01*
X113474494Y-102050520D01*
X113474494Y-102050521D01*
X113473703Y-102054496D01*
X113473703Y-102054501D01*
X113469358Y-102076344D01*
X113445499Y-102196286D01*
X113445499Y-102351026D01*
X113445500Y-102351047D01*
X113445500Y-102848509D01*
X113425815Y-102915548D01*
X113386600Y-102954046D01*
X113381343Y-102957288D01*
X113257289Y-103081342D01*
X113165187Y-103230663D01*
X113165186Y-103230666D01*
X113110001Y-103397203D01*
X113110001Y-103397204D01*
X113110000Y-103397204D01*
X113099500Y-103499983D01*
X113099500Y-104500001D01*
X113099501Y-104500019D01*
X113110000Y-104602796D01*
X113110001Y-104602799D01*
X113165185Y-104769331D01*
X113165187Y-104769336D01*
X113195732Y-104818857D01*
X113257288Y-104918656D01*
X113381344Y-105042712D01*
X113530666Y-105134814D01*
X113697203Y-105189999D01*
X113799991Y-105200500D01*
X114600008Y-105200499D01*
X114600016Y-105200498D01*
X114600019Y-105200498D01*
X114656302Y-105194748D01*
X114702797Y-105189999D01*
X114869334Y-105134814D01*
X115018656Y-105042712D01*
X115112319Y-104949049D01*
X115173642Y-104915564D01*
X115243334Y-104920548D01*
X115287681Y-104949049D01*
X115381344Y-105042712D01*
X115386591Y-105045948D01*
X115433318Y-105097892D01*
X115445500Y-105151490D01*
X115445500Y-109316196D01*
X115425815Y-109383235D01*
X115373011Y-109428990D01*
X115341917Y-109438504D01*
X115330383Y-109440429D01*
X115095197Y-109521169D01*
X115095188Y-109521172D01*
X114876493Y-109639524D01*
X114680257Y-109792261D01*
X114511833Y-109975217D01*
X114437287Y-110089321D01*
X114384141Y-110134678D01*
X114333478Y-110145500D01*
X107263886Y-110145500D01*
X107196847Y-110125815D01*
X107176205Y-110109181D01*
X105412097Y-108345073D01*
X104992340Y-107925315D01*
X104958856Y-107863994D01*
X104963840Y-107794302D01*
X105005712Y-107738369D01*
X105058937Y-107717595D01*
X105058579Y-107715923D01*
X105065192Y-107714507D01*
X105231619Y-107659358D01*
X105231624Y-107659356D01*
X105380845Y-107567315D01*
X105504815Y-107443345D01*
X105596856Y-107294124D01*
X105596858Y-107294119D01*
X105652005Y-107127697D01*
X105652006Y-107127690D01*
X105662499Y-107024986D01*
X105662500Y-107024973D01*
X105662500Y-106750000D01*
X104449000Y-106750000D01*
X104381961Y-106730315D01*
X104336206Y-106677511D01*
X104325000Y-106626000D01*
X104325000Y-106250000D01*
X104825000Y-106250000D01*
X105662499Y-106250000D01*
X105662499Y-105975028D01*
X105662498Y-105975013D01*
X105652005Y-105872302D01*
X105596858Y-105705880D01*
X105596856Y-105705875D01*
X105504815Y-105556654D01*
X105380845Y-105432684D01*
X105231624Y-105340643D01*
X105231619Y-105340641D01*
X105065197Y-105285494D01*
X105065190Y-105285493D01*
X104962486Y-105275000D01*
X104825000Y-105275000D01*
X104825000Y-106250000D01*
X104325000Y-106250000D01*
X104325000Y-105275000D01*
X104187527Y-105275000D01*
X104187512Y-105275001D01*
X104084802Y-105285494D01*
X103918380Y-105340641D01*
X103918375Y-105340643D01*
X103769154Y-105432684D01*
X103645183Y-105556655D01*
X103645179Y-105556660D01*
X103643326Y-105559665D01*
X103641518Y-105561290D01*
X103640702Y-105562323D01*
X103640525Y-105562183D01*
X103591374Y-105606385D01*
X103522411Y-105617601D01*
X103458331Y-105589752D01*
X103432253Y-105559653D01*
X103432237Y-105559628D01*
X103430212Y-105556344D01*
X103306156Y-105432288D01*
X103156834Y-105340186D01*
X102990297Y-105285001D01*
X102990295Y-105285000D01*
X102887510Y-105274500D01*
X102112498Y-105274500D01*
X102112480Y-105274501D01*
X102009703Y-105285000D01*
X102009700Y-105285001D01*
X101855033Y-105336253D01*
X101785204Y-105338655D01*
X101725163Y-105302923D01*
X101693970Y-105240402D01*
X101701531Y-105170943D01*
X101711031Y-105152583D01*
X101775789Y-105049522D01*
X101835368Y-104879255D01*
X101835369Y-104879249D01*
X101855565Y-104700003D01*
X101855565Y-104699996D01*
X101835369Y-104520750D01*
X101835368Y-104520745D01*
X101817676Y-104470184D01*
X101811457Y-104452413D01*
X101804500Y-104411459D01*
X101804500Y-103500946D01*
X101804501Y-103500925D01*
X101804501Y-103346185D01*
X101775506Y-103200425D01*
X101775504Y-103200419D01*
X101764701Y-103174337D01*
X101764689Y-103174310D01*
X101751946Y-103143545D01*
X101718630Y-103063111D01*
X101673859Y-102996106D01*
X101647984Y-102957381D01*
X101636060Y-102939535D01*
X101636056Y-102939530D01*
X101526647Y-102830121D01*
X101526624Y-102830100D01*
X101072718Y-102376193D01*
X101039233Y-102314870D01*
X101036399Y-102288512D01*
X101036399Y-102280899D01*
X101056084Y-102213860D01*
X101108888Y-102168105D01*
X101160394Y-102156899D01*
X102691672Y-102156899D01*
X102751283Y-102150491D01*
X102886131Y-102100196D01*
X103001346Y-102013946D01*
X103008652Y-102004187D01*
X103064587Y-101962317D01*
X103107917Y-101954500D01*
X106508909Y-101954500D01*
X106575948Y-101974185D01*
X106614447Y-102013402D01*
X106694596Y-102143345D01*
X106694789Y-102143657D01*
X106709181Y-102158049D01*
X106742666Y-102219372D01*
X106745500Y-102245730D01*
X106745500Y-103348509D01*
X106725815Y-103415548D01*
X106686600Y-103454046D01*
X106681343Y-103457288D01*
X106557289Y-103581342D01*
X106465187Y-103730663D01*
X106465185Y-103730668D01*
X106438897Y-103810000D01*
X106410001Y-103897203D01*
X106410001Y-103897204D01*
X106410000Y-103897204D01*
X106399500Y-103999983D01*
X106399500Y-105000001D01*
X106399501Y-105000019D01*
X106410000Y-105102796D01*
X106410001Y-105102799D01*
X106465185Y-105269331D01*
X106465187Y-105269336D01*
X106493608Y-105315413D01*
X106557288Y-105418656D01*
X106681344Y-105542712D01*
X106830666Y-105634814D01*
X106997203Y-105689999D01*
X107099991Y-105700500D01*
X107900008Y-105700499D01*
X107900016Y-105700498D01*
X107900019Y-105700498D01*
X107956302Y-105694748D01*
X108002797Y-105689999D01*
X108169334Y-105634814D01*
X108318656Y-105542712D01*
X108412319Y-105449049D01*
X108473642Y-105415564D01*
X108543334Y-105420548D01*
X108587681Y-105449049D01*
X108681344Y-105542712D01*
X108686591Y-105545948D01*
X108733318Y-105597892D01*
X108745500Y-105651490D01*
X108745500Y-106536112D01*
X108725815Y-106603151D01*
X108709181Y-106623793D01*
X107956357Y-107376616D01*
X107930869Y-107394705D01*
X107931373Y-107395507D01*
X107772737Y-107495184D01*
X107645184Y-107622737D01*
X107549211Y-107775476D01*
X107489631Y-107945745D01*
X107489630Y-107945750D01*
X107469435Y-108124996D01*
X107469435Y-108125003D01*
X107489630Y-108304249D01*
X107489631Y-108304254D01*
X107549211Y-108474523D01*
X107631803Y-108605966D01*
X107645184Y-108627262D01*
X107772738Y-108754816D01*
X107925478Y-108850789D01*
X108079878Y-108904816D01*
X108095745Y-108910368D01*
X108095750Y-108910369D01*
X108274996Y-108930565D01*
X108275000Y-108930565D01*
X108275004Y-108930565D01*
X108454249Y-108910369D01*
X108454252Y-108910368D01*
X108454255Y-108910368D01*
X108624522Y-108850789D01*
X108777262Y-108754816D01*
X108904816Y-108627262D01*
X109000789Y-108474522D01*
X109000789Y-108474520D01*
X109004494Y-108468625D01*
X109005299Y-108469131D01*
X109023382Y-108443641D01*
X109980963Y-107486060D01*
X109980966Y-107486059D01*
X110086059Y-107380966D01*
X110143944Y-107294334D01*
X110168630Y-107257389D01*
X110222308Y-107127797D01*
X110225505Y-107120080D01*
X110225507Y-107120071D01*
X110244416Y-107025011D01*
X110244416Y-107025008D01*
X110244421Y-107024986D01*
X110254501Y-106974312D01*
X110254501Y-106825688D01*
X110254501Y-106820578D01*
X110254500Y-106820552D01*
X110254500Y-105651490D01*
X110274185Y-105584451D01*
X110313408Y-105545948D01*
X110318656Y-105542712D01*
X110442712Y-105418656D01*
X110534814Y-105269334D01*
X110589999Y-105102797D01*
X110600500Y-105000009D01*
X110600499Y-103999992D01*
X110589999Y-103897203D01*
X110534814Y-103730666D01*
X110442712Y-103581344D01*
X110318656Y-103457288D01*
X110169334Y-103365186D01*
X110002797Y-103310001D01*
X110002795Y-103310000D01*
X109900010Y-103299500D01*
X109099998Y-103299500D01*
X109099980Y-103299501D01*
X108997203Y-103310000D01*
X108997200Y-103310001D01*
X108830668Y-103365185D01*
X108830663Y-103365187D01*
X108681342Y-103457289D01*
X108587681Y-103550951D01*
X108526358Y-103584436D01*
X108456666Y-103579452D01*
X108412319Y-103550951D01*
X108318656Y-103457288D01*
X108313400Y-103454046D01*
X108266677Y-103402097D01*
X108254500Y-103348509D01*
X108254500Y-102445880D01*
X108274185Y-102378841D01*
X108313402Y-102340342D01*
X108431156Y-102267712D01*
X108555212Y-102143656D01*
X108557252Y-102140347D01*
X108559245Y-102138555D01*
X108559693Y-102137989D01*
X108559789Y-102138065D01*
X108609194Y-102093623D01*
X108678156Y-102082395D01*
X108742240Y-102110234D01*
X108768329Y-102140339D01*
X108770181Y-102143341D01*
X108770183Y-102143344D01*
X108894154Y-102267315D01*
X109043375Y-102359356D01*
X109043380Y-102359358D01*
X109209802Y-102414505D01*
X109209809Y-102414506D01*
X109312519Y-102424999D01*
X109449999Y-102424999D01*
X109950000Y-102424999D01*
X110087472Y-102424999D01*
X110087486Y-102424998D01*
X110190197Y-102414505D01*
X110356619Y-102359358D01*
X110356624Y-102359356D01*
X110505845Y-102267315D01*
X110629815Y-102143345D01*
X110721856Y-101994124D01*
X110721858Y-101994119D01*
X110777005Y-101827697D01*
X110777006Y-101827690D01*
X110787499Y-101724986D01*
X110787500Y-101724973D01*
X110787500Y-101450000D01*
X109950000Y-101450000D01*
X109950000Y-102424999D01*
X109449999Y-102424999D01*
X109450000Y-102424998D01*
X109450000Y-100950000D01*
X109950000Y-100950000D01*
X110787499Y-100950000D01*
X110787499Y-100675028D01*
X110787498Y-100675013D01*
X110777005Y-100572302D01*
X110721858Y-100405880D01*
X110721856Y-100405875D01*
X110629815Y-100256654D01*
X110505845Y-100132684D01*
X110356624Y-100040643D01*
X110356619Y-100040641D01*
X110190197Y-99985494D01*
X110190190Y-99985493D01*
X110087486Y-99975000D01*
X109950000Y-99975000D01*
X109950000Y-100950000D01*
X109450000Y-100950000D01*
X109450000Y-99975000D01*
X109312527Y-99975000D01*
X109312512Y-99975001D01*
X109209802Y-99985494D01*
X109043380Y-100040641D01*
X109043375Y-100040643D01*
X108894154Y-100132684D01*
X108770183Y-100256655D01*
X108770179Y-100256660D01*
X108768326Y-100259665D01*
X108766518Y-100261290D01*
X108765702Y-100262323D01*
X108765525Y-100262183D01*
X108716374Y-100306385D01*
X108647411Y-100317601D01*
X108583331Y-100289752D01*
X108557253Y-100259653D01*
X108557237Y-100259628D01*
X108555212Y-100256344D01*
X108431156Y-100132288D01*
X108431154Y-100132286D01*
X108426584Y-100128672D01*
X108386210Y-100071648D01*
X108379500Y-100031410D01*
X108379500Y-99338886D01*
X108399185Y-99271847D01*
X108415819Y-99251205D01*
X109776205Y-97890819D01*
X109837528Y-97857334D01*
X109863886Y-97854500D01*
X117249714Y-97854500D01*
X117316753Y-97874185D01*
G37*
%TD.AperFunction*%
%TA.AperFunction,Conductor*%
G36*
X110039081Y-90400610D02*
G01*
X110048514Y-90406056D01*
X110048517Y-90406059D01*
X110048518Y-90406059D01*
X110082298Y-90425562D01*
X110082299Y-90425562D01*
X110082304Y-90425565D01*
X110225747Y-90464000D01*
X110225748Y-90464000D01*
X110815022Y-90464000D01*
X110882061Y-90483685D01*
X110902703Y-90500319D01*
X115544346Y-95141962D01*
X115544356Y-95141973D01*
X115548686Y-95146303D01*
X115548687Y-95146304D01*
X115653696Y-95251313D01*
X115653698Y-95251314D01*
X115653699Y-95251315D01*
X115694462Y-95274849D01*
X115735229Y-95298386D01*
X115782303Y-95325565D01*
X115925747Y-95364000D01*
X115925748Y-95364000D01*
X115925749Y-95364000D01*
X131174250Y-95364000D01*
X131174252Y-95364000D01*
X131317695Y-95325565D01*
X131327673Y-95319804D01*
X131446303Y-95251313D01*
X131551312Y-95146304D01*
X131551312Y-95146302D01*
X131561516Y-95136099D01*
X131561519Y-95136094D01*
X133624321Y-93073293D01*
X133685642Y-93039810D01*
X133755334Y-93044794D01*
X133811267Y-93086666D01*
X133835684Y-93152130D01*
X133836000Y-93160976D01*
X133836000Y-97015023D01*
X133816315Y-97082062D01*
X133799681Y-97102704D01*
X131548804Y-99353581D01*
X131487481Y-99387066D01*
X131461123Y-99389900D01*
X131121964Y-99389900D01*
X131054925Y-99370215D01*
X131009170Y-99317411D01*
X130999226Y-99248253D01*
X131005782Y-99222567D01*
X131020350Y-99183507D01*
X131023492Y-99175084D01*
X131029901Y-99115474D01*
X131029900Y-97800529D01*
X131023492Y-97740918D01*
X131021622Y-97735905D01*
X130973198Y-97606072D01*
X130973194Y-97606065D01*
X130886948Y-97490856D01*
X130886945Y-97490853D01*
X130771736Y-97404607D01*
X130771729Y-97404603D01*
X130636887Y-97354311D01*
X130636886Y-97354310D01*
X130636884Y-97354310D01*
X130577274Y-97347901D01*
X130577264Y-97347901D01*
X129922730Y-97347901D01*
X129922724Y-97347902D01*
X129863117Y-97354309D01*
X129728272Y-97404603D01*
X129728265Y-97404607D01*
X129613056Y-97490853D01*
X129613053Y-97490856D01*
X129526807Y-97606065D01*
X129526803Y-97606072D01*
X129520552Y-97622834D01*
X129478681Y-97678768D01*
X129413217Y-97703185D01*
X129404370Y-97703501D01*
X128721887Y-97703501D01*
X128654848Y-97683816D01*
X128634206Y-97667182D01*
X128136818Y-97169793D01*
X128103333Y-97108470D01*
X128100499Y-97082112D01*
X128100499Y-96599998D01*
X128100498Y-96599981D01*
X128089999Y-96497203D01*
X128089998Y-96497200D01*
X128068184Y-96431371D01*
X128034814Y-96330666D01*
X127942712Y-96181344D01*
X127818656Y-96057288D01*
X127669334Y-95965186D01*
X127502797Y-95910001D01*
X127502795Y-95910000D01*
X127400010Y-95899500D01*
X126599998Y-95899500D01*
X126599980Y-95899501D01*
X126497203Y-95910000D01*
X126497200Y-95910001D01*
X126330668Y-95965185D01*
X126330663Y-95965187D01*
X126181342Y-96057289D01*
X126087681Y-96150951D01*
X126026358Y-96184436D01*
X125956666Y-96179452D01*
X125912319Y-96150951D01*
X125818657Y-96057289D01*
X125818656Y-96057288D01*
X125669334Y-95965186D01*
X125502797Y-95910001D01*
X125502795Y-95910000D01*
X125400010Y-95899500D01*
X124599998Y-95899500D01*
X124599980Y-95899501D01*
X124497203Y-95910000D01*
X124497200Y-95910001D01*
X124330668Y-95965185D01*
X124330663Y-95965187D01*
X124181342Y-96057289D01*
X124057289Y-96181342D01*
X123992368Y-96286597D01*
X123940420Y-96333321D01*
X123886829Y-96345500D01*
X109425683Y-96345500D01*
X109279927Y-96374493D01*
X109279919Y-96374495D01*
X109142608Y-96431371D01*
X109019035Y-96513939D01*
X109019034Y-96513940D01*
X108966488Y-96566487D01*
X108913941Y-96619034D01*
X108913939Y-96619036D01*
X107038943Y-98494030D01*
X107038942Y-98494031D01*
X106956372Y-98617607D01*
X106956368Y-98617614D01*
X106943161Y-98649501D01*
X106899496Y-98754916D01*
X106899495Y-98754921D01*
X106895639Y-98774309D01*
X106895638Y-98774313D01*
X106870499Y-98900686D01*
X106870499Y-99055425D01*
X106870500Y-99055446D01*
X106870500Y-100031410D01*
X106850815Y-100098449D01*
X106823416Y-100128672D01*
X106818845Y-100132286D01*
X106694789Y-100256342D01*
X106614448Y-100386597D01*
X106562500Y-100433321D01*
X106508909Y-100445500D01*
X104384463Y-100445500D01*
X104317424Y-100425815D01*
X104271669Y-100373011D01*
X104261725Y-100303853D01*
X104267421Y-100280546D01*
X104285367Y-100229257D01*
X104285368Y-100229255D01*
X104288919Y-100197738D01*
X104305565Y-100050003D01*
X104305565Y-100049996D01*
X104285369Y-99870750D01*
X104285368Y-99870745D01*
X104268701Y-99823113D01*
X104225789Y-99700478D01*
X104225787Y-99700475D01*
X104225787Y-99700474D01*
X104210086Y-99675485D01*
X104191086Y-99608249D01*
X104211454Y-99541414D01*
X104264722Y-99496200D01*
X104328964Y-99486294D01*
X104499997Y-99505565D01*
X104500000Y-99505565D01*
X104500004Y-99505565D01*
X104679249Y-99485369D01*
X104679252Y-99485368D01*
X104679255Y-99485368D01*
X104849522Y-99425789D01*
X105002262Y-99329816D01*
X105129816Y-99202262D01*
X105225789Y-99049522D01*
X105285368Y-98879255D01*
X105285369Y-98879249D01*
X105305565Y-98700003D01*
X105305565Y-98699996D01*
X105285369Y-98520750D01*
X105285368Y-98520745D01*
X105225788Y-98350476D01*
X105166254Y-98255729D01*
X105129816Y-98197738D01*
X105002262Y-98070184D01*
X104985582Y-98059703D01*
X104849523Y-97974211D01*
X104679252Y-97914631D01*
X104632420Y-97909354D01*
X104568007Y-97882287D01*
X104528452Y-97824692D01*
X104526315Y-97754855D01*
X104558623Y-97698454D01*
X104604816Y-97652262D01*
X104700789Y-97499522D01*
X104760368Y-97329255D01*
X104760369Y-97329249D01*
X104780565Y-97150003D01*
X104780565Y-97149996D01*
X104760369Y-96970750D01*
X104760368Y-96970745D01*
X104734772Y-96897597D01*
X104700789Y-96800478D01*
X104680429Y-96768076D01*
X104627527Y-96683882D01*
X104604816Y-96647738D01*
X104604815Y-96647737D01*
X104600475Y-96642295D01*
X104602548Y-96640641D01*
X104574871Y-96589955D01*
X104579855Y-96520263D01*
X104591041Y-96497629D01*
X104613630Y-96461681D01*
X104673209Y-96291414D01*
X104675146Y-96274223D01*
X104693406Y-96112162D01*
X104693406Y-96112155D01*
X104673209Y-95932903D01*
X104672796Y-95931091D01*
X104672869Y-95929887D01*
X104672430Y-95925984D01*
X104673113Y-95925906D01*
X104677070Y-95861352D01*
X104718369Y-95804995D01*
X104783582Y-95779912D01*
X104793687Y-95779500D01*
X105036460Y-95779500D01*
X105077415Y-95786459D01*
X105145737Y-95810366D01*
X105145743Y-95810367D01*
X105145745Y-95810368D01*
X105145746Y-95810368D01*
X105145750Y-95810369D01*
X105324996Y-95830565D01*
X105325000Y-95830565D01*
X105325004Y-95830565D01*
X105504249Y-95810369D01*
X105504252Y-95810368D01*
X105504255Y-95810368D01*
X105674522Y-95750789D01*
X105827262Y-95654816D01*
X105954816Y-95527262D01*
X106050789Y-95374522D01*
X106110368Y-95204255D01*
X106110369Y-95204249D01*
X106130565Y-95025003D01*
X106130565Y-95024996D01*
X106110369Y-94845750D01*
X106110368Y-94845745D01*
X106080206Y-94759546D01*
X106050789Y-94675478D01*
X106042125Y-94661690D01*
X105969957Y-94546835D01*
X105954816Y-94522738D01*
X105827262Y-94395184D01*
X105759129Y-94352373D01*
X105674523Y-94299211D01*
X105504254Y-94239631D01*
X105504249Y-94239630D01*
X105325004Y-94219435D01*
X105324996Y-94219435D01*
X105145750Y-94239630D01*
X105145737Y-94239633D01*
X105077415Y-94263541D01*
X105036460Y-94270500D01*
X104514175Y-94270500D01*
X104447136Y-94250815D01*
X104401381Y-94198011D01*
X104391437Y-94128853D01*
X104409181Y-94080528D01*
X104475788Y-93974523D01*
X104475789Y-93974522D01*
X104535368Y-93804255D01*
X104535369Y-93804249D01*
X104555565Y-93625003D01*
X104555565Y-93624996D01*
X104535369Y-93445750D01*
X104535367Y-93445742D01*
X104477181Y-93279454D01*
X104473620Y-93209676D01*
X104508349Y-93149048D01*
X104570342Y-93116821D01*
X104594223Y-93114500D01*
X109059554Y-93114500D01*
X109059574Y-93114501D01*
X109065688Y-93114501D01*
X109214314Y-93114501D01*
X109335894Y-93090315D01*
X109335894Y-93090316D01*
X109335900Y-93090313D01*
X109360080Y-93085505D01*
X109426594Y-93057954D01*
X109497389Y-93028630D01*
X109620966Y-92946059D01*
X109718639Y-92848384D01*
X109744131Y-92830299D01*
X109743625Y-92829494D01*
X109749520Y-92825789D01*
X109749522Y-92825789D01*
X109902262Y-92729816D01*
X110029816Y-92602262D01*
X110125789Y-92449522D01*
X110185368Y-92279255D01*
X110185848Y-92274998D01*
X110205565Y-92100003D01*
X110205565Y-92099996D01*
X110185369Y-91920750D01*
X110185368Y-91920745D01*
X110180914Y-91908017D01*
X110125789Y-91750478D01*
X110123497Y-91746831D01*
X110084633Y-91684978D01*
X110029816Y-91597738D01*
X109902262Y-91470184D01*
X109902260Y-91470182D01*
X109853022Y-91439244D01*
X109806732Y-91386910D01*
X109796084Y-91317856D01*
X109814001Y-91268282D01*
X109825789Y-91249522D01*
X109885368Y-91079255D01*
X109885697Y-91076335D01*
X109905565Y-90900003D01*
X109905565Y-90899996D01*
X109885369Y-90720750D01*
X109885368Y-90720745D01*
X109855619Y-90635727D01*
X109825789Y-90550478D01*
X109825788Y-90550477D01*
X109825256Y-90548955D01*
X109821695Y-90479176D01*
X109856424Y-90418548D01*
X109918417Y-90386321D01*
X109942298Y-90384000D01*
X109977087Y-90384000D01*
X110039081Y-90400610D01*
G37*
%TD.AperFunction*%
%TA.AperFunction,Conductor*%
G36*
X138620076Y-91544638D02*
G01*
X138692338Y-91564001D01*
X138692341Y-91564001D01*
X138848439Y-91564001D01*
X138848455Y-91564000D01*
X139012000Y-91564000D01*
X139079039Y-91583685D01*
X139124794Y-91636489D01*
X139136000Y-91688000D01*
X139136000Y-98115020D01*
X139116315Y-98182059D01*
X139099681Y-98202701D01*
X138954899Y-98347483D01*
X138893576Y-98380968D01*
X138823884Y-98375984D01*
X138767951Y-98334112D01*
X138743534Y-98268648D01*
X138743727Y-98248579D01*
X138750000Y-98179554D01*
X138750000Y-98050000D01*
X138150000Y-98050000D01*
X138150000Y-98798140D01*
X138198581Y-98793728D01*
X138267127Y-98807266D01*
X138317471Y-98855714D01*
X138333631Y-98923689D01*
X138310475Y-98989610D01*
X138297481Y-99004900D01*
X138087680Y-99214702D01*
X138026357Y-99248187D01*
X137956666Y-99243203D01*
X137912318Y-99214702D01*
X137661129Y-98963513D01*
X137627644Y-98902190D01*
X137632628Y-98832498D01*
X137650000Y-98806768D01*
X137650000Y-98050000D01*
X137050001Y-98050000D01*
X137050001Y-98053023D01*
X137030316Y-98120062D01*
X136977512Y-98165817D01*
X136908354Y-98175761D01*
X136844798Y-98146736D01*
X136838320Y-98140704D01*
X136786819Y-98089203D01*
X136753334Y-98027880D01*
X136750500Y-98001522D01*
X136750500Y-97784313D01*
X136750499Y-97784298D01*
X136750146Y-97779816D01*
X136747598Y-97747431D01*
X136745705Y-97740917D01*
X136701745Y-97589606D01*
X136701744Y-97589603D01*
X136701744Y-97589602D01*
X136618081Y-97448135D01*
X136618079Y-97448133D01*
X136618076Y-97448129D01*
X136501870Y-97331923D01*
X136501862Y-97331917D01*
X136360396Y-97248255D01*
X136360393Y-97248254D01*
X136202573Y-97202402D01*
X136202567Y-97202401D01*
X136165701Y-97199500D01*
X136165694Y-97199500D01*
X135634306Y-97199500D01*
X135634298Y-97199500D01*
X135597432Y-97202401D01*
X135597426Y-97202402D01*
X135439606Y-97248254D01*
X135439603Y-97248255D01*
X135298137Y-97331917D01*
X135298129Y-97331923D01*
X135176402Y-97453651D01*
X135174177Y-97451426D01*
X135129324Y-97483810D01*
X135059557Y-97487592D01*
X134998820Y-97453054D01*
X134966398Y-97391162D01*
X134964001Y-97366898D01*
X134964001Y-97218154D01*
X134964000Y-97218136D01*
X134964000Y-96733100D01*
X134983685Y-96666061D01*
X135036489Y-96620306D01*
X135105647Y-96610362D01*
X135169203Y-96639387D01*
X135176090Y-96646660D01*
X135176402Y-96646349D01*
X135298129Y-96768076D01*
X135298133Y-96768079D01*
X135298135Y-96768081D01*
X135439602Y-96851744D01*
X135481224Y-96863836D01*
X135597426Y-96897597D01*
X135597429Y-96897597D01*
X135597431Y-96897598D01*
X135634306Y-96900500D01*
X135634314Y-96900500D01*
X136165686Y-96900500D01*
X136165694Y-96900500D01*
X136202569Y-96897598D01*
X136202571Y-96897597D01*
X136202573Y-96897597D01*
X136249256Y-96884034D01*
X136360398Y-96851744D01*
X136501865Y-96768081D01*
X136618081Y-96651865D01*
X136701744Y-96510398D01*
X136741228Y-96374495D01*
X136747597Y-96352573D01*
X136747598Y-96352567D01*
X136748154Y-96345500D01*
X136750500Y-96315694D01*
X136750500Y-95884306D01*
X136747598Y-95847431D01*
X136736830Y-95810369D01*
X136704961Y-95700674D01*
X136705160Y-95630805D01*
X136743102Y-95572135D01*
X136783083Y-95549037D01*
X136785678Y-95548129D01*
X136849522Y-95525789D01*
X136966463Y-95452309D01*
X137033699Y-95433309D01*
X137100534Y-95453676D01*
X137145748Y-95506944D01*
X137154987Y-95576200D01*
X137139168Y-95620423D01*
X137098254Y-95689605D01*
X137098254Y-95689606D01*
X137052402Y-95847426D01*
X137052401Y-95847432D01*
X137049500Y-95884298D01*
X137049500Y-96315701D01*
X137052401Y-96352567D01*
X137052402Y-96352573D01*
X137098254Y-96510393D01*
X137098255Y-96510396D01*
X137181917Y-96651862D01*
X137181923Y-96651870D01*
X137300048Y-96769995D01*
X137333533Y-96831318D01*
X137328549Y-96901010D01*
X137300048Y-96945357D01*
X137189747Y-97055657D01*
X137189743Y-97055662D01*
X137104947Y-97195934D01*
X137056179Y-97352437D01*
X137050000Y-97420443D01*
X137050000Y-97550000D01*
X138749999Y-97550000D01*
X138749999Y-97420433D01*
X138743821Y-97352438D01*
X138743818Y-97352427D01*
X138695055Y-97195939D01*
X138695053Y-97195935D01*
X138610256Y-97055662D01*
X138610252Y-97055657D01*
X138499952Y-96945357D01*
X138466467Y-96884034D01*
X138471451Y-96814342D01*
X138499952Y-96769995D01*
X138618076Y-96651870D01*
X138618081Y-96651865D01*
X138701744Y-96510398D01*
X138741228Y-96374495D01*
X138747597Y-96352573D01*
X138747598Y-96352567D01*
X138748154Y-96345500D01*
X138750500Y-96315694D01*
X138750500Y-95884306D01*
X138747598Y-95847431D01*
X138736830Y-95810369D01*
X138701745Y-95689606D01*
X138701744Y-95689603D01*
X138701744Y-95689602D01*
X138618081Y-95548135D01*
X138618079Y-95548133D01*
X138618076Y-95548129D01*
X138500319Y-95430372D01*
X138466834Y-95369049D01*
X138464000Y-95342691D01*
X138464000Y-91664417D01*
X138483685Y-91597378D01*
X138536489Y-91551623D01*
X138605647Y-91541679D01*
X138620076Y-91544638D01*
G37*
%TD.AperFunction*%
%TA.AperFunction,Conductor*%
G36*
X136690537Y-91328187D02*
G01*
X136691842Y-91326111D01*
X136697737Y-91329815D01*
X136697738Y-91329816D01*
X136767442Y-91373614D01*
X136825725Y-91410236D01*
X136850478Y-91425789D01*
X137020745Y-91485368D01*
X137020749Y-91485369D01*
X137121616Y-91496733D01*
X137165841Y-91501716D01*
X137230255Y-91528782D01*
X137239639Y-91537255D01*
X137299681Y-91597297D01*
X137333166Y-91658620D01*
X137336000Y-91684978D01*
X137336000Y-94204560D01*
X137316315Y-94271599D01*
X137263511Y-94317354D01*
X137194353Y-94327298D01*
X137130797Y-94298273D01*
X137124319Y-94292241D01*
X137002262Y-94170184D01*
X136849523Y-94074211D01*
X136679254Y-94014631D01*
X136679249Y-94014630D01*
X136500004Y-93994435D01*
X136499996Y-93994435D01*
X136320750Y-94014630D01*
X136320745Y-94014631D01*
X136150476Y-94074211D01*
X135997737Y-94170184D01*
X135870184Y-94297737D01*
X135774211Y-94450476D01*
X135714631Y-94620745D01*
X135714630Y-94620749D01*
X135698282Y-94765842D01*
X135671215Y-94830256D01*
X135662744Y-94839639D01*
X135553698Y-94948685D01*
X135448688Y-95053694D01*
X135448684Y-95053699D01*
X135395220Y-95146303D01*
X135395220Y-95146304D01*
X135374435Y-95182302D01*
X135355215Y-95254035D01*
X135342294Y-95302262D01*
X135337595Y-95319798D01*
X135337591Y-95319812D01*
X135336000Y-95325747D01*
X135336000Y-95342691D01*
X135316315Y-95409730D01*
X135299681Y-95430372D01*
X135176402Y-95553651D01*
X135174178Y-95551427D01*
X135129305Y-95583817D01*
X135059538Y-95587588D01*
X134998806Y-95553041D01*
X134966394Y-95491145D01*
X134964000Y-95466899D01*
X134964000Y-93113905D01*
X134983685Y-93046866D01*
X135036489Y-93001111D01*
X135071812Y-92990966D01*
X135109472Y-92986009D01*
X135246429Y-92929279D01*
X135364036Y-92839036D01*
X135454279Y-92721429D01*
X135511009Y-92584472D01*
X135525500Y-92474401D01*
X135525499Y-92149498D01*
X135545183Y-92082460D01*
X135597987Y-92036705D01*
X135649499Y-92025499D01*
X135974403Y-92025499D01*
X136084463Y-92011011D01*
X136084467Y-92011009D01*
X136084472Y-92011009D01*
X136221429Y-91954279D01*
X136339036Y-91864036D01*
X136429279Y-91746429D01*
X136486009Y-91609472D01*
X136500500Y-91499401D01*
X136500499Y-91430011D01*
X136520183Y-91362974D01*
X136572986Y-91317218D01*
X136642144Y-91307274D01*
X136690537Y-91328187D01*
G37*
%TD.AperFunction*%
%TA.AperFunction,Conductor*%
G36*
X134182514Y-89109501D02*
G01*
X134182674Y-89108905D01*
X134190524Y-89111008D01*
X134190526Y-89111008D01*
X134190528Y-89111009D01*
X134300599Y-89125500D01*
X134499400Y-89125499D01*
X134540830Y-89120045D01*
X134609866Y-89130811D01*
X134662121Y-89177191D01*
X134681006Y-89244460D01*
X134679954Y-89259169D01*
X134674500Y-89300597D01*
X134674500Y-89499403D01*
X134688989Y-89609468D01*
X134691094Y-89617322D01*
X134687814Y-89618200D01*
X134693581Y-89672073D01*
X134690517Y-89682522D01*
X134691095Y-89682677D01*
X134688990Y-89690529D01*
X134674500Y-89800598D01*
X134674500Y-89999403D01*
X134688989Y-90109468D01*
X134691094Y-90117322D01*
X134687814Y-90118200D01*
X134693581Y-90172073D01*
X134690517Y-90182522D01*
X134691095Y-90182677D01*
X134688990Y-90190529D01*
X134674500Y-90300598D01*
X134674500Y-90499403D01*
X134688989Y-90609468D01*
X134691094Y-90617322D01*
X134688010Y-90618148D01*
X134693849Y-90672737D01*
X134691014Y-90682653D01*
X134691582Y-90682806D01*
X134689478Y-90690658D01*
X134678373Y-90775000D01*
X134706494Y-90775000D01*
X134773533Y-90794685D01*
X134804885Y-90823534D01*
X134805652Y-90824534D01*
X134830833Y-90889708D01*
X134816781Y-90958150D01*
X134805652Y-90975466D01*
X134804885Y-90976466D01*
X134748466Y-91017681D01*
X134706494Y-91025000D01*
X134678373Y-91025000D01*
X134680466Y-91040897D01*
X134669700Y-91109933D01*
X134623320Y-91162188D01*
X134556051Y-91181073D01*
X134541343Y-91180021D01*
X134499403Y-91174500D01*
X134300596Y-91174500D01*
X134190531Y-91188989D01*
X134182678Y-91191094D01*
X134181802Y-91187824D01*
X134127853Y-91193567D01*
X134117477Y-91190518D01*
X134117323Y-91191095D01*
X134109470Y-91188990D01*
X133999401Y-91174500D01*
X133800596Y-91174500D01*
X133690531Y-91188989D01*
X133682678Y-91191094D01*
X133681802Y-91187824D01*
X133627853Y-91193567D01*
X133617477Y-91190518D01*
X133617323Y-91191095D01*
X133609470Y-91188990D01*
X133499401Y-91174500D01*
X133300596Y-91174500D01*
X133190531Y-91188989D01*
X133182678Y-91191094D01*
X133181802Y-91187824D01*
X133127853Y-91193567D01*
X133117477Y-91190518D01*
X133117323Y-91191095D01*
X133109470Y-91188990D01*
X132999401Y-91174500D01*
X132800603Y-91174500D01*
X132759166Y-91179955D01*
X132690131Y-91169187D01*
X132637876Y-91122805D01*
X132618993Y-91055536D01*
X132620043Y-91040847D01*
X132625500Y-90999401D01*
X132625499Y-90800600D01*
X132624720Y-90794685D01*
X132614987Y-90720750D01*
X132611009Y-90690528D01*
X132611008Y-90690525D01*
X132608905Y-90682674D01*
X132612207Y-90681789D01*
X132606392Y-90628075D01*
X132609501Y-90617485D01*
X132608905Y-90617326D01*
X132611008Y-90609475D01*
X132611008Y-90609474D01*
X132611009Y-90609472D01*
X132625500Y-90499401D01*
X132625499Y-90300600D01*
X132624603Y-90293797D01*
X132611009Y-90190529D01*
X132611009Y-90190528D01*
X132611008Y-90190525D01*
X132608905Y-90182674D01*
X132612207Y-90181789D01*
X132606392Y-90128075D01*
X132609501Y-90117485D01*
X132608905Y-90117326D01*
X132611008Y-90109475D01*
X132611008Y-90109474D01*
X132611009Y-90109472D01*
X132625500Y-89999401D01*
X132625499Y-89800600D01*
X132611009Y-89690528D01*
X132611008Y-89690525D01*
X132608905Y-89682674D01*
X132612207Y-89681789D01*
X132606392Y-89628075D01*
X132609501Y-89617485D01*
X132608905Y-89617326D01*
X132611008Y-89609475D01*
X132611008Y-89609474D01*
X132611009Y-89609472D01*
X132625500Y-89499401D01*
X132625499Y-89300600D01*
X132624687Y-89294435D01*
X132620045Y-89259168D01*
X132630811Y-89190133D01*
X132677192Y-89137878D01*
X132744461Y-89118993D01*
X132759155Y-89120043D01*
X132800599Y-89125500D01*
X132999400Y-89125499D01*
X132999401Y-89125499D01*
X133016087Y-89123302D01*
X133109472Y-89111009D01*
X133109475Y-89111007D01*
X133117326Y-89108905D01*
X133118210Y-89112207D01*
X133171925Y-89106392D01*
X133182514Y-89109501D01*
X133182674Y-89108905D01*
X133190524Y-89111008D01*
X133190526Y-89111008D01*
X133190528Y-89111009D01*
X133300599Y-89125500D01*
X133499400Y-89125499D01*
X133499401Y-89125499D01*
X133516087Y-89123302D01*
X133609472Y-89111009D01*
X133609475Y-89111007D01*
X133617326Y-89108905D01*
X133618210Y-89112207D01*
X133671925Y-89106392D01*
X133682514Y-89109501D01*
X133682674Y-89108905D01*
X133690524Y-89111008D01*
X133690526Y-89111008D01*
X133690528Y-89111009D01*
X133800599Y-89125500D01*
X133999400Y-89125499D01*
X133999401Y-89125499D01*
X134016087Y-89123302D01*
X134109472Y-89111009D01*
X134109475Y-89111007D01*
X134117326Y-89108905D01*
X134118210Y-89112207D01*
X134171925Y-89106392D01*
X134182514Y-89109501D01*
G37*
%TD.AperFunction*%
%TA.AperFunction,Conductor*%
G36*
X137022877Y-86978640D02*
G01*
X137053365Y-87000982D01*
X137349681Y-87297297D01*
X137383166Y-87358620D01*
X137386000Y-87384978D01*
X137386000Y-88976635D01*
X137366315Y-89043674D01*
X137313511Y-89089429D01*
X137248119Y-89099856D01*
X137212263Y-89095816D01*
X137200000Y-89094435D01*
X137199999Y-89094435D01*
X137199998Y-89094435D01*
X137199996Y-89094435D01*
X137020750Y-89114630D01*
X137020745Y-89114631D01*
X136850476Y-89174211D01*
X136697737Y-89270184D01*
X136697732Y-89270188D01*
X136697698Y-89270223D01*
X136697670Y-89270237D01*
X136692295Y-89274525D01*
X136691543Y-89273582D01*
X136636372Y-89303702D01*
X136566681Y-89298710D01*
X136510751Y-89256833D01*
X136487087Y-89198718D01*
X136486008Y-89190524D01*
X136483905Y-89182674D01*
X136487207Y-89181789D01*
X136481392Y-89128075D01*
X136484501Y-89117485D01*
X136483905Y-89117326D01*
X136486008Y-89109475D01*
X136486008Y-89109474D01*
X136486009Y-89109472D01*
X136500500Y-88999401D01*
X136500499Y-88835980D01*
X136520183Y-88768941D01*
X136536820Y-88748297D01*
X136539946Y-88745170D01*
X136551313Y-88733804D01*
X136598940Y-88651312D01*
X136625565Y-88605197D01*
X136664000Y-88461753D01*
X136664000Y-88313248D01*
X136664000Y-87382940D01*
X136683685Y-87315901D01*
X136700319Y-87295259D01*
X136711893Y-87283685D01*
X136729816Y-87265762D01*
X136825789Y-87113022D01*
X136848643Y-87047708D01*
X136889362Y-86990934D01*
X136954315Y-86965185D01*
X137022877Y-86978640D01*
G37*
%TD.AperFunction*%
%TD*%
M02*
