G04 #@! TF.GenerationSoftware,KiCad,Pcbnew,8.0.4*
G04 #@! TF.CreationDate,2024-10-22T20:55:05-05:00*
G04 #@! TF.ProjectId,PCB_split,5043425f-7370-46c6-9974-2e6b69636164,rev?*
G04 #@! TF.SameCoordinates,Original*
G04 #@! TF.FileFunction,Copper,L2,Bot*
G04 #@! TF.FilePolarity,Positive*
%FSLAX46Y46*%
G04 Gerber Fmt 4.6, Leading zero omitted, Abs format (unit mm)*
G04 Created by KiCad (PCBNEW 8.0.4) date 2024-10-22 20:55:05*
%MOMM*%
%LPD*%
G01*
G04 APERTURE LIST*
G04 #@! TA.AperFunction,ComponentPad*
%ADD10R,2.600000X2.600000*%
G04 #@! TD*
G04 #@! TA.AperFunction,ComponentPad*
%ADD11C,2.600000*%
G04 #@! TD*
G04 #@! TA.AperFunction,ViaPad*
%ADD12C,0.600000*%
G04 #@! TD*
G04 #@! TA.AperFunction,Conductor*
%ADD13C,0.762000*%
G04 #@! TD*
G04 #@! TA.AperFunction,Conductor*
%ADD14C,0.254000*%
G04 #@! TD*
G04 #@! TA.AperFunction,Conductor*
%ADD15C,1.016000*%
G04 #@! TD*
G04 #@! TA.AperFunction,Conductor*
%ADD16C,0.508000*%
G04 #@! TD*
G04 APERTURE END LIST*
D10*
G04 #@! TO.P,J6,1,Pin_1*
G04 #@! TO.N,+12V*
X144202150Y-63373000D03*
D11*
G04 #@! TO.P,J6,2,Pin_2*
G04 #@! TO.N,GND*
X149282150Y-63373000D03*
G04 #@! TD*
G04 #@! TO.P,J7,2,Pin_2*
G04 #@! TO.N,GND*
X173285150Y-41910000D03*
D10*
G04 #@! TO.P,J7,1,Pin_1*
G04 #@! TO.N,+5V*
X168205150Y-41910000D03*
G04 #@! TD*
G04 #@! TO.P,J4,1,Pin_1*
G04 #@! TO.N,GND*
X121215150Y-63119000D03*
D11*
G04 #@! TO.P,J4,2,Pin_2*
G04 #@! TO.N,Net-(J4-Pin_2)*
X126295150Y-63119000D03*
G04 #@! TD*
D10*
G04 #@! TO.P,J2,1,Pin_1*
G04 #@! TO.N,+12V*
X100768150Y-62611000D03*
D11*
G04 #@! TO.P,J2,2,Pin_2*
G04 #@! TO.N,GND*
X105848150Y-62611000D03*
G04 #@! TD*
G04 #@! TO.P,J5,2,Pin_2*
G04 #@! TO.N,GND*
X149531150Y-42469000D03*
D10*
G04 #@! TO.P,J5,1,Pin_1*
G04 #@! TO.N,/VBAT_READ*
X144451150Y-42469000D03*
G04 #@! TD*
D11*
G04 #@! TO.P,J1,2,Pin_2*
G04 #@! TO.N,GND*
X105335150Y-41961000D03*
D10*
G04 #@! TO.P,J1,1,Pin_1*
G04 #@! TO.N,+5V*
X100255150Y-41961000D03*
G04 #@! TD*
G04 #@! TO.P,J8,1,Pin_1*
G04 #@! TO.N,+3V3*
X168586150Y-62992000D03*
D11*
G04 #@! TO.P,J8,2,Pin_2*
G04 #@! TO.N,GND*
X173666150Y-62992000D03*
G04 #@! TD*
G04 #@! TO.P,J3,2,Pin_2*
G04 #@! TO.N,GND*
X125406150Y-41910000D03*
D10*
G04 #@! TO.P,J3,1,Pin_1*
G04 #@! TO.N,+3V3*
X120326150Y-41910000D03*
G04 #@! TD*
D12*
G04 #@! TO.N,+5V*
X94615000Y-45339000D03*
X94615000Y-74168000D03*
G04 #@! TO.N,GND*
X120269000Y-93853000D03*
X100584000Y-84836000D03*
X159512000Y-53975000D03*
X134874000Y-48260000D03*
X115951000Y-113538000D03*
X155702000Y-99695000D03*
X157099000Y-87376000D03*
X140208000Y-95885000D03*
G04 #@! TO.N,Net-(JP1-A)*
X108712000Y-74676000D03*
X95631000Y-81534000D03*
X152908000Y-102870000D03*
X136398000Y-107696000D03*
G04 #@! TO.N,+12V*
X144272000Y-70104000D03*
X144272000Y-89789000D03*
X168783000Y-80010000D03*
G04 #@! TO.N,/SS*
X183642000Y-112776000D03*
X95504000Y-108966000D03*
G04 #@! TO.N,Net-(JP2-A)*
X149225000Y-106172000D03*
X105537000Y-87376000D03*
X144272000Y-98679000D03*
X95504000Y-115189000D03*
G04 #@! TO.N,Net-(D1-A)*
X166116000Y-82804000D03*
X162560000Y-82804000D03*
X168783000Y-99314000D03*
X168783000Y-95504000D03*
G04 #@! TO.N,+3V3*
X116459000Y-41910000D03*
X127508000Y-78359000D03*
G04 #@! TO.N,/VBAT_READ*
X139827000Y-42545000D03*
X131572000Y-85725000D03*
X149733000Y-94234000D03*
X131572000Y-82296000D03*
G04 #@! TO.N,Net-(F1-Pad2)*
X162052000Y-97536000D03*
X166751000Y-97536000D03*
G04 #@! TO.N,Net-(J4-Pin_2)*
X126238000Y-81407000D03*
X126238000Y-103378000D03*
G04 #@! TO.N,/FB*
X149098000Y-80645000D03*
X179451000Y-108839000D03*
G04 #@! TD*
D13*
G04 #@! TO.N,+5V*
X94615000Y-45339000D02*
X94615000Y-74168000D01*
D14*
G04 #@! TO.N,Net-(JP1-A)*
X107823000Y-107823000D02*
X136271000Y-107823000D01*
X95631000Y-81534000D02*
X107823000Y-81534000D01*
X136271000Y-107823000D02*
X136398000Y-107696000D01*
X152908000Y-107696000D02*
X152908000Y-102870000D01*
X107823000Y-74676000D02*
X108712000Y-74676000D01*
X107823000Y-81534000D02*
X107823000Y-74676000D01*
X107823000Y-81534000D02*
X107823000Y-107823000D01*
X136398000Y-107696000D02*
X152908000Y-107696000D01*
D15*
G04 #@! TO.N,+12V*
X168783000Y-80010000D02*
X163903000Y-80010000D01*
X144272000Y-70104000D02*
X144272000Y-89789000D01*
X163903000Y-80010000D02*
X153997000Y-70104000D01*
X153997000Y-70104000D02*
X144272000Y-70104000D01*
D14*
G04 #@! TO.N,Net-(JP2-A)*
X105410000Y-87503000D02*
X105537000Y-87376000D01*
X149225000Y-98552000D02*
X149225000Y-106172000D01*
X105283000Y-115189000D02*
X105410000Y-115062000D01*
X105410000Y-115062000D02*
X105410000Y-87503000D01*
X95504000Y-115189000D02*
X105283000Y-115189000D01*
X149098000Y-98679000D02*
X149225000Y-98552000D01*
X144272000Y-98679000D02*
X149098000Y-98679000D01*
G04 #@! TO.N,Net-(D1-A)*
X162560000Y-82804000D02*
X166116000Y-82804000D01*
X168783000Y-95504000D02*
X168783000Y-99314000D01*
D16*
G04 #@! TO.N,+3V3*
X127508000Y-78359000D02*
X116459000Y-78359000D01*
D14*
G04 #@! TO.N,/VBAT_READ*
X131699000Y-82169000D02*
X131572000Y-82296000D01*
X139827000Y-82169000D02*
X139827000Y-94361000D01*
X139827000Y-82169000D02*
X131699000Y-82169000D01*
X139827000Y-94361000D02*
X149606000Y-94361000D01*
X139827000Y-82169000D02*
X139827000Y-42545000D01*
X149606000Y-94361000D02*
X149733000Y-94234000D01*
X131572000Y-82296000D02*
X131572000Y-85725000D01*
G04 #@! TO.N,Net-(F1-Pad2)*
X162052000Y-97536000D02*
X166751000Y-97536000D01*
G04 #@! TO.N,Net-(J4-Pin_2)*
X126238000Y-81407000D02*
X126238000Y-103378000D01*
G04 #@! TO.N,/FB*
X159639000Y-112268000D02*
X171831000Y-112268000D01*
X149098000Y-78105000D02*
X149225000Y-77978000D01*
X171831000Y-108839000D02*
X179451000Y-108839000D01*
X171831000Y-112268000D02*
X171831000Y-108839000D01*
X149098000Y-80645000D02*
X149098000Y-78105000D01*
X159639000Y-77978000D02*
X159639000Y-112268000D01*
X149225000Y-77978000D02*
X159639000Y-77978000D01*
D16*
G04 #@! TO.N,+3V3*
X116459000Y-78359000D02*
X116459000Y-41910000D01*
D14*
G04 #@! TO.N,/SS*
X183642000Y-112776000D02*
X183642000Y-120269000D01*
X117475000Y-125222000D02*
X117475000Y-119634000D01*
X175641000Y-125222000D02*
X117475000Y-125222000D01*
X183515000Y-120396000D02*
X175641000Y-120396000D01*
X175641000Y-120396000D02*
X175641000Y-125222000D01*
X183642000Y-120269000D02*
X183515000Y-120396000D01*
X117475000Y-119634000D02*
X92456000Y-119634000D01*
X92456000Y-119634000D02*
X92456000Y-108966000D01*
X92456000Y-108966000D02*
X95504000Y-108966000D01*
G04 #@! TD*
G04 #@! TA.AperFunction,Conductor*
G04 #@! TO.N,GND*
G36*
X184608539Y-34556185D02*
G01*
X184654294Y-34608989D01*
X184665500Y-34660500D01*
X184665500Y-112547473D01*
X184645815Y-112614512D01*
X184593011Y-112660267D01*
X184523853Y-112670211D01*
X184460297Y-112641186D01*
X184424459Y-112588428D01*
X184367790Y-112426480D01*
X184367789Y-112426478D01*
X184271816Y-112273738D01*
X184144262Y-112146184D01*
X183991523Y-112050211D01*
X183821254Y-111990631D01*
X183821249Y-111990630D01*
X183642004Y-111970435D01*
X183641996Y-111970435D01*
X183462750Y-111990630D01*
X183462745Y-111990631D01*
X183292476Y-112050211D01*
X183139737Y-112146184D01*
X183012184Y-112273737D01*
X182916211Y-112426476D01*
X182856631Y-112596745D01*
X182856630Y-112596750D01*
X182836435Y-112775996D01*
X182836435Y-112776003D01*
X182856630Y-112955249D01*
X182856631Y-112955254D01*
X182916211Y-113125524D01*
X182995493Y-113251698D01*
X183014500Y-113317671D01*
X183014500Y-119644500D01*
X182994815Y-119711539D01*
X182942011Y-119757294D01*
X182890500Y-119768500D01*
X175579195Y-119768500D01*
X175457970Y-119792613D01*
X175457960Y-119792616D01*
X175343773Y-119839913D01*
X175343760Y-119839920D01*
X175240992Y-119908588D01*
X175240988Y-119908591D01*
X175153591Y-119995988D01*
X175153588Y-119995992D01*
X175084920Y-120098760D01*
X175084913Y-120098773D01*
X175037616Y-120212960D01*
X175037613Y-120212970D01*
X175013500Y-120334194D01*
X175013500Y-124470500D01*
X174993815Y-124537539D01*
X174941011Y-124583294D01*
X174889500Y-124594500D01*
X118226500Y-124594500D01*
X118159461Y-124574815D01*
X118113706Y-124522011D01*
X118102500Y-124470500D01*
X118102500Y-119572194D01*
X118078386Y-119450970D01*
X118078385Y-119450969D01*
X118078385Y-119450965D01*
X118078383Y-119450960D01*
X118031086Y-119336773D01*
X118031079Y-119336760D01*
X117962411Y-119233992D01*
X117962408Y-119233988D01*
X117875011Y-119146591D01*
X117875007Y-119146588D01*
X117772239Y-119077920D01*
X117772226Y-119077913D01*
X117658039Y-119030616D01*
X117658029Y-119030613D01*
X117536805Y-119006500D01*
X117536803Y-119006500D01*
X93207500Y-119006500D01*
X93140461Y-118986815D01*
X93094706Y-118934011D01*
X93083500Y-118882500D01*
X93083500Y-115188996D01*
X94698435Y-115188996D01*
X94698435Y-115189003D01*
X94718630Y-115368249D01*
X94718631Y-115368254D01*
X94778211Y-115538523D01*
X94809933Y-115589008D01*
X94874184Y-115691262D01*
X95001738Y-115818816D01*
X95154478Y-115914789D01*
X95324745Y-115974368D01*
X95324750Y-115974369D01*
X95503996Y-115994565D01*
X95504000Y-115994565D01*
X95504004Y-115994565D01*
X95683249Y-115974369D01*
X95683252Y-115974368D01*
X95683255Y-115974368D01*
X95853522Y-115914789D01*
X95979700Y-115835505D01*
X96045672Y-115816500D01*
X105344804Y-115816500D01*
X105344805Y-115816499D01*
X105466035Y-115792386D01*
X105546784Y-115758937D01*
X105580233Y-115745083D01*
X105683008Y-115676411D01*
X105770411Y-115589008D01*
X105897411Y-115462008D01*
X105966083Y-115359233D01*
X106013385Y-115245035D01*
X106037500Y-115123803D01*
X106037500Y-88058940D01*
X106057185Y-87991901D01*
X106073819Y-87971259D01*
X106166816Y-87878262D01*
X106262789Y-87725522D01*
X106322368Y-87555255D01*
X106342565Y-87376000D01*
X106322368Y-87196745D01*
X106262789Y-87026478D01*
X106166816Y-86873738D01*
X106039262Y-86746184D01*
X105886523Y-86650211D01*
X105716254Y-86590631D01*
X105716249Y-86590630D01*
X105537004Y-86570435D01*
X105536996Y-86570435D01*
X105357750Y-86590630D01*
X105357745Y-86590631D01*
X105187476Y-86650211D01*
X105034737Y-86746184D01*
X104907184Y-86873737D01*
X104811211Y-87026476D01*
X104751631Y-87196745D01*
X104751630Y-87196750D01*
X104731435Y-87375996D01*
X104731435Y-87376003D01*
X104751630Y-87555246D01*
X104751632Y-87555256D01*
X104775541Y-87623582D01*
X104782500Y-87664537D01*
X104782500Y-114437500D01*
X104762815Y-114504539D01*
X104710011Y-114550294D01*
X104658500Y-114561500D01*
X96045672Y-114561500D01*
X95979700Y-114542494D01*
X95853523Y-114463211D01*
X95683254Y-114403631D01*
X95683249Y-114403630D01*
X95504004Y-114383435D01*
X95503996Y-114383435D01*
X95324750Y-114403630D01*
X95324745Y-114403631D01*
X95154476Y-114463211D01*
X95001737Y-114559184D01*
X94874184Y-114686737D01*
X94778211Y-114839476D01*
X94718631Y-115009745D01*
X94718630Y-115009750D01*
X94698435Y-115188996D01*
X93083500Y-115188996D01*
X93083500Y-109717500D01*
X93103185Y-109650461D01*
X93155989Y-109604706D01*
X93207500Y-109593500D01*
X94962328Y-109593500D01*
X95028300Y-109612506D01*
X95079321Y-109644565D01*
X95154478Y-109691789D01*
X95227956Y-109717500D01*
X95324745Y-109751368D01*
X95324750Y-109751369D01*
X95503996Y-109771565D01*
X95504000Y-109771565D01*
X95504004Y-109771565D01*
X95683249Y-109751369D01*
X95683252Y-109751368D01*
X95683255Y-109751368D01*
X95853522Y-109691789D01*
X96006262Y-109595816D01*
X96133816Y-109468262D01*
X96229789Y-109315522D01*
X96289368Y-109145255D01*
X96289369Y-109145249D01*
X96309565Y-108966003D01*
X96309565Y-108965996D01*
X96289369Y-108786750D01*
X96289368Y-108786745D01*
X96248083Y-108668760D01*
X96229789Y-108616478D01*
X96133816Y-108463738D01*
X96006262Y-108336184D01*
X95853523Y-108240211D01*
X95683254Y-108180631D01*
X95683249Y-108180630D01*
X95504004Y-108160435D01*
X95503996Y-108160435D01*
X95324750Y-108180630D01*
X95324745Y-108180631D01*
X95154476Y-108240211D01*
X95028300Y-108319494D01*
X94962328Y-108338500D01*
X92394195Y-108338500D01*
X92272970Y-108362613D01*
X92272960Y-108362616D01*
X92158773Y-108409913D01*
X92158760Y-108409920D01*
X92055992Y-108478588D01*
X92055988Y-108478591D01*
X91968591Y-108565988D01*
X91968588Y-108565992D01*
X91899920Y-108668760D01*
X91899913Y-108668773D01*
X91852616Y-108782960D01*
X91852613Y-108782970D01*
X91828500Y-108904194D01*
X91828500Y-108904197D01*
X91828500Y-119695803D01*
X91828500Y-119695805D01*
X91828499Y-119695805D01*
X91852613Y-119817029D01*
X91852616Y-119817039D01*
X91899913Y-119931226D01*
X91899920Y-119931239D01*
X91968588Y-120034007D01*
X91968591Y-120034011D01*
X92055988Y-120121408D01*
X92055992Y-120121411D01*
X92158760Y-120190079D01*
X92158773Y-120190086D01*
X92272960Y-120237383D01*
X92272965Y-120237385D01*
X92272969Y-120237385D01*
X92272970Y-120237386D01*
X92394194Y-120261500D01*
X92394197Y-120261500D01*
X92517803Y-120261500D01*
X116723500Y-120261500D01*
X116790539Y-120281185D01*
X116836294Y-120333989D01*
X116847500Y-120385500D01*
X116847500Y-125160197D01*
X116847500Y-125283803D01*
X116847500Y-125283805D01*
X116847499Y-125283805D01*
X116871613Y-125405029D01*
X116871616Y-125405039D01*
X116918913Y-125519226D01*
X116918920Y-125519239D01*
X116987588Y-125622007D01*
X116987591Y-125622011D01*
X117074988Y-125709408D01*
X117074992Y-125709411D01*
X117177760Y-125778079D01*
X117177773Y-125778086D01*
X117291960Y-125825383D01*
X117291965Y-125825385D01*
X117291969Y-125825385D01*
X117291970Y-125825386D01*
X117413194Y-125849500D01*
X117413197Y-125849500D01*
X175702805Y-125849500D01*
X175784361Y-125833276D01*
X175824035Y-125825385D01*
X175938233Y-125778083D01*
X176041008Y-125709411D01*
X176128411Y-125622008D01*
X176197083Y-125519233D01*
X176244385Y-125405035D01*
X176268500Y-125283803D01*
X176268500Y-124719711D01*
X179251500Y-124719711D01*
X179251500Y-124962288D01*
X179283161Y-125202785D01*
X179345947Y-125437104D01*
X179379969Y-125519239D01*
X179438776Y-125661212D01*
X179560064Y-125871289D01*
X179560066Y-125871292D01*
X179560067Y-125871293D01*
X179707733Y-126063736D01*
X179707739Y-126063743D01*
X179879256Y-126235260D01*
X179879262Y-126235265D01*
X180071711Y-126382936D01*
X180281788Y-126504224D01*
X180505900Y-126597054D01*
X180740211Y-126659838D01*
X180920586Y-126683584D01*
X180980711Y-126691500D01*
X180980712Y-126691500D01*
X181223289Y-126691500D01*
X181271388Y-126685167D01*
X181463789Y-126659838D01*
X181698100Y-126597054D01*
X181922212Y-126504224D01*
X182132289Y-126382936D01*
X182324738Y-126235265D01*
X182496265Y-126063738D01*
X182643936Y-125871289D01*
X182765224Y-125661212D01*
X182858054Y-125437100D01*
X182920838Y-125202789D01*
X182952500Y-124962288D01*
X182952500Y-124719712D01*
X182920838Y-124479211D01*
X182858054Y-124244900D01*
X182765224Y-124020788D01*
X182643936Y-123810711D01*
X182496265Y-123618262D01*
X182496260Y-123618256D01*
X182324743Y-123446739D01*
X182324736Y-123446733D01*
X182132293Y-123299067D01*
X182132292Y-123299066D01*
X182132289Y-123299064D01*
X181922212Y-123177776D01*
X181922205Y-123177773D01*
X181698104Y-123084947D01*
X181463785Y-123022161D01*
X181223289Y-122990500D01*
X181223288Y-122990500D01*
X180980712Y-122990500D01*
X180980711Y-122990500D01*
X180740214Y-123022161D01*
X180505895Y-123084947D01*
X180281794Y-123177773D01*
X180281785Y-123177777D01*
X180071706Y-123299067D01*
X179879263Y-123446733D01*
X179879256Y-123446739D01*
X179707739Y-123618256D01*
X179707733Y-123618263D01*
X179560067Y-123810706D01*
X179438777Y-124020785D01*
X179438773Y-124020794D01*
X179345947Y-124244895D01*
X179283161Y-124479214D01*
X179251500Y-124719711D01*
X176268500Y-124719711D01*
X176268500Y-121147500D01*
X176288185Y-121080461D01*
X176340989Y-121034706D01*
X176392500Y-121023500D01*
X183576804Y-121023500D01*
X183576805Y-121023499D01*
X183698035Y-120999386D01*
X183778784Y-120965937D01*
X183812233Y-120952083D01*
X183915008Y-120883411D01*
X184002411Y-120796008D01*
X184129411Y-120669008D01*
X184198083Y-120566233D01*
X184245385Y-120452035D01*
X184268825Y-120334197D01*
X184269500Y-120330805D01*
X184269500Y-113317671D01*
X184288507Y-113251698D01*
X184367788Y-113125524D01*
X184424458Y-112963571D01*
X184465180Y-112906795D01*
X184530133Y-112881048D01*
X184598694Y-112894504D01*
X184649097Y-112942891D01*
X184665500Y-113004526D01*
X184665500Y-128661500D01*
X184645815Y-128728539D01*
X184593011Y-128774294D01*
X184541500Y-128785500D01*
X89651500Y-128785500D01*
X89584461Y-128765815D01*
X89538706Y-128713011D01*
X89527500Y-128661500D01*
X89527500Y-124719711D01*
X93145500Y-124719711D01*
X93145500Y-124962288D01*
X93177161Y-125202785D01*
X93239947Y-125437104D01*
X93273969Y-125519239D01*
X93332776Y-125661212D01*
X93454064Y-125871289D01*
X93454066Y-125871292D01*
X93454067Y-125871293D01*
X93601733Y-126063736D01*
X93601739Y-126063743D01*
X93773256Y-126235260D01*
X93773262Y-126235265D01*
X93965711Y-126382936D01*
X94175788Y-126504224D01*
X94399900Y-126597054D01*
X94634211Y-126659838D01*
X94814586Y-126683584D01*
X94874711Y-126691500D01*
X94874712Y-126691500D01*
X95117289Y-126691500D01*
X95165388Y-126685167D01*
X95357789Y-126659838D01*
X95592100Y-126597054D01*
X95816212Y-126504224D01*
X96026289Y-126382936D01*
X96218738Y-126235265D01*
X96390265Y-126063738D01*
X96537936Y-125871289D01*
X96659224Y-125661212D01*
X96752054Y-125437100D01*
X96814838Y-125202789D01*
X96846500Y-124962288D01*
X96846500Y-124719712D01*
X96814838Y-124479211D01*
X96752054Y-124244900D01*
X96659224Y-124020788D01*
X96537936Y-123810711D01*
X96390265Y-123618262D01*
X96390260Y-123618256D01*
X96218743Y-123446739D01*
X96218736Y-123446733D01*
X96026293Y-123299067D01*
X96026292Y-123299066D01*
X96026289Y-123299064D01*
X95816212Y-123177776D01*
X95816205Y-123177773D01*
X95592104Y-123084947D01*
X95357785Y-123022161D01*
X95117289Y-122990500D01*
X95117288Y-122990500D01*
X94874712Y-122990500D01*
X94874711Y-122990500D01*
X94634214Y-123022161D01*
X94399895Y-123084947D01*
X94175794Y-123177773D01*
X94175785Y-123177777D01*
X93965706Y-123299067D01*
X93773263Y-123446733D01*
X93773256Y-123446739D01*
X93601739Y-123618256D01*
X93601733Y-123618263D01*
X93454067Y-123810706D01*
X93332777Y-124020785D01*
X93332773Y-124020794D01*
X93239947Y-124244895D01*
X93177161Y-124479214D01*
X93145500Y-124719711D01*
X89527500Y-124719711D01*
X89527500Y-81533996D01*
X94825435Y-81533996D01*
X94825435Y-81534003D01*
X94845630Y-81713249D01*
X94845631Y-81713254D01*
X94905211Y-81883523D01*
X94944769Y-81946478D01*
X95001184Y-82036262D01*
X95128738Y-82163816D01*
X95155300Y-82180506D01*
X95240417Y-82233989D01*
X95281478Y-82259789D01*
X95451745Y-82319368D01*
X95451750Y-82319369D01*
X95630996Y-82339565D01*
X95631000Y-82339565D01*
X95631004Y-82339565D01*
X95810249Y-82319369D01*
X95810252Y-82319368D01*
X95810255Y-82319368D01*
X95980522Y-82259789D01*
X96106700Y-82180505D01*
X96172672Y-82161500D01*
X107071500Y-82161500D01*
X107138539Y-82181185D01*
X107184294Y-82233989D01*
X107195500Y-82285500D01*
X107195500Y-107884803D01*
X107195500Y-107884805D01*
X107195499Y-107884805D01*
X107219613Y-108006029D01*
X107219616Y-108006039D01*
X107266913Y-108120226D01*
X107266920Y-108120239D01*
X107335588Y-108223007D01*
X107335591Y-108223011D01*
X107422988Y-108310408D01*
X107422992Y-108310411D01*
X107525760Y-108379079D01*
X107525773Y-108379086D01*
X107628867Y-108421788D01*
X107639965Y-108426385D01*
X107639969Y-108426385D01*
X107639970Y-108426386D01*
X107761194Y-108450500D01*
X107761197Y-108450500D01*
X107884803Y-108450500D01*
X136109460Y-108450500D01*
X136150415Y-108457459D01*
X136218737Y-108481366D01*
X136218743Y-108481367D01*
X136218745Y-108481368D01*
X136218746Y-108481368D01*
X136218750Y-108481369D01*
X136397996Y-108501565D01*
X136398000Y-108501565D01*
X136398004Y-108501565D01*
X136577249Y-108481369D01*
X136577252Y-108481368D01*
X136577255Y-108481368D01*
X136747522Y-108421789D01*
X136873700Y-108342505D01*
X136939672Y-108323500D01*
X152969805Y-108323500D01*
X153051361Y-108307276D01*
X153091035Y-108299385D01*
X153205233Y-108252083D01*
X153308008Y-108183411D01*
X153395411Y-108096008D01*
X153464083Y-107993233D01*
X153511385Y-107879035D01*
X153535500Y-107757803D01*
X153535500Y-103411671D01*
X153554507Y-103345698D01*
X153633788Y-103219524D01*
X153693368Y-103049254D01*
X153693369Y-103049249D01*
X153713565Y-102870003D01*
X153713565Y-102869996D01*
X153693369Y-102690750D01*
X153693368Y-102690745D01*
X153633788Y-102520476D01*
X153537815Y-102367737D01*
X153410262Y-102240184D01*
X153257523Y-102144211D01*
X153087254Y-102084631D01*
X153087249Y-102084630D01*
X152908004Y-102064435D01*
X152907996Y-102064435D01*
X152728750Y-102084630D01*
X152728745Y-102084631D01*
X152558476Y-102144211D01*
X152405737Y-102240184D01*
X152278184Y-102367737D01*
X152182211Y-102520476D01*
X152122631Y-102690745D01*
X152122630Y-102690750D01*
X152102435Y-102869996D01*
X152102435Y-102870003D01*
X152122630Y-103049249D01*
X152122631Y-103049254D01*
X152182211Y-103219524D01*
X152261493Y-103345698D01*
X152280500Y-103411671D01*
X152280500Y-106944500D01*
X152260815Y-107011539D01*
X152208011Y-107057294D01*
X152156500Y-107068500D01*
X149733251Y-107068500D01*
X149666212Y-107048815D01*
X149620457Y-106996011D01*
X149610513Y-106926853D01*
X149639538Y-106863297D01*
X149667278Y-106839507D01*
X149727260Y-106801817D01*
X149727259Y-106801817D01*
X149727262Y-106801816D01*
X149854816Y-106674262D01*
X149950789Y-106521522D01*
X150010368Y-106351255D01*
X150030565Y-106172000D01*
X150010368Y-105992745D01*
X149950789Y-105822478D01*
X149871505Y-105696299D01*
X149852500Y-105630328D01*
X149852500Y-98490194D01*
X149828386Y-98368970D01*
X149828385Y-98368969D01*
X149828385Y-98368965D01*
X149783992Y-98261789D01*
X149781086Y-98254773D01*
X149781079Y-98254760D01*
X149712411Y-98151992D01*
X149712408Y-98151988D01*
X149625011Y-98064591D01*
X149625007Y-98064588D01*
X149522239Y-97995920D01*
X149522226Y-97995913D01*
X149408039Y-97948616D01*
X149408029Y-97948613D01*
X149286805Y-97924500D01*
X149286803Y-97924500D01*
X149163197Y-97924500D01*
X149163195Y-97924500D01*
X149041970Y-97948613D01*
X149041960Y-97948616D01*
X148927774Y-97995913D01*
X148927763Y-97995919D01*
X148875855Y-98030603D01*
X148809177Y-98051480D01*
X148806965Y-98051500D01*
X144813672Y-98051500D01*
X144747700Y-98032494D01*
X144621523Y-97953211D01*
X144451254Y-97893631D01*
X144451249Y-97893630D01*
X144272004Y-97873435D01*
X144271996Y-97873435D01*
X144092750Y-97893630D01*
X144092745Y-97893631D01*
X143922476Y-97953211D01*
X143769737Y-98049184D01*
X143642184Y-98176737D01*
X143546211Y-98329476D01*
X143486631Y-98499745D01*
X143486630Y-98499750D01*
X143466435Y-98678996D01*
X143466435Y-98679003D01*
X143486630Y-98858249D01*
X143486631Y-98858254D01*
X143546211Y-99028523D01*
X143642184Y-99181262D01*
X143769738Y-99308816D01*
X143796300Y-99325506D01*
X143881417Y-99378989D01*
X143922478Y-99404789D01*
X143995956Y-99430500D01*
X144092745Y-99464368D01*
X144092750Y-99464369D01*
X144271996Y-99484565D01*
X144272000Y-99484565D01*
X144272004Y-99484565D01*
X144451249Y-99464369D01*
X144451252Y-99464368D01*
X144451255Y-99464368D01*
X144621522Y-99404789D01*
X144747700Y-99325505D01*
X144813672Y-99306500D01*
X148473500Y-99306500D01*
X148540539Y-99326185D01*
X148586294Y-99378989D01*
X148597500Y-99430500D01*
X148597500Y-105630328D01*
X148578494Y-105696300D01*
X148499211Y-105822476D01*
X148439631Y-105992745D01*
X148439630Y-105992750D01*
X148419435Y-106171996D01*
X148419435Y-106172003D01*
X148439630Y-106351249D01*
X148439631Y-106351254D01*
X148499211Y-106521523D01*
X148595184Y-106674262D01*
X148722739Y-106801817D01*
X148782722Y-106839507D01*
X148829012Y-106891841D01*
X148839660Y-106960895D01*
X148811285Y-107024743D01*
X148752895Y-107063115D01*
X148716749Y-107068500D01*
X136939672Y-107068500D01*
X136873700Y-107049494D01*
X136747523Y-106970211D01*
X136577254Y-106910631D01*
X136577249Y-106910630D01*
X136398004Y-106890435D01*
X136397996Y-106890435D01*
X136218750Y-106910630D01*
X136218745Y-106910631D01*
X136048476Y-106970211D01*
X135895739Y-107066183D01*
X135802740Y-107159182D01*
X135741416Y-107192666D01*
X135715059Y-107195500D01*
X108574500Y-107195500D01*
X108507461Y-107175815D01*
X108461706Y-107123011D01*
X108450500Y-107071500D01*
X108450500Y-81406996D01*
X125432435Y-81406996D01*
X125432435Y-81407003D01*
X125452630Y-81586249D01*
X125452631Y-81586254D01*
X125512211Y-81756524D01*
X125591493Y-81882698D01*
X125610500Y-81948671D01*
X125610500Y-102836328D01*
X125591494Y-102902300D01*
X125512211Y-103028476D01*
X125452631Y-103198745D01*
X125452630Y-103198750D01*
X125432435Y-103377996D01*
X125432435Y-103378003D01*
X125452630Y-103557249D01*
X125452631Y-103557254D01*
X125512211Y-103727523D01*
X125608184Y-103880262D01*
X125735738Y-104007816D01*
X125888478Y-104103789D01*
X126058745Y-104163368D01*
X126058750Y-104163369D01*
X126237996Y-104183565D01*
X126238000Y-104183565D01*
X126238004Y-104183565D01*
X126417249Y-104163369D01*
X126417252Y-104163368D01*
X126417255Y-104163368D01*
X126587522Y-104103789D01*
X126740262Y-104007816D01*
X126867816Y-103880262D01*
X126963789Y-103727522D01*
X127023368Y-103557255D01*
X127023369Y-103557249D01*
X127043565Y-103378003D01*
X127043565Y-103377996D01*
X127023369Y-103198750D01*
X127023368Y-103198745D01*
X126963788Y-103028476D01*
X126884506Y-102902300D01*
X126865500Y-102836328D01*
X126865500Y-82295996D01*
X130766435Y-82295996D01*
X130766435Y-82296003D01*
X130786630Y-82475249D01*
X130786631Y-82475254D01*
X130846211Y-82645524D01*
X130925493Y-82771698D01*
X130944500Y-82837671D01*
X130944500Y-85183328D01*
X130925494Y-85249300D01*
X130846211Y-85375476D01*
X130786631Y-85545745D01*
X130786630Y-85545750D01*
X130766435Y-85724996D01*
X130766435Y-85725003D01*
X130786630Y-85904249D01*
X130786631Y-85904254D01*
X130846211Y-86074523D01*
X130942184Y-86227262D01*
X131069738Y-86354816D01*
X131222478Y-86450789D01*
X131392745Y-86510368D01*
X131392750Y-86510369D01*
X131571996Y-86530565D01*
X131572000Y-86530565D01*
X131572004Y-86530565D01*
X131751249Y-86510369D01*
X131751252Y-86510368D01*
X131751255Y-86510368D01*
X131921522Y-86450789D01*
X132074262Y-86354816D01*
X132201816Y-86227262D01*
X132297789Y-86074522D01*
X132357368Y-85904255D01*
X132377565Y-85725000D01*
X132357368Y-85545745D01*
X132297789Y-85375478D01*
X132218505Y-85249299D01*
X132199500Y-85183328D01*
X132199500Y-82920500D01*
X132219185Y-82853461D01*
X132271989Y-82807706D01*
X132323500Y-82796500D01*
X139075500Y-82796500D01*
X139142539Y-82816185D01*
X139188294Y-82868989D01*
X139199500Y-82920500D01*
X139199500Y-94299197D01*
X139199500Y-94422803D01*
X139199500Y-94422805D01*
X139199499Y-94422805D01*
X139223613Y-94544029D01*
X139223616Y-94544039D01*
X139270913Y-94658226D01*
X139270920Y-94658239D01*
X139339588Y-94761007D01*
X139339591Y-94761011D01*
X139426988Y-94848408D01*
X139426992Y-94848411D01*
X139529760Y-94917079D01*
X139529773Y-94917086D01*
X139632867Y-94959788D01*
X139643965Y-94964385D01*
X139643969Y-94964385D01*
X139643970Y-94964386D01*
X139765194Y-94988500D01*
X139765197Y-94988500D01*
X149444460Y-94988500D01*
X149485415Y-94995459D01*
X149553737Y-95019366D01*
X149553743Y-95019367D01*
X149553745Y-95019368D01*
X149553746Y-95019368D01*
X149553750Y-95019369D01*
X149732996Y-95039565D01*
X149733000Y-95039565D01*
X149733004Y-95039565D01*
X149912249Y-95019369D01*
X149912252Y-95019368D01*
X149912255Y-95019368D01*
X150082522Y-94959789D01*
X150235262Y-94863816D01*
X150362816Y-94736262D01*
X150458789Y-94583522D01*
X150518368Y-94413255D01*
X150538565Y-94234000D01*
X150518368Y-94054745D01*
X150458789Y-93884478D01*
X150362816Y-93731738D01*
X150235262Y-93604184D01*
X150235260Y-93604183D01*
X150082523Y-93508211D01*
X149912254Y-93448631D01*
X149912249Y-93448630D01*
X149733004Y-93428435D01*
X149732996Y-93428435D01*
X149553750Y-93448630D01*
X149553745Y-93448631D01*
X149383476Y-93508211D01*
X149230739Y-93604183D01*
X149137740Y-93697182D01*
X149076416Y-93730666D01*
X149050059Y-93733500D01*
X140578500Y-93733500D01*
X140511461Y-93713815D01*
X140465706Y-93661011D01*
X140454500Y-93609500D01*
X140454500Y-70004666D01*
X143263500Y-70004666D01*
X143263500Y-89888333D01*
X143302254Y-90083161D01*
X143302256Y-90083169D01*
X143378277Y-90266701D01*
X143378282Y-90266710D01*
X143488646Y-90431880D01*
X143488649Y-90431884D01*
X143629115Y-90572350D01*
X143629119Y-90572353D01*
X143794289Y-90682717D01*
X143794295Y-90682720D01*
X143794296Y-90682721D01*
X143977831Y-90758744D01*
X144172666Y-90797499D01*
X144172670Y-90797500D01*
X144172671Y-90797500D01*
X144371330Y-90797500D01*
X144371331Y-90797499D01*
X144566169Y-90758744D01*
X144749704Y-90682721D01*
X144914881Y-90572353D01*
X145055353Y-90431881D01*
X145165721Y-90266704D01*
X145241744Y-90083169D01*
X145280500Y-89888329D01*
X145280500Y-71236500D01*
X145300185Y-71169461D01*
X145352989Y-71123706D01*
X145404500Y-71112500D01*
X153527904Y-71112500D01*
X153594943Y-71132185D01*
X153615585Y-71148819D01*
X159605584Y-77138819D01*
X159639069Y-77200142D01*
X159634085Y-77269834D01*
X159592213Y-77325767D01*
X159526749Y-77350184D01*
X159517903Y-77350500D01*
X149163195Y-77350500D01*
X149041970Y-77374613D01*
X149041960Y-77374616D01*
X148927769Y-77421915D01*
X148844581Y-77477500D01*
X148844580Y-77477501D01*
X148824991Y-77490589D01*
X148783570Y-77532011D01*
X148697992Y-77617589D01*
X148654289Y-77661292D01*
X148610586Y-77704994D01*
X148610585Y-77704996D01*
X148541233Y-77808789D01*
X148539586Y-77813393D01*
X148497003Y-77916197D01*
X148494614Y-77921965D01*
X148478772Y-78001610D01*
X148478772Y-78001611D01*
X148470500Y-78043195D01*
X148470500Y-80103328D01*
X148451494Y-80169300D01*
X148372211Y-80295476D01*
X148312631Y-80465745D01*
X148312630Y-80465750D01*
X148292435Y-80644996D01*
X148292435Y-80645003D01*
X148312630Y-80824249D01*
X148312631Y-80824254D01*
X148372211Y-80994523D01*
X148411769Y-81057478D01*
X148468184Y-81147262D01*
X148595738Y-81274816D01*
X148748478Y-81370789D01*
X148918745Y-81430368D01*
X148918750Y-81430369D01*
X149097996Y-81450565D01*
X149098000Y-81450565D01*
X149098004Y-81450565D01*
X149277249Y-81430369D01*
X149277252Y-81430368D01*
X149277255Y-81430368D01*
X149447522Y-81370789D01*
X149600262Y-81274816D01*
X149727816Y-81147262D01*
X149823789Y-80994522D01*
X149883368Y-80824255D01*
X149885176Y-80808211D01*
X149903565Y-80645003D01*
X149903565Y-80644996D01*
X149883369Y-80465750D01*
X149883368Y-80465745D01*
X149823788Y-80295476D01*
X149744506Y-80169300D01*
X149725500Y-80103328D01*
X149725500Y-78729500D01*
X149745185Y-78662461D01*
X149797989Y-78616706D01*
X149849500Y-78605500D01*
X158887500Y-78605500D01*
X158954539Y-78625185D01*
X159000294Y-78677989D01*
X159011500Y-78729500D01*
X159011500Y-112329803D01*
X159011500Y-112329805D01*
X159011499Y-112329805D01*
X159035613Y-112451029D01*
X159035616Y-112451039D01*
X159082913Y-112565226D01*
X159082920Y-112565239D01*
X159151588Y-112668007D01*
X159151591Y-112668011D01*
X159238988Y-112755408D01*
X159238992Y-112755411D01*
X159341760Y-112824079D01*
X159341773Y-112824086D01*
X159455960Y-112871383D01*
X159455965Y-112871385D01*
X159455969Y-112871385D01*
X159455970Y-112871386D01*
X159577194Y-112895500D01*
X159577197Y-112895500D01*
X171892805Y-112895500D01*
X171974361Y-112879276D01*
X172014035Y-112871385D01*
X172128233Y-112824083D01*
X172231008Y-112755411D01*
X172318411Y-112668008D01*
X172387083Y-112565233D01*
X172434385Y-112451035D01*
X172458500Y-112329803D01*
X172458500Y-109590500D01*
X172478185Y-109523461D01*
X172530989Y-109477706D01*
X172582500Y-109466500D01*
X178909328Y-109466500D01*
X178975299Y-109485505D01*
X179101478Y-109564789D01*
X179271745Y-109624368D01*
X179271750Y-109624369D01*
X179450996Y-109644565D01*
X179451000Y-109644565D01*
X179451004Y-109644565D01*
X179630249Y-109624369D01*
X179630252Y-109624368D01*
X179630255Y-109624368D01*
X179800522Y-109564789D01*
X179953262Y-109468816D01*
X180080816Y-109341262D01*
X180176789Y-109188522D01*
X180236368Y-109018255D01*
X180236369Y-109018249D01*
X180256565Y-108839003D01*
X180256565Y-108838996D01*
X180236369Y-108659750D01*
X180236368Y-108659745D01*
X180221228Y-108616478D01*
X180176789Y-108489478D01*
X180169946Y-108478588D01*
X180134257Y-108421789D01*
X180080816Y-108336738D01*
X179953262Y-108209184D01*
X179907822Y-108180632D01*
X179800523Y-108113211D01*
X179630254Y-108053631D01*
X179630249Y-108053630D01*
X179451004Y-108033435D01*
X179450996Y-108033435D01*
X179271750Y-108053630D01*
X179271745Y-108053631D01*
X179101476Y-108113211D01*
X178975300Y-108192494D01*
X178909328Y-108211500D01*
X171769195Y-108211500D01*
X171647970Y-108235613D01*
X171647960Y-108235616D01*
X171533773Y-108282913D01*
X171533760Y-108282920D01*
X171430992Y-108351588D01*
X171430988Y-108351591D01*
X171343591Y-108438988D01*
X171343588Y-108438992D01*
X171274920Y-108541760D01*
X171274913Y-108541773D01*
X171227616Y-108655960D01*
X171227613Y-108655970D01*
X171203500Y-108777194D01*
X171203500Y-111516500D01*
X171183815Y-111583539D01*
X171131011Y-111629294D01*
X171079500Y-111640500D01*
X160390500Y-111640500D01*
X160323461Y-111620815D01*
X160277706Y-111568011D01*
X160266500Y-111516500D01*
X160266500Y-97535996D01*
X161246435Y-97535996D01*
X161246435Y-97536003D01*
X161266630Y-97715249D01*
X161266631Y-97715254D01*
X161326211Y-97885523D01*
X161418560Y-98032494D01*
X161422184Y-98038262D01*
X161549738Y-98165816D01*
X161576300Y-98182506D01*
X161691302Y-98254767D01*
X161702478Y-98261789D01*
X161872745Y-98321368D01*
X161872750Y-98321369D01*
X162051996Y-98341565D01*
X162052000Y-98341565D01*
X162052004Y-98341565D01*
X162231249Y-98321369D01*
X162231252Y-98321368D01*
X162231255Y-98321368D01*
X162401522Y-98261789D01*
X162527700Y-98182505D01*
X162593672Y-98163500D01*
X166209328Y-98163500D01*
X166275300Y-98182506D01*
X166390302Y-98254767D01*
X166401478Y-98261789D01*
X166571745Y-98321368D01*
X166571750Y-98321369D01*
X166750996Y-98341565D01*
X166751000Y-98341565D01*
X166751004Y-98341565D01*
X166930249Y-98321369D01*
X166930252Y-98321368D01*
X166930255Y-98321368D01*
X167100522Y-98261789D01*
X167253262Y-98165816D01*
X167380816Y-98038262D01*
X167476789Y-97885522D01*
X167536368Y-97715255D01*
X167556565Y-97536000D01*
X167536368Y-97356745D01*
X167476789Y-97186478D01*
X167380816Y-97033738D01*
X167253262Y-96906184D01*
X167226700Y-96889494D01*
X167100523Y-96810211D01*
X166930254Y-96750631D01*
X166930249Y-96750630D01*
X166751004Y-96730435D01*
X166750996Y-96730435D01*
X166571750Y-96750630D01*
X166571745Y-96750631D01*
X166401476Y-96810211D01*
X166275300Y-96889494D01*
X166209328Y-96908500D01*
X162593672Y-96908500D01*
X162527700Y-96889494D01*
X162401523Y-96810211D01*
X162231254Y-96750631D01*
X162231249Y-96750630D01*
X162052004Y-96730435D01*
X162051996Y-96730435D01*
X161872750Y-96750630D01*
X161872745Y-96750631D01*
X161702476Y-96810211D01*
X161549737Y-96906184D01*
X161422184Y-97033737D01*
X161326211Y-97186476D01*
X161266631Y-97356745D01*
X161266630Y-97356750D01*
X161246435Y-97535996D01*
X160266500Y-97535996D01*
X160266500Y-95503996D01*
X167977435Y-95503996D01*
X167977435Y-95504003D01*
X167997630Y-95683249D01*
X167997631Y-95683254D01*
X168057211Y-95853524D01*
X168136493Y-95979698D01*
X168155500Y-96045671D01*
X168155500Y-98772328D01*
X168136494Y-98838300D01*
X168057211Y-98964476D01*
X167997631Y-99134745D01*
X167997630Y-99134750D01*
X167977435Y-99313996D01*
X167977435Y-99314003D01*
X167997630Y-99493249D01*
X167997631Y-99493254D01*
X168057211Y-99663523D01*
X168153184Y-99816262D01*
X168280738Y-99943816D01*
X168433478Y-100039789D01*
X168603745Y-100099368D01*
X168603750Y-100099369D01*
X168782996Y-100119565D01*
X168783000Y-100119565D01*
X168783004Y-100119565D01*
X168962249Y-100099369D01*
X168962252Y-100099368D01*
X168962255Y-100099368D01*
X169132522Y-100039789D01*
X169285262Y-99943816D01*
X169412816Y-99816262D01*
X169508789Y-99663522D01*
X169568368Y-99493255D01*
X169588565Y-99314000D01*
X169573609Y-99181262D01*
X169568369Y-99134750D01*
X169568368Y-99134745D01*
X169508788Y-98964476D01*
X169429506Y-98838300D01*
X169410500Y-98772328D01*
X169410500Y-96045671D01*
X169429507Y-95979698D01*
X169508788Y-95853524D01*
X169568368Y-95683254D01*
X169568369Y-95683249D01*
X169588565Y-95504003D01*
X169588565Y-95503996D01*
X169568369Y-95324750D01*
X169568368Y-95324745D01*
X169508788Y-95154476D01*
X169423894Y-95019369D01*
X169412816Y-95001738D01*
X169285262Y-94874184D01*
X169132523Y-94778211D01*
X168962254Y-94718631D01*
X168962249Y-94718630D01*
X168783004Y-94698435D01*
X168782996Y-94698435D01*
X168603750Y-94718630D01*
X168603745Y-94718631D01*
X168433476Y-94778211D01*
X168280737Y-94874184D01*
X168153184Y-95001737D01*
X168057211Y-95154476D01*
X167997631Y-95324745D01*
X167997630Y-95324750D01*
X167977435Y-95503996D01*
X160266500Y-95503996D01*
X160266500Y-82803996D01*
X161754435Y-82803996D01*
X161754435Y-82804003D01*
X161774630Y-82983249D01*
X161774631Y-82983254D01*
X161834211Y-83153523D01*
X161930184Y-83306262D01*
X162057738Y-83433816D01*
X162210478Y-83529789D01*
X162380745Y-83589368D01*
X162380750Y-83589369D01*
X162559996Y-83609565D01*
X162560000Y-83609565D01*
X162560004Y-83609565D01*
X162739249Y-83589369D01*
X162739252Y-83589368D01*
X162739255Y-83589368D01*
X162909522Y-83529789D01*
X163035700Y-83450505D01*
X163101672Y-83431500D01*
X165574328Y-83431500D01*
X165640299Y-83450505D01*
X165766478Y-83529789D01*
X165936745Y-83589368D01*
X165936750Y-83589369D01*
X166115996Y-83609565D01*
X166116000Y-83609565D01*
X166116004Y-83609565D01*
X166295249Y-83589369D01*
X166295252Y-83589368D01*
X166295255Y-83589368D01*
X166465522Y-83529789D01*
X166618262Y-83433816D01*
X166745816Y-83306262D01*
X166841789Y-83153522D01*
X166901368Y-82983255D01*
X166915992Y-82853461D01*
X166921565Y-82804003D01*
X166921565Y-82803996D01*
X166901369Y-82624750D01*
X166901368Y-82624745D01*
X166841788Y-82454476D01*
X166756894Y-82319369D01*
X166745816Y-82301738D01*
X166618262Y-82174184D01*
X166465523Y-82078211D01*
X166295254Y-82018631D01*
X166295249Y-82018630D01*
X166116004Y-81998435D01*
X166115996Y-81998435D01*
X165936750Y-82018630D01*
X165936745Y-82018631D01*
X165766476Y-82078211D01*
X165640300Y-82157494D01*
X165574328Y-82176500D01*
X163101672Y-82176500D01*
X163035700Y-82157494D01*
X162909523Y-82078211D01*
X162739254Y-82018631D01*
X162739249Y-82018630D01*
X162560004Y-81998435D01*
X162559996Y-81998435D01*
X162380750Y-82018630D01*
X162380745Y-82018631D01*
X162210476Y-82078211D01*
X162057737Y-82174184D01*
X161930184Y-82301737D01*
X161834211Y-82454476D01*
X161774631Y-82624745D01*
X161774630Y-82624750D01*
X161754435Y-82803996D01*
X160266500Y-82803996D01*
X160266500Y-78099097D01*
X160286185Y-78032058D01*
X160338989Y-77986303D01*
X160408147Y-77976359D01*
X160471703Y-78005384D01*
X160478181Y-78011416D01*
X163260115Y-80793351D01*
X163260123Y-80793357D01*
X163425286Y-80903715D01*
X163425290Y-80903717D01*
X163425297Y-80903722D01*
X163518272Y-80942233D01*
X163608831Y-80979744D01*
X163803666Y-81018499D01*
X163803670Y-81018500D01*
X163803671Y-81018500D01*
X168882330Y-81018500D01*
X168882331Y-81018499D01*
X169077169Y-80979744D01*
X169260704Y-80903721D01*
X169425881Y-80793353D01*
X169566353Y-80652881D01*
X169676721Y-80487704D01*
X169752744Y-80304169D01*
X169791500Y-80109329D01*
X169791500Y-79910671D01*
X169752744Y-79715831D01*
X169676721Y-79532296D01*
X169676720Y-79532295D01*
X169676717Y-79532289D01*
X169566353Y-79367119D01*
X169566350Y-79367115D01*
X169425884Y-79226649D01*
X169425880Y-79226646D01*
X169260710Y-79116282D01*
X169260701Y-79116277D01*
X169077169Y-79040256D01*
X169077161Y-79040254D01*
X168882333Y-79001500D01*
X168882329Y-79001500D01*
X164372097Y-79001500D01*
X164305058Y-78981815D01*
X164284416Y-78965181D01*
X154639884Y-69320649D01*
X154639880Y-69320646D01*
X154474710Y-69210282D01*
X154474701Y-69210277D01*
X154291169Y-69134256D01*
X154291161Y-69134254D01*
X154096333Y-69095500D01*
X154096329Y-69095500D01*
X144371329Y-69095500D01*
X144172671Y-69095500D01*
X144172666Y-69095500D01*
X143977838Y-69134254D01*
X143977830Y-69134256D01*
X143794298Y-69210277D01*
X143794289Y-69210282D01*
X143629119Y-69320646D01*
X143629115Y-69320649D01*
X143488649Y-69461115D01*
X143488646Y-69461119D01*
X143378282Y-69626289D01*
X143378277Y-69626298D01*
X143302256Y-69809830D01*
X143302254Y-69809838D01*
X143263500Y-70004666D01*
X140454500Y-70004666D01*
X140454500Y-62025135D01*
X142401650Y-62025135D01*
X142401650Y-64720870D01*
X142401651Y-64720876D01*
X142408058Y-64780483D01*
X142458352Y-64915328D01*
X142458356Y-64915335D01*
X142544602Y-65030544D01*
X142544605Y-65030547D01*
X142659814Y-65116793D01*
X142659821Y-65116797D01*
X142794667Y-65167091D01*
X142794666Y-65167091D01*
X142801594Y-65167835D01*
X142854277Y-65173500D01*
X145550022Y-65173499D01*
X145609633Y-65167091D01*
X145744481Y-65116796D01*
X145859696Y-65030546D01*
X145945946Y-64915331D01*
X145996241Y-64780483D01*
X146002650Y-64720873D01*
X146002649Y-63372995D01*
X147477103Y-63372995D01*
X147477103Y-63373004D01*
X147497263Y-63642026D01*
X147497263Y-63642028D01*
X147557292Y-63905033D01*
X147557298Y-63905052D01*
X147655859Y-64156181D01*
X147655858Y-64156181D01*
X147790752Y-64389822D01*
X147844444Y-64457151D01*
X148681107Y-63620487D01*
X148706128Y-63680890D01*
X148777262Y-63787351D01*
X148867799Y-63877888D01*
X148974260Y-63949022D01*
X149034660Y-63974041D01*
X148196998Y-64811702D01*
X148379633Y-64936220D01*
X148379635Y-64936221D01*
X148622689Y-65053269D01*
X148622687Y-65053269D01*
X148880487Y-65132790D01*
X148880493Y-65132792D01*
X149147251Y-65172999D01*
X149147260Y-65173000D01*
X149417040Y-65173000D01*
X149417048Y-65172999D01*
X149683806Y-65132792D01*
X149683812Y-65132790D01*
X149941611Y-65053269D01*
X150184671Y-64936218D01*
X150367300Y-64811702D01*
X149529638Y-63974041D01*
X149590040Y-63949022D01*
X149696501Y-63877888D01*
X149787038Y-63787351D01*
X149858172Y-63680890D01*
X149883191Y-63620488D01*
X150719853Y-64457151D01*
X150719854Y-64457150D01*
X150773543Y-64389828D01*
X150773550Y-64389817D01*
X150908440Y-64156181D01*
X151007001Y-63905052D01*
X151007007Y-63905033D01*
X151067036Y-63642028D01*
X151067036Y-63642026D01*
X151087197Y-63373004D01*
X151087197Y-63372995D01*
X151067036Y-63103973D01*
X151067036Y-63103971D01*
X151007007Y-62840966D01*
X151007001Y-62840947D01*
X150908440Y-62589818D01*
X150908441Y-62589818D01*
X150773547Y-62356177D01*
X150719854Y-62288847D01*
X149883191Y-63125510D01*
X149858172Y-63065110D01*
X149787038Y-62958649D01*
X149696501Y-62868112D01*
X149590040Y-62796978D01*
X149529638Y-62771958D01*
X150367300Y-61934296D01*
X150184667Y-61809779D01*
X150184666Y-61809778D01*
X149941610Y-61692730D01*
X149941612Y-61692730D01*
X149784071Y-61644135D01*
X166785650Y-61644135D01*
X166785650Y-64339870D01*
X166785651Y-64339876D01*
X166792058Y-64399483D01*
X166842352Y-64534328D01*
X166842356Y-64534335D01*
X166928602Y-64649544D01*
X166928605Y-64649547D01*
X167043814Y-64735793D01*
X167043821Y-64735797D01*
X167178667Y-64786091D01*
X167178666Y-64786091D01*
X167185594Y-64786835D01*
X167238277Y-64792500D01*
X169934022Y-64792499D01*
X169993633Y-64786091D01*
X170128481Y-64735796D01*
X170243696Y-64649546D01*
X170329946Y-64534331D01*
X170380241Y-64399483D01*
X170386650Y-64339873D01*
X170386649Y-62991995D01*
X171861103Y-62991995D01*
X171861103Y-62992004D01*
X171881263Y-63261026D01*
X171881263Y-63261028D01*
X171941292Y-63524033D01*
X171941298Y-63524052D01*
X172039859Y-63775181D01*
X172039858Y-63775181D01*
X172174752Y-64008822D01*
X172228444Y-64076151D01*
X173065107Y-63239487D01*
X173090128Y-63299890D01*
X173161262Y-63406351D01*
X173251799Y-63496888D01*
X173358260Y-63568022D01*
X173418660Y-63593041D01*
X172580998Y-64430702D01*
X172763633Y-64555220D01*
X172763635Y-64555221D01*
X173006689Y-64672269D01*
X173006687Y-64672269D01*
X173264487Y-64751790D01*
X173264493Y-64751792D01*
X173531251Y-64791999D01*
X173531260Y-64792000D01*
X173801040Y-64792000D01*
X173801048Y-64791999D01*
X174067806Y-64751792D01*
X174067812Y-64751790D01*
X174325611Y-64672269D01*
X174568671Y-64555218D01*
X174751300Y-64430702D01*
X173913638Y-63593041D01*
X173974040Y-63568022D01*
X174080501Y-63496888D01*
X174171038Y-63406351D01*
X174242172Y-63299890D01*
X174267191Y-63239488D01*
X175103853Y-64076151D01*
X175103854Y-64076150D01*
X175157543Y-64008828D01*
X175157550Y-64008817D01*
X175292440Y-63775181D01*
X175391001Y-63524052D01*
X175391007Y-63524033D01*
X175451036Y-63261028D01*
X175451036Y-63261026D01*
X175471197Y-62992004D01*
X175471197Y-62991995D01*
X175451036Y-62722973D01*
X175451036Y-62722971D01*
X175391007Y-62459966D01*
X175391001Y-62459947D01*
X175292440Y-62208818D01*
X175292441Y-62208818D01*
X175157547Y-61975177D01*
X175103854Y-61907847D01*
X174267191Y-62744510D01*
X174242172Y-62684110D01*
X174171038Y-62577649D01*
X174080501Y-62487112D01*
X173974040Y-62415978D01*
X173913638Y-62390958D01*
X174751300Y-61553296D01*
X174568667Y-61428779D01*
X174568666Y-61428778D01*
X174325610Y-61311730D01*
X174325612Y-61311730D01*
X174067812Y-61232209D01*
X174067806Y-61232207D01*
X173801048Y-61192000D01*
X173531251Y-61192000D01*
X173264493Y-61232207D01*
X173264487Y-61232209D01*
X173006688Y-61311730D01*
X172763635Y-61428778D01*
X172763626Y-61428783D01*
X172580998Y-61553296D01*
X173418661Y-62390958D01*
X173358260Y-62415978D01*
X173251799Y-62487112D01*
X173161262Y-62577649D01*
X173090128Y-62684110D01*
X173065108Y-62744511D01*
X172228445Y-61907848D01*
X172174750Y-61975180D01*
X172039859Y-62208818D01*
X171941298Y-62459947D01*
X171941292Y-62459966D01*
X171881263Y-62722971D01*
X171881263Y-62722973D01*
X171861103Y-62991995D01*
X170386649Y-62991995D01*
X170386649Y-61644128D01*
X170380241Y-61584517D01*
X170378149Y-61578909D01*
X170329947Y-61449671D01*
X170329943Y-61449664D01*
X170243697Y-61334455D01*
X170243694Y-61334452D01*
X170128485Y-61248206D01*
X170128478Y-61248202D01*
X169993632Y-61197908D01*
X169993633Y-61197908D01*
X169934033Y-61191501D01*
X169934031Y-61191500D01*
X169934023Y-61191500D01*
X169934014Y-61191500D01*
X167238279Y-61191500D01*
X167238273Y-61191501D01*
X167178666Y-61197908D01*
X167043821Y-61248202D01*
X167043814Y-61248206D01*
X166928605Y-61334452D01*
X166928602Y-61334455D01*
X166842356Y-61449664D01*
X166842352Y-61449671D01*
X166792058Y-61584517D01*
X166787254Y-61629204D01*
X166785651Y-61644123D01*
X166785650Y-61644135D01*
X149784071Y-61644135D01*
X149683812Y-61613209D01*
X149683806Y-61613207D01*
X149417048Y-61573000D01*
X149147251Y-61573000D01*
X148880493Y-61613207D01*
X148880487Y-61613209D01*
X148622688Y-61692730D01*
X148379635Y-61809778D01*
X148379626Y-61809783D01*
X148196998Y-61934296D01*
X149034661Y-62771958D01*
X148974260Y-62796978D01*
X148867799Y-62868112D01*
X148777262Y-62958649D01*
X148706128Y-63065110D01*
X148681108Y-63125511D01*
X147844445Y-62288848D01*
X147790750Y-62356180D01*
X147655859Y-62589818D01*
X147557298Y-62840947D01*
X147557292Y-62840966D01*
X147497263Y-63103971D01*
X147497263Y-63103973D01*
X147477103Y-63372995D01*
X146002649Y-63372995D01*
X146002649Y-62025128D01*
X145996241Y-61965517D01*
X145994556Y-61961000D01*
X145945947Y-61830671D01*
X145945943Y-61830664D01*
X145859697Y-61715455D01*
X145859694Y-61715452D01*
X145744485Y-61629206D01*
X145744478Y-61629202D01*
X145609632Y-61578908D01*
X145609633Y-61578908D01*
X145550033Y-61572501D01*
X145550031Y-61572500D01*
X145550023Y-61572500D01*
X145550014Y-61572500D01*
X142854279Y-61572500D01*
X142854273Y-61572501D01*
X142794666Y-61578908D01*
X142659821Y-61629202D01*
X142659814Y-61629206D01*
X142544605Y-61715452D01*
X142544602Y-61715455D01*
X142458356Y-61830664D01*
X142458352Y-61830671D01*
X142408058Y-61965517D01*
X142401651Y-62025116D01*
X142401651Y-62025123D01*
X142401650Y-62025135D01*
X140454500Y-62025135D01*
X140454500Y-43086671D01*
X140473507Y-43020698D01*
X140485852Y-43001052D01*
X140552789Y-42894522D01*
X140612368Y-42724255D01*
X140616878Y-42684226D01*
X140632565Y-42545003D01*
X140632565Y-42544996D01*
X140612369Y-42365750D01*
X140612368Y-42365745D01*
X140576609Y-42263553D01*
X140552789Y-42195478D01*
X140456816Y-42042738D01*
X140329262Y-41915184D01*
X140321018Y-41910004D01*
X140176523Y-41819211D01*
X140006254Y-41759631D01*
X140006249Y-41759630D01*
X139827004Y-41739435D01*
X139826996Y-41739435D01*
X139647750Y-41759630D01*
X139647745Y-41759631D01*
X139477476Y-41819211D01*
X139324737Y-41915184D01*
X139197184Y-42042737D01*
X139101211Y-42195476D01*
X139041631Y-42365745D01*
X139041630Y-42365750D01*
X139021435Y-42544996D01*
X139021435Y-42545003D01*
X139041630Y-42724249D01*
X139041631Y-42724254D01*
X139101211Y-42894524D01*
X139180493Y-43020698D01*
X139199500Y-43086671D01*
X139199500Y-81417500D01*
X139179815Y-81484539D01*
X139127011Y-81530294D01*
X139075500Y-81541500D01*
X131860540Y-81541500D01*
X131819585Y-81534541D01*
X131751262Y-81510633D01*
X131751249Y-81510630D01*
X131572004Y-81490435D01*
X131571996Y-81490435D01*
X131392750Y-81510630D01*
X131392745Y-81510631D01*
X131222476Y-81570211D01*
X131069737Y-81666184D01*
X130942184Y-81793737D01*
X130846211Y-81946476D01*
X130786631Y-82116745D01*
X130786630Y-82116750D01*
X130766435Y-82295996D01*
X126865500Y-82295996D01*
X126865500Y-81948671D01*
X126884507Y-81882698D01*
X126963788Y-81756524D01*
X126963789Y-81756522D01*
X127023368Y-81586255D01*
X127029195Y-81534541D01*
X127043565Y-81407003D01*
X127043565Y-81406996D01*
X127023369Y-81227750D01*
X127023368Y-81227745D01*
X127008228Y-81184478D01*
X126963789Y-81057478D01*
X126947615Y-81031738D01*
X126914945Y-80979743D01*
X126867816Y-80904738D01*
X126740262Y-80777184D01*
X126694822Y-80748632D01*
X126587523Y-80681211D01*
X126417254Y-80621631D01*
X126417249Y-80621630D01*
X126238004Y-80601435D01*
X126237996Y-80601435D01*
X126058750Y-80621630D01*
X126058745Y-80621631D01*
X125888476Y-80681211D01*
X125735737Y-80777184D01*
X125608184Y-80904737D01*
X125512211Y-81057476D01*
X125452631Y-81227745D01*
X125452630Y-81227750D01*
X125432435Y-81406996D01*
X108450500Y-81406996D01*
X108450500Y-75590857D01*
X108470185Y-75523818D01*
X108522989Y-75478063D01*
X108588384Y-75467637D01*
X108711997Y-75481565D01*
X108712000Y-75481565D01*
X108712004Y-75481565D01*
X108891249Y-75461369D01*
X108891252Y-75461368D01*
X108891255Y-75461368D01*
X109061522Y-75401789D01*
X109214262Y-75305816D01*
X109341816Y-75178262D01*
X109437789Y-75025522D01*
X109497368Y-74855255D01*
X109497369Y-74855249D01*
X109517565Y-74676003D01*
X109517565Y-74675996D01*
X109497369Y-74496750D01*
X109497368Y-74496745D01*
X109437788Y-74326476D01*
X109398582Y-74264080D01*
X109341816Y-74173738D01*
X109214262Y-74046184D01*
X109187700Y-74029494D01*
X109061523Y-73950211D01*
X108891254Y-73890631D01*
X108891249Y-73890630D01*
X108712004Y-73870435D01*
X108711996Y-73870435D01*
X108532750Y-73890630D01*
X108532745Y-73890631D01*
X108362476Y-73950211D01*
X108236300Y-74029494D01*
X108170328Y-74048500D01*
X107761195Y-74048500D01*
X107639970Y-74072613D01*
X107639960Y-74072616D01*
X107525773Y-74119913D01*
X107525760Y-74119920D01*
X107422992Y-74188588D01*
X107422988Y-74188591D01*
X107335591Y-74275988D01*
X107335588Y-74275992D01*
X107266920Y-74378760D01*
X107266913Y-74378773D01*
X107219616Y-74492960D01*
X107219613Y-74492970D01*
X107195500Y-74614194D01*
X107195500Y-80782500D01*
X107175815Y-80849539D01*
X107123011Y-80895294D01*
X107071500Y-80906500D01*
X96172672Y-80906500D01*
X96106700Y-80887494D01*
X95980523Y-80808211D01*
X95810254Y-80748631D01*
X95810249Y-80748630D01*
X95631004Y-80728435D01*
X95630996Y-80728435D01*
X95451750Y-80748630D01*
X95451745Y-80748631D01*
X95281476Y-80808211D01*
X95128737Y-80904184D01*
X95001184Y-81031737D01*
X94905211Y-81184476D01*
X94845631Y-81354745D01*
X94845630Y-81354750D01*
X94825435Y-81533996D01*
X89527500Y-81533996D01*
X89527500Y-74254822D01*
X93733499Y-74254822D01*
X93767374Y-74425118D01*
X93767377Y-74425128D01*
X93833821Y-74585540D01*
X93833828Y-74585553D01*
X93930293Y-74729922D01*
X93930296Y-74729926D01*
X94053073Y-74852703D01*
X94053077Y-74852706D01*
X94197446Y-74949171D01*
X94197459Y-74949178D01*
X94357871Y-75015622D01*
X94357876Y-75015624D01*
X94357880Y-75015624D01*
X94357881Y-75015625D01*
X94528177Y-75049500D01*
X94528180Y-75049500D01*
X94701822Y-75049500D01*
X94822364Y-75025522D01*
X94872124Y-75015624D01*
X95032547Y-74949175D01*
X95176923Y-74852706D01*
X95299706Y-74729923D01*
X95396175Y-74585547D01*
X95462624Y-74425124D01*
X95492289Y-74275992D01*
X95496500Y-74254822D01*
X95496500Y-61263135D01*
X98967650Y-61263135D01*
X98967650Y-63958870D01*
X98967651Y-63958876D01*
X98974058Y-64018483D01*
X99024352Y-64153328D01*
X99024356Y-64153335D01*
X99110602Y-64268544D01*
X99110605Y-64268547D01*
X99225814Y-64354793D01*
X99225821Y-64354797D01*
X99360667Y-64405091D01*
X99360666Y-64405091D01*
X99367594Y-64405835D01*
X99420277Y-64411500D01*
X102116022Y-64411499D01*
X102175633Y-64405091D01*
X102310481Y-64354796D01*
X102425696Y-64268546D01*
X102511946Y-64153331D01*
X102562241Y-64018483D01*
X102568650Y-63958873D01*
X102568649Y-62610995D01*
X104043103Y-62610995D01*
X104043103Y-62611004D01*
X104063263Y-62880026D01*
X104063263Y-62880028D01*
X104123292Y-63143033D01*
X104123298Y-63143052D01*
X104221859Y-63394181D01*
X104221858Y-63394181D01*
X104356752Y-63627822D01*
X104410444Y-63695151D01*
X104410445Y-63695151D01*
X105247108Y-62858488D01*
X105272128Y-62918890D01*
X105343262Y-63025351D01*
X105433799Y-63115888D01*
X105540260Y-63187022D01*
X105600660Y-63212041D01*
X104762998Y-64049702D01*
X104945633Y-64174220D01*
X104945635Y-64174221D01*
X105188689Y-64291269D01*
X105188687Y-64291269D01*
X105446487Y-64370790D01*
X105446493Y-64370792D01*
X105713251Y-64410999D01*
X105713260Y-64411000D01*
X105983040Y-64411000D01*
X105983048Y-64410999D01*
X106249806Y-64370792D01*
X106249812Y-64370790D01*
X106507611Y-64291269D01*
X106750671Y-64174218D01*
X106933300Y-64049702D01*
X106095638Y-63212041D01*
X106156040Y-63187022D01*
X106262501Y-63115888D01*
X106353038Y-63025351D01*
X106424172Y-62918890D01*
X106449191Y-62858488D01*
X107285853Y-63695151D01*
X107285854Y-63695150D01*
X107339543Y-63627828D01*
X107339550Y-63627817D01*
X107474440Y-63394181D01*
X107573001Y-63143052D01*
X107573007Y-63143033D01*
X107633036Y-62880028D01*
X107633036Y-62880026D01*
X107653197Y-62611004D01*
X107653197Y-62610995D01*
X107633036Y-62341973D01*
X107633036Y-62341971D01*
X107573007Y-62078966D01*
X107573001Y-62078947D01*
X107474440Y-61827818D01*
X107474441Y-61827818D01*
X107339547Y-61594177D01*
X107285854Y-61526847D01*
X106449191Y-62363510D01*
X106424172Y-62303110D01*
X106353038Y-62196649D01*
X106262501Y-62106112D01*
X106156040Y-62034978D01*
X106095638Y-62009958D01*
X106933300Y-61172296D01*
X106750667Y-61047779D01*
X106750666Y-61047778D01*
X106507610Y-60930730D01*
X106507612Y-60930730D01*
X106249812Y-60851209D01*
X106249806Y-60851207D01*
X105983048Y-60811000D01*
X105713251Y-60811000D01*
X105446493Y-60851207D01*
X105446487Y-60851209D01*
X105188688Y-60930730D01*
X104945635Y-61047778D01*
X104945626Y-61047783D01*
X104762998Y-61172296D01*
X105600661Y-62009958D01*
X105540260Y-62034978D01*
X105433799Y-62106112D01*
X105343262Y-62196649D01*
X105272128Y-62303110D01*
X105247108Y-62363511D01*
X104410445Y-61526848D01*
X104356750Y-61594180D01*
X104221859Y-61827818D01*
X104123298Y-62078947D01*
X104123292Y-62078966D01*
X104063263Y-62341971D01*
X104063263Y-62341973D01*
X104043103Y-62610995D01*
X102568649Y-62610995D01*
X102568649Y-61263128D01*
X102562241Y-61203517D01*
X102560149Y-61197909D01*
X102511947Y-61068671D01*
X102511943Y-61068664D01*
X102425697Y-60953455D01*
X102425694Y-60953452D01*
X102310485Y-60867206D01*
X102310478Y-60867202D01*
X102175632Y-60816908D01*
X102175633Y-60816908D01*
X102116033Y-60810501D01*
X102116031Y-60810500D01*
X102116023Y-60810500D01*
X102116014Y-60810500D01*
X99420279Y-60810500D01*
X99420273Y-60810501D01*
X99360666Y-60816908D01*
X99225821Y-60867202D01*
X99225814Y-60867206D01*
X99110605Y-60953452D01*
X99110602Y-60953455D01*
X99024356Y-61068664D01*
X99024352Y-61068671D01*
X98974058Y-61203517D01*
X98969254Y-61248204D01*
X98967651Y-61263123D01*
X98967650Y-61263135D01*
X95496500Y-61263135D01*
X95496500Y-45252177D01*
X95462625Y-45081881D01*
X95462624Y-45081880D01*
X95462624Y-45081876D01*
X95462622Y-45081871D01*
X95396178Y-44921459D01*
X95396171Y-44921446D01*
X95299706Y-44777077D01*
X95299703Y-44777073D01*
X95176926Y-44654296D01*
X95176922Y-44654293D01*
X95032553Y-44557828D01*
X95032540Y-44557821D01*
X94872128Y-44491377D01*
X94872118Y-44491374D01*
X94701822Y-44457500D01*
X94701820Y-44457500D01*
X94528180Y-44457500D01*
X94528178Y-44457500D01*
X94357881Y-44491374D01*
X94357871Y-44491377D01*
X94197459Y-44557821D01*
X94197446Y-44557828D01*
X94053077Y-44654293D01*
X94053073Y-44654296D01*
X93930296Y-44777073D01*
X93930293Y-44777077D01*
X93833828Y-44921446D01*
X93833821Y-44921459D01*
X93767377Y-45081871D01*
X93767374Y-45081881D01*
X93733500Y-45252177D01*
X93733500Y-45252180D01*
X93733500Y-74254820D01*
X93733500Y-74254822D01*
X93733499Y-74254822D01*
X89527500Y-74254822D01*
X89527500Y-39883711D01*
X91367500Y-39883711D01*
X91367500Y-40126288D01*
X91396527Y-40346779D01*
X91399162Y-40366789D01*
X91399398Y-40367669D01*
X91461947Y-40601104D01*
X91554773Y-40825205D01*
X91554777Y-40825214D01*
X91555143Y-40825848D01*
X91676064Y-41035289D01*
X91676066Y-41035292D01*
X91676067Y-41035293D01*
X91823733Y-41227736D01*
X91823739Y-41227743D01*
X91995256Y-41399260D01*
X91995262Y-41399265D01*
X92187711Y-41546936D01*
X92397788Y-41668224D01*
X92569707Y-41739435D01*
X92618464Y-41759631D01*
X92621900Y-41761054D01*
X92856211Y-41823838D01*
X93009200Y-41843979D01*
X93096711Y-41855500D01*
X93096712Y-41855500D01*
X93339289Y-41855500D01*
X93411593Y-41845981D01*
X93579789Y-41823838D01*
X93814100Y-41761054D01*
X94038212Y-41668224D01*
X94248289Y-41546936D01*
X94440738Y-41399265D01*
X94612265Y-41227738D01*
X94759936Y-41035289D01*
X94881224Y-40825212D01*
X94969069Y-40613135D01*
X98454650Y-40613135D01*
X98454650Y-43308870D01*
X98454651Y-43308876D01*
X98461058Y-43368483D01*
X98511352Y-43503328D01*
X98511356Y-43503335D01*
X98597602Y-43618544D01*
X98597605Y-43618547D01*
X98712814Y-43704793D01*
X98712821Y-43704797D01*
X98847667Y-43755091D01*
X98847666Y-43755091D01*
X98854594Y-43755835D01*
X98907277Y-43761500D01*
X101603022Y-43761499D01*
X101662633Y-43755091D01*
X101797481Y-43704796D01*
X101912696Y-43618546D01*
X101998946Y-43503331D01*
X102049241Y-43368483D01*
X102055650Y-43308873D01*
X102055649Y-41960995D01*
X103530103Y-41960995D01*
X103530103Y-41961004D01*
X103550263Y-42230026D01*
X103550263Y-42230028D01*
X103610292Y-42493033D01*
X103610298Y-42493052D01*
X103708859Y-42744181D01*
X103708858Y-42744181D01*
X103843752Y-42977822D01*
X103897444Y-43045151D01*
X104734107Y-42208487D01*
X104759128Y-42268890D01*
X104830262Y-42375351D01*
X104920799Y-42465888D01*
X105027260Y-42537022D01*
X105087660Y-42562041D01*
X104249998Y-43399702D01*
X104432633Y-43524220D01*
X104432635Y-43524221D01*
X104675689Y-43641269D01*
X104675687Y-43641269D01*
X104933487Y-43720790D01*
X104933493Y-43720792D01*
X105200251Y-43760999D01*
X105200260Y-43761000D01*
X105470040Y-43761000D01*
X105470048Y-43760999D01*
X105736806Y-43720792D01*
X105736812Y-43720790D01*
X105994611Y-43641269D01*
X106237671Y-43524218D01*
X106420300Y-43399702D01*
X105582638Y-42562041D01*
X105643040Y-42537022D01*
X105749501Y-42465888D01*
X105840038Y-42375351D01*
X105911172Y-42268890D01*
X105936191Y-42208488D01*
X106772853Y-43045151D01*
X106772854Y-43045150D01*
X106826543Y-42977828D01*
X106826550Y-42977817D01*
X106961440Y-42744181D01*
X107060001Y-42493052D01*
X107060007Y-42493033D01*
X107120036Y-42230028D01*
X107120036Y-42230026D01*
X107140197Y-41961004D01*
X107140197Y-41960995D01*
X107136375Y-41909996D01*
X115653435Y-41909996D01*
X115653435Y-41910003D01*
X115673630Y-42089246D01*
X115673632Y-42089256D01*
X115697541Y-42157582D01*
X115704500Y-42198537D01*
X115704500Y-78433316D01*
X115733493Y-78579072D01*
X115733495Y-78579080D01*
X115790371Y-78716391D01*
X115872939Y-78839964D01*
X115872945Y-78839971D01*
X115978028Y-78945054D01*
X115978035Y-78945060D01*
X116101608Y-79027628D01*
X116101609Y-79027628D01*
X116101610Y-79027629D01*
X116238920Y-79084505D01*
X116384683Y-79113499D01*
X116384687Y-79113500D01*
X116384688Y-79113500D01*
X116533312Y-79113500D01*
X127219460Y-79113500D01*
X127260415Y-79120459D01*
X127328737Y-79144366D01*
X127328743Y-79144367D01*
X127328745Y-79144368D01*
X127328746Y-79144368D01*
X127328750Y-79144369D01*
X127507996Y-79164565D01*
X127508000Y-79164565D01*
X127508004Y-79164565D01*
X127687249Y-79144369D01*
X127687252Y-79144368D01*
X127687255Y-79144368D01*
X127857522Y-79084789D01*
X128010262Y-78988816D01*
X128137816Y-78861262D01*
X128233789Y-78708522D01*
X128293368Y-78538255D01*
X128313565Y-78359000D01*
X128293368Y-78179745D01*
X128233789Y-78009478D01*
X128137816Y-77856738D01*
X128010262Y-77729184D01*
X127971761Y-77704992D01*
X127857523Y-77633211D01*
X127687254Y-77573631D01*
X127687249Y-77573630D01*
X127508004Y-77553435D01*
X127507996Y-77553435D01*
X127328750Y-77573630D01*
X127328737Y-77573633D01*
X127260415Y-77597541D01*
X127219460Y-77604500D01*
X117337500Y-77604500D01*
X117270461Y-77584815D01*
X117224706Y-77532011D01*
X117213500Y-77480500D01*
X117213500Y-61771155D01*
X119415150Y-61771155D01*
X119415150Y-62869000D01*
X120615149Y-62869000D01*
X120590129Y-62929402D01*
X120565150Y-63054981D01*
X120565150Y-63183019D01*
X120590129Y-63308598D01*
X120615149Y-63369000D01*
X119415150Y-63369000D01*
X119415150Y-64466844D01*
X119421551Y-64526372D01*
X119421553Y-64526379D01*
X119471795Y-64661086D01*
X119471799Y-64661093D01*
X119557959Y-64776187D01*
X119557962Y-64776190D01*
X119673056Y-64862350D01*
X119673063Y-64862354D01*
X119807770Y-64912596D01*
X119807777Y-64912598D01*
X119867305Y-64918999D01*
X119867322Y-64919000D01*
X120965150Y-64919000D01*
X120965150Y-63719001D01*
X121025552Y-63744021D01*
X121151131Y-63769000D01*
X121279169Y-63769000D01*
X121404748Y-63744021D01*
X121465150Y-63719001D01*
X121465150Y-64919000D01*
X122562978Y-64919000D01*
X122562994Y-64918999D01*
X122622522Y-64912598D01*
X122622529Y-64912596D01*
X122757236Y-64862354D01*
X122757243Y-64862350D01*
X122872337Y-64776190D01*
X122872340Y-64776187D01*
X122958500Y-64661093D01*
X122958504Y-64661086D01*
X123008746Y-64526379D01*
X123008748Y-64526372D01*
X123015149Y-64466844D01*
X123015150Y-64466827D01*
X123015150Y-63369000D01*
X121815151Y-63369000D01*
X121840171Y-63308598D01*
X121865150Y-63183019D01*
X121865150Y-63118995D01*
X124489601Y-63118995D01*
X124489601Y-63119004D01*
X124509766Y-63388101D01*
X124569814Y-63651188D01*
X124569816Y-63651195D01*
X124616051Y-63769000D01*
X124668407Y-63902398D01*
X124803335Y-64136102D01*
X124908956Y-64268546D01*
X124971592Y-64347089D01*
X125158333Y-64520358D01*
X125169409Y-64530635D01*
X125392376Y-64682651D01*
X125635509Y-64799738D01*
X125893378Y-64879280D01*
X125893379Y-64879280D01*
X125893382Y-64879281D01*
X126160213Y-64919499D01*
X126160218Y-64919499D01*
X126160221Y-64919500D01*
X126160222Y-64919500D01*
X126430078Y-64919500D01*
X126430079Y-64919500D01*
X126430086Y-64919499D01*
X126696917Y-64879281D01*
X126696918Y-64879280D01*
X126696922Y-64879280D01*
X126954791Y-64799738D01*
X127197925Y-64682651D01*
X127420891Y-64530635D01*
X127593163Y-64370790D01*
X127618707Y-64347089D01*
X127618707Y-64347087D01*
X127618711Y-64347085D01*
X127786965Y-64136102D01*
X127921893Y-63902398D01*
X128020484Y-63651195D01*
X128080533Y-63388103D01*
X128100699Y-63119000D01*
X128095979Y-63056019D01*
X128082791Y-62880026D01*
X128080533Y-62849897D01*
X128020484Y-62586805D01*
X127921893Y-62335602D01*
X127786965Y-62101898D01*
X127618711Y-61890915D01*
X127618710Y-61890914D01*
X127618707Y-61890910D01*
X127420891Y-61707365D01*
X127399425Y-61692730D01*
X127197925Y-61555349D01*
X127197919Y-61555346D01*
X127197918Y-61555345D01*
X127197917Y-61555344D01*
X126954793Y-61438263D01*
X126954795Y-61438263D01*
X126696923Y-61358720D01*
X126696917Y-61358718D01*
X126430086Y-61318500D01*
X126430079Y-61318500D01*
X126160221Y-61318500D01*
X126160213Y-61318500D01*
X125893382Y-61358718D01*
X125893376Y-61358720D01*
X125635508Y-61438262D01*
X125392380Y-61555346D01*
X125169408Y-61707365D01*
X124971592Y-61890910D01*
X124803335Y-62101898D01*
X124668408Y-62335599D01*
X124668406Y-62335603D01*
X124569816Y-62586804D01*
X124569814Y-62586811D01*
X124509766Y-62849898D01*
X124489601Y-63118995D01*
X121865150Y-63118995D01*
X121865150Y-63054981D01*
X121840171Y-62929402D01*
X121815151Y-62869000D01*
X123015150Y-62869000D01*
X123015150Y-61771172D01*
X123015149Y-61771155D01*
X123008748Y-61711627D01*
X123008746Y-61711620D01*
X122958504Y-61576913D01*
X122958500Y-61576906D01*
X122872340Y-61461812D01*
X122872337Y-61461809D01*
X122757243Y-61375649D01*
X122757236Y-61375645D01*
X122622529Y-61325403D01*
X122622522Y-61325401D01*
X122562994Y-61319000D01*
X121465150Y-61319000D01*
X121465150Y-62518998D01*
X121404748Y-62493979D01*
X121279169Y-62469000D01*
X121151131Y-62469000D01*
X121025552Y-62493979D01*
X120965150Y-62518998D01*
X120965150Y-61319000D01*
X119867305Y-61319000D01*
X119807777Y-61325401D01*
X119807770Y-61325403D01*
X119673063Y-61375645D01*
X119673056Y-61375649D01*
X119557962Y-61461809D01*
X119557959Y-61461812D01*
X119471799Y-61576906D01*
X119471795Y-61576913D01*
X119421553Y-61711620D01*
X119421551Y-61711627D01*
X119415150Y-61771155D01*
X117213500Y-61771155D01*
X117213500Y-42198537D01*
X117220459Y-42157582D01*
X117222903Y-42150598D01*
X117244368Y-42089255D01*
X117258468Y-41964112D01*
X117264565Y-41910003D01*
X117264565Y-41909996D01*
X117244369Y-41730750D01*
X117244368Y-41730745D01*
X117201224Y-41607447D01*
X117184789Y-41560478D01*
X117176277Y-41546932D01*
X117102154Y-41428966D01*
X117088816Y-41407738D01*
X116961262Y-41280184D01*
X116808523Y-41184211D01*
X116638254Y-41124631D01*
X116638249Y-41124630D01*
X116459004Y-41104435D01*
X116458996Y-41104435D01*
X116279750Y-41124630D01*
X116279745Y-41124631D01*
X116109476Y-41184211D01*
X115956737Y-41280184D01*
X115829184Y-41407737D01*
X115733211Y-41560476D01*
X115673631Y-41730745D01*
X115673630Y-41730750D01*
X115653435Y-41909996D01*
X107136375Y-41909996D01*
X107120036Y-41691973D01*
X107120036Y-41691971D01*
X107060007Y-41428966D01*
X107060001Y-41428947D01*
X106961440Y-41177818D01*
X106961441Y-41177818D01*
X106826547Y-40944177D01*
X106772854Y-40876847D01*
X105936191Y-41713510D01*
X105911172Y-41653110D01*
X105840038Y-41546649D01*
X105749501Y-41456112D01*
X105643040Y-41384978D01*
X105582638Y-41359958D01*
X106380461Y-40562135D01*
X118525650Y-40562135D01*
X118525650Y-43257870D01*
X118525651Y-43257876D01*
X118532058Y-43317483D01*
X118582352Y-43452328D01*
X118582356Y-43452335D01*
X118668602Y-43567544D01*
X118668605Y-43567547D01*
X118783814Y-43653793D01*
X118783821Y-43653797D01*
X118918667Y-43704091D01*
X118918666Y-43704091D01*
X118925196Y-43704793D01*
X118978277Y-43710500D01*
X121674022Y-43710499D01*
X121733633Y-43704091D01*
X121868481Y-43653796D01*
X121983696Y-43567546D01*
X122069946Y-43452331D01*
X122120241Y-43317483D01*
X122126650Y-43257873D01*
X122126649Y-41909995D01*
X123601103Y-41909995D01*
X123601103Y-41910004D01*
X123621263Y-42179026D01*
X123621263Y-42179028D01*
X123681292Y-42442033D01*
X123681298Y-42442052D01*
X123779859Y-42693181D01*
X123779858Y-42693181D01*
X123914752Y-42926822D01*
X123968444Y-42994151D01*
X124805107Y-42157487D01*
X124830128Y-42217890D01*
X124901262Y-42324351D01*
X124991799Y-42414888D01*
X125098260Y-42486022D01*
X125158660Y-42511041D01*
X124320998Y-43348702D01*
X124503633Y-43473220D01*
X124503635Y-43473221D01*
X124746689Y-43590269D01*
X124746687Y-43590269D01*
X125004487Y-43669790D01*
X125004493Y-43669792D01*
X125271251Y-43709999D01*
X125271260Y-43710000D01*
X125541040Y-43710000D01*
X125541048Y-43709999D01*
X125807806Y-43669792D01*
X125807812Y-43669790D01*
X126065611Y-43590269D01*
X126308671Y-43473218D01*
X126491300Y-43348702D01*
X125653638Y-42511041D01*
X125714040Y-42486022D01*
X125820501Y-42414888D01*
X125911038Y-42324351D01*
X125982172Y-42217890D01*
X126007191Y-42157488D01*
X126843853Y-42994151D01*
X126843854Y-42994150D01*
X126897543Y-42926828D01*
X126897550Y-42926817D01*
X127032440Y-42693181D01*
X127131001Y-42442052D01*
X127131007Y-42442033D01*
X127191036Y-42179028D01*
X127191036Y-42179026D01*
X127211197Y-41910004D01*
X127211197Y-41909995D01*
X127191036Y-41640973D01*
X127191036Y-41640971D01*
X127131007Y-41377966D01*
X127131001Y-41377947D01*
X127032440Y-41126818D01*
X127032441Y-41126818D01*
X127029160Y-41121135D01*
X142650650Y-41121135D01*
X142650650Y-43816870D01*
X142650651Y-43816876D01*
X142657058Y-43876483D01*
X142707352Y-44011328D01*
X142707356Y-44011335D01*
X142793602Y-44126544D01*
X142793605Y-44126547D01*
X142908814Y-44212793D01*
X142908821Y-44212797D01*
X143043667Y-44263091D01*
X143043666Y-44263091D01*
X143050594Y-44263835D01*
X143103277Y-44269500D01*
X145799022Y-44269499D01*
X145858633Y-44263091D01*
X145993481Y-44212796D01*
X146108696Y-44126546D01*
X146194946Y-44011331D01*
X146245241Y-43876483D01*
X146251650Y-43816873D01*
X146251649Y-42468995D01*
X147726103Y-42468995D01*
X147726103Y-42469004D01*
X147746263Y-42738026D01*
X147746263Y-42738028D01*
X147806292Y-43001033D01*
X147806298Y-43001052D01*
X147904859Y-43252181D01*
X147904858Y-43252181D01*
X148039752Y-43485822D01*
X148093444Y-43553151D01*
X148930107Y-42716487D01*
X148955128Y-42776890D01*
X149026262Y-42883351D01*
X149116799Y-42973888D01*
X149223260Y-43045022D01*
X149283660Y-43070041D01*
X148445998Y-43907702D01*
X148628633Y-44032220D01*
X148628635Y-44032221D01*
X148871689Y-44149269D01*
X148871687Y-44149269D01*
X149129487Y-44228790D01*
X149129493Y-44228792D01*
X149396251Y-44268999D01*
X149396260Y-44269000D01*
X149666040Y-44269000D01*
X149666048Y-44268999D01*
X149932806Y-44228792D01*
X149932812Y-44228790D01*
X150190611Y-44149269D01*
X150433671Y-44032218D01*
X150616300Y-43907702D01*
X149778638Y-43070041D01*
X149839040Y-43045022D01*
X149945501Y-42973888D01*
X150036038Y-42883351D01*
X150107172Y-42776890D01*
X150132191Y-42716488D01*
X150968853Y-43553151D01*
X150968854Y-43553150D01*
X151022543Y-43485828D01*
X151022550Y-43485817D01*
X151157440Y-43252181D01*
X151256001Y-43001052D01*
X151256007Y-43001033D01*
X151316036Y-42738028D01*
X151316036Y-42738026D01*
X151336197Y-42469004D01*
X151336197Y-42468995D01*
X151316036Y-42199973D01*
X151316036Y-42199971D01*
X151256007Y-41936966D01*
X151256001Y-41936947D01*
X151157440Y-41685818D01*
X151157441Y-41685818D01*
X151022547Y-41452177D01*
X150968854Y-41384847D01*
X150132191Y-42221510D01*
X150107172Y-42161110D01*
X150036038Y-42054649D01*
X149945501Y-41964112D01*
X149839040Y-41892978D01*
X149778638Y-41867958D01*
X150616300Y-41030296D01*
X150433667Y-40905779D01*
X150433666Y-40905778D01*
X150190610Y-40788730D01*
X150190612Y-40788730D01*
X149932812Y-40709209D01*
X149932806Y-40709207D01*
X149666048Y-40669000D01*
X149396251Y-40669000D01*
X149129493Y-40709207D01*
X149129487Y-40709209D01*
X148871688Y-40788730D01*
X148628635Y-40905778D01*
X148628626Y-40905783D01*
X148445998Y-41030296D01*
X149283661Y-41867958D01*
X149223260Y-41892978D01*
X149116799Y-41964112D01*
X149026262Y-42054649D01*
X148955128Y-42161110D01*
X148930108Y-42221511D01*
X148093445Y-41384848D01*
X148039750Y-41452180D01*
X147904859Y-41685818D01*
X147806298Y-41936947D01*
X147806292Y-41936966D01*
X147746263Y-42199971D01*
X147746263Y-42199973D01*
X147726103Y-42468995D01*
X146251649Y-42468995D01*
X146251649Y-41121128D01*
X146245241Y-41061517D01*
X146233596Y-41030296D01*
X146194947Y-40926671D01*
X146194943Y-40926664D01*
X146108697Y-40811455D01*
X146108694Y-40811452D01*
X145993485Y-40725206D01*
X145993478Y-40725202D01*
X145858632Y-40674908D01*
X145858633Y-40674908D01*
X145799033Y-40668501D01*
X145799031Y-40668500D01*
X145799023Y-40668500D01*
X145799014Y-40668500D01*
X143103279Y-40668500D01*
X143103273Y-40668501D01*
X143043666Y-40674908D01*
X142908821Y-40725202D01*
X142908814Y-40725206D01*
X142793605Y-40811452D01*
X142793602Y-40811455D01*
X142707356Y-40926664D01*
X142707352Y-40926671D01*
X142657058Y-41061517D01*
X142650651Y-41121116D01*
X142650651Y-41121123D01*
X142650650Y-41121135D01*
X127029160Y-41121135D01*
X126897547Y-40893177D01*
X126843854Y-40825847D01*
X126007191Y-41662510D01*
X125982172Y-41602110D01*
X125911038Y-41495649D01*
X125820501Y-41405112D01*
X125714040Y-41333978D01*
X125653638Y-41308958D01*
X126400461Y-40562135D01*
X166404650Y-40562135D01*
X166404650Y-43257870D01*
X166404651Y-43257876D01*
X166411058Y-43317483D01*
X166461352Y-43452328D01*
X166461356Y-43452335D01*
X166547602Y-43567544D01*
X166547605Y-43567547D01*
X166662814Y-43653793D01*
X166662821Y-43653797D01*
X166797667Y-43704091D01*
X166797666Y-43704091D01*
X166804196Y-43704793D01*
X166857277Y-43710500D01*
X169553022Y-43710499D01*
X169612633Y-43704091D01*
X169747481Y-43653796D01*
X169862696Y-43567546D01*
X169948946Y-43452331D01*
X169999241Y-43317483D01*
X170005650Y-43257873D01*
X170005649Y-41909995D01*
X171480103Y-41909995D01*
X171480103Y-41910004D01*
X171500263Y-42179026D01*
X171500263Y-42179028D01*
X171560292Y-42442033D01*
X171560298Y-42442052D01*
X171658859Y-42693181D01*
X171658858Y-42693181D01*
X171793752Y-42926822D01*
X171847444Y-42994151D01*
X172684107Y-42157487D01*
X172709128Y-42217890D01*
X172780262Y-42324351D01*
X172870799Y-42414888D01*
X172977260Y-42486022D01*
X173037660Y-42511041D01*
X172199998Y-43348702D01*
X172382633Y-43473220D01*
X172382635Y-43473221D01*
X172625689Y-43590269D01*
X172625687Y-43590269D01*
X172883487Y-43669790D01*
X172883493Y-43669792D01*
X173150251Y-43709999D01*
X173150260Y-43710000D01*
X173420040Y-43710000D01*
X173420048Y-43709999D01*
X173686806Y-43669792D01*
X173686812Y-43669790D01*
X173944611Y-43590269D01*
X174187671Y-43473218D01*
X174370300Y-43348702D01*
X173532638Y-42511041D01*
X173593040Y-42486022D01*
X173699501Y-42414888D01*
X173790038Y-42324351D01*
X173861172Y-42217890D01*
X173886191Y-42157488D01*
X174722853Y-42994151D01*
X174722854Y-42994150D01*
X174776543Y-42926828D01*
X174776550Y-42926817D01*
X174911440Y-42693181D01*
X175010001Y-42442052D01*
X175010007Y-42442033D01*
X175070036Y-42179028D01*
X175070036Y-42179026D01*
X175090197Y-41910004D01*
X175090197Y-41909995D01*
X175070036Y-41640973D01*
X175070036Y-41640971D01*
X175010007Y-41377966D01*
X175010001Y-41377947D01*
X174911440Y-41126818D01*
X174911441Y-41126818D01*
X174780319Y-40899711D01*
X178743500Y-40899711D01*
X178743500Y-41142288D01*
X178774524Y-41377947D01*
X178775162Y-41382789D01*
X178781847Y-41407737D01*
X178837947Y-41617104D01*
X178930773Y-41841205D01*
X178930777Y-41841214D01*
X178933529Y-41845981D01*
X179052064Y-42051289D01*
X179052066Y-42051292D01*
X179052067Y-42051293D01*
X179199733Y-42243736D01*
X179199739Y-42243743D01*
X179371256Y-42415260D01*
X179371263Y-42415266D01*
X179472611Y-42493033D01*
X179563711Y-42562936D01*
X179773788Y-42684224D01*
X179997900Y-42777054D01*
X180232211Y-42839838D01*
X180412586Y-42863584D01*
X180472711Y-42871500D01*
X180472712Y-42871500D01*
X180715289Y-42871500D01*
X180763388Y-42865167D01*
X180955789Y-42839838D01*
X181190100Y-42777054D01*
X181414212Y-42684224D01*
X181624289Y-42562936D01*
X181816738Y-42415265D01*
X181988265Y-42243738D01*
X182135936Y-42051289D01*
X182257224Y-41841212D01*
X182350054Y-41617100D01*
X182412838Y-41382789D01*
X182444500Y-41142288D01*
X182444500Y-40899712D01*
X182412838Y-40659211D01*
X182350054Y-40424900D01*
X182257224Y-40200788D01*
X182135936Y-39990711D01*
X181988265Y-39798262D01*
X181988260Y-39798256D01*
X181816743Y-39626739D01*
X181816736Y-39626733D01*
X181624293Y-39479067D01*
X181624292Y-39479066D01*
X181624289Y-39479064D01*
X181414212Y-39357776D01*
X181414205Y-39357773D01*
X181190104Y-39264947D01*
X180955785Y-39202161D01*
X180715289Y-39170500D01*
X180715288Y-39170500D01*
X180472712Y-39170500D01*
X180472711Y-39170500D01*
X180232214Y-39202161D01*
X179997895Y-39264947D01*
X179773794Y-39357773D01*
X179773785Y-39357777D01*
X179563706Y-39479067D01*
X179371263Y-39626733D01*
X179371256Y-39626739D01*
X179199739Y-39798256D01*
X179199733Y-39798263D01*
X179052067Y-39990706D01*
X178930777Y-40200785D01*
X178930773Y-40200794D01*
X178837947Y-40424895D01*
X178775161Y-40659214D01*
X178743500Y-40899711D01*
X174780319Y-40899711D01*
X174776547Y-40893177D01*
X174722854Y-40825847D01*
X173886191Y-41662510D01*
X173861172Y-41602110D01*
X173790038Y-41495649D01*
X173699501Y-41405112D01*
X173593040Y-41333978D01*
X173532638Y-41308958D01*
X174370300Y-40471296D01*
X174187667Y-40346779D01*
X174187666Y-40346778D01*
X173944610Y-40229730D01*
X173944612Y-40229730D01*
X173686812Y-40150209D01*
X173686806Y-40150207D01*
X173420048Y-40110000D01*
X173150251Y-40110000D01*
X172883493Y-40150207D01*
X172883487Y-40150209D01*
X172625688Y-40229730D01*
X172382635Y-40346778D01*
X172382626Y-40346783D01*
X172199998Y-40471296D01*
X173037661Y-41308958D01*
X172977260Y-41333978D01*
X172870799Y-41405112D01*
X172780262Y-41495649D01*
X172709128Y-41602110D01*
X172684108Y-41662511D01*
X171847445Y-40825848D01*
X171793750Y-40893180D01*
X171658859Y-41126818D01*
X171560298Y-41377947D01*
X171560292Y-41377966D01*
X171500263Y-41640971D01*
X171500263Y-41640973D01*
X171480103Y-41909995D01*
X170005649Y-41909995D01*
X170005649Y-40562128D01*
X169999241Y-40502517D01*
X169987596Y-40471296D01*
X169948947Y-40367671D01*
X169948943Y-40367664D01*
X169862697Y-40252455D01*
X169862694Y-40252452D01*
X169747485Y-40166206D01*
X169747478Y-40166202D01*
X169612632Y-40115908D01*
X169612633Y-40115908D01*
X169553033Y-40109501D01*
X169553031Y-40109500D01*
X169553023Y-40109500D01*
X169553014Y-40109500D01*
X166857279Y-40109500D01*
X166857273Y-40109501D01*
X166797666Y-40115908D01*
X166662821Y-40166202D01*
X166662814Y-40166206D01*
X166547605Y-40252452D01*
X166547602Y-40252455D01*
X166461356Y-40367664D01*
X166461352Y-40367671D01*
X166411058Y-40502517D01*
X166404651Y-40562116D01*
X166404651Y-40562123D01*
X166404650Y-40562135D01*
X126400461Y-40562135D01*
X126491300Y-40471296D01*
X126308667Y-40346779D01*
X126308666Y-40346778D01*
X126065610Y-40229730D01*
X126065612Y-40229730D01*
X125807812Y-40150209D01*
X125807806Y-40150207D01*
X125541048Y-40110000D01*
X125271251Y-40110000D01*
X125004493Y-40150207D01*
X125004487Y-40150209D01*
X124746688Y-40229730D01*
X124503635Y-40346778D01*
X124503626Y-40346783D01*
X124320998Y-40471296D01*
X125158661Y-41308958D01*
X125098260Y-41333978D01*
X124991799Y-41405112D01*
X124901262Y-41495649D01*
X124830128Y-41602110D01*
X124805108Y-41662511D01*
X123968445Y-40825848D01*
X123914750Y-40893180D01*
X123779859Y-41126818D01*
X123681298Y-41377947D01*
X123681292Y-41377966D01*
X123621263Y-41640971D01*
X123621263Y-41640973D01*
X123601103Y-41909995D01*
X122126649Y-41909995D01*
X122126649Y-40562128D01*
X122120241Y-40502517D01*
X122108596Y-40471296D01*
X122069947Y-40367671D01*
X122069943Y-40367664D01*
X121983697Y-40252455D01*
X121983694Y-40252452D01*
X121868485Y-40166206D01*
X121868478Y-40166202D01*
X121733632Y-40115908D01*
X121733633Y-40115908D01*
X121674033Y-40109501D01*
X121674031Y-40109500D01*
X121674023Y-40109500D01*
X121674014Y-40109500D01*
X118978279Y-40109500D01*
X118978273Y-40109501D01*
X118918666Y-40115908D01*
X118783821Y-40166202D01*
X118783814Y-40166206D01*
X118668605Y-40252452D01*
X118668602Y-40252455D01*
X118582356Y-40367664D01*
X118582352Y-40367671D01*
X118532058Y-40502517D01*
X118525651Y-40562116D01*
X118525651Y-40562123D01*
X118525650Y-40562135D01*
X106380461Y-40562135D01*
X106420300Y-40522296D01*
X106237667Y-40397779D01*
X106237666Y-40397778D01*
X105994610Y-40280730D01*
X105994612Y-40280730D01*
X105736812Y-40201209D01*
X105736806Y-40201207D01*
X105470048Y-40161000D01*
X105200251Y-40161000D01*
X104933493Y-40201207D01*
X104933487Y-40201209D01*
X104675688Y-40280730D01*
X104432635Y-40397778D01*
X104432626Y-40397783D01*
X104249998Y-40522296D01*
X105087661Y-41359958D01*
X105027260Y-41384978D01*
X104920799Y-41456112D01*
X104830262Y-41546649D01*
X104759128Y-41653110D01*
X104734108Y-41713511D01*
X103897445Y-40876848D01*
X103843750Y-40944180D01*
X103708859Y-41177818D01*
X103610298Y-41428947D01*
X103610292Y-41428966D01*
X103550263Y-41691971D01*
X103550263Y-41691973D01*
X103530103Y-41960995D01*
X102055649Y-41960995D01*
X102055649Y-40613128D01*
X102049241Y-40553517D01*
X102037596Y-40522296D01*
X101998947Y-40418671D01*
X101998943Y-40418664D01*
X101912697Y-40303455D01*
X101912694Y-40303452D01*
X101797485Y-40217206D01*
X101797478Y-40217202D01*
X101662632Y-40166908D01*
X101662633Y-40166908D01*
X101603033Y-40160501D01*
X101603031Y-40160500D01*
X101603023Y-40160500D01*
X101603014Y-40160500D01*
X98907279Y-40160500D01*
X98907273Y-40160501D01*
X98847666Y-40166908D01*
X98712821Y-40217202D01*
X98712814Y-40217206D01*
X98597605Y-40303452D01*
X98597602Y-40303455D01*
X98511356Y-40418664D01*
X98511352Y-40418671D01*
X98461058Y-40553517D01*
X98454651Y-40613116D01*
X98454651Y-40613123D01*
X98454650Y-40613135D01*
X94969069Y-40613135D01*
X94974054Y-40601100D01*
X95036838Y-40366789D01*
X95068500Y-40126288D01*
X95068500Y-39883712D01*
X95036838Y-39643211D01*
X94974054Y-39408900D01*
X94881224Y-39184788D01*
X94759936Y-38974711D01*
X94612265Y-38782262D01*
X94612260Y-38782256D01*
X94440743Y-38610739D01*
X94440736Y-38610733D01*
X94248293Y-38463067D01*
X94248292Y-38463066D01*
X94248289Y-38463064D01*
X94038212Y-38341776D01*
X94038205Y-38341773D01*
X93814104Y-38248947D01*
X93579785Y-38186161D01*
X93339289Y-38154500D01*
X93339288Y-38154500D01*
X93096712Y-38154500D01*
X93096711Y-38154500D01*
X92856214Y-38186161D01*
X92621895Y-38248947D01*
X92397794Y-38341773D01*
X92397785Y-38341777D01*
X92187706Y-38463067D01*
X91995263Y-38610733D01*
X91995256Y-38610739D01*
X91823739Y-38782256D01*
X91823733Y-38782263D01*
X91676067Y-38974706D01*
X91554777Y-39184785D01*
X91554773Y-39184794D01*
X91461947Y-39408895D01*
X91399161Y-39643214D01*
X91367500Y-39883711D01*
X89527500Y-39883711D01*
X89527500Y-34660500D01*
X89547185Y-34593461D01*
X89599989Y-34547706D01*
X89651500Y-34536500D01*
X184541500Y-34536500D01*
X184608539Y-34556185D01*
G37*
G04 #@! TD.AperFunction*
G04 #@! TD*
M02*
